<svg xmlns="http://www.w3.org/2000/svg" viewBox="0 0 720 515" width="720" height="515">
  <!-- SEE-887 Ärmel-Schriftzug Starnberger See · CI: Sand-Beige/Weiß + Akzent #5566a8 (Schiefer) · Caveat+Inter -->
  <!-- Linsen: Visuelle Hierarchie (Seename=Hero), Minimalismus/Weißraum, Markenkohärenz (Board-Seeumriss), Typografie-System -->
  <rect width="720" height="515" fill="none"/>
  <g opacity="0.92">
    <path transform="translate(285.00,70.00) scale(0.07500)" d="M1337.344,37.046l0.056-0.968l-2.384-2.305l-0.545-1.019l-0.057-0.062l-1.068-1.76l-2.929-3.173l-2.685-2.255  l-1.447,0.156l-1.448-0.785l-0.88,0.463l-1.146,0.222l-0.847,0.006l-1.259-0.195l-1.091-0.446l-1.313-0.662l-1.048-0.674  l-0.489-0.417l-0.135-0.373l0.078-0.391l0.301-0.022l1.459,1.064l1.303,0.802l0.914,0.373l0.902,0.167l0.9,0.056l0.412-0.067  l1.004-0.925l0.445,0.463l1.169-0.896l-0.401-0.457l0.268-0.285l-1.18-1.242l-0.268,0.285l-0.078-0.072l0.545-0.68l-0.334-0.384  l-0.813,0.4l-1.158-1.225l0.056-0.15l-0.134-0.362l-0.412-0.558l-0.623-0.573l-2.473-4.483l-1.771-5.045l-2.383-3.397l-1.181-1.966  l-2.673,0.251l-1.648-0.763l-0.078,0.345l1.226,0.641l-0.245,0.751l-1.203,0.285l-1.993-1.397l0.323-0.708l1.781,0.384l0.078-0.317  l-1.715-0.674l-3.096-1.487L1302.375,0l-4.711,0.189l-1.805,0.73l-0.412,0.162L1294,1.514l-0.246,0.056l-0.635,0.239l-0.322,0.062  l-0.356-0.351l-0.769-0.869l-0.68-0.2l-0.602,0.189l-0.801,0.307l-0.68,0.284l0.078,0.29l-0.078,0.044l-0.246,0.123l-0.033,0.333  l-0.133,0.19l0.088,0.373h0.135l0.133,0.601l-0.623,0.168l-0.033-0.096l-0.268,0.017l-0.2-0.033l-0.212-0.156l-2.25,0.668v0.211  l-0.077,0.172l-0.245,0.106l-0.245,0.022l-0.256-0.111l-0.134-0.3l-1.693-0.4l-0.467,0.017l-0.68-0.452l-0.412-0.373l-0.245,0.445  l0.3,0.34l0.625,0.412l0.5,1.403l-0.355,0.228l-0.557-0.818l-0.902-0.235l-2.65-1.753l-0.824-1.097l-0.902-0.072l-1.693-0.958  l-1.125,2.25l2.518,1.147l1.014-0.233l0.69,0.991l-0.2,0.178l0.2,0.434l-1.425-0.64l-0.691,1.437l0.168,0.139l0.189,0.417  l0.033,0.396l-0.279,0.345l-0.322-0.028l-0.301-0.2l-1.705-0.597l-1.279-0.445l-0.547-0.034l-1.202-0.167l-0.223-0.128l-0.077-0.157  l-0.224,0.083l-0.302,0.068l0.023,0.479l-6.805,0.584l0.022,2.333l-4.678,0.273l0.245,5.512l-0.379,0.011l-0.201-0.139l-2.404-0.975  l-2.238-0.751l-0.77-0.146l-0.879-0.461l-0.379-1.515l-0.846,0.106l-0.446,2.672l-0.567,0.206l-0.547,0.217l-0.936,0.391v-0.006  l-0.957,0.395l-0.246,0.123L1246,15.251l-0.156,0.095l-0.199,0.096l-0.213,0.128l-0.133,0.106l-0.168,0.145l-0.111,0.161  l-0.167,0.178l-0.245,0.189l-0.322,0.078l-0.168,0.044l-0.188,0.056l-0.167,0.061l-0.246,0.096l-0.166,0.078l-0.223,0.161  l-0.212,0.267l-0.056,0.089l-0.111,0.234l-0.078,0.167l-0.301,0.274l-0.523,0.467l-0.412,0.362l-0.379,0.385l-0.355,0.384  l-0.445,0.612l-0.078,0.157l-0.057,0.128l-0.055,0.105l-0.057,0.178l-0.021,0.1l-0.033,0.128l0.033,0.1l0.021,0.128v0.162  l-0.055,0.061l-0.135,0.078l-0.166,0.045l-0.134-0.022l-0.077-0.018l-0.146-0.039l-0.155-0.033l-0.167,0.022l-0.189,0.079  l-0.133,0.139l-1.182,1.681l-0.522,0.613l-0.079,0.111l-0.033,0.083l-0.055,0.094l-0.045,0.128l-0.056,0.095l-0.034,0.083  l-0.021,0.122l-0.057,0.111l-0.033,0.123l-0.055,0.1l-0.057,0.14l-0.078,0.106l-0.078,0.111l-0.088,0.089l-0.101,0.111l-0.111,0.094  l-0.145,0.083l-0.044,0.022l-0.313,0.111l-0.189,0.044h-0.245l-0.323-0.011l-0.846-0.039l-0.635-0.089l-0.602-0.117l-1.314-0.211  l-1.393-0.189l-0.635-0.022l-0.166,0.022l-0.156,0.028l-0.145,0.05l-0.045,0.033l-0.089,0.067l-0.078,0.1l-0.056,0.039l-0.133,0.056  h-0.146l-0.189-0.006l-0.166-0.011l-0.156-0.022l-0.301-0.05l-0.166-0.022l-0.189-0.033l-0.168-0.006l-0.189-0.017l-0.277-0.011  h-0.223l-0.514,0.067l-3.775,0.656l-2.55,0.63l-0.979,0.512l-6.682,0.608l-1.75,0.2l-1.914,0.361l-1.337,0.15l0.546,0.908  l-0.902,0.541l-0.746,0.445l-0.813,0.495l-0.823,0.502l-0.77,0.456l-0.869,0.535l-0.556-0.913l-1.616,1.765l0.691,0.719  l-1.014,1.158l-0.68,0.768l-0.2,0.218l1.014,1.186l0.089,0.606l-0.445,0.663l-1.146,3.151l-0.134,1.516l-0.468,1.787l-2.65,4.683  l-2.518,0.679l-1.125,0.924l-1.146,2.667l-1.559,6.638l-1.86,8.52l-1.013,2.973l-1.805-0.25l-2.629,5.736l-1.313,0.986l-1.125,2.361  l-3.72,12.417l0.133,0.595l-0.601,1.538l-1.125,3.018l-0.679,2.077l-0.135,0.373l-1.258,3.653l-0.412,1.297l-1.181,0.685  l-0.712,0.518l0.033,1.253l-0.033,1.364l2.906,3.447l0.189,2.802l-0.546,0.99l-0.445,0.329l-0.791,1.214l-0.869,1.287l-1.046,0.634  l0.545,1.426l-0.656,1.158l-1.615-0.567l-0.355,0.662l-0.135,0.407l-3.285,0.88l-1.559,3.557l-0.246,0.824l0.713,0.691l-0.301,0.785  l-0.957,0.73l-0.523,1.659l-0.68-0.072l-0.078,0.758l-1.213,0.467l-0.379,1.838l0.133,0.295l0.279,0.083l0.3,0.295l-0.111,0.691  l-0.88,0.345l-0.045,0.368l1.227,0.167l-0.168,1.392l-0.846,1.042l-0.213,1.598l-1.514,0.267l-0.322,1.32l-0.246,1.732l1.26,2.517  l-0.436,1.008l-0.334,0.317l-0.602,0.941l-3.04,6.264l-1.448,3.636l-1.971,5.15l-2.082,5.569l-1.26,3.379l-0.846,1.727l-1.17,5.178  l1.314,7.161l-0.713,0.663l0.713,0.996l-0.055,0.629l-1.459,1.448l0.411,0.295l-0.378,0.491l0.322,0.523l-2.951,6.192l-4.109,3.581  l-3.42,4.844l-0.1,0.245l-0.824,2.417l-0.713,1.326l-1.146,0.846l0.568,0.624l-0.457,1.859l-1.871,3.13l0.168,2.216l-1.226,1.548  l-1.616,0.741l-0.935,1.052l-0.901,1.124l-0.98-0.195l-1.648,1.744l0.189,0.389l-0.758,1.42l-1.18,2.277l0.133,1.353l0.523,0.195  l0.189,0.569l-0.166,0.556l-0.736,0.263l-0.434-0.063l-0.356-0.095l-0.19,0.619l1.26,0.646l-0.168,0.513l-1.369,0.194l-0.523,2.639  l-1.525,3.203l-2.217,7.467l-1.615,2.178l-1.914,5.725l0.055,4.081l0.457,4.516l-1.637,3.073l-3.475,2.812l-2.384,3.743  l-1.581,4.715l-3.42,10.202l0.791,1.386l-4.132,8.931l-1.091,4.895l-1.014,5.157l-0.502,0.479l-0.846-1.086l-0.869-0.473  l-0.545-0.396l-0.201-0.467l0.936-0.997l0.623-0.963l0.558-1.275l0.156-1.431l1.013-2.311l-1.146-0.295l-0.791,2.294l-0.501,1.843  l-0.901,1.688l-0.457,0.919l-0.412,0.612l0.957,1.782l-1.48,1.687l-1.447,5.106l-1.537,1.397l-2.127,1.66l-2.797-0.424l-0.578,3.186  l4.934,1.164l-0.445,1.169l-1.359,2.823l-2.271,3.419l-5.201,4.644l-1.125,5.597l-1.313,6.336l-5.413,10.697l-10.078,5.017  l-5.189,2.528l-1.894,1.392l-1.537,1.592l-2.049,2.863l-2.685,3.742l-4.265,4.248l-1.069,2.222l-1.615,2.584l-0.1,0.211l0.301,1.248  l0.656,2.522l0.902,3.436l0.68,1.186l1.447,0.914l-0.734,1.782l-1.147,1.258l-1.56,1.22l-2.516-0.33l-2.773,2.852l-1.504,2.768  l-2.238,1.152l-0.168,0.083l-0.078,0.145l-0.088,0.094l-2.873,4.427l-0.68,6.364l-1.203,0.902l-0.355,0.751l-0.881,2.562  l-0.021,0.25l-0.057,0.106l-0.033,0.128l-2.595,12.105l-2.817,3.425l0.134,4.611l-0.791,1.815l-0.88,1.381l-1.938,3.252l0.49,0.579  l-1.916,1.905l-1.336,1.325l-1.014-0.406l-4.655,3.112l-1.202,1.777l-2.684,2.628l-10.292,5.439l-0.156,0.146l-1.592,2.182  l-0.435,0.858l-0.712,1.442l0.902,1.71l-1.125,1.136l-0.268,0.445l-0.134,0.184l-0.913-0.445l-0.546,0.751l-0.378-0.117  l-1.014,1.911l-1.804,4.037l-0.657,1.899l-0.056,1.23l-0.356,1.063l-0.168,0.401l-2.684,3.775l-2.784,3.859l-0.523,1.888  l-0.134,0.523l-1.993,2.65l-0.658,2.902l-0.69,4.487l-2.082,9.605l-1.002,5.858l-2.628,3.692l-1.67,1.972l-1.971,3.909l-1.37,1.727  l-1.069,1.342l-1.014,1.258L958.994,533l-0.567,0.707l-0.991,1.258l-0.412,0.552l-0.546,0.657l-0.323-0.139l-0.747-0.3l-0.657,0.819  l-0.791,1.012l-2.238,3.531l-0.089,0.245l-0.434,1.343l1.615,0.712l-0.467,1.833l-0.301,1.425l-0.022,0.791v0.111v0.272  l-0.802,2.762l-0.189,0.546l-0.569,0.957l-2.817,3.781l-3.586,5.469l-0.111,0.194l-0.033,0.05l-0.211,0.385l-0.112,0.195  l-0.167,0.217l-0.134,0.162l-0.167,0.111l-0.245,0.083l-0.847,0.083l0.078,1.616l0.112,0.79l0.078,0.574l0.056,0.573l0.19,0.908  l0.312,0.93l0.323,0.628l0.379,0.546l1.258,1.397l0.857,0.98l2.405,2.467l0.111,0.245l0.023,0.189l-0.301,0.658l-0.545-0.273  l-0.167,0.194l0.769,0.574l-0.379,0.713l0.958,1.203l-0.256,0.929l-1.938,7.361l-0.579,4.922l-0.079,4.705l2.651,3.999l-0.568,1.559  l1.749,1.503l-0.468,1.181l0.189,1.063l-1.748,1.097l-0.167,1.064l1.314-0.273l0.412,0.412l-0.512,0.384l-0.657,1.86l-1.949,3.53  l-1.069,1.42l-1.114,0.551l-1.103,0.245l-0.847-0.139l-3.797-0.846l-2.628-0.167l-4.076-0.022l-1.615,0.406l-8.074,4.683  l-2.461,1.503l-4.656,2.65l-3.14,2.111l-3.887,3.335l-0.824,1.042l-0.545,0.874l-0.747,1.671l-1.581,5.445l-0.033,1.425l0.578,1.281  l1.336,1.342l0.223,5.307l0.546,3.151l0.991,3.502l1.147,2.846l0.489,2.817l-0.111,3.006l-2.517,5.969l-1.092,3.581l-1.837,7.474  l-2.35,1.804l-4.376,3.669l-4.209,4.811l-1.047,3.012l-0.924,11.382l-0.713,1.208l-3.04,1.531l-1.56,3.964l0.167,4.077l3.118,6.131  l0.523,1.503l-0.279,2.328l-0.823,2.761l-4.288,6.789l-1.125,2.572l-0.601,2.734l-0.847,10.947l-3.074,12.339l-1.092,3.804  l-1.091,3.34l-1.147,2.735l-2.74,4.432l-1.292,4.817l-7.818,11.466l-1.258,6.02l-0.334,1.013l-0.134,0.846l-0.334,8.074  l-1.881,10.48l-2.25,1.859l-0.646,3.831l-2.305,5.229l-2.461,5.606l0.022,0.217l0.301,3.313l0.39,4.216l1.692,6.014l-3.229,6.326  l-7.774,9.326l-5.824,7.635l-3.252,5.668l-1.749,3.035l-2.171,5.062l-3.307,0.49l-0.713,0.195l-1.114,0.301l-3.864,1.068  l-3.853,1.859l-0.958,0.686l-3.508,2.322l-1.425,1.397l-0.245,0.301l-1.771,1.972l-1.615,2.733l-0.902,1.782l-1.314,2.601  l-0.801,2.539l-0.68,2.11l0.49,3.581l1.671,5.39l1.559,5.066l-0.267,1.064l-1.425,3.886l-2.328,5.664l-0.713,2.188l-0.134,1.125  l0.847,0.355l0.245,1.092l-0.657,1.726l0.301,2.3l1.748,2.489l0.056,1.916l-0.133,3.336l-0.334,1.04l-0.301,0.413l-2.104,1.915  l-0.268,0.356l-0.657,0.351l-0.936,0.167l-1.782,0.356l-1.715,0.356h-0.034l-0.468,0.134l-2.239,0.629l-3.719,0.958l-0.824,1.097  l-1.37,0.819l-1.035,0.355l-2.657,0.853l-1.175,0.601l-0.874,0.134l-0.907-0.111l-0.98,0.14l-1.069,0.468l-1.147,0.462l-0.741-0.078  l-0.301-0.333l-0.852,0.033l-0.629,0.021l-0.245,0.057l-0.658,0.166l-0.133,0.022l-0.495,0.278l-0.958,0.547l-0.106,0.11  l-1.153,0.98l-0.412,0.356l-0.708,0.629l-0.3,0.329l-0.88,0.935l-3.992,3.993l-0.658,4.159l-0.133,4.895l0.133,0.25l1.231,2.188  l0.217,0.356l0.496,2.105l1.503,1.453l0.468,0.352l1.091,0.906l0.385,0.324l2.6,0.522l0.741,0.902l0.217,0.629l-0.056,1.069  l-0.056,0.546l-0.133,0.44l-3.229,1.063l-0.93,0.656l-0.468,0.329l-1.532,1.447l-2.026,2.551l-1.175,1.203l-0.413,1.369  l-0.189,0.436l-0.384,1.202l0.495,7.228l2.623,2.405l0.852-0.028l-0.028,0.819l-0.852-0.022l-3.447,1.531l-4.021,3.882l-2.734,1.893  l-0.439,0.378l-0.574,0.496l-0.028,0.931l-0.601,0.929l-0.357,0.163l-0.796,0.139l-0.378,0.245l-1.097,0.712l-2.489,1.588  l-0.028,1.781l0.139,0.546l0.518,1.67l0.763,2.462l-0.189,0.763l-0.111,0.523l-0.106,0.328l-0.328,0.246l-0.384,0.189l-0.328-0.057  l-0.847-0.406l-0.58-0.301l-1.203-0.768l-0.378-0.141l-1.67-0.189l-0.879,0.14l-2.217,0.574l-1.203,0.111l-0.49-0.167l-1.152,0.139  l-0.985,0.875l-1.582,0.957l-0.607,0.356l-0.763,1.42l-3.53,3.286l-2.846,5.39l-1.23,5.173l0.245,2.133l2.271,7.033l0.518,2.705  l-1.943,1.811l-3.502,1.971l-3.007,1.588l-2.79,4.867l-7.64,8.29l-2.79,2.271l-4.159,5.503l-1.944,5.578l-2.545,6.95l-1.888,12.178  l1.999,6.236l1.671,2.517l1.203,4.216l1.615,2.167l1.699,3.419l1.447,5.361l0.468-0.056l0.133,1.504l-0.435,0.056l0.162,1.208  l0.167,0.902l0.161,2.762l-1.342,3.392l-0.791,1.53h-2.518l-1.124,2.853l-0.574,0.623l-0.741,0.69l-5.964,2.16l-5.39,2.216  l-2.377,1.616l-4.489,3.63l-1.013,1.626l-2.685,3.252l-0.763,1.393l-4.271,7.906l-2.873,5.313l1.342,3.809l1.258,3.52l0.189,0.557  l0.985,2.763l0.028,1.225l-1.971,5.857l-3.09-0.623l-0.161,0.98l-1.153-0.224l-0.083-1.035l-4.895,1.314l-1.37,0.355l0.769,2.439  l0.712-0.223l4.811-1.537l0.028-0.936l1.999,0.356l2.105,0.746l-0.05,0.99l-0.412,1.582l-0.931,0.468l-0.139,1.503l-3.503,2.707  l-0.272,2.539l-1.203,0.879l-1.069,3.23l1.782,0.602l-0.551,2.662l-2.294-0.58l-0.25,1.649l0.412,3.607l1.397,4.454l0.078,4.789  l0.657,3.53l3.096,3.775l-0.523,1.615l3.341,5.69l0.413,2.963l6.699,9.188l3.942,4.132l9.99,7.15l2.077,3.764l1.258,2.584  l1.971,1.771l9.689,5.78l6.783,1.492l2.411,0.279l5.796-1.527l2.383-2.795l7.579-1.993l3.174-6.237l1.699-5.312l2.845-5.066  l2.378-0.758l1.181-3.92l2.679-1.805l10.317-0.69l3.72-2.16l2.958-5.146l-0.301-1.392l0.49-0.602l3.313,0.434l0.657,1.371  l1.559,0.256l1.888-1.916l3.392,6.671l7.144-1.369l2.188,1.046l1.181,4.477l0.602,7.797l-2.711,6.325l-3.698,3.453l-3.063,9.845  l2.161,4.164l-2.35,2.673l0.735,6.738l2.244,4.6l3.475,7.139l5.313,4.979l3.285,5.522l2.483,2.161l2.083,3.041l3.286,6.981  l1.916,2.818l1.859,0.813l1.014,3.097l1.692,1.447l1.203,2.852l0.602,4.699l-0.323,4.544l-1.102,1.949l-0.568,4.287l-0.078,11.205  l-0.657,2.594l0.546,3.04l-1.236,10.091l0.389,4.543l1.281,4.878l1.314,3.029l1.203,1.537l1.782,2.873l0.769,4.788l2.238,7.195  l7.194,6.815l0.58,0.49l3.04,2.852l4.811,11.181l4.845,5.858l0.713,0.445l0.624,0.178l2.661,2.361l-0.523,0.579l0.134,0.111  l1.392,1.358l1.815,1.871l1.827,1.448l0.412,0.434l0.902-0.389l0.935,0.801l1.86,1.147l1.37,1.014l4.131,3.452l0.513,1.059  l1.949,1.614l3.285,2.049l3.119,1.671l1.97,0.991l1.916,0.769l0.869,0.567l1.103,1.705l0.457,1.491l0.69,3.151l1.069,2.083  l0.301,1.336l0.323,0.914l3.341,4.833l2.65,2.25l1.292,0.791l1.938,1.068l0.936,0.769l0.657,0.98l0.512,1.369l-0.824,0.658  l1.181,2.026l0.468,0.546l0.3,0.924l-0.601,0.391l0.601,1.48l0.546-0.111l0.412,1.938l-1.181,0.301l-0.055,1.07l0.389,2.126  l0.435,1.537l0.334,0.846l1.281,2.005l-0.435,1.003l-0.246,0.667l0.157,0.714l0.468,0.869l0.824,0.979l1.637,1.025l2.272,2.127  l2.383,2.929l0.98,2.083l0.501,3.753l0.847,2.539l0.3,1.292l0.167,3.541l0.267,1.671l-0.055,1.048l1.369,3.34l-0.167,0.847  l0.39,3.063l0.055,0.846l0.457,1.993l-0.078,1.27l0.334,2.027l0.156,1.036l0.691,1.771l0.323,1.069l0.579,1.27l1.203,1.915  l0.134,0.568l0.245,0.68l0.467,0.935l1.203,1.716l0.902,0.668l1.069,0.68l0.846,1.235l-0.133,0.602l-0.246,0.646l0.056,1.136  l0.435,1.28l0.523,0.925l0.624,0.957l0.223,0.958l0.056,0.602l0.245,0.823l-0.078,0.825l0.044,1.146l0.089,0.847l-0.39,5.112  l-0.401,2.661l-0.601,1.525l-0.958,1.493l-1.214,1.358l-1.525,3.04l-1.125,5.279l-0.523,2.762l-0.245,3.909l-1.504,4.108l0.39,1.672  l0.045,0.712l-0.401,1.236l-0.991,1.359l-1.169,2.684l-1.782,2.384l-0.278,1.48l-0.602,0.534l-0.735,0.669l-0.735,0.4l-0.612,0.2  l-1.281-0.056l-0.902-0.522l-0.635,0.769l-0.702,0.077l-0.033,0.167l-0.078,0.212l-0.189,0.145l-0.223,0.078l-0.223-0.045  l-0.189-0.111l-0.134-0.167l-0.089-0.167l-1.169,0.056l-1.014,0.881l-0.991,0.846l-1.637,0.868l-1.838,0.312l-1.203,0.958  l-0.902,0.98l-0.523,1.292l-1.559,1.692l-7.685,2.294l-9.254,6.126l-6.315,8.241l-1.894,3.308l-6.314,10.758l-3.809,10.781  l-0.769,5.779l-0.267,5.19l0.657,5.724l0.924,4.154l1.069,2.438l0.902,2.918l0.089,0.668l-0.468,1.248l-2.572,2.093l-4.678,0.713  l-2.55,2.873l-0.3,16.438l2.383,6.949l2.139,7.685l-1.292,7.416l-4.322,4.355l-1.147,1.637l-0.389,7.194l0.579,2.828l1.147,1.449  l-0.245,2.271l-1.069,1.427l0.501,3.764l-1.615,8.264l-1.971,4.332l-0.879,1.916l-0.579,9.242v4.411v4.566l0.824,6.314l0.245,8.652  l0.167,5.112l0.279,0.501l1.659,2.951l-0.813,3.208l-1.18,2.873l-0.568,1.447l-4.276,5.902l-1.169,1.203l-1.615,1.627l-1.916,1.803  l-0.39,0.323l-0.657,1.749l-0.98,2.438l-0.357,2.706l-0.111,3.831l0.056,11.36l0.679,6.192l2.661,6.369l7.005,13.131l4.433,5.557  l1.068,2.328l0.346,0.734l-0.044,0.714l2.784,2.684l2.874,2.673l4.076,2.584l1.314,0.568l0.657-0.568l2.439,1.28l3.418,1.805  l3.041,1.592l3.028,0.98l0.413,0.868l1.046,0.936l1.559,0.357l3.274,3.396l1.704,1.66l1.804,1.069l1.994,1.158l1.292,0.734  l1.392,0.735l1.258,0.667l0.825,0.402l1.147,0.578l0.546,0.468l4.565,4.021l4.711,3.798l0.39,0.2l2.595,1.281l8.453,4.243  l1.782,0.868l1.125,0.746l1.225,0.813l1.314,0.846l1.804,1.214l0.824,0.524l0.735,0.434l2.138,1.28l2.461,1.481l3.642,2.161  l3.942,2.35l0.056,0.602l2.673,1.047l2.717,1.537l0.212,1.092l2.439,1.47l4.243,2.628l3.664,2.16l3.063,1.448l2.707,1.292  l3.998,1.805l2.305,1.046l1.771,0.791l1.046,0.49l0.958,0.435l0.813,0.355l2.762,1.292l1.214,0.579l1.994,0.734l1.859,2.05  l1.838,1.47l0.545,0.446l1.415,0.757l1.782,0.991l2.55,1.392l1.559,1.025l2.294,1.492l0.902,0.602l0.879,0.578l0.98,0.658  l1.102,0.958l1.716,1.592l4.187,3.742l1.504,1.614l0.69,0.747l3.831,2.517l1.069,0.735l2.839,1.337l3.286,2.472l3.999,3.52  l0.924,0.846l2.272,0.824l1.481,0.522l7.362,1.07l3.775,0.546l2.873,0.267l5.301,0.033l6.025,0.245l16.505-0.958l7.962-1.559  l0.189-0.033l0.135-0.045l2.082-0.522h0.078l0.089-0.034l3.196-0.791l1.236-0.567l0.133,0.646l0.324-0.078l0.301-0.077l-0.134-0.847  l1.235-0.958l0.156-0.111l3.697-3.04l0.902-3.508l0.09-0.045l0.701,0.223l-0.156,2.071l2.705-0.355l2.953-1.638l4.297-1.781  l11.305-0.212h1.916l-0.033-0.636l2.027-0.3l10.535,0.623l0.166,1.949l-1.202,3.854l3.931,3.263l7.307,1.504l2.438-0.958  l1.704-0.189l6.727-1.403l8.564-3.809l7.773-4.321l2.783-2.05l1.182-3.028l6.926-5.669l-2.605-2.517l-1.259-4.432l0.825-0.146  l1.313,4.333l5.034,4.6l4.432-2.684l-1.391-4.867l0.377-3.396l2.551-2.083l0.646-3.53l3.207-0.712l0.936-2.483l0.435-3.363  l-1.014-2.439l-2.104-1.069l0.456-3.041l1.214-0.378l-0.056-0.713l0.791-1.091l1.536-3.186l1.303-1.337l0.502-1.782l1.314-0.4  l0.846-0.713l0.658-0.846v-0.825l-0.446-0.267l-0.245-0.446l-0.111-0.467l0.056-0.379l0.224-0.49l0.188,0.111l-0.077,0.156  l-0.057,0.201l-0.055,0.289l0.033,0.2l0.021,0.245l0.134,0.268l0.937-1.782l4.188-1.337l1.914-0.434l0.925-2.139l-0.267-1.581  l0.567-2.874l-1.671-3.553l-0.133-2.517l-0.624-2.194l-2.417-2.215l-2.707-1.271l-2.404-1.715l-0.847-15.057l-1.259-5.502  l-0.936-2.05l0.09-1.202l0.156-1.96l-0.624-0.445l-0.134-1.471l-1.293-1.381l-0.957-0.623h-0.322l-0.658-0.735l-0.467-0.657  l-0.135-0.578l0.379-0.49l0.713,0.656l0.268-0.267l-0.758-0.88l-0.055-0.579l0.813-1.147l2.271,0.468l1.104,0.624h1.392l1.337-0.401  l0.902-0.935l2.684-4.322l1.614-11.191l-1.726-1.894l-2.295-0.022l-3.809-2.662l-0.133-9.433l0.99-0.991l2.295-0.223l0.355-2.339  l-2.139-1.136l0.224-3.386l5.089-2.518l4.566-10.757l2.662,0.033l3.875-1.727l1.815-15.347l0.156-0.768l0.335-6.761l0.734-14.834  l-1.125-24.79l-5.301-4.41l-0.469-25.682l2.027-5.747l0.134-0.556l0.602-4.188l-1.425-21.561l-0.101-8.698l-0.937-6.782  l-2.895-17.596l-2.461-16.226l-0.881-8.375l-1.258-7.116l-3.754-27.33l-2.026-10.179l-3.909-19.534l-1.281-9.311l-1.559-10.592  l-0.689-1.146v-1.581l-0.412-3.831l-0.68-1.894l0.055-2.517l-0.188-1.56l-0.502-3.774l-1.226-0.747l-0.277-1.959l0.635-0.469  l0.322-1.559l-0.244-2.795l-0.49-2.841l-1.559-13.898l-0.635-14.144l0.055-8.521l-0.545-8.586l-0.902-17.195l-0.468-4.398  l-1.169-7.495l-1.537-5.636l-1.672-5.256l-3.719-5.803l-3.643-5.523l-3.285-4.021l-1.614-2.405l-1.014-2.192l0.112-1.482  l-0.189-0.901l0.69-2.763l1.058-4.599l-0.189-2.874l4.055-6.403l2.182-8.152l1.504-8.453l1.125-27.886l0.033-51.273l0.568-30.895  l0.189-21.672l-0.847-11.159l-0.212-1.402l-0.602-0.401l-0.601-2.228l0.323-0.021l-0.881-5.636l-1.859-6.481l0.301-2.194l2.004-3.72  l1.638-3.018l1.047-3.341l0.623-3.163l0.735-5.257l0.334-5.502l0.133-0.768l0.436-0.68l0.689-4.076l0.625-3.318l0.412-7.328  l1.068-8.353l0.334-1.826l1.637-6.683l0.279-6.236l-0.145-2.817l-0.168-2.974l-0.078-2.551l-0.021-1.014l-0.902-1.291l-0.278-3.52  l0.19-0.167l0.333,0.056l0.411,1.225l0.514,0.914h0.635l0.434-0.558l0.189-0.734l-0.111-0.603l-0.602-0.222l-0.378,0.056  l-0.335-0.056l-0.189-0.323l-0.133-0.635l0.244-1.965l0.413-1.37l0.167-4.705l-1.648-17.022l-1.169-2.161l1.013-1.42l-0.201-2.874  l-0.734-3.914l-4.188-20.219l-1.281-1.397l-0.199-1.153l0.769-0.545l-0.657-4.816l0.467-4.434l0.77-4.538l-0.189-5.802l0.545-4.928  l-0.355-2.077l0.924,0.078l0.936-4.756l2.139-5.803l0.078-5.445l0.167-6.788l-0.167-5.173l-0.523-6.348l-0.212-2.216l-0.747-1.176  l0.524-3.475l-0.88-7.222l-0.056-1.837l0.245-0.875l-1.559-0.519l-0.436-0.768l-0.223-1.286l0.658-0.847l-0.848-0.875v-0.739  l0.635-0.658l0.546,0.272l0.714-0.378l-0.791-5.445l-7.617-41.952l-1.281-9.11l-4.299-22.847l-3.33-10.836l-0.523-6.321  l-1.203-5.773l-2.139-8.648l-0.678-5.278l0.244-15.079l3.742-12.122l1.838-4.895l5.824-32.292l1.48-5.474l-0.055-6.704l-0.658-5.033  l0.77-6.048l-1.182-14.913l1.104-4.292l1.414-2.767l-0.379-4.756l-1.236-9.144l-1.092-3.173l2.797-2.985l8.262-18.743l1.916-7.741  l0.602-4.131l-0.957-2.6l-0.033-2.105l0.522-1.509l3.697-12.53l4.755-15.981l1.393-3.391l3.754-5.584l3.117-5.825l-1.258-0.301  l4.622-12.563l5.501-11.709l0.547-4.16l0.9-5.306l3.888-7.774l0.713-10.04l3.618-9.5l3.33-7.026l1.203-4.544l0.256-2.272l0.926-2.3  l0.957,0.329l3.643-8.264l0.846-3.418l-0.68-5.418l-0.936-3.173l0.847-0.958l2.55-0.875l4.321-14.422l1.37-4.488l2.127-0.384  l1.292-2.873l0.823-5.279l-1.458-9.032l3.774-19.289l2.985-15.408l-1.337-1.23l0.302-1.832l2.026-1.258l2.428-10.068l-1.504-4.376  l0.58-1.264l1.692,0.412l1.749-4.844l0.301-3.319l-0.702-0.684l0.323-6.175l0.523-1.409l0.379,0.156l0.111-0.368l0.936,0.574  l1.391-1.905l2.406-7.222l2.951-7.383l3.229-8.559l3.286-8.52l2.55-8.458l0.735-1.815l1.203-2.233l-0.111-2.155l1.291-9.144  l2.707-12.746l1.425-9.861l2.216-5.189l1.771-4.99l1.727-4.721l0.634-0.991l2.405-3.921l1.883-7.11l4.109-14.434l1.805-8.743  l-1.17-1.709l2.65-5.563l5.413-11.147l2.005-9.812l-1.593-6.336l2.005-3.241l0.545-1.943l-0.578-1.459l1.447-3.731l1.18-2.215  l3.453-8.369l1.058-2.428l1.103-2.869l0.246-1.03l2.895-3.914l5.937-9.065l4.03-6.153l2.462-3.219l4.288-4.883l2.416-2.105  l1.26-0.529l4.342-3.369l1.426-1.347l1.916-2.896l1.369-2.422l1.895-4.126l0.211-2.923l7.439-11.555l7.828-9.967l-0.111-0.563  l0.201-0.518l2.517-3.107l2.706-2.315l4.399-5.63l0.446-2.366l0.434-3.008l-0.322-4.231l-0.469-3.514l-1.615-12.078l0.111-1.676  l-0.5-0.385l0.033-0.184l0.111-0.066l0.49,0.233l-0.301-6.604l0.49-2.974l0.167-10.998l1.692-9.015l0.133-6.403l-1.002,0.017  l-0.523-0.211l0.245-0.318l0.379,0.261l0.857-0.033v-0.813l-1.181,0.05l-0.545-0.195l0.078-0.15l0.734,0.172l1.014-0.073v-0.424  l-0.902-0.005l-0.435-0.189l-0.769-5.842l-0.355-0.194l-0.246-0.223l-0.377-1.37l0.812-1.766l0.769-8.336l-1.58-2.472l-0.447-4.576  l-0.322-6.51l-0.657-6.242l-1.915-5.189l-1.838-8.247l0.412-5.658l0.445-6.136l0.323-1.942l2.684-5.174l1.259-4.85l0.322-2.756  l0.145-0.952l0.023-1.364l-0.057-1.097l-0.223-1.186l-0.268-1.258l-0.768-1.459l-1.125-3.992l-1.503-1.838l-0.769-0.117l0.088-0.262  l1.07,0.072l0.512-0.467l0.279-0.58l-0.09-0.551l-0.4-0.34l0.4-1.32l0.145-0.89l-1.18-0.418l0.467-1.103l1.861,0.646l0.111-0.345  l0.488,0.156l-0.111,0.333l1.404,0.406l0.701-0.406l0.168-0.395l0.11-0.245l0.546-0.485l0.579-1.236l-0.033-1.542l0.145-1.053  L1337.344,37.046z M969.174,633.308l-0.658,2l0.301,2.98l-1.169,0.328l-0.635,0.958l-1.782,0.083l-1.47,2.9l-0.222,1.448  l-1.37,0.139l-0.902,0.546l-0.523,1.286l-0.658,0.25l-0.868,0.245l-1.292-0.056l-1.058-0.523l-0.613-0.574l-1.002-0.083l-0.69,1.042  l-0.735,0.056l-0.936-0.105l-0.846,1.258l-1.336,1.966l-1.014,0.439l-0.468-0.356l0.379-1.972l0.168-0.958l0.189-1.035l0.712-1.565  l0.69-1.175l0.211-2.65l0.301-3.258l-0.68-0.874l0.056-1.51l0.134-0.712l0.167-0.546l0.412-1.887l0.189-0.686l0.924-1.531  l0.501-0.769l1.47,0.44l3.208,0.495l2.65-0.333l1.971,0.333l2.16,0.958l1.782,0.245l1.503,0.189l1.014,0.167l0.223,0.658  L969.174,633.308z" fill="#5566a8"/>
  </g>
  <text x="360.0" y="359.2" font-family="Caveat" font-weight="700" font-size="107" fill="#5566a8" text-anchor="middle">Starnberger See</text>
  <rect x="84.3" y="405.2" width="551.5" height="3" rx="1.5" fill="#1d1c19" opacity="0.85"/>
  <text x="360.0" y="465.2" font-family="Inter" font-weight="600" font-size="34" letter-spacing="1" fill="#1d1c19" text-anchor="middle">S E E G E F Ü H L     ·     B A Y E R N</text>
</svg>