<svg xmlns="http://www.w3.org/2000/svg" viewBox="0 0 720 568" width="720" height="568">
  <!-- SEE-887 Ärmel-Schriftzug Ammersee · CI: Sand-Beige/Weiß + Akzent #2f6f9e (See-Blau) · Caveat+Inter -->
  <!-- Linsen: Visuelle Hierarchie (Seename=Hero), Minimalismus/Weißraum, Markenkohärenz (Board-Seeumriss), Typografie-System -->
  <rect width="720" height="568" fill="none"/>
  <g opacity="0.92">
    <path transform="translate(292.06,66.67) scale(0.07843)" d="M1204.109,1201.439l-3.346-20.771l-2.833-8.459l-3.087-7.31l-5.146-10.002l-4.889-7.688l-3.604-4.237  l-3.604-1.922l-2.314-0.765l-2.321-0.771h-2.055l-0.771-0.386l-0.778,0.386h-1.023l-0.52-0.386l-0.253-0.765v-0.771l0.253-0.386  l-0.253-1.151l-0.771-1.929l-1.291-2.308l-1.803-3.458l-1.283-2.308l1.796-2.693l2.321-3.08l0.771-1.536v-0.771v-0.765l-0.512-1.542  l-0.52-2.302l-0.771-0.772l0.771-0.771l0.52,1.157l3.598,3.458l1.03-1.542l0.519-1.53l1.543-0.772l0.254-3.85v-3.073l0.771-3.079  l0.778-1.922l3.346-10.774l0.512-1.921l0.771-0.772l0.26-1.536l-0.513-0.386l0.513-0.771l0.519-0.766l1.024-3.845l0.259-2.307  l0.26-2.694l-0.26-2.307l-0.513-1.544l-1.03-3.844l-1.29-3.079l-2.055-3.844l-1.031-1.544l-1.031-1.15l-1.803-2.308l-0.771-1.158  l-0.513-0.764l-0.519-0.772l-2.573-3.078l-3.346-3.459l-0.771-0.771l-0.26-0.387l-1.802-1.15l-0.772,1.15l-3.604,0.387l-1.543-0.387  v-0.385l1.543,0.385h3.352l2.055-3.078l-2.055-1.538l-1.031,1.158h-0.259h-0.519h-0.253l-0.519-0.771l-0.771-1.536l-0.513-0.771  l-0.253-0.386l-2.58-1.536l-1.543-1.158l-2.314-2.307l-2.062-2.694l-4.376-1.922l-2.834-0.771h-3.338l-4.117-1.536l-3.863-0.386  h-1.031h-1.031l-2.314,0.386l-1.283,0.385l-2.32,1.151l-1.803,1.157l-2.063,0.386l-2.826,0.771l-3.092,1.537l-3.087,2.686  l-1.29,1.157l-1.543,1.929l-2.574,1.151l-2.055,1.536l-1.29,2.308l-2.574,2.693l-2.573,2.308l-3.346,5.008l-1.543,3.073  l-2.574,2.693l-1.802,1.15l-1.802,2.694l-0.26,3.465l-0.512,1.922l-0.771,0.764l-1.031,0.772h-2.055l-0.771,0.386l-0.26,0.771  l-0.771,0.765l-2.32,1.157l-0.772,0.772l-1.024,1.149l-1.549,0.771l-1.031,0.386l-1.543,0.386l-2.314,0.765l-1.803,0.772  l-1.803,1.536l-1.802,1.542l-1.03,2.688l-1.284,0.771l-1.03,1.151l-0.771,1.156l-0.771,1.922l-4.123,3.08l-0.254,0.385v0.387  l-0.26,0.385l-3.085,1.151h-0.259l-0.513-0.387l-0.519-0.385l-1.796-2.309l-1.29-0.765l-1.291-0.386l-1.283-0.386l-1.543,0.386  h-1.031l-2.833,0.771l-0.253-0.386l-0.518-0.771l-0.513-0.771l-0.26-1.149v-2.309l-0.512-2.308l-0.519-2.309v-1.921l-0.512-3.465  l-1.803-1.158h-2.321h-2.056l-2.573,0.771l-2.827,0.387h-3.604l-2.321,1.536v0.385h-0.513h-0.519l-0.512-0.765v0.38l-0.772,1.157  l-1.283-0.387l-2.062,1.158h-2.062l2.062-0.771l0.513-0.387l-2.827-0.386l-1.809-0.765l-1.796-2.314l0.771-2.308l0.771-0.765  l-0.771-0.386l-0.771,0.386h-0.771l-1.031-2.693l-1.549-0.386l-1.283-1.923l2.061-1.921h-1.031l-1.029-0.772l-0.253-1.536  l-0.259-0.385l-0.771-1.923l-0.778-0.771l-0.252-1.157l-0.519-0.379h-2.056l-0.512-1.543l-0.519-0.771l-1.291-0.379l-1.023-5.002  l-0.259-3.078v-3.08l-0.513-1.536l-1.29-2.308l-1.284-3.08l0.253-2.307l-1.543-1.536l-1.283-1.923l-2.321-1.542l-1.283-1.151  l-2.062-0.771l-0.513-1.157l-4.117-2.301l-1.29-0.387l0.512-0.771l0.259-0.386l-0.771-0.385l-0.519,0.771l-0.512,0.387l-0.771-0.387  l-0.253-0.386l-1.031,0.772l-1.55-0.772l-0.771-0.771v-1.536v-0.765l-0.772-0.385l-1.024-0.387h-1.55h-1.543l-2.574,3.459  l-2.062,1.542h-1.024l-0.771,0.765l-0.772,0.771h-2.581h-2.574l-2.055-0.771l-1.031-1.149l-0.512-0.772l-0.259-0.771l-1.543-0.771  l0.252-0.765l-0.771-0.765l-0.771-0.771l-0.771-1.543l-0.512-1.535l0.259-0.771l0.771-0.387l1.024-0.379l1.549-0.386l-1.29-1.157  l-1.802-0.771l-0.253-1.15l0.512-1.537l1.543-1.928l-0.259-1.922l-1.024-1.537l-1.802-1.536l-1.03-0.385l-0.52,0.765h-1.795  l-1.549-2.309l0.259-1.536l-0.259-0.385l-1.284-1.158v-1.536l0.771-1.157l1.291-0.765h1.284l0.771,0.385l0.771-0.385l-0.259-0.385  l-0.771-0.386l-0.512-1.157l-1.031-1.536l-0.512-3.459V981.8l-0.519-1.922l-1.543-1.157l-0.772-4.229l-0.771-3.844l-2.321-5.009  l-2.055-2.693l-2.315-1.923l-2.833-2.686l-1.543-1.929l-0.519-2.693l-1.03-1.923l-2.315-2.693l-0.771-2.308l-1.031-1.542  l-3.085-3.844l-1.543-2.308l-2.315-1.157l-2.062-2.694l-0.259-3.458l-0.771-1.157l-0.512-1.151l0.253-3.079l-0.771-3.465  l-1.024-3.459l-0.778-2.308l-1.284-3.085l-1.802-3.844v-2.693l-1.284-1.921l-0.519-1.923l-1.03-1.536l-1.031-1.542l-1.024-0.771  l-0.771-2.693l-0.519-2.308l-1.291-1.536l-1.024-1.543l-1.543-1.536l-3.092-2.308l-0.512-3.079l-0.772-2.694l-1.03-2.307  l-0.519-2.308l-0.771-5.001l-0.252-2.308l-0.772-3.08l0.772-3.079l-0.26-1.922l-0.771-1.929l-0.771-4.615l-1.03-3.08l0.519-1.921  l-0.259-3.08l0.259-3.08l-0.779-3.079l0.26-1.922v-1.922l-1.291-2.693v-1.158l0.259-0.771v-1.151l-0.259-1.157l-0.771-1.151v-1.157  l0.519-1.536l0.252-1.157l-0.252-1.157l-0.26-1.536v-1.536l0.771-1.543l-0.771-3.08l-0.512-3.079l0.512-1.916l1.542-2.314  l0.52-1.538l0.512-7.701l-1.031-8.074l-1.03-5.394l-0.512-4.616l-0.771-2.308l-1.031-4.237l-1.543-3.843l0.259-4.616l-0.519-4.622  l0.259-0.772l1.031-0.765l0.259-1.543v-1.922l-0.778-5.394l-1.543-6.152l-0.771-1.543l-2.055-2.693l-1.55-4.229l-0.259-3.851  l0.778-2.693l-0.26-3.079l-1.29-4.237l-1.283-3.073l-1.284-1.929l-0.26-3.458v-3.466l1.29-4.622l0.772-3.458l1.284-3.466  l0.252-3.079l-0.771-5.387l-1.024-5.774l-1.031-5.778l-0.771-5.774l-1.29-5.386l-0.771-7.309l-0.512-4.622l-1.031-5.001l-1.29-4.237  l-1.284-5.387l-1.031-3.851l-1.543-3.85l-1.29-6.539l-1.284-7.315l-1.03-5.001l-1.543-3.852l-1.543-6.544l-0.519-5.001l-1.024-6.551  l-1.29-8.851l-1.031-5.001l-1.031-5.389l-1.542-8.472l-2.574-10.39l-2.574-9.629v-2.688l-0.771-5.778l-1.542-5.774l-1.543-4.237  l-0.26-7.315l-0.253-5.772l-0.519-5.389l-0.259-3.464l-0.771-4.622l-1.031-4.616l-0.512-3.085l-1.031-3.845l-0.512-3.464  l-0.771-3.466l-0.778-1.929l-0.772-3.843l0.772-7.317l1.29-10.779l1.291-6.93l1.542-7.703l0.512-4.622l1.29-4.614l2.827-7.703  l1.802-6.93l0.778-5.007l1.024-6.544l0.259-2.308l1.543-7.322l1.29-6.544l2.827-5.772l4.376-4.237l4.117-4.616l2.581-5.78  l1.024-6.551l1.291-3.843l-0.519-10.017l0.259-3.464l1.543-5.389l1.549-6.163l1.024-4.616l1.543-5.395l1.549-4.237l2.056-7.701  l1.29-1.543l4.116-10.009l2.574-8.859l1.543-7.315l2.062-6.551l2.055-4.616l1.803-4.237l1.29-5.78l0.513-5.771l2.574-12.323  l0.519-3.086l0.771-3.079l2.567-4.237l2.062-2.308l1.802-1.929l3.605-3.852l8.493-8.086l2.574-3.466l1.803-5.778l0.519-3.852  l-1.55-8.858l-2.055-5.387l-1.031-2.701l-1.29-5.008l-0.772-3.078l-0.771-2.702l-2.833-8.471l-1.543-8.088l-2.827-13.096  l-1.29-5.007l-1.543-6.545l-0.772-8.473v-6.164v-8.858l-0.259-9.246v-9.244v-7.322l-0.259-4.616l0.259-3.857l-0.259-0.771  l-0.252-0.765l-1.291-1.158l-1.031-0.386l-2.574-0.385l-1.031-0.773l-0.512-0.385l-0.259-0.771l-0.259-0.773v-0.771l-0.253-0.765  l-1.031-0.772l-0.772-1.156l-0.259-0.772v-1.542l-1.543-2.693l-1.031-4.237l-1.543-1.929l-1.802-2.308l-0.771-0.773l-1.802-1.156  l-5.66-3.851l-1.55-0.771l-16.208-6.551l-0.519,1.156l-3.086-1.156l-2.062-0.387l-1.031,0.387l-2.574,8.865h-0.512V49.41h-1.803  l-0.259,4.622h-0.259l-0.771-1.543l-0.253-4.622l-0.512-1.929l-4.124,0.771l-2.314,0.388l-2.314-0.388l-4.636,2.701l-1.284,11.938  l-0.778,1.158l-1.543,0.386l-1.542-0.386l-0.772-0.772l-0.771-9.244l-5.667-1.544l-6.172,0.773l-5.406,1.929l-2.062,3.849  l-4.888,1.922l-2.833,4.628l-3.086,0.773l-1.543,2.308l-4.895-1.543l-1.031,2.314l-5.919,2.693l-1.284,4.622l-4.635,1.544  l-3.605,9.244l-1.543,2.693l-1.03,4.63l1.29,4.229l-4.629,11.173l-5.926-0.765l-6.95,1.152l-5.66,2.313l-4.628,3.079l-2.321,0.771  l-1.802,2.308l-2.833,2.316v3.85l-3.345,4.622l-11.067,2.314l-1.795,2.695l-1.81,1.542l-1.802,1.158l-1.795,1.535l-1.55,1.929  l-0.259,1.158l1.29,2.308l-1.802,4.237l-2.055,0.771l-0.52,0.772l-0.512,0.385h-0.519h-0.771l-0.512-0.773v-0.771l-0.259-0.771  l-1.284-0.388l-0.771,0.388l-0.519,0.385l-1.031-0.385h-0.771l-0.512,0.385l-0.259-0.385v-0.388l-2.055-3.078l-1.03-1.158  l-0.772-0.386l-1.543-0.385l-6.957-0.764h-2.567l-1.29,0.379l-4.376,1.156l-5.919,1.158l-5.407,1.922l-4.629,2.314l-1.284,1.158  l-5.154,3.85l-4.37,4.622l-2.58,4.622l-1.543,3.851l-3.345,7.315l-1.802,4.237l-0.772,3.851l0.26,6.166l-0.771,6.166l-0.778,2.306  l-1.796,3.08l-13.9,25.419l-2.573,1.543l-6.95,11.173l-9.265,14.246l-3.604,5.395l-0.772,1.535l-3.092,6.544l-5.919,7.322  l-0.772,0.385v0.773l-0.512,1.15l-1.031,0.772l-1.031,1.156l-1.031,1.923l-0.771,1.929l-0.252,1.535l0.512,2.701l1.031,1.921  l0.252,1.543v0.385l2.833,1.537l0.259,0.386l-0.512,0.385v1.158l0.512,0.386v1.158l0.513,0.771l0.519,0.379l0.252,0.386l0.772,0.772  l-0.253,0.771l0.512,0.379l1.549,1.158l0.253,0.771v1.543l-0.253,1.535l-0.519,3.466v3.85l-0.259,3.087l0.259,1.535l-0.512,1.543  l-0.778,2.308l-1.024,0.772l-1.291,2.693l-0.512,1.929l0.259,1.15v2.313l-0.259,1.544l-0.519,0.764h0.778l1.024,0.771l0.519,0.772  l0.252,1.156l-0.512,1.922h-0.772l-0.259,0.773l-0.252,0.385l-0.519,0.379h-0.259l-0.253-0.765v-0.388l-0.259-0.385l-0.259-0.385  h-0.259l-0.252,0.385v0.385l-0.26,0.773v0.764l0.771,1.156l0.519,0.773l0.513,0.385l-0.513,0.385l0.253,0.773l-0.253,0.765  l-0.259,0.771l-0.519,0.771l-0.771,1.543l0.519,0.385l0.252,0.388v0.379l0.259,0.771l-0.259,0.386l-0.252,0.385l-2.062,0.773  l-0.252,1.929l0.771,0.379l1.024,0.771v0.386v0.385h-0.771h-0.512h-0.259l-1.024-0.385v1.152l-0.259,0.385v0.771l-0.259,0.386v1.158  v0.385l-0.259,0.386v1.152l-0.252,0.771v0.385v0.386v0.772h0.512v0.386l-0.259,1.922v0.385v0.386l-0.252,1.158l-0.519,1.156  l-0.512,1.923l-0.771,1.537v0.386l0.253,0.771l-0.253,0.385h-0.259h-0.512l-0.259,0.387l0.771,0.386l-1.024,0.385l-0.519,0.385  l-0.771,1.15l-0.779,0.773l-1.024,1.543l-0.771,0.765l-0.259,0.386l-0.253,0.385l-1.031,1.158l-0.519,0.386l-0.512,0.771  l-0.259,0.385l-0.259,0.773l-0.513,0.379l-0.512,1.156l-2.833,4.622l-0.259,1.537l0.259,1.543l0.26,1.156l0.771,0.765l0.771,0.388  l0.771,0.771l0.259,1.543l-0.519,1.922l-0.512,1.535v0.771l-0.512,1.158l0.252,1.543l-0.512,0.379l-0.26-1.537l0.519-1.156  l-0.259-0.772l-0.519-0.765l-1.031,0.379h-0.512h-1.031h-0.771l-1.031,0.386l-1.543,0.772l-1.031,0.771l-0.771,0.771l-0.513,0.387  l-1.542-0.772l-0.519,0.772l-0.512,0.765h-0.519l-1.024,1.156l-0.512,0.772l-0.519,1.156l-0.519,1.152l-0.771,4.237l-0.771,5.007  l-0.512,3.079l-0.26,3.079l-0.512,1.929l-0.259,1.922v0.771v1.152l-0.252,0.386l-0.259,0.385v0.772v0.385l-0.519,0.771l0.259,1.152  l-0.513,1.542l0.253,1.922v1.158l0.259,2.693l0.771,0.385l1.031,0.771l-0.26,0.773l-1.283,0.765l-0.259,0.771v1.929l-0.259,0.773  l0.259,1.15v0.771h1.03l0.512,0.773v0.385l-0.252,0.765h-0.26v0.385v0.385v1.158l0.26,1.535l0.252,2.701l0.26,1.15l0.771,6.93  l0.771,2.702l0.512,1.92l-0.253,2.693l1.031,2.693v1.929l0.512,1.537l1.284,1.158l2.062,3.464l1.543,0.771h1.031l0.512,0.387v0.765  l-1.543,2.314l-1.543,1.15l-1.29,0.773l-1.024,1.156l-1.031,1.158l-0.252,0.765l-0.519,1.156l-1.291,0.773v0.771v0.773l-1.795,6.151  v0.771l-2.321,3.852l-2.574,8.853l-1.024,3.85l-2.062,4.624l-0.771,2.306l-0.519,1.929l-0.253,1.152l-0.259,0.385l-0.771,2.308  l-0.519,3.472v1.15l-0.253,0.771l-0.778,4.616l-0.252,1.158l-0.772,3.464l1.024,2.693v0.388v0.385l-0.252,0.385v0.765h0.512h0.259  l0.26,0.385l0.512,1.543l1.031,0.771l-0.771,0.767l-0.771,0.771l0.512,0.385l1.802-0.385l2.063,0.385l0.512-0.771l0.771-0.385  l0.771,0.385l0.259,0.771l-0.259,2.693v4.237l-0.512,1.158l-0.771,0.771H548.3l-1.031,0.764l-0.771,0.773l-1.031,0.771l-1.031,1.923  l-0.772,0.771l-1.29,0.765v2.314v2.695l-1.024,0.771v1.158v2.693v2.693l1.795,4.229l0.778,2.702l1.543,3.079l0.512,1.537  l0.771,1.535l1.03,1.929l1.291,1.538l0.259,1.541v1.158l1.284,3.464l0.512,1.923l0.259,1.922l0.771,2.314l0.26,1.922l1.284,2.308  l0.519,2.693v1.156v1.543l-0.259,3.079l-0.513,0.773l-0.259,0.379l-0.259,1.156v0.765l-1.543,2.316l-1.802,0.385l-1.543,3.464  l-1.031,2.308l-1.031,1.538l-1.284,1.535l-1.802,2.314l-1.543,1.537l1.543,0.386l0.771,3.851l0.26,1.929l-0.519,2.688l-0.512,4.236  l-0.519,4.622l-1.543-0.387v1.537l1.29,0.386l0.513,1.158v5.001v1.15l-1.543,0.385l-1.284,1.158l-0.519,1.156l0.519,1.538v0.385  l0.512,2.693l0.772,1.158l1.543,2.308l2.062,3.464l3.085,3.081l-0.512,1.15l-0.771,0.771l-0.26,2.314l1.803,6.16l2.314,4.23  l1.284,3.464l0.259,5.001l1.031,2.308l1.802,1.543l3.864,2.308l0.259,1.15v1.158l1.024,1.929l2.574,6.536l0.771,0.773l0.259,2.308  l1.031,0.771v2.308l-1.543,1.156l-0.519,1.537l-1.803,2.314l-1.283,1.917l-1.031,0.771l-0.772,0.385l-1.549,1.929l0.519,2.308v3.08  l0.771,1.536l-0.519,1.929l0.259,3.465l-1.283,3.072l-0.772,3.851l-1.29,1.922l-1.543,0.771l-2.314,1.537l-0.259,2.314l-2.062,3.851  l-0.771,0.766l-0.253,0.385l-0.519,0.385l-1.543,1.536l0.259,0.772l-0.519,1.536l-1.284,1.157l-1.031,1.157l-0.512,1.151  l-0.519,0.772l-0.771,1.157l-0.512,1.151v1.536l-0.26,0.385v1.543l0.26,1.15l-0.772,0.386l-3.345,5.773l-1.81,2.307l0.778,0.386  l-0.259,0.385l-1.29,0.386l-0.253,1.542l-0.259,0.765l0.259,0.386v1.537l-0.771,0.385v0.771v1.151l-0.519,1.157l-1.024,0.385  l1.024,1.536l0.259,0.387l-0.512,1.542l-0.26,2.308l-0.259,0.765l-0.771,0.771l-0.259,2.314l0.519,0.766v1.157l-0.259,1.536  l-0.259,0.772l0.259,0.771h-1.031v0.765v1.157l0.519,0.385l-0.26,0.766l-1.031,1.542l1.031,1.157l-0.259,2.302l0.519,2.314  l0.253,2.693v3.844l-0.771,3.851v3.844l0.519,2.308l0.253,0.771l0.778,3.08l1.024,0.771l0.771,0.386l0.519,1.15l0.512,1.158  l-0.259,2.307l1.031,2.694l-1.543,5.001l-0.771,3.85l-1.284,1.922l1.024,2.694l-0.252,0.385l0.771,2.308l1.024,2.308l1.29,1.536  l0.771,1.542l-0.259,1.537l0.778,1.929l0.771,5.773l2.315,3.844l3.085,4.229l2.833,3.465l6.178,5.388l5.148,6.538l1.542,2.314  l3.345,4.616l2.062,3.073l1.284,1.929l0.259,0.385l3.345,3.459l1.29,1.157l3.346,5.001h0.259l0.252,0.385l1.802,0.379l0.253,0.386  l1.031,0.385h0.259l0.519,0.772v0.771l0.253,1.536l-1.802,2.693l-0.772,1.157l-0.252,1.536l-0.519,1.543l-0.772,0.765l-0.771,1.151  l-1.03,0.771l-1.284,0.772l-1.543,0.385l-2.321,1.537l-0.771,0.386h-1.031l-0.771,0.385l-2.062,2.308l-1.024,1.537l-1.031,1.929  l-1.03,2.308l-1.031,2.688l-0.259,1.929l-0.771,1.921l-0.252,1.536l0.252,1.929l-1.024,5.001v1.923l0.772,1.536l0.252,1.157  l-0.765,1.149v0.772l-0.771,0.771l0.771,0.765l-0.519,1.543l-0.252,0.385h-0.778v0.765h0.259l-0.259,1.929l-1.031,2.694  l-0.512,3.844l-0.259,3.843l-1.024,4.623l-0.772,2.693l-0.519,3.458l-1.031,1.536l1.031,6.16l0.519,3.465l0.253,3.072l1.284,0.385  l1.031,0.772l0.259,1.921l-0.512,1.537h-0.778l0.778,1.543l0.512,1.151l-1.031,0.385l1.031,1.922l-0.512,1.158l0.512,1.157  l-0.259,3.072l-1.795,1.157v1.921l0.252,1.536l0.259,1.158l-1.284,1.15l-1.031,1.157v1.922l0.512,2.309l2.055,2.308l1.29,1.157  l0.772,0.771l0.519,2.302l-0.259,0.771v0.771l0.519,1.15v1.536l-1.031,0.386h-0.259v0.771l0.513,0.771l-0.513,1.536l-1.549,1.157  l0.519,1.536l0.26,1.544l1.802,0.765l1.283,1.15l0.26,2.308l-0.26,3.851l-0.252,2.309l0.252,2.308l0.512,1.922l-0.252,0.771  l-0.772,0.765l0.512,1.157v1.536l0.512,3.079l0.259,3.465v3.458l0.771,1.537l0.259,1.157l0.512,1.15l0.26,1.922v1.543l-0.513,1.15  l-0.778,0.386l-0.771,0.387l-1.795-0.387l-1.291-0.386h-0.771h-0.519l-0.512,0.386l-0.252,0.771l-0.26,0.387v1.149l0.26,1.157  l0.512,1.923l0.512,1.15l0.519,0.771h0.512l1.031-0.386h1.802h1.283h0.771l0.778,0.386l0.512,0.771l0.513,1.157v1.53l-0.513,1.542  l-0.512,2.308v3.08l0.259,1.922l-0.778,1.15l-1.031,1.157l-0.512,1.157v0.765l-0.26,1.922l0.26,1.157l0.512,1.536l1.809,3.845  l0.512,1.929l0.512,1.536l0.771,1.922l2.062,2.308l0.259,1.151l0.512,1.543l1.031,2.307l0.512,1.151l2.062,1.157l1.031,1.922v1.922  l-0.778,1.536l-1.802,1.929l-2.567,2.301l-1.809,2.694l-1.024,1.922l-1.031,3.465v2.693v2.688l0.772,1.929l1.031,1.15l0.253,1.536  l-1.543,0.771l-0.513,1.157l-0.771,1.922l-0.772,2.309l-0.519,2.301l-0.512,3.472l-0.26,2.301l0.512,1.536v3.465l2.833,2.309  l1.543,2.693l-0.253,1.15l-1.031,1.15l0.259,1.929l0.771,1.922l1.031,0.772v3.843l-0.519,1.151l0.259,1.929l0.771,2.301  l-0.259,0.386l-0.512,0.771l-0.519,2.308l0.519,1.536l0.512,1.923l0.259,1.921l-0.512,1.544l-1.031,2.308l-0.26,2.693l2.321,9.61  l0.512,3.465l1.284,2.688l2.062,1.929l2.574,3.457l0.512,3.845l1.29,2.308l1.291,0.771l0.512,0.38v0.385l-0.26,0.386l-0.771,0.771  l-1.543,0.387l-2.314,0.379l-1.291,0.386l-0.771,0.385l-1.802,1.151v2.308l-0.772,2.693l-2.833,3.08l-0.512,3.458v6.537  l-1.543,2.308l2.314,6.152l-0.519,1.157l1.55,3.458l0.512,3.073l0.259,1.922l0.259,1.157v1.536v1.543l-0.519,1.536l-0.771,0.765  l-1.031,0.387l-1.03,2.693l-1.024,0.765l-0.519,1.929l-0.26,1.15l1.038,2.307l1.284,2.694l-0.259,1.15l1.031,1.157l0.512,0.766  l0.259,0.771l-0.259,1.149l-0.512,0.387l-0.771,1.542l-1.543,4.995l-0.259,1.537l-0.259,2.308v2.307l0.259,3.459l0.771,2.314  l1.031,2.687l0.512,5.381l0.26,3.079l0.512,3.458l1.549,1.544l1.284,1.915l0.512,1.543l0.26,4.229l-0.26,2.308l-0.512,0.765  l-0.259,3.079v1.537l-0.253,2.308l-0.26,1.536l0.513,0.771l0.771,0.765l0.519,1.157l0.512,1.536l0.771,1.923l0.259,1.542v1.923  l0.259,1.149l0.512,0.766l0.771,0.771l0.519,1.157l0.513,1.537l-0.26,1.149l0.519,1.536l0.252,0.387l0.771,1.157l0.778,1.15  l0.512,1.536l0.26,1.157l1.03,2.308l1.284,3.073v1.536l0.513,1.542v1.151l1.03,0.771l1.291-0.771h0.771l0.512,0.385l0.771,0.766  l0.512,1.543l0.259,1.922l-0.771,0.386l-2.827,1.151l0.771,3.465l4.636,6.53l1.024,2.308l1.031,1.536l5.4,12.689l3.352,5.767  l1.284,2.308l1.29,2.302l1.802,1.542l2.314,1.151l2.062,1.922l0.513,0.771l0.259,1.536l-0.259,1.536l0.771,1.544l1.802,1.921  l3.605,3.459l-0.519,0.379l-0.772,0.771l-0.259,0.386l-0.252,0.765l-0.259,1.922l-1.803,1.158l-1.03,0.771l-0.772,0.766  l-0.512,0.771l0.259,1.923l0.771,1.536l1.031,1.157l0.771,3.072l2.055,3.459l1.291,1.149l2.314,1.157l1.284,0.387h0.771l0.519,0.385  l-0.259,0.766v0.386l-0.512,0.771l-0.519,0.765l-0.512,1.157l-1.024,1.15v4.994l-2.321,3.845l-2.574,3.844l-1.543,1.544  l-0.259,2.308v2.687l3.857,8.073l3.093,8.453l4.376,9.996l1.284,1.923l0.771,1.542l1.549,2.301l1.803,2.694l1.283,1.537l2.062,2.308  l3.086,2.686l3.857,3.466l5.407,3.458l4.635,4.224l1.29,1.157l2.055,3.458l1.031,1.923l0.512,1.921l-0.771,3.459l-0.771,3.844  l0.259,1.15l0.253,3.465l1.291,4.224l1.542,2.308l1.802,6.917l0.512,4.229v4.616l0.778,2.307l3.086-0.385l0.771,2.301l-1.283,3.079  l-1.031,2.301l0.771,5.767l1.803,0.386l-0.519,1.543l-1.543-0.386l-1.284,3.844h-0.771l-0.778,0.387l-3.086,7.295l-4.376,4.23  l-2.062,1.922l-0.772,2.301l-0.252,1.158l-0.519,4.229l0.26,4.223l-0.512,2.693l-0.259,5.766l-0.771,6.146l-0.26,2.694l-1.284,1.149  l-0.778,4.23v3.073l-0.771,8.453l1.803,4.216l-0.253,3.857l-0.259,2.321l1.543,3.072l0.26,1.896v1.178l0.512,3.065l1.542,3.466  l0.519,1.144l2.062,3.823l1.543,8.467l0.253,1.536l0.771,1.178l0.259,1.144l1.291-0.393l0.512,1.929h0.771l0.26,1.144h-0.772  l0.259,1.145l-2.58,0.784l1.031,1.536l0.519,3.073h1.03l2.314-0.392h0.512l-0.259,1.536l0.519,1.921h-1.031l0.512,1.145v1.543  l0.259,1.171l-1.031,0.358l0.259,0.785h1.031l0.512,1.929l-1.284,0.359l-0.771,0.392l1.284,0.393h0.519l0.771,0.785l0.772,0.751  l0.259,0.393l0.252,0.752l1.543,2.713l0.259,0.751l1.291,2.321l1.283,1.145l4.124,3.073l7.975,4.608h2.062l0.771-0.752l3.345-2.32  l1.284,0.784l0.771,0.752v1.144l-0.512,1.178l3.346,2.68l2.062-2.321l0.512,0.785v0.393l2.062,0.359h1.024l1.549,0.392h2.827h1.29  l1.031-0.392l-0.259,2.713h0.519h0.512l0.512-1.177l1.29-1.145l1.284,0.393l1.291,0.393l1.802,0.359l0.772-0.359h0.512l1.291-1.536  h0.771l0.259-1.178l0.253-0.358l1.29-1.178l0.771-0.751l0.512-0.785h0.259h0.512l1.291,0.393l1.543,0.784l2.062,0.752l0.512,0.393  l0.519,1.144l0.765-0.393h0.519l1.031,0.393l0.512,0.785l0.26,0.359l0.512,0.392l0.259,1.145l0.259,1.569l-0.519,0.359v2.313v2.289  l0.259,1.929l0.772,1.536l0.259,2.32v2.288l0.771,1.177l0.772,2.288l1.031,2.681l0.253,2.714l0.519,1.895v6.537l0.259,3.073  l0.253,3.073l0.519,4.636l0.512,3.072l1.283,1.144l0.519,1.929v1.144l1.031,1.536l1.543,0.785l1.803,1.144l1.543,0.752l2.574,0.785  l2.062,0.393l1.543-0.393l2.574-0.785l1.291-0.359l1.283-0.784l1.284-0.752l1.802-1.929l0.519-1.929l1.024-2.68l0.259-0.785  l0.259-1.144v-2.68l-0.519-1.53l-0.512-1.569l-0.772-1.145l-1.29-2.288l-0.771-2.321l-1.031-1.536l-0.512-1.144v-1.536l0.512-1.144  l1.031-1.57l1.55-1.144l1.543-1.536l0.771-1.144l1.031-0.785l1.283-2.681l1.543-2.288h1.031l1.802-1.177l0.771-1.144l1.031-1.145  l0.512-2.32l0.519-1.923l1.284-2.287l0.778-1.544l0.512-0.783l0.512-1.89l0.519-2.321l0.252-2.68l1.543-1.537l0.778-2.32  l1.031-3.857v-2.68v-2.289l1.284-3.857l0.252-3.072v-1.144l-0.252-2.321v-0.386l0.252-1.144l0.26-1.929l-0.26-1.902l0.771-0.778  l0.519-0.392l0.513,0.392l0.259,1.145l0.519-0.366l1.024-0.778l0.259-0.784h0.771h0.512h0.259l1.031,0.393l0.771,0.783l0.771,0.387  v0.759v0.784l-1.024,0.744l0.253,1.145l-0.253,1.184l-0.259,1.889h1.031l0.252,1.178l0.772,0.358h0.771l1.031-1.536l0.519-0.744  l0.253-0.785l2.062-2.688l0.771-0.744l1.291-0.399l0.771-0.385l1.031,0.385h0.512h0.771l0.772,0.399l0.512,0.744v1.544l0.259,1.529  l-0.771,1.144l0.259,2.321l-0.519,0.752l-0.513,0.784v0.785l-0.259,1.896l-1.024,3.856v1.929v2.682l0.771,4.216v1.177l-0.259,1.145  l-1.543,2.288l-2.062,3.105l-2.314,2.673l-1.291,2.688l-1.283,3.459l-1.031,1.928l-1.284,2.288l-0.519,6.538l-0.512,1.929v2.287  l0.253,3.106l-0.253,3.823l-0.778,3.852l-0.772,2.288v3.465l1.031,6.145l0.519,5.002l0.771,2.68l2.827,4.25v3.072l0.519,0.752  l2.314,4.609l0.772,1.536l2.321,4.994l2.826,3.465l3.093,2.321l5.66,4.217l4.636,3.465l3.857,2.288l6.95,2.321l3.864,0.393  l3.345-0.393l4.636-0.785l6.171-1.929l3.605-2.68l3.604-3.465l2.314-4.969l0.771-1.569l0.771-1.536l0.778-3.425v-2.329v-2.674  l0.253-0.783l0.26-1.145l1.543-1.537v-0.784l0.771-0.359l2.062,0.752l1.795,0.392l1.809,0.393l2.827,0.393l2.062,0.359l2.827-0.359  l1.031,0.752l0.771,1.537l1.031,1.144l0.259,1.921v1.93l-1.802,3.072l-1.291,1.929v0.752l0.259,1.177l1.031,4.216l0.771,3.074  l1.031,3.465v1.895l1.031,1.929l1.024,2.714l0.519,1.896l0.771,1.536l1.543,1.536l1.543,0.778l1.803,0.758l2.062,0.386l1.802,0.399  h1.803l1.543-0.785l1.543-0.358l2.062-0.399l2.055-0.778l2.321-0.752l2.574-1.536l2.827-1.144l1.803-0.785l1.549-1.144l1.284-2.68  l1.031-2.714l1.031-0.751l0.771-0.393h0.772l8.752,5.394l2.567,1.895l3.093,2.321l3.085,1.929l2.062,1.537l1.284,0.358l0.778,0.386  l0.253,1.543v2.315v1.928l-1.283,1.537l-1.291,0.751h-1.543l-1.29,0.785l-2.055,2.287l-1.284,1.929l-1.55,2.288v1.929l-4.117,3.072  l-4.117,6.146l-4.888,5.387l-1.809,3.857l-2.315,3.073l-2.827,3.431l-1.29,1.537l-1.543,1.177l-0.259,1.144l0.259,1.929l1.031,1.896  v1.536l0.771,3.105l2.827,3.824l0.519,1.536l1.29,1.145l1.284,1.177l2.573,1.145l4.636,1.536l5.4,3.066l6.69,3.072l2.833,1.542  l1.802,0.387l2.321,0.751h1.543h2.055l2.321,0.393l1.024,0.785l2.062-0.393l1.542-0.393l1.543-0.752l1.802-1.928l1.291-1.923  l2.833-2.688l1.543-1.528l1.795-0.393h2.062l1.543,0.393l0.771-0.785v-0.751l-0.771-1.178l-0.512-0.752l-0.512-0.784v-0.752v-2.321  v-1.144l0.771-0.752l0.512-0.392h0.512v0.392l0.259,0.752l0.26-0.393l0.512-0.359v-0.392l0.519-0.393l-0.259-0.393l-0.259-0.359  h-0.772h-1.03l-0.512-0.392l-0.771-0.785l-0.771-1.536l-0.259-1.144l-0.259-0.785l-0.253-0.36h-0.519h-1.03l-0.253-0.783  l-0.771-0.753l-0.259-0.393v-0.391v-0.393h1.03l0.772,0.393h1.031l0.771,0.783h0.512h0.519h0.253h0.519l0.253,0.36l0.259,0.784  l0.512,0.752l0.259,0.393l0.513,0.784l0.259,0.359l0.771,0.393l0.519,0.393l0.771,0.392l-0.259,0.752l0.519,0.785l0.765,1.536v0.751  l0.259,0.393h0.259l0.512,0.393l0.519-0.393l0.259-0.393v-0.751l-0.519-1.536l-0.771-0.785l-0.519-0.752l-0.765-0.784v-1.144  l-0.771-1.146l-0.778-0.783l-0.252-0.753l-1.291-1.929l-0.519-0.393h-0.512h-0.771h-0.771l-1.284-0.391l-0.778-0.36l-1.284-1.177  l-0.512-0.752l-2.581-2.68h-0.512l-0.26-0.393v-0.386v-0.758l0.26-0.393h1.03l1.031,0.751l2.574,0.399l-0.772-1.15l-0.519-1.144  v-0.778l-2.833-5.001l-1.543-3.825l-1.543-2.321l-1.543-3.823l-1.803-4.25l-1.802-4.609l-1.802-5.359l-1.796-6.179l-0.778-3.426  l-0.771-2.713l-1.543,0.392l-1.802,1.145l-1.284,0.393h-1.03l-2.315-1.145l-2.833-1.536l-8.752-6.145l-2.574-1.536l-2.062-1.537  l-0.771-1.928l0.771-1.146l0.519-0.784l0.512-1.929l1.031-0.752l0.771-0.784l-0.259-2.681l0.259-3.072l0.771-3.857l0.512-1.145  v-1.144v-1.921l0.26-6.146l0.512-1.144l0.519-0.785l1.29-0.392h2.315l2.314,0.392l1.291,0.785l0.771,0.359l1.024,1.177l0.519,0.752  l0.512,1.144l0.778,1.569l0.771,1.144l1.284,1.146l1.031,1.144l0.512,1.177l1.031,2.288l0.259,1.929l0.771,1.529l0.512,0.752  l2.321-0.359l0.771-2.707l0.26-1.144l0.253-3.831l0.771-1.923l-0.252-1.144l0.765-1.569l1.29-2.288l1.031-1.536l1.283-1.536  l0.772-3.072l1.031-2.321l0.259-0.752l-0.259-1.177l0.259-1.145l0.259-0.393h1.284l1.291,1.537l1.023,1.177l1.031,0.752l1.29,0.784  l2.056,1.537l1.549,1.144l0.771,1.536l0.259,0.785v0.751l-0.519,1.929l-0.512,0.393l-0.519,0.752h-0.771l-1.284,1.144h-0.519v0.784  l-0.512,1.145l-1.29-0.359h-0.512l-0.52,0.359h-0.252l-0.259,0.393v0.392v0.393l0.259,0.36l0.252,0.783l0.26,0.387v0.366  l-0.26,0.393l-0.252,0.784l-0.259,0.359v1.17l0.259,1.544v0.744l0.252,0.785l1.031,1.144v0.393v0.359l-0.259,0.392l-0.252,0.393  l-0.52,0.393l0.26,0.752l-0.513,2.32l-0.519,1.536l-0.252,1.145l0.252,1.145l0.519,1.536l0.513,1.176l0.771,1.146l0.519,0.392  l0.259,0.752v0.393l-0.259,0.393l-0.519,0.358l-0.512,0.393l-0.259,0.393l-0.513,0.751l-3.092,0.785h-1.543l-1.031,0.393  l-0.512,0.393l-0.252,0.358l0.252,0.393l2.055,7.289l1.81,5.78l2.055,5.359l7.722,18.469l2.055,2.289l1.55,2.32l1.031,1.529  l0.771,0.759l1.024,0.386h1.031h1.031l1.29-0.386h1.024l1.29,0.386l0.772,0.784l0.259,1.145l-0.259,1.536l-0.26,0.393l-0.512,0.358  l-1.031,0.399l-0.512,0.778l-0.259,0.358v0.393l0.259,0.393h0.771l0.512,0.393h0.519l0.513,0.751l0.519,0.393l0.512,0.752  l0.772,0.784l0.259,0.393v0.751l0.252,0.785l0.259,0.36l0.513,0.393l0.259,0.391l0.771,0.393l0.519,0.753l0.512,0.392l0.259,0.752  l0.26,0.785l0.771,0.392l0.772,0.359l0.512,0.393l0.512,0.393l0.26,0.392l-0.26,1.145l-0.512,0.393l-0.512,0.751l-0.772-0.359  l-1.031-0.392l-0.512,0.392v0.752l0.772,0.393l0.512,0.751l0.259,0.785l0.512,0.751l0.513,0.785l0.259,0.752l0.771,0.392  l0.519,1.145v0.784l0.512,1.145l0.259,0.393l0.771,0.393l1.031,0.358h0.252l0.259-0.751v-1.537l-0.259-0.784l0.259-0.359  l0.772-0.785l-0.26-1.144v-0.785l0.519-0.751l0.252-0.785v-0.751l0.519-0.785v-0.751v-0.393l0.26-0.752l0.512-0.393h0.519  l0.512-0.392l0.259-0.393h0.252l0.259-0.393h0.513l0.519-0.751l0.252-0.785l0.778-0.36l0.512-0.783l0.771-0.753l0.519-0.783  l0.512-0.393l0.252-0.36l0.519-0.785l0.253-1.144v-0.393v-0.751v-0.785v-0.393l-0.253-0.358v-0.393l0.253-0.785l0.259-0.358  l-0.259-0.393l-0.253-0.785v-0.751h-0.259l-0.26-0.778v-0.758v-0.386v-0.759l0.26-0.386l0.259-1.184l-0.259-1.137l-0.26-0.752  l-0.512-0.399v-0.777l-0.771-0.752l-0.253-0.784l-0.519-0.753l-0.772-0.783h-0.259l-1.03-0.753l-0.513-0.393v-0.751l-0.259-0.785  l0.259-0.751l0.259-0.393l0.513-0.393l0.259-0.393h0.512h0.259h0.26l0.253,0.393l1.29-0.393h1.024l0.772-0.358l1.031-0.393  l1.03-0.785l0.779-0.751l0.512-0.393l0.771-0.393l1.031-1.144l0.512-0.785l0.259-0.751l0.259-1.145l0.253-0.784l0.259-0.752  l0.512-0.393l0.259-0.784v-0.752v-0.785l0.259-0.751l0.513-0.393l0.259-0.393l0.512-0.358h1.031h0.512h0.519h0.771h0.772  l1.031,0.358h0.512l0.771,0.393l1.031,0.785l0.519,0.751l0.252,0.785v1.144l-0.252,0.752l-0.519,0.785l-0.253,0.751v1.178  l-0.259,1.536l0.259,1.144l0.512,0.785l0.771,1.144l0.772,1.536l0.771,1.536l0.259,1.929l0.252,0.751h0.778l2.055-1.928l1.284-1.537  l1.031-1.895l0.519-2.321l-0.259-2.321l0.519-1.536l0.253-2.288l-0.253-1.929l-0.26-1.144l-1.03-0.785l-1.291-0.751l-1.536-1.929  l-0.778-0.751l-1.543-0.785l-1.031-0.393l-1.542-0.751l-1.284-0.779l-0.778-1.542l-0.253-0.745l0.512-1.184l0.519-0.745l1.031-0.785  l0.772-1.144l1.023-1.929l0.52-0.752l1.023-0.393l1.81-0.392h1.536l0.259,0.392h0.512l0.519,1.537l0.771,0.784h0.772h1.29  l2.055-1.177l1.29-0.752l1.031-1.144l0.771-1.178l0.512-1.144l1.031-0.751l6.69-7.715l0.772-1.536l1.029-2.681l0.514-2.681  l3.863-8.858l2.062-5.746l0.259-0.752l0.254-1.177v-0.752l-0.513-1.929l-0.259-1.144l-0.52-0.785l-1.543,0.393l-0.771-0.393  l-0.252-0.392l0.512-1.145l0.26-0.392l-0.26-0.359h-1.031l-0.252-0.393l-0.26-0.393l-0.26-1.536l0.52-1.145l0.771-0.784l-0.26-0.752  l-0.512-1.177l-0.779-1.145h-0.771l-0.772-1.144l-0.259-1.929l-1.284-2.287l-0.512-1.536v-1.929l0.253-2.321l0.772-3.459  l0.518-3.073v-1.144v-1.929l-0.259-2.287l-0.259-0.785l-0.514-1.144l-0.771-1.536l-0.513-3.072l-0.26-1.145l0.26-1.536l-0.26-1.178  l0.26-1.144l0.254-0.393l1.029-0.751l1.543-1.178l0.772-1.144l1.55-1.929l1.023-2.674l1.543-2.688l0.771-3.85l0.778-3.073  l0.259-3.072l0.254-16.148l1.289-4.608l0.766-8.066v-8.434l-0.766-5.395l-1.03-5.394l-1.03-6.139v-5.394l-0.26-0.751l0.519-4.217  l1.031-5.786l1.024-4.216l0.771-7.688v-9.225l-0.771-13.84l0.512-4.995l-0.252-3.072v-3.08l-1.031-3.072l-1.284-9.225l-3.604-39.591  l2.055-1.144v-1.929l-2.055-0.772l-0.512-31.896l-1.031-9.231v-9.218l-1.031-9.617l-1.803-8.838l-0.512-4.995l-2.58-8.459  l-1.024-9.225l0.513-5.381l-1.031-5.387l0.519-5.38l0.771-10.761v-5.388l0.771-5.766v-2.301l0.26-5.388l-0.519-2.693l0.259-6.146  l0.771-3.465l2.574-15.762l7.209-11.146l13.381-7.31l2.574-14.604l3.604-1.544l-0.512-19.984l4.375-2.315l1.284-13.839l5.147-1.536  l8.493-14.611l10.808-16.534l21.369-15.77l9.004-5.766l6.691-5.001l3.863-4.224l2.056-3.465l2.062-4.229l8.24-9.997l3.339-6.537  l1.29-1.542l2.055-2.309l5.926-4.995l16.986-15.768l25.738-17.306l0.771-0.386l5.659-3.072l1.802-0.771l1.551-0.772l4.887-1.149  l1.031-0.771l3.857-1.923l2.834-3.072l0.512-1.929l0.52-1.536l0.259-3.073l0.512-2.308v-5.001L1204.109,1201.439z M750.859,133.382  v0.771l-0.771,1.158h-1.031l-0.512,0.771l-0.259,0.385l-0.771,0.38l-0.778,0.385l-4.117-0.765h-2.567l-0.778,0.38h-0.771  l-0.771-0.38v-0.771l0.512-0.772h1.55l0.771-0.771l1.543-0.771l1.284-0.773l0.778,0.773l3.345,2.314l1.543-1.158l0.512-1.156  l-0.512-0.773v-0.385h1.031l0.771,0.771V133.382z M772.733,117.973v0.386l-0.252,0.771l-0.519,0.385l-0.771-0.385l-0.771-0.386  h-0.259l-0.259-0.385v-0.773l-0.253-0.385h-1.29h-0.772l-0.512-0.765l-0.259-0.386l0.259-0.772l0.259-1.541l0.512-0.773l0.512-0.379  l0.259-0.771l0.259,0.771l0.512,0.379l0.512,0.394l0.519,1.15l0.771,0.771l0.519,1.158l1.024,0.765V117.973z M908.121,1836.099  l-2.574-2.287l-0.26-0.393v0.393l0.26,0.359l-0.26,0.392h-0.259h-1.284h-1.543h-0.519l-0.252-0.392v-2.288l0.512-1.537l0.772-1.144  l0.771-0.785v0.393l-0.259,0.752v0.784l0.259,0.393l0.512,0.752l0.519,0.785h0.771l1.031,1.536l1.284,1.144l1.031,1.144H908.121z   M920.99,1832.634l-0.259,0.785v1.536v0.752l-0.259,0.392l-0.252,1.145l-0.259,0.784l-0.519,0.393v1.144l-0.253,1.145l-0.259,0.784  v0.752l-0.259,0.784h-0.259l-0.253,0.393v1.144v1.146l0.253,1.144l-0.253,1.17l-0.512,0.759l-0.519-0.399l-0.512-0.359v-1.529  l-0.259-1.543l-0.252-0.777l-0.519-0.753l-0.26-0.784l-0.253-1.537v-0.784l-0.259-0.752l-0.519-0.392l-0.252-0.752l-1.031-1.536  l-0.771-0.785l-1.031-0.751l-1.29-0.785l-0.772-0.751l-0.512-1.178l-0.259-1.536l0.259-0.752h0.771l1.291-0.392h1.543l0.512-0.393  h0.771l0.771,0.784l0.259,0.752h0.519l0.253-0.752v-0.392l0.778-0.393l1.024-0.359h1.031h1.284l0.778,0.359l0.512,0.393l0.259,0.784  l0.26,1.145L920.99,1832.634z M969.121,1912.176l0.513,0.759l1.03,0.785v0.385v0.359l-0.259,0.785v0.398l0.259,0.386l0.26,0.759  v0.386l-0.519,0.758l0.259,0.778l0.513,0.751l0.259,0.399l0.259,0.778l-0.259,0.751l-0.259,0.393l-0.253,0.751l0.512,0.785v0.752  v1.177l-0.512,0.751l-0.778,0.393l-0.252,0.393l-0.519,0.36l-0.513,0.783l-0.512,0.393l-0.259,0.36l-0.512,0.784l-1.291,0.752  l-0.519,0.393h-0.771h-1.024l-0.259,0.393l-0.772,0.392l-0.259,0.752l-0.512,0.784h-0.771l-0.519-0.784l-0.26-0.393l0.26-1.536  l0.259-0.36l0.512-0.783l0.519-0.393l0.771-0.753h1.031h0.512l0.259-0.391l0.513-0.753l0.771-0.393l0.778-0.783l-0.259-0.36h-0.26  h-0.771l-0.259,0.36l-0.772,0.391l-1.031,0.785l-0.771,0.36h-0.771l-0.512-0.36l-0.519-0.785l-0.26-0.751v-0.785l0.26-1.144v-0.393  l0.259-0.751l0.512-0.785l0.259-0.393l0.519-0.358l0.512-0.778l0.259-0.399v-0.358l-0.259-0.393h-0.512l-0.519,0.393h-0.512h-0.778  l-1.023,0.358h-0.772h-2.574v0.785h-0.259h-0.519l-0.513-0.386h-0.259l-0.512-0.399v-0.751v-0.393v-0.386h-0.513h-0.519  l-0.252-0.365v-0.778l0.252-0.399l0.259-0.359l0.513-0.386v-0.398v-0.386l0.259-0.759v-0.385l0.259-0.393v-0.393l0.512-0.359h0.513  l0.519,0.359h0.512h1.031h1.542l1.291-0.759h1.543l2.062-1.138l0.512-0.392h0.259l0.253,0.392h0.519l0.512-0.783l0.778,0.392  l0.512,0.392l1.031,0.753L969.121,1912.176z" fill="#2f6f9e"/>
  </g>
  <text x="360.0" y="412.5" font-family="Caveat" font-weight="700" font-size="179" fill="#2f6f9e" text-anchor="middle">Ammersee</text>
  <rect x="84.2" y="458.5" width="551.7" height="3" rx="1.5" fill="#1d1c19" opacity="0.85"/>
  <text x="360.0" y="518.5" font-family="Inter" font-weight="600" font-size="34" letter-spacing="1" fill="#1d1c19" text-anchor="middle">S E E G E F Ü H L     ·     B A Y E R N</text>
</svg>