<svg xmlns="http://www.w3.org/2000/svg" width="1380" height="2040" viewBox="0 0 230 340"><path d="M26.6,15.6 L23.3,9.6 L24.9,5.6 L23.4,3 L19.7,2.1 L14.4,7 L13.1,5.4 L11.2,5.8 L9.4,2 L6.3,1.2 L1.8,-9.1 L-2.9,-41.5 L3.9,-62.7 L2.4,-72.7 L0.6,-75 L-4.9,-74.9 L-12.4,-67.5 L-16.6,-67.1 L-22,-57.2 L-21.6,-53 L-24.3,-47.3 L-23.7,-41.3 L-25.6,-36.4 L-24.6,-30.6 L-25.8,-26.6 L-23.8,-21.8 L-26.6,-12.8 L-26,-9.3 L-22.8,-5.3 L-25.1,0.3 L-23.1,20.5 L-24.3,26.8 L-20.4,36.9 L-20.7,40.6 L-16.7,48.4 L-18.3,54.5 L-17.2,59.2 L-12,60.7 L-10.4,65.3 L-7.5,69.5 L-3,73.5 L2,75 L7,73 L10.5,69.5 L12.3,66.1 L11.7,33.9 L16.2,25.7 L26.6,16.1 Z" fill="none" stroke="#2f8a7e" stroke-opacity="0.32" stroke-width="0.90" stroke-linejoin="round" stroke-linecap="round" transform="translate(115 180) rotate(0) scale(2.00000) translate(5.71 0.00)"></path><path d="M68.75 72.80L68.75 72.80Q66.53 72.80 64.84 71.85Q63.15 70.91 62.20 69.19Q61.26 67.46 61.26 65.12L61.26 65.12L61.26 64.76Q61.26 62.42 62.19 60.69Q63.12 58.97 64.80 58.02Q66.47 57.08 68.69 57.08L68.69 57.08Q70.89 57.08 72.50 58.05Q74.13 59.03 75.03 60.75Q75.92 62.48 75.92 64.76L75.92 64.76L75.92 66.05L65.09 66.05Q65.16 67.58 66.23 68.54Q67.31 69.50 68.88 69.50L68.88 69.50Q70.47 69.50 71.22 68.81Q71.97 68.12 72.36 67.28L72.36 67.28L75.44 68.90Q75.03 69.68 74.23 70.59Q73.44 71.51 72.11 72.16Q70.80 72.80 68.75 72.80ZM65.13 63.23L65.13 63.23L72.08 63.23Q71.97 61.94 71.05 61.16Q70.14 60.38 68.66 60.38L68.66 60.38Q67.14 60.38 66.23 61.16Q65.33 61.94 65.13 63.23Z M83.06 72.38L79.28 72.38L79.28 57.50L83.06 57.50L83.06 72.38ZM81.17 55.76L81.17 55.76Q80.16 55.76 79.45 55.10Q78.75 54.44 78.75 53.36L78.75 53.36Q78.75 52.28 79.45 51.62Q80.16 50.96 81.17 50.96L81.17 50.96Q82.23 50.96 82.92 51.62Q83.61 52.28 83.61 53.36L83.61 53.36Q83.61 54.44 82.92 55.10Q82.23 55.76 81.17 55.76Z M91.05 72.38L87.27 72.38L87.27 57.50L90.98 57.50L90.98 59.45L91.53 59.45Q91.89 58.67 92.88 57.96Q93.87 57.26 95.88 57.26L95.88 57.26Q97.62 57.26 98.92 58.05Q100.23 58.85 100.95 60.24Q101.67 61.64 101.67 63.50L101.67 63.50L101.67 72.38L97.89 72.38L97.89 63.80Q97.89 62.12 97.06 61.28Q96.24 60.44 94.71 60.44L94.71 60.44Q92.97 60.44 92.01 61.59Q91.05 62.75 91.05 64.82L91.05 64.82L91.05 72.38Z M111.99 72.38L108.21 72.38L108.21 60.62L104.43 60.62L104.43 57.50L108.21 57.50L108.21 54.74Q108.21 53.21 109.12 52.29Q110.04 51.38 111.51 51.38L111.51 51.38L115.41 51.38L115.41 54.50L112.83 54.50Q111.99 54.50 111.99 55.40L111.99 55.40L111.99 57.50L115.89 57.50L115.89 60.62L111.99 60.62L111.99 72.38Z M123.45 72.80L123.45 72.80Q121.86 72.80 120.60 72.24Q119.34 71.69 118.60 70.63Q117.87 69.56 117.87 68.03L117.87 68.03Q117.87 66.50 118.60 65.46Q119.34 64.43 120.64 63.90Q121.95 63.38 123.63 63.38L123.63 63.38L127.71 63.38L127.71 62.54Q127.71 61.49 127.05 60.81Q126.39 60.14 124.95 60.14L124.95 60.14Q123.54 60.14 122.85 60.78Q122.16 61.43 121.95 62.45L121.95 62.45L118.47 61.28Q118.83 60.14 119.62 59.19Q120.42 58.25 121.75 57.66Q123.09 57.08 125.01 57.08L125.01 57.08Q127.95 57.08 129.66 58.55Q131.37 60.02 131.37 62.81L131.37 62.81L131.37 68.36Q131.37 69.26 132.21 69.26L132.21 69.26L133.41 69.26L133.41 72.38L130.89 72.38Q129.78 72.38 129.06 71.84Q128.34 71.30 128.34 70.40L128.34 70.40L128.34 70.37L127.77 70.37Q127.65 70.73 127.23 71.31Q126.81 71.90 125.91 72.35Q125.01 72.80 123.45 72.80ZM124.11 69.74L124.11 69.74Q125.70 69.74 126.70 68.85Q127.71 67.97 127.71 66.50L127.71 66.50L127.71 66.20L123.90 66.20Q122.85 66.20 122.25 66.65Q121.65 67.10 121.65 67.91L121.65 67.91Q121.65 68.72 122.28 69.23Q122.91 69.74 124.11 69.74Z M143.16 72.80L143.16 72.80Q141.00 72.80 139.24 71.90Q137.48 71 136.47 69.29Q135.44 67.58 135.44 65.15L135.44 65.15L135.44 64.73Q135.44 62.30 136.47 60.59Q137.48 58.88 139.24 57.98Q141.00 57.08 143.16 57.08L143.16 57.08Q145.28 57.08 146.81 57.83Q148.34 58.58 149.29 59.88Q150.23 61.19 150.53 62.84L150.53 62.84L146.88 63.62Q146.75 62.72 146.34 62Q145.91 61.28 145.15 60.86Q144.38 60.44 143.25 60.44L143.25 60.44Q142.10 60.44 141.19 60.93Q140.28 61.43 139.75 62.40Q139.22 63.38 139.22 64.79L139.22 64.79L139.22 65.09Q139.22 66.50 139.75 67.47Q140.28 68.45 141.19 68.94Q142.10 69.44 143.25 69.44L143.25 69.44Q144.95 69.44 145.84 68.55Q146.72 67.67 146.97 66.23L146.97 66.23L150.63 67.10Q150.23 68.69 149.29 69.99Q148.34 71.30 146.81 72.05Q145.28 72.80 143.16 72.80Z M157.52 72.38L153.74 72.38L153.74 51.38L157.52 51.38L157.52 59.33L158.06 59.33Q158.30 58.85 158.81 58.37Q159.32 57.89 160.18 57.57Q161.03 57.26 162.35 57.26L162.35 57.26Q164.09 57.26 165.40 58.05Q166.70 58.85 167.42 60.24Q168.14 61.64 168.14 63.50L168.14 63.50L168.14 72.38L164.36 72.38L164.36 63.80Q164.36 62.12 163.54 61.28Q162.71 60.44 161.18 60.44L161.18 60.44Q159.44 60.44 158.48 61.59Q157.52 62.75 157.52 64.82L157.52 64.82L157.52 72.38Z" fill="#1d1c19"></path><path d="M97.87 106.40L97.87 106.40Q95.44 106.40 93.58 105.53Q91.72 104.66 90.67 103.04Q89.62 101.42 89.62 99.14L89.62 99.14L89.62 98.30L93.52 98.30L93.52 99.14Q93.52 101.03 94.69 101.97Q95.86 102.92 97.87 102.92L97.87 102.92Q99.91 102.92 100.91 102.11Q101.92 101.30 101.92 100.04L101.92 100.04Q101.92 99.17 101.42 98.63Q100.93 98.09 99.98 97.74Q99.04 97.40 97.69 97.10L97.69 97.10L97 96.95Q94.84 96.47 93.29 95.73Q91.75 95.00 90.92 93.80Q90.10 92.60 90.10 90.68L90.10 90.68Q90.10 88.76 91.02 87.39Q91.93 86.03 93.59 85.29Q95.26 84.56 97.51 84.56L97.51 84.56Q99.76 84.56 101.51 85.32Q103.27 86.09 104.27 87.60Q105.28 89.12 105.28 91.40L105.28 91.40L105.28 92.30L101.38 92.30L101.38 91.40Q101.38 90.20 100.91 89.46Q100.45 88.73 99.58 88.38Q98.71 88.04 97.51 88.04L97.51 88.04Q95.71 88.04 94.85 88.71Q94 89.39 94 90.56L94 90.56Q94 91.34 94.41 91.88Q94.81 92.42 95.62 92.78Q96.43 93.14 97.69 93.41L97.69 93.41L98.38 93.56Q100.63 94.04 102.29 94.79Q103.96 95.54 104.89 96.77Q105.82 98.00 105.82 99.92L105.82 99.92Q105.82 101.84 104.84 103.29Q103.87 104.75 102.08 105.57Q100.30 106.40 97.87 106.40Z M115.66 106.40L115.66 106.40Q113.44 106.40 111.75 105.45Q110.05 104.51 109.11 102.78Q108.16 101.06 108.16 98.72L108.16 98.72L108.16 98.36Q108.16 96.02 109.09 94.29Q110.02 92.57 111.70 91.62Q113.38 90.68 115.60 90.68L115.60 90.68Q117.79 90.68 119.41 91.65Q121.03 92.63 121.93 94.35Q122.83 96.08 122.83 98.36L122.83 98.36L122.83 99.65L112 99.65Q112.06 101.18 113.14 102.14Q114.22 103.10 115.78 103.10L115.78 103.10Q117.37 103.10 118.12 102.41Q118.87 101.72 119.26 100.88L119.26 100.88L122.35 102.50Q121.93 103.28 121.14 104.19Q120.34 105.11 119.02 105.75Q117.70 106.40 115.66 106.40ZM112.03 96.83L112.03 96.83L118.99 96.83Q118.87 95.54 117.95 94.76Q117.04 93.98 115.57 93.98L115.57 93.98Q114.04 93.98 113.14 94.76Q112.24 95.54 112.03 96.83Z M132.97 106.40L132.97 106.40Q130.75 106.40 129.06 105.45Q127.36 104.51 126.42 102.78Q125.47 101.06 125.47 98.72L125.47 98.72L125.47 98.36Q125.47 96.02 126.40 94.29Q127.33 92.57 129.01 91.62Q130.69 90.68 132.91 90.68L132.91 90.68Q135.10 90.68 136.72 91.65Q138.34 92.63 139.24 94.35Q140.14 96.08 140.14 98.36L140.14 98.36L140.14 99.65L129.31 99.65Q129.37 101.18 130.45 102.14Q131.53 103.10 133.09 103.10L133.09 103.10Q134.68 103.10 135.43 102.41Q136.18 101.72 136.57 100.88L136.57 100.88L139.66 102.50Q139.24 103.28 138.44 104.19Q137.65 105.11 136.33 105.75Q135.01 106.40 132.97 106.40ZM129.34 96.83L129.34 96.83L136.30 96.83Q136.18 95.54 135.27 94.76Q134.35 93.98 132.88 93.98L132.88 93.98Q131.35 93.98 130.45 94.76Q129.55 95.54 129.34 96.83Z" fill="#1d1c19"></path><svg x="25.43" y="161.00" width="175.14" height="90.00" viewBox="0 0 360 185" overflow="visible"><g fill="#1d1c19"><g transform="translate(64.98,0)"><path d="M22.88 133.59 L22.88 133.59 Q21.33 133.16 20.38 132.82 L20.38 132.82 L19.44 132.56 Q19.61 132.13 19.31 131.78 Q19.01 131.44 18.06 131.35 L18.06 131.35 Q16.77 130.49 15.39 128.95 Q14.02 127.40 12.99 125.76 Q11.95 124.13 11.61 123.36 L11.61 123.36 Q11.18 122.32 11.44 121.98 L11.44 121.98 Q11.52 121.81 11.70 121.72 L11.70 121.72 Q12.38 121.46 13.33 121.03 L13.33 121.03 Q14.28 120.35 15.35 120.00 Q16.43 119.66 17.11 121.12 L17.11 121.12 Q18.23 123.10 20.60 124.47 Q22.96 125.85 26.02 126.11 Q29.07 126.37 32.16 125.08 L32.16 125.08 Q34.23 124.13 34.40 122.45 Q34.57 120.78 33.11 118.54 L33.11 118.54 Q32.85 117.85 32.38 117.42 Q31.91 116.99 31.00 116.30 Q30.10 115.62 28.47 114.07 L28.47 114.07 Q27.18 113.47 26.10 112.95 Q25.03 112.43 23.82 111.83 L23.82 111.83 Q22.45 111.14 20.73 109.90 Q19.01 108.65 17.54 107.14 Q16.08 105.64 15.31 104.26 L15.31 104.26 Q13.93 102.97 13.59 100.69 Q13.24 98.42 13.72 95.84 Q14.19 93.26 15.31 91.19 L15.31 91.19 Q15.82 89.99 17.20 88.05 Q18.58 86.12 20.30 84.05 Q22.02 81.99 23.61 80.31 Q25.20 78.64 26.14 78.03 L26.14 78.03 Q26.83 77.35 27.61 76.57 L27.61 76.57 L28.38 75.88 Q28.47 75.45 28.72 75.45 L28.72 75.45 L28.90 75.45 Q29.33 75.20 30.79 74.59 Q32.25 73.99 33.97 72.36 L33.97 72.36 Q39.73 69.61 43.77 68.62 Q47.82 67.63 50.14 67.63 L50.14 67.63 Q52.29 67.71 54.35 68.79 Q56.42 69.86 57.92 71.50 Q59.43 73.13 59.68 75.20 L59.68 75.20 Q60.29 77.26 59.13 80.14 Q57.96 83.02 55.94 85.56 Q53.92 88.10 51.77 89.30 L51.77 89.30 Q49.36 90.33 47.69 89.56 Q46.01 88.78 46.10 87.15 L46.10 87.15 Q46.10 86.46 46.57 85.52 Q47.04 84.57 49.19 82.16 L49.19 82.16 Q51.94 78.12 52.12 76.40 Q52.29 74.68 50.57 74.42 L50.57 74.42 Q50.05 74.25 48.59 74.51 Q47.13 74.77 45.45 75.15 Q43.77 75.54 42.53 75.97 Q41.28 76.40 41.28 76.57 L41.28 76.57 L41.28 76.83 Q41.28 76.92 41.19 77.00 L41.19 77.00 Q41.19 77.09 40.94 77.00 L40.94 77.00 Q40.76 77.00 39.78 77.56 Q38.79 78.12 37.41 78.98 Q36.03 79.84 34.70 80.74 Q33.37 81.65 32.42 82.33 Q31.48 83.02 31.39 83.19 L31.39 83.19 Q31.22 84.14 29.41 84.91 L29.41 84.91 Q27.69 85.95 26.40 87.84 Q25.11 89.73 23.39 92.65 L23.39 92.65 Q21.93 94.63 21.33 96.91 Q20.73 99.19 21.33 100.57 L21.33 100.57 Q21.76 101.94 23.69 103.28 Q25.63 104.61 28.98 106.59 L28.98 106.59 Q31.91 108.22 34.49 110.03 Q37.07 111.83 38.87 113.51 Q40.68 115.19 41.19 116.30 L41.19 116.30 Q42.23 117.77 42.44 119.66 Q42.66 121.55 42.44 123.31 Q42.23 125.08 41.88 126.19 L41.88 126.19 Q41.28 127.57 40.03 129.12 Q38.79 130.67 37.75 130.58 L37.75 130.58 Q36.81 130.84 36.34 131.18 Q35.86 131.53 35.26 131.78 L35.26 131.78 Q34.66 132.13 32.42 132.60 Q30.19 133.07 27.52 133.38 Q24.85 133.68 22.88 133.59 Z M67.77 126.28 L67.77 126.28 Q65.19 127.74 62.31 127.96 Q59.43 128.17 56.93 127.18 Q54.44 126.19 52.89 124.22 L52.89 124.22 Q52.03 123.10 51.26 120.65 Q50.48 118.20 51.00 113.98 L51.00 113.98 Q51.51 110.03 53.45 105.98 Q55.38 101.94 58.22 98.85 Q61.06 95.75 64.41 94.63 L64.41 94.63 Q65.62 94.20 66.86 93.99 Q68.11 93.77 70.18 93.94 L70.18 93.94 Q72.15 94.20 73.70 94.93 Q75.25 95.66 75.94 96.52 L75.94 96.52 Q77.31 97.90 77.74 99.19 Q78.17 100.48 78.09 101.68 L78.09 101.68 Q77.66 104.44 75.64 107.62 Q73.62 110.80 70.00 112.35 L70.00 112.35 Q68.54 112.95 66.56 113.12 Q64.59 113.29 61.15 112.61 L61.15 112.61 Q59.08 112.18 58.44 113.04 Q57.79 113.90 57.88 116.39 L57.88 116.39 Q58.05 117.94 58.61 119.10 Q59.17 120.26 60.72 120.69 L60.72 120.69 Q62.69 121.03 63.55 120.73 Q64.41 120.43 65.70 119.83 L65.70 119.83 Q66.39 119.40 67.08 118.88 L67.08 118.88 L68.37 117.85 Q68.97 117.34 69.40 117.08 L69.40 117.08 Q69.83 116.73 70.26 116.65 Q70.69 116.56 71.12 116.56 L71.12 116.56 Q72.07 116.65 72.93 117.59 Q73.79 118.54 74.05 119.40 L74.05 119.40 Q74.05 120.09 73.19 121.33 Q72.33 122.58 70.91 123.92 Q69.49 125.25 67.77 126.28 Z M66.65 107.10 L66.65 107.10 Q67.25 106.84 68.41 105.90 Q69.57 104.95 70.52 103.88 Q71.47 102.80 71.47 102.20 L71.47 102.20 Q71.47 101.25 70.22 100.57 Q68.97 99.88 66.99 100.31 L66.99 100.31 Q66.31 100.48 65.36 101.25 Q64.41 102.03 63.47 103.02 Q62.52 104.01 61.83 104.91 Q61.15 105.81 60.89 106.33 L60.89 106.33 Q61.23 106.76 62.26 107.02 Q63.30 107.27 64.54 107.27 Q65.79 107.27 66.65 107.10 Z M96.49 126.28 L96.49 126.28 Q93.91 127.74 91.03 127.96 Q88.15 128.17 85.66 127.18 Q83.16 126.19 81.61 124.22 L81.61 124.22 Q80.75 123.10 79.98 120.65 Q79.21 118.20 79.72 113.98 L79.72 113.98 Q80.24 110.03 82.17 105.98 Q84.11 101.94 86.95 98.85 Q89.78 95.75 93.14 94.63 L93.14 94.63 Q94.34 94.20 95.59 93.99 Q96.84 93.77 98.90 93.94 L98.90 93.94 Q100.88 94.20 102.43 94.93 Q103.97 95.66 104.66 96.52 L104.66 96.52 Q106.04 97.90 106.47 99.19 Q106.90 100.48 106.81 101.68 L106.81 101.68 Q106.38 104.44 104.36 107.62 Q102.34 110.80 98.73 112.35 L98.73 112.35 Q97.27 112.95 95.29 113.12 Q93.31 113.29 89.87 112.61 L89.87 112.61 Q87.81 112.18 87.16 113.04 Q86.52 113.90 86.60 116.39 L86.60 116.39 Q86.77 117.94 87.33 119.10 Q87.89 120.26 89.44 120.69 L89.44 120.69 Q91.42 121.03 92.28 120.73 Q93.14 120.43 94.43 119.83 L94.43 119.83 Q95.12 119.40 95.80 118.88 L95.80 118.88 L97.09 117.85 Q97.70 117.34 98.13 117.08 L98.13 117.08 Q98.56 116.73 98.99 116.65 Q99.42 116.56 99.85 116.56 L99.85 116.56 Q100.79 116.65 101.65 117.59 Q102.51 118.54 102.77 119.40 L102.77 119.40 Q102.77 120.09 101.91 121.33 Q101.05 122.58 99.63 123.92 Q98.21 125.25 96.49 126.28 Z M95.37 107.10 L95.37 107.10 Q95.98 106.84 97.14 105.90 Q98.30 104.95 99.24 103.88 Q100.19 102.80 100.19 102.20 L100.19 102.20 Q100.19 101.25 98.94 100.57 Q97.70 99.88 95.72 100.31 L95.72 100.31 Q95.03 100.48 94.08 101.25 Q93.14 102.03 92.19 103.02 Q91.25 104.01 90.56 104.91 Q89.87 105.81 89.61 106.33 L89.61 106.33 Q89.96 106.76 90.99 107.02 Q92.02 107.27 93.27 107.27 Q94.51 107.27 95.37 107.10 Z M118.42 145.20 L118.42 145.20 Q116.01 146.15 113.39 144.90 Q110.77 143.65 108.88 140.99 L108.88 140.99 Q108.53 140.47 107.84 139.14 Q107.16 137.80 106.51 136.26 Q105.87 134.71 105.56 133.59 Q105.26 132.47 105.52 132.30 L105.52 132.30 Q105.87 131.35 107.07 131.18 Q108.27 131.01 109.48 131.31 Q110.68 131.61 110.85 132.13 L110.85 132.13 Q111.11 132.73 111.37 133.38 Q111.63 134.02 112.01 134.58 Q112.40 135.14 112.75 135.57 L112.75 135.57 Q113.69 137.03 114.81 137.59 Q115.93 138.15 116.53 137.72 L116.53 137.72 Q117.99 136.60 118.72 135.09 Q119.45 133.59 120.66 129.81 L120.66 129.81 Q121.60 126.62 122.29 124.30 Q122.98 121.98 123.75 120.00 L123.75 120.00 Q124.01 118.97 124.44 118.20 L124.44 118.20 Q124.53 118.02 124.61 117.85 L124.61 117.85 Q123.41 118.71 122.46 119.57 L122.46 119.57 Q121.17 120.78 118.94 121.72 L118.94 121.72 Q118.42 122.32 116.40 122.45 Q114.38 122.58 112.49 121.98 L112.49 121.98 Q111.28 121.29 110.55 120.56 Q109.82 119.83 109.35 118.88 Q108.88 117.94 108.36 116.65 L108.36 116.65 Q107.76 115.36 108.19 112.43 Q108.62 109.51 109.74 106.59 L109.74 106.59 Q110.77 104.44 112.75 101.94 Q114.72 99.45 116.96 97.43 Q119.20 95.41 121.00 94.89 L121.00 94.89 Q121.69 94.55 123.41 94.07 Q125.13 93.60 126.68 94.03 L126.68 94.03 Q128.14 94.20 128.91 94.67 Q129.69 95.15 131.41 96.61 L131.41 96.61 Q132.53 97.73 134.16 99.49 Q135.79 101.25 136.22 102.46 L136.22 102.46 Q136.83 103.75 136.48 105.25 Q136.14 106.76 135.28 107.88 L135.28 107.88 Q134.50 108.99 133.64 110.11 Q132.78 111.23 132.35 113.21 L132.35 113.21 Q131.92 115.79 130.72 119.01 Q129.52 122.24 128.83 124.99 L128.83 124.99 L127.45 130.32 Q125.30 137.63 122.72 140.94 Q120.14 144.25 118.42 145.20 Z M116.62 115.62 L116.62 115.62 Q118.34 115.53 119.58 115.23 Q120.83 114.93 121.95 113.85 Q123.07 112.78 124.53 110.54 L124.53 110.54 Q125.99 108.48 126.59 106.76 Q127.19 105.04 127.02 102.89 L127.02 102.89 Q126.94 101.51 126.25 101.08 Q125.56 100.65 124.44 100.82 L124.44 100.82 Q122.81 101.08 121.52 102.16 Q120.23 103.23 118.51 105.47 L118.51 105.47 Q117.22 107.19 116.36 109.60 L116.36 109.60 Q115.50 112.18 115.63 113.72 Q115.76 115.27 116.62 115.62 Z M143.88 138.41 L143.88 138.41 Q143.36 138.75 141.56 137.59 Q139.75 136.43 138.55 135.05 L138.55 135.05 Q137.94 134.36 137.77 133.59 Q137.60 132.82 137.86 130.67 L137.86 130.67 Q138.20 129.72 138.24 128.86 Q138.29 128.00 138.29 127.66 L138.29 127.66 Q138.29 127.14 138.59 125.25 Q138.89 123.36 139.23 121.25 Q139.58 119.14 139.84 118.02 L139.84 118.02 Q139.84 117.94 139.96 117.42 Q140.09 116.91 140.18 116.65 L140.18 116.65 Q140.35 115.87 140.61 114.76 Q140.87 113.64 141.13 111.75 L141.13 111.75 Q141.81 109.60 142.29 107.49 Q142.76 105.38 142.76 104.61 L142.76 104.61 Q142.76 103.06 143.96 102.37 L143.96 102.37 Q144.05 101.94 144.48 101.04 Q144.91 100.14 145.25 99.53 L145.25 99.53 Q146.97 94.63 148.09 91.71 Q149.21 88.78 150.41 86.63 L150.41 86.63 Q150.93 85.17 151.57 83.62 Q152.22 82.08 152.91 81.22 L152.91 81.22 Q153.51 80.01 155.01 78.25 Q156.52 76.49 158.24 74.85 Q159.96 73.22 160.99 72.44 L160.99 72.44 Q162.88 71.50 164.52 70.90 Q166.15 70.29 167.96 70.29 L167.96 70.29 Q169.59 70.29 170.84 71.03 Q172.09 71.76 174.58 73.99 L174.58 73.99 Q175.44 75.11 175.44 76.14 Q175.44 77.17 175.01 77.86 L175.01 77.86 Q174.41 79.24 173.20 81.26 Q172.00 83.28 170.88 84.87 Q169.76 86.46 169.25 86.55 L169.25 86.55 Q168.22 87.15 167.10 86.89 Q165.98 86.63 165.98 85.34 L165.98 85.34 Q165.98 84.74 166.07 84.23 L166.07 84.23 L166.07 83.71 Q166.32 82.59 166.71 81.73 Q167.10 80.87 167.44 80.27 L167.44 80.27 Q168.13 79.15 167.83 78.12 Q167.53 77.09 165.64 77.26 L165.64 77.26 Q165.38 77.43 164.65 78.08 Q163.92 78.72 163.10 79.54 Q162.28 80.36 161.68 81.09 Q161.08 81.82 161.08 82.08 L161.08 82.08 L160.65 82.94 Q160.13 83.88 159.19 85.00 L159.19 85.00 Q158.58 85.86 158.15 86.63 Q157.72 87.41 157.72 87.84 L157.72 87.84 Q157.72 88.18 157.64 88.44 Q157.55 88.70 157.21 88.70 L157.21 88.70 L156.95 89.56 Q156.61 90.42 155.92 91.62 L155.92 91.62 Q155.57 92.48 155.19 93.21 Q154.80 93.94 154.46 94.29 L154.46 94.29 L154.37 94.46 L154.03 95.41 Q153.60 96.44 153.17 97.47 Q152.74 98.50 152.74 98.67 L152.74 98.67 Q152.74 99.02 153.77 99.02 Q154.80 99.02 156.26 98.72 Q157.72 98.42 159.10 98.07 L159.10 98.07 Q160.30 97.73 160.82 97.73 Q161.34 97.73 162.45 98.07 L162.45 98.07 Q163.14 98.50 163.57 99.58 Q164.00 100.65 164.22 101.73 Q164.43 102.80 164.26 103.32 L164.26 103.32 Q164.17 103.66 162.32 104.26 Q160.48 104.87 158.67 105.21 L158.67 105.21 Q157.12 105.55 155.19 105.94 Q153.25 106.33 151.79 106.72 Q150.33 107.10 150.24 107.45 L150.24 107.45 Q149.90 107.45 149.68 107.88 Q149.47 108.31 149.47 108.65 L149.47 108.65 Q149.47 109.77 149.04 110.46 L149.04 110.46 Q148.87 110.97 148.48 112.56 Q148.09 114.15 147.70 116.00 Q147.32 117.85 147.02 119.44 Q146.72 121.03 146.72 121.55 L146.72 121.55 Q146.20 122.15 146.11 123.06 Q146.03 123.96 146.03 124.65 L146.03 124.65 Q145.68 125.33 145.60 125.89 Q145.51 126.45 145.51 126.80 L145.51 126.80 L145.51 127.14 Q145.51 127.40 145.43 127.66 L145.43 127.66 Q145.34 128.52 145.21 129.94 Q145.08 131.35 145.08 132.73 L145.08 132.73 L144.82 135.22 Q144.74 136.34 144.52 137.16 Q144.31 137.98 143.88 138.41 Z M186.02 127.83 L186.02 127.83 Q185.16 126.97 184.64 125.46 Q184.13 123.96 183.61 121.98 L183.61 121.98 Q183.44 121.29 183.48 120.43 Q183.52 119.57 183.44 119.06 L183.44 119.06 Q183.18 119.66 182.62 120.60 Q182.06 121.55 181.55 121.98 L181.55 121.98 Q181.20 122.32 180.00 123.31 Q178.79 124.30 177.59 124.90 L177.59 124.90 Q174.75 126.71 172.56 126.58 Q170.37 126.45 168.73 124.39 L168.73 124.39 Q167.36 123.27 166.50 121.55 Q165.64 119.83 166.15 117.42 L166.15 117.42 Q166.32 114.41 167.01 111.53 Q167.70 108.65 169.85 103.83 L169.85 103.83 Q171.66 100.31 172.60 98.33 Q173.55 96.35 173.81 96.01 L173.81 96.01 Q175.10 95.58 176.99 96.05 Q178.88 96.52 179.05 97.73 L179.05 97.73 Q179.57 98.59 179.05 100.95 Q178.54 103.32 176.99 106.33 L176.99 106.33 Q175.78 109.25 174.71 112.00 Q173.63 114.76 173.42 116.65 Q173.20 118.54 174.41 118.97 L174.41 118.97 Q175.18 119.40 176.69 118.88 Q178.19 118.37 180.26 115.79 Q182.32 113.21 184.64 107.62 L184.64 107.62 Q185.33 105.90 185.67 104.56 Q186.02 103.23 186.10 101.60 L186.10 101.60 Q185.93 100.57 186.66 99.45 Q187.39 98.33 188.43 97.73 L188.43 97.73 Q188.77 97.30 189.37 96.87 L189.37 96.87 Q189.80 96.61 189.97 96.78 L189.97 96.78 Q190.06 96.78 190.15 96.95 L190.15 96.95 L191.52 96.87 Q191.87 96.78 192.30 97.56 Q192.73 98.33 193.16 98.67 L193.16 98.67 Q194.10 99.45 194.02 102.03 Q193.93 104.61 191.95 109.25 L191.95 109.25 Q190.32 112.78 189.76 114.58 Q189.20 116.39 189.11 118.11 L189.11 118.11 Q189.11 119.66 189.37 120.73 Q189.63 121.81 190.92 122.93 L190.92 122.93 Q191.87 123.53 191.99 124.95 Q192.12 126.37 192.04 127.40 L192.04 127.40 Q191.87 128.17 190.70 128.47 Q189.54 128.77 188.21 128.60 Q186.88 128.43 186.02 127.83 Z M197.80 126.54 L197.80 126.54 Q197.11 125.85 196.81 124.47 Q196.51 123.10 196.60 121.77 Q196.68 120.43 197.03 119.74 L197.03 119.74 Q197.03 119.06 197.24 118.67 Q197.46 118.28 197.37 117.94 L197.37 117.94 Q197.28 117.59 197.54 116.73 Q197.80 115.87 198.06 115.10 L198.06 115.10 Q198.66 113.72 199.43 111.53 Q200.21 109.34 200.98 107.06 Q201.76 104.78 202.27 103.10 Q202.79 101.43 202.87 101.08 L202.87 101.08 Q202.87 100.05 204.25 99.96 L204.25 99.96 Q205.28 99.62 206.74 100.82 Q208.21 102.03 209.07 103.40 L209.07 103.40 Q209.75 104.09 209.58 105.21 Q209.41 106.33 208.46 108.39 L208.46 108.39 Q208.12 109.08 207.65 110.67 Q207.17 112.26 207.00 113.29 L207.00 113.29 Q206.66 113.98 206.18 115.23 Q205.71 116.48 205.37 117.59 L205.37 117.59 Q205.20 118.02 205.02 119.19 Q204.85 120.35 204.59 121.55 Q204.34 122.75 203.91 123.44 L203.91 123.44 Q203.13 126.97 201.20 127.57 Q199.26 128.17 197.80 126.54 Z " fill="#1d1c19"></path><defs><mask id="hm2" maskUnits="userSpaceOnUse"><path d="M0,3 C0,-3 -9,-6 -9,-13 C-9,-19 -2,-20 0,-14 C2,-20 9,-19 9,-13 C9,-6 0,-3 0,3 Z" fill="#fff"></path><path d="M-7.5,-8 q2.5,-3.4 5,0 t5,0 t5,0" fill="none" stroke="#000" stroke-width="2.1" stroke-linecap="round"></path></mask></defs><g transform="translate(210.40,95.23) rotate(12) scale(0.940)"><path d="M0,3 C0,-3 -9,-6 -9,-13 C-9,-19 -2,-20 0,-14 C2,-20 9,-19 9,-13 C9,-6 0,-3 0,3 Z" fill="#d23b34" mask="url(#hm2)"></path></g></g></g></svg><path d="M60.45 304.15L58.96 304.15L61.26 295.75L63.77 295.75L66.07 304.15L64.59 304.15L64.08 302.23L60.95 302.23L60.45 304.15ZM62.41 296.65L61.29 300.91L63.75 300.91L62.62 296.65L62.41 296.65Z M75.55 304.15L74.14 304.15L74.14 295.75L76.84 295.75L78.47 303.18L78.68 303.18L80.32 295.75L83.01 295.75L83.01 304.15L81.62 304.15L81.62 296.80L81.41 296.80L79.78 304.15L77.38 304.15L75.75 296.80L75.55 296.80L75.55 304.15Z M93.08 304.15L91.68 304.15L91.68 295.75L94.38 295.75L96.01 303.18L96.21 303.18L97.86 295.75L100.55 295.75L100.55 304.15L99.15 304.15L99.15 296.80L98.95 296.80L97.32 304.15L94.92 304.15L93.29 296.80L93.08 296.80L93.08 304.15Z M114.63 304.15L109.21 304.15L109.21 295.75L114.57 295.75L114.57 297.06L110.67 297.06L110.67 299.27L114.23 299.27L114.23 300.58L110.67 300.58L110.67 302.84L114.63 302.84L114.63 304.15Z M124.34 304.15L122.89 304.15L122.89 295.75L126.47 295.75Q127.27 295.75 127.85 296.03Q128.44 296.30 128.77 296.80Q129.10 297.30 129.10 298.00L129.10 298.00L129.10 298.13Q129.10 298.91 128.73 299.38Q128.36 299.84 127.83 300.06L127.83 300.06L127.83 300.25Q128.30 300.28 128.57 300.58Q128.84 300.88 128.84 301.38L128.84 301.38L128.84 304.15L127.40 304.15L127.40 301.58Q127.40 301.28 127.24 301.10Q127.07 300.91 126.71 300.91L126.71 300.91L124.34 300.91L124.34 304.15ZM124.34 297.06L124.34 299.60L126.33 299.60Q126.95 299.60 127.31 299.27Q127.66 298.94 127.66 298.39L127.66 298.39L127.66 298.28Q127.66 297.72 127.31 297.39Q126.97 297.06 126.33 297.06L126.33 297.06L124.34 297.06Z M140.36 304.32L140.36 304.32Q139.40 304.32 138.66 303.98Q137.93 303.64 137.51 302.99Q137.09 302.34 137.09 301.40L137.09 301.40L137.09 301.09L138.51 301.09L138.51 301.40Q138.51 302.23 139.02 302.64Q139.52 303.05 140.36 303.05L140.36 303.05Q141.21 303.05 141.65 302.70Q142.08 302.35 142.08 301.80L142.08 301.80Q142.08 301.43 141.87 301.19Q141.67 300.96 141.28 300.82Q140.89 300.67 140.34 300.54L140.34 300.54L139.98 300.47Q139.15 300.28 138.54 299.98Q137.94 299.69 137.61 299.22Q137.29 298.75 137.29 298.00L137.29 298.00Q137.29 297.24 137.65 296.70Q138.01 296.16 138.67 295.87Q139.33 295.58 140.22 295.58L140.22 295.58Q141.11 295.58 141.80 295.88Q142.50 296.18 142.90 296.78Q143.30 297.38 143.30 298.28L143.30 298.28L143.30 298.68L141.87 298.68L141.87 298.28Q141.87 297.77 141.67 297.46Q141.47 297.14 141.09 297Q140.72 296.86 140.22 296.86L140.22 296.86Q139.47 296.86 139.09 297.14Q138.71 297.43 138.71 297.96L138.71 297.96Q138.71 298.30 138.88 298.53Q139.05 298.76 139.40 298.91Q139.74 299.06 140.25 299.17L140.25 299.17L140.61 299.26Q141.48 299.45 142.13 299.74Q142.77 300.04 143.14 300.52Q143.51 301.00 143.51 301.76L143.51 301.76Q143.51 302.52 143.12 303.10Q142.73 303.67 142.02 304.00Q141.32 304.32 140.36 304.32Z M157.18 304.15L151.77 304.15L151.77 295.75L157.12 295.75L157.12 297.06L153.22 297.06L153.22 299.27L156.78 299.27L156.78 300.58L153.22 300.58L153.22 302.84L157.18 302.84L157.18 304.15Z M170.85 304.15L165.44 304.15L165.44 295.75L170.79 295.75L170.79 297.06L166.89 297.06L166.89 299.27L170.45 299.27L170.45 300.58L166.89 300.58L166.89 302.84L170.85 302.84L170.85 304.15Z" fill="#2f8a7e"></path></svg>