<svg xmlns="http://www.w3.org/2000/svg" width="1380" height="2040" viewBox="0 0 230 340"><path d="M26.6,15.6 L23.3,9.6 L24.9,5.6 L23.4,3 L19.7,2.1 L14.4,7 L13.1,5.4 L11.2,5.8 L9.4,2 L6.3,1.2 L1.8,-9.1 L-2.9,-41.5 L3.9,-62.7 L2.4,-72.7 L0.6,-75 L-4.9,-74.9 L-12.4,-67.5 L-16.6,-67.1 L-22,-57.2 L-21.6,-53 L-24.3,-47.3 L-23.7,-41.3 L-25.6,-36.4 L-24.6,-30.6 L-25.8,-26.6 L-23.8,-21.8 L-26.6,-12.8 L-26,-9.3 L-22.8,-5.3 L-25.1,0.3 L-23.1,20.5 L-24.3,26.8 L-20.4,36.9 L-20.7,40.6 L-16.7,48.4 L-18.3,54.5 L-17.2,59.2 L-12,60.7 L-10.4,65.3 L-7.5,69.5 L-3,73.5 L2,75 L7,73 L10.5,69.5 L12.3,66.1 L11.7,33.9 L16.2,25.7 L26.6,16.1 Z" fill="none" stroke="#2f8a7e" stroke-opacity="0.32" stroke-width="0.90" stroke-linejoin="round" stroke-linecap="round" transform="translate(115 180) rotate(0) scale(2.00000) translate(5.71 0.00)"></path><path d="M52.86 69.07L48.63 69.07L48.63 46.67L58.36 46.67Q60.47 46.67 62.04 47.41Q63.61 48.14 64.47 49.49Q65.34 50.83 65.34 52.66L65.34 52.66L65.34 53.04Q65.34 55.06 64.38 56.30Q63.42 57.55 62.01 58.13L62.01 58.13L62.01 58.70Q63.29 58.77 63.99 59.58Q64.70 60.40 64.70 61.74L64.70 61.74L64.70 69.07L60.47 69.07L60.47 62.35Q60.47 61.58 60.07 61.10Q59.67 60.62 58.74 60.62L58.74 60.62L52.86 60.62L52.86 69.07ZM52.86 50.51L52.86 56.78L57.91 56.78Q59.42 56.78 60.26 55.97Q61.11 55.15 61.11 53.81L61.11 53.81L61.11 53.49Q61.11 52.14 60.28 51.33Q59.45 50.51 57.91 50.51L57.91 50.51L52.86 50.51Z M73.02 69.07L68.98 69.07L68.98 53.20L73.02 53.20L73.02 69.07ZM71.00 51.34L71.00 51.34Q69.91 51.34 69.16 50.64Q68.41 49.94 68.41 48.78L68.41 48.78Q68.41 47.63 69.16 46.93Q69.91 46.22 71.00 46.22L71.00 46.22Q72.12 46.22 72.86 46.93Q73.59 47.63 73.59 48.78L73.59 48.78Q73.59 49.94 72.86 50.64Q72.12 51.34 71.00 51.34Z M84.73 69.52L84.73 69.52Q82.36 69.52 80.55 68.51Q78.74 67.50 77.74 65.66Q76.73 63.82 76.73 61.33L76.73 61.33L76.73 60.94Q76.73 58.45 77.72 56.61Q78.71 54.77 80.50 53.76Q82.30 52.75 84.66 52.75L84.66 52.75Q87.00 52.75 88.73 53.79Q90.46 54.83 91.42 56.67Q92.38 58.51 92.38 60.94L92.38 60.94L92.38 62.32L80.82 62.32Q80.89 63.95 82.04 64.98Q83.19 66 84.86 66L84.86 66Q86.55 66 87.35 65.26Q88.15 64.53 88.57 63.63L88.57 63.63L91.86 65.36Q91.42 66.19 90.57 67.17Q89.72 68.14 88.31 68.83Q86.90 69.52 84.73 69.52ZM80.86 59.31L80.86 59.31L88.28 59.31Q88.15 57.94 87.18 57.10Q86.20 56.27 84.63 56.27L84.63 56.27Q83.00 56.27 82.04 57.10Q81.08 57.94 80.86 59.31Z M102.36 69.52L102.36 69.52Q100.47 69.52 98.82 68.58Q97.18 67.63 96.18 65.81Q95.19 63.98 95.19 61.39L95.19 61.39L95.19 60.88Q95.19 58.29 96.18 56.46Q97.18 54.64 98.81 53.70Q100.44 52.75 102.36 52.75L102.36 52.75Q103.80 52.75 104.78 53.09Q105.75 53.42 106.36 53.94Q106.97 54.45 107.29 55.02L107.29 55.02L107.86 55.02L107.86 46.67L111.90 46.67L111.90 69.07L107.93 69.07L107.93 67.15L107.35 67.15Q106.81 68.05 105.67 68.78Q104.54 69.52 102.36 69.52ZM103.58 66L103.58 66Q105.43 66 106.68 64.80Q107.93 63.60 107.93 61.30L107.93 61.30L107.93 60.98Q107.93 58.67 106.70 57.47Q105.46 56.27 103.58 56.27L103.58 56.27Q101.72 56.27 100.47 57.47Q99.22 58.67 99.22 60.98L99.22 60.98L99.22 61.30Q99.22 63.60 100.47 64.80Q101.72 66 103.58 66Z M123.61 69.52L123.61 69.52Q121.24 69.52 119.43 68.51Q117.62 67.50 116.62 65.66Q115.61 63.82 115.61 61.33L115.61 61.33L115.61 60.94Q115.61 58.45 116.60 56.61Q117.59 54.77 119.38 53.76Q121.18 52.75 123.54 52.75L123.54 52.75Q125.88 52.75 127.61 53.79Q129.34 54.83 130.30 56.67Q131.26 58.51 131.26 60.94L131.26 60.94L131.26 62.32L119.70 62.32Q119.77 63.95 120.92 64.98Q122.07 66 123.74 66L123.74 66Q125.43 66 126.23 65.26Q127.03 64.53 127.45 63.63L127.45 63.63L130.74 65.36Q130.30 66.19 129.45 67.17Q128.60 68.14 127.19 68.83Q125.78 69.52 123.61 69.52ZM119.74 59.31L119.74 59.31L127.16 59.31Q127.03 57.94 126.06 57.10Q125.08 56.27 123.51 56.27L123.51 56.27Q121.88 56.27 120.92 57.10Q119.96 57.94 119.74 59.31Z M138.87 69.07L134.84 69.07L134.84 53.20L138.81 53.20L138.81 54.99L139.38 54.99Q139.74 54.03 140.55 53.58Q141.37 53.14 142.46 53.14L142.46 53.14L144.38 53.14L144.38 56.72L142.39 56.72Q140.86 56.72 139.86 57.54Q138.87 58.35 138.87 60.05L138.87 60.05L138.87 69.07Z M152.44 69.52L152.44 69.52Q150.74 69.52 149.40 68.93Q148.06 68.34 147.27 67.20Q146.49 66.06 146.49 64.43L146.49 64.43Q146.49 62.80 147.27 61.70Q148.06 60.59 149.45 60.03Q150.84 59.47 152.63 59.47L152.63 59.47L156.98 59.47L156.98 58.58Q156.98 57.46 156.28 56.74Q155.58 56.02 154.04 56.02L154.04 56.02Q152.54 56.02 151.80 56.70Q151.06 57.39 150.84 58.48L150.84 58.48L147.13 57.23Q147.51 56.02 148.36 55.01Q149.21 54 150.63 53.38Q152.06 52.75 154.10 52.75L154.10 52.75Q157.24 52.75 159.06 54.32Q160.89 55.89 160.89 58.86L160.89 58.86L160.89 64.78Q160.89 65.74 161.78 65.74L161.78 65.74L163.06 65.74L163.06 69.07L160.38 69.07Q159.19 69.07 158.42 68.50Q157.66 67.92 157.66 66.96L157.66 66.96L157.66 66.93L157.05 66.93Q156.92 67.31 156.47 67.94Q156.02 68.56 155.06 69.04Q154.10 69.52 152.44 69.52ZM153.14 66.26L153.14 66.26Q154.84 66.26 155.91 65.31Q156.98 64.37 156.98 62.80L156.98 62.80L156.98 62.48L152.92 62.48Q151.80 62.48 151.16 62.96Q150.52 63.44 150.52 64.30L150.52 64.30Q150.52 65.17 151.19 65.71Q151.86 66.26 153.14 66.26Z M172.06 69.33L172.06 69.33Q170.20 69.33 168.81 68.48Q167.42 67.63 166.65 66.13Q165.88 64.62 165.88 62.67L165.88 62.67L165.88 53.20L169.91 53.20L169.91 62.35Q169.91 64.14 170.79 65.04Q171.67 65.94 173.30 65.94L173.30 65.94Q175.16 65.94 176.18 64.70Q177.21 63.47 177.21 61.26L177.21 61.26L177.21 53.20L181.24 53.20L181.24 69.07L177.27 69.07L177.27 66.99L176.70 66.99Q176.31 67.79 175.26 68.56Q174.20 69.33 172.06 69.33Z" fill="#1d1c19"></path><path d="M62.03 89.88L62.03 89.88Q61.23 89.88 60.56 89.49Q59.88 89.10 59.47 88.37Q59.06 87.63 59.06 86.59L59.06 86.59L59.06 86.40Q59.06 85.37 59.46 84.63Q59.87 83.89 60.54 83.50Q61.22 83.11 62.03 83.11L62.03 83.11Q62.65 83.11 63.07 83.26Q63.49 83.42 63.77 83.66Q64.04 83.90 64.18 84.16L64.18 84.16L64.39 84.16L64.39 80.60L65.73 80.60L65.73 89.70L64.42 89.70L64.42 88.79L64.21 88.79Q63.96 89.20 63.46 89.54Q62.96 89.88 62.03 89.88ZM62.40 88.71L62.40 88.71Q63.27 88.71 63.84 88.15Q64.40 87.59 64.40 86.55L64.40 86.55L64.40 86.44Q64.40 85.41 63.85 84.85Q63.29 84.29 62.40 84.29L62.40 84.29Q61.54 84.29 60.98 84.85Q60.41 85.41 60.41 86.44L60.41 86.44L60.41 86.55Q60.41 87.59 60.98 88.15Q61.54 88.71 62.40 88.71Z M70.70 89.88L70.70 89.88Q70.01 89.88 69.47 89.65Q68.93 89.41 68.61 88.96Q68.29 88.50 68.29 87.85L68.29 87.85Q68.29 87.19 68.61 86.75Q68.93 86.32 69.48 86.10Q70.03 85.88 70.73 85.88L70.73 85.88L72.68 85.88L72.68 85.46Q72.68 84.90 72.35 84.56Q72.01 84.23 71.31 84.23L71.31 84.23Q70.62 84.23 70.25 84.55Q69.89 84.88 69.77 85.40L69.77 85.40L68.52 84.99Q68.68 84.47 69.02 84.05Q69.37 83.63 69.94 83.37Q70.51 83.11 71.32 83.11L71.32 83.11Q72.57 83.11 73.28 83.74Q74.00 84.38 74.00 85.55L74.00 85.55L74.00 88.19Q74.00 88.58 74.36 88.58L74.36 88.58L74.91 88.58L74.91 89.70L73.91 89.70Q73.45 89.70 73.17 89.46Q72.88 89.23 72.88 88.83L72.88 88.83L72.88 88.79L72.68 88.79Q72.58 88.98 72.37 89.24Q72.16 89.50 71.76 89.69Q71.36 89.88 70.70 89.88ZM70.89 88.78L70.89 88.78Q71.70 88.78 72.19 88.31Q72.68 87.85 72.68 87.05L72.68 87.05L72.68 86.92L70.81 86.92Q70.28 86.92 69.95 87.14Q69.63 87.37 69.63 87.81L69.63 87.81Q69.63 88.26 69.97 88.52Q70.31 88.78 70.89 88.78Z  M85.23 89.88L85.23 89.88Q84.29 89.88 83.79 89.54Q83.29 89.20 83.04 88.79L83.04 88.79L82.84 88.79L82.84 89.70L81.52 89.70L81.52 80.60L82.86 80.60L82.86 84.16L83.07 84.16Q83.23 83.90 83.49 83.66Q83.75 83.42 84.17 83.26Q84.60 83.11 85.23 83.11L85.23 83.11Q86.03 83.11 86.71 83.50Q87.39 83.89 87.79 84.63Q88.19 85.37 88.19 86.40L88.19 86.40L88.19 86.59Q88.19 87.63 87.78 88.37Q87.37 89.10 86.70 89.49Q86.03 89.88 85.23 89.88ZM84.84 88.71L84.84 88.71Q85.71 88.71 86.27 88.15Q86.84 87.59 86.84 86.55L86.84 86.55L86.84 86.44Q86.84 85.41 86.28 84.85Q85.72 84.29 84.84 84.29L84.84 84.29Q83.98 84.29 83.41 84.85Q82.85 85.41 82.85 86.44L82.85 86.44L82.85 86.55Q82.85 87.59 83.41 88.15Q83.98 88.71 84.84 88.71Z M92.19 89.70L90.86 89.70L90.86 83.29L92.19 83.29L92.19 89.70ZM91.53 82.42L91.53 82.42Q91.14 82.42 90.87 82.16Q90.61 81.91 90.61 81.51L90.61 81.51Q90.61 81.11 90.87 80.85Q91.14 80.60 91.53 80.60L91.53 80.60Q91.93 80.60 92.19 80.85Q92.45 81.11 92.45 81.51L92.45 81.51Q92.45 81.91 92.19 82.16Q91.93 82.42 91.53 82.42Z M96.52 89.70L95.18 89.70L95.18 83.29L96.50 83.29L96.50 84.25L96.70 84.25Q96.89 83.86 97.35 83.52Q97.82 83.19 98.75 83.19L98.75 83.19Q99.47 83.19 100.04 83.51Q100.60 83.84 100.93 84.43Q101.25 85.02 101.25 85.85L101.25 85.85L101.25 89.70L99.92 89.70L99.92 85.95Q99.92 85.12 99.50 84.73Q99.08 84.33 98.36 84.33L98.36 84.33Q97.52 84.33 97.02 84.88Q96.52 85.42 96.52 86.46L96.52 86.46L96.52 89.70Z  M109.83 89.70L108.49 89.70L108.49 83.29L109.83 83.29L109.83 89.70ZM109.17 82.42L109.17 82.42Q108.78 82.42 108.51 82.16Q108.25 81.91 108.25 81.51L108.25 81.51Q108.25 81.11 108.51 80.85Q108.78 80.60 109.17 80.60L109.17 80.60Q109.57 80.60 109.83 80.85Q110.09 81.11 110.09 81.51L110.09 81.51Q110.09 81.91 109.83 82.16Q109.57 82.42 109.17 82.42Z  M119.79 89.88L119.79 89.88Q119.00 89.88 118.32 89.49Q117.64 89.10 117.23 88.37Q116.82 87.63 116.82 86.59L116.82 86.59L116.82 86.40Q116.82 85.37 117.23 84.63Q117.63 83.89 118.31 83.50Q118.98 83.11 119.79 83.11L119.79 83.11Q120.41 83.11 120.83 83.26Q121.26 83.42 121.53 83.66Q121.80 83.90 121.95 84.16L121.95 84.16L122.15 84.16L122.15 80.60L123.49 80.60L123.49 89.70L122.18 89.70L122.18 88.79L121.97 88.79Q121.73 89.20 121.22 89.54Q120.72 89.88 119.79 89.88ZM120.17 88.71L120.17 88.71Q121.04 88.71 121.60 88.15Q122.17 87.59 122.17 86.55L122.17 86.55L122.17 86.44Q122.17 85.41 121.61 84.85Q121.05 84.29 120.17 84.29L120.17 84.29Q119.31 84.29 118.74 84.85Q118.18 85.41 118.18 86.44L118.18 86.44L118.18 86.55Q118.18 87.59 118.74 88.15Q119.31 88.71 120.17 88.71Z M128.46 89.88L128.46 89.88Q127.77 89.88 127.23 89.65Q126.69 89.41 126.37 88.96Q126.05 88.50 126.05 87.85L126.05 87.85Q126.05 87.19 126.37 86.75Q126.69 86.32 127.24 86.10Q127.80 85.88 128.50 85.88L128.50 85.88L130.45 85.88L130.45 85.46Q130.45 84.90 130.11 84.56Q129.77 84.23 129.07 84.23L129.07 84.23Q128.38 84.23 128.02 84.55Q127.65 84.88 127.54 85.40L127.54 85.40L126.29 84.99Q126.44 84.47 126.79 84.05Q127.13 83.63 127.70 83.37Q128.28 83.11 129.08 83.11L129.08 83.11Q130.33 83.11 131.05 83.74Q131.76 84.38 131.76 85.55L131.76 85.55L131.76 88.19Q131.76 88.58 132.12 88.58L132.12 88.58L132.67 88.58L132.67 89.70L131.67 89.70Q131.21 89.70 130.93 89.46Q130.64 89.23 130.64 88.83L130.64 88.83L130.64 88.79L130.45 88.79Q130.34 88.98 130.14 89.24Q129.93 89.50 129.52 89.69Q129.12 89.88 128.46 89.88ZM128.65 88.78L128.65 88.78Q129.46 88.78 129.95 88.31Q130.45 87.85 130.45 87.05L130.45 87.05L130.45 86.92L128.58 86.92Q128.04 86.92 127.72 87.14Q127.39 87.37 127.39 87.81L127.39 87.81Q127.39 88.26 127.73 88.52Q128.07 88.78 128.65 88.78Z M136.31 89.70L134.97 89.70L134.97 80.60L136.31 80.60L136.31 84.20L136.52 84.20Q136.65 83.95 136.89 83.72Q137.13 83.48 137.52 83.33Q137.92 83.19 138.53 83.19L138.53 83.19Q139.26 83.19 139.83 83.51Q140.39 83.84 140.72 84.43Q141.04 85.02 141.04 85.85L141.04 85.85L141.04 89.70L139.70 89.70L139.70 85.95Q139.70 85.12 139.29 84.73Q138.87 84.33 138.14 84.33L138.14 84.33Q137.31 84.33 136.81 84.88Q136.31 85.42 136.31 86.46L136.31 86.46L136.31 89.70Z M146.97 89.88L146.97 89.88Q146.01 89.88 145.26 89.48Q144.51 89.09 144.08 88.35Q143.65 87.61 143.65 86.59L143.65 86.59L143.65 86.40Q143.65 85.38 144.08 84.65Q144.51 83.91 145.26 83.51Q146.01 83.11 146.97 83.11L146.97 83.11Q147.93 83.11 148.68 83.51Q149.44 83.91 149.87 84.65Q150.30 85.38 150.30 86.40L150.30 86.40L150.30 86.59Q150.30 87.61 149.87 88.35Q149.44 89.09 148.68 89.48Q147.93 89.88 146.97 89.88ZM146.97 88.68L146.97 88.68Q147.85 88.68 148.41 88.12Q148.96 87.55 148.96 86.55L148.96 86.55L148.96 86.44Q148.96 85.43 148.41 84.87Q147.87 84.30 146.97 84.30L146.97 84.30Q146.10 84.30 145.54 84.87Q144.99 85.43 144.99 86.44L144.99 86.44L144.99 86.55Q144.99 87.55 145.54 88.12Q146.10 88.68 146.97 88.68Z M154.95 89.88L154.95 89.88Q154.26 89.88 153.72 89.65Q153.18 89.41 152.86 88.96Q152.54 88.50 152.54 87.85L152.54 87.85Q152.54 87.19 152.86 86.75Q153.18 86.32 153.73 86.10Q154.29 85.88 154.99 85.88L154.99 85.88L156.94 85.88L156.94 85.46Q156.94 84.90 156.60 84.56Q156.26 84.23 155.56 84.23L155.56 84.23Q154.87 84.23 154.51 84.55Q154.14 84.88 154.03 85.40L154.03 85.40L152.78 84.99Q152.93 84.47 153.28 84.05Q153.62 83.63 154.20 83.37Q154.77 83.11 155.57 83.11L155.57 83.11Q156.82 83.11 157.54 83.74Q158.25 84.38 158.25 85.55L158.25 85.55L158.25 88.19Q158.25 88.58 158.62 88.58L158.62 88.58L159.16 88.58L159.16 89.70L158.16 89.70Q157.71 89.70 157.42 89.46Q157.13 89.23 157.13 88.83L157.13 88.83L157.13 88.79L156.94 88.79Q156.83 88.98 156.63 89.24Q156.42 89.50 156.02 89.69Q155.61 89.88 154.95 89.88ZM155.14 88.78L155.14 88.78Q155.95 88.78 156.44 88.31Q156.94 87.85 156.94 87.05L156.94 87.05L156.94 86.92L155.07 86.92Q154.53 86.92 154.21 87.14Q153.88 87.37 153.88 87.81L153.88 87.81Q153.88 88.26 154.22 88.52Q154.56 88.78 155.14 88.78Z M162.80 89.70L161.46 89.70L161.46 83.29L162.77 83.29L162.77 84.04L162.98 84.04Q163.16 83.71 163.57 83.45Q163.97 83.19 164.66 83.19L164.66 83.19Q165.37 83.19 165.81 83.48Q166.25 83.77 166.47 84.23L166.47 84.23L166.67 84.23Q166.90 83.78 167.32 83.48Q167.74 83.19 168.52 83.19L168.52 83.19Q169.14 83.19 169.63 83.44Q170.11 83.69 170.39 84.19Q170.68 84.69 170.68 85.43L170.68 85.43L170.68 89.70L169.34 89.70L169.34 85.54Q169.34 84.95 169.02 84.63Q168.70 84.32 168.12 84.32L168.12 84.32Q167.49 84.32 167.12 84.72Q166.74 85.12 166.74 85.88L166.74 85.88L166.74 89.70L165.40 89.70L165.40 85.54Q165.40 84.95 165.08 84.63Q164.76 84.32 164.18 84.32L164.18 84.32Q163.55 84.32 163.18 84.72Q162.80 85.12 162.80 85.88L162.80 85.88L162.80 89.70Z" fill="#1d1c19" fill-opacity="0.7"></path><circle cx="93.0" cy="276.8" r="7.5" fill="#fff"></circle><circle cx="93.0" cy="276.8" r="7.5" fill="none" stroke="#2f8a7e" stroke-width="2"></circle><circle cx="93.0" cy="276.8" r="3.6" fill="#2f8a7e"></circle><svg x="25.43" y="163.00" width="175.14" height="90.00" viewBox="0 0 360 185" overflow="visible"><g fill="#1d1c19"><g transform="translate(64.98,0)"><path d="M22.88 133.59 L22.88 133.59 Q21.33 133.16 20.38 132.82 L20.38 132.82 L19.44 132.56 Q19.61 132.13 19.31 131.78 Q19.01 131.44 18.06 131.35 L18.06 131.35 Q16.77 130.49 15.39 128.95 Q14.02 127.40 12.99 125.76 Q11.95 124.13 11.61 123.36 L11.61 123.36 Q11.18 122.32 11.44 121.98 L11.44 121.98 Q11.52 121.81 11.70 121.72 L11.70 121.72 Q12.38 121.46 13.33 121.03 L13.33 121.03 Q14.28 120.35 15.35 120.00 Q16.43 119.66 17.11 121.12 L17.11 121.12 Q18.23 123.10 20.60 124.47 Q22.96 125.85 26.02 126.11 Q29.07 126.37 32.16 125.08 L32.16 125.08 Q34.23 124.13 34.40 122.45 Q34.57 120.78 33.11 118.54 L33.11 118.54 Q32.85 117.85 32.38 117.42 Q31.91 116.99 31.00 116.30 Q30.10 115.62 28.47 114.07 L28.47 114.07 Q27.18 113.47 26.10 112.95 Q25.03 112.43 23.82 111.83 L23.82 111.83 Q22.45 111.14 20.73 109.90 Q19.01 108.65 17.54 107.14 Q16.08 105.64 15.31 104.26 L15.31 104.26 Q13.93 102.97 13.59 100.69 Q13.24 98.42 13.72 95.84 Q14.19 93.26 15.31 91.19 L15.31 91.19 Q15.82 89.99 17.20 88.05 Q18.58 86.12 20.30 84.05 Q22.02 81.99 23.61 80.31 Q25.20 78.64 26.14 78.03 L26.14 78.03 Q26.83 77.35 27.61 76.57 L27.61 76.57 L28.38 75.88 Q28.47 75.45 28.72 75.45 L28.72 75.45 L28.90 75.45 Q29.33 75.20 30.79 74.59 Q32.25 73.99 33.97 72.36 L33.97 72.36 Q39.73 69.61 43.77 68.62 Q47.82 67.63 50.14 67.63 L50.14 67.63 Q52.29 67.71 54.35 68.79 Q56.42 69.86 57.92 71.50 Q59.43 73.13 59.68 75.20 L59.68 75.20 Q60.29 77.26 59.13 80.14 Q57.96 83.02 55.94 85.56 Q53.92 88.10 51.77 89.30 L51.77 89.30 Q49.36 90.33 47.69 89.56 Q46.01 88.78 46.10 87.15 L46.10 87.15 Q46.10 86.46 46.57 85.52 Q47.04 84.57 49.19 82.16 L49.19 82.16 Q51.94 78.12 52.12 76.40 Q52.29 74.68 50.57 74.42 L50.57 74.42 Q50.05 74.25 48.59 74.51 Q47.13 74.77 45.45 75.15 Q43.77 75.54 42.53 75.97 Q41.28 76.40 41.28 76.57 L41.28 76.57 L41.28 76.83 Q41.28 76.92 41.19 77.00 L41.19 77.00 Q41.19 77.09 40.94 77.00 L40.94 77.00 Q40.76 77.00 39.78 77.56 Q38.79 78.12 37.41 78.98 Q36.03 79.84 34.70 80.74 Q33.37 81.65 32.42 82.33 Q31.48 83.02 31.39 83.19 L31.39 83.19 Q31.22 84.14 29.41 84.91 L29.41 84.91 Q27.69 85.95 26.40 87.84 Q25.11 89.73 23.39 92.65 L23.39 92.65 Q21.93 94.63 21.33 96.91 Q20.73 99.19 21.33 100.57 L21.33 100.57 Q21.76 101.94 23.69 103.28 Q25.63 104.61 28.98 106.59 L28.98 106.59 Q31.91 108.22 34.49 110.03 Q37.07 111.83 38.87 113.51 Q40.68 115.19 41.19 116.30 L41.19 116.30 Q42.23 117.77 42.44 119.66 Q42.66 121.55 42.44 123.31 Q42.23 125.08 41.88 126.19 L41.88 126.19 Q41.28 127.57 40.03 129.12 Q38.79 130.67 37.75 130.58 L37.75 130.58 Q36.81 130.84 36.34 131.18 Q35.86 131.53 35.26 131.78 L35.26 131.78 Q34.66 132.13 32.42 132.60 Q30.19 133.07 27.52 133.38 Q24.85 133.68 22.88 133.59 Z M67.77 126.28 L67.77 126.28 Q65.19 127.74 62.31 127.96 Q59.43 128.17 56.93 127.18 Q54.44 126.19 52.89 124.22 L52.89 124.22 Q52.03 123.10 51.26 120.65 Q50.48 118.20 51.00 113.98 L51.00 113.98 Q51.51 110.03 53.45 105.98 Q55.38 101.94 58.22 98.85 Q61.06 95.75 64.41 94.63 L64.41 94.63 Q65.62 94.20 66.86 93.99 Q68.11 93.77 70.18 93.94 L70.18 93.94 Q72.15 94.20 73.70 94.93 Q75.25 95.66 75.94 96.52 L75.94 96.52 Q77.31 97.90 77.74 99.19 Q78.17 100.48 78.09 101.68 L78.09 101.68 Q77.66 104.44 75.64 107.62 Q73.62 110.80 70.00 112.35 L70.00 112.35 Q68.54 112.95 66.56 113.12 Q64.59 113.29 61.15 112.61 L61.15 112.61 Q59.08 112.18 58.44 113.04 Q57.79 113.90 57.88 116.39 L57.88 116.39 Q58.05 117.94 58.61 119.10 Q59.17 120.26 60.72 120.69 L60.72 120.69 Q62.69 121.03 63.55 120.73 Q64.41 120.43 65.70 119.83 L65.70 119.83 Q66.39 119.40 67.08 118.88 L67.08 118.88 L68.37 117.85 Q68.97 117.34 69.40 117.08 L69.40 117.08 Q69.83 116.73 70.26 116.65 Q70.69 116.56 71.12 116.56 L71.12 116.56 Q72.07 116.65 72.93 117.59 Q73.79 118.54 74.05 119.40 L74.05 119.40 Q74.05 120.09 73.19 121.33 Q72.33 122.58 70.91 123.92 Q69.49 125.25 67.77 126.28 Z M66.65 107.10 L66.65 107.10 Q67.25 106.84 68.41 105.90 Q69.57 104.95 70.52 103.88 Q71.47 102.80 71.47 102.20 L71.47 102.20 Q71.47 101.25 70.22 100.57 Q68.97 99.88 66.99 100.31 L66.99 100.31 Q66.31 100.48 65.36 101.25 Q64.41 102.03 63.47 103.02 Q62.52 104.01 61.83 104.91 Q61.15 105.81 60.89 106.33 L60.89 106.33 Q61.23 106.76 62.26 107.02 Q63.30 107.27 64.54 107.27 Q65.79 107.27 66.65 107.10 Z M96.49 126.28 L96.49 126.28 Q93.91 127.74 91.03 127.96 Q88.15 128.17 85.66 127.18 Q83.16 126.19 81.61 124.22 L81.61 124.22 Q80.75 123.10 79.98 120.65 Q79.21 118.20 79.72 113.98 L79.72 113.98 Q80.24 110.03 82.17 105.98 Q84.11 101.94 86.95 98.85 Q89.78 95.75 93.14 94.63 L93.14 94.63 Q94.34 94.20 95.59 93.99 Q96.84 93.77 98.90 93.94 L98.90 93.94 Q100.88 94.20 102.43 94.93 Q103.97 95.66 104.66 96.52 L104.66 96.52 Q106.04 97.90 106.47 99.19 Q106.90 100.48 106.81 101.68 L106.81 101.68 Q106.38 104.44 104.36 107.62 Q102.34 110.80 98.73 112.35 L98.73 112.35 Q97.27 112.95 95.29 113.12 Q93.31 113.29 89.87 112.61 L89.87 112.61 Q87.81 112.18 87.16 113.04 Q86.52 113.90 86.60 116.39 L86.60 116.39 Q86.77 117.94 87.33 119.10 Q87.89 120.26 89.44 120.69 L89.44 120.69 Q91.42 121.03 92.28 120.73 Q93.14 120.43 94.43 119.83 L94.43 119.83 Q95.12 119.40 95.80 118.88 L95.80 118.88 L97.09 117.85 Q97.70 117.34 98.13 117.08 L98.13 117.08 Q98.56 116.73 98.99 116.65 Q99.42 116.56 99.85 116.56 L99.85 116.56 Q100.79 116.65 101.65 117.59 Q102.51 118.54 102.77 119.40 L102.77 119.40 Q102.77 120.09 101.91 121.33 Q101.05 122.58 99.63 123.92 Q98.21 125.25 96.49 126.28 Z M95.37 107.10 L95.37 107.10 Q95.98 106.84 97.14 105.90 Q98.30 104.95 99.24 103.88 Q100.19 102.80 100.19 102.20 L100.19 102.20 Q100.19 101.25 98.94 100.57 Q97.70 99.88 95.72 100.31 L95.72 100.31 Q95.03 100.48 94.08 101.25 Q93.14 102.03 92.19 103.02 Q91.25 104.01 90.56 104.91 Q89.87 105.81 89.61 106.33 L89.61 106.33 Q89.96 106.76 90.99 107.02 Q92.02 107.27 93.27 107.27 Q94.51 107.27 95.37 107.10 Z M118.42 145.20 L118.42 145.20 Q116.01 146.15 113.39 144.90 Q110.77 143.65 108.88 140.99 L108.88 140.99 Q108.53 140.47 107.84 139.14 Q107.16 137.80 106.51 136.26 Q105.87 134.71 105.56 133.59 Q105.26 132.47 105.52 132.30 L105.52 132.30 Q105.87 131.35 107.07 131.18 Q108.27 131.01 109.48 131.31 Q110.68 131.61 110.85 132.13 L110.85 132.13 Q111.11 132.73 111.37 133.38 Q111.63 134.02 112.01 134.58 Q112.40 135.14 112.75 135.57 L112.75 135.57 Q113.69 137.03 114.81 137.59 Q115.93 138.15 116.53 137.72 L116.53 137.72 Q117.99 136.60 118.72 135.09 Q119.45 133.59 120.66 129.81 L120.66 129.81 Q121.60 126.62 122.29 124.30 Q122.98 121.98 123.75 120.00 L123.75 120.00 Q124.01 118.97 124.44 118.20 L124.44 118.20 Q124.53 118.02 124.61 117.85 L124.61 117.85 Q123.41 118.71 122.46 119.57 L122.46 119.57 Q121.17 120.78 118.94 121.72 L118.94 121.72 Q118.42 122.32 116.40 122.45 Q114.38 122.58 112.49 121.98 L112.49 121.98 Q111.28 121.29 110.55 120.56 Q109.82 119.83 109.35 118.88 Q108.88 117.94 108.36 116.65 L108.36 116.65 Q107.76 115.36 108.19 112.43 Q108.62 109.51 109.74 106.59 L109.74 106.59 Q110.77 104.44 112.75 101.94 Q114.72 99.45 116.96 97.43 Q119.20 95.41 121.00 94.89 L121.00 94.89 Q121.69 94.55 123.41 94.07 Q125.13 93.60 126.68 94.03 L126.68 94.03 Q128.14 94.20 128.91 94.67 Q129.69 95.15 131.41 96.61 L131.41 96.61 Q132.53 97.73 134.16 99.49 Q135.79 101.25 136.22 102.46 L136.22 102.46 Q136.83 103.75 136.48 105.25 Q136.14 106.76 135.28 107.88 L135.28 107.88 Q134.50 108.99 133.64 110.11 Q132.78 111.23 132.35 113.21 L132.35 113.21 Q131.92 115.79 130.72 119.01 Q129.52 122.24 128.83 124.99 L128.83 124.99 L127.45 130.32 Q125.30 137.63 122.72 140.94 Q120.14 144.25 118.42 145.20 Z M116.62 115.62 L116.62 115.62 Q118.34 115.53 119.58 115.23 Q120.83 114.93 121.95 113.85 Q123.07 112.78 124.53 110.54 L124.53 110.54 Q125.99 108.48 126.59 106.76 Q127.19 105.04 127.02 102.89 L127.02 102.89 Q126.94 101.51 126.25 101.08 Q125.56 100.65 124.44 100.82 L124.44 100.82 Q122.81 101.08 121.52 102.16 Q120.23 103.23 118.51 105.47 L118.51 105.47 Q117.22 107.19 116.36 109.60 L116.36 109.60 Q115.50 112.18 115.63 113.72 Q115.76 115.27 116.62 115.62 Z M143.88 138.41 L143.88 138.41 Q143.36 138.75 141.56 137.59 Q139.75 136.43 138.55 135.05 L138.55 135.05 Q137.94 134.36 137.77 133.59 Q137.60 132.82 137.86 130.67 L137.86 130.67 Q138.20 129.72 138.24 128.86 Q138.29 128.00 138.29 127.66 L138.29 127.66 Q138.29 127.14 138.59 125.25 Q138.89 123.36 139.23 121.25 Q139.58 119.14 139.84 118.02 L139.84 118.02 Q139.84 117.94 139.96 117.42 Q140.09 116.91 140.18 116.65 L140.18 116.65 Q140.35 115.87 140.61 114.76 Q140.87 113.64 141.13 111.75 L141.13 111.75 Q141.81 109.60 142.29 107.49 Q142.76 105.38 142.76 104.61 L142.76 104.61 Q142.76 103.06 143.96 102.37 L143.96 102.37 Q144.05 101.94 144.48 101.04 Q144.91 100.14 145.25 99.53 L145.25 99.53 Q146.97 94.63 148.09 91.71 Q149.21 88.78 150.41 86.63 L150.41 86.63 Q150.93 85.17 151.57 83.62 Q152.22 82.08 152.91 81.22 L152.91 81.22 Q153.51 80.01 155.01 78.25 Q156.52 76.49 158.24 74.85 Q159.96 73.22 160.99 72.44 L160.99 72.44 Q162.88 71.50 164.52 70.90 Q166.15 70.29 167.96 70.29 L167.96 70.29 Q169.59 70.29 170.84 71.03 Q172.09 71.76 174.58 73.99 L174.58 73.99 Q175.44 75.11 175.44 76.14 Q175.44 77.17 175.01 77.86 L175.01 77.86 Q174.41 79.24 173.20 81.26 Q172.00 83.28 170.88 84.87 Q169.76 86.46 169.25 86.55 L169.25 86.55 Q168.22 87.15 167.10 86.89 Q165.98 86.63 165.98 85.34 L165.98 85.34 Q165.98 84.74 166.07 84.23 L166.07 84.23 L166.07 83.71 Q166.32 82.59 166.71 81.73 Q167.10 80.87 167.44 80.27 L167.44 80.27 Q168.13 79.15 167.83 78.12 Q167.53 77.09 165.64 77.26 L165.64 77.26 Q165.38 77.43 164.65 78.08 Q163.92 78.72 163.10 79.54 Q162.28 80.36 161.68 81.09 Q161.08 81.82 161.08 82.08 L161.08 82.08 L160.65 82.94 Q160.13 83.88 159.19 85.00 L159.19 85.00 Q158.58 85.86 158.15 86.63 Q157.72 87.41 157.72 87.84 L157.72 87.84 Q157.72 88.18 157.64 88.44 Q157.55 88.70 157.21 88.70 L157.21 88.70 L156.95 89.56 Q156.61 90.42 155.92 91.62 L155.92 91.62 Q155.57 92.48 155.19 93.21 Q154.80 93.94 154.46 94.29 L154.46 94.29 L154.37 94.46 L154.03 95.41 Q153.60 96.44 153.17 97.47 Q152.74 98.50 152.74 98.67 L152.74 98.67 Q152.74 99.02 153.77 99.02 Q154.80 99.02 156.26 98.72 Q157.72 98.42 159.10 98.07 L159.10 98.07 Q160.30 97.73 160.82 97.73 Q161.34 97.73 162.45 98.07 L162.45 98.07 Q163.14 98.50 163.57 99.58 Q164.00 100.65 164.22 101.73 Q164.43 102.80 164.26 103.32 L164.26 103.32 Q164.17 103.66 162.32 104.26 Q160.48 104.87 158.67 105.21 L158.67 105.21 Q157.12 105.55 155.19 105.94 Q153.25 106.33 151.79 106.72 Q150.33 107.10 150.24 107.45 L150.24 107.45 Q149.90 107.45 149.68 107.88 Q149.47 108.31 149.47 108.65 L149.47 108.65 Q149.47 109.77 149.04 110.46 L149.04 110.46 Q148.87 110.97 148.48 112.56 Q148.09 114.15 147.70 116.00 Q147.32 117.85 147.02 119.44 Q146.72 121.03 146.72 121.55 L146.72 121.55 Q146.20 122.15 146.11 123.06 Q146.03 123.96 146.03 124.65 L146.03 124.65 Q145.68 125.33 145.60 125.89 Q145.51 126.45 145.51 126.80 L145.51 126.80 L145.51 127.14 Q145.51 127.40 145.43 127.66 L145.43 127.66 Q145.34 128.52 145.21 129.94 Q145.08 131.35 145.08 132.73 L145.08 132.73 L144.82 135.22 Q144.74 136.34 144.52 137.16 Q144.31 137.98 143.88 138.41 Z M186.02 127.83 L186.02 127.83 Q185.16 126.97 184.64 125.46 Q184.13 123.96 183.61 121.98 L183.61 121.98 Q183.44 121.29 183.48 120.43 Q183.52 119.57 183.44 119.06 L183.44 119.06 Q183.18 119.66 182.62 120.60 Q182.06 121.55 181.55 121.98 L181.55 121.98 Q181.20 122.32 180.00 123.31 Q178.79 124.30 177.59 124.90 L177.59 124.90 Q174.75 126.71 172.56 126.58 Q170.37 126.45 168.73 124.39 L168.73 124.39 Q167.36 123.27 166.50 121.55 Q165.64 119.83 166.15 117.42 L166.15 117.42 Q166.32 114.41 167.01 111.53 Q167.70 108.65 169.85 103.83 L169.85 103.83 Q171.66 100.31 172.60 98.33 Q173.55 96.35 173.81 96.01 L173.81 96.01 Q175.10 95.58 176.99 96.05 Q178.88 96.52 179.05 97.73 L179.05 97.73 Q179.57 98.59 179.05 100.95 Q178.54 103.32 176.99 106.33 L176.99 106.33 Q175.78 109.25 174.71 112.00 Q173.63 114.76 173.42 116.65 Q173.20 118.54 174.41 118.97 L174.41 118.97 Q175.18 119.40 176.69 118.88 Q178.19 118.37 180.26 115.79 Q182.32 113.21 184.64 107.62 L184.64 107.62 Q185.33 105.90 185.67 104.56 Q186.02 103.23 186.10 101.60 L186.10 101.60 Q185.93 100.57 186.66 99.45 Q187.39 98.33 188.43 97.73 L188.43 97.73 Q188.77 97.30 189.37 96.87 L189.37 96.87 Q189.80 96.61 189.97 96.78 L189.97 96.78 Q190.06 96.78 190.15 96.95 L190.15 96.95 L191.52 96.87 Q191.87 96.78 192.30 97.56 Q192.73 98.33 193.16 98.67 L193.16 98.67 Q194.10 99.45 194.02 102.03 Q193.93 104.61 191.95 109.25 L191.95 109.25 Q190.32 112.78 189.76 114.58 Q189.20 116.39 189.11 118.11 L189.11 118.11 Q189.11 119.66 189.37 120.73 Q189.63 121.81 190.92 122.93 L190.92 122.93 Q191.87 123.53 191.99 124.95 Q192.12 126.37 192.04 127.40 L192.04 127.40 Q191.87 128.17 190.70 128.47 Q189.54 128.77 188.21 128.60 Q186.88 128.43 186.02 127.83 Z M197.80 126.54 L197.80 126.54 Q197.11 125.85 196.81 124.47 Q196.51 123.10 196.60 121.77 Q196.68 120.43 197.03 119.74 L197.03 119.74 Q197.03 119.06 197.24 118.67 Q197.46 118.28 197.37 117.94 L197.37 117.94 Q197.28 117.59 197.54 116.73 Q197.80 115.87 198.06 115.10 L198.06 115.10 Q198.66 113.72 199.43 111.53 Q200.21 109.34 200.98 107.06 Q201.76 104.78 202.27 103.10 Q202.79 101.43 202.87 101.08 L202.87 101.08 Q202.87 100.05 204.25 99.96 L204.25 99.96 Q205.28 99.62 206.74 100.82 Q208.21 102.03 209.07 103.40 L209.07 103.40 Q209.75 104.09 209.58 105.21 Q209.41 106.33 208.46 108.39 L208.46 108.39 Q208.12 109.08 207.65 110.67 Q207.17 112.26 207.00 113.29 L207.00 113.29 Q206.66 113.98 206.18 115.23 Q205.71 116.48 205.37 117.59 L205.37 117.59 Q205.20 118.02 205.02 119.19 Q204.85 120.35 204.59 121.55 Q204.34 122.75 203.91 123.44 L203.91 123.44 Q203.13 126.97 201.20 127.57 Q199.26 128.17 197.80 126.54 Z " fill="#1d1c19"></path><defs><mask id="hm2" maskUnits="userSpaceOnUse"><path d="M0,3 C0,-3 -9,-6 -9,-13 C-9,-19 -2,-20 0,-14 C2,-20 9,-19 9,-13 C9,-6 0,-3 0,3 Z" fill="#fff"></path><path d="M-7.5,-8 q2.5,-3.4 5,0 t5,0 t5,0" fill="none" stroke="#000" stroke-width="2.1" stroke-linecap="round"></path></mask></defs><g transform="translate(210.40,95.23) rotate(12) scale(0.940)"><path d="M0,3 C0,-3 -9,-6 -9,-13 C-9,-19 -2,-20 0,-14 C2,-20 9,-19 9,-13 C9,-6 0,-3 0,3 Z" fill="#d23b34" mask="url(#hm2)"></path></g></g></g></svg><path d="M60.45 304.15L58.96 304.15L61.26 295.75L63.77 295.75L66.07 304.15L64.59 304.15L64.08 302.23L60.95 302.23L60.45 304.15ZM62.41 296.65L61.29 300.91L63.75 300.91L62.62 296.65L62.41 296.65Z M75.55 304.15L74.14 304.15L74.14 295.75L76.84 295.75L78.47 303.18L78.68 303.18L80.32 295.75L83.01 295.75L83.01 304.15L81.62 304.15L81.62 296.80L81.41 296.80L79.78 304.15L77.38 304.15L75.75 296.80L75.55 296.80L75.55 304.15Z M93.08 304.15L91.68 304.15L91.68 295.75L94.38 295.75L96.01 303.18L96.21 303.18L97.86 295.75L100.55 295.75L100.55 304.15L99.15 304.15L99.15 296.80L98.95 296.80L97.32 304.15L94.92 304.15L93.29 296.80L93.08 296.80L93.08 304.15Z M114.63 304.15L109.21 304.15L109.21 295.75L114.57 295.75L114.57 297.06L110.67 297.06L110.67 299.27L114.23 299.27L114.23 300.58L110.67 300.58L110.67 302.84L114.63 302.84L114.63 304.15Z M124.34 304.15L122.89 304.15L122.89 295.75L126.47 295.75Q127.27 295.75 127.85 296.03Q128.44 296.30 128.77 296.80Q129.10 297.30 129.10 298.00L129.10 298.00L129.10 298.13Q129.10 298.91 128.73 299.38Q128.36 299.84 127.83 300.06L127.83 300.06L127.83 300.25Q128.30 300.28 128.57 300.58Q128.84 300.88 128.84 301.38L128.84 301.38L128.84 304.15L127.40 304.15L127.40 301.58Q127.40 301.28 127.24 301.10Q127.07 300.91 126.71 300.91L126.71 300.91L124.34 300.91L124.34 304.15ZM124.34 297.06L124.34 299.60L126.33 299.60Q126.95 299.60 127.31 299.27Q127.66 298.94 127.66 298.39L127.66 298.39L127.66 298.28Q127.66 297.72 127.31 297.39Q126.97 297.06 126.33 297.06L126.33 297.06L124.34 297.06Z M140.36 304.32L140.36 304.32Q139.40 304.32 138.66 303.98Q137.93 303.64 137.51 302.99Q137.09 302.34 137.09 301.40L137.09 301.40L137.09 301.09L138.51 301.09L138.51 301.40Q138.51 302.23 139.02 302.64Q139.52 303.05 140.36 303.05L140.36 303.05Q141.21 303.05 141.65 302.70Q142.08 302.35 142.08 301.80L142.08 301.80Q142.08 301.43 141.87 301.19Q141.67 300.96 141.28 300.82Q140.89 300.67 140.34 300.54L140.34 300.54L139.98 300.47Q139.15 300.28 138.54 299.98Q137.94 299.69 137.61 299.22Q137.29 298.75 137.29 298.00L137.29 298.00Q137.29 297.24 137.65 296.70Q138.01 296.16 138.67 295.87Q139.33 295.58 140.22 295.58L140.22 295.58Q141.11 295.58 141.80 295.88Q142.50 296.18 142.90 296.78Q143.30 297.38 143.30 298.28L143.30 298.28L143.30 298.68L141.87 298.68L141.87 298.28Q141.87 297.77 141.67 297.46Q141.47 297.14 141.09 297Q140.72 296.86 140.22 296.86L140.22 296.86Q139.47 296.86 139.09 297.14Q138.71 297.43 138.71 297.96L138.71 297.96Q138.71 298.30 138.88 298.53Q139.05 298.76 139.40 298.91Q139.74 299.06 140.25 299.17L140.25 299.17L140.61 299.26Q141.48 299.45 142.13 299.74Q142.77 300.04 143.14 300.52Q143.51 301.00 143.51 301.76L143.51 301.76Q143.51 302.52 143.12 303.10Q142.73 303.67 142.02 304.00Q141.32 304.32 140.36 304.32Z M157.18 304.15L151.77 304.15L151.77 295.75L157.12 295.75L157.12 297.06L153.22 297.06L153.22 299.27L156.78 299.27L156.78 300.58L153.22 300.58L153.22 302.84L157.18 302.84L157.18 304.15Z M170.85 304.15L165.44 304.15L165.44 295.75L170.79 295.75L170.79 297.06L166.89 297.06L166.89 299.27L170.45 299.27L170.45 300.58L166.89 300.58L166.89 302.84L170.85 302.84L170.85 304.15Z" fill="#2f8a7e"></path></svg>