<svg xmlns="http://www.w3.org/2000/svg" width="1380" height="2040" viewBox="0 0 230 340"><path d="M26.6,15.6 L23.3,9.6 L24.9,5.6 L23.4,3 L19.7,2.1 L14.4,7 L13.1,5.4 L11.2,5.8 L9.4,2 L6.3,1.2 L1.8,-9.1 L-2.9,-41.5 L3.9,-62.7 L2.4,-72.7 L0.6,-75 L-4.9,-74.9 L-12.4,-67.5 L-16.6,-67.1 L-22,-57.2 L-21.6,-53 L-24.3,-47.3 L-23.7,-41.3 L-25.6,-36.4 L-24.6,-30.6 L-25.8,-26.6 L-23.8,-21.8 L-26.6,-12.8 L-26,-9.3 L-22.8,-5.3 L-25.1,0.3 L-23.1,20.5 L-24.3,26.8 L-20.4,36.9 L-20.7,40.6 L-16.7,48.4 L-18.3,54.5 L-17.2,59.2 L-12,60.7 L-10.4,65.3 L-7.5,69.5 L-3,73.5 L2,75 L7,73 L10.5,69.5 L12.3,66.1 L11.7,33.9 L16.2,25.7 L26.6,16.1 Z" fill="none" stroke="#c2683f" stroke-opacity="0.32" stroke-width="0.90" stroke-linejoin="round" stroke-linecap="round" transform="translate(115 178) scale(2.00000) translate(0.00 0.00)"></path><path d="M66.52 80.42L66.52 80.42Q63.76 80.42 61.65 79.43Q59.55 78.45 58.36 76.61Q57.17 74.78 57.17 72.19L57.17 72.19L57.17 71.24L61.59 71.24L61.59 72.19Q61.59 74.33 62.91 75.40Q64.24 76.48 66.52 76.48L66.52 76.48Q68.83 76.48 69.97 75.56Q71.11 74.64 71.11 73.21L71.11 73.21Q71.11 72.23 70.55 71.61Q69.98 71.00 68.91 70.61Q67.84 70.22 66.31 69.88L66.31 69.88L65.53 69.71Q63.08 69.17 61.33 68.33Q59.58 67.50 58.64 66.14Q57.71 64.78 57.71 62.60L57.71 62.60Q57.71 60.43 58.75 58.88Q59.78 57.33 61.67 56.50Q63.56 55.67 66.11 55.67L66.11 55.67Q68.66 55.67 70.65 56.53Q72.64 57.40 73.78 59.12Q74.91 60.84 74.91 63.42L74.91 63.42L74.91 64.44L70.49 64.44L70.49 63.42Q70.49 62.06 69.97 61.23Q69.44 60.39 68.45 60.00Q67.47 59.61 66.11 59.61L66.11 59.61Q64.07 59.61 63.10 60.38Q62.13 61.14 62.13 62.47L62.13 62.47Q62.13 63.35 62.59 63.96Q63.05 64.58 63.97 64.98Q64.88 65.39 66.31 65.70L66.31 65.70L67.09 65.87Q69.64 66.41 71.53 67.26Q73.42 68.11 74.47 69.51Q75.53 70.90 75.53 73.08L75.53 73.08Q75.53 75.25 74.42 76.90Q73.32 78.55 71.29 79.48Q69.27 80.42 66.52 80.42Z M90.21 79.94L85.45 79.94Q83.79 79.94 82.75 78.91Q81.71 77.87 81.71 76.14L81.71 76.14L81.71 66.62L77.50 66.62L77.50 63.08L81.71 63.08L81.71 57.84L86.00 57.84L86.00 63.08L90.62 63.08L90.62 66.62L86.00 66.62L86.00 75.39Q86.00 76.41 86.95 76.41L86.95 76.41L90.21 76.41L90.21 79.94Z M102.18 80.42L102.18 80.42Q99.67 80.42 97.75 79.35Q95.82 78.28 94.75 76.32Q93.68 74.37 93.68 71.72L93.68 71.72L93.68 71.31Q93.68 68.66 94.74 66.70Q95.79 64.75 97.69 63.67Q99.60 62.60 102.11 62.60L102.11 62.60Q104.60 62.60 106.43 63.71Q108.27 64.81 109.29 66.77Q110.31 68.72 110.31 71.31L110.31 71.31L110.31 72.77L98.03 72.77Q98.10 74.50 99.33 75.59Q100.55 76.68 102.32 76.68L102.32 76.68Q104.12 76.68 104.97 75.90Q105.82 75.12 106.26 74.16L106.26 74.16L109.76 76.00Q109.29 76.88 108.39 77.92Q107.49 78.96 105.99 79.69Q104.49 80.42 102.18 80.42ZM98.07 69.57L98.07 69.57L105.96 69.57Q105.82 68.11 104.78 67.23Q103.75 66.34 102.08 66.34L102.08 66.34Q100.35 66.34 99.33 67.23Q98.31 68.11 98.07 69.57Z M113.30 71.58L113.30 71.58L113.30 71.04Q113.30 68.38 114.35 66.50Q115.41 64.61 117.16 63.61Q118.91 62.60 120.98 62.60L120.98 62.60Q123.30 62.60 124.49 63.42Q125.68 64.24 126.22 65.12L126.22 65.12L126.83 65.12L126.83 63.08L131.05 63.08L131.05 82.94Q131.05 84.67 130.03 85.71Q129.01 86.74 127.31 86.74L127.31 86.74L116.02 86.74L116.02 83.00L125.81 83.00Q126.76 83.00 126.76 81.98L126.76 81.98L126.76 77.60L126.15 77.60Q125.81 78.14 125.20 78.70Q124.59 79.26 123.57 79.64Q122.55 80.01 120.98 80.01L120.98 80.01Q118.91 80.01 117.16 79.01Q115.41 78.01 114.35 76.12Q113.30 74.23 113.30 71.58ZM122.21 76.27L122.21 76.27Q124.18 76.27 125.51 75.01Q126.83 73.76 126.83 71.48L126.83 71.48L126.83 71.14Q126.83 68.83 125.52 67.58Q124.21 66.34 122.21 66.34L122.21 66.34Q120.24 66.34 118.91 67.58Q117.58 68.83 117.58 71.14L117.58 71.14L117.58 71.48Q117.58 73.76 118.91 75.01Q120.24 76.27 122.21 76.27Z M143.49 80.42L143.49 80.42Q140.98 80.42 139.06 79.35Q137.13 78.28 136.06 76.32Q134.99 74.37 134.99 71.72L134.99 71.72L134.99 71.31Q134.99 68.66 136.05 66.70Q137.10 64.75 139.00 63.67Q140.91 62.60 143.42 62.60L143.42 62.60Q145.91 62.60 147.74 63.71Q149.58 64.81 150.60 66.77Q151.62 68.72 151.62 71.31L151.62 71.31L151.62 72.77L139.34 72.77Q139.41 74.50 140.64 75.59Q141.86 76.68 143.63 76.68L143.63 76.68Q145.43 76.68 146.28 75.90Q147.13 75.12 147.57 74.16L147.57 74.16L151.07 76.00Q150.60 76.88 149.70 77.92Q148.80 78.96 147.30 79.69Q145.80 80.42 143.49 80.42ZM139.38 69.57L139.38 69.57L147.27 69.57Q147.13 68.11 146.09 67.23Q145.06 66.34 143.39 66.34L143.39 66.34Q141.66 66.34 140.64 67.23Q139.62 68.11 139.38 69.57Z M159.71 79.94L155.43 79.94L155.43 63.08L159.64 63.08L159.64 65.29L160.25 65.29Q160.66 64.41 161.78 63.61Q162.91 62.81 165.18 62.81L165.18 62.81Q167.16 62.81 168.64 63.71Q170.11 64.61 170.93 66.19Q171.75 67.77 171.75 69.88L171.75 69.88L171.75 79.94L167.46 79.94L167.46 70.22Q167.46 68.32 166.53 67.36Q165.59 66.41 163.86 66.41L163.86 66.41Q161.89 66.41 160.80 67.72Q159.71 69.03 159.71 71.38L159.71 71.38L159.71 79.94Z" fill="#1d1c19"></path><path d="M62.03 102.10L62.03 102.10Q61.23 102.10 60.56 101.71Q59.88 101.32 59.47 100.59Q59.06 99.85 59.06 98.81L59.06 98.81L59.06 98.62Q59.06 97.59 59.46 96.85Q59.87 96.11 60.54 95.72Q61.22 95.33 62.03 95.33L62.03 95.33Q62.65 95.33 63.07 95.48Q63.49 95.64 63.77 95.88Q64.04 96.12 64.18 96.38L64.18 96.38L64.39 96.38L64.39 92.82L65.73 92.82L65.73 101.92L64.42 101.92L64.42 101.01L64.21 101.01Q63.96 101.42 63.46 101.76Q62.96 102.10 62.03 102.10ZM62.40 100.93L62.40 100.93Q63.27 100.93 63.84 100.37Q64.40 99.81 64.40 98.77L64.40 98.77L64.40 98.65Q64.40 97.63 63.85 97.07Q63.29 96.51 62.40 96.51L62.40 96.51Q61.54 96.51 60.98 97.07Q60.41 97.63 60.41 98.65L60.41 98.65L60.41 98.77Q60.41 99.81 60.98 100.37Q61.54 100.93 62.40 100.93Z M70.70 102.10L70.70 102.10Q70.01 102.10 69.47 101.87Q68.93 101.63 68.61 101.18Q68.29 100.72 68.29 100.07L68.29 100.07Q68.29 99.41 68.61 98.97Q68.93 98.54 69.48 98.32Q70.03 98.10 70.73 98.10L70.73 98.10L72.68 98.10L72.68 97.68Q72.68 97.12 72.35 96.78Q72.01 96.44 71.31 96.44L71.31 96.44Q70.62 96.44 70.25 96.77Q69.89 97.09 69.77 97.61L69.77 97.61L68.52 97.21Q68.68 96.69 69.02 96.27Q69.37 95.85 69.94 95.59Q70.51 95.33 71.32 95.33L71.32 95.33Q72.57 95.33 73.28 95.96Q74.00 96.60 74.00 97.77L74.00 97.77L74.00 100.41Q74.00 100.80 74.36 100.80L74.36 100.80L74.91 100.80L74.91 101.92L73.91 101.92Q73.45 101.92 73.17 101.68Q72.88 101.45 72.88 101.05L72.88 101.05L72.88 101.01L72.68 101.01Q72.58 101.20 72.37 101.46Q72.16 101.72 71.76 101.91Q71.36 102.10 70.70 102.10ZM70.89 100.99L70.89 100.99Q71.70 100.99 72.19 100.53Q72.68 100.07 72.68 99.27L72.68 99.27L72.68 99.14L70.81 99.14Q70.28 99.14 69.95 99.36Q69.63 99.59 69.63 100.03L69.63 100.03Q69.63 100.47 69.97 100.73Q70.31 100.99 70.89 100.99Z  M85.23 102.10L85.23 102.10Q84.29 102.10 83.79 101.76Q83.29 101.42 83.04 101.01L83.04 101.01L82.84 101.01L82.84 101.92L81.52 101.92L81.52 92.82L82.86 92.82L82.86 96.38L83.07 96.38Q83.23 96.12 83.49 95.88Q83.75 95.64 84.17 95.48Q84.60 95.33 85.23 95.33L85.23 95.33Q86.03 95.33 86.71 95.72Q87.39 96.11 87.79 96.85Q88.19 97.59 88.19 98.62L88.19 98.62L88.19 98.81Q88.19 99.85 87.78 100.59Q87.37 101.32 86.70 101.71Q86.03 102.10 85.23 102.10ZM84.84 100.93L84.84 100.93Q85.71 100.93 86.27 100.37Q86.84 99.81 86.84 98.77L86.84 98.77L86.84 98.65Q86.84 97.63 86.28 97.07Q85.72 96.51 84.84 96.51L84.84 96.51Q83.98 96.51 83.41 97.07Q82.85 97.63 82.85 98.65L82.85 98.65L82.85 98.77Q82.85 99.81 83.41 100.37Q83.98 100.93 84.84 100.93Z M92.19 101.92L90.86 101.92L90.86 95.51L92.19 95.51L92.19 101.92ZM91.53 94.64L91.53 94.64Q91.14 94.64 90.87 94.38Q90.61 94.13 90.61 93.73L90.61 93.73Q90.61 93.32 90.87 93.07Q91.14 92.82 91.53 92.82L91.53 92.82Q91.93 92.82 92.19 93.07Q92.45 93.32 92.45 93.73L92.45 93.73Q92.45 94.13 92.19 94.38Q91.93 94.64 91.53 94.64Z M96.52 101.92L95.18 101.92L95.18 95.51L96.50 95.51L96.50 96.47L96.70 96.47Q96.89 96.08 97.35 95.74Q97.82 95.40 98.75 95.40L98.75 95.40Q99.47 95.40 100.04 95.73Q100.60 96.05 100.93 96.65Q101.25 97.24 101.25 98.07L101.25 98.07L101.25 101.92L99.92 101.92L99.92 98.17Q99.92 97.34 99.50 96.95Q99.08 96.55 98.36 96.55L98.36 96.55Q97.52 96.55 97.02 97.09Q96.52 97.64 96.52 98.68L96.52 98.68L96.52 101.92Z  M109.83 101.92L108.49 101.92L108.49 95.51L109.83 95.51L109.83 101.92ZM109.17 94.64L109.17 94.64Q108.78 94.64 108.51 94.38Q108.25 94.13 108.25 93.73L108.25 93.73Q108.25 93.32 108.51 93.07Q108.78 92.82 109.17 92.82L109.17 92.82Q109.57 92.82 109.83 93.07Q110.09 93.32 110.09 93.73L110.09 93.73Q110.09 94.13 109.83 94.38Q109.57 94.64 109.17 94.64Z  M119.79 102.10L119.79 102.10Q119.00 102.10 118.32 101.71Q117.64 101.32 117.23 100.59Q116.82 99.85 116.82 98.81L116.82 98.81L116.82 98.62Q116.82 97.59 117.23 96.85Q117.63 96.11 118.31 95.72Q118.98 95.33 119.79 95.33L119.79 95.33Q120.41 95.33 120.83 95.48Q121.26 95.64 121.53 95.88Q121.80 96.12 121.95 96.38L121.95 96.38L122.15 96.38L122.15 92.82L123.49 92.82L123.49 101.92L122.18 101.92L122.18 101.01L121.97 101.01Q121.73 101.42 121.22 101.76Q120.72 102.10 119.79 102.10ZM120.17 100.93L120.17 100.93Q121.04 100.93 121.60 100.37Q122.17 99.81 122.17 98.77L122.17 98.77L122.17 98.65Q122.17 97.63 121.61 97.07Q121.05 96.51 120.17 96.51L120.17 96.51Q119.31 96.51 118.74 97.07Q118.18 97.63 118.18 98.65L118.18 98.65L118.18 98.77Q118.18 99.81 118.74 100.37Q119.31 100.93 120.17 100.93Z M128.46 102.10L128.46 102.10Q127.77 102.10 127.23 101.87Q126.69 101.63 126.37 101.18Q126.05 100.72 126.05 100.07L126.05 100.07Q126.05 99.41 126.37 98.97Q126.69 98.54 127.24 98.32Q127.80 98.10 128.50 98.10L128.50 98.10L130.45 98.10L130.45 97.68Q130.45 97.12 130.11 96.78Q129.77 96.44 129.07 96.44L129.07 96.44Q128.38 96.44 128.02 96.77Q127.65 97.09 127.54 97.61L127.54 97.61L126.29 97.21Q126.44 96.69 126.79 96.27Q127.13 95.85 127.70 95.59Q128.28 95.33 129.08 95.33L129.08 95.33Q130.33 95.33 131.05 95.96Q131.76 96.60 131.76 97.77L131.76 97.77L131.76 100.41Q131.76 100.80 132.12 100.80L132.12 100.80L132.67 100.80L132.67 101.92L131.67 101.92Q131.21 101.92 130.93 101.68Q130.64 101.45 130.64 101.05L130.64 101.05L130.64 101.01L130.45 101.01Q130.34 101.20 130.14 101.46Q129.93 101.72 129.52 101.91Q129.12 102.10 128.46 102.10ZM128.65 100.99L128.65 100.99Q129.46 100.99 129.95 100.53Q130.45 100.07 130.45 99.27L130.45 99.27L130.45 99.14L128.58 99.14Q128.04 99.14 127.72 99.36Q127.39 99.59 127.39 100.03L127.39 100.03Q127.39 100.47 127.73 100.73Q128.07 100.99 128.65 100.99Z M136.31 101.92L134.97 101.92L134.97 92.82L136.31 92.82L136.31 96.42L136.52 96.42Q136.65 96.17 136.89 95.94Q137.13 95.70 137.52 95.55Q137.92 95.40 138.53 95.40L138.53 95.40Q139.26 95.40 139.83 95.73Q140.39 96.05 140.72 96.65Q141.04 97.24 141.04 98.07L141.04 98.07L141.04 101.92L139.70 101.92L139.70 98.17Q139.70 97.34 139.29 96.95Q138.87 96.55 138.14 96.55L138.14 96.55Q137.31 96.55 136.81 97.09Q136.31 97.64 136.31 98.68L136.31 98.68L136.31 101.92Z M146.97 102.10L146.97 102.10Q146.01 102.10 145.26 101.70Q144.51 101.31 144.08 100.57Q143.65 99.82 143.65 98.81L143.65 98.81L143.65 98.62Q143.65 97.60 144.08 96.87Q144.51 96.13 145.26 95.73Q146.01 95.33 146.97 95.33L146.97 95.33Q147.93 95.33 148.68 95.73Q149.44 96.13 149.87 96.87Q150.30 97.60 150.30 98.62L150.30 98.62L150.30 98.81Q150.30 99.82 149.87 100.57Q149.44 101.31 148.68 101.70Q147.93 102.10 146.97 102.10ZM146.97 100.90L146.97 100.90Q147.85 100.90 148.41 100.34Q148.96 99.77 148.96 98.77L148.96 98.77L148.96 98.65Q148.96 97.65 148.41 97.09Q147.87 96.52 146.97 96.52L146.97 96.52Q146.10 96.52 145.54 97.09Q144.99 97.65 144.99 98.65L144.99 98.65L144.99 98.77Q144.99 99.77 145.54 100.34Q146.10 100.90 146.97 100.90Z M154.95 102.10L154.95 102.10Q154.26 102.10 153.72 101.87Q153.18 101.63 152.86 101.18Q152.54 100.72 152.54 100.07L152.54 100.07Q152.54 99.41 152.86 98.97Q153.18 98.54 153.73 98.32Q154.29 98.10 154.99 98.10L154.99 98.10L156.94 98.10L156.94 97.68Q156.94 97.12 156.60 96.78Q156.26 96.44 155.56 96.44L155.56 96.44Q154.87 96.44 154.51 96.77Q154.14 97.09 154.03 97.61L154.03 97.61L152.78 97.21Q152.93 96.69 153.28 96.27Q153.62 95.85 154.20 95.59Q154.77 95.33 155.57 95.33L155.57 95.33Q156.82 95.33 157.54 95.96Q158.25 96.60 158.25 97.77L158.25 97.77L158.25 100.41Q158.25 100.80 158.62 100.80L158.62 100.80L159.16 100.80L159.16 101.92L158.16 101.92Q157.71 101.92 157.42 101.68Q157.13 101.45 157.13 101.05L157.13 101.05L157.13 101.01L156.94 101.01Q156.83 101.20 156.63 101.46Q156.42 101.72 156.02 101.91Q155.61 102.10 154.95 102.10ZM155.14 100.99L155.14 100.99Q155.95 100.99 156.44 100.53Q156.94 100.07 156.94 99.27L156.94 99.27L156.94 99.14L155.07 99.14Q154.53 99.14 154.21 99.36Q153.88 99.59 153.88 100.03L153.88 100.03Q153.88 100.47 154.22 100.73Q154.56 100.99 155.14 100.99Z M162.80 101.92L161.46 101.92L161.46 95.51L162.77 95.51L162.77 96.26L162.98 96.26Q163.16 95.92 163.57 95.66Q163.97 95.40 164.66 95.40L164.66 95.40Q165.37 95.40 165.81 95.70Q166.25 95.99 166.47 96.44L166.47 96.44L166.67 96.44Q166.90 96.00 167.32 95.70Q167.74 95.40 168.52 95.40L168.52 95.40Q169.14 95.40 169.63 95.66Q170.11 95.91 170.39 96.41Q170.68 96.91 170.68 97.65L170.68 97.65L170.68 101.92L169.34 101.92L169.34 97.76Q169.34 97.17 169.02 96.85Q168.70 96.54 168.12 96.54L168.12 96.54Q167.49 96.54 167.12 96.94Q166.74 97.34 166.74 98.10L166.74 98.10L166.74 101.92L165.40 101.92L165.40 97.76Q165.40 97.17 165.08 96.85Q164.76 96.54 164.18 96.54L164.18 96.54Q163.55 96.54 163.18 96.94Q162.80 97.34 162.80 98.10L162.80 98.10L162.80 101.92Z" fill="#1d1c19" fill-opacity="0.7"></path><svg x="-17.50" y="134.25" width="258.46" height="132.82" viewBox="0 0 360 185" overflow="visible"><g fill="#1d1c19"><g transform="translate(64.98,0)"><path d="M22.88 133.59 L22.88 133.59 Q21.33 133.16 20.38 132.82 L20.38 132.82 L19.44 132.56 Q19.61 132.13 19.31 131.78 Q19.01 131.44 18.06 131.35 L18.06 131.35 Q16.77 130.49 15.39 128.95 Q14.02 127.40 12.99 125.76 Q11.95 124.13 11.61 123.36 L11.61 123.36 Q11.18 122.32 11.44 121.98 L11.44 121.98 Q11.52 121.81 11.70 121.72 L11.70 121.72 Q12.38 121.46 13.33 121.03 L13.33 121.03 Q14.28 120.35 15.35 120.00 Q16.43 119.66 17.11 121.12 L17.11 121.12 Q18.23 123.10 20.60 124.47 Q22.96 125.85 26.02 126.11 Q29.07 126.37 32.16 125.08 L32.16 125.08 Q34.23 124.13 34.40 122.45 Q34.57 120.78 33.11 118.54 L33.11 118.54 Q32.85 117.85 32.38 117.42 Q31.91 116.99 31.00 116.30 Q30.10 115.62 28.47 114.07 L28.47 114.07 Q27.18 113.47 26.10 112.95 Q25.03 112.43 23.82 111.83 L23.82 111.83 Q22.45 111.14 20.73 109.90 Q19.01 108.65 17.54 107.14 Q16.08 105.64 15.31 104.26 L15.31 104.26 Q13.93 102.97 13.59 100.69 Q13.24 98.42 13.72 95.84 Q14.19 93.26 15.31 91.19 L15.31 91.19 Q15.82 89.99 17.20 88.05 Q18.58 86.12 20.30 84.05 Q22.02 81.99 23.61 80.31 Q25.20 78.64 26.14 78.03 L26.14 78.03 Q26.83 77.35 27.61 76.57 L27.61 76.57 L28.38 75.88 Q28.47 75.45 28.72 75.45 L28.72 75.45 L28.90 75.45 Q29.33 75.20 30.79 74.59 Q32.25 73.99 33.97 72.36 L33.97 72.36 Q39.73 69.61 43.77 68.62 Q47.82 67.63 50.14 67.63 L50.14 67.63 Q52.29 67.71 54.35 68.79 Q56.42 69.86 57.92 71.50 Q59.43 73.13 59.68 75.20 L59.68 75.20 Q60.29 77.26 59.13 80.14 Q57.96 83.02 55.94 85.56 Q53.92 88.10 51.77 89.30 L51.77 89.30 Q49.36 90.33 47.69 89.56 Q46.01 88.78 46.10 87.15 L46.10 87.15 Q46.10 86.46 46.57 85.52 Q47.04 84.57 49.19 82.16 L49.19 82.16 Q51.94 78.12 52.12 76.40 Q52.29 74.68 50.57 74.42 L50.57 74.42 Q50.05 74.25 48.59 74.51 Q47.13 74.77 45.45 75.15 Q43.77 75.54 42.53 75.97 Q41.28 76.40 41.28 76.57 L41.28 76.57 L41.28 76.83 Q41.28 76.92 41.19 77.00 L41.19 77.00 Q41.19 77.09 40.94 77.00 L40.94 77.00 Q40.76 77.00 39.78 77.56 Q38.79 78.12 37.41 78.98 Q36.03 79.84 34.70 80.74 Q33.37 81.65 32.42 82.33 Q31.48 83.02 31.39 83.19 L31.39 83.19 Q31.22 84.14 29.41 84.91 L29.41 84.91 Q27.69 85.95 26.40 87.84 Q25.11 89.73 23.39 92.65 L23.39 92.65 Q21.93 94.63 21.33 96.91 Q20.73 99.19 21.33 100.57 L21.33 100.57 Q21.76 101.94 23.69 103.28 Q25.63 104.61 28.98 106.59 L28.98 106.59 Q31.91 108.22 34.49 110.03 Q37.07 111.83 38.87 113.51 Q40.68 115.19 41.19 116.30 L41.19 116.30 Q42.23 117.77 42.44 119.66 Q42.66 121.55 42.44 123.31 Q42.23 125.08 41.88 126.19 L41.88 126.19 Q41.28 127.57 40.03 129.12 Q38.79 130.67 37.75 130.58 L37.75 130.58 Q36.81 130.84 36.34 131.18 Q35.86 131.53 35.26 131.78 L35.26 131.78 Q34.66 132.13 32.42 132.60 Q30.19 133.07 27.52 133.38 Q24.85 133.68 22.88 133.59 Z M67.77 126.28 L67.77 126.28 Q65.19 127.74 62.31 127.96 Q59.43 128.17 56.93 127.18 Q54.44 126.19 52.89 124.22 L52.89 124.22 Q52.03 123.10 51.26 120.65 Q50.48 118.20 51.00 113.98 L51.00 113.98 Q51.51 110.03 53.45 105.98 Q55.38 101.94 58.22 98.85 Q61.06 95.75 64.41 94.63 L64.41 94.63 Q65.62 94.20 66.86 93.99 Q68.11 93.77 70.18 93.94 L70.18 93.94 Q72.15 94.20 73.70 94.93 Q75.25 95.66 75.94 96.52 L75.94 96.52 Q77.31 97.90 77.74 99.19 Q78.17 100.48 78.09 101.68 L78.09 101.68 Q77.66 104.44 75.64 107.62 Q73.62 110.80 70.00 112.35 L70.00 112.35 Q68.54 112.95 66.56 113.12 Q64.59 113.29 61.15 112.61 L61.15 112.61 Q59.08 112.18 58.44 113.04 Q57.79 113.90 57.88 116.39 L57.88 116.39 Q58.05 117.94 58.61 119.10 Q59.17 120.26 60.72 120.69 L60.72 120.69 Q62.69 121.03 63.55 120.73 Q64.41 120.43 65.70 119.83 L65.70 119.83 Q66.39 119.40 67.08 118.88 L67.08 118.88 L68.37 117.85 Q68.97 117.34 69.40 117.08 L69.40 117.08 Q69.83 116.73 70.26 116.65 Q70.69 116.56 71.12 116.56 L71.12 116.56 Q72.07 116.65 72.93 117.59 Q73.79 118.54 74.05 119.40 L74.05 119.40 Q74.05 120.09 73.19 121.33 Q72.33 122.58 70.91 123.92 Q69.49 125.25 67.77 126.28 Z M66.65 107.10 L66.65 107.10 Q67.25 106.84 68.41 105.90 Q69.57 104.95 70.52 103.88 Q71.47 102.80 71.47 102.20 L71.47 102.20 Q71.47 101.25 70.22 100.57 Q68.97 99.88 66.99 100.31 L66.99 100.31 Q66.31 100.48 65.36 101.25 Q64.41 102.03 63.47 103.02 Q62.52 104.01 61.83 104.91 Q61.15 105.81 60.89 106.33 L60.89 106.33 Q61.23 106.76 62.26 107.02 Q63.30 107.27 64.54 107.27 Q65.79 107.27 66.65 107.10 Z M96.49 126.28 L96.49 126.28 Q93.91 127.74 91.03 127.96 Q88.15 128.17 85.66 127.18 Q83.16 126.19 81.61 124.22 L81.61 124.22 Q80.75 123.10 79.98 120.65 Q79.21 118.20 79.72 113.98 L79.72 113.98 Q80.24 110.03 82.17 105.98 Q84.11 101.94 86.95 98.85 Q89.78 95.75 93.14 94.63 L93.14 94.63 Q94.34 94.20 95.59 93.99 Q96.84 93.77 98.90 93.94 L98.90 93.94 Q100.88 94.20 102.43 94.93 Q103.97 95.66 104.66 96.52 L104.66 96.52 Q106.04 97.90 106.47 99.19 Q106.90 100.48 106.81 101.68 L106.81 101.68 Q106.38 104.44 104.36 107.62 Q102.34 110.80 98.73 112.35 L98.73 112.35 Q97.27 112.95 95.29 113.12 Q93.31 113.29 89.87 112.61 L89.87 112.61 Q87.81 112.18 87.16 113.04 Q86.52 113.90 86.60 116.39 L86.60 116.39 Q86.77 117.94 87.33 119.10 Q87.89 120.26 89.44 120.69 L89.44 120.69 Q91.42 121.03 92.28 120.73 Q93.14 120.43 94.43 119.83 L94.43 119.83 Q95.12 119.40 95.80 118.88 L95.80 118.88 L97.09 117.85 Q97.70 117.34 98.13 117.08 L98.13 117.08 Q98.56 116.73 98.99 116.65 Q99.42 116.56 99.85 116.56 L99.85 116.56 Q100.79 116.65 101.65 117.59 Q102.51 118.54 102.77 119.40 L102.77 119.40 Q102.77 120.09 101.91 121.33 Q101.05 122.58 99.63 123.92 Q98.21 125.25 96.49 126.28 Z M95.37 107.10 L95.37 107.10 Q95.98 106.84 97.14 105.90 Q98.30 104.95 99.24 103.88 Q100.19 102.80 100.19 102.20 L100.19 102.20 Q100.19 101.25 98.94 100.57 Q97.70 99.88 95.72 100.31 L95.72 100.31 Q95.03 100.48 94.08 101.25 Q93.14 102.03 92.19 103.02 Q91.25 104.01 90.56 104.91 Q89.87 105.81 89.61 106.33 L89.61 106.33 Q89.96 106.76 90.99 107.02 Q92.02 107.27 93.27 107.27 Q94.51 107.27 95.37 107.10 Z M118.42 145.20 L118.42 145.20 Q116.01 146.15 113.39 144.90 Q110.77 143.65 108.88 140.99 L108.88 140.99 Q108.53 140.47 107.84 139.14 Q107.16 137.80 106.51 136.26 Q105.87 134.71 105.56 133.59 Q105.26 132.47 105.52 132.30 L105.52 132.30 Q105.87 131.35 107.07 131.18 Q108.27 131.01 109.48 131.31 Q110.68 131.61 110.85 132.13 L110.85 132.13 Q111.11 132.73 111.37 133.38 Q111.63 134.02 112.01 134.58 Q112.40 135.14 112.75 135.57 L112.75 135.57 Q113.69 137.03 114.81 137.59 Q115.93 138.15 116.53 137.72 L116.53 137.72 Q117.99 136.60 118.72 135.09 Q119.45 133.59 120.66 129.81 L120.66 129.81 Q121.60 126.62 122.29 124.30 Q122.98 121.98 123.75 120.00 L123.75 120.00 Q124.01 118.97 124.44 118.20 L124.44 118.20 Q124.53 118.02 124.61 117.85 L124.61 117.85 Q123.41 118.71 122.46 119.57 L122.46 119.57 Q121.17 120.78 118.94 121.72 L118.94 121.72 Q118.42 122.32 116.40 122.45 Q114.38 122.58 112.49 121.98 L112.49 121.98 Q111.28 121.29 110.55 120.56 Q109.82 119.83 109.35 118.88 Q108.88 117.94 108.36 116.65 L108.36 116.65 Q107.76 115.36 108.19 112.43 Q108.62 109.51 109.74 106.59 L109.74 106.59 Q110.77 104.44 112.75 101.94 Q114.72 99.45 116.96 97.43 Q119.20 95.41 121.00 94.89 L121.00 94.89 Q121.69 94.55 123.41 94.07 Q125.13 93.60 126.68 94.03 L126.68 94.03 Q128.14 94.20 128.91 94.67 Q129.69 95.15 131.41 96.61 L131.41 96.61 Q132.53 97.73 134.16 99.49 Q135.79 101.25 136.22 102.46 L136.22 102.46 Q136.83 103.75 136.48 105.25 Q136.14 106.76 135.28 107.88 L135.28 107.88 Q134.50 108.99 133.64 110.11 Q132.78 111.23 132.35 113.21 L132.35 113.21 Q131.92 115.79 130.72 119.01 Q129.52 122.24 128.83 124.99 L128.83 124.99 L127.45 130.32 Q125.30 137.63 122.72 140.94 Q120.14 144.25 118.42 145.20 Z M116.62 115.62 L116.62 115.62 Q118.34 115.53 119.58 115.23 Q120.83 114.93 121.95 113.85 Q123.07 112.78 124.53 110.54 L124.53 110.54 Q125.99 108.48 126.59 106.76 Q127.19 105.04 127.02 102.89 L127.02 102.89 Q126.94 101.51 126.25 101.08 Q125.56 100.65 124.44 100.82 L124.44 100.82 Q122.81 101.08 121.52 102.16 Q120.23 103.23 118.51 105.47 L118.51 105.47 Q117.22 107.19 116.36 109.60 L116.36 109.60 Q115.50 112.18 115.63 113.72 Q115.76 115.27 116.62 115.62 Z M143.88 138.41 L143.88 138.41 Q143.36 138.75 141.56 137.59 Q139.75 136.43 138.55 135.05 L138.55 135.05 Q137.94 134.36 137.77 133.59 Q137.60 132.82 137.86 130.67 L137.86 130.67 Q138.20 129.72 138.24 128.86 Q138.29 128.00 138.29 127.66 L138.29 127.66 Q138.29 127.14 138.59 125.25 Q138.89 123.36 139.23 121.25 Q139.58 119.14 139.84 118.02 L139.84 118.02 Q139.84 117.94 139.96 117.42 Q140.09 116.91 140.18 116.65 L140.18 116.65 Q140.35 115.87 140.61 114.76 Q140.87 113.64 141.13 111.75 L141.13 111.75 Q141.81 109.60 142.29 107.49 Q142.76 105.38 142.76 104.61 L142.76 104.61 Q142.76 103.06 143.96 102.37 L143.96 102.37 Q144.05 101.94 144.48 101.04 Q144.91 100.14 145.25 99.53 L145.25 99.53 Q146.97 94.63 148.09 91.71 Q149.21 88.78 150.41 86.63 L150.41 86.63 Q150.93 85.17 151.57 83.62 Q152.22 82.08 152.91 81.22 L152.91 81.22 Q153.51 80.01 155.01 78.25 Q156.52 76.49 158.24 74.85 Q159.96 73.22 160.99 72.44 L160.99 72.44 Q162.88 71.50 164.52 70.90 Q166.15 70.29 167.96 70.29 L167.96 70.29 Q169.59 70.29 170.84 71.03 Q172.09 71.76 174.58 73.99 L174.58 73.99 Q175.44 75.11 175.44 76.14 Q175.44 77.17 175.01 77.86 L175.01 77.86 Q174.41 79.24 173.20 81.26 Q172.00 83.28 170.88 84.87 Q169.76 86.46 169.25 86.55 L169.25 86.55 Q168.22 87.15 167.10 86.89 Q165.98 86.63 165.98 85.34 L165.98 85.34 Q165.98 84.74 166.07 84.23 L166.07 84.23 L166.07 83.71 Q166.32 82.59 166.71 81.73 Q167.10 80.87 167.44 80.27 L167.44 80.27 Q168.13 79.15 167.83 78.12 Q167.53 77.09 165.64 77.26 L165.64 77.26 Q165.38 77.43 164.65 78.08 Q163.92 78.72 163.10 79.54 Q162.28 80.36 161.68 81.09 Q161.08 81.82 161.08 82.08 L161.08 82.08 L160.65 82.94 Q160.13 83.88 159.19 85.00 L159.19 85.00 Q158.58 85.86 158.15 86.63 Q157.72 87.41 157.72 87.84 L157.72 87.84 Q157.72 88.18 157.64 88.44 Q157.55 88.70 157.21 88.70 L157.21 88.70 L156.95 89.56 Q156.61 90.42 155.92 91.62 L155.92 91.62 Q155.57 92.48 155.19 93.21 Q154.80 93.94 154.46 94.29 L154.46 94.29 L154.37 94.46 L154.03 95.41 Q153.60 96.44 153.17 97.47 Q152.74 98.50 152.74 98.67 L152.74 98.67 Q152.74 99.02 153.77 99.02 Q154.80 99.02 156.26 98.72 Q157.72 98.42 159.10 98.07 L159.10 98.07 Q160.30 97.73 160.82 97.73 Q161.34 97.73 162.45 98.07 L162.45 98.07 Q163.14 98.50 163.57 99.58 Q164.00 100.65 164.22 101.73 Q164.43 102.80 164.26 103.32 L164.26 103.32 Q164.17 103.66 162.32 104.26 Q160.48 104.87 158.67 105.21 L158.67 105.21 Q157.12 105.55 155.19 105.94 Q153.25 106.33 151.79 106.72 Q150.33 107.10 150.24 107.45 L150.24 107.45 Q149.90 107.45 149.68 107.88 Q149.47 108.31 149.47 108.65 L149.47 108.65 Q149.47 109.77 149.04 110.46 L149.04 110.46 Q148.87 110.97 148.48 112.56 Q148.09 114.15 147.70 116.00 Q147.32 117.85 147.02 119.44 Q146.72 121.03 146.72 121.55 L146.72 121.55 Q146.20 122.15 146.11 123.06 Q146.03 123.96 146.03 124.65 L146.03 124.65 Q145.68 125.33 145.60 125.89 Q145.51 126.45 145.51 126.80 L145.51 126.80 L145.51 127.14 Q145.51 127.40 145.43 127.66 L145.43 127.66 Q145.34 128.52 145.21 129.94 Q145.08 131.35 145.08 132.73 L145.08 132.73 L144.82 135.22 Q144.74 136.34 144.52 137.16 Q144.31 137.98 143.88 138.41 Z M186.02 127.83 L186.02 127.83 Q185.16 126.97 184.64 125.46 Q184.13 123.96 183.61 121.98 L183.61 121.98 Q183.44 121.29 183.48 120.43 Q183.52 119.57 183.44 119.06 L183.44 119.06 Q183.18 119.66 182.62 120.60 Q182.06 121.55 181.55 121.98 L181.55 121.98 Q181.20 122.32 180.00 123.31 Q178.79 124.30 177.59 124.90 L177.59 124.90 Q174.75 126.71 172.56 126.58 Q170.37 126.45 168.73 124.39 L168.73 124.39 Q167.36 123.27 166.50 121.55 Q165.64 119.83 166.15 117.42 L166.15 117.42 Q166.32 114.41 167.01 111.53 Q167.70 108.65 169.85 103.83 L169.85 103.83 Q171.66 100.31 172.60 98.33 Q173.55 96.35 173.81 96.01 L173.81 96.01 Q175.10 95.58 176.99 96.05 Q178.88 96.52 179.05 97.73 L179.05 97.73 Q179.57 98.59 179.05 100.95 Q178.54 103.32 176.99 106.33 L176.99 106.33 Q175.78 109.25 174.71 112.00 Q173.63 114.76 173.42 116.65 Q173.20 118.54 174.41 118.97 L174.41 118.97 Q175.18 119.40 176.69 118.88 Q178.19 118.37 180.26 115.79 Q182.32 113.21 184.64 107.62 L184.64 107.62 Q185.33 105.90 185.67 104.56 Q186.02 103.23 186.10 101.60 L186.10 101.60 Q185.93 100.57 186.66 99.45 Q187.39 98.33 188.43 97.73 L188.43 97.73 Q188.77 97.30 189.37 96.87 L189.37 96.87 Q189.80 96.61 189.97 96.78 L189.97 96.78 Q190.06 96.78 190.15 96.95 L190.15 96.95 L191.52 96.87 Q191.87 96.78 192.30 97.56 Q192.73 98.33 193.16 98.67 L193.16 98.67 Q194.10 99.45 194.02 102.03 Q193.93 104.61 191.95 109.25 L191.95 109.25 Q190.32 112.78 189.76 114.58 Q189.20 116.39 189.11 118.11 L189.11 118.11 Q189.11 119.66 189.37 120.73 Q189.63 121.81 190.92 122.93 L190.92 122.93 Q191.87 123.53 191.99 124.95 Q192.12 126.37 192.04 127.40 L192.04 127.40 Q191.87 128.17 190.70 128.47 Q189.54 128.77 188.21 128.60 Q186.88 128.43 186.02 127.83 Z M197.80 126.54 L197.80 126.54 Q197.11 125.85 196.81 124.47 Q196.51 123.10 196.60 121.77 Q196.68 120.43 197.03 119.74 L197.03 119.74 Q197.03 119.06 197.24 118.67 Q197.46 118.28 197.37 117.94 L197.37 117.94 Q197.28 117.59 197.54 116.73 Q197.80 115.87 198.06 115.10 L198.06 115.10 Q198.66 113.72 199.43 111.53 Q200.21 109.34 200.98 107.06 Q201.76 104.78 202.27 103.10 Q202.79 101.43 202.87 101.08 L202.87 101.08 Q202.87 100.05 204.25 99.96 L204.25 99.96 Q205.28 99.62 206.74 100.82 Q208.21 102.03 209.07 103.40 L209.07 103.40 Q209.75 104.09 209.58 105.21 Q209.41 106.33 208.46 108.39 L208.46 108.39 Q208.12 109.08 207.65 110.67 Q207.17 112.26 207.00 113.29 L207.00 113.29 Q206.66 113.98 206.18 115.23 Q205.71 116.48 205.37 117.59 L205.37 117.59 Q205.20 118.02 205.02 119.19 Q204.85 120.35 204.59 121.55 Q204.34 122.75 203.91 123.44 L203.91 123.44 Q203.13 126.97 201.20 127.57 Q199.26 128.17 197.80 126.54 Z " fill="#1d1c19"></path><defs><mask id="hm2" maskUnits="userSpaceOnUse"><path d="M0,3 C0,-3 -9,-6 -9,-13 C-9,-19 -2,-20 0,-14 C2,-20 9,-19 9,-13 C9,-6 0,-3 0,3 Z" fill="#fff"></path><path d="M-7.5,-8 q2.5,-3.4 5,0 t5,0 t5,0" fill="none" stroke="#000" stroke-width="2.1" stroke-linecap="round"></path></mask></defs><g transform="translate(210.40,95.23) rotate(12) scale(0.940)"><path d="M0,3 C0,-3 -9,-6 -9,-13 C-9,-19 -2,-20 0,-14 C2,-20 9,-19 9,-13 C9,-6 0,-3 0,3 Z" fill="#d23b34" mask="url(#hm2)"></path></g></g></g></svg><path d="M60.45 326.15L58.96 326.15L61.26 317.75L63.77 317.75L66.07 326.15L64.59 326.15L64.08 324.23L60.95 324.23L60.45 326.15ZM62.41 318.65L61.29 322.91L63.75 322.91L62.62 318.65L62.41 318.65Z M75.55 326.15L74.14 326.15L74.14 317.75L76.84 317.75L78.47 325.18L78.68 325.18L80.32 317.75L83.01 317.75L83.01 326.15L81.62 326.15L81.62 318.80L81.41 318.80L79.78 326.15L77.38 326.15L75.75 318.80L75.55 318.80L75.55 326.15Z M93.08 326.15L91.68 326.15L91.68 317.75L94.38 317.75L96.01 325.18L96.21 325.18L97.86 317.75L100.55 317.75L100.55 326.15L99.15 326.15L99.15 318.80L98.95 318.80L97.32 326.15L94.92 326.15L93.29 318.80L93.08 318.80L93.08 326.15Z M114.63 326.15L109.21 326.15L109.21 317.75L114.57 317.75L114.57 319.06L110.67 319.06L110.67 321.27L114.23 321.27L114.23 322.58L110.67 322.58L110.67 324.84L114.63 324.84L114.63 326.15Z M124.34 326.15L122.89 326.15L122.89 317.75L126.47 317.75Q127.27 317.75 127.85 318.03Q128.44 318.30 128.77 318.80Q129.10 319.30 129.10 320.00L129.10 320.00L129.10 320.13Q129.10 320.91 128.73 321.38Q128.36 321.84 127.83 322.06L127.83 322.06L127.83 322.25Q128.30 322.28 128.57 322.58Q128.84 322.88 128.84 323.38L128.84 323.38L128.84 326.15L127.40 326.15L127.40 323.58Q127.40 323.28 127.24 323.10Q127.07 322.91 126.71 322.91L126.71 322.91L124.34 322.91L124.34 326.15ZM124.34 319.06L124.34 321.60L126.33 321.60Q126.95 321.60 127.31 321.27Q127.66 320.94 127.66 320.39L127.66 320.39L127.66 320.28Q127.66 319.72 127.31 319.39Q126.97 319.06 126.33 319.06L126.33 319.06L124.34 319.06Z M140.36 326.32L140.36 326.32Q139.40 326.32 138.66 325.98Q137.93 325.64 137.51 324.99Q137.09 324.34 137.09 323.40L137.09 323.40L137.09 323.09L138.51 323.09L138.51 323.40Q138.51 324.23 139.02 324.64Q139.52 325.05 140.36 325.05L140.36 325.05Q141.21 325.05 141.65 324.70Q142.08 324.35 142.08 323.80L142.08 323.80Q142.08 323.43 141.87 323.19Q141.67 322.96 141.28 322.82Q140.89 322.67 140.34 322.54L140.34 322.54L139.98 322.47Q139.15 322.28 138.54 321.98Q137.94 321.69 137.61 321.22Q137.29 320.75 137.29 320.00L137.29 320.00Q137.29 319.24 137.65 318.70Q138.01 318.16 138.67 317.87Q139.33 317.58 140.22 317.58L140.22 317.58Q141.11 317.58 141.80 317.88Q142.50 318.18 142.90 318.78Q143.30 319.38 143.30 320.28L143.30 320.28L143.30 320.68L141.87 320.68L141.87 320.28Q141.87 319.77 141.67 319.46Q141.47 319.14 141.09 319Q140.72 318.86 140.22 318.86L140.22 318.86Q139.47 318.86 139.09 319.14Q138.71 319.43 138.71 319.96L138.71 319.96Q138.71 320.30 138.88 320.53Q139.05 320.76 139.40 320.91Q139.74 321.06 140.25 321.17L140.25 321.17L140.61 321.26Q141.48 321.45 142.13 321.74Q142.77 322.04 143.14 322.52Q143.51 323.00 143.51 323.76L143.51 323.76Q143.51 324.52 143.12 325.10Q142.73 325.67 142.02 326.00Q141.32 326.32 140.36 326.32Z M157.18 326.15L151.77 326.15L151.77 317.75L157.12 317.75L157.12 319.06L153.22 319.06L153.22 321.27L156.78 321.27L156.78 322.58L153.22 322.58L153.22 324.84L157.18 324.84L157.18 326.15Z M170.85 326.15L165.44 326.15L165.44 317.75L170.79 317.75L170.79 319.06L166.89 319.06L166.89 321.27L170.45 321.27L170.45 322.58L166.89 322.58L166.89 324.84L170.85 324.84L170.85 326.15Z" fill="#c2683f"></path><circle cx="119.8" cy="32.6" r="10" fill="#fff"></circle><circle cx="119.8" cy="32.6" r="10" fill="none" stroke="#c2683f" stroke-width="2.4"></circle><circle cx="119.8" cy="32.6" r="4" fill="#c2683f"></circle></svg>