<svg xmlns="http://www.w3.org/2000/svg" width="1380" height="2040" viewBox="0 0 230 340"><path d="M26.6,15.6 L23.3,9.6 L24.9,5.6 L23.4,3 L19.7,2.1 L14.4,7 L13.1,5.4 L11.2,5.8 L9.4,2 L6.3,1.2 L1.8,-9.1 L-2.9,-41.5 L3.9,-62.7 L2.4,-72.7 L0.6,-75 L-4.9,-74.9 L-12.4,-67.5 L-16.6,-67.1 L-22,-57.2 L-21.6,-53 L-24.3,-47.3 L-23.7,-41.3 L-25.6,-36.4 L-24.6,-30.6 L-25.8,-26.6 L-23.8,-21.8 L-26.6,-12.8 L-26,-9.3 L-22.8,-5.3 L-25.1,0.3 L-23.1,20.5 L-24.3,26.8 L-20.4,36.9 L-20.7,40.6 L-16.7,48.4 L-18.3,54.5 L-17.2,59.2 L-12,60.7 L-10.4,65.3 L-7.5,69.5 L-3,73.5 L2,75 L7,73 L10.5,69.5 L12.3,66.1 L11.7,33.9 L16.2,25.7 L26.6,16.1 Z" fill="#2f7d8a" fill-opacity="0.11" fill-rule="evenodd" transform="translate(115 178) scale(2.00000) translate(0.00 0.00)"></path><path d="M26.6,15.6 L23.3,9.6 L24.9,5.6 L23.4,3 L19.7,2.1 L14.4,7 L13.1,5.4 L11.2,5.8 L9.4,2 L6.3,1.2 L1.8,-9.1 L-2.9,-41.5 L3.9,-62.7 L2.4,-72.7 L0.6,-75 L-4.9,-74.9 L-12.4,-67.5 L-16.6,-67.1 L-22,-57.2 L-21.6,-53 L-24.3,-47.3 L-23.7,-41.3 L-25.6,-36.4 L-24.6,-30.6 L-25.8,-26.6 L-23.8,-21.8 L-26.6,-12.8 L-26,-9.3 L-22.8,-5.3 L-25.1,0.3 L-23.1,20.5 L-24.3,26.8 L-20.4,36.9 L-20.7,40.6 L-16.7,48.4 L-18.3,54.5 L-17.2,59.2 L-12,60.7 L-10.4,65.3 L-7.5,69.5 L-3,73.5 L2,75 L7,73 L10.5,69.5 L12.3,66.1 L11.7,33.9 L16.2,25.7 L26.6,16.1 Z" fill="none" stroke="#2f7d8a" stroke-opacity="0.5" stroke-width="0.90" stroke-linejoin="round" stroke-linecap="round" transform="translate(115 178) scale(2.00000) translate(0.00 0.00)"></path><path d="M62.24 82.61L62.24 82.61Q59.24 82.61 56.95 81.54Q54.65 80.46 53.36 78.47Q52.06 76.47 52.06 73.66L52.06 73.66L52.06 72.62L56.87 72.62L56.87 73.66Q56.87 75.99 58.32 77.15Q59.76 78.32 62.24 78.32L62.24 78.32Q64.75 78.32 65.99 77.32Q67.23 76.32 67.23 74.77L67.23 74.77Q67.23 73.69 66.62 73.03Q66.01 72.36 64.85 71.94Q63.68 71.51 62.02 71.14L62.02 71.14L61.17 70.95Q58.50 70.36 56.60 69.46Q54.69 68.55 53.67 67.07Q52.66 65.59 52.66 63.22L52.66 63.22Q52.66 60.85 53.78 59.17Q54.91 57.49 56.97 56.58Q59.02 55.67 61.79 55.67L61.79 55.67Q64.57 55.67 66.73 56.62Q68.90 57.56 70.14 59.43Q71.38 61.30 71.38 64.11L71.38 64.11L71.38 65.22L66.57 65.22L66.57 64.11Q66.57 62.63 65.99 61.72Q65.42 60.82 64.35 60.39Q63.27 59.97 61.79 59.97L61.79 59.97Q59.57 59.97 58.52 60.80Q57.47 61.63 57.47 63.07L57.47 63.07Q57.47 64.04 57.96 64.70Q58.46 65.37 59.46 65.81Q60.46 66.26 62.02 66.59L62.02 66.59L62.87 66.77Q65.64 67.37 67.70 68.29Q69.75 69.22 70.90 70.73Q72.04 72.25 72.04 74.62L72.04 74.62Q72.04 76.99 70.84 78.78Q69.64 80.57 67.44 81.59Q65.24 82.61 62.24 82.61Z M88.03 82.09L82.85 82.09Q81.03 82.09 79.91 80.96Q78.78 79.83 78.78 77.95L78.78 77.95L78.78 67.59L74.19 67.59L74.19 63.74L78.78 63.74L78.78 58.04L83.44 58.04L83.44 63.74L88.47 63.74L88.47 67.59L83.44 67.59L83.44 77.13Q83.44 78.24 84.48 78.24L84.48 78.24L88.03 78.24L88.03 82.09Z M101.05 82.61L101.05 82.61Q98.31 82.61 96.22 81.44Q94.13 80.28 92.97 78.15Q91.80 76.02 91.80 73.14L91.80 73.14L91.80 72.69Q91.80 69.81 92.95 67.68Q94.09 65.55 96.17 64.39Q98.24 63.22 100.98 63.22L100.98 63.22Q103.68 63.22 105.68 64.42Q107.67 65.63 108.78 67.75Q109.89 69.88 109.89 72.69L109.89 72.69L109.89 74.28L96.54 74.28Q96.61 76.17 97.94 77.36Q99.28 78.54 101.20 78.54L101.20 78.54Q103.16 78.54 104.09 77.69Q105.01 76.84 105.49 75.80L105.49 75.80L109.30 77.80Q108.78 78.76 107.80 79.89Q106.82 81.02 105.20 81.81Q103.57 82.61 101.05 82.61ZM96.57 70.81L96.57 70.81L105.16 70.81Q105.01 69.22 103.88 68.25Q102.75 67.29 100.94 67.29L100.94 67.29Q99.05 67.29 97.94 68.25Q96.83 69.22 96.57 70.81Z M113.15 72.99L113.15 72.99L113.15 72.40Q113.15 69.51 114.30 67.46Q115.44 65.40 117.35 64.31Q119.26 63.22 121.51 63.22L121.51 63.22Q124.03 63.22 125.32 64.11Q126.62 65.00 127.21 65.96L127.21 65.96L127.88 65.96L127.88 63.74L132.46 63.74L132.46 85.35Q132.46 87.23 131.35 88.36Q130.24 89.49 128.39 89.49L128.39 89.49L116.11 89.49L116.11 85.42L126.77 85.42Q127.80 85.42 127.80 84.31L127.80 84.31L127.80 79.54L127.14 79.54Q126.77 80.13 126.10 80.74Q125.43 81.35 124.32 81.76Q123.21 82.17 121.51 82.17L121.51 82.17Q119.26 82.17 117.35 81.07Q115.44 79.98 114.30 77.93Q113.15 75.88 113.15 72.99ZM122.84 78.10L122.84 78.10Q124.99 78.10 126.43 76.73Q127.88 75.36 127.88 72.88L127.88 72.88L127.88 72.51Q127.88 69.99 126.45 68.64Q125.03 67.29 122.84 67.29L122.84 67.29Q120.70 67.29 119.26 68.64Q117.81 69.99 117.81 72.51L117.81 72.51L117.81 72.88Q117.81 75.36 119.26 76.73Q120.70 78.10 122.84 78.10Z M146.01 82.61L146.01 82.61Q143.27 82.61 141.18 81.44Q139.09 80.28 137.92 78.15Q136.76 76.02 136.76 73.14L136.76 73.14L136.76 72.69Q136.76 69.81 137.90 67.68Q139.05 65.55 141.12 64.39Q143.19 63.22 145.93 63.22L145.93 63.22Q148.63 63.22 150.63 64.42Q152.63 65.63 153.74 67.75Q154.85 69.88 154.85 72.69L154.85 72.69L154.85 74.28L141.49 74.28Q141.57 76.17 142.90 77.36Q144.23 78.54 146.15 78.54L146.15 78.54Q148.12 78.54 149.04 77.69Q149.97 76.84 150.45 75.80L150.45 75.80L154.26 77.80Q153.74 78.76 152.76 79.89Q151.78 81.02 150.15 81.81Q148.52 82.61 146.01 82.61ZM141.53 70.81L141.53 70.81L150.11 70.81Q149.97 69.22 148.84 68.25Q147.71 67.29 145.90 67.29L145.90 67.29Q144.01 67.29 142.90 68.25Q141.79 69.22 141.53 70.81Z M163.66 82.09L158.99 82.09L158.99 63.74L163.58 63.74L163.58 66.14L164.25 66.14Q164.69 65.18 165.91 64.31Q167.13 63.44 169.61 63.44L169.61 63.44Q171.76 63.44 173.37 64.42Q174.98 65.40 175.86 67.13Q176.75 68.85 176.75 71.14L176.75 71.14L176.75 82.09L172.09 82.09L172.09 71.51Q172.09 69.44 171.07 68.40Q170.06 67.37 168.17 67.37L168.17 67.37Q166.02 67.37 164.84 68.79Q163.66 70.21 163.66 72.77L163.66 72.77L163.66 82.09Z" fill="#1d1c19"></path><path d="M54.95 106.51L54.95 106.51Q54.04 106.51 53.26 106.06Q52.48 105.61 52.00 104.76Q51.53 103.91 51.53 102.71L51.53 102.71L51.53 102.49Q51.53 101.30 52.00 100.45Q52.46 99.59 53.24 99.14Q54.02 98.69 54.95 98.69L54.95 98.69Q55.67 98.69 56.16 98.87Q56.65 99.05 56.96 99.33Q57.28 99.61 57.44 99.91L57.44 99.91L57.68 99.91L57.68 95.80L59.23 95.80L59.23 106.30L57.71 106.30L57.71 105.25L57.47 105.25Q57.19 105.73 56.61 106.12Q56.03 106.51 54.95 106.51ZM55.39 105.16L55.39 105.16Q56.39 105.16 57.04 104.51Q57.70 103.87 57.70 102.67L57.70 102.67L57.70 102.53Q57.70 101.35 57.05 100.70Q56.41 100.06 55.39 100.06L55.39 100.06Q54.40 100.06 53.74 100.70Q53.09 101.35 53.09 102.53L53.09 102.53L53.09 102.67Q53.09 103.87 53.74 104.51Q54.40 105.16 55.39 105.16Z M64.80 106.51L64.80 106.51Q64.01 106.51 63.38 106.24Q62.76 105.97 62.39 105.44Q62.03 104.92 62.03 104.17L62.03 104.17Q62.03 103.40 62.39 102.90Q62.76 102.40 63.40 102.14Q64.04 101.89 64.85 101.89L64.85 101.89L67.10 101.89L67.10 101.41Q67.10 100.76 66.71 100.37Q66.32 99.98 65.51 99.98L65.51 99.98Q64.71 99.98 64.29 100.36Q63.87 100.73 63.74 101.33L63.74 101.33L62.30 100.87Q62.48 100.27 62.88 99.78Q63.27 99.29 63.93 98.99Q64.59 98.69 65.52 98.69L65.52 98.69Q66.96 98.69 67.79 99.43Q68.61 100.16 68.61 101.51L68.61 101.51L68.61 104.56Q68.61 105.01 69.03 105.01L69.03 105.01L69.66 105.01L69.66 106.30L68.51 106.30Q67.98 106.30 67.65 106.03Q67.32 105.76 67.32 105.29L67.32 105.29L67.32 105.25L67.10 105.25Q66.98 105.47 66.74 105.77Q66.50 106.07 66.03 106.29Q65.57 106.51 64.80 106.51ZM65.03 105.23L65.03 105.23Q65.96 105.23 66.53 104.70Q67.10 104.17 67.10 103.24L67.10 103.24L67.10 103.09L64.94 103.09Q64.32 103.09 63.95 103.35Q63.57 103.61 63.57 104.12L63.57 104.12Q63.57 104.63 63.96 104.93Q64.35 105.23 65.03 105.23Z  M81.26 106.51L81.26 106.51Q80.18 106.51 79.60 106.12Q79.03 105.73 78.74 105.25L78.74 105.25L78.50 105.25L78.50 106.30L76.99 106.30L76.99 95.80L78.53 95.80L78.53 99.91L78.77 99.91Q78.95 99.61 79.25 99.33Q79.55 99.05 80.05 98.87Q80.54 98.69 81.26 98.69L81.26 98.69Q82.19 98.69 82.97 99.14Q83.75 99.59 84.22 100.45Q84.68 101.30 84.68 102.49L84.68 102.49L84.68 102.71Q84.68 103.91 84.21 104.76Q83.74 105.61 82.97 106.06Q82.19 106.51 81.26 106.51ZM80.81 105.16L80.81 105.16Q81.82 105.16 82.47 104.51Q83.12 103.87 83.12 102.67L83.12 102.67L83.12 102.53Q83.12 101.35 82.48 100.70Q81.83 100.06 80.81 100.06L80.81 100.06Q79.82 100.06 79.17 100.70Q78.52 101.35 78.52 102.53L78.52 102.53L78.52 102.67Q78.52 103.87 79.17 104.51Q79.82 105.16 80.81 105.16Z M89.15 106.30L87.60 106.30L87.60 98.90L89.15 98.90L89.15 106.30ZM88.38 97.90L88.38 97.90Q87.93 97.90 87.62 97.61Q87.32 97.31 87.32 96.85L87.32 96.85Q87.32 96.38 87.62 96.09Q87.93 95.80 88.38 95.80L88.38 95.80Q88.85 95.80 89.15 96.09Q89.45 96.38 89.45 96.85L89.45 96.85Q89.45 97.31 89.15 97.61Q88.85 97.90 88.38 97.90Z M93.99 106.30L92.44 106.30L92.44 98.90L93.96 98.90L93.96 100.01L94.20 100.01Q94.41 99.56 94.95 99.17Q95.49 98.78 96.55 98.78L96.55 98.78Q97.39 98.78 98.04 99.16Q98.70 99.53 99.07 100.22Q99.45 100.90 99.45 101.86L99.45 101.86L99.45 106.30L97.90 106.30L97.90 101.98Q97.90 101.02 97.42 100.56Q96.94 100.10 96.10 100.10L96.10 100.10Q95.14 100.10 94.56 100.73Q93.99 101.36 93.99 102.56L93.99 102.56L93.99 106.30Z  M109.04 106.30L107.49 106.30L107.49 98.90L109.04 98.90L109.04 106.30ZM108.27 97.90L108.27 97.90Q107.82 97.90 107.51 97.61Q107.21 97.31 107.21 96.85L107.21 96.85Q107.21 96.38 107.51 96.09Q107.82 95.80 108.27 95.80L108.27 95.80Q108.74 95.80 109.04 96.09Q109.34 96.38 109.34 96.85L109.34 96.85Q109.34 97.31 109.04 97.61Q108.74 97.90 108.27 97.90Z  M120.22 106.51L120.22 106.51Q119.30 106.51 118.52 106.06Q117.74 105.61 117.27 104.76Q116.80 103.91 116.80 102.71L116.80 102.71L116.80 102.49Q116.80 101.30 117.26 100.45Q117.73 99.59 118.51 99.14Q119.29 98.69 120.22 98.69L120.22 98.69Q120.94 98.69 121.42 98.87Q121.91 99.05 122.23 99.33Q122.54 99.61 122.71 99.91L122.71 99.91L122.95 99.91L122.95 95.80L124.49 95.80L124.49 106.30L122.98 106.30L122.98 105.25L122.74 105.25Q122.45 105.73 121.88 106.12Q121.30 106.51 120.22 106.51ZM120.65 105.16L120.65 105.16Q121.66 105.16 122.31 104.51Q122.96 103.87 122.96 102.67L122.96 102.67L122.96 102.53Q122.96 101.35 122.32 100.70Q121.67 100.06 120.65 100.06L120.65 100.06Q119.66 100.06 119.01 100.70Q118.36 101.35 118.36 102.53L118.36 102.53L118.36 102.67Q118.36 103.87 119.01 104.51Q119.66 105.16 120.65 105.16Z M130.07 106.51L130.07 106.51Q129.27 106.51 128.65 106.24Q128.03 105.97 127.66 105.44Q127.29 104.92 127.29 104.17L127.29 104.17Q127.29 103.40 127.66 102.90Q128.03 102.40 128.66 102.14Q129.30 101.89 130.11 101.89L130.11 101.89L132.36 101.89L132.36 101.41Q132.36 100.76 131.97 100.37Q131.58 99.98 130.77 99.98L130.77 99.98Q129.98 99.98 129.56 100.36Q129.14 100.73 129.00 101.33L129.00 101.33L127.56 100.87Q127.74 100.27 128.14 99.78Q128.54 99.29 129.20 98.99Q129.86 98.69 130.79 98.69L130.79 98.69Q132.23 98.69 133.05 99.43Q133.88 100.16 133.88 101.51L133.88 101.51L133.88 104.56Q133.88 105.01 134.30 105.01L134.30 105.01L134.93 105.01L134.93 106.30L133.77 106.30Q133.25 106.30 132.92 106.03Q132.59 105.76 132.59 105.29L132.59 105.29L132.59 105.25L132.36 105.25Q132.24 105.47 132.00 105.77Q131.76 106.07 131.30 106.29Q130.83 106.51 130.07 106.51ZM130.29 105.23L130.29 105.23Q131.22 105.23 131.79 104.70Q132.36 104.17 132.36 103.24L132.36 103.24L132.36 103.09L130.20 103.09Q129.59 103.09 129.21 103.35Q128.84 103.61 128.84 104.12L128.84 104.12Q128.84 104.63 129.23 104.93Q129.62 105.23 130.29 105.23Z M138.97 106.30L137.43 106.30L137.43 95.80L138.97 95.80L138.97 99.95L139.21 99.95Q139.36 99.67 139.64 99.40Q139.92 99.13 140.38 98.96Q140.83 98.78 141.54 98.78L141.54 98.78Q142.38 98.78 143.03 99.16Q143.68 99.53 144.06 100.22Q144.43 100.90 144.43 101.86L144.43 101.86L144.43 106.30L142.89 106.30L142.89 101.98Q142.89 101.02 142.41 100.56Q141.93 100.10 141.09 100.10L141.09 100.10Q140.13 100.10 139.55 100.73Q138.97 101.36 138.97 102.56L138.97 102.56L138.97 106.30Z M151.12 106.51L151.12 106.51Q150.01 106.51 149.14 106.05Q148.28 105.59 147.79 104.74Q147.29 103.88 147.29 102.71L147.29 102.71L147.29 102.49Q147.29 101.32 147.79 100.47Q148.28 99.62 149.14 99.16Q150.01 98.69 151.12 98.69L151.12 98.69Q152.23 98.69 153.10 99.16Q153.97 99.62 154.46 100.47Q154.96 101.32 154.96 102.49L154.96 102.49L154.96 102.71Q154.96 103.88 154.46 104.74Q153.97 105.59 153.10 106.05Q152.23 106.51 151.12 106.51ZM151.12 105.13L151.12 105.13Q152.14 105.13 152.77 104.48Q153.41 103.82 153.41 102.67L153.41 102.67L153.41 102.53Q153.41 101.38 152.78 100.73Q152.15 100.07 151.12 100.07L151.12 100.07Q150.11 100.07 149.47 100.73Q148.84 101.38 148.84 102.53L148.84 102.53L148.84 102.67Q148.84 103.82 149.47 104.48Q150.11 105.13 151.12 105.13Z M160.17 106.51L160.17 106.51Q159.38 106.51 158.75 106.24Q158.13 105.97 157.76 105.44Q157.40 104.92 157.40 104.17L157.40 104.17Q157.40 103.40 157.76 102.90Q158.13 102.40 158.77 102.14Q159.41 101.89 160.22 101.89L160.22 101.89L162.47 101.89L162.47 101.41Q162.47 100.76 162.08 100.37Q161.69 99.98 160.88 99.98L160.88 99.98Q160.08 99.98 159.66 100.36Q159.24 100.73 159.11 101.33L159.11 101.33L157.67 100.87Q157.85 100.27 158.24 99.78Q158.64 99.29 159.30 98.99Q159.96 98.69 160.89 98.69L160.89 98.69Q162.33 98.69 163.16 99.43Q163.98 100.16 163.98 101.51L163.98 101.51L163.98 104.56Q163.98 105.01 164.40 105.01L164.40 105.01L165.03 105.01L165.03 106.30L163.88 106.30Q163.35 106.30 163.02 106.03Q162.69 105.76 162.69 105.29L162.69 105.29L162.69 105.25L162.47 105.25Q162.35 105.47 162.11 105.77Q161.87 106.07 161.40 106.29Q160.94 106.51 160.17 106.51ZM160.40 105.23L160.40 105.23Q161.33 105.23 161.90 104.70Q162.47 104.17 162.47 103.24L162.47 103.24L162.47 103.09L160.31 103.09Q159.69 103.09 159.32 103.35Q158.94 103.61 158.94 104.12L158.94 104.12Q158.94 104.63 159.33 104.93Q159.72 105.23 160.40 105.23Z M169.08 106.30L167.53 106.30L167.53 98.90L169.05 98.90L169.05 99.77L169.29 99.77Q169.50 99.38 169.96 99.08Q170.43 98.78 171.22 98.78L171.22 98.78Q172.05 98.78 172.55 99.12Q173.05 99.46 173.31 99.98L173.31 99.98L173.55 99.98Q173.80 99.47 174.29 99.13Q174.78 98.78 175.68 98.78L175.68 98.78Q176.40 98.78 176.95 99.08Q177.51 99.37 177.84 99.95Q178.17 100.52 178.17 101.38L178.17 101.38L178.17 106.30L176.62 106.30L176.62 101.50Q176.62 100.82 176.25 100.46Q175.89 100.09 175.21 100.09L175.21 100.09Q174.49 100.09 174.06 100.55Q173.62 101.02 173.62 101.89L173.62 101.89L173.62 106.30L172.08 106.30L172.08 101.50Q172.08 100.82 171.71 100.46Q171.34 100.09 170.67 100.09L170.67 100.09Q169.95 100.09 169.51 100.55Q169.08 101.02 169.08 101.89L169.08 101.89L169.08 106.30Z" fill="#1d1c19" fill-opacity="0.7"></path><svg x="-17.50" y="135.87" width="258.46" height="132.82" viewBox="0 0 360 185" overflow="visible"><g fill="#1d1c19"><g transform="translate(64.98,0)"><path d="M22.88 133.59 L22.88 133.59 Q21.33 133.16 20.38 132.82 L20.38 132.82 L19.44 132.56 Q19.61 132.13 19.31 131.78 Q19.01 131.44 18.06 131.35 L18.06 131.35 Q16.77 130.49 15.39 128.95 Q14.02 127.40 12.99 125.76 Q11.95 124.13 11.61 123.36 L11.61 123.36 Q11.18 122.32 11.44 121.98 L11.44 121.98 Q11.52 121.81 11.70 121.72 L11.70 121.72 Q12.38 121.46 13.33 121.03 L13.33 121.03 Q14.28 120.35 15.35 120.00 Q16.43 119.66 17.11 121.12 L17.11 121.12 Q18.23 123.10 20.60 124.47 Q22.96 125.85 26.02 126.11 Q29.07 126.37 32.16 125.08 L32.16 125.08 Q34.23 124.13 34.40 122.45 Q34.57 120.78 33.11 118.54 L33.11 118.54 Q32.85 117.85 32.38 117.42 Q31.91 116.99 31.00 116.30 Q30.10 115.62 28.47 114.07 L28.47 114.07 Q27.18 113.47 26.10 112.95 Q25.03 112.43 23.82 111.83 L23.82 111.83 Q22.45 111.14 20.73 109.90 Q19.01 108.65 17.54 107.14 Q16.08 105.64 15.31 104.26 L15.31 104.26 Q13.93 102.97 13.59 100.69 Q13.24 98.42 13.72 95.84 Q14.19 93.26 15.31 91.19 L15.31 91.19 Q15.82 89.99 17.20 88.05 Q18.58 86.12 20.30 84.05 Q22.02 81.99 23.61 80.31 Q25.20 78.64 26.14 78.03 L26.14 78.03 Q26.83 77.35 27.61 76.57 L27.61 76.57 L28.38 75.88 Q28.47 75.45 28.72 75.45 L28.72 75.45 L28.90 75.45 Q29.33 75.20 30.79 74.59 Q32.25 73.99 33.97 72.36 L33.97 72.36 Q39.73 69.61 43.77 68.62 Q47.82 67.63 50.14 67.63 L50.14 67.63 Q52.29 67.71 54.35 68.79 Q56.42 69.86 57.92 71.50 Q59.43 73.13 59.68 75.20 L59.68 75.20 Q60.29 77.26 59.13 80.14 Q57.96 83.02 55.94 85.56 Q53.92 88.10 51.77 89.30 L51.77 89.30 Q49.36 90.33 47.69 89.56 Q46.01 88.78 46.10 87.15 L46.10 87.15 Q46.10 86.46 46.57 85.52 Q47.04 84.57 49.19 82.16 L49.19 82.16 Q51.94 78.12 52.12 76.40 Q52.29 74.68 50.57 74.42 L50.57 74.42 Q50.05 74.25 48.59 74.51 Q47.13 74.77 45.45 75.15 Q43.77 75.54 42.53 75.97 Q41.28 76.40 41.28 76.57 L41.28 76.57 L41.28 76.83 Q41.28 76.92 41.19 77.00 L41.19 77.00 Q41.19 77.09 40.94 77.00 L40.94 77.00 Q40.76 77.00 39.78 77.56 Q38.79 78.12 37.41 78.98 Q36.03 79.84 34.70 80.74 Q33.37 81.65 32.42 82.33 Q31.48 83.02 31.39 83.19 L31.39 83.19 Q31.22 84.14 29.41 84.91 L29.41 84.91 Q27.69 85.95 26.40 87.84 Q25.11 89.73 23.39 92.65 L23.39 92.65 Q21.93 94.63 21.33 96.91 Q20.73 99.19 21.33 100.57 L21.33 100.57 Q21.76 101.94 23.69 103.28 Q25.63 104.61 28.98 106.59 L28.98 106.59 Q31.91 108.22 34.49 110.03 Q37.07 111.83 38.87 113.51 Q40.68 115.19 41.19 116.30 L41.19 116.30 Q42.23 117.77 42.44 119.66 Q42.66 121.55 42.44 123.31 Q42.23 125.08 41.88 126.19 L41.88 126.19 Q41.28 127.57 40.03 129.12 Q38.79 130.67 37.75 130.58 L37.75 130.58 Q36.81 130.84 36.34 131.18 Q35.86 131.53 35.26 131.78 L35.26 131.78 Q34.66 132.13 32.42 132.60 Q30.19 133.07 27.52 133.38 Q24.85 133.68 22.88 133.59 Z M67.77 126.28 L67.77 126.28 Q65.19 127.74 62.31 127.96 Q59.43 128.17 56.93 127.18 Q54.44 126.19 52.89 124.22 L52.89 124.22 Q52.03 123.10 51.26 120.65 Q50.48 118.20 51.00 113.98 L51.00 113.98 Q51.51 110.03 53.45 105.98 Q55.38 101.94 58.22 98.85 Q61.06 95.75 64.41 94.63 L64.41 94.63 Q65.62 94.20 66.86 93.99 Q68.11 93.77 70.18 93.94 L70.18 93.94 Q72.15 94.20 73.70 94.93 Q75.25 95.66 75.94 96.52 L75.94 96.52 Q77.31 97.90 77.74 99.19 Q78.17 100.48 78.09 101.68 L78.09 101.68 Q77.66 104.44 75.64 107.62 Q73.62 110.80 70.00 112.35 L70.00 112.35 Q68.54 112.95 66.56 113.12 Q64.59 113.29 61.15 112.61 L61.15 112.61 Q59.08 112.18 58.44 113.04 Q57.79 113.90 57.88 116.39 L57.88 116.39 Q58.05 117.94 58.61 119.10 Q59.17 120.26 60.72 120.69 L60.72 120.69 Q62.69 121.03 63.55 120.73 Q64.41 120.43 65.70 119.83 L65.70 119.83 Q66.39 119.40 67.08 118.88 L67.08 118.88 L68.37 117.85 Q68.97 117.34 69.40 117.08 L69.40 117.08 Q69.83 116.73 70.26 116.65 Q70.69 116.56 71.12 116.56 L71.12 116.56 Q72.07 116.65 72.93 117.59 Q73.79 118.54 74.05 119.40 L74.05 119.40 Q74.05 120.09 73.19 121.33 Q72.33 122.58 70.91 123.92 Q69.49 125.25 67.77 126.28 Z M66.65 107.10 L66.65 107.10 Q67.25 106.84 68.41 105.90 Q69.57 104.95 70.52 103.88 Q71.47 102.80 71.47 102.20 L71.47 102.20 Q71.47 101.25 70.22 100.57 Q68.97 99.88 66.99 100.31 L66.99 100.31 Q66.31 100.48 65.36 101.25 Q64.41 102.03 63.47 103.02 Q62.52 104.01 61.83 104.91 Q61.15 105.81 60.89 106.33 L60.89 106.33 Q61.23 106.76 62.26 107.02 Q63.30 107.27 64.54 107.27 Q65.79 107.27 66.65 107.10 Z M96.49 126.28 L96.49 126.28 Q93.91 127.74 91.03 127.96 Q88.15 128.17 85.66 127.18 Q83.16 126.19 81.61 124.22 L81.61 124.22 Q80.75 123.10 79.98 120.65 Q79.21 118.20 79.72 113.98 L79.72 113.98 Q80.24 110.03 82.17 105.98 Q84.11 101.94 86.95 98.85 Q89.78 95.75 93.14 94.63 L93.14 94.63 Q94.34 94.20 95.59 93.99 Q96.84 93.77 98.90 93.94 L98.90 93.94 Q100.88 94.20 102.43 94.93 Q103.97 95.66 104.66 96.52 L104.66 96.52 Q106.04 97.90 106.47 99.19 Q106.90 100.48 106.81 101.68 L106.81 101.68 Q106.38 104.44 104.36 107.62 Q102.34 110.80 98.73 112.35 L98.73 112.35 Q97.27 112.95 95.29 113.12 Q93.31 113.29 89.87 112.61 L89.87 112.61 Q87.81 112.18 87.16 113.04 Q86.52 113.90 86.60 116.39 L86.60 116.39 Q86.77 117.94 87.33 119.10 Q87.89 120.26 89.44 120.69 L89.44 120.69 Q91.42 121.03 92.28 120.73 Q93.14 120.43 94.43 119.83 L94.43 119.83 Q95.12 119.40 95.80 118.88 L95.80 118.88 L97.09 117.85 Q97.70 117.34 98.13 117.08 L98.13 117.08 Q98.56 116.73 98.99 116.65 Q99.42 116.56 99.85 116.56 L99.85 116.56 Q100.79 116.65 101.65 117.59 Q102.51 118.54 102.77 119.40 L102.77 119.40 Q102.77 120.09 101.91 121.33 Q101.05 122.58 99.63 123.92 Q98.21 125.25 96.49 126.28 Z M95.37 107.10 L95.37 107.10 Q95.98 106.84 97.14 105.90 Q98.30 104.95 99.24 103.88 Q100.19 102.80 100.19 102.20 L100.19 102.20 Q100.19 101.25 98.94 100.57 Q97.70 99.88 95.72 100.31 L95.72 100.31 Q95.03 100.48 94.08 101.25 Q93.14 102.03 92.19 103.02 Q91.25 104.01 90.56 104.91 Q89.87 105.81 89.61 106.33 L89.61 106.33 Q89.96 106.76 90.99 107.02 Q92.02 107.27 93.27 107.27 Q94.51 107.27 95.37 107.10 Z M118.42 145.20 L118.42 145.20 Q116.01 146.15 113.39 144.90 Q110.77 143.65 108.88 140.99 L108.88 140.99 Q108.53 140.47 107.84 139.14 Q107.16 137.80 106.51 136.26 Q105.87 134.71 105.56 133.59 Q105.26 132.47 105.52 132.30 L105.52 132.30 Q105.87 131.35 107.07 131.18 Q108.27 131.01 109.48 131.31 Q110.68 131.61 110.85 132.13 L110.85 132.13 Q111.11 132.73 111.37 133.38 Q111.63 134.02 112.01 134.58 Q112.40 135.14 112.75 135.57 L112.75 135.57 Q113.69 137.03 114.81 137.59 Q115.93 138.15 116.53 137.72 L116.53 137.72 Q117.99 136.60 118.72 135.09 Q119.45 133.59 120.66 129.81 L120.66 129.81 Q121.60 126.62 122.29 124.30 Q122.98 121.98 123.75 120.00 L123.75 120.00 Q124.01 118.97 124.44 118.20 L124.44 118.20 Q124.53 118.02 124.61 117.85 L124.61 117.85 Q123.41 118.71 122.46 119.57 L122.46 119.57 Q121.17 120.78 118.94 121.72 L118.94 121.72 Q118.42 122.32 116.40 122.45 Q114.38 122.58 112.49 121.98 L112.49 121.98 Q111.28 121.29 110.55 120.56 Q109.82 119.83 109.35 118.88 Q108.88 117.94 108.36 116.65 L108.36 116.65 Q107.76 115.36 108.19 112.43 Q108.62 109.51 109.74 106.59 L109.74 106.59 Q110.77 104.44 112.75 101.94 Q114.72 99.45 116.96 97.43 Q119.20 95.41 121.00 94.89 L121.00 94.89 Q121.69 94.55 123.41 94.07 Q125.13 93.60 126.68 94.03 L126.68 94.03 Q128.14 94.20 128.91 94.67 Q129.69 95.15 131.41 96.61 L131.41 96.61 Q132.53 97.73 134.16 99.49 Q135.79 101.25 136.22 102.46 L136.22 102.46 Q136.83 103.75 136.48 105.25 Q136.14 106.76 135.28 107.88 L135.28 107.88 Q134.50 108.99 133.64 110.11 Q132.78 111.23 132.35 113.21 L132.35 113.21 Q131.92 115.79 130.72 119.01 Q129.52 122.24 128.83 124.99 L128.83 124.99 L127.45 130.32 Q125.30 137.63 122.72 140.94 Q120.14 144.25 118.42 145.20 Z M116.62 115.62 L116.62 115.62 Q118.34 115.53 119.58 115.23 Q120.83 114.93 121.95 113.85 Q123.07 112.78 124.53 110.54 L124.53 110.54 Q125.99 108.48 126.59 106.76 Q127.19 105.04 127.02 102.89 L127.02 102.89 Q126.94 101.51 126.25 101.08 Q125.56 100.65 124.44 100.82 L124.44 100.82 Q122.81 101.08 121.52 102.16 Q120.23 103.23 118.51 105.47 L118.51 105.47 Q117.22 107.19 116.36 109.60 L116.36 109.60 Q115.50 112.18 115.63 113.72 Q115.76 115.27 116.62 115.62 Z M143.88 138.41 L143.88 138.41 Q143.36 138.75 141.56 137.59 Q139.75 136.43 138.55 135.05 L138.55 135.05 Q137.94 134.36 137.77 133.59 Q137.60 132.82 137.86 130.67 L137.86 130.67 Q138.20 129.72 138.24 128.86 Q138.29 128.00 138.29 127.66 L138.29 127.66 Q138.29 127.14 138.59 125.25 Q138.89 123.36 139.23 121.25 Q139.58 119.14 139.84 118.02 L139.84 118.02 Q139.84 117.94 139.96 117.42 Q140.09 116.91 140.18 116.65 L140.18 116.65 Q140.35 115.87 140.61 114.76 Q140.87 113.64 141.13 111.75 L141.13 111.75 Q141.81 109.60 142.29 107.49 Q142.76 105.38 142.76 104.61 L142.76 104.61 Q142.76 103.06 143.96 102.37 L143.96 102.37 Q144.05 101.94 144.48 101.04 Q144.91 100.14 145.25 99.53 L145.25 99.53 Q146.97 94.63 148.09 91.71 Q149.21 88.78 150.41 86.63 L150.41 86.63 Q150.93 85.17 151.57 83.62 Q152.22 82.08 152.91 81.22 L152.91 81.22 Q153.51 80.01 155.01 78.25 Q156.52 76.49 158.24 74.85 Q159.96 73.22 160.99 72.44 L160.99 72.44 Q162.88 71.50 164.52 70.90 Q166.15 70.29 167.96 70.29 L167.96 70.29 Q169.59 70.29 170.84 71.03 Q172.09 71.76 174.58 73.99 L174.58 73.99 Q175.44 75.11 175.44 76.14 Q175.44 77.17 175.01 77.86 L175.01 77.86 Q174.41 79.24 173.20 81.26 Q172.00 83.28 170.88 84.87 Q169.76 86.46 169.25 86.55 L169.25 86.55 Q168.22 87.15 167.10 86.89 Q165.98 86.63 165.98 85.34 L165.98 85.34 Q165.98 84.74 166.07 84.23 L166.07 84.23 L166.07 83.71 Q166.32 82.59 166.71 81.73 Q167.10 80.87 167.44 80.27 L167.44 80.27 Q168.13 79.15 167.83 78.12 Q167.53 77.09 165.64 77.26 L165.64 77.26 Q165.38 77.43 164.65 78.08 Q163.92 78.72 163.10 79.54 Q162.28 80.36 161.68 81.09 Q161.08 81.82 161.08 82.08 L161.08 82.08 L160.65 82.94 Q160.13 83.88 159.19 85.00 L159.19 85.00 Q158.58 85.86 158.15 86.63 Q157.72 87.41 157.72 87.84 L157.72 87.84 Q157.72 88.18 157.64 88.44 Q157.55 88.70 157.21 88.70 L157.21 88.70 L156.95 89.56 Q156.61 90.42 155.92 91.62 L155.92 91.62 Q155.57 92.48 155.19 93.21 Q154.80 93.94 154.46 94.29 L154.46 94.29 L154.37 94.46 L154.03 95.41 Q153.60 96.44 153.17 97.47 Q152.74 98.50 152.74 98.67 L152.74 98.67 Q152.74 99.02 153.77 99.02 Q154.80 99.02 156.26 98.72 Q157.72 98.42 159.10 98.07 L159.10 98.07 Q160.30 97.73 160.82 97.73 Q161.34 97.73 162.45 98.07 L162.45 98.07 Q163.14 98.50 163.57 99.58 Q164.00 100.65 164.22 101.73 Q164.43 102.80 164.26 103.32 L164.26 103.32 Q164.17 103.66 162.32 104.26 Q160.48 104.87 158.67 105.21 L158.67 105.21 Q157.12 105.55 155.19 105.94 Q153.25 106.33 151.79 106.72 Q150.33 107.10 150.24 107.45 L150.24 107.45 Q149.90 107.45 149.68 107.88 Q149.47 108.31 149.47 108.65 L149.47 108.65 Q149.47 109.77 149.04 110.46 L149.04 110.46 Q148.87 110.97 148.48 112.56 Q148.09 114.15 147.70 116.00 Q147.32 117.85 147.02 119.44 Q146.72 121.03 146.72 121.55 L146.72 121.55 Q146.20 122.15 146.11 123.06 Q146.03 123.96 146.03 124.65 L146.03 124.65 Q145.68 125.33 145.60 125.89 Q145.51 126.45 145.51 126.80 L145.51 126.80 L145.51 127.14 Q145.51 127.40 145.43 127.66 L145.43 127.66 Q145.34 128.52 145.21 129.94 Q145.08 131.35 145.08 132.73 L145.08 132.73 L144.82 135.22 Q144.74 136.34 144.52 137.16 Q144.31 137.98 143.88 138.41 Z M186.02 127.83 L186.02 127.83 Q185.16 126.97 184.64 125.46 Q184.13 123.96 183.61 121.98 L183.61 121.98 Q183.44 121.29 183.48 120.43 Q183.52 119.57 183.44 119.06 L183.44 119.06 Q183.18 119.66 182.62 120.60 Q182.06 121.55 181.55 121.98 L181.55 121.98 Q181.20 122.32 180.00 123.31 Q178.79 124.30 177.59 124.90 L177.59 124.90 Q174.75 126.71 172.56 126.58 Q170.37 126.45 168.73 124.39 L168.73 124.39 Q167.36 123.27 166.50 121.55 Q165.64 119.83 166.15 117.42 L166.15 117.42 Q166.32 114.41 167.01 111.53 Q167.70 108.65 169.85 103.83 L169.85 103.83 Q171.66 100.31 172.60 98.33 Q173.55 96.35 173.81 96.01 L173.81 96.01 Q175.10 95.58 176.99 96.05 Q178.88 96.52 179.05 97.73 L179.05 97.73 Q179.57 98.59 179.05 100.95 Q178.54 103.32 176.99 106.33 L176.99 106.33 Q175.78 109.25 174.71 112.00 Q173.63 114.76 173.42 116.65 Q173.20 118.54 174.41 118.97 L174.41 118.97 Q175.18 119.40 176.69 118.88 Q178.19 118.37 180.26 115.79 Q182.32 113.21 184.64 107.62 L184.64 107.62 Q185.33 105.90 185.67 104.56 Q186.02 103.23 186.10 101.60 L186.10 101.60 Q185.93 100.57 186.66 99.45 Q187.39 98.33 188.43 97.73 L188.43 97.73 Q188.77 97.30 189.37 96.87 L189.37 96.87 Q189.80 96.61 189.97 96.78 L189.97 96.78 Q190.06 96.78 190.15 96.95 L190.15 96.95 L191.52 96.87 Q191.87 96.78 192.30 97.56 Q192.73 98.33 193.16 98.67 L193.16 98.67 Q194.10 99.45 194.02 102.03 Q193.93 104.61 191.95 109.25 L191.95 109.25 Q190.32 112.78 189.76 114.58 Q189.20 116.39 189.11 118.11 L189.11 118.11 Q189.11 119.66 189.37 120.73 Q189.63 121.81 190.92 122.93 L190.92 122.93 Q191.87 123.53 191.99 124.95 Q192.12 126.37 192.04 127.40 L192.04 127.40 Q191.87 128.17 190.70 128.47 Q189.54 128.77 188.21 128.60 Q186.88 128.43 186.02 127.83 Z M197.80 126.54 L197.80 126.54 Q197.11 125.85 196.81 124.47 Q196.51 123.10 196.60 121.77 Q196.68 120.43 197.03 119.74 L197.03 119.74 Q197.03 119.06 197.24 118.67 Q197.46 118.28 197.37 117.94 L197.37 117.94 Q197.28 117.59 197.54 116.73 Q197.80 115.87 198.06 115.10 L198.06 115.10 Q198.66 113.72 199.43 111.53 Q200.21 109.34 200.98 107.06 Q201.76 104.78 202.27 103.10 Q202.79 101.43 202.87 101.08 L202.87 101.08 Q202.87 100.05 204.25 99.96 L204.25 99.96 Q205.28 99.62 206.74 100.82 Q208.21 102.03 209.07 103.40 L209.07 103.40 Q209.75 104.09 209.58 105.21 Q209.41 106.33 208.46 108.39 L208.46 108.39 Q208.12 109.08 207.65 110.67 Q207.17 112.26 207.00 113.29 L207.00 113.29 Q206.66 113.98 206.18 115.23 Q205.71 116.48 205.37 117.59 L205.37 117.59 Q205.20 118.02 205.02 119.19 Q204.85 120.35 204.59 121.55 Q204.34 122.75 203.91 123.44 L203.91 123.44 Q203.13 126.97 201.20 127.57 Q199.26 128.17 197.80 126.54 Z " fill="#1d1c19"></path><defs><mask id="hm2" maskUnits="userSpaceOnUse"><path d="M0,3 C0,-3 -9,-6 -9,-13 C-9,-19 -2,-20 0,-14 C2,-20 9,-19 9,-13 C9,-6 0,-3 0,3 Z" fill="#fff"></path><path d="M-7.5,-8 q2.5,-3.4 5,0 t5,0 t5,0" fill="none" stroke="#000" stroke-width="2.1" stroke-linecap="round"></path></mask></defs><g transform="translate(210.40,95.23) rotate(12) scale(0.940)"><path d="M0,3 C0,-3 -9,-6 -9,-13 C-9,-19 -2,-20 0,-14 C2,-20 9,-19 9,-13 C9,-6 0,-3 0,3 Z" fill="#d23b34" mask="url(#hm2)"></path></g></g></g></svg><path d="M43.43 327.54L41.44 327.54L44.52 316.34L47.86 316.34L50.93 327.54L48.95 327.54L48.28 324.98L44.10 324.98L43.43 327.54ZM46.05 317.54L44.55 323.22L47.83 323.22L46.32 317.54L46.05 317.54Z M63.23 327.54L61.36 327.54L61.36 316.34L64.96 316.34L67.13 326.24L67.40 326.24L69.60 316.34L73.18 316.34L73.18 327.54L71.32 327.54L71.32 317.73L71.05 317.73L68.88 327.54L65.68 327.54L63.50 317.73L63.23 317.73L63.23 327.54Z M86.28 327.54L84.40 327.54L84.40 316.34L88.00 316.34L90.18 326.24L90.45 326.24L92.64 316.34L96.23 316.34L96.23 327.54L94.37 327.54L94.37 317.73L94.10 317.73L91.92 327.54L88.72 327.54L86.55 317.73L86.28 317.73L86.28 327.54Z M114.67 327.54L107.45 327.54L107.45 316.34L114.59 316.34L114.59 318.08L109.39 318.08L109.39 321.02L114.14 321.02L114.14 322.77L109.39 322.77L109.39 325.79L114.67 325.79L114.67 327.54Z M127.28 327.54L125.35 327.54L125.35 316.34L130.13 316.34Q131.19 316.34 131.97 316.70Q132.76 317.07 133.20 317.74Q133.64 318.40 133.64 319.33L133.64 319.33L133.64 319.50Q133.64 320.54 133.14 321.17Q132.64 321.79 131.94 322.08L131.94 322.08L131.94 322.34Q132.56 322.37 132.92 322.77Q133.28 323.17 133.28 323.84L133.28 323.84L133.28 327.54L131.36 327.54L131.36 324.11Q131.36 323.71 131.15 323.46Q130.93 323.22 130.45 323.22L130.45 323.22L127.28 323.22L127.28 327.54ZM127.28 318.08L127.28 321.47L129.94 321.47Q130.77 321.47 131.24 321.03Q131.72 320.59 131.72 319.86L131.72 319.86L131.72 319.71Q131.72 318.96 131.25 318.52Q130.79 318.08 129.94 318.08L129.94 318.08L127.28 318.08Z M148.32 327.76L148.32 327.76Q147.04 327.76 146.05 327.30Q145.07 326.85 144.51 325.98Q143.95 325.12 143.95 323.87L143.95 323.87L143.95 323.46L145.85 323.46L145.85 323.87Q145.85 324.98 146.52 325.52Q147.20 326.06 148.32 326.06L148.32 326.06Q149.45 326.06 150.03 325.60Q150.60 325.14 150.60 324.40L150.60 324.40Q150.60 323.90 150.33 323.59Q150.06 323.28 149.54 323.09Q149.02 322.90 148.28 322.72L148.28 322.72L147.80 322.62Q146.70 322.37 145.89 321.98Q145.08 321.58 144.65 320.96Q144.22 320.34 144.22 319.33L144.22 319.33Q144.22 318.32 144.70 317.60Q145.18 316.88 146.06 316.50Q146.94 316.11 148.12 316.11L148.12 316.11Q149.31 316.11 150.24 316.51Q151.16 316.91 151.70 317.71Q152.24 318.51 152.24 319.71L152.24 319.71L152.24 320.24L150.33 320.24L150.33 319.71Q150.33 319.02 150.06 318.61Q149.79 318.19 149.29 318Q148.80 317.81 148.12 317.81L148.12 317.81Q147.13 317.81 146.62 318.19Q146.11 318.58 146.11 319.28L146.11 319.28Q146.11 319.73 146.34 320.04Q146.57 320.35 147.03 320.55Q147.48 320.75 148.17 320.90L148.17 320.90L148.65 321.01Q149.80 321.26 150.67 321.66Q151.53 322.05 152.02 322.69Q152.51 323.33 152.51 324.35L152.51 324.35Q152.51 325.36 151.99 326.13Q151.47 326.90 150.53 327.33Q149.60 327.76 148.32 327.76Z M170.40 327.54L163.19 327.54L163.19 316.34L170.32 316.34L170.32 318.08L165.12 318.08L165.12 321.02L169.88 321.02L169.88 322.77L165.12 322.77L165.12 325.79L170.40 325.79L170.40 327.54Z M188.30 327.54L181.08 327.54L181.08 316.34L188.22 316.34L188.22 318.08L183.02 318.08L183.02 321.02L187.77 321.02L187.77 322.77L183.02 322.77L183.02 325.79L188.30 325.79L188.30 327.54Z" fill="#2f7d8a"></path><circle cx="119.8" cy="32.6" r="10" fill="#fff"></circle><circle cx="119.8" cy="32.6" r="10" fill="none" stroke="#2f7d8a" stroke-width="2.4"></circle><circle cx="119.8" cy="32.6" r="4" fill="#2f7d8a"></circle></svg>