<svg xmlns="http://www.w3.org/2000/svg" width="1140" height="1536" viewBox="0 0 190.04612353876527 256"><path d="M1646.026,1866.889v-2.045v-5.17l-1.4-3.088l-4.164-3.086l-4.236-4.164l-0.609-2.012l0.609-5.205l0.719-7.252 v-5.098l-0.719-6.281l-1.293-3.088l-2.117-4.057l-2.117-4.127l-4.164-3.088l-3.447-3.088l-4.129-1.076l-2.836-2.117l-2.727-6.176 l-5.564-4.129l-0.684-2.045l-2.836-2.01l-6.246-4.166l-4.164,1.078l-2.729-2.119l-3.518-1.076l-2.047-2.01l-0.682-3.088l0.682-4.164 l-0.682-4.129l-0.717-3.086l-2.119-4.164l-1.4-4.057l-0.609-2.119l-1.436-3.086l-2.801-3.088l-2.047-2.01l-2.117-1.078l-2.117-2.117 l-2.729-0.969l-2.836,0.969l-3.447,1.076l-2.729,1.041l-4.918-1.041l-4.846-4.164l-4.883,2.119l-7.574,3.086l-6.246,2.047 l-6.281,1.041h-3.52l-2.727-1.041l-2.836-2.047l-2.729-4.127l-2.119-4.164l-3.445-3.088l-4.129-1.041l-4.236-2.047l-5.564-1.041 h-6.893l-4.918-0.969h-3.445l-4.129-1.078l-3.553-4.127l-0.611-7.252l-5.564-6.139l-4.918-3.123l-6.893-1.041v4.164l-9.082,2.01 l-11.129,2.119l-7.574,3.086l-4.236-3.086l-6.174,1.041l-9.082,4.057l-10.41,2.117l-7.684,2.047l-7.574,3.086l-9.082,8.293 l1.4,1.041l-2.01,2.047l-1.436-1.076l-1.4,1.076l-9.012,2.01l-2.799-2.01l-2.729-1.076h-3.518l-2.047,4.164l-2.117,1.041h-6.248 l-5.563-1.041l-6.283-1.078l-5.527-3.086l-3.447-3.088l-2.836-4.129l-3.445-5.133l-2.801-7.217l-2.047-4.164l-0.717-6.174 l2.152-7.215l3.412-7.217l0.717-4.164l2.729-4.127l1.4-10.34l2.117-9.262l4.164-7.215l4.129-4.164l6.283-2.012l3.445-3.086 l6.246-8.293l1.4-5.133l2.117-5.205v-4.129l2.047-5.133l1.4-5.207l2.836-2.01l1.328-4.164l0.682-5.098l-2.01-6.281l-0.719-9.262 l-0.717-7.217v-10.338v-5.098v-3.088v-5.205l-0.684-5.133l-1.398-4.129l-3.447-6.246l-7.682-9.262l-4.846-6.174l-0.719-4.164 l-3.447-3.088l-2.117-3.088l-4.846-5.205l-2.729-5.098l-1.4-4.164l-2.117-2.01l-6.965-2.119l-5.564-0.969l-6.893-1.076l-4.236-1.041 l-3.445-3.088l-2.082-1.076l-4.883-0.971l-6.855-1.041h-4.236h-1.328h-11.811l-3.555-1.076l-2.729-2.01l-4.127-2.119l-2.838-4.057 l-2.727-5.205l-1.4-4.164l-1.436-3.086l-4.848-11.381l-2.117-6.174l-2.01-4.129l-0.719-2.045l-4.846-4.129l-2.119-2.047 l-3.445-4.129l-5.564-5.205l-2.117-2.045h-1.4l-2.729-4.129l-0.719-1.076l0.719-2.012l-2.836-4.164l-4.129-5.098l-0.717-1.076 l-7.684-10.303l-6.855-5.205l-4.236-4.057l-3.447-1.041l-1.398-4.164l-2.047-6.176l-0.682-2.117v-0.969l-3.555-7.217h-1.328 l-15.328-10.338h-1.328l-1.4-1.041h-1.436l-0.682-2.047l-2.047-1.041l0.717-1.076h3.447l0.682-0.969l-2.799-1.041l-0.719-1.078 l1.4-1.041l2.836-3.086l4.164-4.057l4.846-3.195l2.801-3.088l1.328-3.088l2.117-4.127l0.719-4.057l2.01-2.119l-1.328-1.076 l-2.801-0.969l-0.717-10.303l-0.719-2.119l-0.609-2.045l0.609-4.129l0.719-5.133l3.518-5.205l0.719-7.217h0.609v-2.045h2.119v-3.088 v-4.129l-1.4-2.117h-0.719l1.4-7.252h1.436l1.4-6.139l-1.4-2.047l4.129-7.215l3.553-6.174l2.729-3.195l5.529-10.303l-1.4-0.969 l2.117-3.088l1.438-6.283l1.291-22.65v-8.293l-0.609-3.088v-1.076v-0.969l-0.682-1.041v-2.047l-0.719-1.041l1.4-2.117v-2.047 l-2.119-4.129h2.119l2.729-2.045v-6.176h1.436l-0.719-5.205l-0.717-5.098l-1.4-6.281l-0.719-2.012v-6.174l-1.291-4.164l-2.836-4.129 l-2.047-3.086v-4.164v-6.176l1.328-3.086v-3.088l-5.564-6.246l-6.246-8.186l-9.693-10.338l-4.846-4.129l-1.436-4.164l-27.068-35.109 h-2.045l-3.518-5.205l-3.447-5.098l-4.129-3.086l-0.717-3.088l-3.518-5.205l-4.848-7.252l-4.164-7.215l-2.799-5.133l-2.047-6.176 l-1.4-6.246l-2.729-6.174l-5.564-9.262l-11.127-12.422l-5.529-6.174l-4.236-8.293l-3.445-8.221l-0.719-5.205v-14.467v-9.262 l-4.127-8.293l-4.848-6.174l-5.564-4.129l-7.682-9.262l-1.4-4.164l-6.281-5.205l-4.848-4.057l-7.574-11.379l-0.717-6.176 l-4.848-6.246l-4.918-2.045l-10.41-10.305l-5.564-5.205l-3.445-2.045l-3.447-2.119l-4.234-0.934l-3.447-1.076l-2.801-2.047h-3.445 l-1.4-1.041l1.4-5.205v-2.01l-2.729-4.164l-2.117-6.174l-3.447-6.176l-2.836-5.205l-0.682-6.174l-0.719-9.334l-1.328-9.262v-5.133 l1.328-7.217l1.4-1.076v-5.205l-1.4-9.262l-5.564-16.479l-5.563-8.291l-6.857-6.176l-9.801-7.25h-1.328l-11.092-3.088l-5.564-1.041 h-1.4h-0.717l-0.719-1.076l-1.4-0.971l-1.328-1.041l0.611-2.117l0.717-7.217l-2.047-6.174l-0.682-13.426l-4.236-5.205l-3.445-7.215 l-4.129-9.262l-1.436-21.719l-1.4-6.176l-0.717-8.291l-2.012-6.176l-1.436-3.086l-4.129-6.176l-1.398-4.127l-2.119-1.078 l-1.328-3.086l0.682-5.207l-1.398-6.174l-0.684-3.088l-3.445-3.086l-2.836-1.041l-2.119-2.047l-4.846-4.129l-6.281-5.205 l-14.539-12.348l-4.129-6.176l-6.965-13.498l-2.764-8.184l-2.799-12.457l-4.164-7.215l-5.564-4.164l-4.129-6.176l-1.4-3.086 l8.975-3.088l4.164-3.088l-0.646-1.041l-4.199,1.041l-9.729,4.164l-4.129-5.205l-6.281-8.293l-5.529-6.174l-2.117-5.133 l-2.047-8.293l-2.799-13.391l-1.438-7.252l-3.445-6.246l-6.246-6.174l-9.693-8.293l-3.445-5.098l-4.955-14.467l-1.328-8.293v-18.523 l-1.4-9.369l-2.799-11.379l-0.719-7.217l0.719-6.174l2.082-3.088l4.881-6.174l9.084-7.252l4.127-6.246l3.447-6.174l4.127-5.133 l2.836-9.334l1.4-5.133l0.719-4.129l1.328-4.164l4.236-11.344l0.609-3.088l1.4-3.088l2.117-8.291l0.719-4.164v-4.129l-0.719-5.133 l-0.682-2.012l-1.436-2.117l-1.4-2.047v-4.129l2.119-2.117l0.717-2.047l-2.117-7.215h-0.719l-2.729-3.088l-1.398-1.076l-1.438-9.262 l1.438-6.246l3.518-6.174l-0.719-16.514l0.719-4.129v-3.088l-0.719-4.164l-3.518-6.174l-2.047-2.117l-1.4-2.012l-2.836,1.041 l-2.01,0.971l-0.717-0.971v-1.041l2.117-1.076h2.047l1.398-2.01l2.729-2.119l2.119-2.045l1.4-1.041v-3.088l1.436-6.174l2.01-5.207 l1.436-4.127v-7.252v-4.057l-1.436-13.498l-0.682-8.184v-5.207l-1.328-3.086l-1.436-8.293l-2.082-4.164l-3.447-11.379l-2.836-10.304 l-0.719-5.134l-2.01-3.087l-3.518-4.128l-0.646-4.164l-4.199-6.175l-2.047-3.087l-0.719-4.129V0h-4.846h-7.682l-3.41,3.087 l1.328,6.175l-0.719,6.282l-4.846,14.467l-3.447,4.057l-4.164,3.159l-3.518,4.057l-2.729,3.088l-4.846,3.193l-5.564-2.117 l-4.846-2.047l-5.564-1.041h-9.082l-7.574,1.041l-9.082,2.047l-9.012,4.129l-9.082,3.086h-5.564l-4.846-3.086l-4.129,1.076 l-4.883,2.01l-4.127,4.164l-0.719,1.041l-6.963,3.088l-2.729,1.076l-6.246,2.012l-7.684,3.086l-4.164-1.041l-6.246-0.969 l-6.281,0.969l-3.412,2.119l-6.281,3.086l-6.246,4.129l-1.436,3.088l-6.965,5.205l-3.41,4.057l-7.682,6.281v2.012l-2.047,6.174 l-2.117,7.252l-0.684,4.127l-4.164,8.293l-2.836,9.262l-2.729,7.217l-3.445,5.205l-2.801,3.086l-2.117,2.047h-0.611l-6.281,1.041 l-9.801,1.076h-8.256l-7.684,3.088l-4.846,1.041l-2.045-1.041l-3.52-1.076l-3.445,1.076h-2.119l-2.727,2.01l-6.965,5.205 l-7.682,5.207l-6.248,3.086l-11.127,3.088l-6.893,8.221l-10.482,6.246l-4.129,3.088l-10.41,4.164l-9.01,4.127l-2.836,6.176v4.164 l-1.4,6.174l-2.012,4.129l-4.164,2.045l-4.234,3.088l-6.248,1.041l-3.445,4.164l-4.846,6.176l-1.436,5.205l-1.4,6.174l-2.012,7.215 l-3.553,15.51l-1.293,4.055l-2.154,3.195l-8.256,11.273l-2.836,5.205l-8.293,11.379v6.174l-2.836,4.164l-2.117,7.217l-3.447,6.174 l-1.4,4.164l0.719,3.088l1.4,8.293l2.117,7.215l2.047,12.35v15.543l5.527,4.129l1.438,4.164l-1.438,5.098l-1.398,3.088l-4.848,1.076 l-2.01,4.129l3.41,5.098l0.719,6.281l4.127,7.215l4.166,6.176l2.836,8.293l1.398,8.221v5.205l1.328,5.098l-1.328,3.193l-0.717,6.176 l0.717,4.127l1.328,5.135l-0.609,4.129l-3.555,4.164l-6.246,6.174l-5.564,5.205l-4.164,6.174l-1.4,3.088l0.719,7.215l2.117,5.205 l4.848,5.135l2.729,5.205l5.564,13.391l2.836,6.174l6.246,4.129l1.398,4.164l-11.811,15.436l-8.363,14.467l-4.883,7.217l0.719,9.369 v4.127l4.846,13.426l1.436,7.217l0.684,8.221l2.727,3.158l7.002,8.221l4.846,5.205l6.965,5.098l2.01,7.252l4.236,11.379l2.045,5.17 l3.52,7.252l3.445,12.35l2.117,8.291l-0.717,5.098l2.045,9.369l0.684,8.186l-1.293,10.338l-2.154,7.217l0.719,4.164l6.281,9.334 l4.129,6.174l2.729,8.221l4.953,5.205l2.012,8.293l4.881,6.174l1.4,7.217v5.133l-4.846,15.508l-3.447,5.205l-2.117,3.088h-9.01 l-2.801,7.215l-5.564,4.057l-8.293,3.195L387.325,850l-2.047,6.174l-0.682,4.164l2.01,10.303l2.119,5.205l3.445,4.164l4.848,3.088 l2.799,1.041l11.848-1.041l4.846,2.01l11.092-0.969l4.883,0.969l3.41,4.164l3.555,2.119h5.527l11.848-3.195l8.291-0.969l7.646,0.969 l8.293,2.117l5.564,4.164l4.953,4.057l7.574,7.217l3.52,3.193l8.291-1.076l7.684,2.047l4.846,2.117l4.846,0.969h5.564l2.729,3.088 l7,2.117h4.811h5.564l2.836,1.041l4.846,2.047l3.447,3.088l1.4,4.127v3.088l-0.684,5.205l1.4,4.057l6.246,2.119l0.719,2.045 l0.717,2.119l-0.717,0.969l-1.4,1.041l-5.564,3.088l-2.117,15.508l5.564,5.133l1.398,6.246v6.174l-2.117,5.135l-2.01,5.205 l-3.555,4.129l-5.564,2.045l-5.527,4.129l-6.176,8.293l-7.682,7.25v3.088l-0.719,4.129l1.438,5.133l-0.719,8.293l3.447,7.215 l4.234,8.221l7.576,8.293l3.518,1.041l3.445,0.969h2.729l5.564,1.078l4.236-1.078l2.01-3.086l3.555-0.971l6.246,2.047l5.564,3.088 l6.174,3.086l4.953,3.088l4.129,7.215l2.047,5.205l-2.764,5.135l-2.119,5.205l0.719,7.215l-3.447,8.186l-1.4,8.293l-0.717,7.25 l0.717,5.205l2.836,5.098l2.012,4.164l4.846,5.098l1.4,2.119l0.717,3.086l-1.398,2.047h-6.965l-4.164,3.088l-5.564,6.246l-1.4,6.174 l-0.609,5.135l-2.119,5.205l-4.846,6.174l-7.682,2.117l-9.693,2.012l-0.717-2.012l-10.412,9.262l-4.846,5.207l0.719,7.143 l-6.283,2.119l-2.799,3.086l-0.719,7.217l1.436,7.25l3.518,7.217l3.447,5.133l4.129,6.246l4.127,4.057l2.836,1.076h2.729v-3.086 v-4.164h1.436v5.205l-0.717,2.045h2.836v3.088h1.4l0.609-7.252l2.836,1.078l-0.719,1.041l-1.398-1.041l-0.719,6.174h6.246 l1.436-3.088l-2.729-1.076v-0.969l3.447,0.969l0.682-0.969l4.846,2.045l-0.682,2.012h4.129l4.236,3.158l9.01,7.252l2.117,4.057 l2.729,3.086l4.848,1.041l4.234,5.207l6.176,5.133l7.682,6.174l6.246,5.205l-0.717,2.012h-2.119v1.076v1.041l2.119,2.047 l-3.41,8.291l0.682,7.217l5.564,3.086l4.164,4.166l1.4,5.096l2.01,3.088l4.846,5.205l7,4.164l2.801,7.217l4.164,4.057l14.539,6.281 l11.811,5.098l6.281,2.117l13.211,10.34l6.893,5.098l7.682,2.117l5.529,4.057l6.281,6.246l2.729,5.135l1.4,8.291l6.281,8.186 l3.447,4.164l4.846,2.117l6.246,5.098l9.801,10.34l4.846,7.215l3.447,7.252l4.846,5.205l4.846,3.088l4.955,4.057l4.127,2.117h6.283 l6.246-1.076l4.846-1.041l3.447-3.088l4.846-2.047l4.164-1.041l4.236,3.088l4.129,3.088l3.445,3.158l3.518,5.133l4.848,4.129 l4.164,4.164l3.445,4.057l4.236,7.215l2.01,3.195l5.564,2.012l4.846,1.076h5.564h2.836l3.41-1.076l4.848,3.086l4.953,2.047 l-4.236,5.205v7.215l0.719,14.467l0.682,5.135l0.719,7.215l0.717,3.088v2.117l-8.4,4.129l-2.01,3.088l-1.4,5.133l-4.881,4.129 l-1.4,4.164v4.127v5.135l1.4,3.086l1.436,5.205l1.293,4.129v3.088l-2.729,4.057l-3.52,3.195l-1.328,2.01l-0.682,4.164v5.098v7.252 l-4.164,7.215l-2.117,5.205l-1.4,7.252l-0.719,8.184l-2.01,2.119l-6.965,7.143l-2.836,5.205l-2.729,3.088l-6.963,9.262l-2.047,7.252 l-4.236,9.334l-2.01,5.133v5.205l4.846,4.021l-3.553,4.164l-1.293,7.215l2.729,6.174l1.4,7.252l0.717,5.205l-1.4,4.129l-2.764,4.057 l-4.236,3.195l-0.682,3.086l0.682,9.262l4.236,4.129l3.447,5.133l2.117,5.205l2.047,6.176l2.117,4.127l-2.836,4.166l-6.893,6.174 l-1.4,4.129l-4.164,7.25v5.098l2.047,4.164l2.117,4.129l0.719,5.133l-4.236,4.129l-11.738,1.076l-9.082-1.076l-8.293-2.01 l-6.965-3.195l-6.281-2.01l-5.529-1.078h-9.01h-4.236l-6.174,4.164l-4.236,3.088l-3.445,4.129l-0.684,7.25h-9.01l-7.682,1.041 l-19.494,9.264l-4.127,6.174l-0.719,9.334l0.719,11.307l2.799,2.119l-2.117,6.174l2.117,3.088l4.164,7.215l4.848,5.133l4.164,5.207 l-0.719,6.174l5.564,6.174l6.965,3.088l7.646,8.293l2.764,6.174l2.801,3.088l4.164,4.127l0.682,4.164l6.281,7.217l2.119,6.174 l2.01,6.174l2.117,4.166l2.766,4.127l5.527,4.164l6.283,2.012l6.963,3.086l5.564,4.164l5.529,3.088l9.01,3.088l7.682,3.086 l6.965,2.119l4.846,0.969l4.164-2.047l2.801-2.01l2.729-6.281l-1.4-3.088l0.719-7.215l0.682-2.047l2.836-2.01l4.129-3.195 l2.045-2.01l-2.729-2.047l-3.445-3.088v-8.293l3.445-5.205l2.729-4.057v-5.205l-4.164-3.086l-2.729-6.176l-3.518-3.086l-3.445-3.088 l-2.836-3.158h-2.729l-2.801-2.047l-2.729-9.262l-2.117-6.174l-0.719-4.129l-0.609-3.088l-4.236-2.117l-2.047-2.047l-1.398-2.117 l0.717-6.176l1.4-6.174l3.445-3.088l4.129-2.01h3.518h2.766l7.645-4.164l6.283-3.088l2.729-3.086l2.836-3.16l6.174-0.969 l5.529,6.174l2.836,2.047l3.445,3.051l6.965,2.119l4.129,1.076h3.553h1.328l2.119,2.01l6.246,2.047h4.127l4.166,1.041l4.234,1.076 l2.729,0.971l4.236,1.041l4.846,1.076l2.047-1.076l0.682-3.088h1.436l2.729,1.076l11.811-1.076l9.082-3.088h5.564l4.848-2.01 l4.846-2.117l4.164-3.088l5.527-4.164l5.564-3.088l8.4-2.01l4.129,0.969h7.682h11.094h4.881h8.975l5.564-0.969h4.164l5.529-3.088 l4.846,0.971l7.682-3.088h3.447h3.518h5.564l8.293-0.969l9.082-2.119l6.963-2.01l6.176-3.088l5.564-4.164l6.246-5.205l2.836-3.088 l0.717-6.174l2.012-5.205l1.436-4.057l2.082-3.088l2.047-6.246l2.117-7.25l0.719-0.971l6.963-2.117h4.129l1.4,4.164l5.564,4.129 h8.291l4.166,1.076h4.234h6.857l6.281-2.117l5.529-2.047l2.836-2.117l3.445-2.012l2.836-1.076l4.129-2.01l2.047-2.047l1.4-4.129 l3.518-7.252l2.045-5.205l2.801-2.01l6.283-2.047l4.846-1.041l4.129,2.012l4.164,3.086l3.518,4.164l2.729,10.305l0.717,6.174 l4.129,3.088l3.555,2.117l10.41,2.047h6.965h7.574l5.564,1.041h5.563l6.965-1.041l2.119-0.971h4.846l7.574-1.076l7.682-2.117 l4.848-0.971l6.963-1.041h5.564h3.447h3.518l2.729,1.041l3.445,0.971l2.836,1.076l2.119,2.117l1.328,2.012h-0.719l0.719,4.164h1.4 v0.969v1.041h-0.719l0.719,5.205h-0.719l1.4,5.133l1.436,6.176l0.682,6.246l1.328,5.133l2.119,5.205v0.969l0.717,5.207l2.012,4.127 v0.971l1.436,6.246l0.682,6.174h-2.117l3.553,12.35l2.01-2.012l3.52,4.129l2.764,3.088l3.518,2.045h2.729l5.564,1.041l9.082-2.117 l6.246-4.057l4.846-3.158l11.848-9.262l6.855-3.088l5.564-2.047l5.564-1.041h6.965l6.281,2.047h6.246h4.848l6.281,2.082l6.965,2.047 l4.129,3.086l9.01,3.088l5.527,2.117l4.883,2.012l4.846-1.041h6.246h4.236l4.164,2.117l11.094,5.098l10.41,3.088l4.846,1.076 l3.555,2.117l1.293-1.076l6.281,2.047l2.836,1.041l2.729,1.076l4.129,5.098h4.953l2.01,1.078h2.119h2.045l0.684-1.078v-1.041h0.717 h0.719h0.682l0.719,1.041l2.045,3.088l2.801,4.164l2.729,4.129l2.836,3.086l0.682,1.078l2.047-1.078l7.682-2.01l2.836-2.117 l2.729-2.047l4.129-5.205l4.846-6.176l3.518-5.098l2.764-6.281l0.682-6.174l2.838-1.041v3.158l0.717,5.133l-0.717,6.176h2.045h1.4 v-2.047h2.117l3.447,1.076l1.4,2.012l4.846-1.041l2.729-2.047l3.518-1.041h5.564h2.729l3.553-3.088l2.012-3.086l2.117-3.088 l2.729-2.117l0.719-0.971l2.117-3.086l0.719-2.119v-2.045l1.398-5.17L1646.026,1866.889z M898.624,1782.205h-3.555l-3.41-0.969 l-4.164-3.088h-4.918l-6.174-1.041l-6.283-1.076l-3.518-0.971l-4.846-4.127l-2.047-3.088l0.611-8.293l-0.611-3.086v-6.176 l2.729-3.086l6.283,0.969l3.445,2.117l7.682,5.098l6.246,3.088l6.248,4.164l4.881,4.129l4.848,6.174l2.117,4.164L898.624,1782.205z" fill="none" stroke="#2f6f9e" stroke-width="25.86" stroke-linejoin="round" stroke-linecap="round" transform="translate(95.02306176938264 128) rotate(0) scale(0.11600) translate(-844.95 -1000.01)"></path></svg>