<svg xmlns="http://www.w3.org/2000/svg" width="360" height="300" viewBox="0 0 360 300"><g transform="translate(180,104.15) scale(0.9)"><path d="M25.2,-72.2 L22.6,-75 L20.5,-75 L14.9,-72.5 L6.9,-51.7 L5,-48.1 L2.9,-46.5 L1,-41.4 L-0.9,-40 L-4.5,-32.7 L-4,-29.4 L-7.3,-27.5 L-7,-25.3 L-8.8,-21.6 L-11.1,-11.2 L-14.8,-7 L-14.8,-3.5 L-17.7,-2.1 L-17.1,-0.7 L-17.6,1 L-20.3,3 L-20.4,4.7 L-22.3,6.7 L-22.8,8.6 L-22,10.8 L-24.2,12.6 L-25.2,16 L-24.7,18.8 L-22,21.4 L-20.1,21 L-17.8,18.6 L-16.3,19 L-16.8,22.5 L-14.6,25.9 L-14.1,31.2 L-9.1,36.6 L-7.3,41.9 L-7.8,45.3 L-11.2,47.9 L-11.9,51.8 L-12.7,52.3 L-13,61.3 L-14,63.5 L-12.8,67 L-0.2,75 L6.5,74 L8,74.9 L10.3,73.9 L10.6,72.7 L11.5,73.2 L13,69.8 L11.7,66.1 L12.5,65.6 L12,63.7 L13.4,62 L13.6,59.1 L11,34.9 L9.7,32.1 L10.5,27.3 L10.2,17.4 L11.2,11.5 L10.7,0.7 L9.1,-9.1 L10,-17.5 L15.3,-32.9 L15.9,-38 L20,-52.1 L25.1,-59.7 L24.5,-68.4 Z" fill="none" stroke="#6e8a3c" stroke-width="5.000" stroke-linejoin="round"></path><ellipse cx="-5" cy="-13.5" rx="1.5" ry="2.4" fill="#6e8a3c"></ellipse></g><g transform="translate(77.430,230.65)"><path d="M20.748 5.070L20.748 5.070Q19.344 4.680 18.486 4.368L18.486 4.368L17.628 4.134Q17.784 3.744 17.511 3.432Q17.238 3.120 16.380 3.042L16.380 3.042Q15.210 2.262 13.962 0.858Q12.714-0.546 11.778-2.028Q10.842-3.510 10.530-4.212L10.530-4.212Q10.140-5.148 10.374-5.460L10.374-5.460Q10.452-5.616 10.608-5.694L10.608-5.694Q11.232-5.928 12.090-6.318L12.090-6.318Q12.948-6.942 13.923-7.254Q14.898-7.566 15.522-6.240L15.522-6.240Q16.536-4.446 18.681-3.198Q20.826-1.950 23.595-1.716Q26.364-1.482 29.172-2.652L29.172-2.652Q31.044-3.510 31.200-5.031Q31.356-6.552 30.030-8.580L30.030-8.580Q29.796-9.204 29.367-9.594Q28.938-9.984 28.119-10.608Q27.300-11.232 25.818-12.636L25.818-12.636Q24.648-13.182 23.673-13.650Q22.698-14.118 21.606-14.664L21.606-14.664Q20.358-15.288 18.798-16.419Q17.238-17.550 15.912-18.915Q14.586-20.280 13.884-21.528L13.884-21.528Q12.636-22.698 12.324-24.765Q12.012-26.832 12.441-29.172Q12.870-31.512 13.884-33.384L13.884-33.384Q14.352-34.476 15.600-36.231Q16.848-37.986 18.408-39.858Q19.968-41.730 21.411-43.251Q22.854-44.772 23.712-45.318L23.712-45.318Q24.336-45.942 25.038-46.644L25.038-46.644L25.740-47.268Q25.818-47.658 26.052-47.658L26.052-47.658L26.208-47.658Q26.598-47.892 27.924-48.438Q29.250-48.984 30.810-50.466L30.810-50.466Q36.036-52.962 39.702-53.859Q43.368-54.756 45.474-54.756L45.474-54.756Q47.424-54.678 49.296-53.703Q51.168-52.728 52.533-51.246Q53.898-49.764 54.132-47.892L54.132-47.892Q54.678-46.020 53.625-43.407Q52.572-40.794 50.739-38.493Q48.906-36.192 46.956-35.100L46.956-35.100Q44.772-34.164 43.251-34.866Q41.730-35.568 41.808-37.050L41.808-37.050Q41.808-37.674 42.237-38.532Q42.666-39.390 44.616-41.574L44.616-41.574Q47.112-45.240 47.268-46.800Q47.424-48.360 45.864-48.594L45.864-48.594Q45.396-48.750 44.070-48.516Q42.744-48.282 41.223-47.931Q39.702-47.580 38.571-47.190Q37.440-46.800 37.440-46.644L37.440-46.644L37.440-46.410Q37.440-46.332 37.362-46.254L37.362-46.254Q37.362-46.176 37.128-46.254L37.128-46.254Q36.972-46.254 36.075-45.747Q35.178-45.240 33.930-44.460Q32.682-43.680 31.473-42.861Q30.264-42.042 29.406-41.418Q28.548-40.794 28.470-40.638L28.470-40.638Q28.314-39.780 26.676-39.078L26.676-39.078Q25.116-38.142 23.946-36.426Q22.776-34.710 21.216-32.058L21.216-32.058Q19.890-30.264 19.344-28.197Q18.798-26.130 19.344-24.882L19.344-24.882Q19.734-23.634 21.489-22.425Q23.244-21.216 26.286-19.422L26.286-19.422Q28.938-17.940 31.278-16.302Q33.618-14.664 35.256-13.143Q36.894-11.622 37.362-10.608L37.362-10.608Q38.298-9.282 38.493-7.566Q38.688-5.850 38.493-4.251Q38.298-2.652 37.986-1.638L37.986-1.638Q37.440-0.390 36.309 1.014Q35.178 2.418 34.242 2.340L34.242 2.340Q33.384 2.574 32.955 2.886Q32.526 3.198 31.980 3.432L31.980 3.432Q31.434 3.744 29.406 4.173Q27.378 4.602 24.960 4.875Q22.542 5.148 20.748 5.070Z M61.464-1.560L61.464-1.560Q59.124-0.234 56.511-0.039Q53.898 0.156 51.636-0.741Q49.374-1.638 47.970-3.432L47.970-3.432Q47.190-4.446 46.488-6.669Q45.786-8.892 46.254-12.714L46.254-12.714Q46.722-16.302 48.477-19.968Q50.232-23.634 52.806-26.442Q55.380-29.250 58.422-30.264L58.422-30.264Q59.514-30.654 60.645-30.849Q61.776-31.044 63.648-30.888L63.648-30.888Q65.442-30.654 66.846-29.991Q68.250-29.328 68.874-28.548L68.874-28.548Q70.122-27.300 70.512-26.130Q70.902-24.960 70.824-23.868L70.824-23.868Q70.434-21.372 68.601-18.486Q66.768-15.600 63.492-14.196L63.492-14.196Q62.166-13.650 60.372-13.494Q58.578-13.338 55.458-13.962L55.458-13.962Q53.586-14.352 53.001-13.572Q52.416-12.792 52.494-10.530L52.494-10.530Q52.650-9.126 53.157-8.073Q53.664-7.020 55.068-6.630L55.068-6.630Q56.862-6.318 57.642-6.591Q58.422-6.864 59.592-7.410L59.592-7.410Q60.216-7.800 60.840-8.268L60.840-8.268L62.010-9.204Q62.556-9.672 62.946-9.906L62.946-9.906Q63.336-10.218 63.726-10.296Q64.116-10.374 64.506-10.374L64.506-10.374Q65.364-10.296 66.144-9.438Q66.924-8.580 67.158-7.800L67.158-7.800Q67.158-7.176 66.378-6.045Q65.598-4.914 64.311-3.705Q63.024-2.496 61.464-1.560ZM60.450-18.954L60.450-18.954Q60.996-19.188 62.049-20.046Q63.102-20.904 63.960-21.879Q64.818-22.854 64.818-23.400L64.818-23.400Q64.818-24.258 63.687-24.882Q62.556-25.506 60.762-25.116L60.762-25.116Q60.138-24.960 59.280-24.258Q58.422-23.556 57.564-22.659Q56.706-21.762 56.082-20.943Q55.458-20.124 55.224-19.656L55.224-19.656Q55.536-19.266 56.472-19.032Q57.408-18.798 58.539-18.798Q59.670-18.798 60.450-18.954Z M87.516-1.560L87.516-1.560Q85.176-0.234 82.563-0.039Q79.950 0.156 77.688-0.741Q75.426-1.638 74.022-3.432L74.022-3.432Q73.242-4.446 72.540-6.669Q71.838-8.892 72.306-12.714L72.306-12.714Q72.774-16.302 74.529-19.968Q76.284-23.634 78.858-26.442Q81.432-29.250 84.474-30.264L84.474-30.264Q85.566-30.654 86.697-30.849Q87.828-31.044 89.700-30.888L89.700-30.888Q91.494-30.654 92.898-29.991Q94.302-29.328 94.926-28.548L94.926-28.548Q96.174-27.300 96.564-26.130Q96.954-24.960 96.876-23.868L96.876-23.868Q96.486-21.372 94.653-18.486Q92.820-15.600 89.544-14.196L89.544-14.196Q88.218-13.650 86.424-13.494Q84.630-13.338 81.510-13.962L81.510-13.962Q79.638-14.352 79.053-13.572Q78.468-12.792 78.546-10.530L78.546-10.530Q78.702-9.126 79.209-8.073Q79.716-7.020 81.120-6.630L81.120-6.630Q82.914-6.318 83.694-6.591Q84.474-6.864 85.644-7.410L85.644-7.410Q86.268-7.800 86.892-8.268L86.892-8.268L88.062-9.204Q88.608-9.672 88.998-9.906L88.998-9.906Q89.388-10.218 89.778-10.296Q90.168-10.374 90.558-10.374L90.558-10.374Q91.416-10.296 92.196-9.438Q92.976-8.580 93.210-7.800L93.210-7.800Q93.210-7.176 92.430-6.045Q91.650-4.914 90.363-3.705Q89.076-2.496 87.516-1.560ZM86.502-18.954L86.502-18.954Q87.048-19.188 88.101-20.046Q89.154-20.904 90.012-21.879Q90.870-22.854 90.870-23.400L90.870-23.400Q90.870-24.258 89.739-24.882Q88.608-25.506 86.814-25.116L86.814-25.116Q86.190-24.960 85.332-24.258Q84.474-23.556 83.616-22.659Q82.758-21.762 82.134-20.943Q81.510-20.124 81.276-19.656L81.276-19.656Q81.588-19.266 82.524-19.032Q83.460-18.798 84.591-18.798Q85.722-18.798 86.502-18.954Z M107.406 15.600L107.406 15.600Q105.222 16.458 102.843 15.327Q100.464 14.196 98.748 11.778L98.748 11.778Q98.436 11.310 97.812 10.101Q97.188 8.892 96.603 7.488Q96.018 6.084 95.745 5.070Q95.472 4.056 95.706 3.900L95.706 3.900Q96.018 3.042 97.110 2.886Q98.202 2.730 99.294 3.003Q100.386 3.276 100.542 3.744L100.542 3.744Q100.776 4.290 101.010 4.875Q101.244 5.460 101.595 5.967Q101.946 6.474 102.258 6.864L102.258 6.864Q103.116 8.190 104.130 8.697Q105.144 9.204 105.690 8.814L105.690 8.814Q107.016 7.800 107.679 6.435Q108.342 5.070 109.434 1.638L109.434 1.638Q110.292-1.248 110.916-3.354Q111.540-5.460 112.242-7.254L112.242-7.254Q112.476-8.190 112.866-8.892L112.866-8.892Q112.944-9.048 113.022-9.204L113.022-9.204Q111.930-8.424 111.072-7.644L111.072-7.644Q109.902-6.552 107.874-5.694L107.874-5.694Q107.406-5.148 105.573-5.031Q103.740-4.914 102.024-5.460L102.024-5.460Q100.932-6.084 100.269-6.747Q99.606-7.410 99.177-8.268Q98.748-9.126 98.280-10.296L98.280-10.296Q97.734-11.466 98.124-14.118Q98.514-16.770 99.528-19.422L99.528-19.422Q100.464-21.372 102.258-23.634Q104.052-25.896 106.080-27.729Q108.108-29.562 109.746-30.030L109.746-30.030Q110.370-30.342 111.930-30.771Q113.490-31.200 114.894-30.810L114.894-30.810Q116.220-30.654 116.922-30.225Q117.624-29.796 119.184-28.470L119.184-28.470Q120.198-27.456 121.680-25.857Q123.162-24.258 123.552-23.166L123.552-23.166Q124.098-21.996 123.786-20.631Q123.474-19.266 122.694-18.252L122.694-18.252Q121.992-17.238 121.212-16.224Q120.432-15.210 120.042-13.416L120.042-13.416Q119.652-11.076 118.560-8.151Q117.468-5.226 116.844-2.730L116.844-2.730L115.596 2.106Q113.646 8.736 111.306 11.739Q108.966 14.742 107.406 15.600ZM105.768-11.232L105.768-11.232Q107.328-11.310 108.459-11.583Q109.590-11.856 110.604-12.831Q111.618-13.806 112.944-15.834L112.944-15.834Q114.270-17.706 114.816-19.266Q115.362-20.826 115.206-22.776L115.206-22.776Q115.128-24.024 114.504-24.414Q113.880-24.804 112.866-24.648L112.866-24.648Q111.384-24.414 110.214-23.439Q109.044-22.464 107.484-20.436L107.484-20.436Q106.314-18.876 105.534-16.692L105.534-16.692Q104.754-14.352 104.871-12.948Q104.988-11.544 105.768-11.232Z M130.494 9.438L130.494 9.438Q130.026 9.750 128.388 8.697Q126.750 7.644 125.658 6.396L125.658 6.396Q125.112 5.772 124.956 5.070Q124.800 4.368 125.034 2.418L125.034 2.418Q125.346 1.560 125.385 0.780Q125.424 0 125.424-0.312L125.424-0.312Q125.424-0.780 125.697-2.496Q125.970-4.212 126.282-6.123Q126.594-8.034 126.828-9.048L126.828-9.048Q126.828-9.126 126.945-9.594Q127.062-10.062 127.140-10.296L127.140-10.296Q127.296-10.998 127.530-12.012Q127.764-13.026 127.998-14.742L127.998-14.742Q128.622-16.692 129.051-18.603Q129.480-20.514 129.480-21.216L129.480-21.216Q129.480-22.620 130.572-23.244L130.572-23.244Q130.650-23.634 131.040-24.453Q131.430-25.272 131.742-25.818L131.742-25.818Q133.302-30.264 134.316-32.916Q135.330-35.568 136.422-37.518L136.422-37.518Q136.890-38.844 137.475-40.248Q138.060-41.652 138.684-42.432L138.684-42.432Q139.230-43.524 140.595-45.123Q141.960-46.722 143.520-48.204Q145.080-49.686 146.016-50.388L146.016-50.388Q147.732-51.246 149.214-51.792Q150.696-52.338 152.334-52.338L152.334-52.338Q153.816-52.338 154.947-51.675Q156.078-51.012 158.340-48.984L158.340-48.984Q159.120-47.970 159.120-47.034Q159.120-46.098 158.730-45.474L158.730-45.474Q158.184-44.226 157.092-42.393Q156-40.560 154.986-39.117Q153.972-37.674 153.504-37.596L153.504-37.596Q152.568-37.050 151.554-37.284Q150.540-37.518 150.540-38.688L150.540-38.688Q150.540-39.234 150.618-39.702L150.618-39.702L150.618-40.170Q150.852-41.184 151.203-41.964Q151.554-42.744 151.866-43.290L151.866-43.290Q152.490-44.304 152.217-45.240Q151.944-46.176 150.228-46.020L150.228-46.020Q149.994-45.864 149.331-45.279Q148.668-44.694 147.927-43.953Q147.186-43.212 146.640-42.549Q146.094-41.886 146.094-41.652L146.094-41.652L145.704-40.872Q145.236-40.014 144.378-39L144.378-39Q143.832-38.220 143.442-37.518Q143.052-36.816 143.052-36.426L143.052-36.426Q143.052-36.114 142.974-35.880Q142.896-35.646 142.584-35.646L142.584-35.646L142.350-34.866Q142.038-34.086 141.414-32.994L141.414-32.994Q141.102-32.214 140.751-31.551Q140.400-30.888 140.088-30.576L140.088-30.576L140.010-30.420L139.698-29.562Q139.308-28.626 138.918-27.690Q138.528-26.754 138.528-26.598L138.528-26.598Q138.528-26.286 139.464-26.286Q140.400-26.286 141.726-26.559Q143.052-26.832 144.300-27.144L144.300-27.144Q145.392-27.456 145.860-27.456Q146.328-27.456 147.342-27.144L147.342-27.144Q147.966-26.754 148.356-25.779Q148.746-24.804 148.941-23.829Q149.136-22.854 148.980-22.386L148.980-22.386Q148.902-22.074 147.225-21.528Q145.548-20.982 143.910-20.670L143.910-20.670Q142.506-20.358 140.751-20.007Q138.996-19.656 137.670-19.305Q136.344-18.954 136.266-18.642L136.266-18.642Q135.954-18.642 135.759-18.252Q135.564-17.862 135.564-17.550L135.564-17.550Q135.564-16.536 135.174-15.912L135.174-15.912Q135.018-15.444 134.667-14.001Q134.316-12.558 133.965-10.881Q133.614-9.204 133.341-7.761Q133.068-6.318 133.068-5.850L133.068-5.850Q132.600-5.304 132.522-4.485Q132.444-3.666 132.444-3.042L132.444-3.042Q132.132-2.418 132.054-1.911Q131.976-1.404 131.976-1.092L131.976-1.092L131.976-0.780Q131.976-0.546 131.898-0.312L131.898-0.312Q131.820 0.468 131.703 1.755Q131.586 3.042 131.586 4.290L131.586 4.290L131.352 6.552Q131.274 7.566 131.079 8.307Q130.884 9.048 130.494 9.438Z M168.714-0.156L168.714-0.156Q167.934-0.936 167.466-2.301Q166.998-3.666 166.530-5.460L166.530-5.460Q166.374-6.084 166.413-6.864Q166.452-7.644 166.374-8.112L166.374-8.112Q166.140-7.566 165.633-6.708Q165.126-5.850 164.658-5.460L164.658-5.460Q164.346-5.148 163.254-4.251Q162.162-3.354 161.070-2.808L161.070-2.808Q158.496-1.170 156.507-1.287Q154.518-1.404 153.036-3.276L153.036-3.276Q151.788-4.290 151.008-5.850Q150.228-7.410 150.696-9.594L150.696-9.594Q150.852-12.324 151.476-14.937Q152.100-17.550 154.050-21.918L154.050-21.918Q155.688-25.116 156.546-26.910Q157.404-28.704 157.638-29.016L157.638-29.016Q158.808-29.406 160.524-28.977Q162.240-28.548 162.396-27.456L162.396-27.456Q162.864-26.676 162.396-24.531Q161.928-22.386 160.524-19.656L160.524-19.656Q159.432-17.004 158.457-14.508Q157.482-12.012 157.287-10.296Q157.092-8.580 158.184-8.190L158.184-8.190Q158.886-7.800 160.251-8.268Q161.616-8.736 163.488-11.076Q165.360-13.416 167.466-18.486L167.466-18.486Q168.090-20.046 168.402-21.255Q168.714-22.464 168.792-23.946L168.792-23.946Q168.636-24.882 169.299-25.896Q169.962-26.910 170.898-27.456L170.898-27.456Q171.210-27.846 171.756-28.236L171.756-28.236Q172.146-28.470 172.302-28.314L172.302-28.314Q172.380-28.314 172.458-28.158L172.458-28.158L173.706-28.236Q174.018-28.314 174.408-27.612Q174.798-26.910 175.188-26.598L175.188-26.598Q176.046-25.896 175.968-23.556Q175.890-21.216 174.096-17.004L174.096-17.004Q172.614-13.806 172.107-12.168Q171.600-10.530 171.522-8.970L171.522-8.970Q171.522-7.566 171.756-6.591Q171.990-5.616 173.160-4.602L173.160-4.602Q174.018-4.056 174.135-2.769Q174.252-1.482 174.174-0.546L174.174-0.546Q174.018 0.156 172.965 0.429Q171.912 0.702 170.703 0.546Q169.494 0.390 168.714-0.156Z M179.400-1.326L179.400-1.326Q178.776-1.950 178.503-3.198Q178.230-4.446 178.308-5.655Q178.386-6.864 178.698-7.488L178.698-7.488Q178.698-8.112 178.893-8.463Q179.088-8.814 179.010-9.126L179.010-9.126Q178.932-9.438 179.166-10.218Q179.400-10.998 179.634-11.700L179.634-11.700Q180.180-12.948 180.882-14.937Q181.584-16.926 182.286-18.993Q182.988-21.060 183.456-22.581Q183.924-24.102 184.002-24.414L184.002-24.414Q184.002-25.350 185.250-25.428L185.250-25.428Q186.186-25.740 187.512-24.648Q188.838-23.556 189.618-22.308L189.618-22.308Q190.242-21.684 190.086-20.670Q189.930-19.656 189.072-17.784L189.072-17.784Q188.760-17.160 188.331-15.717Q187.902-14.274 187.746-13.338L187.746-13.338Q187.434-12.714 187.005-11.583Q186.576-10.452 186.264-9.438L186.264-9.438Q186.108-9.048 185.952-7.995Q185.796-6.942 185.562-5.850Q185.328-4.758 184.938-4.134L184.938-4.134Q184.236-0.936 182.481-0.390Q180.726 0.156 179.400-1.326ZM187.824-32.604L187.824-32.604Q186.966-33.228 186.537-34.125Q186.108-35.022 186.069-35.724Q186.030-36.426 186.186-36.582L186.186-36.582Q186.966-37.440 187.551-38.844Q188.136-40.248 188.838-41.418L188.838-41.418Q188.994-41.652 189.267-42.081Q189.540-42.510 189.852-42.588L189.852-42.588Q190.788-43.212 192.465-42.510Q194.142-41.808 194.922-40.560L194.922-40.560Q195.624-39.078 195.351-37.518Q195.078-35.958 193.674-34.242L193.674-34.242Q192.504-32.682 190.710-32.253Q188.916-31.824 187.824-32.604Z" fill="#1d1c19"></path></g><g transform="translate(100.400,263.35)"><path d="M3.888 0.175L3.888 0.175Q2.900 0.175 2.138-0.175Q1.375-0.525 0.944-1.206Q0.513-1.888 0.513-2.863L0.513-2.863L0.513-3.175L1.850-3.175L1.850-2.863Q1.850-1.938 2.406-1.475Q2.963-1.012 3.888-1.012L3.888-1.012Q4.825-1.012 5.300-1.406Q5.775-1.800 5.775-2.425L5.775-2.425Q5.775-2.838 5.550-3.100Q5.325-3.363 4.913-3.519Q4.500-3.675 3.925-3.813L3.925-3.813L3.463-3.925Q2.625-4.125 2.006-4.419Q1.388-4.713 1.050-5.200Q0.713-5.688 0.713-6.450L0.713-6.450Q0.713-7.225 1.094-7.775Q1.475-8.325 2.150-8.625Q2.825-8.925 3.738-8.925L3.738-8.925Q4.650-8.925 5.369-8.613Q6.088-8.300 6.500-7.688Q6.913-7.075 6.913-6.150L6.913-6.150L6.913-5.700L5.575-5.700L5.575-6.150Q5.575-6.713 5.344-7.063Q5.113-7.413 4.700-7.575Q4.288-7.738 3.738-7.738L3.738-7.738Q2.938-7.738 2.494-7.406Q2.050-7.075 2.050-6.488L2.050-6.488Q2.050-6.088 2.244-5.831Q2.438-5.575 2.813-5.413Q3.188-5.250 3.750-5.125L3.750-5.125L4.213-5.013Q5.063-4.825 5.713-4.531Q6.363-4.237 6.738-3.738Q7.113-3.238 7.113-2.450L7.113-2.450Q7.113-1.663 6.719-1.075Q6.325-0.488 5.600-0.156Q4.875 0.175 3.888 0.175Z M15.463 0L14.113 0L14.113-7.525L11.425-7.525L11.425-8.750L18.150-8.750L18.150-7.525L15.463-7.525L15.463 0Z M23.625 0L22.225 0L24.725-8.750L27.100-8.750L29.588 0L28.200 0L27.625-2.063L24.200-2.063L23.625 0ZM25.813-7.913L24.538-3.313L27.288-3.313L26.013-7.913L25.813-7.913Z M35.625 0L34.275 0L34.275-8.750L37.950-8.750Q38.763-8.750 39.381-8.469Q40.000-8.188 40.344-7.663Q40.688-7.138 40.688-6.413L40.688-6.413L40.688-6.275Q40.688-5.450 40.294-4.956Q39.900-4.463 39.338-4.263L39.338-4.263L39.338-4.063Q39.813-4.038 40.100-3.744Q40.388-3.450 40.388-2.900L40.388-2.900L40.388 0L39.025 0L39.025-2.713Q39.025-3.050 38.850-3.250Q38.675-3.450 38.288-3.450L38.288-3.450L35.625-3.450L35.625 0ZM35.625-7.525L35.625-4.675L37.800-4.675Q38.525-4.675 38.925-5.044Q39.325-5.413 39.325-6.050L39.325-6.050L39.325-6.150Q39.325-6.788 38.931-7.156Q38.538-7.525 37.800-7.525L37.800-7.525L35.625-7.525Z M47.013 0L45.675 0L45.675-8.750L48.275-8.750L50.650-0.900L50.850-0.900L50.850-8.750L52.188-8.750L52.188 0L49.588 0L47.213-7.863L47.013-7.863L47.013 0Z M61.650 0L57.188 0L57.188-1.200L58.363-1.200L58.363-7.550L57.188-7.550L57.188-8.750L61.625-8.750Q62.413-8.750 63-8.481Q63.588-8.213 63.919-7.719Q64.250-7.225 64.250-6.550L64.250-6.550L64.250-6.425Q64.250-5.825 64.025-5.438Q63.800-5.050 63.481-4.838Q63.163-4.625 62.875-4.538L62.875-4.538L62.875-4.338Q63.163-4.263 63.494-4.044Q63.825-3.825 64.056-3.438Q64.287-3.050 64.287-2.425L64.287-2.425L64.287-2.300Q64.287-1.575 63.950-1.063Q63.613-0.550 63.019-0.275Q62.425 0 61.650 0L61.650 0ZM59.725-3.788L59.725-1.225L61.488-1.225Q62.163-1.225 62.550-1.550Q62.938-1.875 62.938-2.450L62.938-2.450L62.938-2.563Q62.938-3.138 62.556-3.463Q62.175-3.788 61.488-3.788L61.488-3.788L59.725-3.788ZM59.725-7.525L59.725-5.025L61.488-5.025Q62.125-5.025 62.513-5.344Q62.900-5.663 62.900-6.213L62.900-6.213L62.900-6.338Q62.900-6.888 62.519-7.206Q62.138-7.525 61.488-7.525L61.488-7.525L59.725-7.525Z M74.875 0L69.300 0L69.300-8.750L74.813-8.750L74.813-7.525L70.650-7.525L70.650-5.013L74.463-5.013L74.463-3.788L70.650-3.788L70.650-1.225L74.875-1.225L74.875 0Z M81.138 0L79.787 0L79.787-8.750L83.463-8.750Q84.275-8.750 84.894-8.469Q85.513-8.188 85.856-7.663Q86.200-7.138 86.200-6.413L86.200-6.413L86.200-6.275Q86.200-5.450 85.806-4.956Q85.412-4.463 84.850-4.263L84.850-4.263L84.850-4.063Q85.325-4.038 85.612-3.744Q85.900-3.450 85.900-2.900L85.900-2.900L85.900 0L84.537 0L84.537-2.713Q84.537-3.050 84.362-3.250Q84.188-3.450 83.800-3.450L83.800-3.450L81.138-3.450L81.138 0ZM81.138-7.525L81.138-4.675L83.313-4.675Q84.037-4.675 84.438-5.044Q84.838-5.413 84.838-6.050L84.838-6.050L84.838-6.150Q84.838-6.788 84.444-7.156Q84.050-7.525 83.313-7.525L83.313-7.525L81.138-7.525Z M94.225 0.175L94.225 0.175Q93.288 0.175 92.550-0.231Q91.813-0.638 91.388-1.425Q90.963-2.212 90.963-3.350L90.963-3.350L90.963-5.400Q90.963-7.113 91.900-8.019Q92.838-8.925 94.438-8.925L94.438-8.925Q96.013-8.925 96.863-8.069Q97.713-7.213 97.713-5.775L97.713-5.775L97.713-5.713L96.375-5.713L96.375-5.813Q96.375-6.350 96.163-6.781Q95.950-7.213 95.525-7.463Q95.100-7.713 94.438-7.713L94.438-7.713Q93.438-7.713 92.875-7.106Q92.313-6.500 92.313-5.425L92.313-5.425L92.313-3.325Q92.313-2.263 92.875-1.644Q93.438-1.025 94.450-1.025L94.450-1.025Q95.450-1.025 95.913-1.575Q96.375-2.125 96.375-3L96.375-3L96.375-3.163L94.025-3.163L94.025-4.325L97.713-4.325L97.713 0L96.463 0L96.463-0.888L96.263-0.888Q96.150-0.650 95.931-0.400Q95.713-0.150 95.306 0.013Q94.900 0.175 94.225 0.175Z M108.525 0L102.950 0L102.950-8.750L108.463-8.750L108.463-7.525L104.300-7.525L104.300-5.013L108.113-5.013L108.113-3.788L104.300-3.788L104.300-1.225L108.525-1.225L108.525 0Z M114.788 0L113.438 0L113.438-8.750L117.113-8.750Q117.925-8.750 118.544-8.469Q119.163-8.188 119.506-7.663Q119.850-7.138 119.850-6.413L119.850-6.413L119.850-6.275Q119.850-5.450 119.456-4.956Q119.063-4.463 118.500-4.263L118.500-4.263L118.500-4.063Q118.975-4.038 119.263-3.744Q119.550-3.450 119.550-2.900L119.550-2.900L119.550 0L118.188 0L118.188-2.713Q118.188-3.050 118.013-3.250Q117.838-3.450 117.450-3.450L117.450-3.450L114.788-3.450L114.788 0ZM114.788-7.525L114.788-4.675L116.963-4.675Q117.688-4.675 118.088-5.044Q118.488-5.413 118.488-6.050L118.488-6.050L118.488-6.150Q118.488-6.788 118.094-7.156Q117.700-7.525 116.963-7.525L116.963-7.525L114.788-7.525Z  M134.500 0.175L134.500 0.175Q133.513 0.175 132.750-0.175Q131.988-0.525 131.556-1.206Q131.125-1.888 131.125-2.863L131.125-2.863L131.125-3.175L132.463-3.175L132.463-2.863Q132.463-1.938 133.019-1.475Q133.575-1.012 134.500-1.012L134.500-1.012Q135.438-1.012 135.913-1.406Q136.388-1.800 136.388-2.425L136.388-2.425Q136.388-2.838 136.163-3.100Q135.938-3.363 135.525-3.519Q135.113-3.675 134.538-3.813L134.538-3.813L134.075-3.925Q133.238-4.125 132.619-4.419Q132-4.713 131.663-5.200Q131.325-5.688 131.325-6.450L131.325-6.450Q131.325-7.225 131.706-7.775Q132.088-8.325 132.763-8.625Q133.438-8.925 134.350-8.925L134.350-8.925Q135.263-8.925 135.981-8.613Q136.700-8.300 137.113-7.688Q137.525-7.075 137.525-6.150L137.525-6.150L137.525-5.700L136.188-5.700L136.188-6.150Q136.188-6.713 135.956-7.063Q135.725-7.413 135.313-7.575Q134.900-7.738 134.350-7.738L134.350-7.738Q133.550-7.738 133.106-7.406Q132.663-7.075 132.663-6.488L132.663-6.488Q132.663-6.088 132.856-5.831Q133.050-5.575 133.425-5.413Q133.800-5.250 134.363-5.125L134.363-5.125L134.825-5.013Q135.675-4.825 136.325-4.531Q136.975-4.237 137.350-3.738Q137.725-3.238 137.725-2.450L137.725-2.450Q137.725-1.663 137.331-1.075Q136.938-0.488 136.213-0.156Q135.488 0.175 134.500 0.175Z M148.213 0L142.638 0L142.638-8.750L148.150-8.750L148.150-7.525L143.988-7.525L143.988-5.013L147.800-5.013L147.800-3.788L143.988-3.788L143.988-1.225L148.213-1.225L148.213 0Z M158.700 0L153.125 0L153.125-8.750L158.638-8.750L158.638-7.525L154.475-7.525L154.475-5.013L158.288-5.013L158.288-3.788L154.475-3.788L154.475-1.225L158.700-1.225L158.700 0Z" fill="#6e8a3c"></path></g></svg>