<svg xmlns="http://www.w3.org/2000/svg" width="360" height="330" viewBox="0 0 360 330"><g transform="translate(180,165) scale(1.92)"><path d="M25.2,-72.2 L22.6,-75 L20.5,-75 L14.9,-72.5 L6.9,-51.7 L5,-48.1 L2.9,-46.5 L1,-41.4 L-0.9,-40 L-4.5,-32.7 L-4,-29.4 L-7.3,-27.5 L-7,-25.3 L-8.8,-21.6 L-11.1,-11.2 L-14.8,-7 L-14.8,-3.5 L-17.7,-2.1 L-17.1,-0.7 L-17.6,1 L-20.3,3 L-20.4,4.7 L-22.3,6.7 L-22.8,8.6 L-22,10.8 L-24.2,12.6 L-25.2,16 L-24.7,18.8 L-22,21.4 L-20.1,21 L-17.8,18.6 L-16.3,19 L-16.8,22.5 L-14.6,25.9 L-14.1,31.2 L-9.1,36.6 L-7.3,41.9 L-7.8,45.3 L-11.2,47.9 L-11.9,51.8 L-12.7,52.3 L-13,61.3 L-14,63.5 L-12.8,67 L-0.2,75 L6.5,74 L8,74.9 L10.3,73.9 L10.6,72.7 L11.5,73.2 L13,69.8 L11.7,66.1 L12.5,65.6 L12,63.7 L13.4,62 L13.6,59.1 L11,34.9 L9.7,32.1 L10.5,27.3 L10.2,17.4 L11.2,11.5 L10.7,0.7 L9.1,-9.1 L10,-17.5 L15.3,-32.9 L15.9,-38 L20,-52.1 L25.1,-59.7 L24.5,-68.4 Z" fill="none" stroke="#2f8a7e" stroke-width="1.667" stroke-linejoin="round" stroke-linecap="round" opacity="0.3"></path><ellipse cx="-5" cy="-13.5" rx="1.5" ry="2.4" fill="#2f8a7e" opacity="0.3"></ellipse></g><g transform="translate(72.170,171)"><path d="M21.812 5.330L21.812 5.330Q20.336 4.920 19.434 4.592L19.434 4.592L18.532 4.346Q18.696 3.936 18.409 3.608Q18.122 3.280 17.220 3.198L17.220 3.198Q15.990 2.378 14.678 0.902Q13.366-0.574 12.382-2.132Q11.398-3.690 11.070-4.428L11.070-4.428Q10.660-5.412 10.906-5.740L10.906-5.740Q10.988-5.904 11.152-5.986L11.152-5.986Q11.808-6.232 12.710-6.642L12.710-6.642Q13.612-7.298 14.637-7.626Q15.662-7.954 16.318-6.560L16.318-6.560Q17.384-4.674 19.639-3.362Q21.894-2.050 24.805-1.804Q27.716-1.558 30.668-2.788L30.668-2.788Q32.636-3.690 32.800-5.289Q32.964-6.888 31.570-9.020L31.570-9.020Q31.324-9.676 30.873-10.086Q30.422-10.496 29.561-11.152Q28.700-11.808 27.142-13.284L27.142-13.284Q25.912-13.858 24.887-14.350Q23.862-14.842 22.714-15.416L22.714-15.416Q21.402-16.072 19.762-17.261Q18.122-18.450 16.728-19.885Q15.334-21.320 14.596-22.632L14.596-22.632Q13.284-23.862 12.956-26.035Q12.628-28.208 13.079-30.668Q13.530-33.128 14.596-35.096L14.596-35.096Q15.088-36.244 16.400-38.089Q17.712-39.934 19.352-41.902Q20.992-43.870 22.509-45.469Q24.026-47.068 24.928-47.642L24.928-47.642Q25.584-48.298 26.322-49.036L26.322-49.036L27.060-49.692Q27.142-50.102 27.388-50.102L27.388-50.102L27.552-50.102Q27.962-50.348 29.356-50.922Q30.750-51.496 32.390-53.054L32.390-53.054Q37.884-55.678 41.738-56.621Q45.592-57.564 47.806-57.564L47.806-57.564Q49.856-57.482 51.824-56.457Q53.792-55.432 55.227-53.874Q56.662-52.316 56.908-50.348L56.908-50.348Q57.482-48.380 56.375-45.633Q55.268-42.886 53.341-40.467Q51.414-38.048 49.364-36.900L49.364-36.900Q47.068-35.916 45.469-36.654Q43.870-37.392 43.952-38.950L43.952-38.950Q43.952-39.606 44.403-40.508Q44.854-41.410 46.904-43.706L46.904-43.706Q49.528-47.560 49.692-49.200Q49.856-50.840 48.216-51.086L48.216-51.086Q47.724-51.250 46.330-51.004Q44.936-50.758 43.337-50.389Q41.738-50.020 40.549-49.610Q39.360-49.200 39.360-49.036L39.360-49.036L39.360-48.790Q39.360-48.708 39.278-48.626L39.278-48.626Q39.278-48.544 39.032-48.626L39.032-48.626Q38.868-48.626 37.925-48.093Q36.982-47.560 35.670-46.740Q34.358-45.920 33.087-45.059Q31.816-44.198 30.914-43.542Q30.012-42.886 29.930-42.722L29.930-42.722Q29.766-41.820 28.044-41.082L28.044-41.082Q26.404-40.098 25.174-38.294Q23.944-36.490 22.304-33.702L22.304-33.702Q20.910-31.816 20.336-29.643Q19.762-27.470 20.336-26.158L20.336-26.158Q20.746-24.846 22.591-23.575Q24.436-22.304 27.634-20.418L27.634-20.418Q30.422-18.860 32.882-17.138Q35.342-15.416 37.064-13.817Q38.786-12.218 39.278-11.152L39.278-11.152Q40.262-9.758 40.467-7.954Q40.672-6.150 40.467-4.469Q40.262-2.788 39.934-1.722L39.934-1.722Q39.360-0.410 38.171 1.066Q36.982 2.542 35.998 2.460L35.998 2.460Q35.096 2.706 34.645 3.034Q34.194 3.362 33.620 3.608L33.620 3.608Q33.046 3.936 30.914 4.387Q28.782 4.838 26.240 5.125Q23.698 5.412 21.812 5.330Z M64.616-1.640L64.616-1.640Q62.156-0.246 59.409-0.041Q56.662 0.164 54.284-0.779Q51.906-1.722 50.430-3.608L50.430-3.608Q49.610-4.674 48.872-7.011Q48.134-9.348 48.626-13.366L48.626-13.366Q49.118-17.138 50.963-20.992Q52.808-24.846 55.514-27.798Q58.220-30.750 61.418-31.816L61.418-31.816Q62.566-32.226 63.755-32.431Q64.944-32.636 66.912-32.472L66.912-32.472Q68.798-32.226 70.274-31.529Q71.750-30.832 72.406-30.012L72.406-30.012Q73.718-28.700 74.128-27.470Q74.538-26.240 74.456-25.092L74.456-25.092Q74.046-22.468 72.119-19.434Q70.192-16.400 66.748-14.924L66.748-14.924Q65.354-14.350 63.468-14.186Q61.582-14.022 58.302-14.678L58.302-14.678Q56.334-15.088 55.719-14.268Q55.104-13.448 55.186-11.070L55.186-11.070Q55.350-9.594 55.883-8.487Q56.416-7.380 57.892-6.970L57.892-6.970Q59.778-6.642 60.598-6.929Q61.418-7.216 62.648-7.790L62.648-7.790Q63.304-8.200 63.960-8.692L63.960-8.692L65.190-9.676Q65.764-10.168 66.174-10.414L66.174-10.414Q66.584-10.742 66.994-10.824Q67.404-10.906 67.814-10.906L67.814-10.906Q68.716-10.824 69.536-9.922Q70.356-9.020 70.602-8.200L70.602-8.200Q70.602-7.544 69.782-6.355Q68.962-5.166 67.609-3.895Q66.256-2.624 64.616-1.640ZM63.550-19.926L63.550-19.926Q64.124-20.172 65.231-21.074Q66.338-21.976 67.240-23.001Q68.142-24.026 68.142-24.600L68.142-24.600Q68.142-25.502 66.953-26.158Q65.764-26.814 63.878-26.404L63.878-26.404Q63.222-26.240 62.320-25.502Q61.418-24.764 60.516-23.821Q59.614-22.878 58.958-22.017Q58.302-21.156 58.056-20.664L58.056-20.664Q58.384-20.254 59.368-20.008Q60.352-19.762 61.541-19.762Q62.730-19.762 63.550-19.926Z M92.004-1.640L92.004-1.640Q89.544-0.246 86.797-0.041Q84.050 0.164 81.672-0.779Q79.294-1.722 77.818-3.608L77.818-3.608Q76.998-4.674 76.260-7.011Q75.522-9.348 76.014-13.366L76.014-13.366Q76.506-17.138 78.351-20.992Q80.196-24.846 82.902-27.798Q85.608-30.750 88.806-31.816L88.806-31.816Q89.954-32.226 91.143-32.431Q92.332-32.636 94.300-32.472L94.300-32.472Q96.186-32.226 97.662-31.529Q99.138-30.832 99.794-30.012L99.794-30.012Q101.106-28.700 101.516-27.470Q101.926-26.240 101.844-25.092L101.844-25.092Q101.434-22.468 99.507-19.434Q97.580-16.400 94.136-14.924L94.136-14.924Q92.742-14.350 90.856-14.186Q88.970-14.022 85.690-14.678L85.690-14.678Q83.722-15.088 83.107-14.268Q82.492-13.448 82.574-11.070L82.574-11.070Q82.738-9.594 83.271-8.487Q83.804-7.380 85.280-6.970L85.280-6.970Q87.166-6.642 87.986-6.929Q88.806-7.216 90.036-7.790L90.036-7.790Q90.692-8.200 91.348-8.692L91.348-8.692L92.578-9.676Q93.152-10.168 93.562-10.414L93.562-10.414Q93.972-10.742 94.382-10.824Q94.792-10.906 95.202-10.906L95.202-10.906Q96.104-10.824 96.924-9.922Q97.744-9.020 97.990-8.200L97.990-8.200Q97.990-7.544 97.170-6.355Q96.350-5.166 94.997-3.895Q93.644-2.624 92.004-1.640ZM90.938-19.926L90.938-19.926Q91.512-20.172 92.619-21.074Q93.726-21.976 94.628-23.001Q95.530-24.026 95.530-24.600L95.530-24.600Q95.530-25.502 94.341-26.158Q93.152-26.814 91.266-26.404L91.266-26.404Q90.610-26.240 89.708-25.502Q88.806-24.764 87.904-23.821Q87.002-22.878 86.346-22.017Q85.690-21.156 85.444-20.664L85.444-20.664Q85.772-20.254 86.756-20.008Q87.740-19.762 88.929-19.762Q90.118-19.762 90.938-19.926Z M112.914 16.400L112.914 16.400Q110.618 17.302 108.117 16.113Q105.616 14.924 103.812 12.382L103.812 12.382Q103.484 11.890 102.828 10.619Q102.172 9.348 101.557 7.872Q100.942 6.396 100.655 5.330Q100.368 4.264 100.614 4.100L100.614 4.100Q100.942 3.198 102.090 3.034Q103.238 2.870 104.386 3.157Q105.534 3.444 105.698 3.936L105.698 3.936Q105.944 4.510 106.190 5.125Q106.436 5.740 106.805 6.273Q107.174 6.806 107.502 7.216L107.502 7.216Q108.404 8.610 109.470 9.143Q110.536 9.676 111.110 9.266L111.110 9.266Q112.504 8.200 113.201 6.765Q113.898 5.330 115.046 1.722L115.046 1.722Q115.948-1.312 116.604-3.526Q117.260-5.740 117.998-7.626L117.998-7.626Q118.244-8.610 118.654-9.348L118.654-9.348Q118.736-9.512 118.818-9.676L118.818-9.676Q117.670-8.856 116.768-8.036L116.768-8.036Q115.538-6.888 113.406-5.986L113.406-5.986Q112.914-5.412 110.987-5.289Q109.060-5.166 107.256-5.740L107.256-5.740Q106.108-6.396 105.411-7.093Q104.714-7.790 104.263-8.692Q103.812-9.594 103.320-10.824L103.320-10.824Q102.746-12.054 103.156-14.842Q103.566-17.630 104.632-20.418L104.632-20.418Q105.616-22.468 107.502-24.846Q109.388-27.224 111.520-29.151Q113.652-31.078 115.374-31.570L115.374-31.570Q116.030-31.898 117.670-32.349Q119.310-32.800 120.786-32.390L120.786-32.390Q122.180-32.226 122.918-31.775Q123.656-31.324 125.296-29.930L125.296-29.930Q126.362-28.864 127.920-27.183Q129.478-25.502 129.888-24.354L129.888-24.354Q130.462-23.124 130.134-21.689Q129.806-20.254 128.986-19.188L128.986-19.188Q128.248-18.122 127.428-17.056Q126.608-15.990 126.198-14.104L126.198-14.104Q125.788-11.644 124.640-8.569Q123.492-5.494 122.836-2.870L122.836-2.870L121.524 2.214Q119.474 9.184 117.014 12.341Q114.554 15.498 112.914 16.400ZM111.192-11.808L111.192-11.808Q112.832-11.890 114.021-12.177Q115.210-12.464 116.276-13.489Q117.342-14.514 118.736-16.646L118.736-16.646Q120.130-18.614 120.704-20.254Q121.278-21.894 121.114-23.944L121.114-23.944Q121.032-25.256 120.376-25.666Q119.720-26.076 118.654-25.912L118.654-25.912Q117.096-25.666 115.866-24.641Q114.636-23.616 112.996-21.484L112.996-21.484Q111.766-19.844 110.946-17.548L110.946-17.548Q110.126-15.088 110.249-13.612Q110.372-12.136 111.192-11.808Z M137.186 9.922L137.186 9.922Q136.694 10.250 134.972 9.143Q133.250 8.036 132.102 6.724L132.102 6.724Q131.528 6.068 131.364 5.330Q131.200 4.592 131.446 2.542L131.446 2.542Q131.774 1.640 131.815 0.820Q131.856 0 131.856-0.328L131.856-0.328Q131.856-0.820 132.143-2.624Q132.430-4.428 132.758-6.437Q133.086-8.446 133.332-9.512L133.332-9.512Q133.332-9.594 133.455-10.086Q133.578-10.578 133.660-10.824L133.660-10.824Q133.824-11.562 134.070-12.628Q134.316-13.694 134.562-15.498L134.562-15.498Q135.218-17.548 135.669-19.557Q136.120-21.566 136.120-22.304L136.120-22.304Q136.120-23.780 137.268-24.436L137.268-24.436Q137.350-24.846 137.760-25.707Q138.170-26.568 138.498-27.142L138.498-27.142Q140.138-31.816 141.204-34.604Q142.270-37.392 143.418-39.442L143.418-39.442Q143.910-40.836 144.525-42.312Q145.140-43.788 145.796-44.608L145.796-44.608Q146.370-45.756 147.805-47.437Q149.240-49.118 150.880-50.676Q152.520-52.234 153.504-52.972L153.504-52.972Q155.308-53.874 156.866-54.448Q158.424-55.022 160.146-55.022L160.146-55.022Q161.704-55.022 162.893-54.325Q164.082-53.628 166.460-51.496L166.460-51.496Q167.280-50.430 167.280-49.446Q167.280-48.462 166.870-47.806L166.870-47.806Q166.296-46.494 165.148-44.567Q164-42.640 162.934-41.123Q161.868-39.606 161.376-39.524L161.376-39.524Q160.392-38.950 159.326-39.196Q158.260-39.442 158.260-40.672L158.260-40.672Q158.260-41.246 158.342-41.738L158.342-41.738L158.342-42.230Q158.588-43.296 158.957-44.116Q159.326-44.936 159.654-45.510L159.654-45.510Q160.310-46.576 160.023-47.560Q159.736-48.544 157.932-48.380L157.932-48.380Q157.686-48.216 156.989-47.601Q156.292-46.986 155.513-46.207Q154.734-45.428 154.160-44.731Q153.586-44.034 153.586-43.788L153.586-43.788L153.176-42.968Q152.684-42.066 151.782-41L151.782-41Q151.208-40.180 150.798-39.442Q150.388-38.704 150.388-38.294L150.388-38.294Q150.388-37.966 150.306-37.720Q150.224-37.474 149.896-37.474L149.896-37.474L149.650-36.654Q149.322-35.834 148.666-34.686L148.666-34.686Q148.338-33.866 147.969-33.169Q147.600-32.472 147.272-32.144L147.272-32.144L147.190-31.980L146.862-31.078Q146.452-30.094 146.042-29.110Q145.632-28.126 145.632-27.962L145.632-27.962Q145.632-27.634 146.616-27.634Q147.600-27.634 148.994-27.921Q150.388-28.208 151.700-28.536L151.700-28.536Q152.848-28.864 153.340-28.864Q153.832-28.864 154.898-28.536L154.898-28.536Q155.554-28.126 155.964-27.101Q156.374-26.076 156.579-25.051Q156.784-24.026 156.620-23.534L156.620-23.534Q156.538-23.206 154.775-22.632Q153.012-22.058 151.290-21.730L151.290-21.730Q149.814-21.402 147.969-21.033Q146.124-20.664 144.730-20.295Q143.336-19.926 143.254-19.598L143.254-19.598Q142.926-19.598 142.721-19.188Q142.516-18.778 142.516-18.450L142.516-18.450Q142.516-17.384 142.106-16.728L142.106-16.728Q141.942-16.236 141.573-14.719Q141.204-13.202 140.835-11.439Q140.466-9.676 140.179-8.159Q139.892-6.642 139.892-6.150L139.892-6.150Q139.400-5.576 139.318-4.715Q139.236-3.854 139.236-3.198L139.236-3.198Q138.908-2.542 138.826-2.009Q138.744-1.476 138.744-1.148L138.744-1.148L138.744-0.820Q138.744-0.574 138.662-0.328L138.662-0.328Q138.580 0.492 138.457 1.845Q138.334 3.198 138.334 4.510L138.334 4.510L138.088 6.888Q138.006 7.954 137.801 8.733Q137.596 9.512 137.186 9.922Z M177.366-0.164L177.366-0.164Q176.546-0.984 176.054-2.419Q175.562-3.854 175.070-5.740L175.070-5.740Q174.906-6.396 174.947-7.216Q174.988-8.036 174.906-8.528L174.906-8.528Q174.660-7.954 174.127-7.052Q173.594-6.150 173.102-5.740L173.102-5.740Q172.774-5.412 171.626-4.469Q170.478-3.526 169.330-2.952L169.330-2.952Q166.624-1.230 164.533-1.353Q162.442-1.476 160.884-3.444L160.884-3.444Q159.572-4.510 158.752-6.150Q157.932-7.790 158.424-10.086L158.424-10.086Q158.588-12.956 159.244-15.703Q159.900-18.450 161.950-23.042L161.950-23.042Q163.672-26.404 164.574-28.290Q165.476-30.176 165.722-30.504L165.722-30.504Q166.952-30.914 168.756-30.463Q170.560-30.012 170.724-28.864L170.724-28.864Q171.216-28.044 170.724-25.789Q170.232-23.534 168.756-20.664L168.756-20.664Q167.608-17.876 166.583-15.252Q165.558-12.628 165.353-10.824Q165.148-9.020 166.296-8.610L166.296-8.610Q167.034-8.200 168.469-8.692Q169.904-9.184 171.872-11.644Q173.840-14.104 176.054-19.434L176.054-19.434Q176.710-21.074 177.038-22.345Q177.366-23.616 177.448-25.174L177.448-25.174Q177.284-26.158 177.981-27.224Q178.678-28.290 179.662-28.864L179.662-28.864Q179.990-29.274 180.564-29.684L180.564-29.684Q180.974-29.930 181.138-29.766L181.138-29.766Q181.220-29.766 181.302-29.602L181.302-29.602L182.614-29.684Q182.942-29.766 183.352-29.028Q183.762-28.290 184.172-27.962L184.172-27.962Q185.074-27.224 184.992-24.764Q184.910-22.304 183.024-17.876L183.024-17.876Q181.466-14.514 180.933-12.792Q180.400-11.070 180.318-9.430L180.318-9.430Q180.318-7.954 180.564-6.929Q180.810-5.904 182.040-4.838L182.040-4.838Q182.942-4.264 183.065-2.911Q183.188-1.558 183.106-0.574L183.106-0.574Q182.942 0.164 181.835 0.451Q180.728 0.738 179.457 0.574Q178.186 0.410 177.366-0.164Z M188.600-1.394L188.600-1.394Q187.944-2.050 187.657-3.362Q187.370-4.674 187.452-5.945Q187.534-7.216 187.862-7.872L187.862-7.872Q187.862-8.528 188.067-8.897Q188.272-9.266 188.190-9.594L188.190-9.594Q188.108-9.922 188.354-10.742Q188.600-11.562 188.846-12.300L188.846-12.300Q189.420-13.612 190.158-15.703Q190.896-17.794 191.634-19.967Q192.372-22.140 192.864-23.739Q193.356-25.338 193.438-25.666L193.438-25.666Q193.438-26.650 194.750-26.732L194.750-26.732Q195.734-27.060 197.128-25.912Q198.522-24.764 199.342-23.452L199.342-23.452Q199.998-22.796 199.834-21.730Q199.670-20.664 198.768-18.696L198.768-18.696Q198.440-18.040 197.989-16.523Q197.538-15.006 197.374-14.022L197.374-14.022Q197.046-13.366 196.595-12.177Q196.144-10.988 195.816-9.922L195.816-9.922Q195.652-9.512 195.488-8.405Q195.324-7.298 195.078-6.150Q194.832-5.002 194.422-4.346L194.422-4.346Q193.684-0.984 191.839-0.410Q189.994 0.164 188.600-1.394ZM197.456-34.276L197.456-34.276Q196.554-34.932 196.103-35.875Q195.652-36.818 195.611-37.556Q195.570-38.294 195.734-38.458L195.734-38.458Q196.554-39.360 197.169-40.836Q197.784-42.312 198.522-43.542L198.522-43.542Q198.686-43.788 198.973-44.239Q199.260-44.690 199.588-44.772L199.588-44.772Q200.572-45.428 202.335-44.690Q204.098-43.952 204.918-42.640L204.918-42.640Q205.656-41.082 205.369-39.442Q205.082-37.802 203.606-35.998L203.606-35.998Q202.376-34.358 200.490-33.907Q198.604-33.456 197.456-34.276Z" fill="#1d1c19"></path></g><g transform="translate(85.880,203)"><path d="M4.665 0.210L4.665 0.210Q3.480 0.210 2.565-0.210Q1.650-0.630 1.133-1.448Q0.615-2.265 0.615-3.435L0.615-3.435L0.615-3.810L2.220-3.810L2.220-3.435Q2.220-2.325 2.887-1.770Q3.555-1.215 4.665-1.215L4.665-1.215Q5.790-1.215 6.360-1.688Q6.930-2.160 6.930-2.910L6.930-2.910Q6.930-3.405 6.660-3.720Q6.390-4.035 5.895-4.223Q5.400-4.410 4.710-4.575L4.710-4.575L4.155-4.710Q3.150-4.950 2.407-5.303Q1.665-5.655 1.260-6.240Q0.855-6.825 0.855-7.740L0.855-7.740Q0.855-8.670 1.313-9.330Q1.770-9.990 2.580-10.350Q3.390-10.710 4.485-10.710L4.485-10.710Q5.580-10.710 6.442-10.335Q7.305-9.960 7.800-9.225Q8.295-8.490 8.295-7.380L8.295-7.380L8.295-6.840L6.690-6.840L6.690-7.380Q6.690-8.055 6.412-8.475Q6.135-8.895 5.640-9.090Q5.145-9.285 4.485-9.285L4.485-9.285Q3.525-9.285 2.992-8.887Q2.460-8.490 2.460-7.785L2.460-7.785Q2.460-7.305 2.692-6.997Q2.925-6.690 3.375-6.495Q3.825-6.300 4.500-6.150L4.500-6.150L5.055-6.015Q6.075-5.790 6.855-5.438Q7.635-5.085 8.085-4.485Q8.535-3.885 8.535-2.940L8.535-2.940Q8.535-1.995 8.063-1.290Q7.590-0.585 6.720-0.188Q5.850 0.210 4.665 0.210Z M18.355 0L16.735 0L16.735-9.030L13.510-9.030L13.510-10.500L21.580-10.500L21.580-9.030L18.355-9.030L18.355 0Z M27.950 0L26.270 0L29.270-10.500L32.120-10.500L35.105 0L33.440 0L32.750-2.475L28.640-2.475L27.950 0ZM30.575-9.495L29.045-3.975L32.345-3.975L30.815-9.495L30.575-9.495Z M42.150 0L40.530 0L40.530-10.500L44.940-10.500Q45.915-10.500 46.657-10.162Q47.400-9.825 47.813-9.195Q48.225-8.565 48.225-7.695L48.225-7.695L48.225-7.530Q48.225-6.540 47.752-5.947Q47.280-5.355 46.605-5.115L46.605-5.115L46.605-4.875Q47.175-4.845 47.520-4.492Q47.865-4.140 47.865-3.480L47.865-3.480L47.865 0L46.230 0L46.230-3.255Q46.230-3.660 46.020-3.900Q45.810-4.140 45.345-4.140L45.345-4.140L42.150-4.140L42.150 0ZM42.150-9.030L42.150-5.610L44.760-5.610Q45.630-5.610 46.110-6.053Q46.590-6.495 46.590-7.260L46.590-7.260L46.590-7.380Q46.590-8.145 46.117-8.588Q45.645-9.030 44.760-9.030L44.760-9.030L42.150-9.030Z M55.615 0L54.010 0L54.010-10.500L57.130-10.500L59.980-1.080L60.220-1.080L60.220-10.500L61.825-10.500L61.825 0L58.705 0L55.855-9.435L55.615-9.435L55.615 0Z M72.980 0L67.625 0L67.625-1.440L69.035-1.440L69.035-9.060L67.625-9.060L67.625-10.500L72.950-10.500Q73.895-10.500 74.600-10.178Q75.305-9.855 75.703-9.262Q76.100-8.670 76.100-7.860L76.100-7.860L76.100-7.710Q76.100-6.990 75.830-6.525Q75.560-6.060 75.178-5.805Q74.795-5.550 74.450-5.445L74.450-5.445L74.450-5.205Q74.795-5.115 75.192-4.853Q75.590-4.590 75.868-4.125Q76.145-3.660 76.145-2.910L76.145-2.910L76.145-2.760Q76.145-1.890 75.740-1.275Q75.335-0.660 74.623-0.330Q73.910 0 72.980 0L72.980 0ZM70.670-4.545L70.670-1.470L72.785-1.470Q73.595-1.470 74.060-1.860Q74.525-2.250 74.525-2.940L74.525-2.940L74.525-3.075Q74.525-3.765 74.067-4.155Q73.610-4.545 72.785-4.545L72.785-4.545L70.670-4.545ZM70.670-9.030L70.670-6.030L72.785-6.030Q73.550-6.030 74.015-6.412Q74.480-6.795 74.480-7.455L74.480-7.455L74.480-7.605Q74.480-8.265 74.023-8.647Q73.565-9.030 72.785-9.030L72.785-9.030L70.670-9.030Z M88.650 0L81.960 0L81.960-10.500L88.575-10.500L88.575-9.030L83.580-9.030L83.580-6.015L88.155-6.015L88.155-4.545L83.580-4.545L83.580-1.470L88.650-1.470L88.650 0Z M95.965 0L94.345 0L94.345-10.500L98.755-10.500Q99.730-10.500 100.473-10.162Q101.215-9.825 101.628-9.195Q102.040-8.565 102.040-7.695L102.040-7.695L102.040-7.530Q102.040-6.540 101.568-5.947Q101.095-5.355 100.420-5.115L100.420-5.115L100.420-4.875Q100.990-4.845 101.335-4.492Q101.680-4.140 101.680-3.480L101.680-3.480L101.680 0L100.045 0L100.045-3.255Q100.045-3.660 99.835-3.900Q99.625-4.140 99.160-4.140L99.160-4.140L95.965-4.140L95.965 0ZM95.965-9.030L95.965-5.610L98.575-5.610Q99.445-5.610 99.925-6.053Q100.405-6.495 100.405-7.260L100.405-7.260L100.405-7.380Q100.405-8.145 99.933-8.588Q99.460-9.030 98.575-9.030L98.575-9.030L95.965-9.030Z M111.470 0.210L111.470 0.210Q110.345 0.210 109.460-0.277Q108.575-0.765 108.065-1.710Q107.555-2.655 107.555-4.020L107.555-4.020L107.555-6.480Q107.555-8.535 108.680-9.623Q109.805-10.710 111.725-10.710L111.725-10.710Q113.615-10.710 114.635-9.682Q115.655-8.655 115.655-6.930L115.655-6.930L115.655-6.855L114.050-6.855L114.050-6.975Q114.050-7.620 113.795-8.137Q113.540-8.655 113.030-8.955Q112.520-9.255 111.725-9.255L111.725-9.255Q110.525-9.255 109.850-8.527Q109.175-7.800 109.175-6.510L109.175-6.510L109.175-3.990Q109.175-2.715 109.850-1.972Q110.525-1.230 111.740-1.230L111.740-1.230Q112.940-1.230 113.495-1.890Q114.050-2.550 114.050-3.600L114.050-3.600L114.050-3.795L111.230-3.795L111.230-5.190L115.655-5.190L115.655 0L114.155 0L114.155-1.065L113.915-1.065Q113.780-0.780 113.518-0.480Q113.255-0.180 112.768 0.015Q112.280 0.210 111.470 0.210Z M128.430 0L121.740 0L121.740-10.500L128.355-10.500L128.355-9.030L123.360-9.030L123.360-6.015L127.935-6.015L127.935-4.545L123.360-4.545L123.360-1.470L128.430-1.470L128.430 0Z M135.745 0L134.125 0L134.125-10.500L138.535-10.500Q139.510-10.500 140.252-10.162Q140.995-9.825 141.407-9.195Q141.820-8.565 141.820-7.695L141.820-7.695L141.820-7.530Q141.820-6.540 141.347-5.947Q140.875-5.355 140.200-5.115L140.200-5.115L140.200-4.875Q140.770-4.845 141.115-4.492Q141.460-4.140 141.460-3.480L141.460-3.480L141.460 0L139.825 0L139.825-3.255Q139.825-3.660 139.615-3.900Q139.405-4.140 138.940-4.140L138.940-4.140L135.745-4.140L135.745 0ZM135.745-9.030L135.745-5.610L138.355-5.610Q139.225-5.610 139.705-6.053Q140.185-6.495 140.185-7.260L140.185-7.260L140.185-7.380Q140.185-8.145 139.713-8.588Q139.240-9.030 138.355-9.030L138.355-9.030L135.745-9.030Z  M159.000 0.210L159.000 0.210Q157.815 0.210 156.900-0.210Q155.985-0.630 155.467-1.448Q154.950-2.265 154.950-3.435L154.950-3.435L154.950-3.810L156.555-3.810L156.555-3.435Q156.555-2.325 157.222-1.770Q157.890-1.215 159.000-1.215L159.000-1.215Q160.125-1.215 160.695-1.688Q161.265-2.160 161.265-2.910L161.265-2.910Q161.265-3.405 160.995-3.720Q160.725-4.035 160.230-4.223Q159.735-4.410 159.045-4.575L159.045-4.575L158.490-4.710Q157.485-4.950 156.742-5.303Q156.000-5.655 155.595-6.240Q155.190-6.825 155.190-7.740L155.190-7.740Q155.190-8.670 155.647-9.330Q156.105-9.990 156.915-10.350Q157.725-10.710 158.820-10.710L158.820-10.710Q159.915-10.710 160.777-10.335Q161.640-9.960 162.135-9.225Q162.630-8.490 162.630-7.380L162.630-7.380L162.630-6.840L161.025-6.840L161.025-7.380Q161.025-8.055 160.747-8.475Q160.470-8.895 159.975-9.090Q159.480-9.285 158.820-9.285L158.820-9.285Q157.860-9.285 157.327-8.887Q156.795-8.490 156.795-7.785L156.795-7.785Q156.795-7.305 157.027-6.997Q157.260-6.690 157.710-6.495Q158.160-6.300 158.835-6.150L158.835-6.150L159.390-6.015Q160.410-5.790 161.190-5.438Q161.970-5.085 162.420-4.485Q162.870-3.885 162.870-2.940L162.870-2.940Q162.870-1.995 162.397-1.290Q161.925-0.585 161.055-0.188Q160.185 0.210 159.000 0.210Z M175.255 0L168.565 0L168.565-10.500L175.180-10.500L175.180-9.030L170.185-9.030L170.185-6.015L174.760-6.015L174.760-4.545L170.185-4.545L170.185-1.470L175.255-1.470L175.255 0Z M187.640 0L180.950 0L180.950-10.500L187.565-10.500L187.565-9.030L182.570-9.030L182.570-6.015L187.145-6.015L187.145-4.545L182.570-4.545L182.570-1.470L187.640-1.470L187.640 0Z" fill="#2f8a7e"></path></g></svg>