<svg xmlns="http://www.w3.org/2000/svg" width="1488" height="1002" viewBox="0 0 248 167"><svg x="18.9" y="14" width="210.2" height="108" viewBox="0 0 360 185" overflow="visible"><g fill="#1d1c19"><g transform="translate(64.98,0)"><path d="M22.88 133.59 L22.88 133.59 Q21.33 133.16 20.38 132.82 L20.38 132.82 L19.44 132.56 Q19.61 132.13 19.31 131.78 Q19.01 131.44 18.06 131.35 L18.06 131.35 Q16.77 130.49 15.39 128.95 Q14.02 127.40 12.99 125.76 Q11.95 124.13 11.61 123.36 L11.61 123.36 Q11.18 122.32 11.44 121.98 L11.44 121.98 Q11.52 121.81 11.70 121.72 L11.70 121.72 Q12.38 121.46 13.33 121.03 L13.33 121.03 Q14.28 120.35 15.35 120.00 Q16.43 119.66 17.11 121.12 L17.11 121.12 Q18.23 123.10 20.60 124.47 Q22.96 125.85 26.02 126.11 Q29.07 126.37 32.16 125.08 L32.16 125.08 Q34.23 124.13 34.40 122.45 Q34.57 120.78 33.11 118.54 L33.11 118.54 Q32.85 117.85 32.38 117.42 Q31.91 116.99 31.00 116.30 Q30.10 115.62 28.47 114.07 L28.47 114.07 Q27.18 113.47 26.10 112.95 Q25.03 112.43 23.82 111.83 L23.82 111.83 Q22.45 111.14 20.73 109.90 Q19.01 108.65 17.54 107.14 Q16.08 105.64 15.31 104.26 L15.31 104.26 Q13.93 102.97 13.59 100.69 Q13.24 98.42 13.72 95.84 Q14.19 93.26 15.31 91.19 L15.31 91.19 Q15.82 89.99 17.20 88.05 Q18.58 86.12 20.30 84.05 Q22.02 81.99 23.61 80.31 Q25.20 78.64 26.14 78.03 L26.14 78.03 Q26.83 77.35 27.61 76.57 L27.61 76.57 L28.38 75.88 Q28.47 75.45 28.72 75.45 L28.72 75.45 L28.90 75.45 Q29.33 75.20 30.79 74.59 Q32.25 73.99 33.97 72.36 L33.97 72.36 Q39.73 69.61 43.77 68.62 Q47.82 67.63 50.14 67.63 L50.14 67.63 Q52.29 67.71 54.35 68.79 Q56.42 69.86 57.92 71.50 Q59.43 73.13 59.68 75.20 L59.68 75.20 Q60.29 77.26 59.13 80.14 Q57.96 83.02 55.94 85.56 Q53.92 88.10 51.77 89.30 L51.77 89.30 Q49.36 90.33 47.69 89.56 Q46.01 88.78 46.10 87.15 L46.10 87.15 Q46.10 86.46 46.57 85.52 Q47.04 84.57 49.19 82.16 L49.19 82.16 Q51.94 78.12 52.12 76.40 Q52.29 74.68 50.57 74.42 L50.57 74.42 Q50.05 74.25 48.59 74.51 Q47.13 74.77 45.45 75.15 Q43.77 75.54 42.53 75.97 Q41.28 76.40 41.28 76.57 L41.28 76.57 L41.28 76.83 Q41.28 76.92 41.19 77.00 L41.19 77.00 Q41.19 77.09 40.94 77.00 L40.94 77.00 Q40.76 77.00 39.78 77.56 Q38.79 78.12 37.41 78.98 Q36.03 79.84 34.70 80.74 Q33.37 81.65 32.42 82.33 Q31.48 83.02 31.39 83.19 L31.39 83.19 Q31.22 84.14 29.41 84.91 L29.41 84.91 Q27.69 85.95 26.40 87.84 Q25.11 89.73 23.39 92.65 L23.39 92.65 Q21.93 94.63 21.33 96.91 Q20.73 99.19 21.33 100.57 L21.33 100.57 Q21.76 101.94 23.69 103.28 Q25.63 104.61 28.98 106.59 L28.98 106.59 Q31.91 108.22 34.49 110.03 Q37.07 111.83 38.87 113.51 Q40.68 115.19 41.19 116.30 L41.19 116.30 Q42.23 117.77 42.44 119.66 Q42.66 121.55 42.44 123.31 Q42.23 125.08 41.88 126.19 L41.88 126.19 Q41.28 127.57 40.03 129.12 Q38.79 130.67 37.75 130.58 L37.75 130.58 Q36.81 130.84 36.34 131.18 Q35.86 131.53 35.26 131.78 L35.26 131.78 Q34.66 132.13 32.42 132.60 Q30.19 133.07 27.52 133.38 Q24.85 133.68 22.88 133.59 Z M67.77 126.28 L67.77 126.28 Q65.19 127.74 62.31 127.96 Q59.43 128.17 56.93 127.18 Q54.44 126.19 52.89 124.22 L52.89 124.22 Q52.03 123.10 51.26 120.65 Q50.48 118.20 51.00 113.98 L51.00 113.98 Q51.51 110.03 53.45 105.98 Q55.38 101.94 58.22 98.85 Q61.06 95.75 64.41 94.63 L64.41 94.63 Q65.62 94.20 66.86 93.99 Q68.11 93.77 70.18 93.94 L70.18 93.94 Q72.15 94.20 73.70 94.93 Q75.25 95.66 75.94 96.52 L75.94 96.52 Q77.31 97.90 77.74 99.19 Q78.17 100.48 78.09 101.68 L78.09 101.68 Q77.66 104.44 75.64 107.62 Q73.62 110.80 70.00 112.35 L70.00 112.35 Q68.54 112.95 66.56 113.12 Q64.59 113.29 61.15 112.61 L61.15 112.61 Q59.08 112.18 58.44 113.04 Q57.79 113.90 57.88 116.39 L57.88 116.39 Q58.05 117.94 58.61 119.10 Q59.17 120.26 60.72 120.69 L60.72 120.69 Q62.69 121.03 63.55 120.73 Q64.41 120.43 65.70 119.83 L65.70 119.83 Q66.39 119.40 67.08 118.88 L67.08 118.88 L68.37 117.85 Q68.97 117.34 69.40 117.08 L69.40 117.08 Q69.83 116.73 70.26 116.65 Q70.69 116.56 71.12 116.56 L71.12 116.56 Q72.07 116.65 72.93 117.59 Q73.79 118.54 74.05 119.40 L74.05 119.40 Q74.05 120.09 73.19 121.33 Q72.33 122.58 70.91 123.92 Q69.49 125.25 67.77 126.28 Z M66.65 107.10 L66.65 107.10 Q67.25 106.84 68.41 105.90 Q69.57 104.95 70.52 103.88 Q71.47 102.80 71.47 102.20 L71.47 102.20 Q71.47 101.25 70.22 100.57 Q68.97 99.88 66.99 100.31 L66.99 100.31 Q66.31 100.48 65.36 101.25 Q64.41 102.03 63.47 103.02 Q62.52 104.01 61.83 104.91 Q61.15 105.81 60.89 106.33 L60.89 106.33 Q61.23 106.76 62.26 107.02 Q63.30 107.27 64.54 107.27 Q65.79 107.27 66.65 107.10 Z M96.49 126.28 L96.49 126.28 Q93.91 127.74 91.03 127.96 Q88.15 128.17 85.66 127.18 Q83.16 126.19 81.61 124.22 L81.61 124.22 Q80.75 123.10 79.98 120.65 Q79.21 118.20 79.72 113.98 L79.72 113.98 Q80.24 110.03 82.17 105.98 Q84.11 101.94 86.95 98.85 Q89.78 95.75 93.14 94.63 L93.14 94.63 Q94.34 94.20 95.59 93.99 Q96.84 93.77 98.90 93.94 L98.90 93.94 Q100.88 94.20 102.43 94.93 Q103.97 95.66 104.66 96.52 L104.66 96.52 Q106.04 97.90 106.47 99.19 Q106.90 100.48 106.81 101.68 L106.81 101.68 Q106.38 104.44 104.36 107.62 Q102.34 110.80 98.73 112.35 L98.73 112.35 Q97.27 112.95 95.29 113.12 Q93.31 113.29 89.87 112.61 L89.87 112.61 Q87.81 112.18 87.16 113.04 Q86.52 113.90 86.60 116.39 L86.60 116.39 Q86.77 117.94 87.33 119.10 Q87.89 120.26 89.44 120.69 L89.44 120.69 Q91.42 121.03 92.28 120.73 Q93.14 120.43 94.43 119.83 L94.43 119.83 Q95.12 119.40 95.80 118.88 L95.80 118.88 L97.09 117.85 Q97.70 117.34 98.13 117.08 L98.13 117.08 Q98.56 116.73 98.99 116.65 Q99.42 116.56 99.85 116.56 L99.85 116.56 Q100.79 116.65 101.65 117.59 Q102.51 118.54 102.77 119.40 L102.77 119.40 Q102.77 120.09 101.91 121.33 Q101.05 122.58 99.63 123.92 Q98.21 125.25 96.49 126.28 Z M95.37 107.10 L95.37 107.10 Q95.98 106.84 97.14 105.90 Q98.30 104.95 99.24 103.88 Q100.19 102.80 100.19 102.20 L100.19 102.20 Q100.19 101.25 98.94 100.57 Q97.70 99.88 95.72 100.31 L95.72 100.31 Q95.03 100.48 94.08 101.25 Q93.14 102.03 92.19 103.02 Q91.25 104.01 90.56 104.91 Q89.87 105.81 89.61 106.33 L89.61 106.33 Q89.96 106.76 90.99 107.02 Q92.02 107.27 93.27 107.27 Q94.51 107.27 95.37 107.10 Z M118.42 145.20 L118.42 145.20 Q116.01 146.15 113.39 144.90 Q110.77 143.65 108.88 140.99 L108.88 140.99 Q108.53 140.47 107.84 139.14 Q107.16 137.80 106.51 136.26 Q105.87 134.71 105.56 133.59 Q105.26 132.47 105.52 132.30 L105.52 132.30 Q105.87 131.35 107.07 131.18 Q108.27 131.01 109.48 131.31 Q110.68 131.61 110.85 132.13 L110.85 132.13 Q111.11 132.73 111.37 133.38 Q111.63 134.02 112.01 134.58 Q112.40 135.14 112.75 135.57 L112.75 135.57 Q113.69 137.03 114.81 137.59 Q115.93 138.15 116.53 137.72 L116.53 137.72 Q117.99 136.60 118.72 135.09 Q119.45 133.59 120.66 129.81 L120.66 129.81 Q121.60 126.62 122.29 124.30 Q122.98 121.98 123.75 120.00 L123.75 120.00 Q124.01 118.97 124.44 118.20 L124.44 118.20 Q124.53 118.02 124.61 117.85 L124.61 117.85 Q123.41 118.71 122.46 119.57 L122.46 119.57 Q121.17 120.78 118.94 121.72 L118.94 121.72 Q118.42 122.32 116.40 122.45 Q114.38 122.58 112.49 121.98 L112.49 121.98 Q111.28 121.29 110.55 120.56 Q109.82 119.83 109.35 118.88 Q108.88 117.94 108.36 116.65 L108.36 116.65 Q107.76 115.36 108.19 112.43 Q108.62 109.51 109.74 106.59 L109.74 106.59 Q110.77 104.44 112.75 101.94 Q114.72 99.45 116.96 97.43 Q119.20 95.41 121.00 94.89 L121.00 94.89 Q121.69 94.55 123.41 94.07 Q125.13 93.60 126.68 94.03 L126.68 94.03 Q128.14 94.20 128.91 94.67 Q129.69 95.15 131.41 96.61 L131.41 96.61 Q132.53 97.73 134.16 99.49 Q135.79 101.25 136.22 102.46 L136.22 102.46 Q136.83 103.75 136.48 105.25 Q136.14 106.76 135.28 107.88 L135.28 107.88 Q134.50 108.99 133.64 110.11 Q132.78 111.23 132.35 113.21 L132.35 113.21 Q131.92 115.79 130.72 119.01 Q129.52 122.24 128.83 124.99 L128.83 124.99 L127.45 130.32 Q125.30 137.63 122.72 140.94 Q120.14 144.25 118.42 145.20 Z M116.62 115.62 L116.62 115.62 Q118.34 115.53 119.58 115.23 Q120.83 114.93 121.95 113.85 Q123.07 112.78 124.53 110.54 L124.53 110.54 Q125.99 108.48 126.59 106.76 Q127.19 105.04 127.02 102.89 L127.02 102.89 Q126.94 101.51 126.25 101.08 Q125.56 100.65 124.44 100.82 L124.44 100.82 Q122.81 101.08 121.52 102.16 Q120.23 103.23 118.51 105.47 L118.51 105.47 Q117.22 107.19 116.36 109.60 L116.36 109.60 Q115.50 112.18 115.63 113.72 Q115.76 115.27 116.62 115.62 Z M143.88 138.41 L143.88 138.41 Q143.36 138.75 141.56 137.59 Q139.75 136.43 138.55 135.05 L138.55 135.05 Q137.94 134.36 137.77 133.59 Q137.60 132.82 137.86 130.67 L137.86 130.67 Q138.20 129.72 138.24 128.86 Q138.29 128.00 138.29 127.66 L138.29 127.66 Q138.29 127.14 138.59 125.25 Q138.89 123.36 139.23 121.25 Q139.58 119.14 139.84 118.02 L139.84 118.02 Q139.84 117.94 139.96 117.42 Q140.09 116.91 140.18 116.65 L140.18 116.65 Q140.35 115.87 140.61 114.76 Q140.87 113.64 141.13 111.75 L141.13 111.75 Q141.81 109.60 142.29 107.49 Q142.76 105.38 142.76 104.61 L142.76 104.61 Q142.76 103.06 143.96 102.37 L143.96 102.37 Q144.05 101.94 144.48 101.04 Q144.91 100.14 145.25 99.53 L145.25 99.53 Q146.97 94.63 148.09 91.71 Q149.21 88.78 150.41 86.63 L150.41 86.63 Q150.93 85.17 151.57 83.62 Q152.22 82.08 152.91 81.22 L152.91 81.22 Q153.51 80.01 155.01 78.25 Q156.52 76.49 158.24 74.85 Q159.96 73.22 160.99 72.44 L160.99 72.44 Q162.88 71.50 164.52 70.90 Q166.15 70.29 167.96 70.29 L167.96 70.29 Q169.59 70.29 170.84 71.03 Q172.09 71.76 174.58 73.99 L174.58 73.99 Q175.44 75.11 175.44 76.14 Q175.44 77.17 175.01 77.86 L175.01 77.86 Q174.41 79.24 173.20 81.26 Q172.00 83.28 170.88 84.87 Q169.76 86.46 169.25 86.55 L169.25 86.55 Q168.22 87.15 167.10 86.89 Q165.98 86.63 165.98 85.34 L165.98 85.34 Q165.98 84.74 166.07 84.23 L166.07 84.23 L166.07 83.71 Q166.32 82.59 166.71 81.73 Q167.10 80.87 167.44 80.27 L167.44 80.27 Q168.13 79.15 167.83 78.12 Q167.53 77.09 165.64 77.26 L165.64 77.26 Q165.38 77.43 164.65 78.08 Q163.92 78.72 163.10 79.54 Q162.28 80.36 161.68 81.09 Q161.08 81.82 161.08 82.08 L161.08 82.08 L160.65 82.94 Q160.13 83.88 159.19 85.00 L159.19 85.00 Q158.58 85.86 158.15 86.63 Q157.72 87.41 157.72 87.84 L157.72 87.84 Q157.72 88.18 157.64 88.44 Q157.55 88.70 157.21 88.70 L157.21 88.70 L156.95 89.56 Q156.61 90.42 155.92 91.62 L155.92 91.62 Q155.57 92.48 155.19 93.21 Q154.80 93.94 154.46 94.29 L154.46 94.29 L154.37 94.46 L154.03 95.41 Q153.60 96.44 153.17 97.47 Q152.74 98.50 152.74 98.67 L152.74 98.67 Q152.74 99.02 153.77 99.02 Q154.80 99.02 156.26 98.72 Q157.72 98.42 159.10 98.07 L159.10 98.07 Q160.30 97.73 160.82 97.73 Q161.34 97.73 162.45 98.07 L162.45 98.07 Q163.14 98.50 163.57 99.58 Q164.00 100.65 164.22 101.73 Q164.43 102.80 164.26 103.32 L164.26 103.32 Q164.17 103.66 162.32 104.26 Q160.48 104.87 158.67 105.21 L158.67 105.21 Q157.12 105.55 155.19 105.94 Q153.25 106.33 151.79 106.72 Q150.33 107.10 150.24 107.45 L150.24 107.45 Q149.90 107.45 149.68 107.88 Q149.47 108.31 149.47 108.65 L149.47 108.65 Q149.47 109.77 149.04 110.46 L149.04 110.46 Q148.87 110.97 148.48 112.56 Q148.09 114.15 147.70 116.00 Q147.32 117.85 147.02 119.44 Q146.72 121.03 146.72 121.55 L146.72 121.55 Q146.20 122.15 146.11 123.06 Q146.03 123.96 146.03 124.65 L146.03 124.65 Q145.68 125.33 145.60 125.89 Q145.51 126.45 145.51 126.80 L145.51 126.80 L145.51 127.14 Q145.51 127.40 145.43 127.66 L145.43 127.66 Q145.34 128.52 145.21 129.94 Q145.08 131.35 145.08 132.73 L145.08 132.73 L144.82 135.22 Q144.74 136.34 144.52 137.16 Q144.31 137.98 143.88 138.41 Z M186.02 127.83 L186.02 127.83 Q185.16 126.97 184.64 125.46 Q184.13 123.96 183.61 121.98 L183.61 121.98 Q183.44 121.29 183.48 120.43 Q183.52 119.57 183.44 119.06 L183.44 119.06 Q183.18 119.66 182.62 120.60 Q182.06 121.55 181.55 121.98 L181.55 121.98 Q181.20 122.32 180.00 123.31 Q178.79 124.30 177.59 124.90 L177.59 124.90 Q174.75 126.71 172.56 126.58 Q170.37 126.45 168.73 124.39 L168.73 124.39 Q167.36 123.27 166.50 121.55 Q165.64 119.83 166.15 117.42 L166.15 117.42 Q166.32 114.41 167.01 111.53 Q167.70 108.65 169.85 103.83 L169.85 103.83 Q171.66 100.31 172.60 98.33 Q173.55 96.35 173.81 96.01 L173.81 96.01 Q175.10 95.58 176.99 96.05 Q178.88 96.52 179.05 97.73 L179.05 97.73 Q179.57 98.59 179.05 100.95 Q178.54 103.32 176.99 106.33 L176.99 106.33 Q175.78 109.25 174.71 112.00 Q173.63 114.76 173.42 116.65 Q173.20 118.54 174.41 118.97 L174.41 118.97 Q175.18 119.40 176.69 118.88 Q178.19 118.37 180.26 115.79 Q182.32 113.21 184.64 107.62 L184.64 107.62 Q185.33 105.90 185.67 104.56 Q186.02 103.23 186.10 101.60 L186.10 101.60 Q185.93 100.57 186.66 99.45 Q187.39 98.33 188.43 97.73 L188.43 97.73 Q188.77 97.30 189.37 96.87 L189.37 96.87 Q189.80 96.61 189.97 96.78 L189.97 96.78 Q190.06 96.78 190.15 96.95 L190.15 96.95 L191.52 96.87 Q191.87 96.78 192.30 97.56 Q192.73 98.33 193.16 98.67 L193.16 98.67 Q194.10 99.45 194.02 102.03 Q193.93 104.61 191.95 109.25 L191.95 109.25 Q190.32 112.78 189.76 114.58 Q189.20 116.39 189.11 118.11 L189.11 118.11 Q189.11 119.66 189.37 120.73 Q189.63 121.81 190.92 122.93 L190.92 122.93 Q191.87 123.53 191.99 124.95 Q192.12 126.37 192.04 127.40 L192.04 127.40 Q191.87 128.17 190.70 128.47 Q189.54 128.77 188.21 128.60 Q186.88 128.43 186.02 127.83 Z M197.80 126.54 L197.80 126.54 Q197.11 125.85 196.81 124.47 Q196.51 123.10 196.60 121.77 Q196.68 120.43 197.03 119.74 L197.03 119.74 Q197.03 119.06 197.24 118.67 Q197.46 118.28 197.37 117.94 L197.37 117.94 Q197.28 117.59 197.54 116.73 Q197.80 115.87 198.06 115.10 L198.06 115.10 Q198.66 113.72 199.43 111.53 Q200.21 109.34 200.98 107.06 Q201.76 104.78 202.27 103.10 Q202.79 101.43 202.87 101.08 L202.87 101.08 Q202.87 100.05 204.25 99.96 L204.25 99.96 Q205.28 99.62 206.74 100.82 Q208.21 102.03 209.07 103.40 L209.07 103.40 Q209.75 104.09 209.58 105.21 Q209.41 106.33 208.46 108.39 L208.46 108.39 Q208.12 109.08 207.65 110.67 Q207.17 112.26 207.00 113.29 L207.00 113.29 Q206.66 113.98 206.18 115.23 Q205.71 116.48 205.37 117.59 L205.37 117.59 Q205.20 118.02 205.02 119.19 Q204.85 120.35 204.59 121.55 Q204.34 122.75 203.91 123.44 L203.91 123.44 Q203.13 126.97 201.20 127.57 Q199.26 128.17 197.80 126.54 Z " fill="#1d1c19"></path><defs><mask id="hm2" maskUnits="userSpaceOnUse"><path d="M0,3 C0,-3 -9,-6 -9,-13 C-9,-19 -2,-20 0,-14 C2,-20 9,-19 9,-13 C9,-6 0,-3 0,3 Z" fill="#fff"></path><path d="M-7.5,-8 q2.5,-3.4 5,0 t5,0 t5,0" fill="none" stroke="#000" stroke-width="2.1" stroke-linecap="round"></path></mask></defs><g transform="translate(210.40,95.23) rotate(12) scale(0.940)"><path d="M0,3 C0,-3 -9,-6 -9,-13 C-9,-19 -2,-20 0,-14 C2,-20 9,-19 9,-13 C9,-6 0,-3 0,3 Z" fill="#d23b34" mask="url(#hm2)"></path></g></g></g></svg><g transform="translate(0.07,-3.54)"><path d="M13.44 122.32L13.44 122.32Q12.04 122.32 10.96 121.82Q9.88 121.32 9.26 120.37Q8.65 119.42 8.65 118.05L8.65 118.05L8.65 117.60L10.74 117.60L10.74 118.05Q10.74 119.26 11.48 119.86Q12.21 120.46 13.44 120.46L13.44 120.46Q14.69 120.46 15.32 119.95Q15.95 119.44 15.95 118.63L15.95 118.63Q15.95 118.09 15.65 117.75Q15.35 117.40 14.78 117.19Q14.21 116.98 13.41 116.79L13.41 116.79L12.88 116.68Q11.67 116.40 10.78 115.97Q9.90 115.54 9.42 114.86Q8.95 114.17 8.95 113.07L8.95 113.07Q8.95 111.96 9.47 111.17Q10.00 110.38 10.97 109.96Q11.93 109.54 13.23 109.54L13.23 109.54Q14.53 109.54 15.55 109.98Q16.57 110.42 17.15 111.30Q17.74 112.17 17.74 113.49L17.74 113.49L17.74 114.07L15.65 114.07L15.65 113.49Q15.65 112.74 15.35 112.28Q15.06 111.82 14.51 111.61Q13.97 111.40 13.23 111.40L13.23 111.40Q12.14 111.40 11.58 111.82Q11.02 112.24 11.02 113.02L11.02 113.02Q11.02 113.51 11.27 113.85Q11.53 114.19 12.03 114.41Q12.53 114.63 13.28 114.79L13.28 114.79L13.81 114.91Q15.07 115.19 16.02 115.62Q16.97 116.05 17.50 116.75Q18.04 117.46 18.04 118.58L18.04 118.58Q18.04 119.69 17.47 120.53Q16.90 121.37 15.87 121.84Q14.85 122.32 13.44 122.32Z M36.10 122.07L33.99 122.07L33.99 111.70L30.32 111.70L30.32 109.79L39.77 109.79L39.77 111.70L36.10 111.70L36.10 122.07Z M53.95 122.07L51.77 122.07L55.14 109.79L58.81 109.79L62.18 122.07L60.00 122.07L59.27 119.26L54.68 119.26L53.95 122.07ZM56.83 111.10L55.18 117.33L58.77 117.33L57.12 111.10L56.83 111.10Z M77.08 122.07L74.95 122.07L74.95 109.79L80.20 109.79Q81.36 109.79 82.22 110.19Q83.08 110.59 83.56 111.32Q84.05 112.05 84.05 113.07L84.05 113.07L84.05 113.26Q84.05 114.40 83.50 115.09Q82.96 115.77 82.19 116.09L82.19 116.09L82.19 116.37Q82.87 116.40 83.27 116.84Q83.66 117.28 83.66 118.02L83.66 118.02L83.66 122.07L81.55 122.07L81.55 118.32Q81.55 117.88 81.32 117.61Q81.08 117.33 80.55 117.33L80.55 117.33L77.08 117.33L77.08 122.07ZM77.08 111.70L77.08 115.42L79.99 115.42Q80.91 115.42 81.42 114.94Q81.94 114.46 81.94 113.65L81.94 113.65L81.94 113.49Q81.94 112.67 81.43 112.18Q80.92 111.70 79.99 111.70L79.99 111.70L77.08 111.70Z M99.35 122.07L97.26 122.07L97.26 109.79L101.30 109.79L104.19 120.65L104.48 120.65L104.48 109.79L106.56 109.79L106.56 122.07L102.54 122.07L99.65 111.21L99.35 111.21L99.35 122.07Z M126.13 122.07L119.80 122.07L119.80 120.21L121.45 120.21L121.45 111.65L119.80 111.65L119.80 109.79L126.08 109.79Q127.19 109.79 128.02 110.16Q128.85 110.54 129.32 111.23Q129.78 111.93 129.78 112.89L129.78 112.89L129.78 113.05Q129.78 113.89 129.47 114.44Q129.15 114.98 128.71 115.28Q128.27 115.58 127.87 115.70L127.87 115.70L127.87 116Q128.27 116.11 128.74 116.39Q129.20 116.68 129.53 117.24Q129.85 117.79 129.85 118.67L129.85 118.67L129.85 118.84Q129.85 119.84 129.37 120.57Q128.89 121.30 128.05 121.69Q127.22 122.07 126.13 122.07L126.13 122.07ZM123.55 116.84L123.55 120.16L125.89 120.16Q126.73 120.16 127.23 119.75Q127.73 119.33 127.73 118.58L127.73 118.58L127.73 118.42Q127.73 117.67 127.24 117.25Q126.75 116.84 125.89 116.84L125.89 116.84L123.55 116.84ZM123.55 111.70L123.55 114.93L125.87 114.93Q126.68 114.93 127.18 114.53Q127.68 114.12 127.68 113.40L127.68 113.40L127.68 113.23Q127.68 112.51 127.18 112.10Q126.68 111.70 125.87 111.70L125.87 111.70L123.55 111.70Z M150.97 122.07L143.05 122.07L143.05 109.79L150.88 109.79L150.88 111.70L145.17 111.70L145.17 114.93L150.39 114.93L150.39 116.84L145.17 116.84L145.17 120.16L150.97 120.16L150.97 122.07Z M166.15 122.07L164.02 122.07L164.02 109.79L169.27 109.79Q170.43 109.79 171.29 110.19Q172.15 110.59 172.63 111.32Q173.12 112.05 173.12 113.07L173.12 113.07L173.12 113.26Q173.12 114.40 172.57 115.09Q172.03 115.77 171.25 116.09L171.25 116.09L171.25 116.37Q171.94 116.40 172.33 116.84Q172.73 117.28 172.73 118.02L172.73 118.02L172.73 122.07L170.62 122.07L170.62 118.32Q170.62 117.88 170.39 117.61Q170.15 117.33 169.62 117.33L169.62 117.33L166.15 117.33L166.15 122.07ZM166.15 111.70L166.15 115.42L169.06 115.42Q169.97 115.42 170.49 114.94Q171.01 114.46 171.01 113.65L171.01 113.65L171.01 113.49Q171.01 112.67 170.50 112.18Q169.99 111.70 169.06 111.70L169.06 111.70L166.15 111.70Z M190.60 122.32L190.60 122.32Q189.30 122.32 188.27 121.75Q187.24 121.18 186.64 120.08Q186.03 118.98 186.03 117.39L186.03 117.39L186.03 114.47Q186.03 112.09 187.37 110.81Q188.70 109.54 190.95 109.54L190.95 109.54Q193.19 109.54 194.40 110.74Q195.61 111.95 195.61 113.98L195.61 113.98L195.61 114.05L193.54 114.05L193.54 113.91Q193.54 113.21 193.26 112.65Q192.98 112.09 192.40 111.76Q191.82 111.44 190.95 111.44L190.95 111.44Q189.65 111.44 188.90 112.24Q188.16 113.03 188.16 114.44L188.16 114.44L188.16 117.42Q188.16 118.81 188.90 119.63Q189.65 120.46 190.98 120.46L190.98 120.46Q192.32 120.46 192.93 119.74Q193.54 119.02 193.54 117.90L193.54 117.90L193.54 117.68L190.44 117.68L190.44 115.89L195.61 115.89L195.61 122.07L193.68 122.07L193.68 120.86L193.39 120.86Q193.25 121.18 192.95 121.52Q192.65 121.86 192.10 122.09Q191.54 122.32 190.60 122.32Z M217.06 122.07L209.15 122.07L209.15 109.79L216.97 109.79L216.97 111.70L211.27 111.70L211.27 114.93L216.48 114.93L216.48 116.84L211.27 116.84L211.27 120.16L217.06 120.16L217.06 122.07Z M232.24 122.07L230.12 122.07L230.12 109.79L235.37 109.79Q236.52 109.79 237.38 110.19Q238.24 110.59 238.73 111.32Q239.21 112.05 239.21 113.07L239.21 113.07L239.21 113.26Q239.21 114.40 238.67 115.09Q238.12 115.77 237.35 116.09L237.35 116.09L237.35 116.37Q238.03 116.40 238.43 116.84Q238.82 117.28 238.82 118.02L238.82 118.02L238.82 122.07L236.72 122.07L236.72 118.32Q236.72 117.88 236.48 117.61Q236.24 117.33 235.72 117.33L235.72 117.33L232.24 117.33L232.24 122.07ZM232.24 111.70L232.24 115.42L235.16 115.42Q236.07 115.42 236.59 114.94Q237.10 114.46 237.10 113.65L237.10 113.65L237.10 113.49Q237.10 112.67 236.59 112.18Q236.09 111.70 235.16 111.70L235.16 111.70L232.24 111.70Z" fill="#2f7d8a"></path><path d="M102.60 142.64L102.60 142.64Q101.16 142.64 100.05 142.13Q98.95 141.61 98.32 140.64Q97.69 139.67 97.69 138.27L97.69 138.27L97.69 137.80L99.83 137.80L99.83 138.27Q99.83 139.51 100.58 140.12Q101.34 140.73 102.60 140.73L102.60 140.73Q103.88 140.73 104.53 140.21Q105.17 139.69 105.17 138.86L105.17 138.86Q105.17 138.30 104.87 137.95Q104.56 137.60 103.98 137.38Q103.39 137.17 102.56 136.97L102.56 136.97L102.02 136.86Q100.78 136.57 99.87 136.13Q98.96 135.69 98.48 134.99Q97.99 134.29 97.99 133.15L97.99 133.15Q97.99 132.02 98.53 131.21Q99.07 130.40 100.06 129.97Q101.05 129.54 102.38 129.54L102.38 129.54Q103.72 129.54 104.76 129.99Q105.80 130.44 106.41 131.34Q107.01 132.24 107.01 133.59L107.01 133.59L107.01 134.18L104.87 134.18L104.87 133.59Q104.87 132.81 104.56 132.34Q104.26 131.88 103.70 131.66Q103.14 131.44 102.38 131.44L102.38 131.44Q101.27 131.44 100.69 131.88Q100.12 132.31 100.12 133.10L100.12 133.10Q100.12 133.60 100.38 133.96Q100.64 134.31 101.15 134.53Q101.66 134.76 102.44 134.92L102.44 134.92L102.98 135.04Q104.27 135.33 105.25 135.77Q106.22 136.21 106.77 136.93Q107.32 137.65 107.32 138.81L107.32 138.81Q107.32 139.94 106.73 140.80Q106.15 141.67 105.09 142.15Q104.04 142.64 102.60 142.64Z M128.82 142.39L120.71 142.39L120.71 129.79L128.73 129.79L128.73 131.75L122.88 131.75L122.88 135.06L128.23 135.06L128.23 137.02L122.88 137.02L122.88 140.43L128.82 140.43L128.82 142.39Z M150.33 142.39L142.21 142.39L142.21 129.79L150.24 129.79L150.24 131.75L144.39 131.75L144.39 135.06L149.74 135.06L149.74 137.02L144.39 137.02L144.39 140.43L150.33 140.43L150.33 142.39Z" fill="#2f7d8a"></path></g></svg>