<svg xmlns="http://www.w3.org/2000/svg" width="1800" height="744" viewBox="0 0 300 124"><path d="M25.2,-72.2 L22.6,-75 L20.5,-75 L14.9,-72.5 L6.9,-51.7 L5,-48.1 L2.9,-46.5 L1,-41.4 L-0.9,-40 L-4.5,-32.7 L-4,-29.4 L-7.3,-27.5 L-7,-25.3 L-8.8,-21.6 L-11.1,-11.2 L-14.8,-7 L-14.8,-3.5 L-17.7,-2.1 L-17.1,-0.7 L-17.6,1 L-20.3,3 L-20.4,4.7 L-22.3,6.7 L-22.8,8.6 L-22,10.8 L-24.2,12.6 L-25.2,16 L-24.7,18.8 L-22,21.4 L-20.1,21 L-17.8,18.6 L-16.3,19 L-16.8,22.5 L-14.6,25.9 L-14.1,31.2 L-9.1,36.6 L-7.3,41.9 L-7.8,45.3 L-11.2,47.9 L-11.9,51.8 L-12.7,52.3 L-13,61.3 L-14,63.5 L-12.8,67 L-0.2,75 L6.5,74 L8,74.9 L10.3,73.9 L10.6,72.7 L11.5,73.2 L13,69.8 L11.7,66.1 L12.5,65.6 L12,63.7 L13.4,62 L13.6,59.1 L11,34.9 L9.7,32.1 L10.5,27.3 L10.2,17.4 L11.2,11.5 L10.7,0.7 L9.1,-9.1 L10,-17.5 L15.3,-32.9 L15.9,-38 L20,-52.1 L25.1,-59.7 L24.5,-68.4 Z M-9.2,-8 L-9.73,-6.16 L-11,-5.4 L-12.27,-6.16 L-12.8,-8 L-12.27,-9.84 L-11,-10.6 L-9.73,-9.84 Z M-9.20,-4.00 a2.2,2.2 0 1 0 4.40,0 a2.2,2.2 0 1 0 -4.40,0 Z" fill="none" stroke="#c2683f" stroke-width="3.98" stroke-linejoin="round" stroke-linecap="round" transform="translate(62 62) rotate(-6) scale(0.65333) translate(-1.03 0.00)"></path><svg x="145.51" y="24.00" width="108.97" height="56.00" viewBox="0 0 360 185" overflow="visible"><g fill="#1d1c19"><g transform="translate(64.98,0)"><path d="M22.88 133.59 L22.88 133.59 Q21.33 133.16 20.38 132.82 L20.38 132.82 L19.44 132.56 Q19.61 132.13 19.31 131.78 Q19.01 131.44 18.06 131.35 L18.06 131.35 Q16.77 130.49 15.39 128.95 Q14.02 127.40 12.99 125.76 Q11.95 124.13 11.61 123.36 L11.61 123.36 Q11.18 122.32 11.44 121.98 L11.44 121.98 Q11.52 121.81 11.70 121.72 L11.70 121.72 Q12.38 121.46 13.33 121.03 L13.33 121.03 Q14.28 120.35 15.35 120.00 Q16.43 119.66 17.11 121.12 L17.11 121.12 Q18.23 123.10 20.60 124.47 Q22.96 125.85 26.02 126.11 Q29.07 126.37 32.16 125.08 L32.16 125.08 Q34.23 124.13 34.40 122.45 Q34.57 120.78 33.11 118.54 L33.11 118.54 Q32.85 117.85 32.38 117.42 Q31.91 116.99 31.00 116.30 Q30.10 115.62 28.47 114.07 L28.47 114.07 Q27.18 113.47 26.10 112.95 Q25.03 112.43 23.82 111.83 L23.82 111.83 Q22.45 111.14 20.73 109.90 Q19.01 108.65 17.54 107.14 Q16.08 105.64 15.31 104.26 L15.31 104.26 Q13.93 102.97 13.59 100.69 Q13.24 98.42 13.72 95.84 Q14.19 93.26 15.31 91.19 L15.31 91.19 Q15.82 89.99 17.20 88.05 Q18.58 86.12 20.30 84.05 Q22.02 81.99 23.61 80.31 Q25.20 78.64 26.14 78.03 L26.14 78.03 Q26.83 77.35 27.61 76.57 L27.61 76.57 L28.38 75.88 Q28.47 75.45 28.72 75.45 L28.72 75.45 L28.90 75.45 Q29.33 75.20 30.79 74.59 Q32.25 73.99 33.97 72.36 L33.97 72.36 Q39.73 69.61 43.77 68.62 Q47.82 67.63 50.14 67.63 L50.14 67.63 Q52.29 67.71 54.35 68.79 Q56.42 69.86 57.92 71.50 Q59.43 73.13 59.68 75.20 L59.68 75.20 Q60.29 77.26 59.13 80.14 Q57.96 83.02 55.94 85.56 Q53.92 88.10 51.77 89.30 L51.77 89.30 Q49.36 90.33 47.69 89.56 Q46.01 88.78 46.10 87.15 L46.10 87.15 Q46.10 86.46 46.57 85.52 Q47.04 84.57 49.19 82.16 L49.19 82.16 Q51.94 78.12 52.12 76.40 Q52.29 74.68 50.57 74.42 L50.57 74.42 Q50.05 74.25 48.59 74.51 Q47.13 74.77 45.45 75.15 Q43.77 75.54 42.53 75.97 Q41.28 76.40 41.28 76.57 L41.28 76.57 L41.28 76.83 Q41.28 76.92 41.19 77.00 L41.19 77.00 Q41.19 77.09 40.94 77.00 L40.94 77.00 Q40.76 77.00 39.78 77.56 Q38.79 78.12 37.41 78.98 Q36.03 79.84 34.70 80.74 Q33.37 81.65 32.42 82.33 Q31.48 83.02 31.39 83.19 L31.39 83.19 Q31.22 84.14 29.41 84.91 L29.41 84.91 Q27.69 85.95 26.40 87.84 Q25.11 89.73 23.39 92.65 L23.39 92.65 Q21.93 94.63 21.33 96.91 Q20.73 99.19 21.33 100.57 L21.33 100.57 Q21.76 101.94 23.69 103.28 Q25.63 104.61 28.98 106.59 L28.98 106.59 Q31.91 108.22 34.49 110.03 Q37.07 111.83 38.87 113.51 Q40.68 115.19 41.19 116.30 L41.19 116.30 Q42.23 117.77 42.44 119.66 Q42.66 121.55 42.44 123.31 Q42.23 125.08 41.88 126.19 L41.88 126.19 Q41.28 127.57 40.03 129.12 Q38.79 130.67 37.75 130.58 L37.75 130.58 Q36.81 130.84 36.34 131.18 Q35.86 131.53 35.26 131.78 L35.26 131.78 Q34.66 132.13 32.42 132.60 Q30.19 133.07 27.52 133.38 Q24.85 133.68 22.88 133.59 Z M67.77 126.28 L67.77 126.28 Q65.19 127.74 62.31 127.96 Q59.43 128.17 56.93 127.18 Q54.44 126.19 52.89 124.22 L52.89 124.22 Q52.03 123.10 51.26 120.65 Q50.48 118.20 51.00 113.98 L51.00 113.98 Q51.51 110.03 53.45 105.98 Q55.38 101.94 58.22 98.85 Q61.06 95.75 64.41 94.63 L64.41 94.63 Q65.62 94.20 66.86 93.99 Q68.11 93.77 70.18 93.94 L70.18 93.94 Q72.15 94.20 73.70 94.93 Q75.25 95.66 75.94 96.52 L75.94 96.52 Q77.31 97.90 77.74 99.19 Q78.17 100.48 78.09 101.68 L78.09 101.68 Q77.66 104.44 75.64 107.62 Q73.62 110.80 70.00 112.35 L70.00 112.35 Q68.54 112.95 66.56 113.12 Q64.59 113.29 61.15 112.61 L61.15 112.61 Q59.08 112.18 58.44 113.04 Q57.79 113.90 57.88 116.39 L57.88 116.39 Q58.05 117.94 58.61 119.10 Q59.17 120.26 60.72 120.69 L60.72 120.69 Q62.69 121.03 63.55 120.73 Q64.41 120.43 65.70 119.83 L65.70 119.83 Q66.39 119.40 67.08 118.88 L67.08 118.88 L68.37 117.85 Q68.97 117.34 69.40 117.08 L69.40 117.08 Q69.83 116.73 70.26 116.65 Q70.69 116.56 71.12 116.56 L71.12 116.56 Q72.07 116.65 72.93 117.59 Q73.79 118.54 74.05 119.40 L74.05 119.40 Q74.05 120.09 73.19 121.33 Q72.33 122.58 70.91 123.92 Q69.49 125.25 67.77 126.28 Z M66.65 107.10 L66.65 107.10 Q67.25 106.84 68.41 105.90 Q69.57 104.95 70.52 103.88 Q71.47 102.80 71.47 102.20 L71.47 102.20 Q71.47 101.25 70.22 100.57 Q68.97 99.88 66.99 100.31 L66.99 100.31 Q66.31 100.48 65.36 101.25 Q64.41 102.03 63.47 103.02 Q62.52 104.01 61.83 104.91 Q61.15 105.81 60.89 106.33 L60.89 106.33 Q61.23 106.76 62.26 107.02 Q63.30 107.27 64.54 107.27 Q65.79 107.27 66.65 107.10 Z M96.49 126.28 L96.49 126.28 Q93.91 127.74 91.03 127.96 Q88.15 128.17 85.66 127.18 Q83.16 126.19 81.61 124.22 L81.61 124.22 Q80.75 123.10 79.98 120.65 Q79.21 118.20 79.72 113.98 L79.72 113.98 Q80.24 110.03 82.17 105.98 Q84.11 101.94 86.95 98.85 Q89.78 95.75 93.14 94.63 L93.14 94.63 Q94.34 94.20 95.59 93.99 Q96.84 93.77 98.90 93.94 L98.90 93.94 Q100.88 94.20 102.43 94.93 Q103.97 95.66 104.66 96.52 L104.66 96.52 Q106.04 97.90 106.47 99.19 Q106.90 100.48 106.81 101.68 L106.81 101.68 Q106.38 104.44 104.36 107.62 Q102.34 110.80 98.73 112.35 L98.73 112.35 Q97.27 112.95 95.29 113.12 Q93.31 113.29 89.87 112.61 L89.87 112.61 Q87.81 112.18 87.16 113.04 Q86.52 113.90 86.60 116.39 L86.60 116.39 Q86.77 117.94 87.33 119.10 Q87.89 120.26 89.44 120.69 L89.44 120.69 Q91.42 121.03 92.28 120.73 Q93.14 120.43 94.43 119.83 L94.43 119.83 Q95.12 119.40 95.80 118.88 L95.80 118.88 L97.09 117.85 Q97.70 117.34 98.13 117.08 L98.13 117.08 Q98.56 116.73 98.99 116.65 Q99.42 116.56 99.85 116.56 L99.85 116.56 Q100.79 116.65 101.65 117.59 Q102.51 118.54 102.77 119.40 L102.77 119.40 Q102.77 120.09 101.91 121.33 Q101.05 122.58 99.63 123.92 Q98.21 125.25 96.49 126.28 Z M95.37 107.10 L95.37 107.10 Q95.98 106.84 97.14 105.90 Q98.30 104.95 99.24 103.88 Q100.19 102.80 100.19 102.20 L100.19 102.20 Q100.19 101.25 98.94 100.57 Q97.70 99.88 95.72 100.31 L95.72 100.31 Q95.03 100.48 94.08 101.25 Q93.14 102.03 92.19 103.02 Q91.25 104.01 90.56 104.91 Q89.87 105.81 89.61 106.33 L89.61 106.33 Q89.96 106.76 90.99 107.02 Q92.02 107.27 93.27 107.27 Q94.51 107.27 95.37 107.10 Z M118.42 145.20 L118.42 145.20 Q116.01 146.15 113.39 144.90 Q110.77 143.65 108.88 140.99 L108.88 140.99 Q108.53 140.47 107.84 139.14 Q107.16 137.80 106.51 136.26 Q105.87 134.71 105.56 133.59 Q105.26 132.47 105.52 132.30 L105.52 132.30 Q105.87 131.35 107.07 131.18 Q108.27 131.01 109.48 131.31 Q110.68 131.61 110.85 132.13 L110.85 132.13 Q111.11 132.73 111.37 133.38 Q111.63 134.02 112.01 134.58 Q112.40 135.14 112.75 135.57 L112.75 135.57 Q113.69 137.03 114.81 137.59 Q115.93 138.15 116.53 137.72 L116.53 137.72 Q117.99 136.60 118.72 135.09 Q119.45 133.59 120.66 129.81 L120.66 129.81 Q121.60 126.62 122.29 124.30 Q122.98 121.98 123.75 120.00 L123.75 120.00 Q124.01 118.97 124.44 118.20 L124.44 118.20 Q124.53 118.02 124.61 117.85 L124.61 117.85 Q123.41 118.71 122.46 119.57 L122.46 119.57 Q121.17 120.78 118.94 121.72 L118.94 121.72 Q118.42 122.32 116.40 122.45 Q114.38 122.58 112.49 121.98 L112.49 121.98 Q111.28 121.29 110.55 120.56 Q109.82 119.83 109.35 118.88 Q108.88 117.94 108.36 116.65 L108.36 116.65 Q107.76 115.36 108.19 112.43 Q108.62 109.51 109.74 106.59 L109.74 106.59 Q110.77 104.44 112.75 101.94 Q114.72 99.45 116.96 97.43 Q119.20 95.41 121.00 94.89 L121.00 94.89 Q121.69 94.55 123.41 94.07 Q125.13 93.60 126.68 94.03 L126.68 94.03 Q128.14 94.20 128.91 94.67 Q129.69 95.15 131.41 96.61 L131.41 96.61 Q132.53 97.73 134.16 99.49 Q135.79 101.25 136.22 102.46 L136.22 102.46 Q136.83 103.75 136.48 105.25 Q136.14 106.76 135.28 107.88 L135.28 107.88 Q134.50 108.99 133.64 110.11 Q132.78 111.23 132.35 113.21 L132.35 113.21 Q131.92 115.79 130.72 119.01 Q129.52 122.24 128.83 124.99 L128.83 124.99 L127.45 130.32 Q125.30 137.63 122.72 140.94 Q120.14 144.25 118.42 145.20 Z M116.62 115.62 L116.62 115.62 Q118.34 115.53 119.58 115.23 Q120.83 114.93 121.95 113.85 Q123.07 112.78 124.53 110.54 L124.53 110.54 Q125.99 108.48 126.59 106.76 Q127.19 105.04 127.02 102.89 L127.02 102.89 Q126.94 101.51 126.25 101.08 Q125.56 100.65 124.44 100.82 L124.44 100.82 Q122.81 101.08 121.52 102.16 Q120.23 103.23 118.51 105.47 L118.51 105.47 Q117.22 107.19 116.36 109.60 L116.36 109.60 Q115.50 112.18 115.63 113.72 Q115.76 115.27 116.62 115.62 Z M143.88 138.41 L143.88 138.41 Q143.36 138.75 141.56 137.59 Q139.75 136.43 138.55 135.05 L138.55 135.05 Q137.94 134.36 137.77 133.59 Q137.60 132.82 137.86 130.67 L137.86 130.67 Q138.20 129.72 138.24 128.86 Q138.29 128.00 138.29 127.66 L138.29 127.66 Q138.29 127.14 138.59 125.25 Q138.89 123.36 139.23 121.25 Q139.58 119.14 139.84 118.02 L139.84 118.02 Q139.84 117.94 139.96 117.42 Q140.09 116.91 140.18 116.65 L140.18 116.65 Q140.35 115.87 140.61 114.76 Q140.87 113.64 141.13 111.75 L141.13 111.75 Q141.81 109.60 142.29 107.49 Q142.76 105.38 142.76 104.61 L142.76 104.61 Q142.76 103.06 143.96 102.37 L143.96 102.37 Q144.05 101.94 144.48 101.04 Q144.91 100.14 145.25 99.53 L145.25 99.53 Q146.97 94.63 148.09 91.71 Q149.21 88.78 150.41 86.63 L150.41 86.63 Q150.93 85.17 151.57 83.62 Q152.22 82.08 152.91 81.22 L152.91 81.22 Q153.51 80.01 155.01 78.25 Q156.52 76.49 158.24 74.85 Q159.96 73.22 160.99 72.44 L160.99 72.44 Q162.88 71.50 164.52 70.90 Q166.15 70.29 167.96 70.29 L167.96 70.29 Q169.59 70.29 170.84 71.03 Q172.09 71.76 174.58 73.99 L174.58 73.99 Q175.44 75.11 175.44 76.14 Q175.44 77.17 175.01 77.86 L175.01 77.86 Q174.41 79.24 173.20 81.26 Q172.00 83.28 170.88 84.87 Q169.76 86.46 169.25 86.55 L169.25 86.55 Q168.22 87.15 167.10 86.89 Q165.98 86.63 165.98 85.34 L165.98 85.34 Q165.98 84.74 166.07 84.23 L166.07 84.23 L166.07 83.71 Q166.32 82.59 166.71 81.73 Q167.10 80.87 167.44 80.27 L167.44 80.27 Q168.13 79.15 167.83 78.12 Q167.53 77.09 165.64 77.26 L165.64 77.26 Q165.38 77.43 164.65 78.08 Q163.92 78.72 163.10 79.54 Q162.28 80.36 161.68 81.09 Q161.08 81.82 161.08 82.08 L161.08 82.08 L160.65 82.94 Q160.13 83.88 159.19 85.00 L159.19 85.00 Q158.58 85.86 158.15 86.63 Q157.72 87.41 157.72 87.84 L157.72 87.84 Q157.72 88.18 157.64 88.44 Q157.55 88.70 157.21 88.70 L157.21 88.70 L156.95 89.56 Q156.61 90.42 155.92 91.62 L155.92 91.62 Q155.57 92.48 155.19 93.21 Q154.80 93.94 154.46 94.29 L154.46 94.29 L154.37 94.46 L154.03 95.41 Q153.60 96.44 153.17 97.47 Q152.74 98.50 152.74 98.67 L152.74 98.67 Q152.74 99.02 153.77 99.02 Q154.80 99.02 156.26 98.72 Q157.72 98.42 159.10 98.07 L159.10 98.07 Q160.30 97.73 160.82 97.73 Q161.34 97.73 162.45 98.07 L162.45 98.07 Q163.14 98.50 163.57 99.58 Q164.00 100.65 164.22 101.73 Q164.43 102.80 164.26 103.32 L164.26 103.32 Q164.17 103.66 162.32 104.26 Q160.48 104.87 158.67 105.21 L158.67 105.21 Q157.12 105.55 155.19 105.94 Q153.25 106.33 151.79 106.72 Q150.33 107.10 150.24 107.45 L150.24 107.45 Q149.90 107.45 149.68 107.88 Q149.47 108.31 149.47 108.65 L149.47 108.65 Q149.47 109.77 149.04 110.46 L149.04 110.46 Q148.87 110.97 148.48 112.56 Q148.09 114.15 147.70 116.00 Q147.32 117.85 147.02 119.44 Q146.72 121.03 146.72 121.55 L146.72 121.55 Q146.20 122.15 146.11 123.06 Q146.03 123.96 146.03 124.65 L146.03 124.65 Q145.68 125.33 145.60 125.89 Q145.51 126.45 145.51 126.80 L145.51 126.80 L145.51 127.14 Q145.51 127.40 145.43 127.66 L145.43 127.66 Q145.34 128.52 145.21 129.94 Q145.08 131.35 145.08 132.73 L145.08 132.73 L144.82 135.22 Q144.74 136.34 144.52 137.16 Q144.31 137.98 143.88 138.41 Z M186.02 127.83 L186.02 127.83 Q185.16 126.97 184.64 125.46 Q184.13 123.96 183.61 121.98 L183.61 121.98 Q183.44 121.29 183.48 120.43 Q183.52 119.57 183.44 119.06 L183.44 119.06 Q183.18 119.66 182.62 120.60 Q182.06 121.55 181.55 121.98 L181.55 121.98 Q181.20 122.32 180.00 123.31 Q178.79 124.30 177.59 124.90 L177.59 124.90 Q174.75 126.71 172.56 126.58 Q170.37 126.45 168.73 124.39 L168.73 124.39 Q167.36 123.27 166.50 121.55 Q165.64 119.83 166.15 117.42 L166.15 117.42 Q166.32 114.41 167.01 111.53 Q167.70 108.65 169.85 103.83 L169.85 103.83 Q171.66 100.31 172.60 98.33 Q173.55 96.35 173.81 96.01 L173.81 96.01 Q175.10 95.58 176.99 96.05 Q178.88 96.52 179.05 97.73 L179.05 97.73 Q179.57 98.59 179.05 100.95 Q178.54 103.32 176.99 106.33 L176.99 106.33 Q175.78 109.25 174.71 112.00 Q173.63 114.76 173.42 116.65 Q173.20 118.54 174.41 118.97 L174.41 118.97 Q175.18 119.40 176.69 118.88 Q178.19 118.37 180.26 115.79 Q182.32 113.21 184.64 107.62 L184.64 107.62 Q185.33 105.90 185.67 104.56 Q186.02 103.23 186.10 101.60 L186.10 101.60 Q185.93 100.57 186.66 99.45 Q187.39 98.33 188.43 97.73 L188.43 97.73 Q188.77 97.30 189.37 96.87 L189.37 96.87 Q189.80 96.61 189.97 96.78 L189.97 96.78 Q190.06 96.78 190.15 96.95 L190.15 96.95 L191.52 96.87 Q191.87 96.78 192.30 97.56 Q192.73 98.33 193.16 98.67 L193.16 98.67 Q194.10 99.45 194.02 102.03 Q193.93 104.61 191.95 109.25 L191.95 109.25 Q190.32 112.78 189.76 114.58 Q189.20 116.39 189.11 118.11 L189.11 118.11 Q189.11 119.66 189.37 120.73 Q189.63 121.81 190.92 122.93 L190.92 122.93 Q191.87 123.53 191.99 124.95 Q192.12 126.37 192.04 127.40 L192.04 127.40 Q191.87 128.17 190.70 128.47 Q189.54 128.77 188.21 128.60 Q186.88 128.43 186.02 127.83 Z M197.80 126.54 L197.80 126.54 Q197.11 125.85 196.81 124.47 Q196.51 123.10 196.60 121.77 Q196.68 120.43 197.03 119.74 L197.03 119.74 Q197.03 119.06 197.24 118.67 Q197.46 118.28 197.37 117.94 L197.37 117.94 Q197.28 117.59 197.54 116.73 Q197.80 115.87 198.06 115.10 L198.06 115.10 Q198.66 113.72 199.43 111.53 Q200.21 109.34 200.98 107.06 Q201.76 104.78 202.27 103.10 Q202.79 101.43 202.87 101.08 L202.87 101.08 Q202.87 100.05 204.25 99.96 L204.25 99.96 Q205.28 99.62 206.74 100.82 Q208.21 102.03 209.07 103.40 L209.07 103.40 Q209.75 104.09 209.58 105.21 Q209.41 106.33 208.46 108.39 L208.46 108.39 Q208.12 109.08 207.65 110.67 Q207.17 112.26 207.00 113.29 L207.00 113.29 Q206.66 113.98 206.18 115.23 Q205.71 116.48 205.37 117.59 L205.37 117.59 Q205.20 118.02 205.02 119.19 Q204.85 120.35 204.59 121.55 Q204.34 122.75 203.91 123.44 L203.91 123.44 Q203.13 126.97 201.20 127.57 Q199.26 128.17 197.80 126.54 Z " fill="#1d1c19"></path><defs><mask id="hm2" maskUnits="userSpaceOnUse"><path d="M0,3 C0,-3 -9,-6 -9,-13 C-9,-19 -2,-20 0,-14 C2,-20 9,-19 9,-13 C9,-6 0,-3 0,3 Z" fill="#fff"></path><path d="M-7.5,-8 q2.5,-3.4 5,0 t5,0 t5,0" fill="none" stroke="#000" stroke-width="2.1" stroke-linecap="round"></path></mask></defs><g transform="translate(210.40,95.23) rotate(12) scale(0.940)"><path d="M0,3 C0,-3 -9,-6 -9,-13 C-9,-19 -2,-20 0,-14 C2,-20 9,-19 9,-13 C9,-6 0,-3 0,3 Z" fill="#d23b34" mask="url(#hm2)"></path></g></g></g></svg><path d="M123.09 96.86L123.09 96.86Q122.01 96.86 121.18 96.48Q120.35 96.09 119.88 95.36Q119.40 94.63 119.40 93.58L119.40 93.58L119.40 93.23L121.01 93.23L121.01 93.58Q121.01 94.51 121.58 94.97Q122.14 95.43 123.09 95.43L123.09 95.43Q124.05 95.43 124.53 95.04Q125.02 94.65 125.02 94.03L125.02 94.03Q125.02 93.61 124.79 93.34Q124.56 93.08 124.12 92.92Q123.68 92.76 123.06 92.61L123.06 92.61L122.66 92.53Q121.73 92.31 121.04 91.98Q120.36 91.65 120.00 91.12Q119.63 90.60 119.63 89.75L119.63 89.75Q119.63 88.90 120.04 88.29Q120.44 87.68 121.19 87.36Q121.93 87.03 122.93 87.03L122.93 87.03Q123.93 87.03 124.71 87.37Q125.49 87.71 125.94 88.38Q126.40 89.06 126.40 90.07L126.40 90.07L126.40 90.52L124.79 90.52L124.79 90.07Q124.79 89.49 124.56 89.14Q124.33 88.79 123.91 88.63Q123.49 88.46 122.93 88.46L122.93 88.46Q122.09 88.46 121.66 88.79Q121.23 89.11 121.23 89.71L121.23 89.71Q121.23 90.08 121.42 90.35Q121.62 90.61 122.00 90.78Q122.39 90.95 122.97 91.07L122.97 91.07L123.37 91.16Q124.34 91.38 125.07 91.71Q125.80 92.04 126.21 92.58Q126.63 93.12 126.63 93.98L126.63 93.98Q126.63 94.84 126.19 95.48Q125.75 96.13 124.96 96.50Q124.17 96.86 123.09 96.86Z M139.89 96.67L138.27 96.67L138.27 88.69L135.45 88.69L135.45 87.22L142.71 87.22L142.71 88.69L139.89 88.69L139.89 96.67Z M152.99 96.67L151.32 96.67L153.91 87.22L156.73 87.22L159.33 96.67L157.65 96.67L157.08 94.51L153.56 94.51L152.99 96.67ZM155.21 88.23L153.94 93.03L156.71 93.03L155.44 88.23L155.21 88.23Z M170.16 96.67L168.53 96.67L168.53 87.22L172.56 87.22Q173.45 87.22 174.12 87.53Q174.78 87.84 175.15 88.40Q175.52 88.96 175.52 89.75L175.52 89.75L175.52 89.89Q175.52 90.77 175.10 91.30Q174.68 91.82 174.09 92.07L174.09 92.07L174.09 92.28Q174.62 92.31 174.92 92.65Q175.22 92.99 175.22 93.55L175.22 93.55L175.22 96.67L173.60 96.67L173.60 93.78Q173.60 93.44 173.42 93.24Q173.24 93.03 172.83 93.03L172.83 93.03L170.16 93.03L170.16 96.67ZM170.16 88.69L170.16 91.55L172.40 91.55Q173.10 91.55 173.50 91.18Q173.90 90.81 173.90 90.19L173.90 90.19L173.90 90.07Q173.90 89.44 173.51 89.06Q173.12 88.69 172.40 88.69L172.40 88.69L170.16 88.69Z M186.67 96.67L185.06 96.67L185.06 87.22L188.16 87.22L190.39 95.58L190.61 95.58L190.61 87.22L192.21 87.22L192.21 96.67L189.12 96.67L186.90 88.31L186.67 88.31L186.67 96.67Z M206.64 96.67L201.77 96.67L201.77 95.24L203.04 95.24L203.04 88.65L201.77 88.65L201.77 87.22L206.60 87.22Q207.45 87.22 208.09 87.51Q208.73 87.80 209.09 88.33Q209.45 88.87 209.45 89.61L209.45 89.61L209.45 89.73Q209.45 90.38 209.21 90.80Q208.96 91.22 208.62 91.45Q208.29 91.68 207.98 91.77L207.98 91.77L207.98 92Q208.29 92.08 208.64 92.30Q209.00 92.53 209.25 92.95Q209.50 93.38 209.50 94.05L209.50 94.05L209.50 94.19Q209.50 94.96 209.13 95.52Q208.76 96.08 208.12 96.37Q207.48 96.67 206.64 96.67L206.64 96.67ZM204.66 92.65L204.66 95.20L206.45 95.20Q207.10 95.20 207.48 94.88Q207.87 94.57 207.87 93.98L207.87 93.98L207.87 93.86Q207.87 93.28 207.49 92.97Q207.11 92.65 206.45 92.65L206.45 92.65L204.66 92.65ZM204.66 88.69L204.66 91.18L206.44 91.18Q207.06 91.18 207.44 90.87Q207.83 90.56 207.83 90.00L207.83 90.00L207.83 89.87Q207.83 89.31 207.44 89.00Q207.06 88.69 206.44 88.69L206.44 88.69L204.66 88.69Z M225.12 96.67L219.03 96.67L219.03 87.22L225.05 87.22L225.05 88.69L220.66 88.69L220.66 91.18L224.67 91.18L224.67 92.65L220.66 92.65L220.66 95.20L225.12 95.20L225.12 96.67Z M236.17 96.67L234.53 96.67L234.53 87.22L238.57 87.22Q239.46 87.22 240.12 87.53Q240.78 87.84 241.16 88.40Q241.53 88.96 241.53 89.75L241.53 89.75L241.53 89.89Q241.53 90.77 241.11 91.30Q240.69 91.82 240.10 92.07L240.10 92.07L240.10 92.28Q240.62 92.31 240.93 92.65Q241.23 92.99 241.23 93.55L241.23 93.55L241.23 96.67L239.61 96.67L239.61 93.78Q239.61 93.44 239.43 93.24Q239.25 93.03 238.84 93.03L238.84 93.03L236.17 93.03L236.17 96.67ZM236.17 88.69L236.17 91.55L238.41 91.55Q239.11 91.55 239.51 91.18Q239.91 90.81 239.91 90.19L239.91 90.19L239.91 90.07Q239.91 89.44 239.52 89.06Q239.12 88.69 238.41 88.69L238.41 88.69L236.17 88.69Z M254.35 96.86L254.35 96.86Q253.35 96.86 252.56 96.42Q251.77 95.98 251.30 95.14Q250.84 94.30 250.84 93.07L250.84 93.07L250.84 90.83Q250.84 88.99 251.86 88.01Q252.89 87.03 254.62 87.03L254.62 87.03Q256.34 87.03 257.28 87.96Q258.21 88.88 258.21 90.45L258.21 90.45L258.21 90.50L256.61 90.50L256.61 90.39Q256.61 89.85 256.40 89.42Q256.18 88.99 255.74 88.74Q255.29 88.49 254.62 88.49L254.62 88.49Q253.62 88.49 253.04 89.10Q252.47 89.72 252.47 90.80L252.47 90.80L252.47 93.09Q252.47 94.16 253.04 94.79Q253.62 95.43 254.64 95.43L254.64 95.43Q255.67 95.43 256.14 94.88Q256.61 94.32 256.61 93.46L256.61 93.46L256.61 93.30L254.22 93.30L254.22 91.92L258.21 91.92L258.21 96.67L256.72 96.67L256.72 95.74L256.49 95.74Q256.38 95.98 256.16 96.25Q255.93 96.51 255.50 96.68Q255.08 96.86 254.35 96.86Z M274.08 96.67L267.99 96.67L267.99 87.22L274.01 87.22L274.01 88.69L269.62 88.69L269.62 91.18L273.63 91.18L273.63 92.65L269.62 92.65L269.62 95.20L274.08 95.20L274.08 96.67Z M285.13 96.67L283.50 96.67L283.50 87.22L287.53 87.22Q288.42 87.22 289.08 87.53Q289.75 87.84 290.12 88.40Q290.49 88.96 290.49 89.75L290.49 89.75L290.49 89.89Q290.49 90.77 290.07 91.30Q289.65 91.82 289.06 92.07L289.06 92.07L289.06 92.28Q289.58 92.31 289.89 92.65Q290.19 92.99 290.19 93.55L290.19 93.55L290.19 96.67L288.57 96.67L288.57 93.78Q288.57 93.44 288.39 93.24Q288.21 93.03 287.80 93.03L287.80 93.03L285.13 93.03L285.13 96.67ZM285.13 88.69L285.13 91.55L287.37 91.55Q288.07 91.55 288.47 91.18Q288.87 90.81 288.87 90.19L288.87 90.19L288.87 90.07Q288.87 89.44 288.48 89.06Q288.09 88.69 287.37 88.69L287.37 88.69L285.13 88.69Z" fill="#c2683f"></path><path d="M189.57 111.98L189.57 111.98Q188.49 111.98 187.66 111.60Q186.83 111.21 186.36 110.48Q185.89 109.75 185.89 108.70L185.89 108.70L185.89 108.35L187.50 108.35L187.50 108.70Q187.50 109.63 188.06 110.09Q188.63 110.55 189.57 110.55L189.57 110.55Q190.53 110.55 191.02 110.16Q191.51 109.77 191.51 109.15L191.51 109.15Q191.51 108.73 191.28 108.46Q191.05 108.20 190.61 108.04Q190.17 107.88 189.55 107.73L189.55 107.73L189.14 107.65Q188.21 107.43 187.53 107.10Q186.85 106.77 186.48 106.24Q186.12 105.72 186.12 104.87L186.12 104.87Q186.12 104.02 186.52 103.41Q186.93 102.80 187.67 102.48Q188.41 102.15 189.41 102.15L189.41 102.15Q190.41 102.15 191.19 102.49Q191.98 102.83 192.43 103.50Q192.88 104.18 192.88 105.19L192.88 105.19L192.88 105.64L191.28 105.64L191.28 105.19Q191.28 104.61 191.05 104.26Q190.82 103.91 190.40 103.75Q189.98 103.58 189.41 103.58L189.41 103.58Q188.58 103.58 188.14 103.91Q187.71 104.23 187.71 104.83L187.71 104.83Q187.71 105.20 187.91 105.47Q188.10 105.73 188.49 105.90Q188.87 106.07 189.45 106.19L189.45 106.19L189.86 106.28Q190.83 106.50 191.56 106.83Q192.29 107.16 192.70 107.70Q193.11 108.24 193.11 109.10L193.11 109.10Q193.11 109.96 192.67 110.60Q192.23 111.25 191.44 111.62Q190.65 111.98 189.57 111.98Z M208.62 111.79L202.53 111.79L202.53 102.34L208.55 102.34L208.55 103.81L204.16 103.81L204.16 106.30L208.17 106.30L208.17 107.77L204.16 107.77L204.16 110.32L208.62 110.32L208.62 111.79Z M224.12 111.79L218.04 111.79L218.04 102.34L224.06 102.34L224.06 103.81L219.67 103.81L219.67 106.30L223.68 106.30L223.68 107.77L219.67 107.77L219.67 110.32L224.12 110.32L224.12 111.79Z" fill="#c2683f"></path></svg>