<svg xmlns="http://www.w3.org/2000/svg" width="360" height="150" viewBox="0 0 360 150"><g transform="translate(54,75) scale(0.62)"><path d="M25.2,-72.2 L22.6,-75 L20.5,-75 L14.9,-72.5 L6.9,-51.7 L5,-48.1 L2.9,-46.5 L1,-41.4 L-0.9,-40 L-4.5,-32.7 L-4,-29.4 L-7.3,-27.5 L-7,-25.3 L-8.8,-21.6 L-11.1,-11.2 L-14.8,-7 L-14.8,-3.5 L-17.7,-2.1 L-17.1,-0.7 L-17.6,1 L-20.3,3 L-20.4,4.7 L-22.3,6.7 L-22.8,8.6 L-22,10.8 L-24.2,12.6 L-25.2,16 L-24.7,18.8 L-22,21.4 L-20.1,21 L-17.8,18.6 L-16.3,19 L-16.8,22.5 L-14.6,25.9 L-14.1,31.2 L-9.1,36.6 L-7.3,41.9 L-7.8,45.3 L-11.2,47.9 L-11.9,51.8 L-12.7,52.3 L-13,61.3 L-14,63.5 L-12.8,67 L-0.2,75 L6.5,74 L8,74.9 L10.3,73.9 L10.6,72.7 L11.5,73.2 L13,69.8 L11.7,66.1 L12.5,65.6 L12,63.7 L13.4,62 L13.6,59.1 L11,34.9 L9.7,32.1 L10.5,27.3 L10.2,17.4 L11.2,11.5 L10.7,0.7 L9.1,-9.1 L10,-17.5 L15.3,-32.9 L15.9,-38 L20,-52.1 L25.1,-59.7 L24.5,-68.4 Z" fill="none" stroke="#9c5a86" stroke-width="7.258" stroke-linejoin="round"></path><ellipse cx="-5" cy="-13.5" rx="1.5" ry="2.4" fill="#9c5a86"></ellipse></g><g transform="translate(104,77.3)"><path d="M13.832 3.380L13.832 3.380Q12.896 3.120 12.324 2.912L12.324 2.912L11.752 2.756Q11.856 2.496 11.674 2.288Q11.492 2.080 10.920 2.028L10.920 2.028Q10.140 1.508 9.308 0.572Q8.476-0.364 7.852-1.352Q7.228-2.340 7.020-2.808L7.020-2.808Q6.760-3.432 6.916-3.640L6.916-3.640Q6.968-3.744 7.072-3.796L7.072-3.796Q7.488-3.952 8.060-4.212L8.060-4.212Q8.632-4.628 9.282-4.836Q9.932-5.044 10.348-4.160L10.348-4.160Q11.024-2.964 12.454-2.132Q13.884-1.300 15.730-1.144Q17.576-0.988 19.448-1.768L19.448-1.768Q20.696-2.340 20.800-3.354Q20.904-4.368 20.020-5.720L20.020-5.720Q19.864-6.136 19.578-6.396Q19.292-6.656 18.746-7.072Q18.200-7.488 17.212-8.424L17.212-8.424Q16.432-8.788 15.782-9.100Q15.132-9.412 14.404-9.776L14.404-9.776Q13.572-10.192 12.532-10.946Q11.492-11.700 10.608-12.610Q9.724-13.520 9.256-14.352L9.256-14.352Q8.424-15.132 8.216-16.510Q8.008-17.888 8.294-19.448Q8.580-21.008 9.256-22.256L9.256-22.256Q9.568-22.984 10.400-24.154Q11.232-25.324 12.272-26.572Q13.312-27.820 14.274-28.834Q15.236-29.848 15.808-30.212L15.808-30.212Q16.224-30.628 16.692-31.096L16.692-31.096L17.160-31.512Q17.212-31.772 17.368-31.772L17.368-31.772L17.472-31.772Q17.732-31.928 18.616-32.292Q19.500-32.656 20.540-33.644L20.540-33.644Q24.024-35.308 26.468-35.906Q28.912-36.504 30.316-36.504L30.316-36.504Q31.616-36.452 32.864-35.802Q34.112-35.152 35.022-34.164Q35.932-33.176 36.088-31.928L36.088-31.928Q36.452-30.680 35.750-28.938Q35.048-27.196 33.826-25.662Q32.604-24.128 31.304-23.400L31.304-23.400Q29.848-22.776 28.834-23.244Q27.820-23.712 27.872-24.700L27.872-24.700Q27.872-25.116 28.158-25.688Q28.444-26.260 29.744-27.716L29.744-27.716Q31.408-30.160 31.512-31.200Q31.616-32.240 30.576-32.396L30.576-32.396Q30.264-32.500 29.380-32.344Q28.496-32.188 27.482-31.954Q26.468-31.720 25.714-31.460Q24.960-31.200 24.960-31.096L24.960-31.096L24.960-30.940Q24.960-30.888 24.908-30.836L24.908-30.836Q24.908-30.784 24.752-30.836L24.752-30.836Q24.648-30.836 24.050-30.498Q23.452-30.160 22.620-29.640Q21.788-29.120 20.982-28.574Q20.176-28.028 19.604-27.612Q19.032-27.196 18.980-27.092L18.980-27.092Q18.876-26.520 17.784-26.052L17.784-26.052Q16.744-25.428 15.964-24.284Q15.184-23.140 14.144-21.372L14.144-21.372Q13.260-20.176 12.896-18.798Q12.532-17.420 12.896-16.588L12.896-16.588Q13.156-15.756 14.326-14.950Q15.496-14.144 17.524-12.948L17.524-12.948Q19.292-11.960 20.852-10.868Q22.412-9.776 23.504-8.762Q24.596-7.748 24.908-7.072L24.908-7.072Q25.532-6.188 25.662-5.044Q25.792-3.900 25.662-2.834Q25.532-1.768 25.324-1.092L25.324-1.092Q24.960-0.260 24.206 0.676Q23.452 1.612 22.828 1.560L22.828 1.560Q22.256 1.716 21.970 1.924Q21.684 2.132 21.320 2.288L21.320 2.288Q20.956 2.496 19.604 2.782Q18.252 3.068 16.640 3.250Q15.028 3.432 13.832 3.380Z M40.976-1.040L40.976-1.040Q39.416-0.156 37.674-0.026Q35.932 0.104 34.424-0.494Q32.916-1.092 31.980-2.288L31.980-2.288Q31.460-2.964 30.992-4.446Q30.524-5.928 30.836-8.476L30.836-8.476Q31.148-10.868 32.318-13.312Q33.488-15.756 35.204-17.628Q36.920-19.500 38.948-20.176L38.948-20.176Q39.676-20.436 40.430-20.566Q41.184-20.696 42.432-20.592L42.432-20.592Q43.628-20.436 44.564-19.994Q45.500-19.552 45.916-19.032L45.916-19.032Q46.748-18.200 47.008-17.420Q47.268-16.640 47.216-15.912L47.216-15.912Q46.956-14.248 45.734-12.324Q44.512-10.400 42.328-9.464L42.328-9.464Q41.444-9.100 40.248-8.996Q39.052-8.892 36.972-9.308L36.972-9.308Q35.724-9.568 35.334-9.048Q34.944-8.528 34.996-7.020L34.996-7.020Q35.100-6.084 35.438-5.382Q35.776-4.680 36.712-4.420L36.712-4.420Q37.908-4.212 38.428-4.394Q38.948-4.576 39.728-4.940L39.728-4.940Q40.144-5.200 40.560-5.512L40.560-5.512L41.340-6.136Q41.704-6.448 41.964-6.604L41.964-6.604Q42.224-6.812 42.484-6.864Q42.744-6.916 43.004-6.916L43.004-6.916Q43.576-6.864 44.096-6.292Q44.616-5.720 44.772-5.200L44.772-5.200Q44.772-4.784 44.252-4.030Q43.732-3.276 42.874-2.470Q42.016-1.664 40.976-1.040ZM40.300-12.636L40.300-12.636Q40.664-12.792 41.366-13.364Q42.068-13.936 42.640-14.586Q43.212-15.236 43.212-15.600L43.212-15.600Q43.212-16.172 42.458-16.588Q41.704-17.004 40.508-16.744L40.508-16.744Q40.092-16.640 39.520-16.172Q38.948-15.704 38.376-15.106Q37.804-14.508 37.388-13.962Q36.972-13.416 36.816-13.104L36.816-13.104Q37.024-12.844 37.648-12.688Q38.272-12.532 39.026-12.532Q39.780-12.532 40.300-12.636Z M58.344-1.040L58.344-1.040Q56.784-0.156 55.042-0.026Q53.300 0.104 51.792-0.494Q50.284-1.092 49.348-2.288L49.348-2.288Q48.828-2.964 48.360-4.446Q47.892-5.928 48.204-8.476L48.204-8.476Q48.516-10.868 49.686-13.312Q50.856-15.756 52.572-17.628Q54.288-19.500 56.316-20.176L56.316-20.176Q57.044-20.436 57.798-20.566Q58.552-20.696 59.800-20.592L59.800-20.592Q60.996-20.436 61.932-19.994Q62.868-19.552 63.284-19.032L63.284-19.032Q64.116-18.200 64.376-17.420Q64.636-16.640 64.584-15.912L64.584-15.912Q64.324-14.248 63.102-12.324Q61.880-10.400 59.696-9.464L59.696-9.464Q58.812-9.100 57.616-8.996Q56.420-8.892 54.340-9.308L54.340-9.308Q53.092-9.568 52.702-9.048Q52.312-8.528 52.364-7.020L52.364-7.020Q52.468-6.084 52.806-5.382Q53.144-4.680 54.080-4.420L54.080-4.420Q55.276-4.212 55.796-4.394Q56.316-4.576 57.096-4.940L57.096-4.940Q57.512-5.200 57.928-5.512L57.928-5.512L58.708-6.136Q59.072-6.448 59.332-6.604L59.332-6.604Q59.592-6.812 59.852-6.864Q60.112-6.916 60.372-6.916L60.372-6.916Q60.944-6.864 61.464-6.292Q61.984-5.720 62.140-5.200L62.140-5.200Q62.140-4.784 61.620-4.030Q61.100-3.276 60.242-2.470Q59.384-1.664 58.344-1.040ZM57.668-12.636L57.668-12.636Q58.032-12.792 58.734-13.364Q59.436-13.936 60.008-14.586Q60.580-15.236 60.580-15.600L60.580-15.600Q60.580-16.172 59.826-16.588Q59.072-17.004 57.876-16.744L57.876-16.744Q57.460-16.640 56.888-16.172Q56.316-15.704 55.744-15.106Q55.172-14.508 54.756-13.962Q54.340-13.416 54.184-13.104L54.184-13.104Q54.392-12.844 55.016-12.688Q55.640-12.532 56.394-12.532Q57.148-12.532 57.668-12.636Z M71.604 10.400L71.604 10.400Q70.148 10.972 68.562 10.218Q66.976 9.464 65.832 7.852L65.832 7.852Q65.624 7.540 65.208 6.734Q64.792 5.928 64.402 4.992Q64.012 4.056 63.830 3.380Q63.648 2.704 63.804 2.600L63.804 2.600Q64.012 2.028 64.740 1.924Q65.468 1.820 66.196 2.002Q66.924 2.184 67.028 2.496L67.028 2.496Q67.184 2.860 67.340 3.250Q67.496 3.640 67.730 3.978Q67.964 4.316 68.172 4.576L68.172 4.576Q68.744 5.460 69.420 5.798Q70.096 6.136 70.460 5.876L70.460 5.876Q71.344 5.200 71.786 4.290Q72.228 3.380 72.956 1.092L72.956 1.092Q73.528-0.832 73.944-2.236Q74.360-3.640 74.828-4.836L74.828-4.836Q74.984-5.460 75.244-5.928L75.244-5.928Q75.296-6.032 75.348-6.136L75.348-6.136Q74.620-5.616 74.048-5.096L74.048-5.096Q73.268-4.368 71.916-3.796L71.916-3.796Q71.604-3.432 70.382-3.354Q69.160-3.276 68.016-3.640L68.016-3.640Q67.288-4.056 66.846-4.498Q66.404-4.940 66.118-5.512Q65.832-6.084 65.520-6.864L65.520-6.864Q65.156-7.644 65.416-9.412Q65.676-11.180 66.352-12.948L66.352-12.948Q66.976-14.248 68.172-15.756Q69.368-17.264 70.720-18.486Q72.072-19.708 73.164-20.020L73.164-20.020Q73.580-20.228 74.620-20.514Q75.660-20.800 76.596-20.540L76.596-20.540Q77.480-20.436 77.948-20.150Q78.416-19.864 79.456-18.980L79.456-18.980Q80.132-18.304 81.120-17.238Q82.108-16.172 82.368-15.444L82.368-15.444Q82.732-14.664 82.524-13.754Q82.316-12.844 81.796-12.168L81.796-12.168Q81.328-11.492 80.808-10.816Q80.288-10.140 80.028-8.944L80.028-8.944Q79.768-7.384 79.040-5.434Q78.312-3.484 77.896-1.820L77.896-1.820L77.064 1.404Q75.764 5.824 74.204 7.826Q72.644 9.828 71.604 10.400ZM70.512-7.488L70.512-7.488Q71.552-7.540 72.306-7.722Q73.060-7.904 73.736-8.554Q74.412-9.204 75.296-10.556L75.296-10.556Q76.180-11.804 76.544-12.844Q76.908-13.884 76.804-15.184L76.804-15.184Q76.752-16.016 76.336-16.276Q75.920-16.536 75.244-16.432L75.244-16.432Q74.256-16.276 73.476-15.626Q72.696-14.976 71.656-13.624L71.656-13.624Q70.876-12.584 70.356-11.128L70.356-11.128Q69.836-9.568 69.914-8.632Q69.992-7.696 70.512-7.488Z M86.996 6.292L86.996 6.292Q86.684 6.500 85.592 5.798Q84.500 5.096 83.772 4.264L83.772 4.264Q83.408 3.848 83.304 3.380Q83.200 2.912 83.356 1.612L83.356 1.612Q83.564 1.040 83.590 0.520Q83.616 0 83.616-0.208L83.616-0.208Q83.616-0.520 83.798-1.664Q83.980-2.808 84.188-4.082Q84.396-5.356 84.552-6.032L84.552-6.032Q84.552-6.084 84.630-6.396Q84.708-6.708 84.760-6.864L84.760-6.864Q84.864-7.332 85.020-8.008Q85.176-8.684 85.332-9.828L85.332-9.828Q85.748-11.128 86.034-12.402Q86.320-13.676 86.320-14.144L86.320-14.144Q86.320-15.080 87.048-15.496L87.048-15.496Q87.100-15.756 87.360-16.302Q87.620-16.848 87.828-17.212L87.828-17.212Q88.868-20.176 89.544-21.944Q90.220-23.712 90.948-25.012L90.948-25.012Q91.260-25.896 91.650-26.832Q92.040-27.768 92.456-28.288L92.456-28.288Q92.820-29.016 93.730-30.082Q94.640-31.148 95.680-32.136Q96.720-33.124 97.344-33.592L97.344-33.592Q98.488-34.164 99.476-34.528Q100.464-34.892 101.556-34.892L101.556-34.892Q102.544-34.892 103.298-34.450Q104.052-34.008 105.560-32.656L105.560-32.656Q106.080-31.980 106.080-31.356Q106.080-30.732 105.820-30.316L105.820-30.316Q105.456-29.484 104.728-28.262Q104-27.040 103.324-26.078Q102.648-25.116 102.336-25.064L102.336-25.064Q101.712-24.700 101.036-24.856Q100.360-25.012 100.360-25.792L100.360-25.792Q100.360-26.156 100.412-26.468L100.412-26.468L100.412-26.780Q100.568-27.456 100.802-27.976Q101.036-28.496 101.244-28.860L101.244-28.860Q101.660-29.536 101.478-30.160Q101.296-30.784 100.152-30.680L100.152-30.680Q99.996-30.576 99.554-30.186Q99.112-29.796 98.618-29.302Q98.124-28.808 97.760-28.366Q97.396-27.924 97.396-27.768L97.396-27.768L97.136-27.248Q96.824-26.676 96.252-26.000L96.252-26.000Q95.888-25.480 95.628-25.012Q95.368-24.544 95.368-24.284L95.368-24.284Q95.368-24.076 95.316-23.920Q95.264-23.764 95.056-23.764L95.056-23.764L94.900-23.244Q94.692-22.724 94.276-21.996L94.276-21.996Q94.068-21.476 93.834-21.034Q93.600-20.592 93.392-20.384L93.392-20.384L93.340-20.280L93.132-19.708Q92.872-19.084 92.612-18.460Q92.352-17.836 92.352-17.732L92.352-17.732Q92.352-17.524 92.976-17.524Q93.600-17.524 94.484-17.706Q95.368-17.888 96.200-18.096L96.200-18.096Q96.928-18.304 97.240-18.304Q97.552-18.304 98.228-18.096L98.228-18.096Q98.644-17.836 98.904-17.186Q99.164-16.536 99.294-15.886Q99.424-15.236 99.320-14.924L99.320-14.924Q99.268-14.716 98.150-14.352Q97.032-13.988 95.940-13.780L95.940-13.780Q95.004-13.572 93.834-13.338Q92.664-13.104 91.780-12.870Q90.896-12.636 90.844-12.428L90.844-12.428Q90.636-12.428 90.506-12.168Q90.376-11.908 90.376-11.700L90.376-11.700Q90.376-11.024 90.116-10.608L90.116-10.608Q90.012-10.296 89.778-9.334Q89.544-8.372 89.310-7.254Q89.076-6.136 88.894-5.174Q88.712-4.212 88.712-3.900L88.712-3.900Q88.400-3.536 88.348-2.990Q88.296-2.444 88.296-2.028L88.296-2.028Q88.088-1.612 88.036-1.274Q87.984-0.936 87.984-0.728L87.984-0.728L87.984-0.520Q87.984-0.364 87.932-0.208L87.932-0.208Q87.880 0.312 87.802 1.170Q87.724 2.028 87.724 2.860L87.724 2.860L87.568 4.368Q87.516 5.044 87.386 5.538Q87.256 6.032 86.996 6.292Z M112.476-0.104L112.476-0.104Q111.956-0.624 111.644-1.534Q111.332-2.444 111.020-3.640L111.020-3.640Q110.916-4.056 110.942-4.576Q110.968-5.096 110.916-5.408L110.916-5.408Q110.760-5.044 110.422-4.472Q110.084-3.900 109.772-3.640L109.772-3.640Q109.564-3.432 108.836-2.834Q108.108-2.236 107.380-1.872L107.380-1.872Q105.664-0.780 104.338-0.858Q103.012-0.936 102.024-2.184L102.024-2.184Q101.192-2.860 100.672-3.900Q100.152-4.940 100.464-6.396L100.464-6.396Q100.568-8.216 100.984-9.958Q101.400-11.700 102.700-14.612L102.700-14.612Q103.792-16.744 104.364-17.940Q104.936-19.136 105.092-19.344L105.092-19.344Q105.872-19.604 107.016-19.318Q108.160-19.032 108.264-18.304L108.264-18.304Q108.576-17.784 108.264-16.354Q107.952-14.924 107.016-13.104L107.016-13.104Q106.288-11.336 105.638-9.672Q104.988-8.008 104.858-6.864Q104.728-5.720 105.456-5.460L105.456-5.460Q105.924-5.200 106.834-5.512Q107.744-5.824 108.992-7.384Q110.240-8.944 111.644-12.324L111.644-12.324Q112.060-13.364 112.268-14.170Q112.476-14.976 112.528-15.964L112.528-15.964Q112.424-16.588 112.866-17.264Q113.308-17.940 113.932-18.304L113.932-18.304Q114.140-18.564 114.504-18.824L114.504-18.824Q114.764-18.980 114.868-18.876L114.868-18.876Q114.920-18.876 114.972-18.772L114.972-18.772L115.804-18.824Q116.012-18.876 116.272-18.408Q116.532-17.940 116.792-17.732L116.792-17.732Q117.364-17.264 117.312-15.704Q117.260-14.144 116.064-11.336L116.064-11.336Q115.076-9.204 114.738-8.112Q114.400-7.020 114.348-5.980L114.348-5.980Q114.348-5.044 114.504-4.394Q114.660-3.744 115.440-3.068L115.440-3.068Q116.012-2.704 116.090-1.846Q116.168-0.988 116.116-0.364L116.116-0.364Q116.012 0.104 115.310 0.286Q114.608 0.468 113.802 0.364Q112.996 0.260 112.476-0.104Z M119.600-0.884L119.600-0.884Q119.184-1.300 119.002-2.132Q118.820-2.964 118.872-3.770Q118.924-4.576 119.132-4.992L119.132-4.992Q119.132-5.408 119.262-5.642Q119.392-5.876 119.340-6.084L119.340-6.084Q119.288-6.292 119.444-6.812Q119.600-7.332 119.756-7.800L119.756-7.800Q120.120-8.632 120.588-9.958Q121.056-11.284 121.524-12.662Q121.992-14.040 122.304-15.054Q122.616-16.068 122.668-16.276L122.668-16.276Q122.668-16.900 123.500-16.952L123.500-16.952Q124.124-17.160 125.008-16.432Q125.892-15.704 126.412-14.872L126.412-14.872Q126.828-14.456 126.724-13.780Q126.620-13.104 126.048-11.856L126.048-11.856Q125.840-11.440 125.554-10.478Q125.268-9.516 125.164-8.892L125.164-8.892Q124.956-8.476 124.670-7.722Q124.384-6.968 124.176-6.292L124.176-6.292Q124.072-6.032 123.968-5.330Q123.864-4.628 123.708-3.900Q123.552-3.172 123.292-2.756L123.292-2.756Q122.824-0.624 121.654-0.260Q120.484 0.104 119.600-0.884ZM125.216-21.736L125.216-21.736Q124.644-22.152 124.358-22.750Q124.072-23.348 124.046-23.816Q124.020-24.284 124.124-24.388L124.124-24.388Q124.644-24.960 125.034-25.896Q125.424-26.832 125.892-27.612L125.892-27.612Q125.996-27.768 126.178-28.054Q126.360-28.340 126.568-28.392L126.568-28.392Q127.192-28.808 128.310-28.340Q129.428-27.872 129.948-27.040L129.948-27.040Q130.416-26.052 130.234-25.012Q130.052-23.972 129.116-22.828L129.116-22.828Q128.336-21.788 127.140-21.502Q125.944-21.216 125.216-21.736Z" fill="#1d1c19"></path></g><g transform="translate(107,98.7)"><path d="M3.266 0.147L3.266 0.147Q2.436 0.147 1.796-0.147Q1.155-0.441 0.793-1.013Q0.431-1.586 0.431-2.405L0.431-2.405L0.431-2.667L1.554-2.667L1.554-2.405Q1.554-1.628 2.021-1.239Q2.489-0.851 3.266-0.851L3.266-0.851Q4.053-0.851 4.452-1.181Q4.851-1.512 4.851-2.037L4.851-2.037Q4.851-2.384 4.662-2.604Q4.473-2.825 4.127-2.956Q3.780-3.087 3.297-3.203L3.297-3.203L2.909-3.297Q2.205-3.465 1.685-3.712Q1.165-3.959 0.882-4.368Q0.599-4.777 0.599-5.418L0.599-5.418Q0.599-6.069 0.919-6.531Q1.239-6.993 1.806-7.245Q2.373-7.497 3.140-7.497L3.140-7.497Q3.906-7.497 4.510-7.235Q5.114-6.972 5.460-6.458Q5.807-5.943 5.807-5.166L5.807-5.166L5.807-4.788L4.683-4.788L4.683-5.166Q4.683-5.639 4.489-5.933Q4.295-6.227 3.948-6.363Q3.602-6.500 3.140-6.500L3.140-6.500Q2.468-6.500 2.095-6.221Q1.722-5.943 1.722-5.450L1.722-5.450Q1.722-5.114 1.885-4.898Q2.048-4.683 2.363-4.546Q2.678-4.410 3.150-4.305L3.150-4.305L3.539-4.211Q4.253-4.053 4.799-3.806Q5.345-3.560 5.660-3.140Q5.975-2.720 5.975-2.058L5.975-2.058Q5.975-1.397 5.644-0.903Q5.313-0.410 4.704-0.131Q4.095 0.147 3.266 0.147Z M13.049 0L11.915 0L11.915-6.321L9.657-6.321L9.657-7.350L15.306-7.350L15.306-6.321L13.049-6.321L13.049 0Z M19.965 0L18.789 0L20.889-7.350L22.884-7.350L24.974 0L23.808 0L23.325-1.733L20.448-1.733L19.965 0ZM21.803-6.647L20.732-2.783L23.041-2.783L21.971-6.647L21.803-6.647Z M30.105 0L28.971 0L28.971-7.350L32.058-7.350Q32.740-7.350 33.260-7.114Q33.780-6.878 34.069-6.437Q34.358-5.996 34.358-5.387L34.358-5.387L34.358-5.271Q34.358-4.578 34.027-4.163Q33.696-3.749 33.224-3.581L33.224-3.581L33.224-3.413Q33.623-3.392 33.864-3.145Q34.105-2.898 34.105-2.436L34.105-2.436L34.105 0L32.961 0L32.961-2.279Q32.961-2.562 32.814-2.730Q32.667-2.898 32.341-2.898L32.341-2.898L30.105-2.898L30.105 0ZM30.105-6.321L30.105-3.927L31.932-3.927Q32.541-3.927 32.877-4.237Q33.213-4.546 33.213-5.082L33.213-5.082L33.213-5.166Q33.213-5.702 32.882-6.011Q32.551-6.321 31.932-6.321L31.932-6.321L30.105-6.321Z M39.730 0L38.607 0L38.607-7.350L40.791-7.350L42.786-0.756L42.954-0.756L42.954-7.350L44.078-7.350L44.078 0L41.893 0L39.898-6.605L39.730-6.605L39.730 0Z M52.086 0L48.337 0L48.337-1.008L49.325-1.008L49.325-6.342L48.337-6.342L48.337-7.350L52.065-7.350Q52.727-7.350 53.220-7.124Q53.714-6.899 53.992-6.484Q54.270-6.069 54.270-5.502L54.270-5.502L54.270-5.397Q54.270-4.893 54.081-4.567Q53.892-4.242 53.624-4.064Q53.357-3.885 53.115-3.812L53.115-3.812L53.115-3.644Q53.357-3.581 53.635-3.397Q53.913-3.213 54.107-2.888Q54.302-2.562 54.302-2.037L54.302-2.037L54.302-1.932Q54.302-1.323 54.018-0.893Q53.735-0.462 53.236-0.231Q52.737 0 52.086 0L52.086 0ZM50.469-3.182L50.469-1.029L51.950-1.029Q52.517-1.029 52.842-1.302Q53.168-1.575 53.168-2.058L53.168-2.058L53.168-2.153Q53.168-2.635 52.847-2.909Q52.527-3.182 51.950-3.182L51.950-3.182L50.469-3.182ZM50.469-6.321L50.469-4.221L51.950-4.221Q52.485-4.221 52.811-4.489Q53.136-4.756 53.136-5.219L53.136-5.219L53.136-5.324Q53.136-5.786 52.816-6.053Q52.495-6.321 51.950-6.321L51.950-6.321L50.469-6.321Z M63.255 0L58.572 0L58.572-7.350L63.203-7.350L63.203-6.321L59.706-6.321L59.706-4.211L62.909-4.211L62.909-3.182L59.706-3.182L59.706-1.029L63.255-1.029L63.255 0Z M68.575 0L67.441 0L67.441-7.350L70.528-7.350Q71.211-7.350 71.731-7.114Q72.251-6.878 72.539-6.437Q72.828-5.996 72.828-5.387L72.828-5.387L72.828-5.271Q72.828-4.578 72.497-4.163Q72.166-3.749 71.694-3.581L71.694-3.581L71.694-3.413Q72.093-3.392 72.334-3.145Q72.576-2.898 72.576-2.436L72.576-2.436L72.576 0L71.431 0L71.431-2.279Q71.431-2.562 71.284-2.730Q71.138-2.898 70.812-2.898L70.812-2.898L68.575-2.898L68.575 0ZM68.575-6.321L68.575-3.927L70.403-3.927Q71.011-3.927 71.347-4.237Q71.683-4.546 71.683-5.082L71.683-5.082L71.683-5.166Q71.683-5.702 71.353-6.011Q71.022-6.321 70.403-6.321L70.403-6.321L68.575-6.321Z M79.629 0.147L79.629 0.147Q78.841 0.147 78.222-0.194Q77.602-0.536 77.245-1.197Q76.888-1.859 76.888-2.814L76.888-2.814L76.888-4.536Q76.888-5.975 77.676-6.736Q78.463-7.497 79.807-7.497L79.807-7.497Q81.130-7.497 81.844-6.778Q82.558-6.059 82.558-4.851L82.558-4.851L82.558-4.799L81.435-4.799L81.435-4.883Q81.435-5.334 81.256-5.696Q81.078-6.059 80.721-6.269Q80.364-6.479 79.807-6.479L79.807-6.479Q78.967-6.479 78.495-5.969Q78.022-5.460 78.022-4.557L78.022-4.557L78.022-2.793Q78.022-1.901 78.495-1.381Q78.967-0.861 79.818-0.861L79.818-0.861Q80.658-0.861 81.046-1.323Q81.435-1.785 81.435-2.520L81.435-2.520L81.435-2.657L79.461-2.657L79.461-3.633L82.558-3.633L82.558 0L81.508 0L81.508-0.746L81.340-0.746Q81.246-0.546 81.062-0.336Q80.878-0.126 80.537 0.011Q80.196 0.147 79.629 0.147Z M91.701 0L87.018 0L87.018-7.350L91.648-7.350L91.648-6.321L88.152-6.321L88.152-4.211L91.354-4.211L91.354-3.182L88.152-3.182L88.152-1.029L91.701-1.029L91.701 0Z M97.021 0L95.887 0L95.887-7.350L98.974-7.350Q99.657-7.350 100.177-7.114Q100.697-6.878 100.985-6.437Q101.274-5.996 101.274-5.387L101.274-5.387L101.274-5.271Q101.274-4.578 100.943-4.163Q100.612-3.749 100.140-3.581L100.140-3.581L100.140-3.413Q100.539-3.392 100.780-3.145Q101.022-2.898 101.022-2.436L101.022-2.436L101.022 0L99.877 0L99.877-2.279Q99.877-2.562 99.730-2.730Q99.584-2.898 99.258-2.898L99.258-2.898L97.021-2.898L97.021 0ZM97.021-6.321L97.021-3.927L98.849-3.927Q99.457-3.927 99.793-4.237Q100.129-4.546 100.129-5.082L100.129-5.082L100.129-5.166Q100.129-5.702 99.799-6.011Q99.468-6.321 98.849-6.321L98.849-6.321L97.021-6.321Z  M113.700 0.147L113.700 0.147Q112.870 0.147 112.230-0.147Q111.589-0.441 111.227-1.013Q110.865-1.586 110.865-2.405L110.865-2.405L110.865-2.667L111.988-2.667L111.988-2.405Q111.988-1.628 112.456-1.239Q112.923-0.851 113.700-0.851L113.700-0.851Q114.487-0.851 114.886-1.181Q115.285-1.512 115.285-2.037L115.285-2.037Q115.285-2.384 115.096-2.604Q114.907-2.825 114.561-2.956Q114.214-3.087 113.731-3.203L113.731-3.203L113.343-3.297Q112.639-3.465 112.120-3.712Q111.600-3.959 111.316-4.368Q111.033-4.777 111.033-5.418L111.033-5.418Q111.033-6.069 111.353-6.531Q111.673-6.993 112.240-7.245Q112.807-7.497 113.574-7.497L113.574-7.497Q114.340-7.497 114.944-7.235Q115.548-6.972 115.894-6.458Q116.241-5.943 116.241-5.166L116.241-5.166L116.241-4.788L115.117-4.788L115.117-5.166Q115.117-5.639 114.923-5.933Q114.729-6.227 114.382-6.363Q114.036-6.500 113.574-6.500L113.574-6.500Q112.902-6.500 112.529-6.221Q112.156-5.943 112.156-5.450L112.156-5.450Q112.156-5.114 112.319-4.898Q112.482-4.683 112.797-4.546Q113.112-4.410 113.584-4.305L113.584-4.305L113.973-4.211Q114.687-4.053 115.233-3.806Q115.779-3.560 116.094-3.140Q116.409-2.720 116.409-2.058L116.409-2.058Q116.409-1.397 116.078-0.903Q115.747-0.410 115.138-0.131Q114.529 0.147 113.700 0.147Z M125.278 0L120.595 0L120.595-7.350L125.226-7.350L125.226-6.321L121.729-6.321L121.729-4.211L124.932-4.211L124.932-3.182L121.729-3.182L121.729-1.029L125.278-1.029L125.278 0Z M134.148 0L129.465 0L129.465-7.350L134.095-7.350L134.095-6.321L130.599-6.321L130.599-4.211L133.801-4.211L133.801-3.182L130.599-3.182L130.599-1.029L134.148-1.029L134.148 0Z" fill="#9c5a86"></path></g></svg>