<svg xmlns="http://www.w3.org/2000/svg" width="1380" height="2040" viewBox="0 0 230 340"><path d="M59.65,63.48 L59.36,62.45 L58.93,61.53 L58.37,60.72 L57.66,60.01 L56.81,59.41 L56.11,58.79 L55.53,58.15 L55.09,57.50 L54.79,56.82 L54.33,56.33 L53.71,56.04 L52.94,55.95 L52.00,56.04 L50.97,55.92 L49.86,55.57 L48.66,55.00 L47.37,54.21 L45.90,53.78 L44.25,53.72 L42.41,54.03 L40.39,54.71 L38.72,55.14 L37.40,55.31 L36.42,55.23 L35.80,54.90 L35.36,54.38 L35.12,53.65 L35.06,52.73 L35.19,51.60 L35.45,50.50 L35.85,49.42 L36.38,48.35 L37.04,47.31 L37.52,46.24 L37.80,45.14 L37.90,44.03 L37.81,42.89 L37.59,41.80 L37.23,40.78 L36.74,39.81 L36.11,38.90 L35.32,38.14 L34.36,37.53 L33.24,37.07 L31.95,36.76 L30.51,35.91 L28.92,34.53 L27.17,32.61 L25.26,30.15 L23.95,28.16 L23.22,26.63 L23.07,25.56 L23.52,24.96 L23.94,24.03 L24.36,22.77 L24.77,21.19 L25.16,19.27 L25.44,17.32 L25.60,15.33 L25.65,13.32 L25.58,11.27 L25.00,9.00 L23.92,6.51 L22.32,3.80 L20.21,0.88 L18.57,-1.56 L17.40,-3.53 L16.70,-5.01 L16.46,-6.02 L15.88,-7.17 L14.95,-8.46 L13.67,-9.89 L12.04,-11.45 L10.74,-13.09 L9.77,-14.79 L9.12,-16.56 L8.81,-18.40 L8.36,-19.92 L7.78,-21.11 L7.05,-21.97 L6.20,-22.52 L5.41,-23.51 L4.69,-24.95 L4.05,-26.85 L3.47,-29.19 L2.87,-31.11 L2.22,-32.60 L1.54,-33.66 L0.82,-34.30 L0.16,-35.04 L-0.46,-35.87 L-1.03,-36.80 L-1.55,-37.83 L-1.88,-38.62 L-2.02,-39.20 L-1.96,-39.54 L-1.72,-39.66 L-1.68,-39.81 L-1.84,-40.02 L-2.21,-40.27 L-2.78,-40.56 L-3.38,-41.12 L-4.00,-41.96 L-4.65,-43.08 L-5.33,-44.48 L-5.87,-45.81 L-6.26,-47.08 L-6.51,-48.28 L-6.61,-49.43 L-6.49,-50.69 L-6.13,-52.07 L-5.55,-53.58 L-4.74,-55.21 L-4.22,-56.87 L-3.99,-58.56 L-4.04,-60.29 L-4.38,-62.05 L-4.56,-63.51 L-4.57,-64.65 L-4.42,-65.48 L-4.11,-66.00 L-3.94,-66.78 L-3.91,-67.79 L-4.03,-69.06 L-4.29,-70.57 L-4.61,-71.83 L-4.98,-72.86 L-5.41,-73.65 L-5.89,-74.19 L-6.37,-74.37 L-6.86,-74.20 L-7.35,-73.66 L-7.84,-72.77 L-8.84,-71.99 L-10.35,-71.32 L-12.36,-70.77 L-14.87,-70.32 L-16.98,-69.62 L-18.70,-68.68 L-20.01,-67.48 L-20.92,-66.02 L-22.00,-64.82 L-23.24,-63.87 L-24.64,-63.18 L-26.20,-62.73 L-27.70,-62.10 L-29.14,-61.29 L-30.52,-60.29 L-31.83,-59.11 L-33.01,-57.77 L-34.05,-56.27 L-34.96,-54.60 L-35.73,-52.78 L-36.20,-50.86 L-36.38,-48.82 L-36.27,-46.68 L-35.87,-44.44 L-35.66,-42.50 L-35.66,-40.86 L-35.85,-39.53 L-36.24,-38.50 L-36.41,-37.53 L-36.37,-36.61 L-36.10,-35.74 L-35.62,-34.93 L-35.37,-34.08 L-35.36,-33.20 L-35.58,-32.28 L-36.04,-31.33 L-36.04,-29.70 L-35.60,-27.37 L-34.71,-24.36 L-33.37,-20.67 L-32.53,-17.69 L-32.20,-15.43 L-32.37,-13.90 L-33.05,-13.08 L-33.56,-12.31 L-33.92,-11.59 L-34.12,-10.91 L-34.16,-10.27 L-33.40,-9.59 L-31.85,-8.86 L-29.49,-8.09 L-26.34,-7.28 L-23.89,-6.54 L-22.14,-5.87 L-21.10,-5.27 L-20.76,-4.75 L-20.52,-4.18 L-20.38,-3.56 L-20.33,-2.89 L-20.39,-2.18 L-20.58,-1.37 L-20.91,-0.48 L-21.38,0.50 L-22.00,1.56 L-22.38,2.47 L-22.55,3.23 L-22.48,3.83 L-22.20,4.27 L-21.76,4.65 L-21.17,4.96 L-20.42,5.20 L-19.52,5.37 L-18.80,5.87 L-18.27,6.69 L-17.92,7.84 L-17.75,9.31 L-17.91,10.65 L-18.39,11.86 L-19.20,12.94 L-20.33,13.89 L-21.20,14.77 L-21.80,15.56 L-22.14,16.27 L-22.22,16.91 L-21.87,17.67 L-21.09,18.54 L-19.88,19.52 L-18.24,20.63 L-17.02,21.56 L-16.23,22.31 L-15.87,22.89 L-15.94,23.30 L-15.86,23.75 L-15.63,24.26 L-15.25,24.81 L-14.73,25.41 L-14.01,26.04 L-13.10,26.71 L-11.98,27.41 L-10.66,28.15 L-9.42,29.02 L-8.26,30.04 L-7.17,31.20 L-6.15,32.49 L-5.19,33.47 L-4.27,34.13 L-3.40,34.47 L-2.58,34.49 L-1.80,34.68 L-1.07,35.03 L-0.39,35.56 L0.25,36.26 L0.88,36.82 L1.50,37.23 L2.10,37.51 L2.71,37.64 L3.01,38.41 L3.01,39.83 L2.71,41.88 L2.10,44.57 L1.52,46.81 L0.94,48.61 L0.37,49.97 L-0.19,50.88 L-0.61,52.16 L-0.89,53.82 L-1.03,55.84 L-1.03,58.24 L-1.34,60.02 L-1.95,61.18 L-2.87,61.73 L-4.09,61.65 L-5.25,61.72 L-6.34,61.96 L-7.36,62.34 L-8.31,62.89 L-8.97,63.58 L-9.34,64.44 L-9.42,65.44 L-9.22,66.60 L-8.84,67.77 L-8.31,68.94 L-7.61,70.12 L-6.75,71.30 L-5.83,72.30 L-4.86,73.13 L-3.82,73.79 L-2.73,74.28 L-1.82,74.37 L-1.09,74.07 L-0.56,73.37 L-0.21,72.29 L-0.11,71.25 L-0.28,70.24 L-0.70,69.27 L-1.37,68.34 L-1.85,67.57 L-2.14,66.96 L-2.23,66.51 L-2.13,66.22 L-1.88,65.93 L-1.49,65.63 L-0.96,65.33 L-0.28,65.02 L0.51,64.90 L1.42,64.96 L2.44,65.22 L3.57,65.67 L5.18,65.85 L7.26,65.77 L9.80,65.43 L12.83,64.83 L15.22,64.30 L16.99,63.83 L18.14,63.44 L18.66,63.11 L19.10,62.71 L19.47,62.23 L19.76,61.69 L19.96,61.07 L20.32,60.64 L20.81,60.40 L21.45,60.34 L22.23,60.48 L23.04,60.42 L23.88,60.16 L24.75,59.70 L25.65,59.04 L26.43,58.69 L27.09,58.65 L27.64,58.92 L28.07,59.50 L28.86,59.93 L30.00,60.21 L31.49,60.34 L33.34,60.32 L34.86,60.72 L36.06,61.52 L36.93,62.73 L37.48,64.36 L38.28,65.48 L39.33,66.08 L40.63,66.19 L42.18,65.78 L43.89,65.63 L45.76,65.75 L47.80,66.13 L50.00,66.77 L51.71,67.32 L52.92,67.80 L53.64,68.19 L53.86,68.50 L54.17,68.56 L54.57,68.38 L55.07,67.95 L55.65,67.27 L56.11,66.82 L56.43,66.61 L56.61,66.63 L56.67,66.88 L56.85,67.06 L57.15,67.15 L57.58,67.17 L58.14,67.11 L58.63,66.95 L59.05,66.66 L59.39,66.27 L59.67,65.77 L59.87,65.39 L60.01,65.14 L60.08,65.02 L60.08,65.02 L60.01,64.76 L59.86,64.25 Z" fill="#d8b66a" fill-opacity="0.11" fill-rule="evenodd" transform="translate(115 178) scale(2.01694) translate(-11.84 0.00)"></path><path d="M59.65,63.48 L59.36,62.45 L58.93,61.53 L58.37,60.72 L57.66,60.01 L56.81,59.41 L56.11,58.79 L55.53,58.15 L55.09,57.50 L54.79,56.82 L54.33,56.33 L53.71,56.04 L52.94,55.95 L52.00,56.04 L50.97,55.92 L49.86,55.57 L48.66,55.00 L47.37,54.21 L45.90,53.78 L44.25,53.72 L42.41,54.03 L40.39,54.71 L38.72,55.14 L37.40,55.31 L36.42,55.23 L35.80,54.90 L35.36,54.38 L35.12,53.65 L35.06,52.73 L35.19,51.60 L35.45,50.50 L35.85,49.42 L36.38,48.35 L37.04,47.31 L37.52,46.24 L37.80,45.14 L37.90,44.03 L37.81,42.89 L37.59,41.80 L37.23,40.78 L36.74,39.81 L36.11,38.90 L35.32,38.14 L34.36,37.53 L33.24,37.07 L31.95,36.76 L30.51,35.91 L28.92,34.53 L27.17,32.61 L25.26,30.15 L23.95,28.16 L23.22,26.63 L23.07,25.56 L23.52,24.96 L23.94,24.03 L24.36,22.77 L24.77,21.19 L25.16,19.27 L25.44,17.32 L25.60,15.33 L25.65,13.32 L25.58,11.27 L25.00,9.00 L23.92,6.51 L22.32,3.80 L20.21,0.88 L18.57,-1.56 L17.40,-3.53 L16.70,-5.01 L16.46,-6.02 L15.88,-7.17 L14.95,-8.46 L13.67,-9.89 L12.04,-11.45 L10.74,-13.09 L9.77,-14.79 L9.12,-16.56 L8.81,-18.40 L8.36,-19.92 L7.78,-21.11 L7.05,-21.97 L6.20,-22.52 L5.41,-23.51 L4.69,-24.95 L4.05,-26.85 L3.47,-29.19 L2.87,-31.11 L2.22,-32.60 L1.54,-33.66 L0.82,-34.30 L0.16,-35.04 L-0.46,-35.87 L-1.03,-36.80 L-1.55,-37.83 L-1.88,-38.62 L-2.02,-39.20 L-1.96,-39.54 L-1.72,-39.66 L-1.68,-39.81 L-1.84,-40.02 L-2.21,-40.27 L-2.78,-40.56 L-3.38,-41.12 L-4.00,-41.96 L-4.65,-43.08 L-5.33,-44.48 L-5.87,-45.81 L-6.26,-47.08 L-6.51,-48.28 L-6.61,-49.43 L-6.49,-50.69 L-6.13,-52.07 L-5.55,-53.58 L-4.74,-55.21 L-4.22,-56.87 L-3.99,-58.56 L-4.04,-60.29 L-4.38,-62.05 L-4.56,-63.51 L-4.57,-64.65 L-4.42,-65.48 L-4.11,-66.00 L-3.94,-66.78 L-3.91,-67.79 L-4.03,-69.06 L-4.29,-70.57 L-4.61,-71.83 L-4.98,-72.86 L-5.41,-73.65 L-5.89,-74.19 L-6.37,-74.37 L-6.86,-74.20 L-7.35,-73.66 L-7.84,-72.77 L-8.84,-71.99 L-10.35,-71.32 L-12.36,-70.77 L-14.87,-70.32 L-16.98,-69.62 L-18.70,-68.68 L-20.01,-67.48 L-20.92,-66.02 L-22.00,-64.82 L-23.24,-63.87 L-24.64,-63.18 L-26.20,-62.73 L-27.70,-62.10 L-29.14,-61.29 L-30.52,-60.29 L-31.83,-59.11 L-33.01,-57.77 L-34.05,-56.27 L-34.96,-54.60 L-35.73,-52.78 L-36.20,-50.86 L-36.38,-48.82 L-36.27,-46.68 L-35.87,-44.44 L-35.66,-42.50 L-35.66,-40.86 L-35.85,-39.53 L-36.24,-38.50 L-36.41,-37.53 L-36.37,-36.61 L-36.10,-35.74 L-35.62,-34.93 L-35.37,-34.08 L-35.36,-33.20 L-35.58,-32.28 L-36.04,-31.33 L-36.04,-29.70 L-35.60,-27.37 L-34.71,-24.36 L-33.37,-20.67 L-32.53,-17.69 L-32.20,-15.43 L-32.37,-13.90 L-33.05,-13.08 L-33.56,-12.31 L-33.92,-11.59 L-34.12,-10.91 L-34.16,-10.27 L-33.40,-9.59 L-31.85,-8.86 L-29.49,-8.09 L-26.34,-7.28 L-23.89,-6.54 L-22.14,-5.87 L-21.10,-5.27 L-20.76,-4.75 L-20.52,-4.18 L-20.38,-3.56 L-20.33,-2.89 L-20.39,-2.18 L-20.58,-1.37 L-20.91,-0.48 L-21.38,0.50 L-22.00,1.56 L-22.38,2.47 L-22.55,3.23 L-22.48,3.83 L-22.20,4.27 L-21.76,4.65 L-21.17,4.96 L-20.42,5.20 L-19.52,5.37 L-18.80,5.87 L-18.27,6.69 L-17.92,7.84 L-17.75,9.31 L-17.91,10.65 L-18.39,11.86 L-19.20,12.94 L-20.33,13.89 L-21.20,14.77 L-21.80,15.56 L-22.14,16.27 L-22.22,16.91 L-21.87,17.67 L-21.09,18.54 L-19.88,19.52 L-18.24,20.63 L-17.02,21.56 L-16.23,22.31 L-15.87,22.89 L-15.94,23.30 L-15.86,23.75 L-15.63,24.26 L-15.25,24.81 L-14.73,25.41 L-14.01,26.04 L-13.10,26.71 L-11.98,27.41 L-10.66,28.15 L-9.42,29.02 L-8.26,30.04 L-7.17,31.20 L-6.15,32.49 L-5.19,33.47 L-4.27,34.13 L-3.40,34.47 L-2.58,34.49 L-1.80,34.68 L-1.07,35.03 L-0.39,35.56 L0.25,36.26 L0.88,36.82 L1.50,37.23 L2.10,37.51 L2.71,37.64 L3.01,38.41 L3.01,39.83 L2.71,41.88 L2.10,44.57 L1.52,46.81 L0.94,48.61 L0.37,49.97 L-0.19,50.88 L-0.61,52.16 L-0.89,53.82 L-1.03,55.84 L-1.03,58.24 L-1.34,60.02 L-1.95,61.18 L-2.87,61.73 L-4.09,61.65 L-5.25,61.72 L-6.34,61.96 L-7.36,62.34 L-8.31,62.89 L-8.97,63.58 L-9.34,64.44 L-9.42,65.44 L-9.22,66.60 L-8.84,67.77 L-8.31,68.94 L-7.61,70.12 L-6.75,71.30 L-5.83,72.30 L-4.86,73.13 L-3.82,73.79 L-2.73,74.28 L-1.82,74.37 L-1.09,74.07 L-0.56,73.37 L-0.21,72.29 L-0.11,71.25 L-0.28,70.24 L-0.70,69.27 L-1.37,68.34 L-1.85,67.57 L-2.14,66.96 L-2.23,66.51 L-2.13,66.22 L-1.88,65.93 L-1.49,65.63 L-0.96,65.33 L-0.28,65.02 L0.51,64.90 L1.42,64.96 L2.44,65.22 L3.57,65.67 L5.18,65.85 L7.26,65.77 L9.80,65.43 L12.83,64.83 L15.22,64.30 L16.99,63.83 L18.14,63.44 L18.66,63.11 L19.10,62.71 L19.47,62.23 L19.76,61.69 L19.96,61.07 L20.32,60.64 L20.81,60.40 L21.45,60.34 L22.23,60.48 L23.04,60.42 L23.88,60.16 L24.75,59.70 L25.65,59.04 L26.43,58.69 L27.09,58.65 L27.64,58.92 L28.07,59.50 L28.86,59.93 L30.00,60.21 L31.49,60.34 L33.34,60.32 L34.86,60.72 L36.06,61.52 L36.93,62.73 L37.48,64.36 L38.28,65.48 L39.33,66.08 L40.63,66.19 L42.18,65.78 L43.89,65.63 L45.76,65.75 L47.80,66.13 L50.00,66.77 L51.71,67.32 L52.92,67.80 L53.64,68.19 L53.86,68.50 L54.17,68.56 L54.57,68.38 L55.07,67.95 L55.65,67.27 L56.11,66.82 L56.43,66.61 L56.61,66.63 L56.67,66.88 L56.85,67.06 L57.15,67.15 L57.58,67.17 L58.14,67.11 L58.63,66.95 L59.05,66.66 L59.39,66.27 L59.67,65.77 L59.87,65.39 L60.01,65.14 L60.08,65.02 L60.08,65.02 L60.01,64.76 L59.86,64.25 Z" fill="none" stroke="#d8b66a" stroke-opacity="0.5" stroke-width="0.89" stroke-linejoin="round" stroke-linecap="round" transform="translate(115 178) scale(2.01694) translate(-11.84 0.00)"></path><path d="M28.49 61.39L16.51 61.39L16.51 57.57L19.54 57.57L19.54 42.17L16.51 42.17L16.51 38.35L28.36 38.35Q30.47 38.35 32.03 39.06Q33.59 39.76 34.47 41.06Q35.34 42.36 35.34 44.17L35.34 44.17L35.34 44.50Q35.34 46.08 34.75 47.09Q34.15 48.09 33.35 48.63Q32.54 49.18 31.82 49.41L31.82 49.41L31.82 50Q32.54 50.20 33.40 50.74Q34.25 51.28 34.86 52.30Q35.47 53.32 35.47 54.97L35.47 54.97L35.47 55.30Q35.47 57.21 34.58 58.57Q33.69 59.94 32.13 60.66Q30.57 61.39 28.49 61.39L28.49 61.39ZM23.89 51.78L23.89 57.44L27.97 57.44Q29.38 57.44 30.25 56.75Q31.13 56.06 31.13 54.77L31.13 54.77L31.13 54.44Q31.13 53.16 30.27 52.47Q29.42 51.78 27.97 51.78L27.97 51.78L23.89 51.78ZM23.89 42.30L23.89 47.83L27.90 47.83Q29.25 47.83 30.12 47.14Q30.99 46.45 30.99 45.23L30.99 45.23L30.99 44.90Q30.99 43.65 30.14 42.97Q29.28 42.30 27.90 42.30L27.90 42.30L23.89 42.30Z M44.22 61.85L44.22 61.85Q42.48 61.85 41.10 61.24Q39.72 60.63 38.91 59.46Q38.10 58.29 38.10 56.62L38.10 56.62Q38.10 54.94 38.91 53.80Q39.72 52.67 41.15 52.09Q42.58 51.51 44.42 51.51L44.42 51.51L48.90 51.51L48.90 50.59Q48.90 49.44 48.17 48.70Q47.45 47.96 45.87 47.96L45.87 47.96Q44.32 47.96 43.57 48.67Q42.81 49.37 42.58 50.49L42.58 50.49L38.76 49.21Q39.16 47.96 40.03 46.92Q40.90 45.89 42.37 45.24Q43.83 44.60 45.94 44.60L45.94 44.60Q49.16 44.60 51.04 46.22Q52.91 47.83 52.91 50.89L52.91 50.89L52.91 56.98Q52.91 57.96 53.83 57.96L53.83 57.96L55.15 57.96L55.15 61.39L52.39 61.39Q51.17 61.39 50.38 60.79Q49.59 60.20 49.59 59.22L49.59 59.22L49.59 59.18L48.96 59.18Q48.83 59.58 48.37 60.22Q47.91 60.86 46.92 61.35Q45.94 61.85 44.22 61.85ZM44.95 58.49L44.95 58.49Q46.69 58.49 47.80 57.52Q48.90 56.55 48.90 54.94L48.90 54.94L48.90 54.61L44.72 54.61Q43.57 54.61 42.91 55.10Q42.25 55.59 42.25 56.48L42.25 56.48Q42.25 57.37 42.94 57.93Q43.63 58.49 44.95 58.49Z M64.76 61.85L64.76 61.85Q62.82 61.85 61.12 60.88Q59.43 59.91 58.41 58.03Q57.39 56.15 57.39 53.49L57.39 53.49L57.39 52.96Q57.39 50.30 58.41 48.42Q59.43 46.54 61.11 45.57Q62.79 44.60 64.76 44.60L64.76 44.60Q66.24 44.60 67.25 44.95Q68.25 45.29 68.88 45.82Q69.50 46.35 69.83 46.94L69.83 46.94L70.42 46.94L70.42 38.35L74.57 38.35L74.57 61.39L70.49 61.39L70.49 59.41L69.90 59.41Q69.34 60.33 68.17 61.09Q67.00 61.85 64.76 61.85ZM66.01 58.23L66.01 58.23Q67.92 58.23 69.20 56.99Q70.49 55.76 70.49 53.39L70.49 53.39L70.49 53.06Q70.49 50.69 69.22 49.46Q67.95 48.22 66.01 48.22L66.01 48.22Q64.10 48.22 62.82 49.46Q61.54 50.69 61.54 53.06L61.54 53.06L61.54 53.39Q61.54 55.76 62.82 56.99Q64.10 58.23 66.01 58.23Z  M96.75 61.39L89.25 61.39L86.22 38.35L90.53 38.35L92.77 58.36L93.36 58.36L96.26 38.35L103.76 38.35L106.66 58.36L107.25 58.36L109.49 38.35L113.80 38.35L110.77 61.39L103.27 61.39L100.31 40.92L99.71 40.92L96.75 61.39Z M121.24 61.39L117.09 61.39L117.09 45.06L121.24 45.06L121.24 61.39ZM119.16 43.15L119.16 43.15Q118.04 43.15 117.27 42.43Q116.50 41.71 116.50 40.52L116.50 40.52Q116.50 39.34 117.27 38.61Q118.04 37.89 119.16 37.89L119.16 37.89Q120.32 37.89 121.07 38.61Q121.83 39.34 121.83 40.52L121.83 40.52Q121.83 41.71 121.07 42.43Q120.32 43.15 119.16 43.15Z M133.28 61.85L133.28 61.85Q130.85 61.85 128.99 60.81Q127.13 59.77 126.09 57.88Q125.05 55.99 125.05 53.42L125.05 53.42L125.05 53.03Q125.05 50.46 126.07 48.57Q127.09 46.68 128.94 45.64Q130.78 44.60 133.22 44.60L133.22 44.60Q135.62 44.60 137.40 45.67Q139.17 46.74 140.16 48.63Q141.15 50.53 141.15 53.03L141.15 53.03L141.15 54.44L129.27 54.44Q129.33 56.12 130.52 57.17Q131.70 58.23 133.41 58.23L133.41 58.23Q135.16 58.23 135.98 57.47Q136.80 56.71 137.23 55.79L137.23 55.79L140.62 57.57Q140.16 58.43 139.29 59.43Q138.42 60.43 136.97 61.14Q135.52 61.85 133.28 61.85ZM129.30 51.35L129.30 51.35L136.94 51.35Q136.80 49.93 135.80 49.08Q134.80 48.22 133.18 48.22L133.18 48.22Q131.50 48.22 130.52 49.08Q129.53 49.93 129.30 51.35Z M151.61 61.85L151.61 61.85Q148.42 61.85 146.38 60.47Q144.34 59.08 143.91 56.52L143.91 56.52L147.73 55.53Q147.96 56.68 148.50 57.34Q149.05 58.00 149.85 58.28Q150.66 58.56 151.61 58.56L151.61 58.56Q153.06 58.56 153.75 58.05Q154.44 57.54 154.44 56.78L154.44 56.78Q154.44 56.02 153.79 55.61Q153.13 55.20 151.68 54.94L151.68 54.94L150.76 54.77Q149.05 54.44 147.63 53.87Q146.22 53.29 145.36 52.27Q144.50 51.25 144.50 49.64L144.50 49.64Q144.50 47.20 146.28 45.90Q148.06 44.60 150.96 44.60L150.96 44.60Q153.69 44.60 155.50 45.82Q157.31 47.04 157.87 49.01L157.87 49.01L154.02 50.20Q153.75 48.95 152.95 48.42Q152.14 47.89 150.96 47.89L150.96 47.89Q149.77 47.89 149.15 48.31Q148.52 48.72 148.52 49.44L148.52 49.44Q148.52 50.23 149.18 50.61Q149.84 50.99 150.96 51.18L150.96 51.18L151.88 51.35Q153.72 51.68 155.22 52.22Q156.71 52.76 157.59 53.77Q158.46 54.77 158.46 56.48L158.46 56.48Q158.46 59.05 156.60 60.45Q154.74 61.85 151.61 61.85Z M168.86 61.85L168.86 61.85Q165.67 61.85 163.63 60.47Q161.59 59.08 161.16 56.52L161.16 56.52L164.98 55.53Q165.21 56.68 165.75 57.34Q166.29 58.00 167.10 58.28Q167.90 58.56 168.86 58.56L168.86 58.56Q170.31 58.56 171.00 58.05Q171.69 57.54 171.69 56.78L171.69 56.78Q171.69 56.02 171.03 55.61Q170.37 55.20 168.92 54.94L168.92 54.94L168.00 54.77Q166.29 54.44 164.88 53.87Q163.46 53.29 162.61 52.27Q161.75 51.25 161.75 49.64L161.75 49.64Q161.75 47.20 163.53 45.90Q165.30 44.60 168.20 44.60L168.20 44.60Q170.93 44.60 172.74 45.82Q174.55 47.04 175.11 49.01L175.11 49.01L171.26 50.20Q171.00 48.95 170.19 48.42Q169.39 47.89 168.20 47.89L168.20 47.89Q167.02 47.89 166.39 48.31Q165.77 48.72 165.77 49.44L165.77 49.44Q165.77 50.23 166.42 50.61Q167.08 50.99 168.20 51.18L168.20 51.18L169.12 51.35Q170.97 51.68 172.46 52.22Q173.96 52.76 174.83 53.77Q175.70 54.77 175.70 56.48L175.70 56.48Q175.70 59.05 173.84 60.45Q171.99 61.85 168.86 61.85Z M186.76 61.85L186.76 61.85Q184.33 61.85 182.47 60.81Q180.61 59.77 179.57 57.88Q178.53 55.99 178.53 53.42L178.53 53.42L178.53 53.03Q178.53 50.46 179.55 48.57Q180.58 46.68 182.42 45.64Q184.26 44.60 186.70 44.60L186.70 44.60Q189.10 44.60 190.88 45.67Q192.65 46.74 193.64 48.63Q194.63 50.53 194.63 53.03L194.63 53.03L194.63 54.44L182.75 54.44Q182.81 56.12 184.00 57.17Q185.18 58.23 186.89 58.23L186.89 58.23Q188.64 58.23 189.46 57.47Q190.28 56.71 190.71 55.79L190.71 55.79L194.10 57.57Q193.64 58.43 192.77 59.43Q191.90 60.43 190.45 61.14Q189.00 61.85 186.76 61.85ZM182.78 51.35L182.78 51.35L190.42 51.35Q190.28 49.93 189.28 49.08Q188.28 48.22 186.66 48.22L186.66 48.22Q184.99 48.22 184.00 49.08Q183.01 49.93 182.78 51.35Z M205.75 61.85L205.75 61.85Q203.32 61.85 201.46 60.81Q199.60 59.77 198.56 57.88Q197.52 55.99 197.52 53.42L197.52 53.42L197.52 53.03Q197.52 50.46 198.54 48.57Q199.56 46.68 201.41 45.64Q203.25 44.60 205.69 44.60L205.69 44.60Q208.09 44.60 209.87 45.67Q211.64 46.74 212.63 48.63Q213.62 50.53 213.62 53.03L213.62 53.03L213.62 54.44L201.74 54.44Q201.80 56.12 202.99 57.17Q204.17 58.23 205.88 58.23L205.88 58.23Q207.63 58.23 208.45 57.47Q209.27 56.71 209.70 55.79L209.70 55.79L213.09 57.57Q212.63 58.43 211.76 59.43Q210.89 60.43 209.44 61.14Q207.99 61.85 205.75 61.85ZM201.77 51.35L201.77 51.35L209.41 51.35Q209.27 49.93 208.27 49.08Q207.27 48.22 205.65 48.22L205.65 48.22Q203.97 48.22 202.99 49.08Q202.00 49.93 201.77 51.35Z" fill="#f1ece2"></path><path d="M54.95 83.70L54.95 83.70Q54.04 83.70 53.26 83.25Q52.48 82.80 52.00 81.96Q51.53 81.11 51.53 79.91L51.53 79.91L51.53 79.68Q51.53 78.50 52.00 77.64Q52.46 76.79 53.24 76.34Q54.02 75.89 54.95 75.89L54.95 75.89Q55.67 75.89 56.16 76.07Q56.65 76.25 56.96 76.53Q57.28 76.80 57.44 77.10L57.44 77.10L57.68 77.10L57.68 72.99L59.23 72.99L59.23 83.49L57.71 83.49L57.71 82.44L57.47 82.44Q57.19 82.92 56.61 83.31Q56.03 83.70 54.95 83.70ZM55.39 82.35L55.39 82.35Q56.39 82.35 57.04 81.71Q57.70 81.06 57.70 79.86L57.70 79.86L57.70 79.73Q57.70 78.54 57.05 77.90Q56.41 77.25 55.39 77.25L55.39 77.25Q54.40 77.25 53.74 77.90Q53.09 78.54 53.09 79.73L53.09 79.73L53.09 79.86Q53.09 81.06 53.74 81.71Q54.40 82.35 55.39 82.35Z M64.80 83.70L64.80 83.70Q64.01 83.70 63.38 83.43Q62.76 83.16 62.39 82.64Q62.03 82.11 62.03 81.36L62.03 81.36Q62.03 80.60 62.39 80.10Q62.76 79.59 63.40 79.34Q64.04 79.08 64.85 79.08L64.85 79.08L67.10 79.08L67.10 78.60Q67.10 77.96 66.71 77.57Q66.32 77.18 65.51 77.18L65.51 77.18Q64.71 77.18 64.29 77.55Q63.87 77.93 63.74 78.53L63.74 78.53L62.30 78.06Q62.48 77.46 62.88 76.98Q63.27 76.49 63.93 76.19Q64.59 75.89 65.52 75.89L65.52 75.89Q66.96 75.89 67.79 76.62Q68.61 77.36 68.61 78.71L68.61 78.71L68.61 81.75Q68.61 82.20 69.03 82.20L69.03 82.20L69.66 82.20L69.66 83.49L68.51 83.49Q67.98 83.49 67.65 83.22Q67.32 82.95 67.32 82.49L67.32 82.49L67.32 82.44L67.10 82.44Q66.98 82.67 66.74 82.97Q66.50 83.27 66.03 83.49Q65.57 83.70 64.80 83.70ZM65.03 82.43L65.03 82.43Q65.96 82.43 66.53 81.90Q67.10 81.36 67.10 80.43L67.10 80.43L67.10 80.28L64.94 80.28Q64.32 80.28 63.95 80.55Q63.57 80.81 63.57 81.32L63.57 81.32Q63.57 81.83 63.96 82.13Q64.35 82.43 65.03 82.43Z  M81.26 83.70L81.26 83.70Q80.18 83.70 79.60 83.31Q79.03 82.92 78.74 82.44L78.74 82.44L78.50 82.44L78.50 83.49L76.99 83.49L76.99 72.99L78.53 72.99L78.53 77.10L78.77 77.10Q78.95 76.80 79.25 76.53Q79.55 76.25 80.05 76.07Q80.54 75.89 81.26 75.89L81.26 75.89Q82.19 75.89 82.97 76.34Q83.75 76.79 84.22 77.64Q84.68 78.50 84.68 79.68L84.68 79.68L84.68 79.91Q84.68 81.11 84.21 81.96Q83.74 82.80 82.97 83.25Q82.19 83.70 81.26 83.70ZM80.81 82.35L80.81 82.35Q81.82 82.35 82.47 81.71Q83.12 81.06 83.12 79.86L83.12 79.86L83.12 79.73Q83.12 78.54 82.48 77.90Q81.83 77.25 80.81 77.25L80.81 77.25Q79.82 77.25 79.17 77.90Q78.52 78.54 78.52 79.73L78.52 79.73L78.52 79.86Q78.52 81.06 79.17 81.71Q79.82 82.35 80.81 82.35Z M89.15 83.49L87.60 83.49L87.60 76.10L89.15 76.10L89.15 83.49ZM88.38 75.09L88.38 75.09Q87.93 75.09 87.62 74.80Q87.32 74.51 87.32 74.04L87.32 74.04Q87.32 73.58 87.62 73.29Q87.93 72.99 88.38 72.99L88.38 72.99Q88.85 72.99 89.15 73.29Q89.45 73.58 89.45 74.04L89.45 74.04Q89.45 74.51 89.15 74.80Q88.85 75.09 88.38 75.09Z M93.99 83.49L92.44 83.49L92.44 76.10L93.96 76.10L93.96 77.21L94.20 77.21Q94.41 76.76 94.95 76.37Q95.49 75.98 96.55 75.98L96.55 75.98Q97.39 75.98 98.04 76.35Q98.70 76.73 99.07 77.41Q99.45 78.09 99.45 79.05L99.45 79.05L99.45 83.49L97.90 83.49L97.90 79.17Q97.90 78.21 97.42 77.76Q96.94 77.30 96.10 77.30L96.10 77.30Q95.14 77.30 94.56 77.93Q93.99 78.56 93.99 79.76L93.99 79.76L93.99 83.49Z  M109.04 83.49L107.49 83.49L107.49 76.10L109.04 76.10L109.04 83.49ZM108.27 75.09L108.27 75.09Q107.82 75.09 107.51 74.80Q107.21 74.51 107.21 74.04L107.21 74.04Q107.21 73.58 107.51 73.29Q107.82 72.99 108.27 72.99L108.27 72.99Q108.74 72.99 109.04 73.29Q109.34 73.58 109.34 74.04L109.34 74.04Q109.34 74.51 109.04 74.80Q108.74 75.09 108.27 75.09Z  M120.22 83.70L120.22 83.70Q119.30 83.70 118.52 83.25Q117.74 82.80 117.27 81.96Q116.80 81.11 116.80 79.91L116.80 79.91L116.80 79.68Q116.80 78.50 117.26 77.64Q117.73 76.79 118.51 76.34Q119.29 75.89 120.22 75.89L120.22 75.89Q120.94 75.89 121.42 76.07Q121.91 76.25 122.23 76.53Q122.54 76.80 122.71 77.10L122.71 77.10L122.95 77.10L122.95 72.99L124.49 72.99L124.49 83.49L122.98 83.49L122.98 82.44L122.74 82.44Q122.45 82.92 121.88 83.31Q121.30 83.70 120.22 83.70ZM120.65 82.35L120.65 82.35Q121.66 82.35 122.31 81.71Q122.96 81.06 122.96 79.86L122.96 79.86L122.96 79.73Q122.96 78.54 122.32 77.90Q121.67 77.25 120.65 77.25L120.65 77.25Q119.66 77.25 119.01 77.90Q118.36 78.54 118.36 79.73L118.36 79.73L118.36 79.86Q118.36 81.06 119.01 81.71Q119.66 82.35 120.65 82.35Z M130.07 83.70L130.07 83.70Q129.27 83.70 128.65 83.43Q128.03 83.16 127.66 82.64Q127.29 82.11 127.29 81.36L127.29 81.36Q127.29 80.60 127.66 80.10Q128.03 79.59 128.66 79.34Q129.30 79.08 130.11 79.08L130.11 79.08L132.36 79.08L132.36 78.60Q132.36 77.96 131.97 77.57Q131.58 77.18 130.77 77.18L130.77 77.18Q129.98 77.18 129.56 77.55Q129.14 77.93 129.00 78.53L129.00 78.53L127.56 78.06Q127.74 77.46 128.14 76.98Q128.54 76.49 129.20 76.19Q129.86 75.89 130.79 75.89L130.79 75.89Q132.23 75.89 133.05 76.62Q133.88 77.36 133.88 78.71L133.88 78.71L133.88 81.75Q133.88 82.20 134.30 82.20L134.30 82.20L134.93 82.20L134.93 83.49L133.77 83.49Q133.25 83.49 132.92 83.22Q132.59 82.95 132.59 82.49L132.59 82.49L132.59 82.44L132.36 82.44Q132.24 82.67 132.00 82.97Q131.76 83.27 131.30 83.49Q130.83 83.70 130.07 83.70ZM130.29 82.43L130.29 82.43Q131.22 82.43 131.79 81.90Q132.36 81.36 132.36 80.43L132.36 80.43L132.36 80.28L130.20 80.28Q129.59 80.28 129.21 80.55Q128.84 80.81 128.84 81.32L128.84 81.32Q128.84 81.83 129.23 82.13Q129.62 82.43 130.29 82.43Z M138.97 83.49L137.43 83.49L137.43 72.99L138.97 72.99L138.97 77.15L139.21 77.15Q139.36 76.86 139.64 76.59Q139.92 76.32 140.38 76.15Q140.83 75.98 141.54 75.98L141.54 75.98Q142.38 75.98 143.03 76.35Q143.68 76.73 144.06 77.41Q144.43 78.09 144.43 79.05L144.43 79.05L144.43 83.49L142.89 83.49L142.89 79.17Q142.89 78.21 142.41 77.76Q141.93 77.30 141.09 77.30L141.09 77.30Q140.13 77.30 139.55 77.93Q138.97 78.56 138.97 79.76L138.97 79.76L138.97 83.49Z M151.12 83.70L151.12 83.70Q150.01 83.70 149.14 83.25Q148.28 82.79 147.79 81.93Q147.29 81.08 147.29 79.91L147.29 79.91L147.29 79.68Q147.29 78.51 147.79 77.67Q148.28 76.82 149.14 76.35Q150.01 75.89 151.12 75.89L151.12 75.89Q152.23 75.89 153.10 76.35Q153.97 76.82 154.46 77.67Q154.96 78.51 154.96 79.68L154.96 79.68L154.96 79.91Q154.96 81.08 154.46 81.93Q153.97 82.79 153.10 83.25Q152.23 83.70 151.12 83.70ZM151.12 82.32L151.12 82.32Q152.14 82.32 152.77 81.67Q153.41 81.02 153.41 79.86L153.41 79.86L153.41 79.73Q153.41 78.57 152.78 77.92Q152.15 77.27 151.12 77.27L151.12 77.27Q150.11 77.27 149.47 77.92Q148.84 78.57 148.84 79.73L148.84 79.73L148.84 79.86Q148.84 81.02 149.47 81.67Q150.11 82.32 151.12 82.32Z M160.17 83.70L160.17 83.70Q159.38 83.70 158.75 83.43Q158.13 83.16 157.76 82.64Q157.40 82.11 157.40 81.36L157.40 81.36Q157.40 80.60 157.76 80.10Q158.13 79.59 158.77 79.34Q159.41 79.08 160.22 79.08L160.22 79.08L162.47 79.08L162.47 78.60Q162.47 77.96 162.08 77.57Q161.69 77.18 160.88 77.18L160.88 77.18Q160.08 77.18 159.66 77.55Q159.24 77.93 159.11 78.53L159.11 78.53L157.67 78.06Q157.85 77.46 158.24 76.98Q158.64 76.49 159.30 76.19Q159.96 75.89 160.89 75.89L160.89 75.89Q162.33 75.89 163.16 76.62Q163.98 77.36 163.98 78.71L163.98 78.71L163.98 81.75Q163.98 82.20 164.40 82.20L164.40 82.20L165.03 82.20L165.03 83.49L163.88 83.49Q163.35 83.49 163.02 83.22Q162.69 82.95 162.69 82.49L162.69 82.49L162.69 82.44L162.47 82.44Q162.35 82.67 162.11 82.97Q161.87 83.27 161.40 83.49Q160.94 83.70 160.17 83.70ZM160.40 82.43L160.40 82.43Q161.33 82.43 161.90 81.90Q162.47 81.36 162.47 80.43L162.47 80.43L162.47 80.28L160.31 80.28Q159.69 80.28 159.32 80.55Q158.94 80.81 158.94 81.32L158.94 81.32Q158.94 81.83 159.33 82.13Q159.72 82.43 160.40 82.43Z M169.08 83.49L167.53 83.49L167.53 76.10L169.05 76.10L169.05 76.97L169.29 76.97Q169.50 76.58 169.96 76.28Q170.43 75.98 171.22 75.98L171.22 75.98Q172.05 75.98 172.55 76.32Q173.05 76.65 173.31 77.18L173.31 77.18L173.55 77.18Q173.80 76.67 174.29 76.32Q174.78 75.98 175.68 75.98L175.68 75.98Q176.40 75.98 176.95 76.27Q177.51 76.56 177.84 77.14Q178.17 77.72 178.17 78.57L178.17 78.57L178.17 83.49L176.62 83.49L176.62 78.69Q176.62 78.02 176.25 77.65Q175.89 77.28 175.21 77.28L175.21 77.28Q174.49 77.28 174.06 77.75Q173.62 78.21 173.62 79.08L173.62 79.08L173.62 83.49L172.08 83.49L172.08 78.69Q172.08 78.02 171.71 77.65Q171.34 77.28 170.67 77.28L170.67 77.28Q169.95 77.28 169.51 77.75Q169.08 78.21 169.08 79.08L169.08 79.08L169.08 83.49Z" fill="#f1ece2" fill-opacity="0.7"></path><svg x="-17.50" y="165.91" width="258.46" height="132.82" viewBox="0 0 360 185" overflow="visible"><g fill="#f1ece2"><g transform="translate(64.98,0)"><path d="M22.88 133.59 L22.88 133.59 Q21.33 133.16 20.38 132.82 L20.38 132.82 L19.44 132.56 Q19.61 132.13 19.31 131.78 Q19.01 131.44 18.06 131.35 L18.06 131.35 Q16.77 130.49 15.39 128.95 Q14.02 127.40 12.99 125.76 Q11.95 124.13 11.61 123.36 L11.61 123.36 Q11.18 122.32 11.44 121.98 L11.44 121.98 Q11.52 121.81 11.70 121.72 L11.70 121.72 Q12.38 121.46 13.33 121.03 L13.33 121.03 Q14.28 120.35 15.35 120.00 Q16.43 119.66 17.11 121.12 L17.11 121.12 Q18.23 123.10 20.60 124.47 Q22.96 125.85 26.02 126.11 Q29.07 126.37 32.16 125.08 L32.16 125.08 Q34.23 124.13 34.40 122.45 Q34.57 120.78 33.11 118.54 L33.11 118.54 Q32.85 117.85 32.38 117.42 Q31.91 116.99 31.00 116.30 Q30.10 115.62 28.47 114.07 L28.47 114.07 Q27.18 113.47 26.10 112.95 Q25.03 112.43 23.82 111.83 L23.82 111.83 Q22.45 111.14 20.73 109.90 Q19.01 108.65 17.54 107.14 Q16.08 105.64 15.31 104.26 L15.31 104.26 Q13.93 102.97 13.59 100.69 Q13.24 98.42 13.72 95.84 Q14.19 93.26 15.31 91.19 L15.31 91.19 Q15.82 89.99 17.20 88.05 Q18.58 86.12 20.30 84.05 Q22.02 81.99 23.61 80.31 Q25.20 78.64 26.14 78.03 L26.14 78.03 Q26.83 77.35 27.61 76.57 L27.61 76.57 L28.38 75.88 Q28.47 75.45 28.72 75.45 L28.72 75.45 L28.90 75.45 Q29.33 75.20 30.79 74.59 Q32.25 73.99 33.97 72.36 L33.97 72.36 Q39.73 69.61 43.77 68.62 Q47.82 67.63 50.14 67.63 L50.14 67.63 Q52.29 67.71 54.35 68.79 Q56.42 69.86 57.92 71.50 Q59.43 73.13 59.68 75.20 L59.68 75.20 Q60.29 77.26 59.13 80.14 Q57.96 83.02 55.94 85.56 Q53.92 88.10 51.77 89.30 L51.77 89.30 Q49.36 90.33 47.69 89.56 Q46.01 88.78 46.10 87.15 L46.10 87.15 Q46.10 86.46 46.57 85.52 Q47.04 84.57 49.19 82.16 L49.19 82.16 Q51.94 78.12 52.12 76.40 Q52.29 74.68 50.57 74.42 L50.57 74.42 Q50.05 74.25 48.59 74.51 Q47.13 74.77 45.45 75.15 Q43.77 75.54 42.53 75.97 Q41.28 76.40 41.28 76.57 L41.28 76.57 L41.28 76.83 Q41.28 76.92 41.19 77.00 L41.19 77.00 Q41.19 77.09 40.94 77.00 L40.94 77.00 Q40.76 77.00 39.78 77.56 Q38.79 78.12 37.41 78.98 Q36.03 79.84 34.70 80.74 Q33.37 81.65 32.42 82.33 Q31.48 83.02 31.39 83.19 L31.39 83.19 Q31.22 84.14 29.41 84.91 L29.41 84.91 Q27.69 85.95 26.40 87.84 Q25.11 89.73 23.39 92.65 L23.39 92.65 Q21.93 94.63 21.33 96.91 Q20.73 99.19 21.33 100.57 L21.33 100.57 Q21.76 101.94 23.69 103.28 Q25.63 104.61 28.98 106.59 L28.98 106.59 Q31.91 108.22 34.49 110.03 Q37.07 111.83 38.87 113.51 Q40.68 115.19 41.19 116.30 L41.19 116.30 Q42.23 117.77 42.44 119.66 Q42.66 121.55 42.44 123.31 Q42.23 125.08 41.88 126.19 L41.88 126.19 Q41.28 127.57 40.03 129.12 Q38.79 130.67 37.75 130.58 L37.75 130.58 Q36.81 130.84 36.34 131.18 Q35.86 131.53 35.26 131.78 L35.26 131.78 Q34.66 132.13 32.42 132.60 Q30.19 133.07 27.52 133.38 Q24.85 133.68 22.88 133.59 Z M67.77 126.28 L67.77 126.28 Q65.19 127.74 62.31 127.96 Q59.43 128.17 56.93 127.18 Q54.44 126.19 52.89 124.22 L52.89 124.22 Q52.03 123.10 51.26 120.65 Q50.48 118.20 51.00 113.98 L51.00 113.98 Q51.51 110.03 53.45 105.98 Q55.38 101.94 58.22 98.85 Q61.06 95.75 64.41 94.63 L64.41 94.63 Q65.62 94.20 66.86 93.99 Q68.11 93.77 70.18 93.94 L70.18 93.94 Q72.15 94.20 73.70 94.93 Q75.25 95.66 75.94 96.52 L75.94 96.52 Q77.31 97.90 77.74 99.19 Q78.17 100.48 78.09 101.68 L78.09 101.68 Q77.66 104.44 75.64 107.62 Q73.62 110.80 70.00 112.35 L70.00 112.35 Q68.54 112.95 66.56 113.12 Q64.59 113.29 61.15 112.61 L61.15 112.61 Q59.08 112.18 58.44 113.04 Q57.79 113.90 57.88 116.39 L57.88 116.39 Q58.05 117.94 58.61 119.10 Q59.17 120.26 60.72 120.69 L60.72 120.69 Q62.69 121.03 63.55 120.73 Q64.41 120.43 65.70 119.83 L65.70 119.83 Q66.39 119.40 67.08 118.88 L67.08 118.88 L68.37 117.85 Q68.97 117.34 69.40 117.08 L69.40 117.08 Q69.83 116.73 70.26 116.65 Q70.69 116.56 71.12 116.56 L71.12 116.56 Q72.07 116.65 72.93 117.59 Q73.79 118.54 74.05 119.40 L74.05 119.40 Q74.05 120.09 73.19 121.33 Q72.33 122.58 70.91 123.92 Q69.49 125.25 67.77 126.28 Z M66.65 107.10 L66.65 107.10 Q67.25 106.84 68.41 105.90 Q69.57 104.95 70.52 103.88 Q71.47 102.80 71.47 102.20 L71.47 102.20 Q71.47 101.25 70.22 100.57 Q68.97 99.88 66.99 100.31 L66.99 100.31 Q66.31 100.48 65.36 101.25 Q64.41 102.03 63.47 103.02 Q62.52 104.01 61.83 104.91 Q61.15 105.81 60.89 106.33 L60.89 106.33 Q61.23 106.76 62.26 107.02 Q63.30 107.27 64.54 107.27 Q65.79 107.27 66.65 107.10 Z M96.49 126.28 L96.49 126.28 Q93.91 127.74 91.03 127.96 Q88.15 128.17 85.66 127.18 Q83.16 126.19 81.61 124.22 L81.61 124.22 Q80.75 123.10 79.98 120.65 Q79.21 118.20 79.72 113.98 L79.72 113.98 Q80.24 110.03 82.17 105.98 Q84.11 101.94 86.95 98.85 Q89.78 95.75 93.14 94.63 L93.14 94.63 Q94.34 94.20 95.59 93.99 Q96.84 93.77 98.90 93.94 L98.90 93.94 Q100.88 94.20 102.43 94.93 Q103.97 95.66 104.66 96.52 L104.66 96.52 Q106.04 97.90 106.47 99.19 Q106.90 100.48 106.81 101.68 L106.81 101.68 Q106.38 104.44 104.36 107.62 Q102.34 110.80 98.73 112.35 L98.73 112.35 Q97.27 112.95 95.29 113.12 Q93.31 113.29 89.87 112.61 L89.87 112.61 Q87.81 112.18 87.16 113.04 Q86.52 113.90 86.60 116.39 L86.60 116.39 Q86.77 117.94 87.33 119.10 Q87.89 120.26 89.44 120.69 L89.44 120.69 Q91.42 121.03 92.28 120.73 Q93.14 120.43 94.43 119.83 L94.43 119.83 Q95.12 119.40 95.80 118.88 L95.80 118.88 L97.09 117.85 Q97.70 117.34 98.13 117.08 L98.13 117.08 Q98.56 116.73 98.99 116.65 Q99.42 116.56 99.85 116.56 L99.85 116.56 Q100.79 116.65 101.65 117.59 Q102.51 118.54 102.77 119.40 L102.77 119.40 Q102.77 120.09 101.91 121.33 Q101.05 122.58 99.63 123.92 Q98.21 125.25 96.49 126.28 Z M95.37 107.10 L95.37 107.10 Q95.98 106.84 97.14 105.90 Q98.30 104.95 99.24 103.88 Q100.19 102.80 100.19 102.20 L100.19 102.20 Q100.19 101.25 98.94 100.57 Q97.70 99.88 95.72 100.31 L95.72 100.31 Q95.03 100.48 94.08 101.25 Q93.14 102.03 92.19 103.02 Q91.25 104.01 90.56 104.91 Q89.87 105.81 89.61 106.33 L89.61 106.33 Q89.96 106.76 90.99 107.02 Q92.02 107.27 93.27 107.27 Q94.51 107.27 95.37 107.10 Z M118.42 145.20 L118.42 145.20 Q116.01 146.15 113.39 144.90 Q110.77 143.65 108.88 140.99 L108.88 140.99 Q108.53 140.47 107.84 139.14 Q107.16 137.80 106.51 136.26 Q105.87 134.71 105.56 133.59 Q105.26 132.47 105.52 132.30 L105.52 132.30 Q105.87 131.35 107.07 131.18 Q108.27 131.01 109.48 131.31 Q110.68 131.61 110.85 132.13 L110.85 132.13 Q111.11 132.73 111.37 133.38 Q111.63 134.02 112.01 134.58 Q112.40 135.14 112.75 135.57 L112.75 135.57 Q113.69 137.03 114.81 137.59 Q115.93 138.15 116.53 137.72 L116.53 137.72 Q117.99 136.60 118.72 135.09 Q119.45 133.59 120.66 129.81 L120.66 129.81 Q121.60 126.62 122.29 124.30 Q122.98 121.98 123.75 120.00 L123.75 120.00 Q124.01 118.97 124.44 118.20 L124.44 118.20 Q124.53 118.02 124.61 117.85 L124.61 117.85 Q123.41 118.71 122.46 119.57 L122.46 119.57 Q121.17 120.78 118.94 121.72 L118.94 121.72 Q118.42 122.32 116.40 122.45 Q114.38 122.58 112.49 121.98 L112.49 121.98 Q111.28 121.29 110.55 120.56 Q109.82 119.83 109.35 118.88 Q108.88 117.94 108.36 116.65 L108.36 116.65 Q107.76 115.36 108.19 112.43 Q108.62 109.51 109.74 106.59 L109.74 106.59 Q110.77 104.44 112.75 101.94 Q114.72 99.45 116.96 97.43 Q119.20 95.41 121.00 94.89 L121.00 94.89 Q121.69 94.55 123.41 94.07 Q125.13 93.60 126.68 94.03 L126.68 94.03 Q128.14 94.20 128.91 94.67 Q129.69 95.15 131.41 96.61 L131.41 96.61 Q132.53 97.73 134.16 99.49 Q135.79 101.25 136.22 102.46 L136.22 102.46 Q136.83 103.75 136.48 105.25 Q136.14 106.76 135.28 107.88 L135.28 107.88 Q134.50 108.99 133.64 110.11 Q132.78 111.23 132.35 113.21 L132.35 113.21 Q131.92 115.79 130.72 119.01 Q129.52 122.24 128.83 124.99 L128.83 124.99 L127.45 130.32 Q125.30 137.63 122.72 140.94 Q120.14 144.25 118.42 145.20 Z M116.62 115.62 L116.62 115.62 Q118.34 115.53 119.58 115.23 Q120.83 114.93 121.95 113.85 Q123.07 112.78 124.53 110.54 L124.53 110.54 Q125.99 108.48 126.59 106.76 Q127.19 105.04 127.02 102.89 L127.02 102.89 Q126.94 101.51 126.25 101.08 Q125.56 100.65 124.44 100.82 L124.44 100.82 Q122.81 101.08 121.52 102.16 Q120.23 103.23 118.51 105.47 L118.51 105.47 Q117.22 107.19 116.36 109.60 L116.36 109.60 Q115.50 112.18 115.63 113.72 Q115.76 115.27 116.62 115.62 Z M143.88 138.41 L143.88 138.41 Q143.36 138.75 141.56 137.59 Q139.75 136.43 138.55 135.05 L138.55 135.05 Q137.94 134.36 137.77 133.59 Q137.60 132.82 137.86 130.67 L137.86 130.67 Q138.20 129.72 138.24 128.86 Q138.29 128.00 138.29 127.66 L138.29 127.66 Q138.29 127.14 138.59 125.25 Q138.89 123.36 139.23 121.25 Q139.58 119.14 139.84 118.02 L139.84 118.02 Q139.84 117.94 139.96 117.42 Q140.09 116.91 140.18 116.65 L140.18 116.65 Q140.35 115.87 140.61 114.76 Q140.87 113.64 141.13 111.75 L141.13 111.75 Q141.81 109.60 142.29 107.49 Q142.76 105.38 142.76 104.61 L142.76 104.61 Q142.76 103.06 143.96 102.37 L143.96 102.37 Q144.05 101.94 144.48 101.04 Q144.91 100.14 145.25 99.53 L145.25 99.53 Q146.97 94.63 148.09 91.71 Q149.21 88.78 150.41 86.63 L150.41 86.63 Q150.93 85.17 151.57 83.62 Q152.22 82.08 152.91 81.22 L152.91 81.22 Q153.51 80.01 155.01 78.25 Q156.52 76.49 158.24 74.85 Q159.96 73.22 160.99 72.44 L160.99 72.44 Q162.88 71.50 164.52 70.90 Q166.15 70.29 167.96 70.29 L167.96 70.29 Q169.59 70.29 170.84 71.03 Q172.09 71.76 174.58 73.99 L174.58 73.99 Q175.44 75.11 175.44 76.14 Q175.44 77.17 175.01 77.86 L175.01 77.86 Q174.41 79.24 173.20 81.26 Q172.00 83.28 170.88 84.87 Q169.76 86.46 169.25 86.55 L169.25 86.55 Q168.22 87.15 167.10 86.89 Q165.98 86.63 165.98 85.34 L165.98 85.34 Q165.98 84.74 166.07 84.23 L166.07 84.23 L166.07 83.71 Q166.32 82.59 166.71 81.73 Q167.10 80.87 167.44 80.27 L167.44 80.27 Q168.13 79.15 167.83 78.12 Q167.53 77.09 165.64 77.26 L165.64 77.26 Q165.38 77.43 164.65 78.08 Q163.92 78.72 163.10 79.54 Q162.28 80.36 161.68 81.09 Q161.08 81.82 161.08 82.08 L161.08 82.08 L160.65 82.94 Q160.13 83.88 159.19 85.00 L159.19 85.00 Q158.58 85.86 158.15 86.63 Q157.72 87.41 157.72 87.84 L157.72 87.84 Q157.72 88.18 157.64 88.44 Q157.55 88.70 157.21 88.70 L157.21 88.70 L156.95 89.56 Q156.61 90.42 155.92 91.62 L155.92 91.62 Q155.57 92.48 155.19 93.21 Q154.80 93.94 154.46 94.29 L154.46 94.29 L154.37 94.46 L154.03 95.41 Q153.60 96.44 153.17 97.47 Q152.74 98.50 152.74 98.67 L152.74 98.67 Q152.74 99.02 153.77 99.02 Q154.80 99.02 156.26 98.72 Q157.72 98.42 159.10 98.07 L159.10 98.07 Q160.30 97.73 160.82 97.73 Q161.34 97.73 162.45 98.07 L162.45 98.07 Q163.14 98.50 163.57 99.58 Q164.00 100.65 164.22 101.73 Q164.43 102.80 164.26 103.32 L164.26 103.32 Q164.17 103.66 162.32 104.26 Q160.48 104.87 158.67 105.21 L158.67 105.21 Q157.12 105.55 155.19 105.94 Q153.25 106.33 151.79 106.72 Q150.33 107.10 150.24 107.45 L150.24 107.45 Q149.90 107.45 149.68 107.88 Q149.47 108.31 149.47 108.65 L149.47 108.65 Q149.47 109.77 149.04 110.46 L149.04 110.46 Q148.87 110.97 148.48 112.56 Q148.09 114.15 147.70 116.00 Q147.32 117.85 147.02 119.44 Q146.72 121.03 146.72 121.55 L146.72 121.55 Q146.20 122.15 146.11 123.06 Q146.03 123.96 146.03 124.65 L146.03 124.65 Q145.68 125.33 145.60 125.89 Q145.51 126.45 145.51 126.80 L145.51 126.80 L145.51 127.14 Q145.51 127.40 145.43 127.66 L145.43 127.66 Q145.34 128.52 145.21 129.94 Q145.08 131.35 145.08 132.73 L145.08 132.73 L144.82 135.22 Q144.74 136.34 144.52 137.16 Q144.31 137.98 143.88 138.41 Z M186.02 127.83 L186.02 127.83 Q185.16 126.97 184.64 125.46 Q184.13 123.96 183.61 121.98 L183.61 121.98 Q183.44 121.29 183.48 120.43 Q183.52 119.57 183.44 119.06 L183.44 119.06 Q183.18 119.66 182.62 120.60 Q182.06 121.55 181.55 121.98 L181.55 121.98 Q181.20 122.32 180.00 123.31 Q178.79 124.30 177.59 124.90 L177.59 124.90 Q174.75 126.71 172.56 126.58 Q170.37 126.45 168.73 124.39 L168.73 124.39 Q167.36 123.27 166.50 121.55 Q165.64 119.83 166.15 117.42 L166.15 117.42 Q166.32 114.41 167.01 111.53 Q167.70 108.65 169.85 103.83 L169.85 103.83 Q171.66 100.31 172.60 98.33 Q173.55 96.35 173.81 96.01 L173.81 96.01 Q175.10 95.58 176.99 96.05 Q178.88 96.52 179.05 97.73 L179.05 97.73 Q179.57 98.59 179.05 100.95 Q178.54 103.32 176.99 106.33 L176.99 106.33 Q175.78 109.25 174.71 112.00 Q173.63 114.76 173.42 116.65 Q173.20 118.54 174.41 118.97 L174.41 118.97 Q175.18 119.40 176.69 118.88 Q178.19 118.37 180.26 115.79 Q182.32 113.21 184.64 107.62 L184.64 107.62 Q185.33 105.90 185.67 104.56 Q186.02 103.23 186.10 101.60 L186.10 101.60 Q185.93 100.57 186.66 99.45 Q187.39 98.33 188.43 97.73 L188.43 97.73 Q188.77 97.30 189.37 96.87 L189.37 96.87 Q189.80 96.61 189.97 96.78 L189.97 96.78 Q190.06 96.78 190.15 96.95 L190.15 96.95 L191.52 96.87 Q191.87 96.78 192.30 97.56 Q192.73 98.33 193.16 98.67 L193.16 98.67 Q194.10 99.45 194.02 102.03 Q193.93 104.61 191.95 109.25 L191.95 109.25 Q190.32 112.78 189.76 114.58 Q189.20 116.39 189.11 118.11 L189.11 118.11 Q189.11 119.66 189.37 120.73 Q189.63 121.81 190.92 122.93 L190.92 122.93 Q191.87 123.53 191.99 124.95 Q192.12 126.37 192.04 127.40 L192.04 127.40 Q191.87 128.17 190.70 128.47 Q189.54 128.77 188.21 128.60 Q186.88 128.43 186.02 127.83 Z M197.80 126.54 L197.80 126.54 Q197.11 125.85 196.81 124.47 Q196.51 123.10 196.60 121.77 Q196.68 120.43 197.03 119.74 L197.03 119.74 Q197.03 119.06 197.24 118.67 Q197.46 118.28 197.37 117.94 L197.37 117.94 Q197.28 117.59 197.54 116.73 Q197.80 115.87 198.06 115.10 L198.06 115.10 Q198.66 113.72 199.43 111.53 Q200.21 109.34 200.98 107.06 Q201.76 104.78 202.27 103.10 Q202.79 101.43 202.87 101.08 L202.87 101.08 Q202.87 100.05 204.25 99.96 L204.25 99.96 Q205.28 99.62 206.74 100.82 Q208.21 102.03 209.07 103.40 L209.07 103.40 Q209.75 104.09 209.58 105.21 Q209.41 106.33 208.46 108.39 L208.46 108.39 Q208.12 109.08 207.65 110.67 Q207.17 112.26 207.00 113.29 L207.00 113.29 Q206.66 113.98 206.18 115.23 Q205.71 116.48 205.37 117.59 L205.37 117.59 Q205.20 118.02 205.02 119.19 Q204.85 120.35 204.59 121.55 Q204.34 122.75 203.91 123.44 L203.91 123.44 Q203.13 126.97 201.20 127.57 Q199.26 128.17 197.80 126.54 Z " fill="#f1ece2"></path><defs><mask id="hm2" maskUnits="userSpaceOnUse"><path d="M0,3 C0,-3 -9,-6 -9,-13 C-9,-19 -2,-20 0,-14 C2,-20 9,-19 9,-13 C9,-6 0,-3 0,3 Z" fill="#fff"></path><path d="M-7.5,-8 q2.5,-3.4 5,0 t5,0 t5,0" fill="none" stroke="#000" stroke-width="2.1" stroke-linecap="round"></path></mask></defs><g transform="translate(210.40,95.23) rotate(12) scale(0.940)"><path d="M0,3 C0,-3 -9,-6 -9,-13 C-9,-19 -2,-20 0,-14 C2,-20 9,-19 9,-13 C9,-6 0,-3 0,3 Z" fill="#d23b34" mask="url(#hm2)"></path></g></g></g></svg><path d="M41.62 327.54L39.70 327.54L39.70 318.08L36.35 318.08L36.35 316.34L44.96 316.34L44.96 318.08L41.62 318.08L41.62 327.54Z M62.68 327.54L55.46 327.54L55.46 316.34L62.60 316.34L62.60 318.08L57.40 318.08L57.40 321.02L62.15 321.02L62.15 322.77L57.40 322.77L57.40 325.79L62.68 325.79L62.68 327.54Z M77.25 327.76L77.25 327.76Q76.06 327.76 75.13 327.24Q74.19 326.72 73.64 325.72Q73.09 324.72 73.09 323.26L73.09 323.26L73.09 320.61Q73.09 318.43 74.30 317.27Q75.52 316.11 77.57 316.11L77.57 316.11Q79.62 316.11 80.72 317.21Q81.82 318.30 81.82 320.16L81.82 320.16L81.82 320.22L79.94 320.22L79.94 320.10Q79.94 319.46 79.68 318.94Q79.42 318.43 78.90 318.14Q78.37 317.84 77.57 317.84L77.57 317.84Q76.38 317.84 75.70 318.57Q75.02 319.30 75.02 320.58L75.02 320.58L75.02 323.30Q75.02 324.56 75.70 325.31Q76.38 326.06 77.60 326.06L77.60 326.06Q78.82 326.06 79.38 325.41Q79.94 324.75 79.94 323.73L79.94 323.73L79.94 323.54L77.10 323.54L77.10 321.90L81.82 321.90L81.82 327.54L80.06 327.54L80.06 326.43L79.79 326.43Q79.66 326.72 79.39 327.03Q79.12 327.34 78.62 327.55Q78.11 327.76 77.25 327.76Z M100.15 327.54L92.94 327.54L92.94 316.34L100.07 316.34L100.07 318.08L94.87 318.08L94.87 321.02L99.62 321.02L99.62 322.77L94.87 322.77L94.87 325.79L100.15 325.79L100.15 327.54Z M112.77 327.54L110.83 327.54L110.83 316.34L115.62 316.34Q116.67 316.34 117.46 316.70Q118.24 317.07 118.68 317.74Q119.12 318.40 119.12 319.33L119.12 319.33L119.12 319.50Q119.12 320.54 118.62 321.17Q118.13 321.79 117.42 322.08L117.42 322.08L117.42 322.34Q118.05 322.37 118.41 322.77Q118.77 323.17 118.77 323.84L118.77 323.84L118.77 327.54L116.85 327.54L116.85 324.11Q116.85 323.71 116.63 323.46Q116.42 323.22 115.94 323.22L115.94 323.22L112.77 323.22L112.77 327.54ZM112.77 318.08L112.77 321.47L115.42 321.47Q116.26 321.47 116.73 321.03Q117.20 320.59 117.20 319.86L117.20 319.86L117.20 319.71Q117.20 318.96 116.74 318.52Q116.27 318.08 115.42 318.08L115.42 318.08L112.77 318.08Z M131.85 327.54L129.94 327.54L129.94 316.34L133.62 316.34L136.26 326.24L136.52 326.24L136.52 316.34L138.42 316.34L138.42 327.54L134.76 327.54L132.12 317.63L131.85 317.63L131.85 327.54Z M153.49 327.76L153.49 327.76Q152.21 327.76 151.22 327.30Q150.24 326.85 149.68 325.98Q149.12 325.12 149.12 323.87L149.12 323.87L149.12 323.46L151.02 323.46L151.02 323.87Q151.02 324.98 151.70 325.52Q152.37 326.06 153.49 326.06L153.49 326.06Q154.62 326.06 155.20 325.60Q155.78 325.14 155.78 324.40L155.78 324.40Q155.78 323.90 155.50 323.59Q155.23 323.28 154.71 323.09Q154.19 322.90 153.46 322.72L153.46 322.72L152.98 322.62Q151.87 322.37 151.06 321.98Q150.26 321.58 149.82 320.96Q149.39 320.34 149.39 319.33L149.39 319.33Q149.39 318.32 149.87 317.60Q150.35 316.88 151.23 316.50Q152.11 316.11 153.30 316.11L153.30 316.11Q154.48 316.11 155.41 316.51Q156.34 316.91 156.87 317.71Q157.41 318.51 157.41 319.71L157.41 319.71L157.41 320.24L155.50 320.24L155.50 319.71Q155.50 319.02 155.23 318.61Q154.96 318.19 154.46 318Q153.97 317.81 153.30 317.81L153.30 317.81Q152.30 317.81 151.79 318.19Q151.28 318.58 151.28 319.28L151.28 319.28Q151.28 319.73 151.51 320.04Q151.74 320.35 152.20 320.55Q152.66 320.75 153.34 320.90L153.34 320.90L153.82 321.01Q154.98 321.26 155.84 321.66Q156.70 322.05 157.19 322.69Q157.68 323.33 157.68 324.35L157.68 324.35Q157.68 325.36 157.16 326.13Q156.64 326.90 155.70 327.33Q154.77 327.76 153.49 327.76Z M175.58 327.54L168.36 327.54L168.36 316.34L175.50 316.34L175.50 318.08L170.30 318.08L170.30 321.02L175.05 321.02L175.05 322.77L170.30 322.77L170.30 325.79L175.58 325.79L175.58 327.54Z M193.47 327.54L186.26 327.54L186.26 316.34L193.39 316.34L193.39 318.08L188.19 318.08L188.19 321.02L192.94 321.02L192.94 322.77L188.19 322.77L188.19 325.79L193.47 325.79L193.47 327.54Z" fill="#d8b66a"></path><circle cx="31.6" cy="161.7" r="10" fill="#fff"></circle><circle cx="31.6" cy="161.7" r="10" fill="none" stroke="#d8b66a" stroke-width="2.4"></circle><circle cx="31.6" cy="161.7" r="4" fill="#d8b66a"></circle></svg>