<svg xmlns="http://www.w3.org/2000/svg" width="1380" height="2040" viewBox="0 0 230 340"><path d="M59.65,63.48 L59.36,62.45 L58.93,61.53 L58.37,60.72 L57.66,60.01 L56.81,59.41 L56.11,58.79 L55.53,58.15 L55.09,57.50 L54.79,56.82 L54.33,56.33 L53.71,56.04 L52.94,55.95 L52.00,56.04 L50.97,55.92 L49.86,55.57 L48.66,55.00 L47.37,54.21 L45.90,53.78 L44.25,53.72 L42.41,54.03 L40.39,54.71 L38.72,55.14 L37.40,55.31 L36.42,55.23 L35.80,54.90 L35.36,54.38 L35.12,53.65 L35.06,52.73 L35.19,51.60 L35.45,50.50 L35.85,49.42 L36.38,48.35 L37.04,47.31 L37.52,46.24 L37.80,45.14 L37.90,44.03 L37.81,42.89 L37.59,41.80 L37.23,40.78 L36.74,39.81 L36.11,38.90 L35.32,38.14 L34.36,37.53 L33.24,37.07 L31.95,36.76 L30.51,35.91 L28.92,34.53 L27.17,32.61 L25.26,30.15 L23.95,28.16 L23.22,26.63 L23.07,25.56 L23.52,24.96 L23.94,24.03 L24.36,22.77 L24.77,21.19 L25.16,19.27 L25.44,17.32 L25.60,15.33 L25.65,13.32 L25.58,11.27 L25.00,9.00 L23.92,6.51 L22.32,3.80 L20.21,0.88 L18.57,-1.56 L17.40,-3.53 L16.70,-5.01 L16.46,-6.02 L15.88,-7.17 L14.95,-8.46 L13.67,-9.89 L12.04,-11.45 L10.74,-13.09 L9.77,-14.79 L9.12,-16.56 L8.81,-18.40 L8.36,-19.92 L7.78,-21.11 L7.05,-21.97 L6.20,-22.52 L5.41,-23.51 L4.69,-24.95 L4.05,-26.85 L3.47,-29.19 L2.87,-31.11 L2.22,-32.60 L1.54,-33.66 L0.82,-34.30 L0.16,-35.04 L-0.46,-35.87 L-1.03,-36.80 L-1.55,-37.83 L-1.88,-38.62 L-2.02,-39.20 L-1.96,-39.54 L-1.72,-39.66 L-1.68,-39.81 L-1.84,-40.02 L-2.21,-40.27 L-2.78,-40.56 L-3.38,-41.12 L-4.00,-41.96 L-4.65,-43.08 L-5.33,-44.48 L-5.87,-45.81 L-6.26,-47.08 L-6.51,-48.28 L-6.61,-49.43 L-6.49,-50.69 L-6.13,-52.07 L-5.55,-53.58 L-4.74,-55.21 L-4.22,-56.87 L-3.99,-58.56 L-4.04,-60.29 L-4.38,-62.05 L-4.56,-63.51 L-4.57,-64.65 L-4.42,-65.48 L-4.11,-66.00 L-3.94,-66.78 L-3.91,-67.79 L-4.03,-69.06 L-4.29,-70.57 L-4.61,-71.83 L-4.98,-72.86 L-5.41,-73.65 L-5.89,-74.19 L-6.37,-74.37 L-6.86,-74.20 L-7.35,-73.66 L-7.84,-72.77 L-8.84,-71.99 L-10.35,-71.32 L-12.36,-70.77 L-14.87,-70.32 L-16.98,-69.62 L-18.70,-68.68 L-20.01,-67.48 L-20.92,-66.02 L-22.00,-64.82 L-23.24,-63.87 L-24.64,-63.18 L-26.20,-62.73 L-27.70,-62.10 L-29.14,-61.29 L-30.52,-60.29 L-31.83,-59.11 L-33.01,-57.77 L-34.05,-56.27 L-34.96,-54.60 L-35.73,-52.78 L-36.20,-50.86 L-36.38,-48.82 L-36.27,-46.68 L-35.87,-44.44 L-35.66,-42.50 L-35.66,-40.86 L-35.85,-39.53 L-36.24,-38.50 L-36.41,-37.53 L-36.37,-36.61 L-36.10,-35.74 L-35.62,-34.93 L-35.37,-34.08 L-35.36,-33.20 L-35.58,-32.28 L-36.04,-31.33 L-36.04,-29.70 L-35.60,-27.37 L-34.71,-24.36 L-33.37,-20.67 L-32.53,-17.69 L-32.20,-15.43 L-32.37,-13.90 L-33.05,-13.08 L-33.56,-12.31 L-33.92,-11.59 L-34.12,-10.91 L-34.16,-10.27 L-33.40,-9.59 L-31.85,-8.86 L-29.49,-8.09 L-26.34,-7.28 L-23.89,-6.54 L-22.14,-5.87 L-21.10,-5.27 L-20.76,-4.75 L-20.52,-4.18 L-20.38,-3.56 L-20.33,-2.89 L-20.39,-2.18 L-20.58,-1.37 L-20.91,-0.48 L-21.38,0.50 L-22.00,1.56 L-22.38,2.47 L-22.55,3.23 L-22.48,3.83 L-22.20,4.27 L-21.76,4.65 L-21.17,4.96 L-20.42,5.20 L-19.52,5.37 L-18.80,5.87 L-18.27,6.69 L-17.92,7.84 L-17.75,9.31 L-17.91,10.65 L-18.39,11.86 L-19.20,12.94 L-20.33,13.89 L-21.20,14.77 L-21.80,15.56 L-22.14,16.27 L-22.22,16.91 L-21.87,17.67 L-21.09,18.54 L-19.88,19.52 L-18.24,20.63 L-17.02,21.56 L-16.23,22.31 L-15.87,22.89 L-15.94,23.30 L-15.86,23.75 L-15.63,24.26 L-15.25,24.81 L-14.73,25.41 L-14.01,26.04 L-13.10,26.71 L-11.98,27.41 L-10.66,28.15 L-9.42,29.02 L-8.26,30.04 L-7.17,31.20 L-6.15,32.49 L-5.19,33.47 L-4.27,34.13 L-3.40,34.47 L-2.58,34.49 L-1.80,34.68 L-1.07,35.03 L-0.39,35.56 L0.25,36.26 L0.88,36.82 L1.50,37.23 L2.10,37.51 L2.71,37.64 L3.01,38.41 L3.01,39.83 L2.71,41.88 L2.10,44.57 L1.52,46.81 L0.94,48.61 L0.37,49.97 L-0.19,50.88 L-0.61,52.16 L-0.89,53.82 L-1.03,55.84 L-1.03,58.24 L-1.34,60.02 L-1.95,61.18 L-2.87,61.73 L-4.09,61.65 L-5.25,61.72 L-6.34,61.96 L-7.36,62.34 L-8.31,62.89 L-8.97,63.58 L-9.34,64.44 L-9.42,65.44 L-9.22,66.60 L-8.84,67.77 L-8.31,68.94 L-7.61,70.12 L-6.75,71.30 L-5.83,72.30 L-4.86,73.13 L-3.82,73.79 L-2.73,74.28 L-1.82,74.37 L-1.09,74.07 L-0.56,73.37 L-0.21,72.29 L-0.11,71.25 L-0.28,70.24 L-0.70,69.27 L-1.37,68.34 L-1.85,67.57 L-2.14,66.96 L-2.23,66.51 L-2.13,66.22 L-1.88,65.93 L-1.49,65.63 L-0.96,65.33 L-0.28,65.02 L0.51,64.90 L1.42,64.96 L2.44,65.22 L3.57,65.67 L5.18,65.85 L7.26,65.77 L9.80,65.43 L12.83,64.83 L15.22,64.30 L16.99,63.83 L18.14,63.44 L18.66,63.11 L19.10,62.71 L19.47,62.23 L19.76,61.69 L19.96,61.07 L20.32,60.64 L20.81,60.40 L21.45,60.34 L22.23,60.48 L23.04,60.42 L23.88,60.16 L24.75,59.70 L25.65,59.04 L26.43,58.69 L27.09,58.65 L27.64,58.92 L28.07,59.50 L28.86,59.93 L30.00,60.21 L31.49,60.34 L33.34,60.32 L34.86,60.72 L36.06,61.52 L36.93,62.73 L37.48,64.36 L38.28,65.48 L39.33,66.08 L40.63,66.19 L42.18,65.78 L43.89,65.63 L45.76,65.75 L47.80,66.13 L50.00,66.77 L51.71,67.32 L52.92,67.80 L53.64,68.19 L53.86,68.50 L54.17,68.56 L54.57,68.38 L55.07,67.95 L55.65,67.27 L56.11,66.82 L56.43,66.61 L56.61,66.63 L56.67,66.88 L56.85,67.06 L57.15,67.15 L57.58,67.17 L58.14,67.11 L58.63,66.95 L59.05,66.66 L59.39,66.27 L59.67,65.77 L59.87,65.39 L60.01,65.14 L60.08,65.02 L60.08,65.02 L60.01,64.76 L59.86,64.25 Z" fill="#aac072" fill-opacity="0.11" fill-rule="evenodd" transform="translate(115 178) scale(2.01694) translate(-11.84 0.00)"></path><path d="M59.65,63.48 L59.36,62.45 L58.93,61.53 L58.37,60.72 L57.66,60.01 L56.81,59.41 L56.11,58.79 L55.53,58.15 L55.09,57.50 L54.79,56.82 L54.33,56.33 L53.71,56.04 L52.94,55.95 L52.00,56.04 L50.97,55.92 L49.86,55.57 L48.66,55.00 L47.37,54.21 L45.90,53.78 L44.25,53.72 L42.41,54.03 L40.39,54.71 L38.72,55.14 L37.40,55.31 L36.42,55.23 L35.80,54.90 L35.36,54.38 L35.12,53.65 L35.06,52.73 L35.19,51.60 L35.45,50.50 L35.85,49.42 L36.38,48.35 L37.04,47.31 L37.52,46.24 L37.80,45.14 L37.90,44.03 L37.81,42.89 L37.59,41.80 L37.23,40.78 L36.74,39.81 L36.11,38.90 L35.32,38.14 L34.36,37.53 L33.24,37.07 L31.95,36.76 L30.51,35.91 L28.92,34.53 L27.17,32.61 L25.26,30.15 L23.95,28.16 L23.22,26.63 L23.07,25.56 L23.52,24.96 L23.94,24.03 L24.36,22.77 L24.77,21.19 L25.16,19.27 L25.44,17.32 L25.60,15.33 L25.65,13.32 L25.58,11.27 L25.00,9.00 L23.92,6.51 L22.32,3.80 L20.21,0.88 L18.57,-1.56 L17.40,-3.53 L16.70,-5.01 L16.46,-6.02 L15.88,-7.17 L14.95,-8.46 L13.67,-9.89 L12.04,-11.45 L10.74,-13.09 L9.77,-14.79 L9.12,-16.56 L8.81,-18.40 L8.36,-19.92 L7.78,-21.11 L7.05,-21.97 L6.20,-22.52 L5.41,-23.51 L4.69,-24.95 L4.05,-26.85 L3.47,-29.19 L2.87,-31.11 L2.22,-32.60 L1.54,-33.66 L0.82,-34.30 L0.16,-35.04 L-0.46,-35.87 L-1.03,-36.80 L-1.55,-37.83 L-1.88,-38.62 L-2.02,-39.20 L-1.96,-39.54 L-1.72,-39.66 L-1.68,-39.81 L-1.84,-40.02 L-2.21,-40.27 L-2.78,-40.56 L-3.38,-41.12 L-4.00,-41.96 L-4.65,-43.08 L-5.33,-44.48 L-5.87,-45.81 L-6.26,-47.08 L-6.51,-48.28 L-6.61,-49.43 L-6.49,-50.69 L-6.13,-52.07 L-5.55,-53.58 L-4.74,-55.21 L-4.22,-56.87 L-3.99,-58.56 L-4.04,-60.29 L-4.38,-62.05 L-4.56,-63.51 L-4.57,-64.65 L-4.42,-65.48 L-4.11,-66.00 L-3.94,-66.78 L-3.91,-67.79 L-4.03,-69.06 L-4.29,-70.57 L-4.61,-71.83 L-4.98,-72.86 L-5.41,-73.65 L-5.89,-74.19 L-6.37,-74.37 L-6.86,-74.20 L-7.35,-73.66 L-7.84,-72.77 L-8.84,-71.99 L-10.35,-71.32 L-12.36,-70.77 L-14.87,-70.32 L-16.98,-69.62 L-18.70,-68.68 L-20.01,-67.48 L-20.92,-66.02 L-22.00,-64.82 L-23.24,-63.87 L-24.64,-63.18 L-26.20,-62.73 L-27.70,-62.10 L-29.14,-61.29 L-30.52,-60.29 L-31.83,-59.11 L-33.01,-57.77 L-34.05,-56.27 L-34.96,-54.60 L-35.73,-52.78 L-36.20,-50.86 L-36.38,-48.82 L-36.27,-46.68 L-35.87,-44.44 L-35.66,-42.50 L-35.66,-40.86 L-35.85,-39.53 L-36.24,-38.50 L-36.41,-37.53 L-36.37,-36.61 L-36.10,-35.74 L-35.62,-34.93 L-35.37,-34.08 L-35.36,-33.20 L-35.58,-32.28 L-36.04,-31.33 L-36.04,-29.70 L-35.60,-27.37 L-34.71,-24.36 L-33.37,-20.67 L-32.53,-17.69 L-32.20,-15.43 L-32.37,-13.90 L-33.05,-13.08 L-33.56,-12.31 L-33.92,-11.59 L-34.12,-10.91 L-34.16,-10.27 L-33.40,-9.59 L-31.85,-8.86 L-29.49,-8.09 L-26.34,-7.28 L-23.89,-6.54 L-22.14,-5.87 L-21.10,-5.27 L-20.76,-4.75 L-20.52,-4.18 L-20.38,-3.56 L-20.33,-2.89 L-20.39,-2.18 L-20.58,-1.37 L-20.91,-0.48 L-21.38,0.50 L-22.00,1.56 L-22.38,2.47 L-22.55,3.23 L-22.48,3.83 L-22.20,4.27 L-21.76,4.65 L-21.17,4.96 L-20.42,5.20 L-19.52,5.37 L-18.80,5.87 L-18.27,6.69 L-17.92,7.84 L-17.75,9.31 L-17.91,10.65 L-18.39,11.86 L-19.20,12.94 L-20.33,13.89 L-21.20,14.77 L-21.80,15.56 L-22.14,16.27 L-22.22,16.91 L-21.87,17.67 L-21.09,18.54 L-19.88,19.52 L-18.24,20.63 L-17.02,21.56 L-16.23,22.31 L-15.87,22.89 L-15.94,23.30 L-15.86,23.75 L-15.63,24.26 L-15.25,24.81 L-14.73,25.41 L-14.01,26.04 L-13.10,26.71 L-11.98,27.41 L-10.66,28.15 L-9.42,29.02 L-8.26,30.04 L-7.17,31.20 L-6.15,32.49 L-5.19,33.47 L-4.27,34.13 L-3.40,34.47 L-2.58,34.49 L-1.80,34.68 L-1.07,35.03 L-0.39,35.56 L0.25,36.26 L0.88,36.82 L1.50,37.23 L2.10,37.51 L2.71,37.64 L3.01,38.41 L3.01,39.83 L2.71,41.88 L2.10,44.57 L1.52,46.81 L0.94,48.61 L0.37,49.97 L-0.19,50.88 L-0.61,52.16 L-0.89,53.82 L-1.03,55.84 L-1.03,58.24 L-1.34,60.02 L-1.95,61.18 L-2.87,61.73 L-4.09,61.65 L-5.25,61.72 L-6.34,61.96 L-7.36,62.34 L-8.31,62.89 L-8.97,63.58 L-9.34,64.44 L-9.42,65.44 L-9.22,66.60 L-8.84,67.77 L-8.31,68.94 L-7.61,70.12 L-6.75,71.30 L-5.83,72.30 L-4.86,73.13 L-3.82,73.79 L-2.73,74.28 L-1.82,74.37 L-1.09,74.07 L-0.56,73.37 L-0.21,72.29 L-0.11,71.25 L-0.28,70.24 L-0.70,69.27 L-1.37,68.34 L-1.85,67.57 L-2.14,66.96 L-2.23,66.51 L-2.13,66.22 L-1.88,65.93 L-1.49,65.63 L-0.96,65.33 L-0.28,65.02 L0.51,64.90 L1.42,64.96 L2.44,65.22 L3.57,65.67 L5.18,65.85 L7.26,65.77 L9.80,65.43 L12.83,64.83 L15.22,64.30 L16.99,63.83 L18.14,63.44 L18.66,63.11 L19.10,62.71 L19.47,62.23 L19.76,61.69 L19.96,61.07 L20.32,60.64 L20.81,60.40 L21.45,60.34 L22.23,60.48 L23.04,60.42 L23.88,60.16 L24.75,59.70 L25.65,59.04 L26.43,58.69 L27.09,58.65 L27.64,58.92 L28.07,59.50 L28.86,59.93 L30.00,60.21 L31.49,60.34 L33.34,60.32 L34.86,60.72 L36.06,61.52 L36.93,62.73 L37.48,64.36 L38.28,65.48 L39.33,66.08 L40.63,66.19 L42.18,65.78 L43.89,65.63 L45.76,65.75 L47.80,66.13 L50.00,66.77 L51.71,67.32 L52.92,67.80 L53.64,68.19 L53.86,68.50 L54.17,68.56 L54.57,68.38 L55.07,67.95 L55.65,67.27 L56.11,66.82 L56.43,66.61 L56.61,66.63 L56.67,66.88 L56.85,67.06 L57.15,67.15 L57.58,67.17 L58.14,67.11 L58.63,66.95 L59.05,66.66 L59.39,66.27 L59.67,65.77 L59.87,65.39 L60.01,65.14 L60.08,65.02 L60.08,65.02 L60.01,64.76 L59.86,64.25 Z" fill="none" stroke="#aac072" stroke-opacity="0.5" stroke-width="0.89" stroke-linejoin="round" stroke-linecap="round" transform="translate(115 178) scale(2.01694) translate(-11.84 0.00)"></path><path d="M25.46 62.18L25.46 62.18Q22.72 62.18 20.62 61.20Q18.52 60.22 17.34 58.39Q16.15 56.57 16.15 53.99L16.15 53.99L16.15 53.05L20.55 53.05L20.55 53.99Q20.55 56.13 21.87 57.19Q23.19 58.26 25.46 58.26L25.46 58.26Q27.76 58.26 28.89 57.34Q30.03 56.43 30.03 55.01L30.03 55.01Q30.03 54.03 29.47 53.42Q28.91 52.81 27.84 52.42Q26.78 52.03 25.25 51.69L25.25 51.69L24.48 51.52Q22.04 50.98 20.30 50.15Q18.55 49.32 17.62 47.97Q16.69 46.62 16.69 44.45L16.69 44.45Q16.69 42.28 17.72 40.74Q18.76 39.20 20.63 38.38Q22.51 37.55 25.05 37.55L25.05 37.55Q27.59 37.55 29.57 38.41Q31.55 39.27 32.68 40.98Q33.82 42.69 33.82 45.26L33.82 45.26L33.82 46.28L29.42 46.28L29.42 45.26Q29.42 43.91 28.89 43.08Q28.37 42.25 27.39 41.86Q26.40 41.47 25.05 41.47L25.05 41.47Q23.02 41.47 22.06 42.23Q21.09 42.99 21.09 44.31L21.09 44.31Q21.09 45.19 21.55 45.80Q22.01 46.41 22.92 46.82Q23.83 47.23 25.25 47.53L25.25 47.53L26.03 47.70Q28.57 48.24 30.45 49.09Q32.33 49.93 33.38 51.32Q34.42 52.71 34.42 54.87L34.42 54.87Q34.42 57.04 33.32 58.68Q32.23 60.32 30.21 61.25Q28.20 62.18 25.46 62.18Z M43.09 62.18L43.09 62.18Q41.29 62.18 39.87 61.56Q38.45 60.93 37.62 59.73Q36.79 58.53 36.79 56.80L36.79 56.80Q36.79 55.08 37.62 53.91Q38.45 52.74 39.92 52.15Q41.40 51.56 43.29 51.56L43.29 51.56L47.89 51.56L47.89 50.61Q47.89 49.42 47.15 48.66Q46.40 47.90 44.78 47.90L44.78 47.90Q43.19 47.90 42.41 48.63Q41.63 49.36 41.40 50.51L41.40 50.51L37.47 49.19Q37.88 47.90 38.77 46.84Q39.67 45.77 41.18 45.11Q42.68 44.45 44.85 44.45L44.85 44.45Q48.16 44.45 50.09 46.11Q52.02 47.77 52.02 50.91L52.02 50.91L52.02 57.17Q52.02 58.19 52.97 58.19L52.97 58.19L54.32 58.19L54.32 61.71L51.48 61.71Q50.23 61.71 49.42 61.10Q48.60 60.49 48.60 59.48L48.60 59.48L48.60 59.44L47.96 59.44Q47.83 59.85 47.35 60.51Q46.88 61.17 45.86 61.68Q44.85 62.18 43.09 62.18ZM43.83 58.73L43.83 58.73Q45.63 58.73 46.76 57.73Q47.89 56.73 47.89 55.08L47.89 55.08L47.89 54.74L43.60 54.74Q42.41 54.74 41.73 55.25Q41.06 55.75 41.06 56.67L41.06 56.67Q41.06 57.58 41.77 58.16Q42.48 58.73 43.83 58.73Z M61.70 61.71L57.44 61.71L57.44 44.92L61.63 44.92L61.63 47.12L62.24 47.12Q62.65 46.24 63.76 45.45Q64.88 44.65 67.15 44.65L67.15 44.65Q69.11 44.65 70.58 45.55Q72.06 46.45 72.87 48.02Q73.68 49.59 73.68 51.69L73.68 51.69L73.68 61.71L69.42 61.71L69.42 52.03Q69.42 50.14 68.49 49.19Q67.55 48.24 65.83 48.24L65.83 48.24Q63.87 48.24 62.78 49.54Q61.70 50.85 61.70 53.18L61.70 53.18L61.70 61.71Z M82.55 61.71L78.28 61.71L78.28 38.02L82.55 38.02L82.55 51.12L83.16 51.12L88.71 44.92L94.26 44.92L86.51 53.05L94.53 61.71L89.04 61.71L83.16 55.04L82.55 55.04L82.55 61.71Z M108.54 61.71L103.80 61.71Q102.14 61.71 101.11 60.68Q100.08 59.64 100.08 57.92L100.08 57.92L100.08 48.44L95.88 48.44L95.88 44.92L100.08 44.92L100.08 39.71L104.34 39.71L104.34 44.92L108.94 44.92L108.94 48.44L104.34 48.44L104.34 57.17Q104.34 58.19 105.29 58.19L105.29 58.19L108.54 58.19L108.54 61.71Z  M130.47 62.18L130.47 62.18Q126.00 62.18 123.36 59.73Q120.72 57.28 120.72 52.71L120.72 52.71L120.72 47.02Q120.72 42.45 123.36 40Q126.00 37.55 130.47 37.55L130.47 37.55Q134.93 37.55 137.57 40Q140.21 42.45 140.21 47.02L140.21 47.02L140.21 52.71Q140.21 57.28 137.57 59.73Q134.93 62.18 130.47 62.18ZM130.47 58.19L130.47 58.19Q132.97 58.19 134.36 56.73Q135.74 55.28 135.74 52.84L135.74 52.84L135.74 46.89Q135.74 44.45 134.36 42.99Q132.97 41.54 130.47 41.54L130.47 41.54Q127.99 41.54 126.59 42.99Q125.19 44.45 125.19 46.89L125.19 46.89L125.19 52.84Q125.19 55.28 126.59 56.73Q127.99 58.19 130.47 58.19ZM135.58 67.80L132.02 67.80Q130.36 67.80 129.33 66.77Q128.30 65.74 128.30 64.01L128.30 64.01L128.30 61.71L132.63 61.71L132.63 63.33Q132.63 64.35 133.58 64.35L133.58 64.35L135.58 64.35L135.58 67.80Z M150.67 61.98L150.67 61.98Q148.71 61.98 147.23 61.08Q145.76 60.19 144.95 58.60Q144.14 57.01 144.14 54.94L144.14 54.94L144.14 44.92L148.40 44.92L148.40 54.60Q148.40 56.50 149.33 57.45Q150.26 58.39 151.99 58.39L151.99 58.39Q153.95 58.39 155.03 57.09Q156.12 55.79 156.12 53.45L156.12 53.45L156.12 44.92L160.38 44.92L160.38 61.71L156.18 61.71L156.18 59.51L155.58 59.51Q155.17 60.36 154.05 61.17Q152.94 61.98 150.67 61.98Z M169.38 61.71L165.12 61.71L165.12 44.92L169.38 44.92L169.38 61.71ZM167.25 42.96L167.25 42.96Q166.10 42.96 165.30 42.22Q164.51 41.47 164.51 40.25L164.51 40.25Q164.51 39.04 165.30 38.29Q166.10 37.55 167.25 37.55L167.25 37.55Q168.43 37.55 169.21 38.29Q169.99 39.04 169.99 40.25L169.99 40.25Q169.99 41.47 169.21 42.22Q168.43 42.96 167.25 42.96Z M178.38 61.71L174.12 61.71L174.12 44.92L178.32 44.92L178.32 46.82L178.93 46.82Q179.30 45.80 180.16 45.33Q181.02 44.86 182.17 44.86L182.17 44.86L184.20 44.86L184.20 48.65L182.11 48.65Q180.48 48.65 179.43 49.51Q178.38 50.37 178.38 52.17L178.38 52.17L178.38 61.71Z M191.79 61.71L187.52 61.71L187.52 44.92L191.79 44.92L191.79 61.71ZM189.65 42.96L189.65 42.96Q188.50 42.96 187.71 42.22Q186.91 41.47 186.91 40.25L186.91 40.25Q186.91 39.04 187.71 38.29Q188.50 37.55 189.65 37.55L189.65 37.55Q190.84 37.55 191.62 38.29Q192.39 39.04 192.39 40.25L192.39 40.25Q192.39 41.47 191.62 42.22Q190.84 42.96 189.65 42.96Z M200.79 61.71L196.52 61.71L196.52 44.92L200.72 44.92L200.72 47.12L201.33 47.12Q201.73 46.24 202.85 45.45Q203.97 44.65 206.24 44.65L206.24 44.65Q208.20 44.65 209.67 45.55Q211.14 46.45 211.95 48.02Q212.77 49.59 212.77 51.69L212.77 51.69L212.77 61.71L208.50 61.71L208.50 52.03Q208.50 50.14 207.57 49.19Q206.64 48.24 204.92 48.24L204.92 48.24Q202.95 48.24 201.87 49.54Q200.79 50.85 200.79 53.18L200.79 53.18L200.79 61.71Z" fill="#f1ece2"></path><path d="M54.95 84.50L54.95 84.50Q54.04 84.50 53.26 84.05Q52.48 83.60 52.00 82.76Q51.53 81.91 51.53 80.71L51.53 80.71L51.53 80.48Q51.53 79.30 52.00 78.44Q52.46 77.59 53.24 77.14Q54.02 76.69 54.95 76.69L54.95 76.69Q55.67 76.69 56.16 76.87Q56.65 77.05 56.96 77.33Q57.28 77.60 57.44 77.90L57.44 77.90L57.68 77.90L57.68 73.79L59.23 73.79L59.23 84.29L57.71 84.29L57.71 83.24L57.47 83.24Q57.19 83.72 56.61 84.11Q56.03 84.50 54.95 84.50ZM55.39 83.15L55.39 83.15Q56.39 83.15 57.04 82.51Q57.70 81.86 57.70 80.66L57.70 80.66L57.70 80.53Q57.70 79.34 57.05 78.70Q56.41 78.05 55.39 78.05L55.39 78.05Q54.40 78.05 53.74 78.70Q53.09 79.34 53.09 80.53L53.09 80.53L53.09 80.66Q53.09 81.86 53.74 82.51Q54.40 83.15 55.39 83.15Z M64.80 84.50L64.80 84.50Q64.01 84.50 63.38 84.23Q62.76 83.96 62.39 83.44Q62.03 82.91 62.03 82.16L62.03 82.16Q62.03 81.40 62.39 80.90Q62.76 80.39 63.40 80.14Q64.04 79.88 64.85 79.88L64.85 79.88L67.10 79.88L67.10 79.40Q67.10 78.76 66.71 78.37Q66.32 77.98 65.51 77.98L65.51 77.98Q64.71 77.98 64.29 78.35Q63.87 78.73 63.74 79.33L63.74 79.33L62.30 78.86Q62.48 78.26 62.88 77.78Q63.27 77.29 63.93 76.99Q64.59 76.69 65.52 76.69L65.52 76.69Q66.96 76.69 67.79 77.42Q68.61 78.16 68.61 79.51L68.61 79.51L68.61 82.55Q68.61 83.00 69.03 83.00L69.03 83.00L69.66 83.00L69.66 84.29L68.51 84.29Q67.98 84.29 67.65 84.02Q67.32 83.75 67.32 83.29L67.32 83.29L67.32 83.24L67.10 83.24Q66.98 83.47 66.74 83.77Q66.50 84.07 66.03 84.29Q65.57 84.50 64.80 84.50ZM65.03 83.23L65.03 83.23Q65.96 83.23 66.53 82.70Q67.10 82.16 67.10 81.23L67.10 81.23L67.10 81.08L64.94 81.08Q64.32 81.08 63.95 81.35Q63.57 81.61 63.57 82.12L63.57 82.12Q63.57 82.63 63.96 82.93Q64.35 83.23 65.03 83.23Z  M81.26 84.50L81.26 84.50Q80.18 84.50 79.60 84.11Q79.03 83.72 78.74 83.24L78.74 83.24L78.50 83.24L78.50 84.29L76.99 84.29L76.99 73.79L78.53 73.79L78.53 77.90L78.77 77.90Q78.95 77.60 79.25 77.33Q79.55 77.05 80.05 76.87Q80.54 76.69 81.26 76.69L81.26 76.69Q82.19 76.69 82.97 77.14Q83.75 77.59 84.22 78.44Q84.68 79.30 84.68 80.48L84.68 80.48L84.68 80.71Q84.68 81.91 84.21 82.76Q83.74 83.60 82.97 84.05Q82.19 84.50 81.26 84.50ZM80.81 83.15L80.81 83.15Q81.82 83.15 82.47 82.51Q83.12 81.86 83.12 80.66L83.12 80.66L83.12 80.53Q83.12 79.34 82.48 78.70Q81.83 78.05 80.81 78.05L80.81 78.05Q79.82 78.05 79.17 78.70Q78.52 79.34 78.52 80.53L78.52 80.53L78.52 80.66Q78.52 81.86 79.17 82.51Q79.82 83.15 80.81 83.15Z M89.15 84.29L87.60 84.29L87.60 76.90L89.15 76.90L89.15 84.29ZM88.38 75.89L88.38 75.89Q87.93 75.89 87.62 75.60Q87.32 75.31 87.32 74.84L87.32 74.84Q87.32 74.38 87.62 74.09Q87.93 73.79 88.38 73.79L88.38 73.79Q88.85 73.79 89.15 74.09Q89.45 74.38 89.45 74.84L89.45 74.84Q89.45 75.31 89.15 75.60Q88.85 75.89 88.38 75.89Z M93.99 84.29L92.44 84.29L92.44 76.90L93.96 76.90L93.96 78.01L94.20 78.01Q94.41 77.56 94.95 77.17Q95.49 76.78 96.55 76.78L96.55 76.78Q97.39 76.78 98.04 77.15Q98.70 77.53 99.07 78.21Q99.45 78.89 99.45 79.85L99.45 79.85L99.45 84.29L97.90 84.29L97.90 79.97Q97.90 79.01 97.42 78.56Q96.94 78.10 96.10 78.10L96.10 78.10Q95.14 78.10 94.56 78.73Q93.99 79.36 93.99 80.56L93.99 80.56L93.99 84.29Z  M109.04 84.29L107.49 84.29L107.49 76.90L109.04 76.90L109.04 84.29ZM108.27 75.89L108.27 75.89Q107.82 75.89 107.51 75.60Q107.21 75.31 107.21 74.84L107.21 74.84Q107.21 74.38 107.51 74.09Q107.82 73.79 108.27 73.79L108.27 73.79Q108.74 73.79 109.04 74.09Q109.34 74.38 109.34 74.84L109.34 74.84Q109.34 75.31 109.04 75.60Q108.74 75.89 108.27 75.89Z  M120.22 84.50L120.22 84.50Q119.30 84.50 118.52 84.05Q117.74 83.60 117.27 82.76Q116.80 81.91 116.80 80.71L116.80 80.71L116.80 80.48Q116.80 79.30 117.26 78.44Q117.73 77.59 118.51 77.14Q119.29 76.69 120.22 76.69L120.22 76.69Q120.94 76.69 121.42 76.87Q121.91 77.05 122.23 77.33Q122.54 77.60 122.71 77.90L122.71 77.90L122.95 77.90L122.95 73.79L124.49 73.79L124.49 84.29L122.98 84.29L122.98 83.24L122.74 83.24Q122.45 83.72 121.88 84.11Q121.30 84.50 120.22 84.50ZM120.65 83.15L120.65 83.15Q121.66 83.15 122.31 82.51Q122.96 81.86 122.96 80.66L122.96 80.66L122.96 80.53Q122.96 79.34 122.32 78.70Q121.67 78.05 120.65 78.05L120.65 78.05Q119.66 78.05 119.01 78.70Q118.36 79.34 118.36 80.53L118.36 80.53L118.36 80.66Q118.36 81.86 119.01 82.51Q119.66 83.15 120.65 83.15Z M130.07 84.50L130.07 84.50Q129.27 84.50 128.65 84.23Q128.03 83.96 127.66 83.44Q127.29 82.91 127.29 82.16L127.29 82.16Q127.29 81.40 127.66 80.90Q128.03 80.39 128.66 80.14Q129.30 79.88 130.11 79.88L130.11 79.88L132.36 79.88L132.36 79.40Q132.36 78.76 131.97 78.37Q131.58 77.98 130.77 77.98L130.77 77.98Q129.98 77.98 129.56 78.35Q129.14 78.73 129.00 79.33L129.00 79.33L127.56 78.86Q127.74 78.26 128.14 77.78Q128.54 77.29 129.20 76.99Q129.86 76.69 130.79 76.69L130.79 76.69Q132.23 76.69 133.05 77.42Q133.88 78.16 133.88 79.51L133.88 79.51L133.88 82.55Q133.88 83.00 134.30 83.00L134.30 83.00L134.93 83.00L134.93 84.29L133.77 84.29Q133.25 84.29 132.92 84.02Q132.59 83.75 132.59 83.29L132.59 83.29L132.59 83.24L132.36 83.24Q132.24 83.47 132.00 83.77Q131.76 84.07 131.30 84.29Q130.83 84.50 130.07 84.50ZM130.29 83.23L130.29 83.23Q131.22 83.23 131.79 82.70Q132.36 82.16 132.36 81.23L132.36 81.23L132.36 81.08L130.20 81.08Q129.59 81.08 129.21 81.35Q128.84 81.61 128.84 82.12L128.84 82.12Q128.84 82.63 129.23 82.93Q129.62 83.23 130.29 83.23Z M138.97 84.29L137.43 84.29L137.43 73.79L138.97 73.79L138.97 77.95L139.21 77.95Q139.36 77.66 139.64 77.39Q139.92 77.12 140.38 76.95Q140.83 76.78 141.54 76.78L141.54 76.78Q142.38 76.78 143.03 77.15Q143.68 77.53 144.06 78.21Q144.43 78.89 144.43 79.85L144.43 79.85L144.43 84.29L142.89 84.29L142.89 79.97Q142.89 79.01 142.41 78.56Q141.93 78.10 141.09 78.10L141.09 78.10Q140.13 78.10 139.55 78.73Q138.97 79.36 138.97 80.56L138.97 80.56L138.97 84.29Z M151.12 84.50L151.12 84.50Q150.01 84.50 149.14 84.05Q148.28 83.59 147.79 82.73Q147.29 81.88 147.29 80.71L147.29 80.71L147.29 80.48Q147.29 79.31 147.79 78.47Q148.28 77.62 149.14 77.15Q150.01 76.69 151.12 76.69L151.12 76.69Q152.23 76.69 153.10 77.15Q153.97 77.62 154.46 78.47Q154.96 79.31 154.96 80.48L154.96 80.48L154.96 80.71Q154.96 81.88 154.46 82.73Q153.97 83.59 153.10 84.05Q152.23 84.50 151.12 84.50ZM151.12 83.12L151.12 83.12Q152.14 83.12 152.77 82.47Q153.41 81.82 153.41 80.66L153.41 80.66L153.41 80.53Q153.41 79.37 152.78 78.72Q152.15 78.07 151.12 78.07L151.12 78.07Q150.11 78.07 149.47 78.72Q148.84 79.37 148.84 80.53L148.84 80.53L148.84 80.66Q148.84 81.82 149.47 82.47Q150.11 83.12 151.12 83.12Z M160.17 84.50L160.17 84.50Q159.38 84.50 158.75 84.23Q158.13 83.96 157.76 83.44Q157.40 82.91 157.40 82.16L157.40 82.16Q157.40 81.40 157.76 80.90Q158.13 80.39 158.77 80.14Q159.41 79.88 160.22 79.88L160.22 79.88L162.47 79.88L162.47 79.40Q162.47 78.76 162.08 78.37Q161.69 77.98 160.88 77.98L160.88 77.98Q160.08 77.98 159.66 78.35Q159.24 78.73 159.11 79.33L159.11 79.33L157.67 78.86Q157.85 78.26 158.24 77.78Q158.64 77.29 159.30 76.99Q159.96 76.69 160.89 76.69L160.89 76.69Q162.33 76.69 163.16 77.42Q163.98 78.16 163.98 79.51L163.98 79.51L163.98 82.55Q163.98 83.00 164.40 83.00L164.40 83.00L165.03 83.00L165.03 84.29L163.88 84.29Q163.35 84.29 163.02 84.02Q162.69 83.75 162.69 83.29L162.69 83.29L162.69 83.24L162.47 83.24Q162.35 83.47 162.11 83.77Q161.87 84.07 161.40 84.29Q160.94 84.50 160.17 84.50ZM160.40 83.23L160.40 83.23Q161.33 83.23 161.90 82.70Q162.47 82.16 162.47 81.23L162.47 81.23L162.47 81.08L160.31 81.08Q159.69 81.08 159.32 81.35Q158.94 81.61 158.94 82.12L158.94 82.12Q158.94 82.63 159.33 82.93Q159.72 83.23 160.40 83.23Z M169.08 84.29L167.53 84.29L167.53 76.90L169.05 76.90L169.05 77.77L169.29 77.77Q169.50 77.38 169.96 77.08Q170.43 76.78 171.22 76.78L171.22 76.78Q172.05 76.78 172.55 77.12Q173.05 77.45 173.31 77.98L173.31 77.98L173.55 77.98Q173.80 77.47 174.29 77.12Q174.78 76.78 175.68 76.78L175.68 76.78Q176.40 76.78 176.95 77.07Q177.51 77.36 177.84 77.94Q178.17 78.52 178.17 79.37L178.17 79.37L178.17 84.29L176.62 84.29L176.62 79.49Q176.62 78.82 176.25 78.45Q175.89 78.08 175.21 78.08L175.21 78.08Q174.49 78.08 174.06 78.55Q173.62 79.01 173.62 79.88L173.62 79.88L173.62 84.29L172.08 84.29L172.08 79.49Q172.08 78.82 171.71 78.45Q171.34 78.08 170.67 78.08L170.67 78.08Q169.95 78.08 169.51 78.55Q169.08 79.01 169.08 79.88L169.08 79.88L169.08 84.29Z" fill="#f1ece2" fill-opacity="0.7"></path><svg x="-17.50" y="109.32" width="258.46" height="132.82" viewBox="0 0 360 185" overflow="visible"><g fill="#f1ece2"><g transform="translate(64.98,0)"><path d="M22.88 133.59 L22.88 133.59 Q21.33 133.16 20.38 132.82 L20.38 132.82 L19.44 132.56 Q19.61 132.13 19.31 131.78 Q19.01 131.44 18.06 131.35 L18.06 131.35 Q16.77 130.49 15.39 128.95 Q14.02 127.40 12.99 125.76 Q11.95 124.13 11.61 123.36 L11.61 123.36 Q11.18 122.32 11.44 121.98 L11.44 121.98 Q11.52 121.81 11.70 121.72 L11.70 121.72 Q12.38 121.46 13.33 121.03 L13.33 121.03 Q14.28 120.35 15.35 120.00 Q16.43 119.66 17.11 121.12 L17.11 121.12 Q18.23 123.10 20.60 124.47 Q22.96 125.85 26.02 126.11 Q29.07 126.37 32.16 125.08 L32.16 125.08 Q34.23 124.13 34.40 122.45 Q34.57 120.78 33.11 118.54 L33.11 118.54 Q32.85 117.85 32.38 117.42 Q31.91 116.99 31.00 116.30 Q30.10 115.62 28.47 114.07 L28.47 114.07 Q27.18 113.47 26.10 112.95 Q25.03 112.43 23.82 111.83 L23.82 111.83 Q22.45 111.14 20.73 109.90 Q19.01 108.65 17.54 107.14 Q16.08 105.64 15.31 104.26 L15.31 104.26 Q13.93 102.97 13.59 100.69 Q13.24 98.42 13.72 95.84 Q14.19 93.26 15.31 91.19 L15.31 91.19 Q15.82 89.99 17.20 88.05 Q18.58 86.12 20.30 84.05 Q22.02 81.99 23.61 80.31 Q25.20 78.64 26.14 78.03 L26.14 78.03 Q26.83 77.35 27.61 76.57 L27.61 76.57 L28.38 75.88 Q28.47 75.45 28.72 75.45 L28.72 75.45 L28.90 75.45 Q29.33 75.20 30.79 74.59 Q32.25 73.99 33.97 72.36 L33.97 72.36 Q39.73 69.61 43.77 68.62 Q47.82 67.63 50.14 67.63 L50.14 67.63 Q52.29 67.71 54.35 68.79 Q56.42 69.86 57.92 71.50 Q59.43 73.13 59.68 75.20 L59.68 75.20 Q60.29 77.26 59.13 80.14 Q57.96 83.02 55.94 85.56 Q53.92 88.10 51.77 89.30 L51.77 89.30 Q49.36 90.33 47.69 89.56 Q46.01 88.78 46.10 87.15 L46.10 87.15 Q46.10 86.46 46.57 85.52 Q47.04 84.57 49.19 82.16 L49.19 82.16 Q51.94 78.12 52.12 76.40 Q52.29 74.68 50.57 74.42 L50.57 74.42 Q50.05 74.25 48.59 74.51 Q47.13 74.77 45.45 75.15 Q43.77 75.54 42.53 75.97 Q41.28 76.40 41.28 76.57 L41.28 76.57 L41.28 76.83 Q41.28 76.92 41.19 77.00 L41.19 77.00 Q41.19 77.09 40.94 77.00 L40.94 77.00 Q40.76 77.00 39.78 77.56 Q38.79 78.12 37.41 78.98 Q36.03 79.84 34.70 80.74 Q33.37 81.65 32.42 82.33 Q31.48 83.02 31.39 83.19 L31.39 83.19 Q31.22 84.14 29.41 84.91 L29.41 84.91 Q27.69 85.95 26.40 87.84 Q25.11 89.73 23.39 92.65 L23.39 92.65 Q21.93 94.63 21.33 96.91 Q20.73 99.19 21.33 100.57 L21.33 100.57 Q21.76 101.94 23.69 103.28 Q25.63 104.61 28.98 106.59 L28.98 106.59 Q31.91 108.22 34.49 110.03 Q37.07 111.83 38.87 113.51 Q40.68 115.19 41.19 116.30 L41.19 116.30 Q42.23 117.77 42.44 119.66 Q42.66 121.55 42.44 123.31 Q42.23 125.08 41.88 126.19 L41.88 126.19 Q41.28 127.57 40.03 129.12 Q38.79 130.67 37.75 130.58 L37.75 130.58 Q36.81 130.84 36.34 131.18 Q35.86 131.53 35.26 131.78 L35.26 131.78 Q34.66 132.13 32.42 132.60 Q30.19 133.07 27.52 133.38 Q24.85 133.68 22.88 133.59 Z M67.77 126.28 L67.77 126.28 Q65.19 127.74 62.31 127.96 Q59.43 128.17 56.93 127.18 Q54.44 126.19 52.89 124.22 L52.89 124.22 Q52.03 123.10 51.26 120.65 Q50.48 118.20 51.00 113.98 L51.00 113.98 Q51.51 110.03 53.45 105.98 Q55.38 101.94 58.22 98.85 Q61.06 95.75 64.41 94.63 L64.41 94.63 Q65.62 94.20 66.86 93.99 Q68.11 93.77 70.18 93.94 L70.18 93.94 Q72.15 94.20 73.70 94.93 Q75.25 95.66 75.94 96.52 L75.94 96.52 Q77.31 97.90 77.74 99.19 Q78.17 100.48 78.09 101.68 L78.09 101.68 Q77.66 104.44 75.64 107.62 Q73.62 110.80 70.00 112.35 L70.00 112.35 Q68.54 112.95 66.56 113.12 Q64.59 113.29 61.15 112.61 L61.15 112.61 Q59.08 112.18 58.44 113.04 Q57.79 113.90 57.88 116.39 L57.88 116.39 Q58.05 117.94 58.61 119.10 Q59.17 120.26 60.72 120.69 L60.72 120.69 Q62.69 121.03 63.55 120.73 Q64.41 120.43 65.70 119.83 L65.70 119.83 Q66.39 119.40 67.08 118.88 L67.08 118.88 L68.37 117.85 Q68.97 117.34 69.40 117.08 L69.40 117.08 Q69.83 116.73 70.26 116.65 Q70.69 116.56 71.12 116.56 L71.12 116.56 Q72.07 116.65 72.93 117.59 Q73.79 118.54 74.05 119.40 L74.05 119.40 Q74.05 120.09 73.19 121.33 Q72.33 122.58 70.91 123.92 Q69.49 125.25 67.77 126.28 Z M66.65 107.10 L66.65 107.10 Q67.25 106.84 68.41 105.90 Q69.57 104.95 70.52 103.88 Q71.47 102.80 71.47 102.20 L71.47 102.20 Q71.47 101.25 70.22 100.57 Q68.97 99.88 66.99 100.31 L66.99 100.31 Q66.31 100.48 65.36 101.25 Q64.41 102.03 63.47 103.02 Q62.52 104.01 61.83 104.91 Q61.15 105.81 60.89 106.33 L60.89 106.33 Q61.23 106.76 62.26 107.02 Q63.30 107.27 64.54 107.27 Q65.79 107.27 66.65 107.10 Z M96.49 126.28 L96.49 126.28 Q93.91 127.74 91.03 127.96 Q88.15 128.17 85.66 127.18 Q83.16 126.19 81.61 124.22 L81.61 124.22 Q80.75 123.10 79.98 120.65 Q79.21 118.20 79.72 113.98 L79.72 113.98 Q80.24 110.03 82.17 105.98 Q84.11 101.94 86.95 98.85 Q89.78 95.75 93.14 94.63 L93.14 94.63 Q94.34 94.20 95.59 93.99 Q96.84 93.77 98.90 93.94 L98.90 93.94 Q100.88 94.20 102.43 94.93 Q103.97 95.66 104.66 96.52 L104.66 96.52 Q106.04 97.90 106.47 99.19 Q106.90 100.48 106.81 101.68 L106.81 101.68 Q106.38 104.44 104.36 107.62 Q102.34 110.80 98.73 112.35 L98.73 112.35 Q97.27 112.95 95.29 113.12 Q93.31 113.29 89.87 112.61 L89.87 112.61 Q87.81 112.18 87.16 113.04 Q86.52 113.90 86.60 116.39 L86.60 116.39 Q86.77 117.94 87.33 119.10 Q87.89 120.26 89.44 120.69 L89.44 120.69 Q91.42 121.03 92.28 120.73 Q93.14 120.43 94.43 119.83 L94.43 119.83 Q95.12 119.40 95.80 118.88 L95.80 118.88 L97.09 117.85 Q97.70 117.34 98.13 117.08 L98.13 117.08 Q98.56 116.73 98.99 116.65 Q99.42 116.56 99.85 116.56 L99.85 116.56 Q100.79 116.65 101.65 117.59 Q102.51 118.54 102.77 119.40 L102.77 119.40 Q102.77 120.09 101.91 121.33 Q101.05 122.58 99.63 123.92 Q98.21 125.25 96.49 126.28 Z M95.37 107.10 L95.37 107.10 Q95.98 106.84 97.14 105.90 Q98.30 104.95 99.24 103.88 Q100.19 102.80 100.19 102.20 L100.19 102.20 Q100.19 101.25 98.94 100.57 Q97.70 99.88 95.72 100.31 L95.72 100.31 Q95.03 100.48 94.08 101.25 Q93.14 102.03 92.19 103.02 Q91.25 104.01 90.56 104.91 Q89.87 105.81 89.61 106.33 L89.61 106.33 Q89.96 106.76 90.99 107.02 Q92.02 107.27 93.27 107.27 Q94.51 107.27 95.37 107.10 Z M118.42 145.20 L118.42 145.20 Q116.01 146.15 113.39 144.90 Q110.77 143.65 108.88 140.99 L108.88 140.99 Q108.53 140.47 107.84 139.14 Q107.16 137.80 106.51 136.26 Q105.87 134.71 105.56 133.59 Q105.26 132.47 105.52 132.30 L105.52 132.30 Q105.87 131.35 107.07 131.18 Q108.27 131.01 109.48 131.31 Q110.68 131.61 110.85 132.13 L110.85 132.13 Q111.11 132.73 111.37 133.38 Q111.63 134.02 112.01 134.58 Q112.40 135.14 112.75 135.57 L112.75 135.57 Q113.69 137.03 114.81 137.59 Q115.93 138.15 116.53 137.72 L116.53 137.72 Q117.99 136.60 118.72 135.09 Q119.45 133.59 120.66 129.81 L120.66 129.81 Q121.60 126.62 122.29 124.30 Q122.98 121.98 123.75 120.00 L123.75 120.00 Q124.01 118.97 124.44 118.20 L124.44 118.20 Q124.53 118.02 124.61 117.85 L124.61 117.85 Q123.41 118.71 122.46 119.57 L122.46 119.57 Q121.17 120.78 118.94 121.72 L118.94 121.72 Q118.42 122.32 116.40 122.45 Q114.38 122.58 112.49 121.98 L112.49 121.98 Q111.28 121.29 110.55 120.56 Q109.82 119.83 109.35 118.88 Q108.88 117.94 108.36 116.65 L108.36 116.65 Q107.76 115.36 108.19 112.43 Q108.62 109.51 109.74 106.59 L109.74 106.59 Q110.77 104.44 112.75 101.94 Q114.72 99.45 116.96 97.43 Q119.20 95.41 121.00 94.89 L121.00 94.89 Q121.69 94.55 123.41 94.07 Q125.13 93.60 126.68 94.03 L126.68 94.03 Q128.14 94.20 128.91 94.67 Q129.69 95.15 131.41 96.61 L131.41 96.61 Q132.53 97.73 134.16 99.49 Q135.79 101.25 136.22 102.46 L136.22 102.46 Q136.83 103.75 136.48 105.25 Q136.14 106.76 135.28 107.88 L135.28 107.88 Q134.50 108.99 133.64 110.11 Q132.78 111.23 132.35 113.21 L132.35 113.21 Q131.92 115.79 130.72 119.01 Q129.52 122.24 128.83 124.99 L128.83 124.99 L127.45 130.32 Q125.30 137.63 122.72 140.94 Q120.14 144.25 118.42 145.20 Z M116.62 115.62 L116.62 115.62 Q118.34 115.53 119.58 115.23 Q120.83 114.93 121.95 113.85 Q123.07 112.78 124.53 110.54 L124.53 110.54 Q125.99 108.48 126.59 106.76 Q127.19 105.04 127.02 102.89 L127.02 102.89 Q126.94 101.51 126.25 101.08 Q125.56 100.65 124.44 100.82 L124.44 100.82 Q122.81 101.08 121.52 102.16 Q120.23 103.23 118.51 105.47 L118.51 105.47 Q117.22 107.19 116.36 109.60 L116.36 109.60 Q115.50 112.18 115.63 113.72 Q115.76 115.27 116.62 115.62 Z M143.88 138.41 L143.88 138.41 Q143.36 138.75 141.56 137.59 Q139.75 136.43 138.55 135.05 L138.55 135.05 Q137.94 134.36 137.77 133.59 Q137.60 132.82 137.86 130.67 L137.86 130.67 Q138.20 129.72 138.24 128.86 Q138.29 128.00 138.29 127.66 L138.29 127.66 Q138.29 127.14 138.59 125.25 Q138.89 123.36 139.23 121.25 Q139.58 119.14 139.84 118.02 L139.84 118.02 Q139.84 117.94 139.96 117.42 Q140.09 116.91 140.18 116.65 L140.18 116.65 Q140.35 115.87 140.61 114.76 Q140.87 113.64 141.13 111.75 L141.13 111.75 Q141.81 109.60 142.29 107.49 Q142.76 105.38 142.76 104.61 L142.76 104.61 Q142.76 103.06 143.96 102.37 L143.96 102.37 Q144.05 101.94 144.48 101.04 Q144.91 100.14 145.25 99.53 L145.25 99.53 Q146.97 94.63 148.09 91.71 Q149.21 88.78 150.41 86.63 L150.41 86.63 Q150.93 85.17 151.57 83.62 Q152.22 82.08 152.91 81.22 L152.91 81.22 Q153.51 80.01 155.01 78.25 Q156.52 76.49 158.24 74.85 Q159.96 73.22 160.99 72.44 L160.99 72.44 Q162.88 71.50 164.52 70.90 Q166.15 70.29 167.96 70.29 L167.96 70.29 Q169.59 70.29 170.84 71.03 Q172.09 71.76 174.58 73.99 L174.58 73.99 Q175.44 75.11 175.44 76.14 Q175.44 77.17 175.01 77.86 L175.01 77.86 Q174.41 79.24 173.20 81.26 Q172.00 83.28 170.88 84.87 Q169.76 86.46 169.25 86.55 L169.25 86.55 Q168.22 87.15 167.10 86.89 Q165.98 86.63 165.98 85.34 L165.98 85.34 Q165.98 84.74 166.07 84.23 L166.07 84.23 L166.07 83.71 Q166.32 82.59 166.71 81.73 Q167.10 80.87 167.44 80.27 L167.44 80.27 Q168.13 79.15 167.83 78.12 Q167.53 77.09 165.64 77.26 L165.64 77.26 Q165.38 77.43 164.65 78.08 Q163.92 78.72 163.10 79.54 Q162.28 80.36 161.68 81.09 Q161.08 81.82 161.08 82.08 L161.08 82.08 L160.65 82.94 Q160.13 83.88 159.19 85.00 L159.19 85.00 Q158.58 85.86 158.15 86.63 Q157.72 87.41 157.72 87.84 L157.72 87.84 Q157.72 88.18 157.64 88.44 Q157.55 88.70 157.21 88.70 L157.21 88.70 L156.95 89.56 Q156.61 90.42 155.92 91.62 L155.92 91.62 Q155.57 92.48 155.19 93.21 Q154.80 93.94 154.46 94.29 L154.46 94.29 L154.37 94.46 L154.03 95.41 Q153.60 96.44 153.17 97.47 Q152.74 98.50 152.74 98.67 L152.74 98.67 Q152.74 99.02 153.77 99.02 Q154.80 99.02 156.26 98.72 Q157.72 98.42 159.10 98.07 L159.10 98.07 Q160.30 97.73 160.82 97.73 Q161.34 97.73 162.45 98.07 L162.45 98.07 Q163.14 98.50 163.57 99.58 Q164.00 100.65 164.22 101.73 Q164.43 102.80 164.26 103.32 L164.26 103.32 Q164.17 103.66 162.32 104.26 Q160.48 104.87 158.67 105.21 L158.67 105.21 Q157.12 105.55 155.19 105.94 Q153.25 106.33 151.79 106.72 Q150.33 107.10 150.24 107.45 L150.24 107.45 Q149.90 107.45 149.68 107.88 Q149.47 108.31 149.47 108.65 L149.47 108.65 Q149.47 109.77 149.04 110.46 L149.04 110.46 Q148.87 110.97 148.48 112.56 Q148.09 114.15 147.70 116.00 Q147.32 117.85 147.02 119.44 Q146.72 121.03 146.72 121.55 L146.72 121.55 Q146.20 122.15 146.11 123.06 Q146.03 123.96 146.03 124.65 L146.03 124.65 Q145.68 125.33 145.60 125.89 Q145.51 126.45 145.51 126.80 L145.51 126.80 L145.51 127.14 Q145.51 127.40 145.43 127.66 L145.43 127.66 Q145.34 128.52 145.21 129.94 Q145.08 131.35 145.08 132.73 L145.08 132.73 L144.82 135.22 Q144.74 136.34 144.52 137.16 Q144.31 137.98 143.88 138.41 Z M186.02 127.83 L186.02 127.83 Q185.16 126.97 184.64 125.46 Q184.13 123.96 183.61 121.98 L183.61 121.98 Q183.44 121.29 183.48 120.43 Q183.52 119.57 183.44 119.06 L183.44 119.06 Q183.18 119.66 182.62 120.60 Q182.06 121.55 181.55 121.98 L181.55 121.98 Q181.20 122.32 180.00 123.31 Q178.79 124.30 177.59 124.90 L177.59 124.90 Q174.75 126.71 172.56 126.58 Q170.37 126.45 168.73 124.39 L168.73 124.39 Q167.36 123.27 166.50 121.55 Q165.64 119.83 166.15 117.42 L166.15 117.42 Q166.32 114.41 167.01 111.53 Q167.70 108.65 169.85 103.83 L169.85 103.83 Q171.66 100.31 172.60 98.33 Q173.55 96.35 173.81 96.01 L173.81 96.01 Q175.10 95.58 176.99 96.05 Q178.88 96.52 179.05 97.73 L179.05 97.73 Q179.57 98.59 179.05 100.95 Q178.54 103.32 176.99 106.33 L176.99 106.33 Q175.78 109.25 174.71 112.00 Q173.63 114.76 173.42 116.65 Q173.20 118.54 174.41 118.97 L174.41 118.97 Q175.18 119.40 176.69 118.88 Q178.19 118.37 180.26 115.79 Q182.32 113.21 184.64 107.62 L184.64 107.62 Q185.33 105.90 185.67 104.56 Q186.02 103.23 186.10 101.60 L186.10 101.60 Q185.93 100.57 186.66 99.45 Q187.39 98.33 188.43 97.73 L188.43 97.73 Q188.77 97.30 189.37 96.87 L189.37 96.87 Q189.80 96.61 189.97 96.78 L189.97 96.78 Q190.06 96.78 190.15 96.95 L190.15 96.95 L191.52 96.87 Q191.87 96.78 192.30 97.56 Q192.73 98.33 193.16 98.67 L193.16 98.67 Q194.10 99.45 194.02 102.03 Q193.93 104.61 191.95 109.25 L191.95 109.25 Q190.32 112.78 189.76 114.58 Q189.20 116.39 189.11 118.11 L189.11 118.11 Q189.11 119.66 189.37 120.73 Q189.63 121.81 190.92 122.93 L190.92 122.93 Q191.87 123.53 191.99 124.95 Q192.12 126.37 192.04 127.40 L192.04 127.40 Q191.87 128.17 190.70 128.47 Q189.54 128.77 188.21 128.60 Q186.88 128.43 186.02 127.83 Z M197.80 126.54 L197.80 126.54 Q197.11 125.85 196.81 124.47 Q196.51 123.10 196.60 121.77 Q196.68 120.43 197.03 119.74 L197.03 119.74 Q197.03 119.06 197.24 118.67 Q197.46 118.28 197.37 117.94 L197.37 117.94 Q197.28 117.59 197.54 116.73 Q197.80 115.87 198.06 115.10 L198.06 115.10 Q198.66 113.72 199.43 111.53 Q200.21 109.34 200.98 107.06 Q201.76 104.78 202.27 103.10 Q202.79 101.43 202.87 101.08 L202.87 101.08 Q202.87 100.05 204.25 99.96 L204.25 99.96 Q205.28 99.62 206.74 100.82 Q208.21 102.03 209.07 103.40 L209.07 103.40 Q209.75 104.09 209.58 105.21 Q209.41 106.33 208.46 108.39 L208.46 108.39 Q208.12 109.08 207.65 110.67 Q207.17 112.26 207.00 113.29 L207.00 113.29 Q206.66 113.98 206.18 115.23 Q205.71 116.48 205.37 117.59 L205.37 117.59 Q205.20 118.02 205.02 119.19 Q204.85 120.35 204.59 121.55 Q204.34 122.75 203.91 123.44 L203.91 123.44 Q203.13 126.97 201.20 127.57 Q199.26 128.17 197.80 126.54 Z " fill="#f1ece2"></path><defs><mask id="hm2" maskUnits="userSpaceOnUse"><path d="M0,3 C0,-3 -9,-6 -9,-13 C-9,-19 -2,-20 0,-14 C2,-20 9,-19 9,-13 C9,-6 0,-3 0,3 Z" fill="#fff"></path><path d="M-7.5,-8 q2.5,-3.4 5,0 t5,0 t5,0" fill="none" stroke="#000" stroke-width="2.1" stroke-linecap="round"></path></mask></defs><g transform="translate(210.40,95.23) rotate(12) scale(0.940)"><path d="M0,3 C0,-3 -9,-6 -9,-13 C-9,-19 -2,-20 0,-14 C2,-20 9,-19 9,-13 C9,-6 0,-3 0,3 Z" fill="#d23b34" mask="url(#hm2)"></path></g></g></g></svg><path d="M41.62 296.45L39.70 296.45L39.70 286.99L36.35 286.99L36.35 285.25L44.96 285.25L44.96 286.99L41.62 286.99L41.62 296.45Z M62.68 296.45L55.46 296.45L55.46 285.25L62.60 285.25L62.60 286.99L57.40 286.99L57.40 289.93L62.15 289.93L62.15 291.68L57.40 291.68L57.40 294.70L62.68 294.70L62.68 296.45Z M77.25 296.67L77.25 296.67Q76.06 296.67 75.13 296.15Q74.19 295.63 73.64 294.63Q73.09 293.63 73.09 292.17L73.09 292.17L73.09 289.52Q73.09 287.34 74.30 286.18Q75.52 285.02 77.57 285.02L77.57 285.02Q79.62 285.02 80.72 286.12Q81.82 287.21 81.82 289.07L81.82 289.07L81.82 289.13L79.94 289.13L79.94 289.01Q79.94 288.37 79.68 287.85Q79.42 287.34 78.90 287.05Q78.37 286.75 77.57 286.75L77.57 286.75Q76.38 286.75 75.70 287.48Q75.02 288.21 75.02 289.49L75.02 289.49L75.02 292.21Q75.02 293.47 75.70 294.22Q76.38 294.97 77.60 294.97L77.60 294.97Q78.82 294.97 79.38 294.32Q79.94 293.66 79.94 292.64L79.94 292.64L79.94 292.45L77.10 292.45L77.10 290.81L81.82 290.81L81.82 296.45L80.06 296.45L80.06 295.34L79.79 295.34Q79.66 295.63 79.39 295.94Q79.12 296.25 78.62 296.46Q78.11 296.67 77.25 296.67Z M100.15 296.45L92.94 296.45L92.94 285.25L100.07 285.25L100.07 286.99L94.87 286.99L94.87 289.93L99.62 289.93L99.62 291.68L94.87 291.68L94.87 294.70L100.15 294.70L100.15 296.45Z M112.77 296.45L110.83 296.45L110.83 285.25L115.62 285.25Q116.67 285.25 117.46 285.61Q118.24 285.98 118.68 286.65Q119.12 287.31 119.12 288.24L119.12 288.24L119.12 288.41Q119.12 289.45 118.62 290.08Q118.13 290.70 117.42 290.99L117.42 290.99L117.42 291.25Q118.05 291.28 118.41 291.68Q118.77 292.08 118.77 292.75L118.77 292.75L118.77 296.45L116.85 296.45L116.85 293.02Q116.85 292.62 116.63 292.37Q116.42 292.13 115.94 292.13L115.94 292.13L112.77 292.13L112.77 296.45ZM112.77 286.99L112.77 290.38L115.42 290.38Q116.26 290.38 116.73 289.94Q117.20 289.50 117.20 288.77L117.20 288.77L117.20 288.62Q117.20 287.87 116.74 287.43Q116.27 286.99 115.42 286.99L115.42 286.99L112.77 286.99Z M131.85 296.45L129.94 296.45L129.94 285.25L133.62 285.25L136.26 295.15L136.52 295.15L136.52 285.25L138.42 285.25L138.42 296.45L134.76 296.45L132.12 286.54L131.85 286.54L131.85 296.45Z M153.49 296.67L153.49 296.67Q152.21 296.67 151.22 296.21Q150.24 295.76 149.68 294.89Q149.12 294.03 149.12 292.78L149.12 292.78L149.12 292.37L151.02 292.37L151.02 292.78Q151.02 293.89 151.70 294.43Q152.37 294.97 153.49 294.97L153.49 294.97Q154.62 294.97 155.20 294.51Q155.78 294.05 155.78 293.31L155.78 293.31Q155.78 292.81 155.50 292.50Q155.23 292.19 154.71 292.00Q154.19 291.81 153.46 291.63L153.46 291.63L152.98 291.53Q151.87 291.28 151.06 290.89Q150.26 290.49 149.82 289.87Q149.39 289.25 149.39 288.24L149.39 288.24Q149.39 287.23 149.87 286.51Q150.35 285.79 151.23 285.41Q152.11 285.02 153.30 285.02L153.30 285.02Q154.48 285.02 155.41 285.42Q156.34 285.82 156.87 286.62Q157.41 287.42 157.41 288.62L157.41 288.62L157.41 289.15L155.50 289.15L155.50 288.62Q155.50 287.93 155.23 287.52Q154.96 287.10 154.46 286.91Q153.97 286.72 153.30 286.72L153.30 286.72Q152.30 286.72 151.79 287.10Q151.28 287.49 151.28 288.19L151.28 288.19Q151.28 288.64 151.51 288.95Q151.74 289.26 152.20 289.46Q152.66 289.66 153.34 289.81L153.34 289.81L153.82 289.92Q154.98 290.17 155.84 290.57Q156.70 290.96 157.19 291.60Q157.68 292.24 157.68 293.26L157.68 293.26Q157.68 294.27 157.16 295.04Q156.64 295.81 155.70 296.24Q154.77 296.67 153.49 296.67Z M175.58 296.45L168.36 296.45L168.36 285.25L175.50 285.25L175.50 286.99L170.30 286.99L170.30 289.93L175.05 289.93L175.05 291.68L170.30 291.68L170.30 294.70L175.58 294.70L175.58 296.45Z M193.47 296.45L186.26 296.45L186.26 285.25L193.39 285.25L193.39 286.99L188.19 286.99L188.19 289.93L192.94 289.93L192.94 291.68L188.19 291.68L188.19 294.70L193.47 294.70L193.47 296.45Z" fill="#aac072"></path><circle cx="90.6" cy="319.7" r="10" fill="#fff"></circle><circle cx="90.6" cy="319.7" r="10" fill="none" stroke="#aac072" stroke-width="2.4"></circle><circle cx="90.6" cy="319.7" r="4" fill="#aac072"></circle></svg>