<svg xmlns="http://www.w3.org/2000/svg" width="1380" height="2040" viewBox="0 0 230 340"><path d="M1646.026,1866.889v-2.045v-5.17l-1.4-3.088l-4.164-3.086l-4.236-4.164l-0.609-2.012l0.609-5.205l0.719-7.252 v-5.098l-0.719-6.281l-1.293-3.088l-2.117-4.057l-2.117-4.127l-4.164-3.088l-3.447-3.088l-4.129-1.076l-2.836-2.117l-2.727-6.176 l-5.564-4.129l-0.684-2.045l-2.836-2.01l-6.246-4.166l-4.164,1.078l-2.729-2.119l-3.518-1.076l-2.047-2.01l-0.682-3.088l0.682-4.164 l-0.682-4.129l-0.717-3.086l-2.119-4.164l-1.4-4.057l-0.609-2.119l-1.436-3.086l-2.801-3.088l-2.047-2.01l-2.117-1.078l-2.117-2.117 l-2.729-0.969l-2.836,0.969l-3.447,1.076l-2.729,1.041l-4.918-1.041l-4.846-4.164l-4.883,2.119l-7.574,3.086l-6.246,2.047 l-6.281,1.041h-3.52l-2.727-1.041l-2.836-2.047l-2.729-4.127l-2.119-4.164l-3.445-3.088l-4.129-1.041l-4.236-2.047l-5.564-1.041 h-6.893l-4.918-0.969h-3.445l-4.129-1.078l-3.553-4.127l-0.611-7.252l-5.564-6.139l-4.918-3.123l-6.893-1.041v4.164l-9.082,2.01 l-11.129,2.119l-7.574,3.086l-4.236-3.086l-6.174,1.041l-9.082,4.057l-10.41,2.117l-7.684,2.047l-7.574,3.086l-9.082,8.293 l1.4,1.041l-2.01,2.047l-1.436-1.076l-1.4,1.076l-9.012,2.01l-2.799-2.01l-2.729-1.076h-3.518l-2.047,4.164l-2.117,1.041h-6.248 l-5.563-1.041l-6.283-1.078l-5.527-3.086l-3.447-3.088l-2.836-4.129l-3.445-5.133l-2.801-7.217l-2.047-4.164l-0.717-6.174 l2.152-7.215l3.412-7.217l0.717-4.164l2.729-4.127l1.4-10.34l2.117-9.262l4.164-7.215l4.129-4.164l6.283-2.012l3.445-3.086 l6.246-8.293l1.4-5.133l2.117-5.205v-4.129l2.047-5.133l1.4-5.207l2.836-2.01l1.328-4.164l0.682-5.098l-2.01-6.281l-0.719-9.262 l-0.717-7.217v-10.338v-5.098v-3.088v-5.205l-0.684-5.133l-1.398-4.129l-3.447-6.246l-7.682-9.262l-4.846-6.174l-0.719-4.164 l-3.447-3.088l-2.117-3.088l-4.846-5.205l-2.729-5.098l-1.4-4.164l-2.117-2.01l-6.965-2.119l-5.564-0.969l-6.893-1.076l-4.236-1.041 l-3.445-3.088l-2.082-1.076l-4.883-0.971l-6.855-1.041h-4.236h-1.328h-11.811l-3.555-1.076l-2.729-2.01l-4.127-2.119l-2.838-4.057 l-2.727-5.205l-1.4-4.164l-1.436-3.086l-4.848-11.381l-2.117-6.174l-2.01-4.129l-0.719-2.045l-4.846-4.129l-2.119-2.047 l-3.445-4.129l-5.564-5.205l-2.117-2.045h-1.4l-2.729-4.129l-0.719-1.076l0.719-2.012l-2.836-4.164l-4.129-5.098l-0.717-1.076 l-7.684-10.303l-6.855-5.205l-4.236-4.057l-3.447-1.041l-1.398-4.164l-2.047-6.176l-0.682-2.117v-0.969l-3.555-7.217h-1.328 l-15.328-10.338h-1.328l-1.4-1.041h-1.436l-0.682-2.047l-2.047-1.041l0.717-1.076h3.447l0.682-0.969l-2.799-1.041l-0.719-1.078 l1.4-1.041l2.836-3.086l4.164-4.057l4.846-3.195l2.801-3.088l1.328-3.088l2.117-4.127l0.719-4.057l2.01-2.119l-1.328-1.076 l-2.801-0.969l-0.717-10.303l-0.719-2.119l-0.609-2.045l0.609-4.129l0.719-5.133l3.518-5.205l0.719-7.217h0.609v-2.045h2.119v-3.088 v-4.129l-1.4-2.117h-0.719l1.4-7.252h1.436l1.4-6.139l-1.4-2.047l4.129-7.215l3.553-6.174l2.729-3.195l5.529-10.303l-1.4-0.969 l2.117-3.088l1.438-6.283l1.291-22.65v-8.293l-0.609-3.088v-1.076v-0.969l-0.682-1.041v-2.047l-0.719-1.041l1.4-2.117v-2.047 l-2.119-4.129h2.119l2.729-2.045v-6.176h1.436l-0.719-5.205l-0.717-5.098l-1.4-6.281l-0.719-2.012v-6.174l-1.291-4.164l-2.836-4.129 l-2.047-3.086v-4.164v-6.176l1.328-3.086v-3.088l-5.564-6.246l-6.246-8.186l-9.693-10.338l-4.846-4.129l-1.436-4.164l-27.068-35.109 h-2.045l-3.518-5.205l-3.447-5.098l-4.129-3.086l-0.717-3.088l-3.518-5.205l-4.848-7.252l-4.164-7.215l-2.799-5.133l-2.047-6.176 l-1.4-6.246l-2.729-6.174l-5.564-9.262l-11.127-12.422l-5.529-6.174l-4.236-8.293l-3.445-8.221l-0.719-5.205v-14.467v-9.262 l-4.127-8.293l-4.848-6.174l-5.564-4.129l-7.682-9.262l-1.4-4.164l-6.281-5.205l-4.848-4.057l-7.574-11.379l-0.717-6.176 l-4.848-6.246l-4.918-2.045l-10.41-10.305l-5.564-5.205l-3.445-2.045l-3.447-2.119l-4.234-0.934l-3.447-1.076l-2.801-2.047h-3.445 l-1.4-1.041l1.4-5.205v-2.01l-2.729-4.164l-2.117-6.174l-3.447-6.176l-2.836-5.205l-0.682-6.174l-0.719-9.334l-1.328-9.262v-5.133 l1.328-7.217l1.4-1.076v-5.205l-1.4-9.262l-5.564-16.479l-5.563-8.291l-6.857-6.176l-9.801-7.25h-1.328l-11.092-3.088l-5.564-1.041 h-1.4h-0.717l-0.719-1.076l-1.4-0.971l-1.328-1.041l0.611-2.117l0.717-7.217l-2.047-6.174l-0.682-13.426l-4.236-5.205l-3.445-7.215 l-4.129-9.262l-1.436-21.719l-1.4-6.176l-0.717-8.291l-2.012-6.176l-1.436-3.086l-4.129-6.176l-1.398-4.127l-2.119-1.078 l-1.328-3.086l0.682-5.207l-1.398-6.174l-0.684-3.088l-3.445-3.086l-2.836-1.041l-2.119-2.047l-4.846-4.129l-6.281-5.205 l-14.539-12.348l-4.129-6.176l-6.965-13.498l-2.764-8.184l-2.799-12.457l-4.164-7.215l-5.564-4.164l-4.129-6.176l-1.4-3.086 l8.975-3.088l4.164-3.088l-0.646-1.041l-4.199,1.041l-9.729,4.164l-4.129-5.205l-6.281-8.293l-5.529-6.174l-2.117-5.133 l-2.047-8.293l-2.799-13.391l-1.438-7.252l-3.445-6.246l-6.246-6.174l-9.693-8.293l-3.445-5.098l-4.955-14.467l-1.328-8.293v-18.523 l-1.4-9.369l-2.799-11.379l-0.719-7.217l0.719-6.174l2.082-3.088l4.881-6.174l9.084-7.252l4.127-6.246l3.447-6.174l4.127-5.133 l2.836-9.334l1.4-5.133l0.719-4.129l1.328-4.164l4.236-11.344l0.609-3.088l1.4-3.088l2.117-8.291l0.719-4.164v-4.129l-0.719-5.133 l-0.682-2.012l-1.436-2.117l-1.4-2.047v-4.129l2.119-2.117l0.717-2.047l-2.117-7.215h-0.719l-2.729-3.088l-1.398-1.076l-1.438-9.262 l1.438-6.246l3.518-6.174l-0.719-16.514l0.719-4.129v-3.088l-0.719-4.164l-3.518-6.174l-2.047-2.117l-1.4-2.012l-2.836,1.041 l-2.01,0.971l-0.717-0.971v-1.041l2.117-1.076h2.047l1.398-2.01l2.729-2.119l2.119-2.045l1.4-1.041v-3.088l1.436-6.174l2.01-5.207 l1.436-4.127v-7.252v-4.057l-1.436-13.498l-0.682-8.184v-5.207l-1.328-3.086l-1.436-8.293l-2.082-4.164l-3.447-11.379l-2.836-10.304 l-0.719-5.134l-2.01-3.087l-3.518-4.128l-0.646-4.164l-4.199-6.175l-2.047-3.087l-0.719-4.129V0h-4.846h-7.682l-3.41,3.087 l1.328,6.175l-0.719,6.282l-4.846,14.467l-3.447,4.057l-4.164,3.159l-3.518,4.057l-2.729,3.088l-4.846,3.193l-5.564-2.117 l-4.846-2.047l-5.564-1.041h-9.082l-7.574,1.041l-9.082,2.047l-9.012,4.129l-9.082,3.086h-5.564l-4.846-3.086l-4.129,1.076 l-4.883,2.01l-4.127,4.164l-0.719,1.041l-6.963,3.088l-2.729,1.076l-6.246,2.012l-7.684,3.086l-4.164-1.041l-6.246-0.969 l-6.281,0.969l-3.412,2.119l-6.281,3.086l-6.246,4.129l-1.436,3.088l-6.965,5.205l-3.41,4.057l-7.682,6.281v2.012l-2.047,6.174 l-2.117,7.252l-0.684,4.127l-4.164,8.293l-2.836,9.262l-2.729,7.217l-3.445,5.205l-2.801,3.086l-2.117,2.047h-0.611l-6.281,1.041 l-9.801,1.076h-8.256l-7.684,3.088l-4.846,1.041l-2.045-1.041l-3.52-1.076l-3.445,1.076h-2.119l-2.727,2.01l-6.965,5.205 l-7.682,5.207l-6.248,3.086l-11.127,3.088l-6.893,8.221l-10.482,6.246l-4.129,3.088l-10.41,4.164l-9.01,4.127l-2.836,6.176v4.164 l-1.4,6.174l-2.012,4.129l-4.164,2.045l-4.234,3.088l-6.248,1.041l-3.445,4.164l-4.846,6.176l-1.436,5.205l-1.4,6.174l-2.012,7.215 l-3.553,15.51l-1.293,4.055l-2.154,3.195l-8.256,11.273l-2.836,5.205l-8.293,11.379v6.174l-2.836,4.164l-2.117,7.217l-3.447,6.174 l-1.4,4.164l0.719,3.088l1.4,8.293l2.117,7.215l2.047,12.35v15.543l5.527,4.129l1.438,4.164l-1.438,5.098l-1.398,3.088l-4.848,1.076 l-2.01,4.129l3.41,5.098l0.719,6.281l4.127,7.215l4.166,6.176l2.836,8.293l1.398,8.221v5.205l1.328,5.098l-1.328,3.193l-0.717,6.176 l0.717,4.127l1.328,5.135l-0.609,4.129l-3.555,4.164l-6.246,6.174l-5.564,5.205l-4.164,6.174l-1.4,3.088l0.719,7.215l2.117,5.205 l4.848,5.135l2.729,5.205l5.564,13.391l2.836,6.174l6.246,4.129l1.398,4.164l-11.811,15.436l-8.363,14.467l-4.883,7.217l0.719,9.369 v4.127l4.846,13.426l1.436,7.217l0.684,8.221l2.727,3.158l7.002,8.221l4.846,5.205l6.965,5.098l2.01,7.252l4.236,11.379l2.045,5.17 l3.52,7.252l3.445,12.35l2.117,8.291l-0.717,5.098l2.045,9.369l0.684,8.186l-1.293,10.338l-2.154,7.217l0.719,4.164l6.281,9.334 l4.129,6.174l2.729,8.221l4.953,5.205l2.012,8.293l4.881,6.174l1.4,7.217v5.133l-4.846,15.508l-3.447,5.205l-2.117,3.088h-9.01 l-2.801,7.215l-5.564,4.057l-8.293,3.195L387.325,850l-2.047,6.174l-0.682,4.164l2.01,10.303l2.119,5.205l3.445,4.164l4.848,3.088 l2.799,1.041l11.848-1.041l4.846,2.01l11.092-0.969l4.883,0.969l3.41,4.164l3.555,2.119h5.527l11.848-3.195l8.291-0.969l7.646,0.969 l8.293,2.117l5.564,4.164l4.953,4.057l7.574,7.217l3.52,3.193l8.291-1.076l7.684,2.047l4.846,2.117l4.846,0.969h5.564l2.729,3.088 l7,2.117h4.811h5.564l2.836,1.041l4.846,2.047l3.447,3.088l1.4,4.127v3.088l-0.684,5.205l1.4,4.057l6.246,2.119l0.719,2.045 l0.717,2.119l-0.717,0.969l-1.4,1.041l-5.564,3.088l-2.117,15.508l5.564,5.133l1.398,6.246v6.174l-2.117,5.135l-2.01,5.205 l-3.555,4.129l-5.564,2.045l-5.527,4.129l-6.176,8.293l-7.682,7.25v3.088l-0.719,4.129l1.438,5.133l-0.719,8.293l3.447,7.215 l4.234,8.221l7.576,8.293l3.518,1.041l3.445,0.969h2.729l5.564,1.078l4.236-1.078l2.01-3.086l3.555-0.971l6.246,2.047l5.564,3.088 l6.174,3.086l4.953,3.088l4.129,7.215l2.047,5.205l-2.764,5.135l-2.119,5.205l0.719,7.215l-3.447,8.186l-1.4,8.293l-0.717,7.25 l0.717,5.205l2.836,5.098l2.012,4.164l4.846,5.098l1.4,2.119l0.717,3.086l-1.398,2.047h-6.965l-4.164,3.088l-5.564,6.246l-1.4,6.174 l-0.609,5.135l-2.119,5.205l-4.846,6.174l-7.682,2.117l-9.693,2.012l-0.717-2.012l-10.412,9.262l-4.846,5.207l0.719,7.143 l-6.283,2.119l-2.799,3.086l-0.719,7.217l1.436,7.25l3.518,7.217l3.447,5.133l4.129,6.246l4.127,4.057l2.836,1.076h2.729v-3.086 v-4.164h1.436v5.205l-0.717,2.045h2.836v3.088h1.4l0.609-7.252l2.836,1.078l-0.719,1.041l-1.398-1.041l-0.719,6.174h6.246 l1.436-3.088l-2.729-1.076v-0.969l3.447,0.969l0.682-0.969l4.846,2.045l-0.682,2.012h4.129l4.236,3.158l9.01,7.252l2.117,4.057 l2.729,3.086l4.848,1.041l4.234,5.207l6.176,5.133l7.682,6.174l6.246,5.205l-0.717,2.012h-2.119v1.076v1.041l2.119,2.047 l-3.41,8.291l0.682,7.217l5.564,3.086l4.164,4.166l1.4,5.096l2.01,3.088l4.846,5.205l7,4.164l2.801,7.217l4.164,4.057l14.539,6.281 l11.811,5.098l6.281,2.117l13.211,10.34l6.893,5.098l7.682,2.117l5.529,4.057l6.281,6.246l2.729,5.135l1.4,8.291l6.281,8.186 l3.447,4.164l4.846,2.117l6.246,5.098l9.801,10.34l4.846,7.215l3.447,7.252l4.846,5.205l4.846,3.088l4.955,4.057l4.127,2.117h6.283 l6.246-1.076l4.846-1.041l3.447-3.088l4.846-2.047l4.164-1.041l4.236,3.088l4.129,3.088l3.445,3.158l3.518,5.133l4.848,4.129 l4.164,4.164l3.445,4.057l4.236,7.215l2.01,3.195l5.564,2.012l4.846,1.076h5.564h2.836l3.41-1.076l4.848,3.086l4.953,2.047 l-4.236,5.205v7.215l0.719,14.467l0.682,5.135l0.719,7.215l0.717,3.088v2.117l-8.4,4.129l-2.01,3.088l-1.4,5.133l-4.881,4.129 l-1.4,4.164v4.127v5.135l1.4,3.086l1.436,5.205l1.293,4.129v3.088l-2.729,4.057l-3.52,3.195l-1.328,2.01l-0.682,4.164v5.098v7.252 l-4.164,7.215l-2.117,5.205l-1.4,7.252l-0.719,8.184l-2.01,2.119l-6.965,7.143l-2.836,5.205l-2.729,3.088l-6.963,9.262l-2.047,7.252 l-4.236,9.334l-2.01,5.133v5.205l4.846,4.021l-3.553,4.164l-1.293,7.215l2.729,6.174l1.4,7.252l0.717,5.205l-1.4,4.129l-2.764,4.057 l-4.236,3.195l-0.682,3.086l0.682,9.262l4.236,4.129l3.447,5.133l2.117,5.205l2.047,6.176l2.117,4.127l-2.836,4.166l-6.893,6.174 l-1.4,4.129l-4.164,7.25v5.098l2.047,4.164l2.117,4.129l0.719,5.133l-4.236,4.129l-11.738,1.076l-9.082-1.076l-8.293-2.01 l-6.965-3.195l-6.281-2.01l-5.529-1.078h-9.01h-4.236l-6.174,4.164l-4.236,3.088l-3.445,4.129l-0.684,7.25h-9.01l-7.682,1.041 l-19.494,9.264l-4.127,6.174l-0.719,9.334l0.719,11.307l2.799,2.119l-2.117,6.174l2.117,3.088l4.164,7.215l4.848,5.133l4.164,5.207 l-0.719,6.174l5.564,6.174l6.965,3.088l7.646,8.293l2.764,6.174l2.801,3.088l4.164,4.127l0.682,4.164l6.281,7.217l2.119,6.174 l2.01,6.174l2.117,4.166l2.766,4.127l5.527,4.164l6.283,2.012l6.963,3.086l5.564,4.164l5.529,3.088l9.01,3.088l7.682,3.086 l6.965,2.119l4.846,0.969l4.164-2.047l2.801-2.01l2.729-6.281l-1.4-3.088l0.719-7.215l0.682-2.047l2.836-2.01l4.129-3.195 l2.045-2.01l-2.729-2.047l-3.445-3.088v-8.293l3.445-5.205l2.729-4.057v-5.205l-4.164-3.086l-2.729-6.176l-3.518-3.086l-3.445-3.088 l-2.836-3.158h-2.729l-2.801-2.047l-2.729-9.262l-2.117-6.174l-0.719-4.129l-0.609-3.088l-4.236-2.117l-2.047-2.047l-1.398-2.117 l0.717-6.176l1.4-6.174l3.445-3.088l4.129-2.01h3.518h2.766l7.645-4.164l6.283-3.088l2.729-3.086l2.836-3.16l6.174-0.969 l5.529,6.174l2.836,2.047l3.445,3.051l6.965,2.119l4.129,1.076h3.553h1.328l2.119,2.01l6.246,2.047h4.127l4.166,1.041l4.234,1.076 l2.729,0.971l4.236,1.041l4.846,1.076l2.047-1.076l0.682-3.088h1.436l2.729,1.076l11.811-1.076l9.082-3.088h5.564l4.848-2.01 l4.846-2.117l4.164-3.088l5.527-4.164l5.564-3.088l8.4-2.01l4.129,0.969h7.682h11.094h4.881h8.975l5.564-0.969h4.164l5.529-3.088 l4.846,0.971l7.682-3.088h3.447h3.518h5.564l8.293-0.969l9.082-2.119l6.963-2.01l6.176-3.088l5.564-4.164l6.246-5.205l2.836-3.088 l0.717-6.174l2.012-5.205l1.436-4.057l2.082-3.088l2.047-6.246l2.117-7.25l0.719-0.971l6.963-2.117h4.129l1.4,4.164l5.564,4.129 h8.291l4.166,1.076h4.234h6.857l6.281-2.117l5.529-2.047l2.836-2.117l3.445-2.012l2.836-1.076l4.129-2.01l2.047-2.047l1.4-4.129 l3.518-7.252l2.045-5.205l2.801-2.01l6.283-2.047l4.846-1.041l4.129,2.012l4.164,3.086l3.518,4.164l2.729,10.305l0.717,6.174 l4.129,3.088l3.555,2.117l10.41,2.047h6.965h7.574l5.564,1.041h5.563l6.965-1.041l2.119-0.971h4.846l7.574-1.076l7.682-2.117 l4.848-0.971l6.963-1.041h5.564h3.447h3.518l2.729,1.041l3.445,0.971l2.836,1.076l2.119,2.117l1.328,2.012h-0.719l0.719,4.164h1.4 v0.969v1.041h-0.719l0.719,5.205h-0.719l1.4,5.133l1.436,6.176l0.682,6.246l1.328,5.133l2.119,5.205v0.969l0.717,5.207l2.012,4.127 v0.971l1.436,6.246l0.682,6.174h-2.117l3.553,12.35l2.01-2.012l3.52,4.129l2.764,3.088l3.518,2.045h2.729l5.564,1.041l9.082-2.117 l6.246-4.057l4.846-3.158l11.848-9.262l6.855-3.088l5.564-2.047l5.564-1.041h6.965l6.281,2.047h6.246h4.848l6.281,2.082l6.965,2.047 l4.129,3.086l9.01,3.088l5.527,2.117l4.883,2.012l4.846-1.041h6.246h4.236l4.164,2.117l11.094,5.098l10.41,3.088l4.846,1.076 l3.555,2.117l1.293-1.076l6.281,2.047l2.836,1.041l2.729,1.076l4.129,5.098h4.953l2.01,1.078h2.119h2.045l0.684-1.078v-1.041h0.717 h0.719h0.682l0.719,1.041l2.045,3.088l2.801,4.164l2.729,4.129l2.836,3.086l0.682,1.078l2.047-1.078l7.682-2.01l2.836-2.117 l2.729-2.047l4.129-5.205l4.846-6.176l3.518-5.098l2.764-6.281l0.682-6.174l2.838-1.041v3.158l0.717,5.133l-0.717,6.176h2.045h1.4 v-2.047h2.117l3.447,1.076l1.4,2.012l4.846-1.041l2.729-2.047l3.518-1.041h5.564h2.729l3.553-3.088l2.012-3.086l2.117-3.088 l2.729-2.117l0.719-0.971l2.117-3.086l0.719-2.119v-2.045l1.398-5.17L1646.026,1866.889z M898.624,1782.205h-3.555l-3.41-0.969 l-4.164-3.088h-4.918l-6.174-1.041l-6.283-1.076l-3.518-0.971l-4.846-4.127l-2.047-3.088l0.611-8.293l-0.611-3.086v-6.176 l2.729-3.086l6.283,0.969l3.445,2.117l7.682,5.098l6.246,3.088l6.248,4.164l4.881,4.129l4.848,6.174l2.117,4.164L898.624,1782.205z" fill="none" stroke="#aac072" stroke-opacity="0.32" stroke-width="12.00" stroke-linejoin="round" stroke-linecap="round" transform="translate(115 178) scale(0.15000) translate(-1000.00 -1000.01)"></path><path d="M25.46 62.18L25.46 62.18Q22.72 62.18 20.62 61.20Q18.52 60.22 17.34 58.39Q16.15 56.57 16.15 53.99L16.15 53.99L16.15 53.05L20.55 53.05L20.55 53.99Q20.55 56.13 21.87 57.19Q23.19 58.26 25.46 58.26L25.46 58.26Q27.76 58.26 28.89 57.34Q30.03 56.43 30.03 55.01L30.03 55.01Q30.03 54.03 29.47 53.42Q28.91 52.81 27.84 52.42Q26.78 52.03 25.25 51.69L25.25 51.69L24.48 51.52Q22.04 50.98 20.30 50.15Q18.55 49.32 17.62 47.97Q16.69 46.62 16.69 44.45L16.69 44.45Q16.69 42.28 17.72 40.74Q18.76 39.20 20.63 38.38Q22.51 37.55 25.05 37.55L25.05 37.55Q27.59 37.55 29.57 38.41Q31.55 39.27 32.68 40.98Q33.82 42.69 33.82 45.26L33.82 45.26L33.82 46.28L29.42 46.28L29.42 45.26Q29.42 43.91 28.89 43.08Q28.37 42.25 27.39 41.86Q26.40 41.47 25.05 41.47L25.05 41.47Q23.02 41.47 22.06 42.23Q21.09 42.99 21.09 44.31L21.09 44.31Q21.09 45.19 21.55 45.80Q22.01 46.41 22.92 46.82Q23.83 47.23 25.25 47.53L25.25 47.53L26.03 47.70Q28.57 48.24 30.45 49.09Q32.33 49.93 33.38 51.32Q34.42 52.71 34.42 54.87L34.42 54.87Q34.42 57.04 33.32 58.68Q32.23 60.32 30.21 61.25Q28.20 62.18 25.46 62.18Z M43.09 62.18L43.09 62.18Q41.29 62.18 39.87 61.56Q38.45 60.93 37.62 59.73Q36.79 58.53 36.79 56.80L36.79 56.80Q36.79 55.08 37.62 53.91Q38.45 52.74 39.92 52.15Q41.40 51.56 43.29 51.56L43.29 51.56L47.89 51.56L47.89 50.61Q47.89 49.42 47.15 48.66Q46.40 47.90 44.78 47.90L44.78 47.90Q43.19 47.90 42.41 48.63Q41.63 49.36 41.40 50.51L41.40 50.51L37.47 49.19Q37.88 47.90 38.77 46.84Q39.67 45.77 41.18 45.11Q42.68 44.45 44.85 44.45L44.85 44.45Q48.16 44.45 50.09 46.11Q52.02 47.77 52.02 50.91L52.02 50.91L52.02 57.17Q52.02 58.19 52.97 58.19L52.97 58.19L54.32 58.19L54.32 61.71L51.48 61.71Q50.23 61.71 49.42 61.10Q48.60 60.49 48.60 59.48L48.60 59.48L48.60 59.44L47.96 59.44Q47.83 59.85 47.35 60.51Q46.88 61.17 45.86 61.68Q44.85 62.18 43.09 62.18ZM43.83 58.73L43.83 58.73Q45.63 58.73 46.76 57.73Q47.89 56.73 47.89 55.08L47.89 55.08L47.89 54.74L43.60 54.74Q42.41 54.74 41.73 55.25Q41.06 55.75 41.06 56.67L41.06 56.67Q41.06 57.58 41.77 58.16Q42.48 58.73 43.83 58.73Z M61.70 61.71L57.44 61.71L57.44 44.92L61.63 44.92L61.63 47.12L62.24 47.12Q62.65 46.24 63.76 45.45Q64.88 44.65 67.15 44.65L67.15 44.65Q69.11 44.65 70.58 45.55Q72.06 46.45 72.87 48.02Q73.68 49.59 73.68 51.69L73.68 51.69L73.68 61.71L69.42 61.71L69.42 52.03Q69.42 50.14 68.49 49.19Q67.55 48.24 65.83 48.24L65.83 48.24Q63.87 48.24 62.78 49.54Q61.70 50.85 61.70 53.18L61.70 53.18L61.70 61.71Z M82.55 61.71L78.28 61.71L78.28 38.02L82.55 38.02L82.55 51.12L83.16 51.12L88.71 44.92L94.26 44.92L86.51 53.05L94.53 61.71L89.04 61.71L83.16 55.04L82.55 55.04L82.55 61.71Z M108.54 61.71L103.80 61.71Q102.14 61.71 101.11 60.68Q100.08 59.64 100.08 57.92L100.08 57.92L100.08 48.44L95.88 48.44L95.88 44.92L100.08 44.92L100.08 39.71L104.34 39.71L104.34 44.92L108.94 44.92L108.94 48.44L104.34 48.44L104.34 57.17Q104.34 58.19 105.29 58.19L105.29 58.19L108.54 58.19L108.54 61.71Z  M130.47 62.18L130.47 62.18Q126.00 62.18 123.36 59.73Q120.72 57.28 120.72 52.71L120.72 52.71L120.72 47.02Q120.72 42.45 123.36 40Q126.00 37.55 130.47 37.55L130.47 37.55Q134.93 37.55 137.57 40Q140.21 42.45 140.21 47.02L140.21 47.02L140.21 52.71Q140.21 57.28 137.57 59.73Q134.93 62.18 130.47 62.18ZM130.47 58.19L130.47 58.19Q132.97 58.19 134.36 56.73Q135.74 55.28 135.74 52.84L135.74 52.84L135.74 46.89Q135.74 44.45 134.36 42.99Q132.97 41.54 130.47 41.54L130.47 41.54Q127.99 41.54 126.59 42.99Q125.19 44.45 125.19 46.89L125.19 46.89L125.19 52.84Q125.19 55.28 126.59 56.73Q127.99 58.19 130.47 58.19ZM135.58 67.80L132.02 67.80Q130.36 67.80 129.33 66.77Q128.30 65.74 128.30 64.01L128.30 64.01L128.30 61.71L132.63 61.71L132.63 63.33Q132.63 64.35 133.58 64.35L133.58 64.35L135.58 64.35L135.58 67.80Z M150.67 61.98L150.67 61.98Q148.71 61.98 147.23 61.08Q145.76 60.19 144.95 58.60Q144.14 57.01 144.14 54.94L144.14 54.94L144.14 44.92L148.40 44.92L148.40 54.60Q148.40 56.50 149.33 57.45Q150.26 58.39 151.99 58.39L151.99 58.39Q153.95 58.39 155.03 57.09Q156.12 55.79 156.12 53.45L156.12 53.45L156.12 44.92L160.38 44.92L160.38 61.71L156.18 61.71L156.18 59.51L155.58 59.51Q155.17 60.36 154.05 61.17Q152.94 61.98 150.67 61.98Z M169.38 61.71L165.12 61.71L165.12 44.92L169.38 44.92L169.38 61.71ZM167.25 42.96L167.25 42.96Q166.10 42.96 165.30 42.22Q164.51 41.47 164.51 40.25L164.51 40.25Q164.51 39.04 165.30 38.29Q166.10 37.55 167.25 37.55L167.25 37.55Q168.43 37.55 169.21 38.29Q169.99 39.04 169.99 40.25L169.99 40.25Q169.99 41.47 169.21 42.22Q168.43 42.96 167.25 42.96Z M178.38 61.71L174.12 61.71L174.12 44.92L178.32 44.92L178.32 46.82L178.93 46.82Q179.30 45.80 180.16 45.33Q181.02 44.86 182.17 44.86L182.17 44.86L184.20 44.86L184.20 48.65L182.11 48.65Q180.48 48.65 179.43 49.51Q178.38 50.37 178.38 52.17L178.38 52.17L178.38 61.71Z M191.79 61.71L187.52 61.71L187.52 44.92L191.79 44.92L191.79 61.71ZM189.65 42.96L189.65 42.96Q188.50 42.96 187.71 42.22Q186.91 41.47 186.91 40.25L186.91 40.25Q186.91 39.04 187.71 38.29Q188.50 37.55 189.65 37.55L189.65 37.55Q190.84 37.55 191.62 38.29Q192.39 39.04 192.39 40.25L192.39 40.25Q192.39 41.47 191.62 42.22Q190.84 42.96 189.65 42.96Z M200.79 61.71L196.52 61.71L196.52 44.92L200.72 44.92L200.72 47.12L201.33 47.12Q201.73 46.24 202.85 45.45Q203.97 44.65 206.24 44.65L206.24 44.65Q208.20 44.65 209.67 45.55Q211.14 46.45 211.95 48.02Q212.77 49.59 212.77 51.69L212.77 51.69L212.77 61.71L208.50 61.71L208.50 52.03Q208.50 50.14 207.57 49.19Q206.64 48.24 204.92 48.24L204.92 48.24Q202.95 48.24 201.87 49.54Q200.79 50.85 200.79 53.18L200.79 53.18L200.79 61.71Z" fill="#f1ece2"></path><path d="M62.03 83.78L62.03 83.78Q61.23 83.78 60.56 83.39Q59.88 83.00 59.47 82.27Q59.06 81.53 59.06 80.49L59.06 80.49L59.06 80.30Q59.06 79.27 59.46 78.53Q59.87 77.79 60.54 77.40Q61.22 77.01 62.03 77.01L62.03 77.01Q62.65 77.01 63.07 77.17Q63.49 77.32 63.77 77.56Q64.04 77.80 64.18 78.06L64.18 78.06L64.39 78.06L64.39 74.50L65.73 74.50L65.73 83.60L64.42 83.60L64.42 82.69L64.21 82.69Q63.96 83.11 63.46 83.45Q62.96 83.78 62.03 83.78ZM62.40 82.61L62.40 82.61Q63.27 82.61 63.84 82.05Q64.40 81.50 64.40 80.46L64.40 80.46L64.40 80.34Q64.40 79.31 63.85 78.75Q63.29 78.19 62.40 78.19L62.40 78.19Q61.54 78.19 60.98 78.75Q60.41 79.31 60.41 80.34L60.41 80.34L60.41 80.46Q60.41 81.50 60.98 82.05Q61.54 82.61 62.40 82.61Z M70.70 83.78L70.70 83.78Q70.01 83.78 69.47 83.55Q68.93 83.32 68.61 82.86Q68.29 82.41 68.29 81.76L68.29 81.76Q68.29 81.09 68.61 80.66Q68.93 80.22 69.48 80.00Q70.03 79.78 70.73 79.78L70.73 79.78L72.68 79.78L72.68 79.36Q72.68 78.80 72.35 78.47Q72.01 78.13 71.31 78.13L71.31 78.13Q70.62 78.13 70.25 78.45Q69.89 78.78 69.77 79.30L69.77 79.30L68.52 78.90Q68.68 78.38 69.02 77.95Q69.37 77.53 69.94 77.27Q70.51 77.01 71.32 77.01L71.32 77.01Q72.57 77.01 73.28 77.65Q74.00 78.28 74.00 79.45L74.00 79.45L74.00 82.09Q74.00 82.48 74.36 82.48L74.36 82.48L74.91 82.48L74.91 83.60L73.91 83.60Q73.45 83.60 73.17 83.37Q72.88 83.13 72.88 82.73L72.88 82.73L72.88 82.69L72.68 82.69Q72.58 82.89 72.37 83.15Q72.16 83.41 71.76 83.59Q71.36 83.78 70.70 83.78ZM70.89 82.68L70.89 82.68Q71.70 82.68 72.19 82.22Q72.68 81.76 72.68 80.95L72.68 80.95L72.68 80.82L70.81 80.82Q70.28 80.82 69.95 81.05Q69.63 81.27 69.63 81.72L69.63 81.72Q69.63 82.16 69.97 82.42Q70.31 82.68 70.89 82.68Z  M85.23 83.78L85.23 83.78Q84.29 83.78 83.79 83.45Q83.29 83.11 83.04 82.69L83.04 82.69L82.84 82.69L82.84 83.60L81.52 83.60L81.52 74.50L82.86 74.50L82.86 78.06L83.07 78.06Q83.23 77.80 83.49 77.56Q83.75 77.32 84.17 77.17Q84.60 77.01 85.23 77.01L85.23 77.01Q86.03 77.01 86.71 77.40Q87.39 77.79 87.79 78.53Q88.19 79.27 88.19 80.30L88.19 80.30L88.19 80.49Q88.19 81.53 87.78 82.27Q87.37 83.00 86.70 83.39Q86.03 83.78 85.23 83.78ZM84.84 82.61L84.84 82.61Q85.71 82.61 86.27 82.05Q86.84 81.50 86.84 80.46L86.84 80.46L86.84 80.34Q86.84 79.31 86.28 78.75Q85.72 78.19 84.84 78.19L84.84 78.19Q83.98 78.19 83.41 78.75Q82.85 79.31 82.85 80.34L82.85 80.34L82.85 80.46Q82.85 81.50 83.41 82.05Q83.98 82.61 84.84 82.61Z M92.19 83.60L90.86 83.60L90.86 77.19L92.19 77.19L92.19 83.60ZM91.53 76.32L91.53 76.32Q91.14 76.32 90.87 76.07Q90.61 75.81 90.61 75.41L90.61 75.41Q90.61 75.01 90.87 74.75Q91.14 74.50 91.53 74.50L91.53 74.50Q91.93 74.50 92.19 74.75Q92.45 75.01 92.45 75.41L92.45 75.41Q92.45 75.81 92.19 76.07Q91.93 76.32 91.53 76.32Z M96.52 83.60L95.18 83.60L95.18 77.19L96.50 77.19L96.50 78.15L96.70 78.15Q96.89 77.76 97.35 77.43Q97.82 77.09 98.75 77.09L98.75 77.09Q99.47 77.09 100.04 77.41Q100.60 77.74 100.93 78.33Q101.25 78.92 101.25 79.75L101.25 79.75L101.25 83.60L99.92 83.60L99.92 79.86Q99.92 79.03 99.50 78.63Q99.08 78.23 98.36 78.23L98.36 78.23Q97.52 78.23 97.02 78.78Q96.52 79.32 96.52 80.36L96.52 80.36L96.52 83.60Z  M109.83 83.60L108.49 83.60L108.49 77.19L109.83 77.19L109.83 83.60ZM109.17 76.32L109.17 76.32Q108.78 76.32 108.51 76.07Q108.25 75.81 108.25 75.41L108.25 75.41Q108.25 75.01 108.51 74.75Q108.78 74.50 109.17 74.50L109.17 74.50Q109.57 74.50 109.83 74.75Q110.09 75.01 110.09 75.41L110.09 75.41Q110.09 75.81 109.83 76.07Q109.57 76.32 109.17 76.32Z  M119.79 83.78L119.79 83.78Q119.00 83.78 118.32 83.39Q117.64 83.00 117.23 82.27Q116.82 81.53 116.82 80.49L116.82 80.49L116.82 80.30Q116.82 79.27 117.23 78.53Q117.63 77.79 118.31 77.40Q118.98 77.01 119.79 77.01L119.79 77.01Q120.41 77.01 120.83 77.17Q121.26 77.32 121.53 77.56Q121.80 77.80 121.95 78.06L121.95 78.06L122.15 78.06L122.15 74.50L123.49 74.50L123.49 83.60L122.18 83.60L122.18 82.69L121.97 82.69Q121.73 83.11 121.22 83.45Q120.72 83.78 119.79 83.78ZM120.17 82.61L120.17 82.61Q121.04 82.61 121.60 82.05Q122.17 81.50 122.17 80.46L122.17 80.46L122.17 80.34Q122.17 79.31 121.61 78.75Q121.05 78.19 120.17 78.19L120.17 78.19Q119.31 78.19 118.74 78.75Q118.18 79.31 118.18 80.34L118.18 80.34L118.18 80.46Q118.18 81.50 118.74 82.05Q119.31 82.61 120.17 82.61Z M128.46 83.78L128.46 83.78Q127.77 83.78 127.23 83.55Q126.69 83.32 126.37 82.86Q126.05 82.41 126.05 81.76L126.05 81.76Q126.05 81.09 126.37 80.66Q126.69 80.22 127.24 80.00Q127.80 79.78 128.50 79.78L128.50 79.78L130.45 79.78L130.45 79.36Q130.45 78.80 130.11 78.47Q129.77 78.13 129.07 78.13L129.07 78.13Q128.38 78.13 128.02 78.45Q127.65 78.78 127.54 79.30L127.54 79.30L126.29 78.90Q126.44 78.38 126.79 77.95Q127.13 77.53 127.70 77.27Q128.28 77.01 129.08 77.01L129.08 77.01Q130.33 77.01 131.05 77.65Q131.76 78.28 131.76 79.45L131.76 79.45L131.76 82.09Q131.76 82.48 132.12 82.48L132.12 82.48L132.67 82.48L132.67 83.60L131.67 83.60Q131.21 83.60 130.93 83.37Q130.64 83.13 130.64 82.73L130.64 82.73L130.64 82.69L130.45 82.69Q130.34 82.89 130.14 83.15Q129.93 83.41 129.52 83.59Q129.12 83.78 128.46 83.78ZM128.65 82.68L128.65 82.68Q129.46 82.68 129.95 82.22Q130.45 81.76 130.45 80.95L130.45 80.95L130.45 80.82L128.58 80.82Q128.04 80.82 127.72 81.05Q127.39 81.27 127.39 81.72L127.39 81.72Q127.39 82.16 127.73 82.42Q128.07 82.68 128.65 82.68Z M136.31 83.60L134.97 83.60L134.97 74.50L136.31 74.50L136.31 78.10L136.52 78.10Q136.65 77.86 136.89 77.62Q137.13 77.39 137.52 77.24Q137.92 77.09 138.53 77.09L138.53 77.09Q139.26 77.09 139.83 77.41Q140.39 77.74 140.72 78.33Q141.04 78.92 141.04 79.75L141.04 79.75L141.04 83.60L139.70 83.60L139.70 79.86Q139.70 79.03 139.29 78.63Q138.87 78.23 138.14 78.23L138.14 78.23Q137.31 78.23 136.81 78.78Q136.31 79.32 136.31 80.36L136.31 80.36L136.31 83.60Z M146.97 83.78L146.97 83.78Q146.01 83.78 145.26 83.39Q144.51 82.99 144.08 82.25Q143.65 81.51 143.65 80.49L143.65 80.49L143.65 80.30Q143.65 79.29 144.08 78.55Q144.51 77.82 145.26 77.41Q146.01 77.01 146.97 77.01L146.97 77.01Q147.93 77.01 148.68 77.41Q149.44 77.82 149.87 78.55Q150.30 79.29 150.30 80.30L150.30 80.30L150.30 80.49Q150.30 81.51 149.87 82.25Q149.44 82.99 148.68 83.39Q147.93 83.78 146.97 83.78ZM146.97 82.59L146.97 82.59Q147.85 82.59 148.41 82.02Q148.96 81.46 148.96 80.46L148.96 80.46L148.96 80.34Q148.96 79.34 148.41 78.77Q147.87 78.21 146.97 78.21L146.97 78.21Q146.10 78.21 145.54 78.77Q144.99 79.34 144.99 80.34L144.99 80.34L144.99 80.46Q144.99 81.46 145.54 82.02Q146.10 82.59 146.97 82.59Z M154.95 83.78L154.95 83.78Q154.26 83.78 153.72 83.55Q153.18 83.32 152.86 82.86Q152.54 82.41 152.54 81.76L152.54 81.76Q152.54 81.09 152.86 80.66Q153.18 80.22 153.73 80.00Q154.29 79.78 154.99 79.78L154.99 79.78L156.94 79.78L156.94 79.36Q156.94 78.80 156.60 78.47Q156.26 78.13 155.56 78.13L155.56 78.13Q154.87 78.13 154.51 78.45Q154.14 78.78 154.03 79.30L154.03 79.30L152.78 78.90Q152.93 78.38 153.28 77.95Q153.62 77.53 154.20 77.27Q154.77 77.01 155.57 77.01L155.57 77.01Q156.82 77.01 157.54 77.65Q158.25 78.28 158.25 79.45L158.25 79.45L158.25 82.09Q158.25 82.48 158.62 82.48L158.62 82.48L159.16 82.48L159.16 83.60L158.16 83.60Q157.71 83.60 157.42 83.37Q157.13 83.13 157.13 82.73L157.13 82.73L157.13 82.69L156.94 82.69Q156.83 82.89 156.63 83.15Q156.42 83.41 156.02 83.59Q155.61 83.78 154.95 83.78ZM155.14 82.68L155.14 82.68Q155.95 82.68 156.44 82.22Q156.94 81.76 156.94 80.95L156.94 80.95L156.94 80.82L155.07 80.82Q154.53 80.82 154.21 81.05Q153.88 81.27 153.88 81.72L153.88 81.72Q153.88 82.16 154.22 82.42Q154.56 82.68 155.14 82.68Z M162.80 83.60L161.46 83.60L161.46 77.19L162.77 77.19L162.77 77.95L162.98 77.95Q163.16 77.61 163.57 77.35Q163.97 77.09 164.66 77.09L164.66 77.09Q165.37 77.09 165.81 77.38Q166.25 77.67 166.47 78.13L166.47 78.13L166.67 78.13Q166.90 77.69 167.32 77.39Q167.74 77.09 168.52 77.09L168.52 77.09Q169.14 77.09 169.63 77.34Q170.11 77.60 170.39 78.10Q170.68 78.60 170.68 79.34L170.68 79.34L170.68 83.60L169.34 83.60L169.34 79.44Q169.34 78.86 169.02 78.54Q168.70 78.22 168.12 78.22L168.12 78.22Q167.49 78.22 167.12 78.62Q166.74 79.03 166.74 79.78L166.74 79.78L166.74 83.60L165.40 83.60L165.40 79.44Q165.40 78.86 165.08 78.54Q164.76 78.22 164.18 78.22L164.18 78.22Q163.55 78.22 163.18 78.62Q162.80 79.03 162.80 79.78L162.80 79.78L162.80 83.60Z" fill="#f1ece2" fill-opacity="0.7"></path><svg x="-17.50" y="110.09" width="258.46" height="132.82" viewBox="0 0 360 185" overflow="visible"><g fill="#f1ece2"><g transform="translate(64.98,0)"><path d="M22.88 133.59 L22.88 133.59 Q21.33 133.16 20.38 132.82 L20.38 132.82 L19.44 132.56 Q19.61 132.13 19.31 131.78 Q19.01 131.44 18.06 131.35 L18.06 131.35 Q16.77 130.49 15.39 128.95 Q14.02 127.40 12.99 125.76 Q11.95 124.13 11.61 123.36 L11.61 123.36 Q11.18 122.32 11.44 121.98 L11.44 121.98 Q11.52 121.81 11.70 121.72 L11.70 121.72 Q12.38 121.46 13.33 121.03 L13.33 121.03 Q14.28 120.35 15.35 120.00 Q16.43 119.66 17.11 121.12 L17.11 121.12 Q18.23 123.10 20.60 124.47 Q22.96 125.85 26.02 126.11 Q29.07 126.37 32.16 125.08 L32.16 125.08 Q34.23 124.13 34.40 122.45 Q34.57 120.78 33.11 118.54 L33.11 118.54 Q32.85 117.85 32.38 117.42 Q31.91 116.99 31.00 116.30 Q30.10 115.62 28.47 114.07 L28.47 114.07 Q27.18 113.47 26.10 112.95 Q25.03 112.43 23.82 111.83 L23.82 111.83 Q22.45 111.14 20.73 109.90 Q19.01 108.65 17.54 107.14 Q16.08 105.64 15.31 104.26 L15.31 104.26 Q13.93 102.97 13.59 100.69 Q13.24 98.42 13.72 95.84 Q14.19 93.26 15.31 91.19 L15.31 91.19 Q15.82 89.99 17.20 88.05 Q18.58 86.12 20.30 84.05 Q22.02 81.99 23.61 80.31 Q25.20 78.64 26.14 78.03 L26.14 78.03 Q26.83 77.35 27.61 76.57 L27.61 76.57 L28.38 75.88 Q28.47 75.45 28.72 75.45 L28.72 75.45 L28.90 75.45 Q29.33 75.20 30.79 74.59 Q32.25 73.99 33.97 72.36 L33.97 72.36 Q39.73 69.61 43.77 68.62 Q47.82 67.63 50.14 67.63 L50.14 67.63 Q52.29 67.71 54.35 68.79 Q56.42 69.86 57.92 71.50 Q59.43 73.13 59.68 75.20 L59.68 75.20 Q60.29 77.26 59.13 80.14 Q57.96 83.02 55.94 85.56 Q53.92 88.10 51.77 89.30 L51.77 89.30 Q49.36 90.33 47.69 89.56 Q46.01 88.78 46.10 87.15 L46.10 87.15 Q46.10 86.46 46.57 85.52 Q47.04 84.57 49.19 82.16 L49.19 82.16 Q51.94 78.12 52.12 76.40 Q52.29 74.68 50.57 74.42 L50.57 74.42 Q50.05 74.25 48.59 74.51 Q47.13 74.77 45.45 75.15 Q43.77 75.54 42.53 75.97 Q41.28 76.40 41.28 76.57 L41.28 76.57 L41.28 76.83 Q41.28 76.92 41.19 77.00 L41.19 77.00 Q41.19 77.09 40.94 77.00 L40.94 77.00 Q40.76 77.00 39.78 77.56 Q38.79 78.12 37.41 78.98 Q36.03 79.84 34.70 80.74 Q33.37 81.65 32.42 82.33 Q31.48 83.02 31.39 83.19 L31.39 83.19 Q31.22 84.14 29.41 84.91 L29.41 84.91 Q27.69 85.95 26.40 87.84 Q25.11 89.73 23.39 92.65 L23.39 92.65 Q21.93 94.63 21.33 96.91 Q20.73 99.19 21.33 100.57 L21.33 100.57 Q21.76 101.94 23.69 103.28 Q25.63 104.61 28.98 106.59 L28.98 106.59 Q31.91 108.22 34.49 110.03 Q37.07 111.83 38.87 113.51 Q40.68 115.19 41.19 116.30 L41.19 116.30 Q42.23 117.77 42.44 119.66 Q42.66 121.55 42.44 123.31 Q42.23 125.08 41.88 126.19 L41.88 126.19 Q41.28 127.57 40.03 129.12 Q38.79 130.67 37.75 130.58 L37.75 130.58 Q36.81 130.84 36.34 131.18 Q35.86 131.53 35.26 131.78 L35.26 131.78 Q34.66 132.13 32.42 132.60 Q30.19 133.07 27.52 133.38 Q24.85 133.68 22.88 133.59 Z M67.77 126.28 L67.77 126.28 Q65.19 127.74 62.31 127.96 Q59.43 128.17 56.93 127.18 Q54.44 126.19 52.89 124.22 L52.89 124.22 Q52.03 123.10 51.26 120.65 Q50.48 118.20 51.00 113.98 L51.00 113.98 Q51.51 110.03 53.45 105.98 Q55.38 101.94 58.22 98.85 Q61.06 95.75 64.41 94.63 L64.41 94.63 Q65.62 94.20 66.86 93.99 Q68.11 93.77 70.18 93.94 L70.18 93.94 Q72.15 94.20 73.70 94.93 Q75.25 95.66 75.94 96.52 L75.94 96.52 Q77.31 97.90 77.74 99.19 Q78.17 100.48 78.09 101.68 L78.09 101.68 Q77.66 104.44 75.64 107.62 Q73.62 110.80 70.00 112.35 L70.00 112.35 Q68.54 112.95 66.56 113.12 Q64.59 113.29 61.15 112.61 L61.15 112.61 Q59.08 112.18 58.44 113.04 Q57.79 113.90 57.88 116.39 L57.88 116.39 Q58.05 117.94 58.61 119.10 Q59.17 120.26 60.72 120.69 L60.72 120.69 Q62.69 121.03 63.55 120.73 Q64.41 120.43 65.70 119.83 L65.70 119.83 Q66.39 119.40 67.08 118.88 L67.08 118.88 L68.37 117.85 Q68.97 117.34 69.40 117.08 L69.40 117.08 Q69.83 116.73 70.26 116.65 Q70.69 116.56 71.12 116.56 L71.12 116.56 Q72.07 116.65 72.93 117.59 Q73.79 118.54 74.05 119.40 L74.05 119.40 Q74.05 120.09 73.19 121.33 Q72.33 122.58 70.91 123.92 Q69.49 125.25 67.77 126.28 Z M66.65 107.10 L66.65 107.10 Q67.25 106.84 68.41 105.90 Q69.57 104.95 70.52 103.88 Q71.47 102.80 71.47 102.20 L71.47 102.20 Q71.47 101.25 70.22 100.57 Q68.97 99.88 66.99 100.31 L66.99 100.31 Q66.31 100.48 65.36 101.25 Q64.41 102.03 63.47 103.02 Q62.52 104.01 61.83 104.91 Q61.15 105.81 60.89 106.33 L60.89 106.33 Q61.23 106.76 62.26 107.02 Q63.30 107.27 64.54 107.27 Q65.79 107.27 66.65 107.10 Z M96.49 126.28 L96.49 126.28 Q93.91 127.74 91.03 127.96 Q88.15 128.17 85.66 127.18 Q83.16 126.19 81.61 124.22 L81.61 124.22 Q80.75 123.10 79.98 120.65 Q79.21 118.20 79.72 113.98 L79.72 113.98 Q80.24 110.03 82.17 105.98 Q84.11 101.94 86.95 98.85 Q89.78 95.75 93.14 94.63 L93.14 94.63 Q94.34 94.20 95.59 93.99 Q96.84 93.77 98.90 93.94 L98.90 93.94 Q100.88 94.20 102.43 94.93 Q103.97 95.66 104.66 96.52 L104.66 96.52 Q106.04 97.90 106.47 99.19 Q106.90 100.48 106.81 101.68 L106.81 101.68 Q106.38 104.44 104.36 107.62 Q102.34 110.80 98.73 112.35 L98.73 112.35 Q97.27 112.95 95.29 113.12 Q93.31 113.29 89.87 112.61 L89.87 112.61 Q87.81 112.18 87.16 113.04 Q86.52 113.90 86.60 116.39 L86.60 116.39 Q86.77 117.94 87.33 119.10 Q87.89 120.26 89.44 120.69 L89.44 120.69 Q91.42 121.03 92.28 120.73 Q93.14 120.43 94.43 119.83 L94.43 119.83 Q95.12 119.40 95.80 118.88 L95.80 118.88 L97.09 117.85 Q97.70 117.34 98.13 117.08 L98.13 117.08 Q98.56 116.73 98.99 116.65 Q99.42 116.56 99.85 116.56 L99.85 116.56 Q100.79 116.65 101.65 117.59 Q102.51 118.54 102.77 119.40 L102.77 119.40 Q102.77 120.09 101.91 121.33 Q101.05 122.58 99.63 123.92 Q98.21 125.25 96.49 126.28 Z M95.37 107.10 L95.37 107.10 Q95.98 106.84 97.14 105.90 Q98.30 104.95 99.24 103.88 Q100.19 102.80 100.19 102.20 L100.19 102.20 Q100.19 101.25 98.94 100.57 Q97.70 99.88 95.72 100.31 L95.72 100.31 Q95.03 100.48 94.08 101.25 Q93.14 102.03 92.19 103.02 Q91.25 104.01 90.56 104.91 Q89.87 105.81 89.61 106.33 L89.61 106.33 Q89.96 106.76 90.99 107.02 Q92.02 107.27 93.27 107.27 Q94.51 107.27 95.37 107.10 Z M118.42 145.20 L118.42 145.20 Q116.01 146.15 113.39 144.90 Q110.77 143.65 108.88 140.99 L108.88 140.99 Q108.53 140.47 107.84 139.14 Q107.16 137.80 106.51 136.26 Q105.87 134.71 105.56 133.59 Q105.26 132.47 105.52 132.30 L105.52 132.30 Q105.87 131.35 107.07 131.18 Q108.27 131.01 109.48 131.31 Q110.68 131.61 110.85 132.13 L110.85 132.13 Q111.11 132.73 111.37 133.38 Q111.63 134.02 112.01 134.58 Q112.40 135.14 112.75 135.57 L112.75 135.57 Q113.69 137.03 114.81 137.59 Q115.93 138.15 116.53 137.72 L116.53 137.72 Q117.99 136.60 118.72 135.09 Q119.45 133.59 120.66 129.81 L120.66 129.81 Q121.60 126.62 122.29 124.30 Q122.98 121.98 123.75 120.00 L123.75 120.00 Q124.01 118.97 124.44 118.20 L124.44 118.20 Q124.53 118.02 124.61 117.85 L124.61 117.85 Q123.41 118.71 122.46 119.57 L122.46 119.57 Q121.17 120.78 118.94 121.72 L118.94 121.72 Q118.42 122.32 116.40 122.45 Q114.38 122.58 112.49 121.98 L112.49 121.98 Q111.28 121.29 110.55 120.56 Q109.82 119.83 109.35 118.88 Q108.88 117.94 108.36 116.65 L108.36 116.65 Q107.76 115.36 108.19 112.43 Q108.62 109.51 109.74 106.59 L109.74 106.59 Q110.77 104.44 112.75 101.94 Q114.72 99.45 116.96 97.43 Q119.20 95.41 121.00 94.89 L121.00 94.89 Q121.69 94.55 123.41 94.07 Q125.13 93.60 126.68 94.03 L126.68 94.03 Q128.14 94.20 128.91 94.67 Q129.69 95.15 131.41 96.61 L131.41 96.61 Q132.53 97.73 134.16 99.49 Q135.79 101.25 136.22 102.46 L136.22 102.46 Q136.83 103.75 136.48 105.25 Q136.14 106.76 135.28 107.88 L135.28 107.88 Q134.50 108.99 133.64 110.11 Q132.78 111.23 132.35 113.21 L132.35 113.21 Q131.92 115.79 130.72 119.01 Q129.52 122.24 128.83 124.99 L128.83 124.99 L127.45 130.32 Q125.30 137.63 122.72 140.94 Q120.14 144.25 118.42 145.20 Z M116.62 115.62 L116.62 115.62 Q118.34 115.53 119.58 115.23 Q120.83 114.93 121.95 113.85 Q123.07 112.78 124.53 110.54 L124.53 110.54 Q125.99 108.48 126.59 106.76 Q127.19 105.04 127.02 102.89 L127.02 102.89 Q126.94 101.51 126.25 101.08 Q125.56 100.65 124.44 100.82 L124.44 100.82 Q122.81 101.08 121.52 102.16 Q120.23 103.23 118.51 105.47 L118.51 105.47 Q117.22 107.19 116.36 109.60 L116.36 109.60 Q115.50 112.18 115.63 113.72 Q115.76 115.27 116.62 115.62 Z M143.88 138.41 L143.88 138.41 Q143.36 138.75 141.56 137.59 Q139.75 136.43 138.55 135.05 L138.55 135.05 Q137.94 134.36 137.77 133.59 Q137.60 132.82 137.86 130.67 L137.86 130.67 Q138.20 129.72 138.24 128.86 Q138.29 128.00 138.29 127.66 L138.29 127.66 Q138.29 127.14 138.59 125.25 Q138.89 123.36 139.23 121.25 Q139.58 119.14 139.84 118.02 L139.84 118.02 Q139.84 117.94 139.96 117.42 Q140.09 116.91 140.18 116.65 L140.18 116.65 Q140.35 115.87 140.61 114.76 Q140.87 113.64 141.13 111.75 L141.13 111.75 Q141.81 109.60 142.29 107.49 Q142.76 105.38 142.76 104.61 L142.76 104.61 Q142.76 103.06 143.96 102.37 L143.96 102.37 Q144.05 101.94 144.48 101.04 Q144.91 100.14 145.25 99.53 L145.25 99.53 Q146.97 94.63 148.09 91.71 Q149.21 88.78 150.41 86.63 L150.41 86.63 Q150.93 85.17 151.57 83.62 Q152.22 82.08 152.91 81.22 L152.91 81.22 Q153.51 80.01 155.01 78.25 Q156.52 76.49 158.24 74.85 Q159.96 73.22 160.99 72.44 L160.99 72.44 Q162.88 71.50 164.52 70.90 Q166.15 70.29 167.96 70.29 L167.96 70.29 Q169.59 70.29 170.84 71.03 Q172.09 71.76 174.58 73.99 L174.58 73.99 Q175.44 75.11 175.44 76.14 Q175.44 77.17 175.01 77.86 L175.01 77.86 Q174.41 79.24 173.20 81.26 Q172.00 83.28 170.88 84.87 Q169.76 86.46 169.25 86.55 L169.25 86.55 Q168.22 87.15 167.10 86.89 Q165.98 86.63 165.98 85.34 L165.98 85.34 Q165.98 84.74 166.07 84.23 L166.07 84.23 L166.07 83.71 Q166.32 82.59 166.71 81.73 Q167.10 80.87 167.44 80.27 L167.44 80.27 Q168.13 79.15 167.83 78.12 Q167.53 77.09 165.64 77.26 L165.64 77.26 Q165.38 77.43 164.65 78.08 Q163.92 78.72 163.10 79.54 Q162.28 80.36 161.68 81.09 Q161.08 81.82 161.08 82.08 L161.08 82.08 L160.65 82.94 Q160.13 83.88 159.19 85.00 L159.19 85.00 Q158.58 85.86 158.15 86.63 Q157.72 87.41 157.72 87.84 L157.72 87.84 Q157.72 88.18 157.64 88.44 Q157.55 88.70 157.21 88.70 L157.21 88.70 L156.95 89.56 Q156.61 90.42 155.92 91.62 L155.92 91.62 Q155.57 92.48 155.19 93.21 Q154.80 93.94 154.46 94.29 L154.46 94.29 L154.37 94.46 L154.03 95.41 Q153.60 96.44 153.17 97.47 Q152.74 98.50 152.74 98.67 L152.74 98.67 Q152.74 99.02 153.77 99.02 Q154.80 99.02 156.26 98.72 Q157.72 98.42 159.10 98.07 L159.10 98.07 Q160.30 97.73 160.82 97.73 Q161.34 97.73 162.45 98.07 L162.45 98.07 Q163.14 98.50 163.57 99.58 Q164.00 100.65 164.22 101.73 Q164.43 102.80 164.26 103.32 L164.26 103.32 Q164.17 103.66 162.32 104.26 Q160.48 104.87 158.67 105.21 L158.67 105.21 Q157.12 105.55 155.19 105.94 Q153.25 106.33 151.79 106.72 Q150.33 107.10 150.24 107.45 L150.24 107.45 Q149.90 107.45 149.68 107.88 Q149.47 108.31 149.47 108.65 L149.47 108.65 Q149.47 109.77 149.04 110.46 L149.04 110.46 Q148.87 110.97 148.48 112.56 Q148.09 114.15 147.70 116.00 Q147.32 117.85 147.02 119.44 Q146.72 121.03 146.72 121.55 L146.72 121.55 Q146.20 122.15 146.11 123.06 Q146.03 123.96 146.03 124.65 L146.03 124.65 Q145.68 125.33 145.60 125.89 Q145.51 126.45 145.51 126.80 L145.51 126.80 L145.51 127.14 Q145.51 127.40 145.43 127.66 L145.43 127.66 Q145.34 128.52 145.21 129.94 Q145.08 131.35 145.08 132.73 L145.08 132.73 L144.82 135.22 Q144.74 136.34 144.52 137.16 Q144.31 137.98 143.88 138.41 Z M186.02 127.83 L186.02 127.83 Q185.16 126.97 184.64 125.46 Q184.13 123.96 183.61 121.98 L183.61 121.98 Q183.44 121.29 183.48 120.43 Q183.52 119.57 183.44 119.06 L183.44 119.06 Q183.18 119.66 182.62 120.60 Q182.06 121.55 181.55 121.98 L181.55 121.98 Q181.20 122.32 180.00 123.31 Q178.79 124.30 177.59 124.90 L177.59 124.90 Q174.75 126.71 172.56 126.58 Q170.37 126.45 168.73 124.39 L168.73 124.39 Q167.36 123.27 166.50 121.55 Q165.64 119.83 166.15 117.42 L166.15 117.42 Q166.32 114.41 167.01 111.53 Q167.70 108.65 169.85 103.83 L169.85 103.83 Q171.66 100.31 172.60 98.33 Q173.55 96.35 173.81 96.01 L173.81 96.01 Q175.10 95.58 176.99 96.05 Q178.88 96.52 179.05 97.73 L179.05 97.73 Q179.57 98.59 179.05 100.95 Q178.54 103.32 176.99 106.33 L176.99 106.33 Q175.78 109.25 174.71 112.00 Q173.63 114.76 173.42 116.65 Q173.20 118.54 174.41 118.97 L174.41 118.97 Q175.18 119.40 176.69 118.88 Q178.19 118.37 180.26 115.79 Q182.32 113.21 184.64 107.62 L184.64 107.62 Q185.33 105.90 185.67 104.56 Q186.02 103.23 186.10 101.60 L186.10 101.60 Q185.93 100.57 186.66 99.45 Q187.39 98.33 188.43 97.73 L188.43 97.73 Q188.77 97.30 189.37 96.87 L189.37 96.87 Q189.80 96.61 189.97 96.78 L189.97 96.78 Q190.06 96.78 190.15 96.95 L190.15 96.95 L191.52 96.87 Q191.87 96.78 192.30 97.56 Q192.73 98.33 193.16 98.67 L193.16 98.67 Q194.10 99.45 194.02 102.03 Q193.93 104.61 191.95 109.25 L191.95 109.25 Q190.32 112.78 189.76 114.58 Q189.20 116.39 189.11 118.11 L189.11 118.11 Q189.11 119.66 189.37 120.73 Q189.63 121.81 190.92 122.93 L190.92 122.93 Q191.87 123.53 191.99 124.95 Q192.12 126.37 192.04 127.40 L192.04 127.40 Q191.87 128.17 190.70 128.47 Q189.54 128.77 188.21 128.60 Q186.88 128.43 186.02 127.83 Z M197.80 126.54 L197.80 126.54 Q197.11 125.85 196.81 124.47 Q196.51 123.10 196.60 121.77 Q196.68 120.43 197.03 119.74 L197.03 119.74 Q197.03 119.06 197.24 118.67 Q197.46 118.28 197.37 117.94 L197.37 117.94 Q197.28 117.59 197.54 116.73 Q197.80 115.87 198.06 115.10 L198.06 115.10 Q198.66 113.72 199.43 111.53 Q200.21 109.34 200.98 107.06 Q201.76 104.78 202.27 103.10 Q202.79 101.43 202.87 101.08 L202.87 101.08 Q202.87 100.05 204.25 99.96 L204.25 99.96 Q205.28 99.62 206.74 100.82 Q208.21 102.03 209.07 103.40 L209.07 103.40 Q209.75 104.09 209.58 105.21 Q209.41 106.33 208.46 108.39 L208.46 108.39 Q208.12 109.08 207.65 110.67 Q207.17 112.26 207.00 113.29 L207.00 113.29 Q206.66 113.98 206.18 115.23 Q205.71 116.48 205.37 117.59 L205.37 117.59 Q205.20 118.02 205.02 119.19 Q204.85 120.35 204.59 121.55 Q204.34 122.75 203.91 123.44 L203.91 123.44 Q203.13 126.97 201.20 127.57 Q199.26 128.17 197.80 126.54 Z " fill="#f1ece2"></path><defs><mask id="hm2" maskUnits="userSpaceOnUse"><path d="M0,3 C0,-3 -9,-6 -9,-13 C-9,-19 -2,-20 0,-14 C2,-20 9,-19 9,-13 C9,-6 0,-3 0,3 Z" fill="#fff"></path><path d="M-7.5,-8 q2.5,-3.4 5,0 t5,0 t5,0" fill="none" stroke="#000" stroke-width="2.1" stroke-linecap="round"></path></mask></defs><g transform="translate(210.40,95.23) rotate(12) scale(0.940)"><path d="M0,3 C0,-3 -9,-6 -9,-13 C-9,-19 -2,-20 0,-14 C2,-20 9,-19 9,-13 C9,-6 0,-3 0,3 Z" fill="#d23b34" mask="url(#hm2)"></path></g></g></g></svg><path d="M58.96 296.16L57.52 296.16L57.52 289.07L55.01 289.07L55.01 287.76L61.47 287.76L61.47 289.07L58.96 289.07L58.96 296.16Z M75.01 296.16L69.60 296.16L69.60 287.76L74.95 287.76L74.95 289.07L71.05 289.07L71.05 291.28L74.61 291.28L74.61 292.59L71.05 292.59L71.05 294.85L75.01 294.85L75.01 296.16Z M86.19 296.33L86.19 296.33Q85.30 296.33 84.60 295.94Q83.89 295.55 83.48 294.80Q83.07 294.05 83.07 292.96L83.07 292.96L83.07 290.97Q83.07 289.33 83.98 288.46Q84.89 287.59 86.43 287.59L86.43 287.59Q87.96 287.59 88.79 288.42Q89.62 289.24 89.62 290.63L89.62 290.63L89.62 290.68L88.20 290.68L88.20 290.58Q88.20 290.10 88.01 289.72Q87.82 289.33 87.42 289.11Q87.03 288.89 86.43 288.89L86.43 288.89Q85.54 288.89 85.03 289.44Q84.52 289.98 84.52 290.94L84.52 290.94L84.52 292.98Q84.52 293.93 85.03 294.49Q85.54 295.06 86.45 295.06L86.45 295.06Q87.36 295.06 87.78 294.57Q88.20 294.07 88.20 293.31L88.20 293.31L88.20 293.16L86.08 293.16L86.08 291.94L89.62 291.94L89.62 296.16L88.30 296.16L88.30 295.33L88.09 295.33Q88.00 295.55 87.79 295.78Q87.59 296.02 87.21 296.17Q86.83 296.33 86.19 296.33Z M103.61 296.16L98.20 296.16L98.20 287.76L103.55 287.76L103.55 289.07L99.65 289.07L99.65 291.28L103.22 291.28L103.22 292.59L99.65 292.59L99.65 294.85L103.61 294.85L103.61 296.16Z M113.33 296.16L111.87 296.16L111.87 287.76L115.46 287.76Q116.25 287.76 116.84 288.04Q117.43 288.31 117.76 288.81Q118.09 289.31 118.09 290.01L118.09 290.01L118.09 290.14Q118.09 290.92 117.72 291.39Q117.35 291.85 116.82 292.07L116.82 292.07L116.82 292.26Q117.29 292.29 117.56 292.59Q117.83 292.89 117.83 293.39L117.83 293.39L117.83 296.16L116.39 296.16L116.39 293.59Q116.39 293.29 116.22 293.11Q116.06 292.92 115.70 292.92L115.70 292.92L113.33 292.92L113.33 296.16ZM113.33 289.07L113.33 291.61L115.32 291.61Q115.94 291.61 116.30 291.28Q116.65 290.95 116.65 290.40L116.65 290.40L116.65 290.29Q116.65 289.73 116.30 289.40Q115.95 289.07 115.32 289.07L115.32 289.07L113.33 289.07Z M127.89 296.16L126.46 296.16L126.46 287.76L129.22 287.76L131.20 295.19L131.39 295.19L131.39 287.76L132.82 287.76L132.82 296.16L130.07 296.16L128.09 288.73L127.89 288.73L127.89 296.16Z M144.37 296.33L144.37 296.33Q143.41 296.33 142.67 295.99Q141.93 295.65 141.51 295.00Q141.09 294.35 141.09 293.41L141.09 293.41L141.09 293.10L142.52 293.10L142.52 293.41Q142.52 294.24 143.02 294.65Q143.53 295.06 144.37 295.06L144.37 295.06Q145.22 295.06 145.65 294.71Q146.08 294.36 146.08 293.81L146.08 293.81Q146.08 293.44 145.88 293.20Q145.67 292.97 145.28 292.83Q144.89 292.68 144.34 292.55L144.34 292.55L143.98 292.48Q143.15 292.29 142.55 291.99Q141.94 291.70 141.62 291.23Q141.29 290.76 141.29 290.01L141.29 290.01Q141.29 289.25 141.65 288.71Q142.01 288.17 142.67 287.88Q143.33 287.59 144.22 287.59L144.22 287.59Q145.11 287.59 145.81 287.89Q146.50 288.19 146.90 288.79Q147.31 289.39 147.31 290.29L147.31 290.29L147.31 290.69L145.88 290.69L145.88 290.29Q145.88 289.78 145.67 289.47Q145.47 289.15 145.10 289.01Q144.73 288.87 144.22 288.87L144.22 288.87Q143.48 288.87 143.09 289.15Q142.71 289.44 142.71 289.97L142.71 289.97Q142.71 290.31 142.88 290.54Q143.06 290.77 143.40 290.92Q143.74 291.07 144.26 291.18L144.26 291.18L144.62 291.27Q145.48 291.46 146.13 291.75Q146.78 292.05 147.14 292.53Q147.51 293.01 147.51 293.77L147.51 293.77Q147.51 294.53 147.12 295.11Q146.73 295.68 146.03 296.01Q145.33 296.33 144.37 296.33Z M161.18 296.16L155.77 296.16L155.77 287.76L161.12 287.76L161.12 289.07L157.22 289.07L157.22 291.28L160.79 291.28L160.79 292.59L157.22 292.59L157.22 294.85L161.18 294.85L161.18 296.16Z M174.85 296.16L169.44 296.16L169.44 287.76L174.79 287.76L174.79 289.07L170.89 289.07L170.89 291.28L174.46 291.28L174.46 292.59L170.89 292.59L170.89 294.85L174.85 294.85L174.85 296.16Z" fill="#aac072"></path><circle cx="92.4" cy="319.3" r="10" fill="#fff"></circle><circle cx="92.4" cy="319.3" r="10" fill="none" stroke="#aac072" stroke-width="2.4"></circle><circle cx="92.4" cy="319.3" r="4" fill="#aac072"></circle></svg>