<svg xmlns="http://www.w3.org/2000/svg" width="1800" height="1200" viewBox="0 0 300 200"><g transform="translate(64 100) scale(0.85333) translate(-1.17 0.00)"><path d="M25.2,-72.2 L22.6,-75 L20.5,-75 L14.9,-72.5 L6.9,-51.7 L5,-48.1 L2.9,-46.5 L1,-41.4 L-0.9,-40 L-4.5,-32.7 L-4,-29.4 L-7.3,-27.5 L-7,-25.3 L-8.8,-21.6 L-11.1,-11.2 L-14.8,-7 L-14.8,-3.5 L-17.7,-2.1 L-17.1,-0.7 L-17.6,1 L-20.3,3 L-20.4,4.7 L-22.3,6.7 L-22.8,8.6 L-22,10.8 L-24.2,12.6 L-25.2,16 L-24.7,18.8 L-22,21.4 L-20.1,21 L-17.8,18.6 L-16.3,19 L-16.8,22.5 L-14.6,25.9 L-14.1,31.2 L-9.1,36.6 L-7.3,41.9 L-7.8,45.3 L-11.2,47.9 L-11.9,51.8 L-12.7,52.3 L-13,61.3 L-14,63.5 L-12.8,67 L-0.2,75 L6.5,74 L8,74.9 L10.3,73.9 L10.6,72.7 L11.5,73.2 L13,69.8 L11.7,66.1 L12.5,65.6 L12,63.7 L13.4,62 L13.6,59.1 L11,34.9 L9.7,32.1 L10.5,27.3 L10.2,17.4 L11.2,11.5 L10.7,0.7 L9.1,-9.1 L10,-17.5 L15.3,-32.9 L15.9,-38 L20,-52.1 L25.1,-59.7 L24.5,-68.4 Z" fill="none" stroke="#9aa6d6" stroke-width="3.05" stroke-linejoin="round" stroke-linecap="round"></path></g><g transform="translate(109.66337001785695 1.0440652063168727) scale(0.7386653082017319)"><path d="M22.88 133.59 L22.88 133.59 Q21.33 133.16 20.38 132.82 L20.38 132.82 L19.44 132.56 Q19.61 132.13 19.31 131.78 Q19.01 131.44 18.06 131.35 L18.06 131.35 Q16.77 130.49 15.39 128.95 Q14.02 127.40 12.99 125.76 Q11.95 124.13 11.61 123.36 L11.61 123.36 Q11.18 122.32 11.44 121.98 L11.44 121.98 Q11.52 121.81 11.70 121.72 L11.70 121.72 Q12.38 121.46 13.33 121.03 L13.33 121.03 Q14.28 120.35 15.35 120.00 Q16.43 119.66 17.11 121.12 L17.11 121.12 Q18.23 123.10 20.60 124.47 Q22.96 125.85 26.02 126.11 Q29.07 126.37 32.16 125.08 L32.16 125.08 Q34.23 124.13 34.40 122.45 Q34.57 120.78 33.11 118.54 L33.11 118.54 Q32.85 117.85 32.38 117.42 Q31.91 116.99 31.00 116.30 Q30.10 115.62 28.47 114.07 L28.47 114.07 Q27.18 113.47 26.10 112.95 Q25.03 112.43 23.82 111.83 L23.82 111.83 Q22.45 111.14 20.73 109.90 Q19.01 108.65 17.54 107.14 Q16.08 105.64 15.31 104.26 L15.31 104.26 Q13.93 102.97 13.59 100.69 Q13.24 98.42 13.72 95.84 Q14.19 93.26 15.31 91.19 L15.31 91.19 Q15.82 89.99 17.20 88.05 Q18.58 86.12 20.30 84.05 Q22.02 81.99 23.61 80.31 Q25.20 78.64 26.14 78.03 L26.14 78.03 Q26.83 77.35 27.61 76.57 L27.61 76.57 L28.38 75.88 Q28.47 75.45 28.72 75.45 L28.72 75.45 L28.90 75.45 Q29.33 75.20 30.79 74.59 Q32.25 73.99 33.97 72.36 L33.97 72.36 Q39.73 69.61 43.77 68.62 Q47.82 67.63 50.14 67.63 L50.14 67.63 Q52.29 67.71 54.35 68.79 Q56.42 69.86 57.92 71.50 Q59.43 73.13 59.68 75.20 L59.68 75.20 Q60.29 77.26 59.13 80.14 Q57.96 83.02 55.94 85.56 Q53.92 88.10 51.77 89.30 L51.77 89.30 Q49.36 90.33 47.69 89.56 Q46.01 88.78 46.10 87.15 L46.10 87.15 Q46.10 86.46 46.57 85.52 Q47.04 84.57 49.19 82.16 L49.19 82.16 Q51.94 78.12 52.12 76.40 Q52.29 74.68 50.57 74.42 L50.57 74.42 Q50.05 74.25 48.59 74.51 Q47.13 74.77 45.45 75.15 Q43.77 75.54 42.53 75.97 Q41.28 76.40 41.28 76.57 L41.28 76.57 L41.28 76.83 Q41.28 76.92 41.19 77.00 L41.19 77.00 Q41.19 77.09 40.94 77.00 L40.94 77.00 Q40.76 77.00 39.78 77.56 Q38.79 78.12 37.41 78.98 Q36.03 79.84 34.70 80.74 Q33.37 81.65 32.42 82.33 Q31.48 83.02 31.39 83.19 L31.39 83.19 Q31.22 84.14 29.41 84.91 L29.41 84.91 Q27.69 85.95 26.40 87.84 Q25.11 89.73 23.39 92.65 L23.39 92.65 Q21.93 94.63 21.33 96.91 Q20.73 99.19 21.33 100.57 L21.33 100.57 Q21.76 101.94 23.69 103.28 Q25.63 104.61 28.98 106.59 L28.98 106.59 Q31.91 108.22 34.49 110.03 Q37.07 111.83 38.87 113.51 Q40.68 115.19 41.19 116.30 L41.19 116.30 Q42.23 117.77 42.44 119.66 Q42.66 121.55 42.44 123.31 Q42.23 125.08 41.88 126.19 L41.88 126.19 Q41.28 127.57 40.03 129.12 Q38.79 130.67 37.75 130.58 L37.75 130.58 Q36.81 130.84 36.34 131.18 Q35.86 131.53 35.26 131.78 L35.26 131.78 Q34.66 132.13 32.42 132.60 Q30.19 133.07 27.52 133.38 Q24.85 133.68 22.88 133.59 Z M67.77 126.28 L67.77 126.28 Q65.19 127.74 62.31 127.96 Q59.43 128.17 56.93 127.18 Q54.44 126.19 52.89 124.22 L52.89 124.22 Q52.03 123.10 51.26 120.65 Q50.48 118.20 51.00 113.98 L51.00 113.98 Q51.51 110.03 53.45 105.98 Q55.38 101.94 58.22 98.85 Q61.06 95.75 64.41 94.63 L64.41 94.63 Q65.62 94.20 66.86 93.99 Q68.11 93.77 70.18 93.94 L70.18 93.94 Q72.15 94.20 73.70 94.93 Q75.25 95.66 75.94 96.52 L75.94 96.52 Q77.31 97.90 77.74 99.19 Q78.17 100.48 78.09 101.68 L78.09 101.68 Q77.66 104.44 75.64 107.62 Q73.62 110.80 70.00 112.35 L70.00 112.35 Q68.54 112.95 66.56 113.12 Q64.59 113.29 61.15 112.61 L61.15 112.61 Q59.08 112.18 58.44 113.04 Q57.79 113.90 57.88 116.39 L57.88 116.39 Q58.05 117.94 58.61 119.10 Q59.17 120.26 60.72 120.69 L60.72 120.69 Q62.69 121.03 63.55 120.73 Q64.41 120.43 65.70 119.83 L65.70 119.83 Q66.39 119.40 67.08 118.88 L67.08 118.88 L68.37 117.85 Q68.97 117.34 69.40 117.08 L69.40 117.08 Q69.83 116.73 70.26 116.65 Q70.69 116.56 71.12 116.56 L71.12 116.56 Q72.07 116.65 72.93 117.59 Q73.79 118.54 74.05 119.40 L74.05 119.40 Q74.05 120.09 73.19 121.33 Q72.33 122.58 70.91 123.92 Q69.49 125.25 67.77 126.28 Z M66.65 107.10 L66.65 107.10 Q67.25 106.84 68.41 105.90 Q69.57 104.95 70.52 103.88 Q71.47 102.80 71.47 102.20 L71.47 102.20 Q71.47 101.25 70.22 100.57 Q68.97 99.88 66.99 100.31 L66.99 100.31 Q66.31 100.48 65.36 101.25 Q64.41 102.03 63.47 103.02 Q62.52 104.01 61.83 104.91 Q61.15 105.81 60.89 106.33 L60.89 106.33 Q61.23 106.76 62.26 107.02 Q63.30 107.27 64.54 107.27 Q65.79 107.27 66.65 107.10 Z M96.49 126.28 L96.49 126.28 Q93.91 127.74 91.03 127.96 Q88.15 128.17 85.66 127.18 Q83.16 126.19 81.61 124.22 L81.61 124.22 Q80.75 123.10 79.98 120.65 Q79.21 118.20 79.72 113.98 L79.72 113.98 Q80.24 110.03 82.17 105.98 Q84.11 101.94 86.95 98.85 Q89.78 95.75 93.14 94.63 L93.14 94.63 Q94.34 94.20 95.59 93.99 Q96.84 93.77 98.90 93.94 L98.90 93.94 Q100.88 94.20 102.43 94.93 Q103.97 95.66 104.66 96.52 L104.66 96.52 Q106.04 97.90 106.47 99.19 Q106.90 100.48 106.81 101.68 L106.81 101.68 Q106.38 104.44 104.36 107.62 Q102.34 110.80 98.73 112.35 L98.73 112.35 Q97.27 112.95 95.29 113.12 Q93.31 113.29 89.87 112.61 L89.87 112.61 Q87.81 112.18 87.16 113.04 Q86.52 113.90 86.60 116.39 L86.60 116.39 Q86.77 117.94 87.33 119.10 Q87.89 120.26 89.44 120.69 L89.44 120.69 Q91.42 121.03 92.28 120.73 Q93.14 120.43 94.43 119.83 L94.43 119.83 Q95.12 119.40 95.80 118.88 L95.80 118.88 L97.09 117.85 Q97.70 117.34 98.13 117.08 L98.13 117.08 Q98.56 116.73 98.99 116.65 Q99.42 116.56 99.85 116.56 L99.85 116.56 Q100.79 116.65 101.65 117.59 Q102.51 118.54 102.77 119.40 L102.77 119.40 Q102.77 120.09 101.91 121.33 Q101.05 122.58 99.63 123.92 Q98.21 125.25 96.49 126.28 Z M95.37 107.10 L95.37 107.10 Q95.98 106.84 97.14 105.90 Q98.30 104.95 99.24 103.88 Q100.19 102.80 100.19 102.20 L100.19 102.20 Q100.19 101.25 98.94 100.57 Q97.70 99.88 95.72 100.31 L95.72 100.31 Q95.03 100.48 94.08 101.25 Q93.14 102.03 92.19 103.02 Q91.25 104.01 90.56 104.91 Q89.87 105.81 89.61 106.33 L89.61 106.33 Q89.96 106.76 90.99 107.02 Q92.02 107.27 93.27 107.27 Q94.51 107.27 95.37 107.10 Z M118.42 145.20 L118.42 145.20 Q116.01 146.15 113.39 144.90 Q110.77 143.65 108.88 140.99 L108.88 140.99 Q108.53 140.47 107.84 139.14 Q107.16 137.80 106.51 136.26 Q105.87 134.71 105.56 133.59 Q105.26 132.47 105.52 132.30 L105.52 132.30 Q105.87 131.35 107.07 131.18 Q108.27 131.01 109.48 131.31 Q110.68 131.61 110.85 132.13 L110.85 132.13 Q111.11 132.73 111.37 133.38 Q111.63 134.02 112.01 134.58 Q112.40 135.14 112.75 135.57 L112.75 135.57 Q113.69 137.03 114.81 137.59 Q115.93 138.15 116.53 137.72 L116.53 137.72 Q117.99 136.60 118.72 135.09 Q119.45 133.59 120.66 129.81 L120.66 129.81 Q121.60 126.62 122.29 124.30 Q122.98 121.98 123.75 120.00 L123.75 120.00 Q124.01 118.97 124.44 118.20 L124.44 118.20 Q124.53 118.02 124.61 117.85 L124.61 117.85 Q123.41 118.71 122.46 119.57 L122.46 119.57 Q121.17 120.78 118.94 121.72 L118.94 121.72 Q118.42 122.32 116.40 122.45 Q114.38 122.58 112.49 121.98 L112.49 121.98 Q111.28 121.29 110.55 120.56 Q109.82 119.83 109.35 118.88 Q108.88 117.94 108.36 116.65 L108.36 116.65 Q107.76 115.36 108.19 112.43 Q108.62 109.51 109.74 106.59 L109.74 106.59 Q110.77 104.44 112.75 101.94 Q114.72 99.45 116.96 97.43 Q119.20 95.41 121.00 94.89 L121.00 94.89 Q121.69 94.55 123.41 94.07 Q125.13 93.60 126.68 94.03 L126.68 94.03 Q128.14 94.20 128.91 94.67 Q129.69 95.15 131.41 96.61 L131.41 96.61 Q132.53 97.73 134.16 99.49 Q135.79 101.25 136.22 102.46 L136.22 102.46 Q136.83 103.75 136.48 105.25 Q136.14 106.76 135.28 107.88 L135.28 107.88 Q134.50 108.99 133.64 110.11 Q132.78 111.23 132.35 113.21 L132.35 113.21 Q131.92 115.79 130.72 119.01 Q129.52 122.24 128.83 124.99 L128.83 124.99 L127.45 130.32 Q125.30 137.63 122.72 140.94 Q120.14 144.25 118.42 145.20 Z M116.62 115.62 L116.62 115.62 Q118.34 115.53 119.58 115.23 Q120.83 114.93 121.95 113.85 Q123.07 112.78 124.53 110.54 L124.53 110.54 Q125.99 108.48 126.59 106.76 Q127.19 105.04 127.02 102.89 L127.02 102.89 Q126.94 101.51 126.25 101.08 Q125.56 100.65 124.44 100.82 L124.44 100.82 Q122.81 101.08 121.52 102.16 Q120.23 103.23 118.51 105.47 L118.51 105.47 Q117.22 107.19 116.36 109.60 L116.36 109.60 Q115.50 112.18 115.63 113.72 Q115.76 115.27 116.62 115.62 Z M143.88 138.41 L143.88 138.41 Q143.36 138.75 141.56 137.59 Q139.75 136.43 138.55 135.05 L138.55 135.05 Q137.94 134.36 137.77 133.59 Q137.60 132.82 137.86 130.67 L137.86 130.67 Q138.20 129.72 138.24 128.86 Q138.29 128.00 138.29 127.66 L138.29 127.66 Q138.29 127.14 138.59 125.25 Q138.89 123.36 139.23 121.25 Q139.58 119.14 139.84 118.02 L139.84 118.02 Q139.84 117.94 139.96 117.42 Q140.09 116.91 140.18 116.65 L140.18 116.65 Q140.35 115.87 140.61 114.76 Q140.87 113.64 141.13 111.75 L141.13 111.75 Q141.81 109.60 142.29 107.49 Q142.76 105.38 142.76 104.61 L142.76 104.61 Q142.76 103.06 143.96 102.37 L143.96 102.37 Q144.05 101.94 144.48 101.04 Q144.91 100.14 145.25 99.53 L145.25 99.53 Q146.97 94.63 148.09 91.71 Q149.21 88.78 150.41 86.63 L150.41 86.63 Q150.93 85.17 151.57 83.62 Q152.22 82.08 152.91 81.22 L152.91 81.22 Q153.51 80.01 155.01 78.25 Q156.52 76.49 158.24 74.85 Q159.96 73.22 160.99 72.44 L160.99 72.44 Q162.88 71.50 164.52 70.90 Q166.15 70.29 167.96 70.29 L167.96 70.29 Q169.59 70.29 170.84 71.03 Q172.09 71.76 174.58 73.99 L174.58 73.99 Q175.44 75.11 175.44 76.14 Q175.44 77.17 175.01 77.86 L175.01 77.86 Q174.41 79.24 173.20 81.26 Q172.00 83.28 170.88 84.87 Q169.76 86.46 169.25 86.55 L169.25 86.55 Q168.22 87.15 167.10 86.89 Q165.98 86.63 165.98 85.34 L165.98 85.34 Q165.98 84.74 166.07 84.23 L166.07 84.23 L166.07 83.71 Q166.32 82.59 166.71 81.73 Q167.10 80.87 167.44 80.27 L167.44 80.27 Q168.13 79.15 167.83 78.12 Q167.53 77.09 165.64 77.26 L165.64 77.26 Q165.38 77.43 164.65 78.08 Q163.92 78.72 163.10 79.54 Q162.28 80.36 161.68 81.09 Q161.08 81.82 161.08 82.08 L161.08 82.08 L160.65 82.94 Q160.13 83.88 159.19 85.00 L159.19 85.00 Q158.58 85.86 158.15 86.63 Q157.72 87.41 157.72 87.84 L157.72 87.84 Q157.72 88.18 157.64 88.44 Q157.55 88.70 157.21 88.70 L157.21 88.70 L156.95 89.56 Q156.61 90.42 155.92 91.62 L155.92 91.62 Q155.57 92.48 155.19 93.21 Q154.80 93.94 154.46 94.29 L154.46 94.29 L154.37 94.46 L154.03 95.41 Q153.60 96.44 153.17 97.47 Q152.74 98.50 152.74 98.67 L152.74 98.67 Q152.74 99.02 153.77 99.02 Q154.80 99.02 156.26 98.72 Q157.72 98.42 159.10 98.07 L159.10 98.07 Q160.30 97.73 160.82 97.73 Q161.34 97.73 162.45 98.07 L162.45 98.07 Q163.14 98.50 163.57 99.58 Q164.00 100.65 164.22 101.73 Q164.43 102.80 164.26 103.32 L164.26 103.32 Q164.17 103.66 162.32 104.26 Q160.48 104.87 158.67 105.21 L158.67 105.21 Q157.12 105.55 155.19 105.94 Q153.25 106.33 151.79 106.72 Q150.33 107.10 150.24 107.45 L150.24 107.45 Q149.90 107.45 149.68 107.88 Q149.47 108.31 149.47 108.65 L149.47 108.65 Q149.47 109.77 149.04 110.46 L149.04 110.46 Q148.87 110.97 148.48 112.56 Q148.09 114.15 147.70 116.00 Q147.32 117.85 147.02 119.44 Q146.72 121.03 146.72 121.55 L146.72 121.55 Q146.20 122.15 146.11 123.06 Q146.03 123.96 146.03 124.65 L146.03 124.65 Q145.68 125.33 145.60 125.89 Q145.51 126.45 145.51 126.80 L145.51 126.80 L145.51 127.14 Q145.51 127.40 145.43 127.66 L145.43 127.66 Q145.34 128.52 145.21 129.94 Q145.08 131.35 145.08 132.73 L145.08 132.73 L144.82 135.22 Q144.74 136.34 144.52 137.16 Q144.31 137.98 143.88 138.41 Z M186.02 127.83 L186.02 127.83 Q185.16 126.97 184.64 125.46 Q184.13 123.96 183.61 121.98 L183.61 121.98 Q183.44 121.29 183.48 120.43 Q183.52 119.57 183.44 119.06 L183.44 119.06 Q183.18 119.66 182.62 120.60 Q182.06 121.55 181.55 121.98 L181.55 121.98 Q181.20 122.32 180.00 123.31 Q178.79 124.30 177.59 124.90 L177.59 124.90 Q174.75 126.71 172.56 126.58 Q170.37 126.45 168.73 124.39 L168.73 124.39 Q167.36 123.27 166.50 121.55 Q165.64 119.83 166.15 117.42 L166.15 117.42 Q166.32 114.41 167.01 111.53 Q167.70 108.65 169.85 103.83 L169.85 103.83 Q171.66 100.31 172.60 98.33 Q173.55 96.35 173.81 96.01 L173.81 96.01 Q175.10 95.58 176.99 96.05 Q178.88 96.52 179.05 97.73 L179.05 97.73 Q179.57 98.59 179.05 100.95 Q178.54 103.32 176.99 106.33 L176.99 106.33 Q175.78 109.25 174.71 112.00 Q173.63 114.76 173.42 116.65 Q173.20 118.54 174.41 118.97 L174.41 118.97 Q175.18 119.40 176.69 118.88 Q178.19 118.37 180.26 115.79 Q182.32 113.21 184.64 107.62 L184.64 107.62 Q185.33 105.90 185.67 104.56 Q186.02 103.23 186.10 101.60 L186.10 101.60 Q185.93 100.57 186.66 99.45 Q187.39 98.33 188.43 97.73 L188.43 97.73 Q188.77 97.30 189.37 96.87 L189.37 96.87 Q189.80 96.61 189.97 96.78 L189.97 96.78 Q190.06 96.78 190.15 96.95 L190.15 96.95 L191.52 96.87 Q191.87 96.78 192.30 97.56 Q192.73 98.33 193.16 98.67 L193.16 98.67 Q194.10 99.45 194.02 102.03 Q193.93 104.61 191.95 109.25 L191.95 109.25 Q190.32 112.78 189.76 114.58 Q189.20 116.39 189.11 118.11 L189.11 118.11 Q189.11 119.66 189.37 120.73 Q189.63 121.81 190.92 122.93 L190.92 122.93 Q191.87 123.53 191.99 124.95 Q192.12 126.37 192.04 127.40 L192.04 127.40 Q191.87 128.17 190.70 128.47 Q189.54 128.77 188.21 128.60 Q186.88 128.43 186.02 127.83 Z M197.80 126.54 L197.80 126.54 Q197.11 125.85 196.81 124.47 Q196.51 123.10 196.60 121.77 Q196.68 120.43 197.03 119.74 L197.03 119.74 Q197.03 119.06 197.24 118.67 Q197.46 118.28 197.37 117.94 L197.37 117.94 Q197.28 117.59 197.54 116.73 Q197.80 115.87 198.06 115.10 L198.06 115.10 Q198.66 113.72 199.43 111.53 Q200.21 109.34 200.98 107.06 Q201.76 104.78 202.27 103.10 Q202.79 101.43 202.87 101.08 L202.87 101.08 Q202.87 100.05 204.25 99.96 L204.25 99.96 Q205.28 99.62 206.74 100.82 Q208.21 102.03 209.07 103.40 L209.07 103.40 Q209.75 104.09 209.58 105.21 Q209.41 106.33 208.46 108.39 L208.46 108.39 Q208.12 109.08 207.65 110.67 Q207.17 112.26 207.00 113.29 L207.00 113.29 Q206.66 113.98 206.18 115.23 Q205.71 116.48 205.37 117.59 L205.37 117.59 Q205.20 118.02 205.02 119.19 Q204.85 120.35 204.59 121.55 Q204.34 122.75 203.91 123.44 L203.91 123.44 Q203.13 126.97 201.20 127.57 Q199.26 128.17 197.80 126.54 Z " fill="#f1ece2"></path><g transform="translate(210.40,95.23) rotate(12) scale(0.940)"><path d="M0,3 C0,-3 -9,-6 -9,-13 C-9,-19 -2,-20 0,-14 C2,-20 9,-19 9,-13 C9,-6 0,-3 0,3 Z" fill="#e8534b"></path></g></g><g stroke="#9aa6d6" stroke-width="1.2" stroke-linejoin="round" stroke-linecap="round" paint-order="stroke"><path d="M133.32 133.76L133.32 133.76Q132.02 133.76 131.03 133.30Q130.04 132.83 129.48 131.97Q128.92 131.10 128.92 129.89L128.92 129.89L128.92 129.44L131 129.44L131 129.89Q131 130.90 131.62 131.40Q132.25 131.90 133.32 131.90L133.32 131.90Q134.41 131.90 134.94 131.47Q135.48 131.04 135.48 130.37L135.48 130.37Q135.48 129.90 135.22 129.62Q134.95 129.33 134.45 129.14Q133.94 128.96 133.22 128.80L133.22 128.80L132.86 128.72Q131.70 128.46 130.88 128.07Q130.06 127.68 129.62 127.04Q129.18 126.40 129.18 125.38L129.18 125.38Q129.18 124.35 129.66 123.62Q130.15 122.90 131.04 122.50Q131.93 122.11 133.13 122.11L133.13 122.11Q134.33 122.11 135.26 122.52Q136.20 122.93 136.74 123.74Q137.27 124.54 137.27 125.76L137.27 125.76L137.27 126.24L135.19 126.24L135.19 125.76Q135.19 125.12 134.94 124.73Q134.70 124.34 134.23 124.15Q133.77 123.97 133.13 123.97L133.13 123.97Q132.17 123.97 131.71 124.33Q131.26 124.69 131.26 125.31L131.26 125.31Q131.26 125.73 131.47 126.02Q131.69 126.30 132.12 126.50Q132.55 126.69 133.22 126.83L133.22 126.83L133.59 126.91Q134.79 127.17 135.68 127.57Q136.57 127.97 137.06 128.62Q137.56 129.28 137.56 130.30L137.56 130.30Q137.56 131.33 137.04 132.10Q136.52 132.88 135.57 133.32Q134.62 133.76 133.32 133.76Z M146.43 133.54L144.32 133.54L144.32 124.26L141.06 124.26L141.06 122.34L149.70 122.34L149.70 124.26L146.43 124.26L146.43 133.54Z M155.14 133.54L152.97 133.54L155.91 122.34L159.59 122.34L162.54 133.54L160.36 133.54L159.75 131.07L155.75 131.07L155.14 133.54ZM157.61 123.66L156.25 129.12L159.26 129.12L157.90 123.66L157.61 123.66Z M168.59 133.54L166.48 133.54L166.48 122.34L171.34 122.34Q172.40 122.34 173.18 122.70Q173.97 123.07 174.40 123.74Q174.83 124.42 174.83 125.33L174.83 125.33L174.83 125.52Q174.83 126.53 174.35 127.15Q173.87 127.78 173.17 128.06L173.17 128.06L173.17 128.35Q173.81 128.38 174.16 128.79Q174.51 129.20 174.51 129.87L174.51 129.87L174.51 133.54L172.40 133.54L172.40 130.18Q172.40 129.79 172.20 129.55Q172 129.31 171.54 129.31L171.54 129.31L168.59 129.31L168.59 133.54ZM168.59 124.26L168.59 127.39L171.12 127.39Q171.87 127.39 172.30 126.98Q172.72 126.58 172.72 125.90L172.72 125.90L172.72 125.74Q172.72 125.07 172.30 124.66Q171.89 124.26 171.12 124.26L171.12 124.26L168.59 124.26Z M181.27 133.54L179.19 133.54L179.19 122.34L183.21 122.34L185.43 132.10L185.72 132.10L185.72 122.34L187.80 122.34L187.80 133.54L183.78 133.54L181.56 123.78L181.27 123.78L181.27 133.54Z M198.02 133.54L192.19 133.54L192.19 131.68L193.66 131.68L193.66 124.19L192.19 124.19L192.19 122.34L197.95 122.34Q198.98 122.34 199.74 122.68Q200.50 123.02 200.92 123.66Q201.34 124.29 201.34 125.17L201.34 125.17L201.34 125.33Q201.34 126.10 201.06 126.58Q200.77 127.07 200.38 127.34Q199.98 127.60 199.63 127.71L199.63 127.71L199.63 128Q199.98 128.10 200.40 128.36Q200.82 128.62 201.11 129.12Q201.41 129.62 201.41 130.42L201.41 130.42L201.41 130.58Q201.41 131.50 200.98 132.17Q200.54 132.83 199.78 133.18Q199.02 133.54 198.02 133.54L198.02 133.54ZM195.78 128.86L195.78 131.62L197.76 131.62Q198.45 131.62 198.87 131.28Q199.30 130.94 199.30 130.32L199.30 130.32L199.30 130.16Q199.30 129.54 198.88 129.20Q198.46 128.86 197.76 128.86L197.76 128.86L195.78 128.86ZM195.78 124.26L195.78 126.94L197.73 126.94Q198.38 126.94 198.81 126.61Q199.23 126.27 199.23 125.68L199.23 125.68L199.23 125.52Q199.23 124.91 198.82 124.58Q198.40 124.26 197.73 124.26L197.73 124.26L195.78 124.26Z M213.03 133.54L205.74 133.54L205.74 122.34L212.94 122.34L212.94 124.26L207.85 124.26L207.85 126.93L212.49 126.93L212.49 128.85L207.85 128.85L207.85 131.62L213.03 131.62L213.03 133.54Z M219.31 133.54L217.20 133.54L217.20 122.34L222.06 122.34Q223.12 122.34 223.90 122.70Q224.69 123.07 225.12 123.74Q225.55 124.42 225.55 125.33L225.55 125.33L225.55 125.52Q225.55 126.53 225.07 127.15Q224.59 127.78 223.89 128.06L223.89 128.06L223.89 128.35Q224.53 128.38 224.88 128.79Q225.23 129.20 225.23 129.87L225.23 129.87L225.23 133.54L223.12 133.54L223.12 130.18Q223.12 129.79 222.92 129.55Q222.72 129.31 222.26 129.31L222.26 129.31L219.31 129.31L219.31 133.54ZM219.31 124.26L219.31 127.39L221.84 127.39Q222.59 127.39 223.02 126.98Q223.44 126.58 223.44 125.90L223.44 125.90L223.44 125.74Q223.44 125.07 223.02 124.66Q222.61 124.26 221.84 124.26L221.84 124.26L219.31 124.26Z M233.78 133.76L233.78 133.76Q232.63 133.76 231.70 133.24Q230.76 132.72 230.21 131.72Q229.66 130.72 229.66 129.28L229.66 129.28L229.66 126.59Q229.66 124.43 230.87 123.27Q232.09 122.11 234.17 122.11L234.17 122.11Q236.23 122.11 237.36 123.21Q238.49 124.30 238.49 126.18L238.49 126.18L238.49 126.24L236.41 126.24L236.41 126.11Q236.41 125.52 236.16 125.04Q235.91 124.56 235.42 124.28Q234.92 124 234.17 124L234.17 124Q233.05 124 232.41 124.69Q231.77 125.38 231.77 126.56L231.77 126.56L231.77 129.31Q231.77 130.48 232.41 131.19Q233.05 131.90 234.20 131.90L234.20 131.90Q235.35 131.90 235.88 131.30Q236.41 130.69 236.41 129.76L236.41 129.76L236.41 129.60L233.75 129.60L233.75 127.81L238.49 127.81L238.49 133.54L236.54 133.54L236.54 132.46L236.25 132.46Q236.14 132.74 235.89 133.04Q235.64 133.34 235.14 133.55Q234.65 133.76 233.78 133.76Z M250.40 133.54L243.10 133.54L243.10 122.34L250.30 122.34L250.30 124.26L245.22 124.26L245.22 126.93L249.86 126.93L249.86 128.85L245.22 128.85L245.22 131.62L250.40 131.62L250.40 133.54Z M256.68 133.54L254.57 133.54L254.57 122.34L259.43 122.34Q260.49 122.34 261.27 122.70Q262.06 123.07 262.49 123.74Q262.92 124.42 262.92 125.33L262.92 125.33L262.92 125.52Q262.92 126.53 262.44 127.15Q261.96 127.78 261.26 128.06L261.26 128.06L261.26 128.35Q261.90 128.38 262.25 128.79Q262.60 129.20 262.60 129.87L262.60 129.87L262.60 133.54L260.49 133.54L260.49 130.18Q260.49 129.79 260.29 129.55Q260.09 129.31 259.62 129.31L259.62 129.31L256.68 129.31L256.68 133.54ZM256.68 124.26L256.68 127.39L259.21 127.39Q259.96 127.39 260.38 126.98Q260.81 126.58 260.81 125.90L260.81 125.90L260.81 125.74Q260.81 125.07 260.39 124.66Q259.98 124.26 259.21 124.26L259.21 124.26L256.68 124.26Z" fill="#9aa6d6"></path><path d="M184.63 151.68L184.63 151.68Q183.34 151.68 182.34 151.22Q181.35 150.75 180.79 149.89Q180.23 149.02 180.23 147.81L180.23 147.81L180.23 147.36L182.31 147.36L182.31 147.81Q182.31 148.82 182.94 149.32Q183.56 149.82 184.63 149.82L184.63 149.82Q185.72 149.82 186.26 149.39Q186.79 148.96 186.79 148.29L186.79 148.29Q186.79 147.82 186.53 147.54Q186.26 147.25 185.76 147.06Q185.26 146.88 184.54 146.72L184.54 146.72L184.17 146.64Q183.02 146.38 182.19 145.99Q181.37 145.60 180.93 144.96Q180.49 144.32 180.49 143.30L180.49 143.30Q180.49 142.27 180.98 141.54Q181.46 140.82 182.35 140.42Q183.24 140.03 184.44 140.03L184.44 140.03Q185.64 140.03 186.58 140.44Q187.51 140.85 188.05 141.66Q188.58 142.46 188.58 143.68L188.58 143.68L188.58 144.16L186.50 144.16L186.50 143.68Q186.50 143.04 186.26 142.65Q186.01 142.26 185.54 142.07Q185.08 141.89 184.44 141.89L184.44 141.89Q183.48 141.89 183.02 142.25Q182.57 142.61 182.57 143.23L182.57 143.23Q182.57 143.65 182.78 143.94Q183 144.22 183.43 144.42Q183.86 144.61 184.54 144.75L184.54 144.75L184.90 144.83Q186.10 145.09 186.99 145.49Q187.88 145.89 188.38 146.54Q188.87 147.20 188.87 148.22L188.87 148.22Q188.87 149.25 188.35 150.02Q187.83 150.80 186.88 151.24Q185.93 151.68 184.63 151.68Z M200.34 151.46L193.04 151.46L193.04 140.26L200.24 140.26L200.24 142.18L195.15 142.18L195.15 144.85L199.79 144.85L199.79 146.77L195.15 146.77L195.15 149.54L200.34 149.54L200.34 151.46Z M211.80 151.46L204.50 151.46L204.50 140.26L211.70 140.26L211.70 142.18L206.62 142.18L206.62 144.85L211.26 144.85L211.26 146.77L206.62 146.77L206.62 149.54L211.80 149.54L211.80 151.46Z" fill="#9aa6d6"></path></g><path d="M150.21 168.33L149.10 168.33L149.10 166.98L145.78 166.98L145.78 165.70L148.20 161.68L150.21 161.68L150.21 165.99L151.32 165.99L151.32 166.98L150.21 166.98L150.21 168.33ZM146.84 165.85L146.84 165.99L149.10 165.99L149.10 162.38L148.94 162.38L146.84 165.85Z M155.14 168.33L154.03 168.33L154.03 168.08Q154.03 167.72 154.09 167.47Q154.14 167.22 154.33 166.88L154.33 166.88L156.63 162.81L156.63 162.67L153.00 162.67L153.00 161.68L157.78 161.68L157.78 162.99L155.35 167.33Q155.23 167.55 155.18 167.71Q155.14 167.88 155.14 168.13L155.14 168.13L155.14 168.33Z M160.59 168.46L160.59 168.46Q160.23 168.46 159.98 168.22Q159.74 167.99 159.74 167.61L159.74 167.61Q159.74 167.25 159.98 167.02Q160.23 166.78 160.59 166.78L160.59 166.78Q160.95 166.78 161.19 167.02Q161.42 167.25 161.42 167.62L161.42 167.62Q161.42 167.99 161.19 168.23Q160.95 168.46 160.59 168.46Z M166.00 168.46L166.00 168.46Q165.25 168.46 164.72 168.21Q164.18 167.96 163.89 167.50Q163.59 167.04 163.59 166.41L163.59 166.41L164.71 166.41Q164.71 166.85 165.02 167.16Q165.33 167.47 166.00 167.47L166.00 167.47Q166.67 167.47 167.04 167.12Q167.40 166.76 167.40 166.13L167.40 166.13L167.40 165.39L167.24 165.39Q167.07 165.61 166.73 165.80Q166.38 165.98 165.72 165.98L165.72 165.98Q165.14 165.98 164.65 165.73Q164.15 165.49 163.85 165.01Q163.55 164.54 163.55 163.87L163.55 163.87L163.55 163.76Q163.55 163.08 163.87 162.59Q164.18 162.10 164.74 161.82Q165.30 161.54 166.04 161.54L166.04 161.54Q166.78 161.54 167.34 161.82Q167.90 162.10 168.20 162.61Q168.50 163.11 168.50 163.78L168.50 163.78L168.50 166.07Q168.50 166.85 168.19 167.39Q167.87 167.92 167.30 168.19Q166.74 168.46 166.00 168.46ZM166.02 165.10L166.02 165.10Q166.45 165.10 166.76 164.94Q167.06 164.78 167.23 164.50Q167.40 164.22 167.40 163.84L167.40 163.84L167.40 163.77Q167.40 163.20 167.03 162.86Q166.66 162.53 166.02 162.53L166.02 162.53Q165.40 162.53 165.03 162.86Q164.66 163.20 164.66 163.77L164.66 163.77L164.66 163.84Q164.66 164.22 164.83 164.50Q165.00 164.78 165.31 164.94Q165.62 165.10 166.02 165.10Z M173.28 168.46L173.28 168.46Q172.11 168.46 171.40 167.80Q170.70 167.15 170.70 165.83L170.70 165.83L170.70 164.18Q170.70 162.88 171.40 162.21Q172.11 161.54 173.28 161.54L173.28 161.54Q174.45 161.54 175.15 162.21Q175.85 162.88 175.85 164.18L175.85 164.18L175.85 165.83Q175.85 167.15 175.15 167.80Q174.45 168.46 173.28 168.46ZM173.28 167.47L173.28 167.47Q174.03 167.47 174.38 167.05Q174.74 166.64 174.74 165.87L174.74 165.87L174.74 164.13Q174.74 163.35 174.35 162.94Q173.96 162.53 173.28 162.53L173.28 162.53Q172.57 162.53 172.19 162.95Q171.81 163.37 171.81 164.13L171.81 164.13L171.81 165.87Q171.81 166.66 172.18 167.06Q172.54 167.47 173.28 167.47Z M179.40 164.56L179.40 164.56Q178.97 164.56 178.62 164.36Q178.27 164.17 178.06 163.82Q177.86 163.48 177.86 163.05L177.86 163.05Q177.86 162.61 178.06 162.27Q178.27 161.92 178.62 161.73Q178.97 161.54 179.40 161.54L179.40 161.54Q179.83 161.54 180.18 161.73Q180.54 161.92 180.74 162.27Q180.94 162.61 180.94 163.05L180.94 163.05Q180.94 163.48 180.74 163.82Q180.54 164.17 180.18 164.36Q179.83 164.56 179.40 164.56ZM179.40 163.71L179.40 163.71Q179.69 163.71 179.88 163.52Q180.06 163.34 180.06 163.05L180.06 163.05Q180.06 162.75 179.88 162.57Q179.69 162.39 179.40 162.39L179.40 162.39Q179.11 162.39 178.92 162.57Q178.73 162.74 178.73 163.05L178.73 163.05Q178.73 163.34 178.92 163.52Q179.11 163.71 179.40 163.71Z  M187.87 168.33L186.74 168.33L186.74 161.68L188.92 161.68L190.49 167.56L190.64 167.56L190.64 161.68L191.77 161.68L191.77 168.33L189.60 168.33L188.03 162.45L187.87 162.45L187.87 168.33Z  M198.26 166.45L198.26 166.45Q197.90 166.45 197.65 166.21Q197.41 165.97 197.41 165.60L197.41 165.60Q197.41 165.24 197.65 165.00Q197.90 164.76 198.26 164.76L198.26 164.76Q198.62 164.76 198.85 165.00Q199.09 165.24 199.09 165.61L199.09 165.61Q199.09 165.98 198.85 166.21Q198.62 166.45 198.26 166.45Z  M207.62 168.33L206.52 168.33L206.52 162.48L206.36 162.48L205.36 164.65L204.19 164.65L205.61 161.68L207.62 161.68L207.62 168.33Z M213.04 168.33L211.94 168.33L211.94 162.48L211.77 162.48L210.78 164.65L209.61 164.65L211.02 161.68L213.04 161.68L213.04 168.33Z M216.27 168.46L216.27 168.46Q215.91 168.46 215.67 168.22Q215.43 167.99 215.43 167.61L215.43 167.61Q215.43 167.25 215.67 167.02Q215.91 166.78 216.27 166.78L216.27 166.78Q216.63 166.78 216.87 167.02Q217.11 167.25 217.11 167.62L217.11 167.62Q217.11 167.99 216.87 168.23Q216.63 168.46 216.27 168.46Z M221.72 168.46L221.72 168.46Q220.98 168.46 220.40 168.19Q219.83 167.93 219.50 167.43Q219.18 166.93 219.18 166.24L219.18 166.24L219.18 166.07L220.28 166.07L220.28 166.21Q220.28 166.79 220.68 167.13Q221.07 167.47 221.72 167.47L221.72 167.47Q222.36 167.47 222.72 167.15Q223.09 166.84 223.09 166.35L223.09 166.35L223.09 166.27Q223.09 165.92 222.92 165.71Q222.75 165.51 222.47 165.41Q222.19 165.31 221.84 165.31L221.84 165.31L220.57 165.31L220.57 164.07L222.82 162.81L222.82 162.67L219.34 162.67L219.34 161.68L224.04 161.68L224.04 163.16L221.91 164.36L221.91 164.50L222.30 164.50Q222.77 164.50 223.20 164.68Q223.64 164.87 223.91 165.25Q224.19 165.63 224.19 166.24L224.19 166.24L224.19 166.34Q224.19 166.99 223.88 167.46Q223.57 167.94 223.01 168.20Q222.46 168.46 221.72 168.46Z M231.01 168.33L226.22 168.33L226.22 167.56Q226.22 166.85 226.46 166.40Q226.69 165.95 227.13 165.66Q227.56 165.37 228.19 165.18L228.19 165.18L228.80 164.99Q229.17 164.87 229.42 164.70Q229.68 164.53 229.82 164.28Q229.97 164.02 229.97 163.68L229.97 163.68L229.97 163.64Q229.97 163.13 229.61 162.83Q229.26 162.53 228.67 162.53L228.67 162.53Q228.09 162.53 227.71 162.85Q227.34 163.17 227.34 163.79L227.34 163.79L227.34 163.95L226.24 163.95L226.24 163.81Q226.24 163.08 226.57 162.58Q226.89 162.08 227.44 161.81Q227.99 161.54 228.67 161.54L228.67 161.54Q229.36 161.54 229.90 161.81Q230.45 162.07 230.76 162.53Q231.07 163.00 231.07 163.62L231.07 163.62L231.07 163.72Q231.07 164.36 230.81 164.79Q230.56 165.23 230.10 165.51Q229.65 165.79 229.08 165.97L229.08 165.97L228.49 166.15Q228.07 166.28 227.81 166.44Q227.56 166.59 227.46 166.78Q227.35 166.98 227.35 167.27L227.35 167.27L227.35 167.34L231.01 167.34L231.01 168.33Z M234.51 164.56L234.51 164.56Q234.08 164.56 233.73 164.36Q233.38 164.17 233.18 163.82Q232.97 163.48 232.97 163.05L232.97 163.05Q232.97 162.61 233.18 162.27Q233.38 161.92 233.73 161.73Q234.08 161.54 234.51 161.54L234.51 161.54Q234.95 161.54 235.30 161.73Q235.65 161.92 235.85 162.27Q236.06 162.61 236.06 163.05L236.06 163.05Q236.06 163.48 235.85 163.82Q235.65 164.17 235.30 164.36Q234.95 164.56 234.51 164.56ZM234.51 163.71L234.51 163.71Q234.80 163.71 234.99 163.52Q235.18 163.34 235.18 163.05L235.18 163.05Q235.18 162.75 234.99 162.57Q234.80 162.39 234.51 162.39L234.51 162.39Q234.23 162.39 234.04 162.57Q233.85 162.74 233.85 163.05L233.85 163.05Q233.85 163.34 234.04 163.52Q234.23 163.71 234.51 163.71Z  M246.13 168.33L241.85 168.33L241.85 161.68L246.09 161.68L246.09 162.71L243.00 162.71L243.00 164.46L245.82 164.46L245.82 165.50L243.00 165.50L243.00 167.29L246.13 167.29L246.13 168.33Z" fill="#f1ece2"></path></svg>