<svg xmlns="http://www.w3.org/2000/svg" width="1440" height="2172" viewBox="0 0 240 362"><defs><mask id="ko" maskUnits="userSpaceOnUse" x="-20" y="-20" width="280" height="402"><rect x="-20" y="-20" width="280" height="402" fill="#fff"></rect><path d="M49.49 96L44.45 96L44.45 76.16L49.41 76.16L49.41 78.32L50.13 78.32Q50.65 77.32 51.85 76.58Q53.05 75.84 55.01 75.84L55.01 75.84Q57.13 75.84 58.41 76.66Q59.69 77.48 60.37 78.80L60.37 78.80L61.09 78.80Q61.77 77.52 63.01 76.68Q64.25 75.84 66.53 75.84L66.53 75.84Q68.37 75.84 69.87 76.62Q71.37 77.40 72.27 78.98Q73.17 80.56 73.17 82.96L73.17 82.96L73.17 96L68.13 96L68.13 83.32Q68.13 81.68 67.29 80.86Q66.45 80.04 64.93 80.04L64.93 80.04Q63.21 80.04 62.27 81.14Q61.33 82.24 61.33 84.28L61.33 84.28L61.33 96L56.29 96L56.29 83.32Q56.29 81.68 55.45 80.86Q54.61 80.04 53.09 80.04L53.09 80.04Q51.37 80.04 50.43 81.14Q49.49 82.24 49.49 84.28L49.49 84.28L49.49 96Z M87.15 96.56L87.15 96.56Q84.19 96.56 81.93 95.30Q79.67 94.04 78.41 91.74Q77.15 89.44 77.15 86.32L77.15 86.32L77.15 85.84Q77.15 82.72 78.39 80.42Q79.63 78.12 81.87 76.86Q84.11 75.60 87.07 75.60L87.07 75.60Q89.99 75.60 92.15 76.90Q94.31 78.20 95.51 80.50Q96.71 82.80 96.71 85.84L96.71 85.84L96.71 87.56L82.27 87.56Q82.35 89.60 83.79 90.88Q85.23 92.16 87.31 92.16L87.31 92.16Q89.43 92.16 90.43 91.24Q91.43 90.32 91.95 89.20L91.95 89.20L96.07 91.36Q95.51 92.40 94.45 93.62Q93.39 94.84 91.63 95.70Q89.87 96.56 87.15 96.56ZM82.31 83.80L82.31 83.80L91.59 83.80Q91.43 82.08 90.21 81.04Q88.99 80 87.03 80L87.03 80Q84.99 80 83.79 81.04Q82.59 82.08 82.31 83.80Z M105.73 96L100.69 96L100.69 76.16L105.73 76.16L105.73 96ZM103.21 73.84L103.21 73.84Q101.85 73.84 100.91 72.96Q99.97 72.08 99.97 70.64L99.97 70.64Q99.97 69.20 100.91 68.32Q101.85 67.44 103.21 67.44L103.21 67.44Q104.61 67.44 105.53 68.32Q106.45 69.20 106.45 70.64L106.45 70.64Q106.45 72.08 105.53 72.96Q104.61 73.84 103.21 73.84Z  M130.05 96.56L130.05 96.56Q126.81 96.56 124.33 95.40Q121.85 94.24 120.45 92.08Q119.05 89.92 119.05 86.88L119.05 86.88L119.05 85.76L124.25 85.76L124.25 86.88Q124.25 89.40 125.81 90.66Q127.37 91.92 130.05 91.92L130.05 91.92Q132.77 91.92 134.11 90.84Q135.45 89.76 135.45 88.08L135.45 88.08Q135.45 86.92 134.79 86.20Q134.13 85.48 132.87 85.02Q131.61 84.56 129.81 84.16L129.81 84.16L128.89 83.96Q126.01 83.32 123.95 82.34Q121.89 81.36 120.79 79.76Q119.69 78.16 119.69 75.60L119.69 75.60Q119.69 73.04 120.91 71.22Q122.13 69.40 124.35 68.42Q126.57 67.44 129.57 67.44L129.57 67.44Q132.57 67.44 134.91 68.46Q137.25 69.48 138.59 71.50Q139.93 73.52 139.93 76.56L139.93 76.56L139.93 77.76L134.73 77.76L134.73 76.56Q134.73 74.96 134.11 73.98Q133.49 73 132.33 72.54Q131.17 72.08 129.57 72.08L129.57 72.08Q127.17 72.08 126.03 72.98Q124.89 73.88 124.89 75.44L124.89 75.44Q124.89 76.48 125.43 77.20Q125.97 77.92 127.05 78.40Q128.13 78.88 129.81 79.24L129.81 79.24L130.73 79.44Q133.73 80.08 135.95 81.08Q138.17 82.08 139.41 83.72Q140.65 85.36 140.65 87.92L140.65 87.92Q140.65 90.48 139.35 92.42Q138.05 94.36 135.67 95.46Q133.29 96.56 130.05 96.56Z M153.27 96.56L153.27 96.56Q150.31 96.56 148.05 95.30Q145.79 94.04 144.53 91.74Q143.27 89.44 143.27 86.32L143.27 86.32L143.27 85.84Q143.27 82.72 144.51 80.42Q145.75 78.12 147.99 76.86Q150.23 75.60 153.19 75.60L153.19 75.60Q156.11 75.60 158.27 76.90Q160.43 78.20 161.63 80.50Q162.83 82.80 162.83 85.84L162.83 85.84L162.83 87.56L148.39 87.56Q148.47 89.60 149.91 90.88Q151.35 92.16 153.43 92.16L153.43 92.16Q155.55 92.16 156.55 91.24Q157.55 90.32 158.07 89.20L158.07 89.20L162.19 91.36Q161.63 92.40 160.57 93.62Q159.51 94.84 157.75 95.70Q155.99 96.56 153.27 96.56ZM148.43 83.80L148.43 83.80L157.71 83.80Q157.55 82.08 156.33 81.04Q155.11 80 153.15 80L153.15 80Q151.11 80 149.91 81.04Q148.71 82.08 148.43 83.80Z M175.85 96.56L175.85 96.56Q172.89 96.56 170.63 95.30Q168.37 94.04 167.11 91.74Q165.85 89.44 165.85 86.32L165.85 86.32L165.85 85.84Q165.85 82.72 167.09 80.42Q168.33 78.12 170.57 76.86Q172.81 75.60 175.77 75.60L175.77 75.60Q178.69 75.60 180.85 76.90Q183.01 78.20 184.21 80.50Q185.41 82.80 185.41 85.84L185.41 85.84L185.41 87.56L170.97 87.56Q171.05 89.60 172.49 90.88Q173.93 92.16 176.01 92.16L176.01 92.16Q178.13 92.16 179.13 91.24Q180.13 90.32 180.65 89.20L180.65 89.20L184.77 91.36Q184.21 92.40 183.15 93.62Q182.09 94.84 180.33 95.70Q178.57 96.56 175.85 96.56ZM171.01 83.80L171.01 83.80L180.29 83.80Q180.13 82.08 178.91 81.04Q177.69 80 175.73 80L175.73 80Q173.69 80 172.49 81.04Q171.29 82.08 171.01 83.80Z M191.71 101.88L189.75 101.88L189.75 99.16L191.31 99.16Q193.15 99.16 193.15 97.32L193.15 97.32L193.15 96.04L192.47 96.04Q190.87 96.04 189.81 95.08Q188.75 94.12 188.75 92.64L188.75 92.64Q188.75 91.04 189.81 90.04Q190.87 89.04 192.47 89.04L192.47 89.04Q194.11 89.04 195.15 90.06Q196.19 91.08 196.19 92.80L196.19 92.80L196.19 97.40Q196.19 101.88 191.71 101.88L191.71 101.88Z" fill="#000" stroke="#000" stroke-width="0.8" stroke-linejoin="round" stroke-linecap="round"></path><path d="M41.73 140.80L36.69 140.80L36.69 120.96L41.65 120.96L41.65 123.12L42.37 123.12Q42.89 122.12 44.09 121.38Q45.29 120.64 47.25 120.64L47.25 120.64Q49.37 120.64 50.65 121.46Q51.93 122.28 52.61 123.60L52.61 123.60L53.33 123.60Q54.01 122.32 55.25 121.48Q56.49 120.64 58.77 120.64L58.77 120.64Q60.61 120.64 62.11 121.42Q63.61 122.20 64.51 123.78Q65.41 125.36 65.41 127.76L65.41 127.76L65.41 140.80L60.37 140.80L60.37 128.12Q60.37 126.48 59.53 125.66Q58.69 124.84 57.17 124.84L57.17 124.84Q55.45 124.84 54.51 125.94Q53.57 127.04 53.57 129.08L53.57 129.08L53.57 140.80L48.53 140.80L48.53 128.12Q48.53 126.48 47.69 125.66Q46.85 124.84 45.33 124.84L45.33 124.84Q43.61 124.84 42.67 125.94Q41.73 127.04 41.73 129.08L41.73 129.08L41.73 140.80Z M79.39 141.36L79.39 141.36Q76.43 141.36 74.17 140.10Q71.91 138.84 70.65 136.54Q69.39 134.24 69.39 131.12L69.39 131.12L69.39 130.64Q69.39 127.52 70.63 125.22Q71.87 122.92 74.11 121.66Q76.35 120.40 79.31 120.40L79.31 120.40Q82.23 120.40 84.39 121.70Q86.55 123.00 87.75 125.30Q88.95 127.60 88.95 130.64L88.95 130.64L88.95 132.36L74.51 132.36Q74.59 134.40 76.03 135.68Q77.47 136.96 79.55 136.96L79.55 136.96Q81.67 136.96 82.67 136.04Q83.67 135.12 84.19 134L84.19 134L88.31 136.16Q87.75 137.20 86.69 138.42Q85.63 139.64 83.87 140.50Q82.11 141.36 79.39 141.36ZM74.55 128.60L74.55 128.60L83.83 128.60Q83.67 126.88 82.45 125.84Q81.23 124.80 79.27 124.80L79.27 124.80Q77.23 124.80 76.03 125.84Q74.83 126.88 74.55 128.60Z M97.97 140.80L92.93 140.80L92.93 120.96L97.97 120.96L97.97 140.80ZM95.45 118.64L95.45 118.64Q94.09 118.64 93.15 117.76Q92.21 116.88 92.21 115.44L92.21 115.44Q92.21 114.00 93.15 113.12Q94.09 112.24 95.45 112.24L95.45 112.24Q96.85 112.24 97.77 113.12Q98.69 114.00 98.69 115.44L98.69 115.44Q98.69 116.88 97.77 117.76Q96.85 118.64 95.45 118.64Z  M117.85 140.80L112.57 140.80L112.57 112.80L124.73 112.80Q127.37 112.80 129.33 113.72Q131.29 114.64 132.37 116.32Q133.45 118.00 133.45 120.28L133.45 120.28L133.45 120.76Q133.45 123.28 132.25 124.84Q131.05 126.40 129.29 127.12L129.29 127.12L129.29 127.84Q130.89 127.92 131.77 128.94Q132.65 129.96 132.65 131.64L132.65 131.64L132.65 140.80L127.37 140.80L127.37 132.40Q127.37 131.44 126.87 130.84Q126.37 130.24 125.21 130.24L125.21 130.24L117.85 130.24L117.85 140.80ZM117.85 117.60L117.85 125.44L124.17 125.44Q126.05 125.44 127.11 124.42Q128.17 123.40 128.17 121.72L128.17 121.72L128.17 121.32Q128.17 119.64 127.13 118.62Q126.09 117.60 124.17 117.60L124.17 117.60L117.85 117.60Z M145.07 141.12L145.07 141.12Q142.75 141.12 141.01 140.06Q139.27 139 138.31 137.12Q137.35 135.24 137.35 132.80L137.35 132.80L137.35 120.96L142.39 120.96L142.39 132.40Q142.39 134.64 143.49 135.76Q144.59 136.88 146.63 136.88L146.63 136.88Q148.95 136.88 150.23 135.34Q151.51 133.80 151.51 131.04L151.51 131.04L151.51 120.96L156.55 120.96L156.55 140.80L151.59 140.80L151.59 138.20L150.87 138.20Q150.39 139.20 149.07 140.16Q147.75 141.12 145.07 141.12Z M167.81 141.36L167.81 141.36Q165.69 141.36 164.01 140.62Q162.33 139.88 161.35 138.46Q160.37 137.04 160.37 135L160.37 135Q160.37 132.96 161.35 131.58Q162.33 130.20 164.07 129.50Q165.81 128.80 168.05 128.80L168.05 128.80L173.49 128.80L173.49 127.68Q173.49 126.28 172.61 125.38Q171.73 124.48 169.81 124.48L169.81 124.48Q167.93 124.48 167.01 125.34Q166.09 126.20 165.81 127.56L165.81 127.56L161.17 126.00Q161.65 124.48 162.71 123.22Q163.77 121.96 165.55 121.18Q167.33 120.40 169.89 120.40L169.89 120.40Q173.81 120.40 176.09 122.36Q178.37 124.32 178.37 128.04L178.37 128.04L178.37 135.44Q178.37 136.64 179.49 136.64L179.49 136.64L181.09 136.64L181.09 140.80L177.73 140.80Q176.25 140.80 175.29 140.08Q174.33 139.36 174.33 138.16L174.33 138.16L174.33 138.12L173.57 138.12Q173.41 138.60 172.85 139.38Q172.29 140.16 171.09 140.76Q169.89 141.36 167.81 141.36ZM168.69 137.28L168.69 137.28Q170.81 137.28 172.15 136.10Q173.49 134.92 173.49 132.96L173.49 132.96L173.49 132.56L168.41 132.56Q167.01 132.56 166.21 133.16Q165.41 133.76 165.41 134.84L165.41 134.84Q165.41 135.92 166.25 136.60Q167.09 137.28 168.69 137.28Z M189.31 140.80L184.27 140.80L184.27 112.80L189.31 112.80L189.31 123.40L190.03 123.40Q190.35 122.76 191.03 122.12Q191.71 121.48 192.85 121.06Q193.99 120.64 195.75 120.64L195.75 120.64Q198.07 120.64 199.81 121.70Q201.55 122.76 202.51 124.62Q203.47 126.48 203.47 128.96L203.47 128.96L203.47 140.80L198.43 140.80L198.43 129.36Q198.43 127.12 197.33 126.00Q196.23 124.88 194.19 124.88L194.19 124.88Q191.87 124.88 190.59 126.42Q189.31 127.96 189.31 130.72L189.31 130.72L189.31 140.80Z" fill="#000" stroke="#000" stroke-width="0.8" stroke-linejoin="round" stroke-linecap="round"></path><g transform="translate(0 10)"><path d="M55.38 280L53.33 280L53.33 268.56L49.24 268.56L49.24 266.70L59.46 266.70L59.46 268.56L55.38 268.56L55.38 280Z M74.80 280L66.33 280L66.33 266.70L74.70 266.70L74.70 268.56L68.38 268.56L68.38 272.38L74.17 272.38L74.17 274.24L68.38 274.24L68.38 278.14L74.80 278.14L74.80 280Z M86.56 280.27L86.56 280.27Q85.14 280.27 84.02 279.65Q82.90 279.03 82.25 277.83Q81.60 276.64 81.60 274.91L81.60 274.91L81.60 271.79Q81.60 269.19 83.03 267.81Q84.45 266.43 86.89 266.43L86.89 266.43Q89.28 266.43 90.57 267.74Q91.86 269.04 91.86 271.22L91.86 271.22L91.86 271.32L89.83 271.32L89.83 271.17Q89.83 270.35 89.51 269.69Q89.19 269.04 88.54 268.66Q87.89 268.28 86.89 268.28L86.89 268.28Q85.37 268.28 84.51 269.20Q83.66 270.12 83.66 271.75L83.66 271.75L83.66 274.95Q83.66 276.56 84.51 277.50Q85.37 278.44 86.91 278.44L86.91 278.44Q88.43 278.44 89.13 277.61Q89.83 276.77 89.83 275.44L89.83 275.44L89.83 275.19L86.26 275.19L86.26 273.43L91.86 273.43L91.86 280L89.96 280L89.96 278.65L89.66 278.65Q89.49 279.01 89.16 279.39Q88.82 279.77 88.21 280.02Q87.59 280.27 86.56 280.27Z M107.98 280L99.51 280L99.51 266.70L107.88 266.70L107.88 268.56L101.56 268.56L101.56 272.38L107.35 272.38L107.35 274.24L101.56 274.24L101.56 278.14L107.98 278.14L107.98 280Z M117.18 280L115.13 280L115.13 266.70L120.71 266.70Q121.95 266.70 122.89 267.13Q123.83 267.56 124.35 268.35Q124.87 269.15 124.87 270.25L124.87 270.25L124.87 270.46Q124.87 271.72 124.27 272.47Q123.68 273.22 122.82 273.52L122.82 273.52L122.82 273.82Q123.54 273.86 123.98 274.31Q124.42 274.76 124.42 275.59L124.42 275.59L124.42 280L122.35 280L122.35 275.88Q122.35 275.36 122.08 275.06Q121.81 274.76 121.23 274.76L121.23 274.76L117.18 274.76L117.18 280ZM117.18 268.56L117.18 272.89L120.48 272.89Q121.59 272.89 122.19 272.33Q122.80 271.77 122.80 270.80L122.80 270.80L122.80 270.65Q122.80 269.68 122.20 269.12Q121.61 268.56 120.48 268.56L120.48 268.56L117.18 268.56Z M134.17 280L132.13 280L132.13 266.70L136.09 266.70L139.70 278.63L140.00 278.63L140.00 266.70L142.03 266.70L142.03 280L138.08 280L134.47 268.05L134.17 268.05L134.17 280Z M154.33 280.27L154.33 280.27Q152.83 280.27 151.67 279.73Q150.51 279.20 149.86 278.17Q149.20 277.13 149.20 275.65L149.20 275.65L149.20 275.17L151.23 275.17L151.23 275.65Q151.23 277.06 152.08 277.76Q152.92 278.46 154.33 278.46L154.33 278.46Q155.75 278.46 156.48 277.86Q157.20 277.26 157.20 276.31L157.20 276.31Q157.20 275.69 156.86 275.29Q156.51 274.89 155.89 274.65Q155.26 274.41 154.39 274.20L154.39 274.20L153.68 274.03Q152.41 273.73 151.47 273.28Q150.53 272.84 150.02 272.10Q149.50 271.36 149.50 270.20L149.50 270.20Q149.50 269.02 150.08 268.18Q150.66 267.35 151.69 266.89Q152.71 266.43 154.10 266.43L154.10 266.43Q155.49 266.43 156.58 266.91Q157.67 267.38 158.30 268.31Q158.93 269.25 158.93 270.65L158.93 270.65L158.93 271.34L156.89 271.34L156.89 270.65Q156.89 269.80 156.54 269.26Q156.19 268.73 155.56 268.49Q154.94 268.24 154.10 268.24L154.10 268.24Q152.89 268.24 152.21 268.74Q151.54 269.25 151.54 270.14L151.54 270.14Q151.54 270.75 151.83 271.14Q152.13 271.53 152.70 271.77Q153.27 272.02 154.12 272.21L154.12 272.21L154.82 272.38Q156.12 272.67 157.10 273.11Q158.09 273.56 158.66 274.32Q159.23 275.08 159.23 276.28L159.23 276.28Q159.23 277.47 158.63 278.37Q158.03 279.26 156.93 279.76Q155.83 280.27 154.33 280.27Z M174.85 280L166.38 280L166.38 266.70L174.76 266.70L174.76 268.56L168.43 268.56L168.43 272.38L174.23 272.38L174.23 274.24L168.43 274.24L168.43 278.14L174.85 278.14L174.85 280Z M190.47 280L182.00 280L182.00 266.70L190.38 266.70L190.38 268.56L184.05 268.56L184.05 272.38L189.85 272.38L189.85 274.24L184.05 274.24L184.05 278.14L190.47 278.14L190.47 280Z" fill="#000" stroke="#000" stroke-width="0.8" stroke-linejoin="round" stroke-linecap="round"></path></g><svg x="18.81" y="170.00" width="202.38" height="104.00" viewBox="0 0 360 185" overflow="visible"><g transform="translate(14.715 29.690)"><g fill="#000" stroke="#000" stroke-width="1.4" stroke-linejoin="round" stroke-linecap="round"><g transform="translate(64.98,0)"><path d="M22.88 133.59 L22.88 133.59 Q21.33 133.16 20.38 132.82 L20.38 132.82 L19.44 132.56 Q19.61 132.13 19.31 131.78 Q19.01 131.44 18.06 131.35 L18.06 131.35 Q16.77 130.49 15.39 128.95 Q14.02 127.40 12.99 125.76 Q11.95 124.13 11.61 123.36 L11.61 123.36 Q11.18 122.32 11.44 121.98 L11.44 121.98 Q11.52 121.81 11.70 121.72 L11.70 121.72 Q12.38 121.46 13.33 121.03 L13.33 121.03 Q14.28 120.35 15.35 120.00 Q16.43 119.66 17.11 121.12 L17.11 121.12 Q18.23 123.10 20.60 124.47 Q22.96 125.85 26.02 126.11 Q29.07 126.37 32.16 125.08 L32.16 125.08 Q34.23 124.13 34.40 122.45 Q34.57 120.78 33.11 118.54 L33.11 118.54 Q32.85 117.85 32.38 117.42 Q31.91 116.99 31.00 116.30 Q30.10 115.62 28.47 114.07 L28.47 114.07 Q27.18 113.47 26.10 112.95 Q25.03 112.43 23.82 111.83 L23.82 111.83 Q22.45 111.14 20.73 109.90 Q19.01 108.65 17.54 107.14 Q16.08 105.64 15.31 104.26 L15.31 104.26 Q13.93 102.97 13.59 100.69 Q13.24 98.42 13.72 95.84 Q14.19 93.26 15.31 91.19 L15.31 91.19 Q15.82 89.99 17.20 88.05 Q18.58 86.12 20.30 84.05 Q22.02 81.99 23.61 80.31 Q25.20 78.64 26.14 78.03 L26.14 78.03 Q26.83 77.35 27.61 76.57 L27.61 76.57 L28.38 75.88 Q28.47 75.45 28.72 75.45 L28.72 75.45 L28.90 75.45 Q29.33 75.20 30.79 74.59 Q32.25 73.99 33.97 72.36 L33.97 72.36 Q39.73 69.61 43.77 68.62 Q47.82 67.63 50.14 67.63 L50.14 67.63 Q52.29 67.71 54.35 68.79 Q56.42 69.86 57.92 71.50 Q59.43 73.13 59.68 75.20 L59.68 75.20 Q60.29 77.26 59.13 80.14 Q57.96 83.02 55.94 85.56 Q53.92 88.10 51.77 89.30 L51.77 89.30 Q49.36 90.33 47.69 89.56 Q46.01 88.78 46.10 87.15 L46.10 87.15 Q46.10 86.46 46.57 85.52 Q47.04 84.57 49.19 82.16 L49.19 82.16 Q51.94 78.12 52.12 76.40 Q52.29 74.68 50.57 74.42 L50.57 74.42 Q50.05 74.25 48.59 74.51 Q47.13 74.77 45.45 75.15 Q43.77 75.54 42.53 75.97 Q41.28 76.40 41.28 76.57 L41.28 76.57 L41.28 76.83 Q41.28 76.92 41.19 77.00 L41.19 77.00 Q41.19 77.09 40.94 77.00 L40.94 77.00 Q40.76 77.00 39.78 77.56 Q38.79 78.12 37.41 78.98 Q36.03 79.84 34.70 80.74 Q33.37 81.65 32.42 82.33 Q31.48 83.02 31.39 83.19 L31.39 83.19 Q31.22 84.14 29.41 84.91 L29.41 84.91 Q27.69 85.95 26.40 87.84 Q25.11 89.73 23.39 92.65 L23.39 92.65 Q21.93 94.63 21.33 96.91 Q20.73 99.19 21.33 100.57 L21.33 100.57 Q21.76 101.94 23.69 103.28 Q25.63 104.61 28.98 106.59 L28.98 106.59 Q31.91 108.22 34.49 110.03 Q37.07 111.83 38.87 113.51 Q40.68 115.19 41.19 116.30 L41.19 116.30 Q42.23 117.77 42.44 119.66 Q42.66 121.55 42.44 123.31 Q42.23 125.08 41.88 126.19 L41.88 126.19 Q41.28 127.57 40.03 129.12 Q38.79 130.67 37.75 130.58 L37.75 130.58 Q36.81 130.84 36.34 131.18 Q35.86 131.53 35.26 131.78 L35.26 131.78 Q34.66 132.13 32.42 132.60 Q30.19 133.07 27.52 133.38 Q24.85 133.68 22.88 133.59 Z M67.77 126.28 L67.77 126.28 Q65.19 127.74 62.31 127.96 Q59.43 128.17 56.93 127.18 Q54.44 126.19 52.89 124.22 L52.89 124.22 Q52.03 123.10 51.26 120.65 Q50.48 118.20 51.00 113.98 L51.00 113.98 Q51.51 110.03 53.45 105.98 Q55.38 101.94 58.22 98.85 Q61.06 95.75 64.41 94.63 L64.41 94.63 Q65.62 94.20 66.86 93.99 Q68.11 93.77 70.18 93.94 L70.18 93.94 Q72.15 94.20 73.70 94.93 Q75.25 95.66 75.94 96.52 L75.94 96.52 Q77.31 97.90 77.74 99.19 Q78.17 100.48 78.09 101.68 L78.09 101.68 Q77.66 104.44 75.64 107.62 Q73.62 110.80 70.00 112.35 L70.00 112.35 Q68.54 112.95 66.56 113.12 Q64.59 113.29 61.15 112.61 L61.15 112.61 Q59.08 112.18 58.44 113.04 Q57.79 113.90 57.88 116.39 L57.88 116.39 Q58.05 117.94 58.61 119.10 Q59.17 120.26 60.72 120.69 L60.72 120.69 Q62.69 121.03 63.55 120.73 Q64.41 120.43 65.70 119.83 L65.70 119.83 Q66.39 119.40 67.08 118.88 L67.08 118.88 L68.37 117.85 Q68.97 117.34 69.40 117.08 L69.40 117.08 Q69.83 116.73 70.26 116.65 Q70.69 116.56 71.12 116.56 L71.12 116.56 Q72.07 116.65 72.93 117.59 Q73.79 118.54 74.05 119.40 L74.05 119.40 Q74.05 120.09 73.19 121.33 Q72.33 122.58 70.91 123.92 Q69.49 125.25 67.77 126.28 Z M66.65 107.10 L66.65 107.10 Q67.25 106.84 68.41 105.90 Q69.57 104.95 70.52 103.88 Q71.47 102.80 71.47 102.20 L71.47 102.20 Q71.47 101.25 70.22 100.57 Q68.97 99.88 66.99 100.31 L66.99 100.31 Q66.31 100.48 65.36 101.25 Q64.41 102.03 63.47 103.02 Q62.52 104.01 61.83 104.91 Q61.15 105.81 60.89 106.33 L60.89 106.33 Q61.23 106.76 62.26 107.02 Q63.30 107.27 64.54 107.27 Q65.79 107.27 66.65 107.10 Z M96.49 126.28 L96.49 126.28 Q93.91 127.74 91.03 127.96 Q88.15 128.17 85.66 127.18 Q83.16 126.19 81.61 124.22 L81.61 124.22 Q80.75 123.10 79.98 120.65 Q79.21 118.20 79.72 113.98 L79.72 113.98 Q80.24 110.03 82.17 105.98 Q84.11 101.94 86.95 98.85 Q89.78 95.75 93.14 94.63 L93.14 94.63 Q94.34 94.20 95.59 93.99 Q96.84 93.77 98.90 93.94 L98.90 93.94 Q100.88 94.20 102.43 94.93 Q103.97 95.66 104.66 96.52 L104.66 96.52 Q106.04 97.90 106.47 99.19 Q106.90 100.48 106.81 101.68 L106.81 101.68 Q106.38 104.44 104.36 107.62 Q102.34 110.80 98.73 112.35 L98.73 112.35 Q97.27 112.95 95.29 113.12 Q93.31 113.29 89.87 112.61 L89.87 112.61 Q87.81 112.18 87.16 113.04 Q86.52 113.90 86.60 116.39 L86.60 116.39 Q86.77 117.94 87.33 119.10 Q87.89 120.26 89.44 120.69 L89.44 120.69 Q91.42 121.03 92.28 120.73 Q93.14 120.43 94.43 119.83 L94.43 119.83 Q95.12 119.40 95.80 118.88 L95.80 118.88 L97.09 117.85 Q97.70 117.34 98.13 117.08 L98.13 117.08 Q98.56 116.73 98.99 116.65 Q99.42 116.56 99.85 116.56 L99.85 116.56 Q100.79 116.65 101.65 117.59 Q102.51 118.54 102.77 119.40 L102.77 119.40 Q102.77 120.09 101.91 121.33 Q101.05 122.58 99.63 123.92 Q98.21 125.25 96.49 126.28 Z M95.37 107.10 L95.37 107.10 Q95.98 106.84 97.14 105.90 Q98.30 104.95 99.24 103.88 Q100.19 102.80 100.19 102.20 L100.19 102.20 Q100.19 101.25 98.94 100.57 Q97.70 99.88 95.72 100.31 L95.72 100.31 Q95.03 100.48 94.08 101.25 Q93.14 102.03 92.19 103.02 Q91.25 104.01 90.56 104.91 Q89.87 105.81 89.61 106.33 L89.61 106.33 Q89.96 106.76 90.99 107.02 Q92.02 107.27 93.27 107.27 Q94.51 107.27 95.37 107.10 Z M118.42 145.20 L118.42 145.20 Q116.01 146.15 113.39 144.90 Q110.77 143.65 108.88 140.99 L108.88 140.99 Q108.53 140.47 107.84 139.14 Q107.16 137.80 106.51 136.26 Q105.87 134.71 105.56 133.59 Q105.26 132.47 105.52 132.30 L105.52 132.30 Q105.87 131.35 107.07 131.18 Q108.27 131.01 109.48 131.31 Q110.68 131.61 110.85 132.13 L110.85 132.13 Q111.11 132.73 111.37 133.38 Q111.63 134.02 112.01 134.58 Q112.40 135.14 112.75 135.57 L112.75 135.57 Q113.69 137.03 114.81 137.59 Q115.93 138.15 116.53 137.72 L116.53 137.72 Q117.99 136.60 118.72 135.09 Q119.45 133.59 120.66 129.81 L120.66 129.81 Q121.60 126.62 122.29 124.30 Q122.98 121.98 123.75 120.00 L123.75 120.00 Q124.01 118.97 124.44 118.20 L124.44 118.20 Q124.53 118.02 124.61 117.85 L124.61 117.85 Q123.41 118.71 122.46 119.57 L122.46 119.57 Q121.17 120.78 118.94 121.72 L118.94 121.72 Q118.42 122.32 116.40 122.45 Q114.38 122.58 112.49 121.98 L112.49 121.98 Q111.28 121.29 110.55 120.56 Q109.82 119.83 109.35 118.88 Q108.88 117.94 108.36 116.65 L108.36 116.65 Q107.76 115.36 108.19 112.43 Q108.62 109.51 109.74 106.59 L109.74 106.59 Q110.77 104.44 112.75 101.94 Q114.72 99.45 116.96 97.43 Q119.20 95.41 121.00 94.89 L121.00 94.89 Q121.69 94.55 123.41 94.07 Q125.13 93.60 126.68 94.03 L126.68 94.03 Q128.14 94.20 128.91 94.67 Q129.69 95.15 131.41 96.61 L131.41 96.61 Q132.53 97.73 134.16 99.49 Q135.79 101.25 136.22 102.46 L136.22 102.46 Q136.83 103.75 136.48 105.25 Q136.14 106.76 135.28 107.88 L135.28 107.88 Q134.50 108.99 133.64 110.11 Q132.78 111.23 132.35 113.21 L132.35 113.21 Q131.92 115.79 130.72 119.01 Q129.52 122.24 128.83 124.99 L128.83 124.99 L127.45 130.32 Q125.30 137.63 122.72 140.94 Q120.14 144.25 118.42 145.20 Z M116.62 115.62 L116.62 115.62 Q118.34 115.53 119.58 115.23 Q120.83 114.93 121.95 113.85 Q123.07 112.78 124.53 110.54 L124.53 110.54 Q125.99 108.48 126.59 106.76 Q127.19 105.04 127.02 102.89 L127.02 102.89 Q126.94 101.51 126.25 101.08 Q125.56 100.65 124.44 100.82 L124.44 100.82 Q122.81 101.08 121.52 102.16 Q120.23 103.23 118.51 105.47 L118.51 105.47 Q117.22 107.19 116.36 109.60 L116.36 109.60 Q115.50 112.18 115.63 113.72 Q115.76 115.27 116.62 115.62 Z M143.88 138.41 L143.88 138.41 Q143.36 138.75 141.56 137.59 Q139.75 136.43 138.55 135.05 L138.55 135.05 Q137.94 134.36 137.77 133.59 Q137.60 132.82 137.86 130.67 L137.86 130.67 Q138.20 129.72 138.24 128.86 Q138.29 128.00 138.29 127.66 L138.29 127.66 Q138.29 127.14 138.59 125.25 Q138.89 123.36 139.23 121.25 Q139.58 119.14 139.84 118.02 L139.84 118.02 Q139.84 117.94 139.96 117.42 Q140.09 116.91 140.18 116.65 L140.18 116.65 Q140.35 115.87 140.61 114.76 Q140.87 113.64 141.13 111.75 L141.13 111.75 Q141.81 109.60 142.29 107.49 Q142.76 105.38 142.76 104.61 L142.76 104.61 Q142.76 103.06 143.96 102.37 L143.96 102.37 Q144.05 101.94 144.48 101.04 Q144.91 100.14 145.25 99.53 L145.25 99.53 Q146.97 94.63 148.09 91.71 Q149.21 88.78 150.41 86.63 L150.41 86.63 Q150.93 85.17 151.57 83.62 Q152.22 82.08 152.91 81.22 L152.91 81.22 Q153.51 80.01 155.01 78.25 Q156.52 76.49 158.24 74.85 Q159.96 73.22 160.99 72.44 L160.99 72.44 Q162.88 71.50 164.52 70.90 Q166.15 70.29 167.96 70.29 L167.96 70.29 Q169.59 70.29 170.84 71.03 Q172.09 71.76 174.58 73.99 L174.58 73.99 Q175.44 75.11 175.44 76.14 Q175.44 77.17 175.01 77.86 L175.01 77.86 Q174.41 79.24 173.20 81.26 Q172.00 83.28 170.88 84.87 Q169.76 86.46 169.25 86.55 L169.25 86.55 Q168.22 87.15 167.10 86.89 Q165.98 86.63 165.98 85.34 L165.98 85.34 Q165.98 84.74 166.07 84.23 L166.07 84.23 L166.07 83.71 Q166.32 82.59 166.71 81.73 Q167.10 80.87 167.44 80.27 L167.44 80.27 Q168.13 79.15 167.83 78.12 Q167.53 77.09 165.64 77.26 L165.64 77.26 Q165.38 77.43 164.65 78.08 Q163.92 78.72 163.10 79.54 Q162.28 80.36 161.68 81.09 Q161.08 81.82 161.08 82.08 L161.08 82.08 L160.65 82.94 Q160.13 83.88 159.19 85.00 L159.19 85.00 Q158.58 85.86 158.15 86.63 Q157.72 87.41 157.72 87.84 L157.72 87.84 Q157.72 88.18 157.64 88.44 Q157.55 88.70 157.21 88.70 L157.21 88.70 L156.95 89.56 Q156.61 90.42 155.92 91.62 L155.92 91.62 Q155.57 92.48 155.19 93.21 Q154.80 93.94 154.46 94.29 L154.46 94.29 L154.37 94.46 L154.03 95.41 Q153.60 96.44 153.17 97.47 Q152.74 98.50 152.74 98.67 L152.74 98.67 Q152.74 99.02 153.77 99.02 Q154.80 99.02 156.26 98.72 Q157.72 98.42 159.10 98.07 L159.10 98.07 Q160.30 97.73 160.82 97.73 Q161.34 97.73 162.45 98.07 L162.45 98.07 Q163.14 98.50 163.57 99.58 Q164.00 100.65 164.22 101.73 Q164.43 102.80 164.26 103.32 L164.26 103.32 Q164.17 103.66 162.32 104.26 Q160.48 104.87 158.67 105.21 L158.67 105.21 Q157.12 105.55 155.19 105.94 Q153.25 106.33 151.79 106.72 Q150.33 107.10 150.24 107.45 L150.24 107.45 Q149.90 107.45 149.68 107.88 Q149.47 108.31 149.47 108.65 L149.47 108.65 Q149.47 109.77 149.04 110.46 L149.04 110.46 Q148.87 110.97 148.48 112.56 Q148.09 114.15 147.70 116.00 Q147.32 117.85 147.02 119.44 Q146.72 121.03 146.72 121.55 L146.72 121.55 Q146.20 122.15 146.11 123.06 Q146.03 123.96 146.03 124.65 L146.03 124.65 Q145.68 125.33 145.60 125.89 Q145.51 126.45 145.51 126.80 L145.51 126.80 L145.51 127.14 Q145.51 127.40 145.43 127.66 L145.43 127.66 Q145.34 128.52 145.21 129.94 Q145.08 131.35 145.08 132.73 L145.08 132.73 L144.82 135.22 Q144.74 136.34 144.52 137.16 Q144.31 137.98 143.88 138.41 Z M186.02 127.83 L186.02 127.83 Q185.16 126.97 184.64 125.46 Q184.13 123.96 183.61 121.98 L183.61 121.98 Q183.44 121.29 183.48 120.43 Q183.52 119.57 183.44 119.06 L183.44 119.06 Q183.18 119.66 182.62 120.60 Q182.06 121.55 181.55 121.98 L181.55 121.98 Q181.20 122.32 180.00 123.31 Q178.79 124.30 177.59 124.90 L177.59 124.90 Q174.75 126.71 172.56 126.58 Q170.37 126.45 168.73 124.39 L168.73 124.39 Q167.36 123.27 166.50 121.55 Q165.64 119.83 166.15 117.42 L166.15 117.42 Q166.32 114.41 167.01 111.53 Q167.70 108.65 169.85 103.83 L169.85 103.83 Q171.66 100.31 172.60 98.33 Q173.55 96.35 173.81 96.01 L173.81 96.01 Q175.10 95.58 176.99 96.05 Q178.88 96.52 179.05 97.73 L179.05 97.73 Q179.57 98.59 179.05 100.95 Q178.54 103.32 176.99 106.33 L176.99 106.33 Q175.78 109.25 174.71 112.00 Q173.63 114.76 173.42 116.65 Q173.20 118.54 174.41 118.97 L174.41 118.97 Q175.18 119.40 176.69 118.88 Q178.19 118.37 180.26 115.79 Q182.32 113.21 184.64 107.62 L184.64 107.62 Q185.33 105.90 185.67 104.56 Q186.02 103.23 186.10 101.60 L186.10 101.60 Q185.93 100.57 186.66 99.45 Q187.39 98.33 188.43 97.73 L188.43 97.73 Q188.77 97.30 189.37 96.87 L189.37 96.87 Q189.80 96.61 189.97 96.78 L189.97 96.78 Q190.06 96.78 190.15 96.95 L190.15 96.95 L191.52 96.87 Q191.87 96.78 192.30 97.56 Q192.73 98.33 193.16 98.67 L193.16 98.67 Q194.10 99.45 194.02 102.03 Q193.93 104.61 191.95 109.25 L191.95 109.25 Q190.32 112.78 189.76 114.58 Q189.20 116.39 189.11 118.11 L189.11 118.11 Q189.11 119.66 189.37 120.73 Q189.63 121.81 190.92 122.93 L190.92 122.93 Q191.87 123.53 191.99 124.95 Q192.12 126.37 192.04 127.40 L192.04 127.40 Q191.87 128.17 190.70 128.47 Q189.54 128.77 188.21 128.60 Q186.88 128.43 186.02 127.83 Z M197.80 126.54 L197.80 126.54 Q197.11 125.85 196.81 124.47 Q196.51 123.10 196.60 121.77 Q196.68 120.43 197.03 119.74 L197.03 119.74 Q197.03 119.06 197.24 118.67 Q197.46 118.28 197.37 117.94 L197.37 117.94 Q197.28 117.59 197.54 116.73 Q197.80 115.87 198.06 115.10 L198.06 115.10 Q198.66 113.72 199.43 111.53 Q200.21 109.34 200.98 107.06 Q201.76 104.78 202.27 103.10 Q202.79 101.43 202.87 101.08 L202.87 101.08 Q202.87 100.05 204.25 99.96 L204.25 99.96 Q205.28 99.62 206.74 100.82 Q208.21 102.03 209.07 103.40 L209.07 103.40 Q209.75 104.09 209.58 105.21 Q209.41 106.33 208.46 108.39 L208.46 108.39 Q208.12 109.08 207.65 110.67 Q207.17 112.26 207.00 113.29 L207.00 113.29 Q206.66 113.98 206.18 115.23 Q205.71 116.48 205.37 117.59 L205.37 117.59 Q205.20 118.02 205.02 119.19 Q204.85 120.35 204.59 121.55 Q204.34 122.75 203.91 123.44 L203.91 123.44 Q203.13 126.97 201.20 127.57 Q199.26 128.17 197.80 126.54 Z " fill="#000"></path><defs><mask id="hm2k" maskUnits="userSpaceOnUse"><path d="M0,3 C0,-3 -9,-6 -9,-13 C-9,-19 -2,-20 0,-14 C2,-20 9,-19 9,-13 C9,-6 0,-3 0,3 Z" fill="#fff"></path><path d="M-7.5,-8 q2.5,-3.4 5,0 t5,0 t5,0" fill="none" stroke="#000" stroke-width="2.1" stroke-linecap="round"></path></mask></defs><g transform="translate(210.40,95.23) rotate(12) scale(0.940)"><path d="M0,3 C0,-3 -9,-6 -9,-13 C-9,-19 -2,-20 0,-14 C2,-20 9,-19 9,-13 C9,-6 0,-3 0,3 Z" fill="#000" mask="url(#hm2k)"></path></g></g></g></g></svg></mask></defs><g mask="url(#ko)"><path d="M1646.026,1866.889v-2.045v-5.17l-1.4-3.088l-4.164-3.086l-4.236-4.164l-0.609-2.012l0.609-5.205l0.719-7.252 v-5.098l-0.719-6.281l-1.293-3.088l-2.117-4.057l-2.117-4.127l-4.164-3.088l-3.447-3.088l-4.129-1.076l-2.836-2.117l-2.727-6.176 l-5.564-4.129l-0.684-2.045l-2.836-2.01l-6.246-4.166l-4.164,1.078l-2.729-2.119l-3.518-1.076l-2.047-2.01l-0.682-3.088l0.682-4.164 l-0.682-4.129l-0.717-3.086l-2.119-4.164l-1.4-4.057l-0.609-2.119l-1.436-3.086l-2.801-3.088l-2.047-2.01l-2.117-1.078l-2.117-2.117 l-2.729-0.969l-2.836,0.969l-3.447,1.076l-2.729,1.041l-4.918-1.041l-4.846-4.164l-4.883,2.119l-7.574,3.086l-6.246,2.047 l-6.281,1.041h-3.52l-2.727-1.041l-2.836-2.047l-2.729-4.127l-2.119-4.164l-3.445-3.088l-4.129-1.041l-4.236-2.047l-5.564-1.041 h-6.893l-4.918-0.969h-3.445l-4.129-1.078l-3.553-4.127l-0.611-7.252l-5.564-6.139l-4.918-3.123l-6.893-1.041v4.164l-9.082,2.01 l-11.129,2.119l-7.574,3.086l-4.236-3.086l-6.174,1.041l-9.082,4.057l-10.41,2.117l-7.684,2.047l-7.574,3.086l-9.082,8.293 l1.4,1.041l-2.01,2.047l-1.436-1.076l-1.4,1.076l-9.012,2.01l-2.799-2.01l-2.729-1.076h-3.518l-2.047,4.164l-2.117,1.041h-6.248 l-5.563-1.041l-6.283-1.078l-5.527-3.086l-3.447-3.088l-2.836-4.129l-3.445-5.133l-2.801-7.217l-2.047-4.164l-0.717-6.174 l2.152-7.215l3.412-7.217l0.717-4.164l2.729-4.127l1.4-10.34l2.117-9.262l4.164-7.215l4.129-4.164l6.283-2.012l3.445-3.086 l6.246-8.293l1.4-5.133l2.117-5.205v-4.129l2.047-5.133l1.4-5.207l2.836-2.01l1.328-4.164l0.682-5.098l-2.01-6.281l-0.719-9.262 l-0.717-7.217v-10.338v-5.098v-3.088v-5.205l-0.684-5.133l-1.398-4.129l-3.447-6.246l-7.682-9.262l-4.846-6.174l-0.719-4.164 l-3.447-3.088l-2.117-3.088l-4.846-5.205l-2.729-5.098l-1.4-4.164l-2.117-2.01l-6.965-2.119l-5.564-0.969l-6.893-1.076l-4.236-1.041 l-3.445-3.088l-2.082-1.076l-4.883-0.971l-6.855-1.041h-4.236h-1.328h-11.811l-3.555-1.076l-2.729-2.01l-4.127-2.119l-2.838-4.057 l-2.727-5.205l-1.4-4.164l-1.436-3.086l-4.848-11.381l-2.117-6.174l-2.01-4.129l-0.719-2.045l-4.846-4.129l-2.119-2.047 l-3.445-4.129l-5.564-5.205l-2.117-2.045h-1.4l-2.729-4.129l-0.719-1.076l0.719-2.012l-2.836-4.164l-4.129-5.098l-0.717-1.076 l-7.684-10.303l-6.855-5.205l-4.236-4.057l-3.447-1.041l-1.398-4.164l-2.047-6.176l-0.682-2.117v-0.969l-3.555-7.217h-1.328 l-15.328-10.338h-1.328l-1.4-1.041h-1.436l-0.682-2.047l-2.047-1.041l0.717-1.076h3.447l0.682-0.969l-2.799-1.041l-0.719-1.078 l1.4-1.041l2.836-3.086l4.164-4.057l4.846-3.195l2.801-3.088l1.328-3.088l2.117-4.127l0.719-4.057l2.01-2.119l-1.328-1.076 l-2.801-0.969l-0.717-10.303l-0.719-2.119l-0.609-2.045l0.609-4.129l0.719-5.133l3.518-5.205l0.719-7.217h0.609v-2.045h2.119v-3.088 v-4.129l-1.4-2.117h-0.719l1.4-7.252h1.436l1.4-6.139l-1.4-2.047l4.129-7.215l3.553-6.174l2.729-3.195l5.529-10.303l-1.4-0.969 l2.117-3.088l1.438-6.283l1.291-22.65v-8.293l-0.609-3.088v-1.076v-0.969l-0.682-1.041v-2.047l-0.719-1.041l1.4-2.117v-2.047 l-2.119-4.129h2.119l2.729-2.045v-6.176h1.436l-0.719-5.205l-0.717-5.098l-1.4-6.281l-0.719-2.012v-6.174l-1.291-4.164l-2.836-4.129 l-2.047-3.086v-4.164v-6.176l1.328-3.086v-3.088l-5.564-6.246l-6.246-8.186l-9.693-10.338l-4.846-4.129l-1.436-4.164l-27.068-35.109 h-2.045l-3.518-5.205l-3.447-5.098l-4.129-3.086l-0.717-3.088l-3.518-5.205l-4.848-7.252l-4.164-7.215l-2.799-5.133l-2.047-6.176 l-1.4-6.246l-2.729-6.174l-5.564-9.262l-11.127-12.422l-5.529-6.174l-4.236-8.293l-3.445-8.221l-0.719-5.205v-14.467v-9.262 l-4.127-8.293l-4.848-6.174l-5.564-4.129l-7.682-9.262l-1.4-4.164l-6.281-5.205l-4.848-4.057l-7.574-11.379l-0.717-6.176 l-4.848-6.246l-4.918-2.045l-10.41-10.305l-5.564-5.205l-3.445-2.045l-3.447-2.119l-4.234-0.934l-3.447-1.076l-2.801-2.047h-3.445 l-1.4-1.041l1.4-5.205v-2.01l-2.729-4.164l-2.117-6.174l-3.447-6.176l-2.836-5.205l-0.682-6.174l-0.719-9.334l-1.328-9.262v-5.133 l1.328-7.217l1.4-1.076v-5.205l-1.4-9.262l-5.564-16.479l-5.563-8.291l-6.857-6.176l-9.801-7.25h-1.328l-11.092-3.088l-5.564-1.041 h-1.4h-0.717l-0.719-1.076l-1.4-0.971l-1.328-1.041l0.611-2.117l0.717-7.217l-2.047-6.174l-0.682-13.426l-4.236-5.205l-3.445-7.215 l-4.129-9.262l-1.436-21.719l-1.4-6.176l-0.717-8.291l-2.012-6.176l-1.436-3.086l-4.129-6.176l-1.398-4.127l-2.119-1.078 l-1.328-3.086l0.682-5.207l-1.398-6.174l-0.684-3.088l-3.445-3.086l-2.836-1.041l-2.119-2.047l-4.846-4.129l-6.281-5.205 l-14.539-12.348l-4.129-6.176l-6.965-13.498l-2.764-8.184l-2.799-12.457l-4.164-7.215l-5.564-4.164l-4.129-6.176l-1.4-3.086 l8.975-3.088l4.164-3.088l-0.646-1.041l-4.199,1.041l-9.729,4.164l-4.129-5.205l-6.281-8.293l-5.529-6.174l-2.117-5.133 l-2.047-8.293l-2.799-13.391l-1.438-7.252l-3.445-6.246l-6.246-6.174l-9.693-8.293l-3.445-5.098l-4.955-14.467l-1.328-8.293v-18.523 l-1.4-9.369l-2.799-11.379l-0.719-7.217l0.719-6.174l2.082-3.088l4.881-6.174l9.084-7.252l4.127-6.246l3.447-6.174l4.127-5.133 l2.836-9.334l1.4-5.133l0.719-4.129l1.328-4.164l4.236-11.344l0.609-3.088l1.4-3.088l2.117-8.291l0.719-4.164v-4.129l-0.719-5.133 l-0.682-2.012l-1.436-2.117l-1.4-2.047v-4.129l2.119-2.117l0.717-2.047l-2.117-7.215h-0.719l-2.729-3.088l-1.398-1.076l-1.438-9.262 l1.438-6.246l3.518-6.174l-0.719-16.514l0.719-4.129v-3.088l-0.719-4.164l-3.518-6.174l-2.047-2.117l-1.4-2.012l-2.836,1.041 l-2.01,0.971l-0.717-0.971v-1.041l2.117-1.076h2.047l1.398-2.01l2.729-2.119l2.119-2.045l1.4-1.041v-3.088l1.436-6.174l2.01-5.207 l1.436-4.127v-7.252v-4.057l-1.436-13.498l-0.682-8.184v-5.207l-1.328-3.086l-1.436-8.293l-2.082-4.164l-3.447-11.379l-2.836-10.304 l-0.719-5.134l-2.01-3.087l-3.518-4.128l-0.646-4.164l-4.199-6.175l-2.047-3.087l-0.719-4.129V0h-4.846h-7.682l-3.41,3.087 l1.328,6.175l-0.719,6.282l-4.846,14.467l-3.447,4.057l-4.164,3.159l-3.518,4.057l-2.729,3.088l-4.846,3.193l-5.564-2.117 l-4.846-2.047l-5.564-1.041h-9.082l-7.574,1.041l-9.082,2.047l-9.012,4.129l-9.082,3.086h-5.564l-4.846-3.086l-4.129,1.076 l-4.883,2.01l-4.127,4.164l-0.719,1.041l-6.963,3.088l-2.729,1.076l-6.246,2.012l-7.684,3.086l-4.164-1.041l-6.246-0.969 l-6.281,0.969l-3.412,2.119l-6.281,3.086l-6.246,4.129l-1.436,3.088l-6.965,5.205l-3.41,4.057l-7.682,6.281v2.012l-2.047,6.174 l-2.117,7.252l-0.684,4.127l-4.164,8.293l-2.836,9.262l-2.729,7.217l-3.445,5.205l-2.801,3.086l-2.117,2.047h-0.611l-6.281,1.041 l-9.801,1.076h-8.256l-7.684,3.088l-4.846,1.041l-2.045-1.041l-3.52-1.076l-3.445,1.076h-2.119l-2.727,2.01l-6.965,5.205 l-7.682,5.207l-6.248,3.086l-11.127,3.088l-6.893,8.221l-10.482,6.246l-4.129,3.088l-10.41,4.164l-9.01,4.127l-2.836,6.176v4.164 l-1.4,6.174l-2.012,4.129l-4.164,2.045l-4.234,3.088l-6.248,1.041l-3.445,4.164l-4.846,6.176l-1.436,5.205l-1.4,6.174l-2.012,7.215 l-3.553,15.51l-1.293,4.055l-2.154,3.195l-8.256,11.273l-2.836,5.205l-8.293,11.379v6.174l-2.836,4.164l-2.117,7.217l-3.447,6.174 l-1.4,4.164l0.719,3.088l1.4,8.293l2.117,7.215l2.047,12.35v15.543l5.527,4.129l1.438,4.164l-1.438,5.098l-1.398,3.088l-4.848,1.076 l-2.01,4.129l3.41,5.098l0.719,6.281l4.127,7.215l4.166,6.176l2.836,8.293l1.398,8.221v5.205l1.328,5.098l-1.328,3.193l-0.717,6.176 l0.717,4.127l1.328,5.135l-0.609,4.129l-3.555,4.164l-6.246,6.174l-5.564,5.205l-4.164,6.174l-1.4,3.088l0.719,7.215l2.117,5.205 l4.848,5.135l2.729,5.205l5.564,13.391l2.836,6.174l6.246,4.129l1.398,4.164l-11.811,15.436l-8.363,14.467l-4.883,7.217l0.719,9.369 v4.127l4.846,13.426l1.436,7.217l0.684,8.221l2.727,3.158l7.002,8.221l4.846,5.205l6.965,5.098l2.01,7.252l4.236,11.379l2.045,5.17 l3.52,7.252l3.445,12.35l2.117,8.291l-0.717,5.098l2.045,9.369l0.684,8.186l-1.293,10.338l-2.154,7.217l0.719,4.164l6.281,9.334 l4.129,6.174l2.729,8.221l4.953,5.205l2.012,8.293l4.881,6.174l1.4,7.217v5.133l-4.846,15.508l-3.447,5.205l-2.117,3.088h-9.01 l-2.801,7.215l-5.564,4.057l-8.293,3.195L387.325,850l-2.047,6.174l-0.682,4.164l2.01,10.303l2.119,5.205l3.445,4.164l4.848,3.088 l2.799,1.041l11.848-1.041l4.846,2.01l11.092-0.969l4.883,0.969l3.41,4.164l3.555,2.119h5.527l11.848-3.195l8.291-0.969l7.646,0.969 l8.293,2.117l5.564,4.164l4.953,4.057l7.574,7.217l3.52,3.193l8.291-1.076l7.684,2.047l4.846,2.117l4.846,0.969h5.564l2.729,3.088 l7,2.117h4.811h5.564l2.836,1.041l4.846,2.047l3.447,3.088l1.4,4.127v3.088l-0.684,5.205l1.4,4.057l6.246,2.119l0.719,2.045 l0.717,2.119l-0.717,0.969l-1.4,1.041l-5.564,3.088l-2.117,15.508l5.564,5.133l1.398,6.246v6.174l-2.117,5.135l-2.01,5.205 l-3.555,4.129l-5.564,2.045l-5.527,4.129l-6.176,8.293l-7.682,7.25v3.088l-0.719,4.129l1.438,5.133l-0.719,8.293l3.447,7.215 l4.234,8.221l7.576,8.293l3.518,1.041l3.445,0.969h2.729l5.564,1.078l4.236-1.078l2.01-3.086l3.555-0.971l6.246,2.047l5.564,3.088 l6.174,3.086l4.953,3.088l4.129,7.215l2.047,5.205l-2.764,5.135l-2.119,5.205l0.719,7.215l-3.447,8.186l-1.4,8.293l-0.717,7.25 l0.717,5.205l2.836,5.098l2.012,4.164l4.846,5.098l1.4,2.119l0.717,3.086l-1.398,2.047h-6.965l-4.164,3.088l-5.564,6.246l-1.4,6.174 l-0.609,5.135l-2.119,5.205l-4.846,6.174l-7.682,2.117l-9.693,2.012l-0.717-2.012l-10.412,9.262l-4.846,5.207l0.719,7.143 l-6.283,2.119l-2.799,3.086l-0.719,7.217l1.436,7.25l3.518,7.217l3.447,5.133l4.129,6.246l4.127,4.057l2.836,1.076h2.729v-3.086 v-4.164h1.436v5.205l-0.717,2.045h2.836v3.088h1.4l0.609-7.252l2.836,1.078l-0.719,1.041l-1.398-1.041l-0.719,6.174h6.246 l1.436-3.088l-2.729-1.076v-0.969l3.447,0.969l0.682-0.969l4.846,2.045l-0.682,2.012h4.129l4.236,3.158l9.01,7.252l2.117,4.057 l2.729,3.086l4.848,1.041l4.234,5.207l6.176,5.133l7.682,6.174l6.246,5.205l-0.717,2.012h-2.119v1.076v1.041l2.119,2.047 l-3.41,8.291l0.682,7.217l5.564,3.086l4.164,4.166l1.4,5.096l2.01,3.088l4.846,5.205l7,4.164l2.801,7.217l4.164,4.057l14.539,6.281 l11.811,5.098l6.281,2.117l13.211,10.34l6.893,5.098l7.682,2.117l5.529,4.057l6.281,6.246l2.729,5.135l1.4,8.291l6.281,8.186 l3.447,4.164l4.846,2.117l6.246,5.098l9.801,10.34l4.846,7.215l3.447,7.252l4.846,5.205l4.846,3.088l4.955,4.057l4.127,2.117h6.283 l6.246-1.076l4.846-1.041l3.447-3.088l4.846-2.047l4.164-1.041l4.236,3.088l4.129,3.088l3.445,3.158l3.518,5.133l4.848,4.129 l4.164,4.164l3.445,4.057l4.236,7.215l2.01,3.195l5.564,2.012l4.846,1.076h5.564h2.836l3.41-1.076l4.848,3.086l4.953,2.047 l-4.236,5.205v7.215l0.719,14.467l0.682,5.135l0.719,7.215l0.717,3.088v2.117l-8.4,4.129l-2.01,3.088l-1.4,5.133l-4.881,4.129 l-1.4,4.164v4.127v5.135l1.4,3.086l1.436,5.205l1.293,4.129v3.088l-2.729,4.057l-3.52,3.195l-1.328,2.01l-0.682,4.164v5.098v7.252 l-4.164,7.215l-2.117,5.205l-1.4,7.252l-0.719,8.184l-2.01,2.119l-6.965,7.143l-2.836,5.205l-2.729,3.088l-6.963,9.262l-2.047,7.252 l-4.236,9.334l-2.01,5.133v5.205l4.846,4.021l-3.553,4.164l-1.293,7.215l2.729,6.174l1.4,7.252l0.717,5.205l-1.4,4.129l-2.764,4.057 l-4.236,3.195l-0.682,3.086l0.682,9.262l4.236,4.129l3.447,5.133l2.117,5.205l2.047,6.176l2.117,4.127l-2.836,4.166l-6.893,6.174 l-1.4,4.129l-4.164,7.25v5.098l2.047,4.164l2.117,4.129l0.719,5.133l-4.236,4.129l-11.738,1.076l-9.082-1.076l-8.293-2.01 l-6.965-3.195l-6.281-2.01l-5.529-1.078h-9.01h-4.236l-6.174,4.164l-4.236,3.088l-3.445,4.129l-0.684,7.25h-9.01l-7.682,1.041 l-19.494,9.264l-4.127,6.174l-0.719,9.334l0.719,11.307l2.799,2.119l-2.117,6.174l2.117,3.088l4.164,7.215l4.848,5.133l4.164,5.207 l-0.719,6.174l5.564,6.174l6.965,3.088l7.646,8.293l2.764,6.174l2.801,3.088l4.164,4.127l0.682,4.164l6.281,7.217l2.119,6.174 l2.01,6.174l2.117,4.166l2.766,4.127l5.527,4.164l6.283,2.012l6.963,3.086l5.564,4.164l5.529,3.088l9.01,3.088l7.682,3.086 l6.965,2.119l4.846,0.969l4.164-2.047l2.801-2.01l2.729-6.281l-1.4-3.088l0.719-7.215l0.682-2.047l2.836-2.01l4.129-3.195 l2.045-2.01l-2.729-2.047l-3.445-3.088v-8.293l3.445-5.205l2.729-4.057v-5.205l-4.164-3.086l-2.729-6.176l-3.518-3.086l-3.445-3.088 l-2.836-3.158h-2.729l-2.801-2.047l-2.729-9.262l-2.117-6.174l-0.719-4.129l-0.609-3.088l-4.236-2.117l-2.047-2.047l-1.398-2.117 l0.717-6.176l1.4-6.174l3.445-3.088l4.129-2.01h3.518h2.766l7.645-4.164l6.283-3.088l2.729-3.086l2.836-3.16l6.174-0.969 l5.529,6.174l2.836,2.047l3.445,3.051l6.965,2.119l4.129,1.076h3.553h1.328l2.119,2.01l6.246,2.047h4.127l4.166,1.041l4.234,1.076 l2.729,0.971l4.236,1.041l4.846,1.076l2.047-1.076l0.682-3.088h1.436l2.729,1.076l11.811-1.076l9.082-3.088h5.564l4.848-2.01 l4.846-2.117l4.164-3.088l5.527-4.164l5.564-3.088l8.4-2.01l4.129,0.969h7.682h11.094h4.881h8.975l5.564-0.969h4.164l5.529-3.088 l4.846,0.971l7.682-3.088h3.447h3.518h5.564l8.293-0.969l9.082-2.119l6.963-2.01l6.176-3.088l5.564-4.164l6.246-5.205l2.836-3.088 l0.717-6.174l2.012-5.205l1.436-4.057l2.082-3.088l2.047-6.246l2.117-7.25l0.719-0.971l6.963-2.117h4.129l1.4,4.164l5.564,4.129 h8.291l4.166,1.076h4.234h6.857l6.281-2.117l5.529-2.047l2.836-2.117l3.445-2.012l2.836-1.076l4.129-2.01l2.047-2.047l1.4-4.129 l3.518-7.252l2.045-5.205l2.801-2.01l6.283-2.047l4.846-1.041l4.129,2.012l4.164,3.086l3.518,4.164l2.729,10.305l0.717,6.174 l4.129,3.088l3.555,2.117l10.41,2.047h6.965h7.574l5.564,1.041h5.563l6.965-1.041l2.119-0.971h4.846l7.574-1.076l7.682-2.117 l4.848-0.971l6.963-1.041h5.564h3.447h3.518l2.729,1.041l3.445,0.971l2.836,1.076l2.119,2.117l1.328,2.012h-0.719l0.719,4.164h1.4 v0.969v1.041h-0.719l0.719,5.205h-0.719l1.4,5.133l1.436,6.176l0.682,6.246l1.328,5.133l2.119,5.205v0.969l0.717,5.207l2.012,4.127 v0.971l1.436,6.246l0.682,6.174h-2.117l3.553,12.35l2.01-2.012l3.52,4.129l2.764,3.088l3.518,2.045h2.729l5.564,1.041l9.082-2.117 l6.246-4.057l4.846-3.158l11.848-9.262l6.855-3.088l5.564-2.047l5.564-1.041h6.965l6.281,2.047h6.246h4.848l6.281,2.082l6.965,2.047 l4.129,3.086l9.01,3.088l5.527,2.117l4.883,2.012l4.846-1.041h6.246h4.236l4.164,2.117l11.094,5.098l10.41,3.088l4.846,1.076 l3.555,2.117l1.293-1.076l6.281,2.047l2.836,1.041l2.729,1.076l4.129,5.098h4.953l2.01,1.078h2.119h2.045l0.684-1.078v-1.041h0.717 h0.719h0.682l0.719,1.041l2.045,3.088l2.801,4.164l2.729,4.129l2.836,3.086l0.682,1.078l2.047-1.078l7.682-2.01l2.836-2.117 l2.729-2.047l4.129-5.205l4.846-6.176l3.518-5.098l2.764-6.281l0.682-6.174l2.838-1.041v3.158l0.717,5.133l-0.717,6.176h2.045h1.4 v-2.047h2.117l3.447,1.076l1.4,2.012l4.846-1.041l2.729-2.047l3.518-1.041h5.564h2.729l3.553-3.088l2.012-3.086l2.117-3.088 l2.729-2.117l0.719-0.971l2.117-3.086l0.719-2.119v-2.045l1.398-5.17L1646.026,1866.889z M898.624,1782.205h-3.555l-3.41-0.969 l-4.164-3.088h-4.918l-6.174-1.041l-6.283-1.076l-3.518-0.971l-4.846-4.127l-2.047-3.088l0.611-8.293l-0.611-3.086v-6.176 l2.729-3.086l6.283,0.969l3.445,2.117l7.682,5.098l6.246,3.088l6.248,4.164l4.881,4.129l4.848,6.174l2.117,4.164L898.624,1782.205z" fill="#7cb0d4" fill-opacity="0.13" fill-rule="evenodd" transform="translate(120 178) scale(0.15000) translate(-1000.005 -1000.010)"></path><path d="M1646.026,1866.889v-2.045v-5.17l-1.4-3.088l-4.164-3.086l-4.236-4.164l-0.609-2.012l0.609-5.205l0.719-7.252 v-5.098l-0.719-6.281l-1.293-3.088l-2.117-4.057l-2.117-4.127l-4.164-3.088l-3.447-3.088l-4.129-1.076l-2.836-2.117l-2.727-6.176 l-5.564-4.129l-0.684-2.045l-2.836-2.01l-6.246-4.166l-4.164,1.078l-2.729-2.119l-3.518-1.076l-2.047-2.01l-0.682-3.088l0.682-4.164 l-0.682-4.129l-0.717-3.086l-2.119-4.164l-1.4-4.057l-0.609-2.119l-1.436-3.086l-2.801-3.088l-2.047-2.01l-2.117-1.078l-2.117-2.117 l-2.729-0.969l-2.836,0.969l-3.447,1.076l-2.729,1.041l-4.918-1.041l-4.846-4.164l-4.883,2.119l-7.574,3.086l-6.246,2.047 l-6.281,1.041h-3.52l-2.727-1.041l-2.836-2.047l-2.729-4.127l-2.119-4.164l-3.445-3.088l-4.129-1.041l-4.236-2.047l-5.564-1.041 h-6.893l-4.918-0.969h-3.445l-4.129-1.078l-3.553-4.127l-0.611-7.252l-5.564-6.139l-4.918-3.123l-6.893-1.041v4.164l-9.082,2.01 l-11.129,2.119l-7.574,3.086l-4.236-3.086l-6.174,1.041l-9.082,4.057l-10.41,2.117l-7.684,2.047l-7.574,3.086l-9.082,8.293 l1.4,1.041l-2.01,2.047l-1.436-1.076l-1.4,1.076l-9.012,2.01l-2.799-2.01l-2.729-1.076h-3.518l-2.047,4.164l-2.117,1.041h-6.248 l-5.563-1.041l-6.283-1.078l-5.527-3.086l-3.447-3.088l-2.836-4.129l-3.445-5.133l-2.801-7.217l-2.047-4.164l-0.717-6.174 l2.152-7.215l3.412-7.217l0.717-4.164l2.729-4.127l1.4-10.34l2.117-9.262l4.164-7.215l4.129-4.164l6.283-2.012l3.445-3.086 l6.246-8.293l1.4-5.133l2.117-5.205v-4.129l2.047-5.133l1.4-5.207l2.836-2.01l1.328-4.164l0.682-5.098l-2.01-6.281l-0.719-9.262 l-0.717-7.217v-10.338v-5.098v-3.088v-5.205l-0.684-5.133l-1.398-4.129l-3.447-6.246l-7.682-9.262l-4.846-6.174l-0.719-4.164 l-3.447-3.088l-2.117-3.088l-4.846-5.205l-2.729-5.098l-1.4-4.164l-2.117-2.01l-6.965-2.119l-5.564-0.969l-6.893-1.076l-4.236-1.041 l-3.445-3.088l-2.082-1.076l-4.883-0.971l-6.855-1.041h-4.236h-1.328h-11.811l-3.555-1.076l-2.729-2.01l-4.127-2.119l-2.838-4.057 l-2.727-5.205l-1.4-4.164l-1.436-3.086l-4.848-11.381l-2.117-6.174l-2.01-4.129l-0.719-2.045l-4.846-4.129l-2.119-2.047 l-3.445-4.129l-5.564-5.205l-2.117-2.045h-1.4l-2.729-4.129l-0.719-1.076l0.719-2.012l-2.836-4.164l-4.129-5.098l-0.717-1.076 l-7.684-10.303l-6.855-5.205l-4.236-4.057l-3.447-1.041l-1.398-4.164l-2.047-6.176l-0.682-2.117v-0.969l-3.555-7.217h-1.328 l-15.328-10.338h-1.328l-1.4-1.041h-1.436l-0.682-2.047l-2.047-1.041l0.717-1.076h3.447l0.682-0.969l-2.799-1.041l-0.719-1.078 l1.4-1.041l2.836-3.086l4.164-4.057l4.846-3.195l2.801-3.088l1.328-3.088l2.117-4.127l0.719-4.057l2.01-2.119l-1.328-1.076 l-2.801-0.969l-0.717-10.303l-0.719-2.119l-0.609-2.045l0.609-4.129l0.719-5.133l3.518-5.205l0.719-7.217h0.609v-2.045h2.119v-3.088 v-4.129l-1.4-2.117h-0.719l1.4-7.252h1.436l1.4-6.139l-1.4-2.047l4.129-7.215l3.553-6.174l2.729-3.195l5.529-10.303l-1.4-0.969 l2.117-3.088l1.438-6.283l1.291-22.65v-8.293l-0.609-3.088v-1.076v-0.969l-0.682-1.041v-2.047l-0.719-1.041l1.4-2.117v-2.047 l-2.119-4.129h2.119l2.729-2.045v-6.176h1.436l-0.719-5.205l-0.717-5.098l-1.4-6.281l-0.719-2.012v-6.174l-1.291-4.164l-2.836-4.129 l-2.047-3.086v-4.164v-6.176l1.328-3.086v-3.088l-5.564-6.246l-6.246-8.186l-9.693-10.338l-4.846-4.129l-1.436-4.164l-27.068-35.109 h-2.045l-3.518-5.205l-3.447-5.098l-4.129-3.086l-0.717-3.088l-3.518-5.205l-4.848-7.252l-4.164-7.215l-2.799-5.133l-2.047-6.176 l-1.4-6.246l-2.729-6.174l-5.564-9.262l-11.127-12.422l-5.529-6.174l-4.236-8.293l-3.445-8.221l-0.719-5.205v-14.467v-9.262 l-4.127-8.293l-4.848-6.174l-5.564-4.129l-7.682-9.262l-1.4-4.164l-6.281-5.205l-4.848-4.057l-7.574-11.379l-0.717-6.176 l-4.848-6.246l-4.918-2.045l-10.41-10.305l-5.564-5.205l-3.445-2.045l-3.447-2.119l-4.234-0.934l-3.447-1.076l-2.801-2.047h-3.445 l-1.4-1.041l1.4-5.205v-2.01l-2.729-4.164l-2.117-6.174l-3.447-6.176l-2.836-5.205l-0.682-6.174l-0.719-9.334l-1.328-9.262v-5.133 l1.328-7.217l1.4-1.076v-5.205l-1.4-9.262l-5.564-16.479l-5.563-8.291l-6.857-6.176l-9.801-7.25h-1.328l-11.092-3.088l-5.564-1.041 h-1.4h-0.717l-0.719-1.076l-1.4-0.971l-1.328-1.041l0.611-2.117l0.717-7.217l-2.047-6.174l-0.682-13.426l-4.236-5.205l-3.445-7.215 l-4.129-9.262l-1.436-21.719l-1.4-6.176l-0.717-8.291l-2.012-6.176l-1.436-3.086l-4.129-6.176l-1.398-4.127l-2.119-1.078 l-1.328-3.086l0.682-5.207l-1.398-6.174l-0.684-3.088l-3.445-3.086l-2.836-1.041l-2.119-2.047l-4.846-4.129l-6.281-5.205 l-14.539-12.348l-4.129-6.176l-6.965-13.498l-2.764-8.184l-2.799-12.457l-4.164-7.215l-5.564-4.164l-4.129-6.176l-1.4-3.086 l8.975-3.088l4.164-3.088l-0.646-1.041l-4.199,1.041l-9.729,4.164l-4.129-5.205l-6.281-8.293l-5.529-6.174l-2.117-5.133 l-2.047-8.293l-2.799-13.391l-1.438-7.252l-3.445-6.246l-6.246-6.174l-9.693-8.293l-3.445-5.098l-4.955-14.467l-1.328-8.293v-18.523 l-1.4-9.369l-2.799-11.379l-0.719-7.217l0.719-6.174l2.082-3.088l4.881-6.174l9.084-7.252l4.127-6.246l3.447-6.174l4.127-5.133 l2.836-9.334l1.4-5.133l0.719-4.129l1.328-4.164l4.236-11.344l0.609-3.088l1.4-3.088l2.117-8.291l0.719-4.164v-4.129l-0.719-5.133 l-0.682-2.012l-1.436-2.117l-1.4-2.047v-4.129l2.119-2.117l0.717-2.047l-2.117-7.215h-0.719l-2.729-3.088l-1.398-1.076l-1.438-9.262 l1.438-6.246l3.518-6.174l-0.719-16.514l0.719-4.129v-3.088l-0.719-4.164l-3.518-6.174l-2.047-2.117l-1.4-2.012l-2.836,1.041 l-2.01,0.971l-0.717-0.971v-1.041l2.117-1.076h2.047l1.398-2.01l2.729-2.119l2.119-2.045l1.4-1.041v-3.088l1.436-6.174l2.01-5.207 l1.436-4.127v-7.252v-4.057l-1.436-13.498l-0.682-8.184v-5.207l-1.328-3.086l-1.436-8.293l-2.082-4.164l-3.447-11.379l-2.836-10.304 l-0.719-5.134l-2.01-3.087l-3.518-4.128l-0.646-4.164l-4.199-6.175l-2.047-3.087l-0.719-4.129V0h-4.846h-7.682l-3.41,3.087 l1.328,6.175l-0.719,6.282l-4.846,14.467l-3.447,4.057l-4.164,3.159l-3.518,4.057l-2.729,3.088l-4.846,3.193l-5.564-2.117 l-4.846-2.047l-5.564-1.041h-9.082l-7.574,1.041l-9.082,2.047l-9.012,4.129l-9.082,3.086h-5.564l-4.846-3.086l-4.129,1.076 l-4.883,2.01l-4.127,4.164l-0.719,1.041l-6.963,3.088l-2.729,1.076l-6.246,2.012l-7.684,3.086l-4.164-1.041l-6.246-0.969 l-6.281,0.969l-3.412,2.119l-6.281,3.086l-6.246,4.129l-1.436,3.088l-6.965,5.205l-3.41,4.057l-7.682,6.281v2.012l-2.047,6.174 l-2.117,7.252l-0.684,4.127l-4.164,8.293l-2.836,9.262l-2.729,7.217l-3.445,5.205l-2.801,3.086l-2.117,2.047h-0.611l-6.281,1.041 l-9.801,1.076h-8.256l-7.684,3.088l-4.846,1.041l-2.045-1.041l-3.52-1.076l-3.445,1.076h-2.119l-2.727,2.01l-6.965,5.205 l-7.682,5.207l-6.248,3.086l-11.127,3.088l-6.893,8.221l-10.482,6.246l-4.129,3.088l-10.41,4.164l-9.01,4.127l-2.836,6.176v4.164 l-1.4,6.174l-2.012,4.129l-4.164,2.045l-4.234,3.088l-6.248,1.041l-3.445,4.164l-4.846,6.176l-1.436,5.205l-1.4,6.174l-2.012,7.215 l-3.553,15.51l-1.293,4.055l-2.154,3.195l-8.256,11.273l-2.836,5.205l-8.293,11.379v6.174l-2.836,4.164l-2.117,7.217l-3.447,6.174 l-1.4,4.164l0.719,3.088l1.4,8.293l2.117,7.215l2.047,12.35v15.543l5.527,4.129l1.438,4.164l-1.438,5.098l-1.398,3.088l-4.848,1.076 l-2.01,4.129l3.41,5.098l0.719,6.281l4.127,7.215l4.166,6.176l2.836,8.293l1.398,8.221v5.205l1.328,5.098l-1.328,3.193l-0.717,6.176 l0.717,4.127l1.328,5.135l-0.609,4.129l-3.555,4.164l-6.246,6.174l-5.564,5.205l-4.164,6.174l-1.4,3.088l0.719,7.215l2.117,5.205 l4.848,5.135l2.729,5.205l5.564,13.391l2.836,6.174l6.246,4.129l1.398,4.164l-11.811,15.436l-8.363,14.467l-4.883,7.217l0.719,9.369 v4.127l4.846,13.426l1.436,7.217l0.684,8.221l2.727,3.158l7.002,8.221l4.846,5.205l6.965,5.098l2.01,7.252l4.236,11.379l2.045,5.17 l3.52,7.252l3.445,12.35l2.117,8.291l-0.717,5.098l2.045,9.369l0.684,8.186l-1.293,10.338l-2.154,7.217l0.719,4.164l6.281,9.334 l4.129,6.174l2.729,8.221l4.953,5.205l2.012,8.293l4.881,6.174l1.4,7.217v5.133l-4.846,15.508l-3.447,5.205l-2.117,3.088h-9.01 l-2.801,7.215l-5.564,4.057l-8.293,3.195L387.325,850l-2.047,6.174l-0.682,4.164l2.01,10.303l2.119,5.205l3.445,4.164l4.848,3.088 l2.799,1.041l11.848-1.041l4.846,2.01l11.092-0.969l4.883,0.969l3.41,4.164l3.555,2.119h5.527l11.848-3.195l8.291-0.969l7.646,0.969 l8.293,2.117l5.564,4.164l4.953,4.057l7.574,7.217l3.52,3.193l8.291-1.076l7.684,2.047l4.846,2.117l4.846,0.969h5.564l2.729,3.088 l7,2.117h4.811h5.564l2.836,1.041l4.846,2.047l3.447,3.088l1.4,4.127v3.088l-0.684,5.205l1.4,4.057l6.246,2.119l0.719,2.045 l0.717,2.119l-0.717,0.969l-1.4,1.041l-5.564,3.088l-2.117,15.508l5.564,5.133l1.398,6.246v6.174l-2.117,5.135l-2.01,5.205 l-3.555,4.129l-5.564,2.045l-5.527,4.129l-6.176,8.293l-7.682,7.25v3.088l-0.719,4.129l1.438,5.133l-0.719,8.293l3.447,7.215 l4.234,8.221l7.576,8.293l3.518,1.041l3.445,0.969h2.729l5.564,1.078l4.236-1.078l2.01-3.086l3.555-0.971l6.246,2.047l5.564,3.088 l6.174,3.086l4.953,3.088l4.129,7.215l2.047,5.205l-2.764,5.135l-2.119,5.205l0.719,7.215l-3.447,8.186l-1.4,8.293l-0.717,7.25 l0.717,5.205l2.836,5.098l2.012,4.164l4.846,5.098l1.4,2.119l0.717,3.086l-1.398,2.047h-6.965l-4.164,3.088l-5.564,6.246l-1.4,6.174 l-0.609,5.135l-2.119,5.205l-4.846,6.174l-7.682,2.117l-9.693,2.012l-0.717-2.012l-10.412,9.262l-4.846,5.207l0.719,7.143 l-6.283,2.119l-2.799,3.086l-0.719,7.217l1.436,7.25l3.518,7.217l3.447,5.133l4.129,6.246l4.127,4.057l2.836,1.076h2.729v-3.086 v-4.164h1.436v5.205l-0.717,2.045h2.836v3.088h1.4l0.609-7.252l2.836,1.078l-0.719,1.041l-1.398-1.041l-0.719,6.174h6.246 l1.436-3.088l-2.729-1.076v-0.969l3.447,0.969l0.682-0.969l4.846,2.045l-0.682,2.012h4.129l4.236,3.158l9.01,7.252l2.117,4.057 l2.729,3.086l4.848,1.041l4.234,5.207l6.176,5.133l7.682,6.174l6.246,5.205l-0.717,2.012h-2.119v1.076v1.041l2.119,2.047 l-3.41,8.291l0.682,7.217l5.564,3.086l4.164,4.166l1.4,5.096l2.01,3.088l4.846,5.205l7,4.164l2.801,7.217l4.164,4.057l14.539,6.281 l11.811,5.098l6.281,2.117l13.211,10.34l6.893,5.098l7.682,2.117l5.529,4.057l6.281,6.246l2.729,5.135l1.4,8.291l6.281,8.186 l3.447,4.164l4.846,2.117l6.246,5.098l9.801,10.34l4.846,7.215l3.447,7.252l4.846,5.205l4.846,3.088l4.955,4.057l4.127,2.117h6.283 l6.246-1.076l4.846-1.041l3.447-3.088l4.846-2.047l4.164-1.041l4.236,3.088l4.129,3.088l3.445,3.158l3.518,5.133l4.848,4.129 l4.164,4.164l3.445,4.057l4.236,7.215l2.01,3.195l5.564,2.012l4.846,1.076h5.564h2.836l3.41-1.076l4.848,3.086l4.953,2.047 l-4.236,5.205v7.215l0.719,14.467l0.682,5.135l0.719,7.215l0.717,3.088v2.117l-8.4,4.129l-2.01,3.088l-1.4,5.133l-4.881,4.129 l-1.4,4.164v4.127v5.135l1.4,3.086l1.436,5.205l1.293,4.129v3.088l-2.729,4.057l-3.52,3.195l-1.328,2.01l-0.682,4.164v5.098v7.252 l-4.164,7.215l-2.117,5.205l-1.4,7.252l-0.719,8.184l-2.01,2.119l-6.965,7.143l-2.836,5.205l-2.729,3.088l-6.963,9.262l-2.047,7.252 l-4.236,9.334l-2.01,5.133v5.205l4.846,4.021l-3.553,4.164l-1.293,7.215l2.729,6.174l1.4,7.252l0.717,5.205l-1.4,4.129l-2.764,4.057 l-4.236,3.195l-0.682,3.086l0.682,9.262l4.236,4.129l3.447,5.133l2.117,5.205l2.047,6.176l2.117,4.127l-2.836,4.166l-6.893,6.174 l-1.4,4.129l-4.164,7.25v5.098l2.047,4.164l2.117,4.129l0.719,5.133l-4.236,4.129l-11.738,1.076l-9.082-1.076l-8.293-2.01 l-6.965-3.195l-6.281-2.01l-5.529-1.078h-9.01h-4.236l-6.174,4.164l-4.236,3.088l-3.445,4.129l-0.684,7.25h-9.01l-7.682,1.041 l-19.494,9.264l-4.127,6.174l-0.719,9.334l0.719,11.307l2.799,2.119l-2.117,6.174l2.117,3.088l4.164,7.215l4.848,5.133l4.164,5.207 l-0.719,6.174l5.564,6.174l6.965,3.088l7.646,8.293l2.764,6.174l2.801,3.088l4.164,4.127l0.682,4.164l6.281,7.217l2.119,6.174 l2.01,6.174l2.117,4.166l2.766,4.127l5.527,4.164l6.283,2.012l6.963,3.086l5.564,4.164l5.529,3.088l9.01,3.088l7.682,3.086 l6.965,2.119l4.846,0.969l4.164-2.047l2.801-2.01l2.729-6.281l-1.4-3.088l0.719-7.215l0.682-2.047l2.836-2.01l4.129-3.195 l2.045-2.01l-2.729-2.047l-3.445-3.088v-8.293l3.445-5.205l2.729-4.057v-5.205l-4.164-3.086l-2.729-6.176l-3.518-3.086l-3.445-3.088 l-2.836-3.158h-2.729l-2.801-2.047l-2.729-9.262l-2.117-6.174l-0.719-4.129l-0.609-3.088l-4.236-2.117l-2.047-2.047l-1.398-2.117 l0.717-6.176l1.4-6.174l3.445-3.088l4.129-2.01h3.518h2.766l7.645-4.164l6.283-3.088l2.729-3.086l2.836-3.16l6.174-0.969 l5.529,6.174l2.836,2.047l3.445,3.051l6.965,2.119l4.129,1.076h3.553h1.328l2.119,2.01l6.246,2.047h4.127l4.166,1.041l4.234,1.076 l2.729,0.971l4.236,1.041l4.846,1.076l2.047-1.076l0.682-3.088h1.436l2.729,1.076l11.811-1.076l9.082-3.088h5.564l4.848-2.01 l4.846-2.117l4.164-3.088l5.527-4.164l5.564-3.088l8.4-2.01l4.129,0.969h7.682h11.094h4.881h8.975l5.564-0.969h4.164l5.529-3.088 l4.846,0.971l7.682-3.088h3.447h3.518h5.564l8.293-0.969l9.082-2.119l6.963-2.01l6.176-3.088l5.564-4.164l6.246-5.205l2.836-3.088 l0.717-6.174l2.012-5.205l1.436-4.057l2.082-3.088l2.047-6.246l2.117-7.25l0.719-0.971l6.963-2.117h4.129l1.4,4.164l5.564,4.129 h8.291l4.166,1.076h4.234h6.857l6.281-2.117l5.529-2.047l2.836-2.117l3.445-2.012l2.836-1.076l4.129-2.01l2.047-2.047l1.4-4.129 l3.518-7.252l2.045-5.205l2.801-2.01l6.283-2.047l4.846-1.041l4.129,2.012l4.164,3.086l3.518,4.164l2.729,10.305l0.717,6.174 l4.129,3.088l3.555,2.117l10.41,2.047h6.965h7.574l5.564,1.041h5.563l6.965-1.041l2.119-0.971h4.846l7.574-1.076l7.682-2.117 l4.848-0.971l6.963-1.041h5.564h3.447h3.518l2.729,1.041l3.445,0.971l2.836,1.076l2.119,2.117l1.328,2.012h-0.719l0.719,4.164h1.4 v0.969v1.041h-0.719l0.719,5.205h-0.719l1.4,5.133l1.436,6.176l0.682,6.246l1.328,5.133l2.119,5.205v0.969l0.717,5.207l2.012,4.127 v0.971l1.436,6.246l0.682,6.174h-2.117l3.553,12.35l2.01-2.012l3.52,4.129l2.764,3.088l3.518,2.045h2.729l5.564,1.041l9.082-2.117 l6.246-4.057l4.846-3.158l11.848-9.262l6.855-3.088l5.564-2.047l5.564-1.041h6.965l6.281,2.047h6.246h4.848l6.281,2.082l6.965,2.047 l4.129,3.086l9.01,3.088l5.527,2.117l4.883,2.012l4.846-1.041h6.246h4.236l4.164,2.117l11.094,5.098l10.41,3.088l4.846,1.076 l3.555,2.117l1.293-1.076l6.281,2.047l2.836,1.041l2.729,1.076l4.129,5.098h4.953l2.01,1.078h2.119h2.045l0.684-1.078v-1.041h0.717 h0.719h0.682l0.719,1.041l2.045,3.088l2.801,4.164l2.729,4.129l2.836,3.086l0.682,1.078l2.047-1.078l7.682-2.01l2.836-2.117 l2.729-2.047l4.129-5.205l4.846-6.176l3.518-5.098l2.764-6.281l0.682-6.174l2.838-1.041v3.158l0.717,5.133l-0.717,6.176h2.045h1.4 v-2.047h2.117l3.447,1.076l1.4,2.012l4.846-1.041l2.729-2.047l3.518-1.041h5.564h2.729l3.553-3.088l2.012-3.086l2.117-3.088 l2.729-2.117l0.719-0.971l2.117-3.086l0.719-2.119v-2.045l1.398-5.17L1646.026,1866.889z M898.624,1782.205h-3.555l-3.41-0.969 l-4.164-3.088h-4.918l-6.174-1.041l-6.283-1.076l-3.518-0.971l-4.846-4.127l-2.047-3.088l0.611-8.293l-0.611-3.086v-6.176 l2.729-3.086l6.283,0.969l3.445,2.117l7.682,5.098l6.246,3.088l6.248,4.164l4.881,4.129l4.848,6.174l2.117,4.164L898.624,1782.205z" fill="none" stroke="#7cb0d4" stroke-opacity="0.42" stroke-width="11.33" stroke-linejoin="round" stroke-linecap="round" transform="translate(120 178) scale(0.15000) translate(-1000.005 -1000.010)"></path></g><path d="M49.49 96L44.45 96L44.45 76.16L49.41 76.16L49.41 78.32L50.13 78.32Q50.65 77.32 51.85 76.58Q53.05 75.84 55.01 75.84L55.01 75.84Q57.13 75.84 58.41 76.66Q59.69 77.48 60.37 78.80L60.37 78.80L61.09 78.80Q61.77 77.52 63.01 76.68Q64.25 75.84 66.53 75.84L66.53 75.84Q68.37 75.84 69.87 76.62Q71.37 77.40 72.27 78.98Q73.17 80.56 73.17 82.96L73.17 82.96L73.17 96L68.13 96L68.13 83.32Q68.13 81.68 67.29 80.86Q66.45 80.04 64.93 80.04L64.93 80.04Q63.21 80.04 62.27 81.14Q61.33 82.24 61.33 84.28L61.33 84.28L61.33 96L56.29 96L56.29 83.32Q56.29 81.68 55.45 80.86Q54.61 80.04 53.09 80.04L53.09 80.04Q51.37 80.04 50.43 81.14Q49.49 82.24 49.49 84.28L49.49 84.28L49.49 96Z M87.15 96.56L87.15 96.56Q84.19 96.56 81.93 95.30Q79.67 94.04 78.41 91.74Q77.15 89.44 77.15 86.32L77.15 86.32L77.15 85.84Q77.15 82.72 78.39 80.42Q79.63 78.12 81.87 76.86Q84.11 75.60 87.07 75.60L87.07 75.60Q89.99 75.60 92.15 76.90Q94.31 78.20 95.51 80.50Q96.71 82.80 96.71 85.84L96.71 85.84L96.71 87.56L82.27 87.56Q82.35 89.60 83.79 90.88Q85.23 92.16 87.31 92.16L87.31 92.16Q89.43 92.16 90.43 91.24Q91.43 90.32 91.95 89.20L91.95 89.20L96.07 91.36Q95.51 92.40 94.45 93.62Q93.39 94.84 91.63 95.70Q89.87 96.56 87.15 96.56ZM82.31 83.80L82.31 83.80L91.59 83.80Q91.43 82.08 90.21 81.04Q88.99 80 87.03 80L87.03 80Q84.99 80 83.79 81.04Q82.59 82.08 82.31 83.80Z M105.73 96L100.69 96L100.69 76.16L105.73 76.16L105.73 96ZM103.21 73.84L103.21 73.84Q101.85 73.84 100.91 72.96Q99.97 72.08 99.97 70.64L99.97 70.64Q99.97 69.20 100.91 68.32Q101.85 67.44 103.21 67.44L103.21 67.44Q104.61 67.44 105.53 68.32Q106.45 69.20 106.45 70.64L106.45 70.64Q106.45 72.08 105.53 72.96Q104.61 73.84 103.21 73.84Z  M130.05 96.56L130.05 96.56Q126.81 96.56 124.33 95.40Q121.85 94.24 120.45 92.08Q119.05 89.92 119.05 86.88L119.05 86.88L119.05 85.76L124.25 85.76L124.25 86.88Q124.25 89.40 125.81 90.66Q127.37 91.92 130.05 91.92L130.05 91.92Q132.77 91.92 134.11 90.84Q135.45 89.76 135.45 88.08L135.45 88.08Q135.45 86.92 134.79 86.20Q134.13 85.48 132.87 85.02Q131.61 84.56 129.81 84.16L129.81 84.16L128.89 83.96Q126.01 83.32 123.95 82.34Q121.89 81.36 120.79 79.76Q119.69 78.16 119.69 75.60L119.69 75.60Q119.69 73.04 120.91 71.22Q122.13 69.40 124.35 68.42Q126.57 67.44 129.57 67.44L129.57 67.44Q132.57 67.44 134.91 68.46Q137.25 69.48 138.59 71.50Q139.93 73.52 139.93 76.56L139.93 76.56L139.93 77.76L134.73 77.76L134.73 76.56Q134.73 74.96 134.11 73.98Q133.49 73 132.33 72.54Q131.17 72.08 129.57 72.08L129.57 72.08Q127.17 72.08 126.03 72.98Q124.89 73.88 124.89 75.44L124.89 75.44Q124.89 76.48 125.43 77.20Q125.97 77.92 127.05 78.40Q128.13 78.88 129.81 79.24L129.81 79.24L130.73 79.44Q133.73 80.08 135.95 81.08Q138.17 82.08 139.41 83.72Q140.65 85.36 140.65 87.92L140.65 87.92Q140.65 90.48 139.35 92.42Q138.05 94.36 135.67 95.46Q133.29 96.56 130.05 96.56Z M153.27 96.56L153.27 96.56Q150.31 96.56 148.05 95.30Q145.79 94.04 144.53 91.74Q143.27 89.44 143.27 86.32L143.27 86.32L143.27 85.84Q143.27 82.72 144.51 80.42Q145.75 78.12 147.99 76.86Q150.23 75.60 153.19 75.60L153.19 75.60Q156.11 75.60 158.27 76.90Q160.43 78.20 161.63 80.50Q162.83 82.80 162.83 85.84L162.83 85.84L162.83 87.56L148.39 87.56Q148.47 89.60 149.91 90.88Q151.35 92.16 153.43 92.16L153.43 92.16Q155.55 92.16 156.55 91.24Q157.55 90.32 158.07 89.20L158.07 89.20L162.19 91.36Q161.63 92.40 160.57 93.62Q159.51 94.84 157.75 95.70Q155.99 96.56 153.27 96.56ZM148.43 83.80L148.43 83.80L157.71 83.80Q157.55 82.08 156.33 81.04Q155.11 80 153.15 80L153.15 80Q151.11 80 149.91 81.04Q148.71 82.08 148.43 83.80Z M175.85 96.56L175.85 96.56Q172.89 96.56 170.63 95.30Q168.37 94.04 167.11 91.74Q165.85 89.44 165.85 86.32L165.85 86.32L165.85 85.84Q165.85 82.72 167.09 80.42Q168.33 78.12 170.57 76.86Q172.81 75.60 175.77 75.60L175.77 75.60Q178.69 75.60 180.85 76.90Q183.01 78.20 184.21 80.50Q185.41 82.80 185.41 85.84L185.41 85.84L185.41 87.56L170.97 87.56Q171.05 89.60 172.49 90.88Q173.93 92.16 176.01 92.16L176.01 92.16Q178.13 92.16 179.13 91.24Q180.13 90.32 180.65 89.20L180.65 89.20L184.77 91.36Q184.21 92.40 183.15 93.62Q182.09 94.84 180.33 95.70Q178.57 96.56 175.85 96.56ZM171.01 83.80L171.01 83.80L180.29 83.80Q180.13 82.08 178.91 81.04Q177.69 80 175.73 80L175.73 80Q173.69 80 172.49 81.04Q171.29 82.08 171.01 83.80Z M191.71 101.88L189.75 101.88L189.75 99.16L191.31 99.16Q193.15 99.16 193.15 97.32L193.15 97.32L193.15 96.04L192.47 96.04Q190.87 96.04 189.81 95.08Q188.75 94.12 188.75 92.64L188.75 92.64Q188.75 91.04 189.81 90.04Q190.87 89.04 192.47 89.04L192.47 89.04Q194.11 89.04 195.15 90.06Q196.19 91.08 196.19 92.80L196.19 92.80L196.19 97.40Q196.19 101.88 191.71 101.88L191.71 101.88Z" fill="#f1ece2"></path><path d="M41.73 140.80L36.69 140.80L36.69 120.96L41.65 120.96L41.65 123.12L42.37 123.12Q42.89 122.12 44.09 121.38Q45.29 120.64 47.25 120.64L47.25 120.64Q49.37 120.64 50.65 121.46Q51.93 122.28 52.61 123.60L52.61 123.60L53.33 123.60Q54.01 122.32 55.25 121.48Q56.49 120.64 58.77 120.64L58.77 120.64Q60.61 120.64 62.11 121.42Q63.61 122.20 64.51 123.78Q65.41 125.36 65.41 127.76L65.41 127.76L65.41 140.80L60.37 140.80L60.37 128.12Q60.37 126.48 59.53 125.66Q58.69 124.84 57.17 124.84L57.17 124.84Q55.45 124.84 54.51 125.94Q53.57 127.04 53.57 129.08L53.57 129.08L53.57 140.80L48.53 140.80L48.53 128.12Q48.53 126.48 47.69 125.66Q46.85 124.84 45.33 124.84L45.33 124.84Q43.61 124.84 42.67 125.94Q41.73 127.04 41.73 129.08L41.73 129.08L41.73 140.80Z M79.39 141.36L79.39 141.36Q76.43 141.36 74.17 140.10Q71.91 138.84 70.65 136.54Q69.39 134.24 69.39 131.12L69.39 131.12L69.39 130.64Q69.39 127.52 70.63 125.22Q71.87 122.92 74.11 121.66Q76.35 120.40 79.31 120.40L79.31 120.40Q82.23 120.40 84.39 121.70Q86.55 123.00 87.75 125.30Q88.95 127.60 88.95 130.64L88.95 130.64L88.95 132.36L74.51 132.36Q74.59 134.40 76.03 135.68Q77.47 136.96 79.55 136.96L79.55 136.96Q81.67 136.96 82.67 136.04Q83.67 135.12 84.19 134L84.19 134L88.31 136.16Q87.75 137.20 86.69 138.42Q85.63 139.64 83.87 140.50Q82.11 141.36 79.39 141.36ZM74.55 128.60L74.55 128.60L83.83 128.60Q83.67 126.88 82.45 125.84Q81.23 124.80 79.27 124.80L79.27 124.80Q77.23 124.80 76.03 125.84Q74.83 126.88 74.55 128.60Z M97.97 140.80L92.93 140.80L92.93 120.96L97.97 120.96L97.97 140.80ZM95.45 118.64L95.45 118.64Q94.09 118.64 93.15 117.76Q92.21 116.88 92.21 115.44L92.21 115.44Q92.21 114.00 93.15 113.12Q94.09 112.24 95.45 112.24L95.45 112.24Q96.85 112.24 97.77 113.12Q98.69 114.00 98.69 115.44L98.69 115.44Q98.69 116.88 97.77 117.76Q96.85 118.64 95.45 118.64Z  M117.85 140.80L112.57 140.80L112.57 112.80L124.73 112.80Q127.37 112.80 129.33 113.72Q131.29 114.64 132.37 116.32Q133.45 118.00 133.45 120.28L133.45 120.28L133.45 120.76Q133.45 123.28 132.25 124.84Q131.05 126.40 129.29 127.12L129.29 127.12L129.29 127.84Q130.89 127.92 131.77 128.94Q132.65 129.96 132.65 131.64L132.65 131.64L132.65 140.80L127.37 140.80L127.37 132.40Q127.37 131.44 126.87 130.84Q126.37 130.24 125.21 130.24L125.21 130.24L117.85 130.24L117.85 140.80ZM117.85 117.60L117.85 125.44L124.17 125.44Q126.05 125.44 127.11 124.42Q128.17 123.40 128.17 121.72L128.17 121.72L128.17 121.32Q128.17 119.64 127.13 118.62Q126.09 117.60 124.17 117.60L124.17 117.60L117.85 117.60Z M145.07 141.12L145.07 141.12Q142.75 141.12 141.01 140.06Q139.27 139 138.31 137.12Q137.35 135.24 137.35 132.80L137.35 132.80L137.35 120.96L142.39 120.96L142.39 132.40Q142.39 134.64 143.49 135.76Q144.59 136.88 146.63 136.88L146.63 136.88Q148.95 136.88 150.23 135.34Q151.51 133.80 151.51 131.04L151.51 131.04L151.51 120.96L156.55 120.96L156.55 140.80L151.59 140.80L151.59 138.20L150.87 138.20Q150.39 139.20 149.07 140.16Q147.75 141.12 145.07 141.12Z M167.81 141.36L167.81 141.36Q165.69 141.36 164.01 140.62Q162.33 139.88 161.35 138.46Q160.37 137.04 160.37 135L160.37 135Q160.37 132.96 161.35 131.58Q162.33 130.20 164.07 129.50Q165.81 128.80 168.05 128.80L168.05 128.80L173.49 128.80L173.49 127.68Q173.49 126.28 172.61 125.38Q171.73 124.48 169.81 124.48L169.81 124.48Q167.93 124.48 167.01 125.34Q166.09 126.20 165.81 127.56L165.81 127.56L161.17 126.00Q161.65 124.48 162.71 123.22Q163.77 121.96 165.55 121.18Q167.33 120.40 169.89 120.40L169.89 120.40Q173.81 120.40 176.09 122.36Q178.37 124.32 178.37 128.04L178.37 128.04L178.37 135.44Q178.37 136.64 179.49 136.64L179.49 136.64L181.09 136.64L181.09 140.80L177.73 140.80Q176.25 140.80 175.29 140.08Q174.33 139.36 174.33 138.16L174.33 138.16L174.33 138.12L173.57 138.12Q173.41 138.60 172.85 139.38Q172.29 140.16 171.09 140.76Q169.89 141.36 167.81 141.36ZM168.69 137.28L168.69 137.28Q170.81 137.28 172.15 136.10Q173.49 134.92 173.49 132.96L173.49 132.96L173.49 132.56L168.41 132.56Q167.01 132.56 166.21 133.16Q165.41 133.76 165.41 134.84L165.41 134.84Q165.41 135.92 166.25 136.60Q167.09 137.28 168.69 137.28Z M189.31 140.80L184.27 140.80L184.27 112.80L189.31 112.80L189.31 123.40L190.03 123.40Q190.35 122.76 191.03 122.12Q191.71 121.48 192.85 121.06Q193.99 120.64 195.75 120.64L195.75 120.64Q198.07 120.64 199.81 121.70Q201.55 122.76 202.51 124.62Q203.47 126.48 203.47 128.96L203.47 128.96L203.47 140.80L198.43 140.80L198.43 129.36Q198.43 127.12 197.33 126.00Q196.23 124.88 194.19 124.88L194.19 124.88Q191.87 124.88 190.59 126.42Q189.31 127.96 189.31 130.72L189.31 130.72L189.31 140.80Z" fill="#f1ece2"></path><svg x="18.81" y="170.00" width="202.38" height="104.00" viewBox="0 0 360 185" overflow="visible"><g transform="translate(14.715 29.690)"><g transform="translate(64.98,0)"><path d="M22.88 133.59 L22.88 133.59 Q21.33 133.16 20.38 132.82 L20.38 132.82 L19.44 132.56 Q19.61 132.13 19.31 131.78 Q19.01 131.44 18.06 131.35 L18.06 131.35 Q16.77 130.49 15.39 128.95 Q14.02 127.40 12.99 125.76 Q11.95 124.13 11.61 123.36 L11.61 123.36 Q11.18 122.32 11.44 121.98 L11.44 121.98 Q11.52 121.81 11.70 121.72 L11.70 121.72 Q12.38 121.46 13.33 121.03 L13.33 121.03 Q14.28 120.35 15.35 120.00 Q16.43 119.66 17.11 121.12 L17.11 121.12 Q18.23 123.10 20.60 124.47 Q22.96 125.85 26.02 126.11 Q29.07 126.37 32.16 125.08 L32.16 125.08 Q34.23 124.13 34.40 122.45 Q34.57 120.78 33.11 118.54 L33.11 118.54 Q32.85 117.85 32.38 117.42 Q31.91 116.99 31.00 116.30 Q30.10 115.62 28.47 114.07 L28.47 114.07 Q27.18 113.47 26.10 112.95 Q25.03 112.43 23.82 111.83 L23.82 111.83 Q22.45 111.14 20.73 109.90 Q19.01 108.65 17.54 107.14 Q16.08 105.64 15.31 104.26 L15.31 104.26 Q13.93 102.97 13.59 100.69 Q13.24 98.42 13.72 95.84 Q14.19 93.26 15.31 91.19 L15.31 91.19 Q15.82 89.99 17.20 88.05 Q18.58 86.12 20.30 84.05 Q22.02 81.99 23.61 80.31 Q25.20 78.64 26.14 78.03 L26.14 78.03 Q26.83 77.35 27.61 76.57 L27.61 76.57 L28.38 75.88 Q28.47 75.45 28.72 75.45 L28.72 75.45 L28.90 75.45 Q29.33 75.20 30.79 74.59 Q32.25 73.99 33.97 72.36 L33.97 72.36 Q39.73 69.61 43.77 68.62 Q47.82 67.63 50.14 67.63 L50.14 67.63 Q52.29 67.71 54.35 68.79 Q56.42 69.86 57.92 71.50 Q59.43 73.13 59.68 75.20 L59.68 75.20 Q60.29 77.26 59.13 80.14 Q57.96 83.02 55.94 85.56 Q53.92 88.10 51.77 89.30 L51.77 89.30 Q49.36 90.33 47.69 89.56 Q46.01 88.78 46.10 87.15 L46.10 87.15 Q46.10 86.46 46.57 85.52 Q47.04 84.57 49.19 82.16 L49.19 82.16 Q51.94 78.12 52.12 76.40 Q52.29 74.68 50.57 74.42 L50.57 74.42 Q50.05 74.25 48.59 74.51 Q47.13 74.77 45.45 75.15 Q43.77 75.54 42.53 75.97 Q41.28 76.40 41.28 76.57 L41.28 76.57 L41.28 76.83 Q41.28 76.92 41.19 77.00 L41.19 77.00 Q41.19 77.09 40.94 77.00 L40.94 77.00 Q40.76 77.00 39.78 77.56 Q38.79 78.12 37.41 78.98 Q36.03 79.84 34.70 80.74 Q33.37 81.65 32.42 82.33 Q31.48 83.02 31.39 83.19 L31.39 83.19 Q31.22 84.14 29.41 84.91 L29.41 84.91 Q27.69 85.95 26.40 87.84 Q25.11 89.73 23.39 92.65 L23.39 92.65 Q21.93 94.63 21.33 96.91 Q20.73 99.19 21.33 100.57 L21.33 100.57 Q21.76 101.94 23.69 103.28 Q25.63 104.61 28.98 106.59 L28.98 106.59 Q31.91 108.22 34.49 110.03 Q37.07 111.83 38.87 113.51 Q40.68 115.19 41.19 116.30 L41.19 116.30 Q42.23 117.77 42.44 119.66 Q42.66 121.55 42.44 123.31 Q42.23 125.08 41.88 126.19 L41.88 126.19 Q41.28 127.57 40.03 129.12 Q38.79 130.67 37.75 130.58 L37.75 130.58 Q36.81 130.84 36.34 131.18 Q35.86 131.53 35.26 131.78 L35.26 131.78 Q34.66 132.13 32.42 132.60 Q30.19 133.07 27.52 133.38 Q24.85 133.68 22.88 133.59 Z M67.77 126.28 L67.77 126.28 Q65.19 127.74 62.31 127.96 Q59.43 128.17 56.93 127.18 Q54.44 126.19 52.89 124.22 L52.89 124.22 Q52.03 123.10 51.26 120.65 Q50.48 118.20 51.00 113.98 L51.00 113.98 Q51.51 110.03 53.45 105.98 Q55.38 101.94 58.22 98.85 Q61.06 95.75 64.41 94.63 L64.41 94.63 Q65.62 94.20 66.86 93.99 Q68.11 93.77 70.18 93.94 L70.18 93.94 Q72.15 94.20 73.70 94.93 Q75.25 95.66 75.94 96.52 L75.94 96.52 Q77.31 97.90 77.74 99.19 Q78.17 100.48 78.09 101.68 L78.09 101.68 Q77.66 104.44 75.64 107.62 Q73.62 110.80 70.00 112.35 L70.00 112.35 Q68.54 112.95 66.56 113.12 Q64.59 113.29 61.15 112.61 L61.15 112.61 Q59.08 112.18 58.44 113.04 Q57.79 113.90 57.88 116.39 L57.88 116.39 Q58.05 117.94 58.61 119.10 Q59.17 120.26 60.72 120.69 L60.72 120.69 Q62.69 121.03 63.55 120.73 Q64.41 120.43 65.70 119.83 L65.70 119.83 Q66.39 119.40 67.08 118.88 L67.08 118.88 L68.37 117.85 Q68.97 117.34 69.40 117.08 L69.40 117.08 Q69.83 116.73 70.26 116.65 Q70.69 116.56 71.12 116.56 L71.12 116.56 Q72.07 116.65 72.93 117.59 Q73.79 118.54 74.05 119.40 L74.05 119.40 Q74.05 120.09 73.19 121.33 Q72.33 122.58 70.91 123.92 Q69.49 125.25 67.77 126.28 Z M66.65 107.10 L66.65 107.10 Q67.25 106.84 68.41 105.90 Q69.57 104.95 70.52 103.88 Q71.47 102.80 71.47 102.20 L71.47 102.20 Q71.47 101.25 70.22 100.57 Q68.97 99.88 66.99 100.31 L66.99 100.31 Q66.31 100.48 65.36 101.25 Q64.41 102.03 63.47 103.02 Q62.52 104.01 61.83 104.91 Q61.15 105.81 60.89 106.33 L60.89 106.33 Q61.23 106.76 62.26 107.02 Q63.30 107.27 64.54 107.27 Q65.79 107.27 66.65 107.10 Z M96.49 126.28 L96.49 126.28 Q93.91 127.74 91.03 127.96 Q88.15 128.17 85.66 127.18 Q83.16 126.19 81.61 124.22 L81.61 124.22 Q80.75 123.10 79.98 120.65 Q79.21 118.20 79.72 113.98 L79.72 113.98 Q80.24 110.03 82.17 105.98 Q84.11 101.94 86.95 98.85 Q89.78 95.75 93.14 94.63 L93.14 94.63 Q94.34 94.20 95.59 93.99 Q96.84 93.77 98.90 93.94 L98.90 93.94 Q100.88 94.20 102.43 94.93 Q103.97 95.66 104.66 96.52 L104.66 96.52 Q106.04 97.90 106.47 99.19 Q106.90 100.48 106.81 101.68 L106.81 101.68 Q106.38 104.44 104.36 107.62 Q102.34 110.80 98.73 112.35 L98.73 112.35 Q97.27 112.95 95.29 113.12 Q93.31 113.29 89.87 112.61 L89.87 112.61 Q87.81 112.18 87.16 113.04 Q86.52 113.90 86.60 116.39 L86.60 116.39 Q86.77 117.94 87.33 119.10 Q87.89 120.26 89.44 120.69 L89.44 120.69 Q91.42 121.03 92.28 120.73 Q93.14 120.43 94.43 119.83 L94.43 119.83 Q95.12 119.40 95.80 118.88 L95.80 118.88 L97.09 117.85 Q97.70 117.34 98.13 117.08 L98.13 117.08 Q98.56 116.73 98.99 116.65 Q99.42 116.56 99.85 116.56 L99.85 116.56 Q100.79 116.65 101.65 117.59 Q102.51 118.54 102.77 119.40 L102.77 119.40 Q102.77 120.09 101.91 121.33 Q101.05 122.58 99.63 123.92 Q98.21 125.25 96.49 126.28 Z M95.37 107.10 L95.37 107.10 Q95.98 106.84 97.14 105.90 Q98.30 104.95 99.24 103.88 Q100.19 102.80 100.19 102.20 L100.19 102.20 Q100.19 101.25 98.94 100.57 Q97.70 99.88 95.72 100.31 L95.72 100.31 Q95.03 100.48 94.08 101.25 Q93.14 102.03 92.19 103.02 Q91.25 104.01 90.56 104.91 Q89.87 105.81 89.61 106.33 L89.61 106.33 Q89.96 106.76 90.99 107.02 Q92.02 107.27 93.27 107.27 Q94.51 107.27 95.37 107.10 Z M118.42 145.20 L118.42 145.20 Q116.01 146.15 113.39 144.90 Q110.77 143.65 108.88 140.99 L108.88 140.99 Q108.53 140.47 107.84 139.14 Q107.16 137.80 106.51 136.26 Q105.87 134.71 105.56 133.59 Q105.26 132.47 105.52 132.30 L105.52 132.30 Q105.87 131.35 107.07 131.18 Q108.27 131.01 109.48 131.31 Q110.68 131.61 110.85 132.13 L110.85 132.13 Q111.11 132.73 111.37 133.38 Q111.63 134.02 112.01 134.58 Q112.40 135.14 112.75 135.57 L112.75 135.57 Q113.69 137.03 114.81 137.59 Q115.93 138.15 116.53 137.72 L116.53 137.72 Q117.99 136.60 118.72 135.09 Q119.45 133.59 120.66 129.81 L120.66 129.81 Q121.60 126.62 122.29 124.30 Q122.98 121.98 123.75 120.00 L123.75 120.00 Q124.01 118.97 124.44 118.20 L124.44 118.20 Q124.53 118.02 124.61 117.85 L124.61 117.85 Q123.41 118.71 122.46 119.57 L122.46 119.57 Q121.17 120.78 118.94 121.72 L118.94 121.72 Q118.42 122.32 116.40 122.45 Q114.38 122.58 112.49 121.98 L112.49 121.98 Q111.28 121.29 110.55 120.56 Q109.82 119.83 109.35 118.88 Q108.88 117.94 108.36 116.65 L108.36 116.65 Q107.76 115.36 108.19 112.43 Q108.62 109.51 109.74 106.59 L109.74 106.59 Q110.77 104.44 112.75 101.94 Q114.72 99.45 116.96 97.43 Q119.20 95.41 121.00 94.89 L121.00 94.89 Q121.69 94.55 123.41 94.07 Q125.13 93.60 126.68 94.03 L126.68 94.03 Q128.14 94.20 128.91 94.67 Q129.69 95.15 131.41 96.61 L131.41 96.61 Q132.53 97.73 134.16 99.49 Q135.79 101.25 136.22 102.46 L136.22 102.46 Q136.83 103.75 136.48 105.25 Q136.14 106.76 135.28 107.88 L135.28 107.88 Q134.50 108.99 133.64 110.11 Q132.78 111.23 132.35 113.21 L132.35 113.21 Q131.92 115.79 130.72 119.01 Q129.52 122.24 128.83 124.99 L128.83 124.99 L127.45 130.32 Q125.30 137.63 122.72 140.94 Q120.14 144.25 118.42 145.20 Z M116.62 115.62 L116.62 115.62 Q118.34 115.53 119.58 115.23 Q120.83 114.93 121.95 113.85 Q123.07 112.78 124.53 110.54 L124.53 110.54 Q125.99 108.48 126.59 106.76 Q127.19 105.04 127.02 102.89 L127.02 102.89 Q126.94 101.51 126.25 101.08 Q125.56 100.65 124.44 100.82 L124.44 100.82 Q122.81 101.08 121.52 102.16 Q120.23 103.23 118.51 105.47 L118.51 105.47 Q117.22 107.19 116.36 109.60 L116.36 109.60 Q115.50 112.18 115.63 113.72 Q115.76 115.27 116.62 115.62 Z M143.88 138.41 L143.88 138.41 Q143.36 138.75 141.56 137.59 Q139.75 136.43 138.55 135.05 L138.55 135.05 Q137.94 134.36 137.77 133.59 Q137.60 132.82 137.86 130.67 L137.86 130.67 Q138.20 129.72 138.24 128.86 Q138.29 128.00 138.29 127.66 L138.29 127.66 Q138.29 127.14 138.59 125.25 Q138.89 123.36 139.23 121.25 Q139.58 119.14 139.84 118.02 L139.84 118.02 Q139.84 117.94 139.96 117.42 Q140.09 116.91 140.18 116.65 L140.18 116.65 Q140.35 115.87 140.61 114.76 Q140.87 113.64 141.13 111.75 L141.13 111.75 Q141.81 109.60 142.29 107.49 Q142.76 105.38 142.76 104.61 L142.76 104.61 Q142.76 103.06 143.96 102.37 L143.96 102.37 Q144.05 101.94 144.48 101.04 Q144.91 100.14 145.25 99.53 L145.25 99.53 Q146.97 94.63 148.09 91.71 Q149.21 88.78 150.41 86.63 L150.41 86.63 Q150.93 85.17 151.57 83.62 Q152.22 82.08 152.91 81.22 L152.91 81.22 Q153.51 80.01 155.01 78.25 Q156.52 76.49 158.24 74.85 Q159.96 73.22 160.99 72.44 L160.99 72.44 Q162.88 71.50 164.52 70.90 Q166.15 70.29 167.96 70.29 L167.96 70.29 Q169.59 70.29 170.84 71.03 Q172.09 71.76 174.58 73.99 L174.58 73.99 Q175.44 75.11 175.44 76.14 Q175.44 77.17 175.01 77.86 L175.01 77.86 Q174.41 79.24 173.20 81.26 Q172.00 83.28 170.88 84.87 Q169.76 86.46 169.25 86.55 L169.25 86.55 Q168.22 87.15 167.10 86.89 Q165.98 86.63 165.98 85.34 L165.98 85.34 Q165.98 84.74 166.07 84.23 L166.07 84.23 L166.07 83.71 Q166.32 82.59 166.71 81.73 Q167.10 80.87 167.44 80.27 L167.44 80.27 Q168.13 79.15 167.83 78.12 Q167.53 77.09 165.64 77.26 L165.64 77.26 Q165.38 77.43 164.65 78.08 Q163.92 78.72 163.10 79.54 Q162.28 80.36 161.68 81.09 Q161.08 81.82 161.08 82.08 L161.08 82.08 L160.65 82.94 Q160.13 83.88 159.19 85.00 L159.19 85.00 Q158.58 85.86 158.15 86.63 Q157.72 87.41 157.72 87.84 L157.72 87.84 Q157.72 88.18 157.64 88.44 Q157.55 88.70 157.21 88.70 L157.21 88.70 L156.95 89.56 Q156.61 90.42 155.92 91.62 L155.92 91.62 Q155.57 92.48 155.19 93.21 Q154.80 93.94 154.46 94.29 L154.46 94.29 L154.37 94.46 L154.03 95.41 Q153.60 96.44 153.17 97.47 Q152.74 98.50 152.74 98.67 L152.74 98.67 Q152.74 99.02 153.77 99.02 Q154.80 99.02 156.26 98.72 Q157.72 98.42 159.10 98.07 L159.10 98.07 Q160.30 97.73 160.82 97.73 Q161.34 97.73 162.45 98.07 L162.45 98.07 Q163.14 98.50 163.57 99.58 Q164.00 100.65 164.22 101.73 Q164.43 102.80 164.26 103.32 L164.26 103.32 Q164.17 103.66 162.32 104.26 Q160.48 104.87 158.67 105.21 L158.67 105.21 Q157.12 105.55 155.19 105.94 Q153.25 106.33 151.79 106.72 Q150.33 107.10 150.24 107.45 L150.24 107.45 Q149.90 107.45 149.68 107.88 Q149.47 108.31 149.47 108.65 L149.47 108.65 Q149.47 109.77 149.04 110.46 L149.04 110.46 Q148.87 110.97 148.48 112.56 Q148.09 114.15 147.70 116.00 Q147.32 117.85 147.02 119.44 Q146.72 121.03 146.72 121.55 L146.72 121.55 Q146.20 122.15 146.11 123.06 Q146.03 123.96 146.03 124.65 L146.03 124.65 Q145.68 125.33 145.60 125.89 Q145.51 126.45 145.51 126.80 L145.51 126.80 L145.51 127.14 Q145.51 127.40 145.43 127.66 L145.43 127.66 Q145.34 128.52 145.21 129.94 Q145.08 131.35 145.08 132.73 L145.08 132.73 L144.82 135.22 Q144.74 136.34 144.52 137.16 Q144.31 137.98 143.88 138.41 Z M186.02 127.83 L186.02 127.83 Q185.16 126.97 184.64 125.46 Q184.13 123.96 183.61 121.98 L183.61 121.98 Q183.44 121.29 183.48 120.43 Q183.52 119.57 183.44 119.06 L183.44 119.06 Q183.18 119.66 182.62 120.60 Q182.06 121.55 181.55 121.98 L181.55 121.98 Q181.20 122.32 180.00 123.31 Q178.79 124.30 177.59 124.90 L177.59 124.90 Q174.75 126.71 172.56 126.58 Q170.37 126.45 168.73 124.39 L168.73 124.39 Q167.36 123.27 166.50 121.55 Q165.64 119.83 166.15 117.42 L166.15 117.42 Q166.32 114.41 167.01 111.53 Q167.70 108.65 169.85 103.83 L169.85 103.83 Q171.66 100.31 172.60 98.33 Q173.55 96.35 173.81 96.01 L173.81 96.01 Q175.10 95.58 176.99 96.05 Q178.88 96.52 179.05 97.73 L179.05 97.73 Q179.57 98.59 179.05 100.95 Q178.54 103.32 176.99 106.33 L176.99 106.33 Q175.78 109.25 174.71 112.00 Q173.63 114.76 173.42 116.65 Q173.20 118.54 174.41 118.97 L174.41 118.97 Q175.18 119.40 176.69 118.88 Q178.19 118.37 180.26 115.79 Q182.32 113.21 184.64 107.62 L184.64 107.62 Q185.33 105.90 185.67 104.56 Q186.02 103.23 186.10 101.60 L186.10 101.60 Q185.93 100.57 186.66 99.45 Q187.39 98.33 188.43 97.73 L188.43 97.73 Q188.77 97.30 189.37 96.87 L189.37 96.87 Q189.80 96.61 189.97 96.78 L189.97 96.78 Q190.06 96.78 190.15 96.95 L190.15 96.95 L191.52 96.87 Q191.87 96.78 192.30 97.56 Q192.73 98.33 193.16 98.67 L193.16 98.67 Q194.10 99.45 194.02 102.03 Q193.93 104.61 191.95 109.25 L191.95 109.25 Q190.32 112.78 189.76 114.58 Q189.20 116.39 189.11 118.11 L189.11 118.11 Q189.11 119.66 189.37 120.73 Q189.63 121.81 190.92 122.93 L190.92 122.93 Q191.87 123.53 191.99 124.95 Q192.12 126.37 192.04 127.40 L192.04 127.40 Q191.87 128.17 190.70 128.47 Q189.54 128.77 188.21 128.60 Q186.88 128.43 186.02 127.83 Z M197.80 126.54 L197.80 126.54 Q197.11 125.85 196.81 124.47 Q196.51 123.10 196.60 121.77 Q196.68 120.43 197.03 119.74 L197.03 119.74 Q197.03 119.06 197.24 118.67 Q197.46 118.28 197.37 117.94 L197.37 117.94 Q197.28 117.59 197.54 116.73 Q197.80 115.87 198.06 115.10 L198.06 115.10 Q198.66 113.72 199.43 111.53 Q200.21 109.34 200.98 107.06 Q201.76 104.78 202.27 103.10 Q202.79 101.43 202.87 101.08 L202.87 101.08 Q202.87 100.05 204.25 99.96 L204.25 99.96 Q205.28 99.62 206.74 100.82 Q208.21 102.03 209.07 103.40 L209.07 103.40 Q209.75 104.09 209.58 105.21 Q209.41 106.33 208.46 108.39 L208.46 108.39 Q208.12 109.08 207.65 110.67 Q207.17 112.26 207.00 113.29 L207.00 113.29 Q206.66 113.98 206.18 115.23 Q205.71 116.48 205.37 117.59 L205.37 117.59 Q205.20 118.02 205.02 119.19 Q204.85 120.35 204.59 121.55 Q204.34 122.75 203.91 123.44 L203.91 123.44 Q203.13 126.97 201.20 127.57 Q199.26 128.17 197.80 126.54 Z " fill="#f1ece2"></path><defs><mask id="hm2" maskUnits="userSpaceOnUse"><path d="M0,3 C0,-3 -9,-6 -9,-13 C-9,-19 -2,-20 0,-14 C2,-20 9,-19 9,-13 C9,-6 0,-3 0,3 Z" fill="#fff"></path><path d="M-7.5,-8 q2.5,-3.4 5,0 t5,0 t5,0" fill="none" stroke="#000" stroke-width="2.1" stroke-linecap="round"></path></mask></defs><g transform="translate(210.40,95.23) rotate(12) scale(0.940)"><path d="M0,3 C0,-3 -9,-6 -9,-13 C-9,-19 -2,-20 0,-14 C2,-20 9,-19 9,-13 C9,-6 0,-3 0,3 Z" fill="#d23b34" mask="url(#hm2)"></path></g></g></g></svg><g transform="translate(0 10)"><path d="M55.38 280L53.33 280L53.33 268.56L49.24 268.56L49.24 266.70L59.46 266.70L59.46 268.56L55.38 268.56L55.38 280Z M74.80 280L66.33 280L66.33 266.70L74.70 266.70L74.70 268.56L68.38 268.56L68.38 272.38L74.17 272.38L74.17 274.24L68.38 274.24L68.38 278.14L74.80 278.14L74.80 280Z M86.56 280.27L86.56 280.27Q85.14 280.27 84.02 279.65Q82.90 279.03 82.25 277.83Q81.60 276.64 81.60 274.91L81.60 274.91L81.60 271.79Q81.60 269.19 83.03 267.81Q84.45 266.43 86.89 266.43L86.89 266.43Q89.28 266.43 90.57 267.74Q91.86 269.04 91.86 271.22L91.86 271.22L91.86 271.32L89.83 271.32L89.83 271.17Q89.83 270.35 89.51 269.69Q89.19 269.04 88.54 268.66Q87.89 268.28 86.89 268.28L86.89 268.28Q85.37 268.28 84.51 269.20Q83.66 270.12 83.66 271.75L83.66 271.75L83.66 274.95Q83.66 276.56 84.51 277.50Q85.37 278.44 86.91 278.44L86.91 278.44Q88.43 278.44 89.13 277.61Q89.83 276.77 89.83 275.44L89.83 275.44L89.83 275.19L86.26 275.19L86.26 273.43L91.86 273.43L91.86 280L89.96 280L89.96 278.65L89.66 278.65Q89.49 279.01 89.16 279.39Q88.82 279.77 88.21 280.02Q87.59 280.27 86.56 280.27Z M107.98 280L99.51 280L99.51 266.70L107.88 266.70L107.88 268.56L101.56 268.56L101.56 272.38L107.35 272.38L107.35 274.24L101.56 274.24L101.56 278.14L107.98 278.14L107.98 280Z M117.18 280L115.13 280L115.13 266.70L120.71 266.70Q121.95 266.70 122.89 267.13Q123.83 267.56 124.35 268.35Q124.87 269.15 124.87 270.25L124.87 270.25L124.87 270.46Q124.87 271.72 124.27 272.47Q123.68 273.22 122.82 273.52L122.82 273.52L122.82 273.82Q123.54 273.86 123.98 274.31Q124.42 274.76 124.42 275.59L124.42 275.59L124.42 280L122.35 280L122.35 275.88Q122.35 275.36 122.08 275.06Q121.81 274.76 121.23 274.76L121.23 274.76L117.18 274.76L117.18 280ZM117.18 268.56L117.18 272.89L120.48 272.89Q121.59 272.89 122.19 272.33Q122.80 271.77 122.80 270.80L122.80 270.80L122.80 270.65Q122.80 269.68 122.20 269.12Q121.61 268.56 120.48 268.56L120.48 268.56L117.18 268.56Z M134.17 280L132.13 280L132.13 266.70L136.09 266.70L139.70 278.63L140.00 278.63L140.00 266.70L142.03 266.70L142.03 280L138.08 280L134.47 268.05L134.17 268.05L134.17 280Z M154.33 280.27L154.33 280.27Q152.83 280.27 151.67 279.73Q150.51 279.20 149.86 278.17Q149.20 277.13 149.20 275.65L149.20 275.65L149.20 275.17L151.23 275.17L151.23 275.65Q151.23 277.06 152.08 277.76Q152.92 278.46 154.33 278.46L154.33 278.46Q155.75 278.46 156.48 277.86Q157.20 277.26 157.20 276.31L157.20 276.31Q157.20 275.69 156.86 275.29Q156.51 274.89 155.89 274.65Q155.26 274.41 154.39 274.20L154.39 274.20L153.68 274.03Q152.41 273.73 151.47 273.28Q150.53 272.84 150.02 272.10Q149.50 271.36 149.50 270.20L149.50 270.20Q149.50 269.02 150.08 268.18Q150.66 267.35 151.69 266.89Q152.71 266.43 154.10 266.43L154.10 266.43Q155.49 266.43 156.58 266.91Q157.67 267.38 158.30 268.31Q158.93 269.25 158.93 270.65L158.93 270.65L158.93 271.34L156.89 271.34L156.89 270.65Q156.89 269.80 156.54 269.26Q156.19 268.73 155.56 268.49Q154.94 268.24 154.10 268.24L154.10 268.24Q152.89 268.24 152.21 268.74Q151.54 269.25 151.54 270.14L151.54 270.14Q151.54 270.75 151.83 271.14Q152.13 271.53 152.70 271.77Q153.27 272.02 154.12 272.21L154.12 272.21L154.82 272.38Q156.12 272.67 157.10 273.11Q158.09 273.56 158.66 274.32Q159.23 275.08 159.23 276.28L159.23 276.28Q159.23 277.47 158.63 278.37Q158.03 279.26 156.93 279.76Q155.83 280.27 154.33 280.27Z M174.85 280L166.38 280L166.38 266.70L174.76 266.70L174.76 268.56L168.43 268.56L168.43 272.38L174.23 272.38L174.23 274.24L168.43 274.24L168.43 278.14L174.85 278.14L174.85 280Z M190.47 280L182.00 280L182.00 266.70L190.38 266.70L190.38 268.56L184.05 268.56L184.05 272.38L189.85 272.38L189.85 274.24L184.05 274.24L184.05 278.14L190.47 278.14L190.47 280Z" fill="#7cb0d4"></path></g></svg>