<svg xmlns="http://www.w3.org/2000/svg" width="1380" height="2040" viewBox="0 0 230 340"><path d="M25.2,-72.2 L22.6,-75 L20.5,-75 L14.9,-72.5 L6.9,-51.7 L5,-48.1 L2.9,-46.5 L1,-41.4 L-0.9,-40 L-4.5,-32.7 L-4,-29.4 L-7.3,-27.5 L-7,-25.3 L-8.8,-21.6 L-11.1,-11.2 L-14.8,-7 L-14.8,-3.5 L-17.7,-2.1 L-17.1,-0.7 L-17.6,1 L-20.3,3 L-20.4,4.7 L-22.3,6.7 L-22.8,8.6 L-22,10.8 L-24.2,12.6 L-25.2,16 L-24.7,18.8 L-22,21.4 L-20.1,21 L-17.8,18.6 L-16.3,19 L-16.8,22.5 L-14.6,25.9 L-14.1,31.2 L-9.1,36.6 L-7.3,41.9 L-7.8,45.3 L-11.2,47.9 L-11.9,51.8 L-12.7,52.3 L-13,61.3 L-14,63.5 L-12.8,67 L-0.2,75 L6.5,74 L8,74.9 L10.3,73.9 L10.6,72.7 L11.5,73.2 L13,69.8 L11.7,66.1 L12.5,65.6 L12,63.7 L13.4,62 L13.6,59.1 L11,34.9 L9.7,32.1 L10.5,27.3 L10.2,17.4 L11.2,11.5 L10.7,0.7 L9.1,-9.1 L10,-17.5 L15.3,-32.9 L15.9,-38 L20,-52.1 L25.1,-59.7 L24.5,-68.4 Z M-9.2,-8 L-9.73,-6.16 L-11,-5.4 L-12.27,-6.16 L-12.8,-8 L-12.27,-9.84 L-11,-10.6 L-9.73,-9.84 Z" fill="none" stroke="#9aa6d6" stroke-opacity="0.32" stroke-width="0.90" stroke-linejoin="round" stroke-linecap="round" transform="translate(115 178) scale(2.00000) translate(0.00 0.00)"></path><path d="M90.27 121.14L77.89 121.14L77.89 117.20L81.02 117.20L81.02 101.29L77.89 101.29L77.89 97.34L90.13 97.34Q92.31 97.34 93.92 98.07Q95.53 98.81 96.44 100.15Q97.34 101.49 97.34 103.36L97.34 103.36L97.34 103.70Q97.34 105.33 96.73 106.37Q96.11 107.41 95.28 107.97Q94.45 108.53 93.70 108.77L93.70 108.77L93.70 109.38Q94.45 109.58 95.33 110.14Q96.22 110.71 96.84 111.76Q97.47 112.81 97.47 114.51L97.47 114.51L97.47 114.85Q97.47 116.83 96.56 118.24Q95.64 119.65 94.02 120.40Q92.41 121.14 90.27 121.14L90.27 121.14ZM85.51 111.22L85.51 117.06L89.72 117.06Q91.18 117.06 92.08 116.35Q92.98 115.64 92.98 114.31L92.98 114.31L92.98 113.97Q92.98 112.64 92.10 111.93Q91.22 111.22 89.72 111.22L89.72 111.22L85.51 111.22ZM85.51 101.42L85.51 107.14L89.65 107.14Q91.05 107.14 91.95 106.42Q92.85 105.71 92.85 104.45L92.85 104.45L92.85 104.11Q92.85 102.82 91.97 102.12Q91.08 101.42 89.65 101.42L89.65 101.42L85.51 101.42Z M108.97 121.62L108.97 121.62Q106.45 121.62 104.53 120.55Q102.61 119.48 101.54 117.52Q100.47 115.57 100.47 112.92L100.47 112.92L100.47 112.51Q100.47 109.86 101.52 107.90Q102.57 105.95 104.48 104.87Q106.38 103.80 108.90 103.80L108.90 103.80Q111.38 103.80 113.22 104.91Q115.05 106.01 116.07 107.97Q117.09 109.92 117.09 112.51L117.09 112.51L117.09 113.97L104.82 113.97Q104.89 115.70 106.11 116.79Q107.33 117.88 109.10 117.88L109.10 117.88Q110.90 117.88 111.75 117.10Q112.60 116.32 113.05 115.36L113.05 115.36L116.55 117.20Q116.07 118.08 115.17 119.12Q114.27 120.16 112.77 120.89Q111.28 121.62 108.97 121.62ZM104.85 110.77L104.85 110.77L112.74 110.77Q112.60 109.31 111.57 108.43Q110.53 107.54 108.86 107.54L108.86 107.54Q107.13 107.54 106.11 108.43Q105.09 109.31 104.85 110.77Z M125.18 121.14L120.90 121.14L120.90 104.28L125.12 104.28L125.12 106.18L125.73 106.18Q126.10 105.16 126.97 104.69Q127.84 104.21 128.99 104.21L128.99 104.21L131.03 104.21L131.03 108.02L128.92 108.02Q127.29 108.02 126.24 108.89Q125.18 109.75 125.18 111.56L125.18 111.56L125.18 121.14Z M133.55 112.78L133.55 112.78L133.55 112.24Q133.55 109.58 134.60 107.70Q135.66 105.81 137.41 104.81Q139.16 103.80 141.23 103.80L141.23 103.80Q143.54 103.80 144.73 104.62Q145.92 105.44 146.47 106.32L146.47 106.32L147.08 106.32L147.08 104.28L151.30 104.28L151.30 124.14Q151.30 125.87 150.28 126.91Q149.25 127.94 147.56 127.94L147.56 127.94L136.27 127.94L136.27 124.20L146.06 124.20Q147.01 124.20 147.01 123.18L147.01 123.18L147.01 118.80L146.40 118.80Q146.06 119.34 145.45 119.90Q144.84 120.46 143.81 120.84Q142.80 121.21 141.23 121.21L141.23 121.21Q139.16 121.21 137.41 120.21Q135.66 119.21 134.60 117.32Q133.55 115.43 133.55 112.78ZM142.46 117.47L142.46 117.47Q144.43 117.47 145.75 116.21Q147.08 114.96 147.08 112.68L147.08 112.68L147.08 112.34Q147.08 110.03 145.77 108.78Q144.46 107.54 142.46 107.54L142.46 107.54Q140.48 107.54 139.16 108.78Q137.83 110.03 137.83 112.34L137.83 112.34L137.83 112.68Q137.83 114.96 139.16 116.21Q140.48 117.47 142.46 117.47Z" fill="#f1ece2"></path><path d="M62.03 143.30L62.03 143.30Q61.23 143.30 60.56 142.91Q59.88 142.52 59.47 141.79Q59.06 141.05 59.06 140.01L59.06 140.01L59.06 139.82Q59.06 138.79 59.46 138.05Q59.87 137.31 60.54 136.92Q61.22 136.53 62.03 136.53L62.03 136.53Q62.65 136.53 63.07 136.68Q63.49 136.84 63.77 137.08Q64.04 137.32 64.18 137.58L64.18 137.58L64.39 137.58L64.39 134.02L65.73 134.02L65.73 143.12L64.42 143.12L64.42 142.21L64.21 142.21Q63.96 142.62 63.46 142.96Q62.96 143.30 62.03 143.30ZM62.40 142.13L62.40 142.13Q63.27 142.13 63.84 141.57Q64.40 141.01 64.40 139.97L64.40 139.97L64.40 139.85Q64.40 138.83 63.85 138.27Q63.29 137.71 62.40 137.71L62.40 137.71Q61.54 137.71 60.98 138.27Q60.41 138.83 60.41 139.85L60.41 139.85L60.41 139.97Q60.41 141.01 60.98 141.57Q61.54 142.13 62.40 142.13Z M70.70 143.30L70.70 143.30Q70.01 143.30 69.47 143.07Q68.93 142.83 68.61 142.38Q68.29 141.92 68.29 141.27L68.29 141.27Q68.29 140.61 68.61 140.17Q68.93 139.74 69.48 139.52Q70.03 139.30 70.73 139.30L70.73 139.30L72.68 139.30L72.68 138.88Q72.68 138.32 72.35 137.98Q72.01 137.64 71.31 137.64L71.31 137.64Q70.62 137.64 70.25 137.97Q69.89 138.29 69.77 138.81L69.77 138.81L68.52 138.41Q68.68 137.89 69.02 137.47Q69.37 137.05 69.94 136.79Q70.51 136.53 71.32 136.53L71.32 136.53Q72.57 136.53 73.28 137.16Q74.00 137.80 74.00 138.97L74.00 138.97L74.00 141.61Q74.00 142 74.36 142L74.36 142L74.91 142L74.91 143.12L73.91 143.12Q73.45 143.12 73.17 142.88Q72.88 142.65 72.88 142.25L72.88 142.25L72.88 142.21L72.68 142.21Q72.58 142.40 72.37 142.66Q72.16 142.92 71.76 143.11Q71.36 143.30 70.70 143.30ZM70.89 142.19L70.89 142.19Q71.70 142.19 72.19 141.73Q72.68 141.27 72.68 140.47L72.68 140.47L72.68 140.34L70.81 140.34Q70.28 140.34 69.95 140.56Q69.63 140.79 69.63 141.23L69.63 141.23Q69.63 141.67 69.97 141.94Q70.31 142.19 70.89 142.19Z  M85.23 143.30L85.23 143.30Q84.29 143.30 83.79 142.96Q83.29 142.62 83.04 142.21L83.04 142.21L82.84 142.21L82.84 143.12L81.52 143.12L81.52 134.02L82.86 134.02L82.86 137.58L83.07 137.58Q83.23 137.32 83.49 137.08Q83.75 136.84 84.17 136.68Q84.60 136.53 85.23 136.53L85.23 136.53Q86.03 136.53 86.71 136.92Q87.39 137.31 87.79 138.05Q88.19 138.79 88.19 139.82L88.19 139.82L88.19 140.01Q88.19 141.05 87.78 141.79Q87.37 142.52 86.70 142.91Q86.03 143.30 85.23 143.30ZM84.84 142.13L84.84 142.13Q85.71 142.13 86.27 141.57Q86.84 141.01 86.84 139.97L86.84 139.97L86.84 139.85Q86.84 138.83 86.28 138.27Q85.72 137.71 84.84 137.71L84.84 137.71Q83.98 137.71 83.41 138.27Q82.85 138.83 82.85 139.85L82.85 139.85L82.85 139.97Q82.85 141.01 83.41 141.57Q83.98 142.13 84.84 142.13Z M92.19 143.12L90.86 143.12L90.86 136.71L92.19 136.71L92.19 143.12ZM91.53 135.84L91.53 135.84Q91.14 135.84 90.87 135.58Q90.61 135.33 90.61 134.93L90.61 134.93Q90.61 134.53 90.87 134.27Q91.14 134.02 91.53 134.02L91.53 134.02Q91.93 134.02 92.19 134.27Q92.45 134.53 92.45 134.93L92.45 134.93Q92.45 135.33 92.19 135.58Q91.93 135.84 91.53 135.84Z M96.52 143.12L95.18 143.12L95.18 136.71L96.50 136.71L96.50 137.67L96.70 137.67Q96.89 137.28 97.35 136.94Q97.82 136.60 98.75 136.60L98.75 136.60Q99.47 136.60 100.04 136.93Q100.60 137.25 100.93 137.85Q101.25 138.44 101.25 139.27L101.25 139.27L101.25 143.12L99.92 143.12L99.92 139.37Q99.92 138.54 99.50 138.15Q99.08 137.75 98.36 137.75L98.36 137.75Q97.52 137.75 97.02 138.29Q96.52 138.84 96.52 139.88L96.52 139.88L96.52 143.12Z  M109.83 143.12L108.49 143.12L108.49 136.71L109.83 136.71L109.83 143.12ZM109.17 135.84L109.17 135.84Q108.78 135.84 108.51 135.58Q108.25 135.33 108.25 134.93L108.25 134.93Q108.25 134.53 108.51 134.27Q108.78 134.02 109.17 134.02L109.17 134.02Q109.57 134.02 109.83 134.27Q110.09 134.53 110.09 134.93L110.09 134.93Q110.09 135.33 109.83 135.58Q109.57 135.84 109.17 135.84Z  M119.79 143.30L119.79 143.30Q119.00 143.30 118.32 142.91Q117.64 142.52 117.23 141.79Q116.82 141.05 116.82 140.01L116.82 140.01L116.82 139.82Q116.82 138.79 117.23 138.05Q117.63 137.31 118.31 136.92Q118.98 136.53 119.79 136.53L119.79 136.53Q120.41 136.53 120.83 136.68Q121.26 136.84 121.53 137.08Q121.80 137.32 121.95 137.58L121.95 137.58L122.15 137.58L122.15 134.02L123.49 134.02L123.49 143.12L122.18 143.12L122.18 142.21L121.97 142.21Q121.73 142.62 121.22 142.96Q120.72 143.30 119.79 143.30ZM120.17 142.13L120.17 142.13Q121.04 142.13 121.60 141.57Q122.17 141.01 122.17 139.97L122.17 139.97L122.17 139.85Q122.17 138.83 121.61 138.27Q121.05 137.71 120.17 137.71L120.17 137.71Q119.31 137.71 118.74 138.27Q118.18 138.83 118.18 139.85L118.18 139.85L118.18 139.97Q118.18 141.01 118.74 141.57Q119.31 142.13 120.17 142.13Z M128.46 143.30L128.46 143.30Q127.77 143.30 127.23 143.07Q126.69 142.83 126.37 142.38Q126.05 141.92 126.05 141.27L126.05 141.27Q126.05 140.61 126.37 140.17Q126.69 139.74 127.24 139.52Q127.80 139.30 128.50 139.30L128.50 139.30L130.45 139.30L130.45 138.88Q130.45 138.32 130.11 137.98Q129.77 137.64 129.07 137.64L129.07 137.64Q128.38 137.64 128.02 137.97Q127.65 138.29 127.54 138.81L127.54 138.81L126.29 138.41Q126.44 137.89 126.79 137.47Q127.13 137.05 127.70 136.79Q128.28 136.53 129.08 136.53L129.08 136.53Q130.33 136.53 131.05 137.16Q131.76 137.80 131.76 138.97L131.76 138.97L131.76 141.61Q131.76 142 132.12 142L132.12 142L132.67 142L132.67 143.12L131.67 143.12Q131.21 143.12 130.93 142.88Q130.64 142.65 130.64 142.25L130.64 142.25L130.64 142.21L130.45 142.21Q130.34 142.40 130.14 142.66Q129.93 142.92 129.52 143.11Q129.12 143.30 128.46 143.30ZM128.65 142.19L128.65 142.19Q129.46 142.19 129.95 141.73Q130.45 141.27 130.45 140.47L130.45 140.47L130.45 140.34L128.58 140.34Q128.04 140.34 127.72 140.56Q127.39 140.79 127.39 141.23L127.39 141.23Q127.39 141.67 127.73 141.94Q128.07 142.19 128.65 142.19Z M136.31 143.12L134.97 143.12L134.97 134.02L136.31 134.02L136.31 137.62L136.52 137.62Q136.65 137.37 136.89 137.14Q137.13 136.90 137.52 136.75Q137.92 136.60 138.53 136.60L138.53 136.60Q139.26 136.60 139.83 136.93Q140.39 137.25 140.72 137.85Q141.04 138.44 141.04 139.27L141.04 139.27L141.04 143.12L139.70 143.12L139.70 139.37Q139.70 138.54 139.29 138.15Q138.87 137.75 138.14 137.75L138.14 137.75Q137.31 137.75 136.81 138.29Q136.31 138.84 136.31 139.88L136.31 139.88L136.31 143.12Z M146.97 143.30L146.97 143.30Q146.01 143.30 145.26 142.90Q144.51 142.51 144.08 141.77Q143.65 141.03 143.65 140.01L143.65 140.01L143.65 139.82Q143.65 138.80 144.08 138.07Q144.51 137.33 145.26 136.93Q146.01 136.53 146.97 136.53L146.97 136.53Q147.93 136.53 148.68 136.93Q149.44 137.33 149.87 138.07Q150.30 138.80 150.30 139.82L150.30 139.82L150.30 140.01Q150.30 141.03 149.87 141.77Q149.44 142.51 148.68 142.90Q147.93 143.30 146.97 143.30ZM146.97 142.10L146.97 142.10Q147.85 142.10 148.41 141.54Q148.96 140.97 148.96 139.97L148.96 139.97L148.96 139.85Q148.96 138.85 148.41 138.29Q147.87 137.72 146.97 137.72L146.97 137.72Q146.10 137.72 145.54 138.29Q144.99 138.85 144.99 139.85L144.99 139.85L144.99 139.97Q144.99 140.97 145.54 141.54Q146.10 142.10 146.97 142.10Z M154.95 143.30L154.95 143.30Q154.26 143.30 153.72 143.07Q153.18 142.83 152.86 142.38Q152.54 141.92 152.54 141.27L152.54 141.27Q152.54 140.61 152.86 140.17Q153.18 139.74 153.73 139.52Q154.29 139.30 154.99 139.30L154.99 139.30L156.94 139.30L156.94 138.88Q156.94 138.32 156.60 137.98Q156.26 137.64 155.56 137.64L155.56 137.64Q154.87 137.64 154.51 137.97Q154.14 138.29 154.03 138.81L154.03 138.81L152.78 138.41Q152.93 137.89 153.28 137.47Q153.62 137.05 154.20 136.79Q154.77 136.53 155.57 136.53L155.57 136.53Q156.82 136.53 157.54 137.16Q158.25 137.80 158.25 138.97L158.25 138.97L158.25 141.61Q158.25 142 158.62 142L158.62 142L159.16 142L159.16 143.12L158.16 143.12Q157.71 143.12 157.42 142.88Q157.13 142.65 157.13 142.25L157.13 142.25L157.13 142.21L156.94 142.21Q156.83 142.40 156.63 142.66Q156.42 142.92 156.02 143.11Q155.61 143.30 154.95 143.30ZM155.14 142.19L155.14 142.19Q155.95 142.19 156.44 141.73Q156.94 141.27 156.94 140.47L156.94 140.47L156.94 140.34L155.07 140.34Q154.53 140.34 154.21 140.56Q153.88 140.79 153.88 141.23L153.88 141.23Q153.88 141.67 154.22 141.94Q154.56 142.19 155.14 142.19Z M162.80 143.12L161.46 143.12L161.46 136.71L162.77 136.71L162.77 137.46L162.98 137.46Q163.16 137.13 163.57 136.87Q163.97 136.60 164.66 136.60L164.66 136.60Q165.37 136.60 165.81 136.90Q166.25 137.19 166.47 137.64L166.47 137.64L166.67 137.64Q166.90 137.20 167.32 136.90Q167.74 136.60 168.52 136.60L168.52 136.60Q169.14 136.60 169.63 136.86Q170.11 137.11 170.39 137.61Q170.68 138.11 170.68 138.85L170.68 138.85L170.68 143.12L169.34 143.12L169.34 138.96Q169.34 138.37 169.02 138.05Q168.70 137.74 168.12 137.74L168.12 137.74Q167.49 137.74 167.12 138.14Q166.74 138.54 166.74 139.30L166.74 139.30L166.74 143.12L165.40 143.12L165.40 138.96Q165.40 138.37 165.08 138.05Q164.76 137.74 164.18 137.74L164.18 137.74Q163.55 137.74 163.18 138.14Q162.80 138.54 162.80 139.30L162.80 139.30L162.80 143.12Z" fill="#f1ece2" fill-opacity="0.7"></path><svg x="-17.50" y="154.85" width="258.46" height="132.82" viewBox="0 0 360 185" overflow="visible"><g fill="#f1ece2"><g transform="translate(64.98,0)"><path d="M22.88 133.59 L22.88 133.59 Q21.33 133.16 20.38 132.82 L20.38 132.82 L19.44 132.56 Q19.61 132.13 19.31 131.78 Q19.01 131.44 18.06 131.35 L18.06 131.35 Q16.77 130.49 15.39 128.95 Q14.02 127.40 12.99 125.76 Q11.95 124.13 11.61 123.36 L11.61 123.36 Q11.18 122.32 11.44 121.98 L11.44 121.98 Q11.52 121.81 11.70 121.72 L11.70 121.72 Q12.38 121.46 13.33 121.03 L13.33 121.03 Q14.28 120.35 15.35 120.00 Q16.43 119.66 17.11 121.12 L17.11 121.12 Q18.23 123.10 20.60 124.47 Q22.96 125.85 26.02 126.11 Q29.07 126.37 32.16 125.08 L32.16 125.08 Q34.23 124.13 34.40 122.45 Q34.57 120.78 33.11 118.54 L33.11 118.54 Q32.85 117.85 32.38 117.42 Q31.91 116.99 31.00 116.30 Q30.10 115.62 28.47 114.07 L28.47 114.07 Q27.18 113.47 26.10 112.95 Q25.03 112.43 23.82 111.83 L23.82 111.83 Q22.45 111.14 20.73 109.90 Q19.01 108.65 17.54 107.14 Q16.08 105.64 15.31 104.26 L15.31 104.26 Q13.93 102.97 13.59 100.69 Q13.24 98.42 13.72 95.84 Q14.19 93.26 15.31 91.19 L15.31 91.19 Q15.82 89.99 17.20 88.05 Q18.58 86.12 20.30 84.05 Q22.02 81.99 23.61 80.31 Q25.20 78.64 26.14 78.03 L26.14 78.03 Q26.83 77.35 27.61 76.57 L27.61 76.57 L28.38 75.88 Q28.47 75.45 28.72 75.45 L28.72 75.45 L28.90 75.45 Q29.33 75.20 30.79 74.59 Q32.25 73.99 33.97 72.36 L33.97 72.36 Q39.73 69.61 43.77 68.62 Q47.82 67.63 50.14 67.63 L50.14 67.63 Q52.29 67.71 54.35 68.79 Q56.42 69.86 57.92 71.50 Q59.43 73.13 59.68 75.20 L59.68 75.20 Q60.29 77.26 59.13 80.14 Q57.96 83.02 55.94 85.56 Q53.92 88.10 51.77 89.30 L51.77 89.30 Q49.36 90.33 47.69 89.56 Q46.01 88.78 46.10 87.15 L46.10 87.15 Q46.10 86.46 46.57 85.52 Q47.04 84.57 49.19 82.16 L49.19 82.16 Q51.94 78.12 52.12 76.40 Q52.29 74.68 50.57 74.42 L50.57 74.42 Q50.05 74.25 48.59 74.51 Q47.13 74.77 45.45 75.15 Q43.77 75.54 42.53 75.97 Q41.28 76.40 41.28 76.57 L41.28 76.57 L41.28 76.83 Q41.28 76.92 41.19 77.00 L41.19 77.00 Q41.19 77.09 40.94 77.00 L40.94 77.00 Q40.76 77.00 39.78 77.56 Q38.79 78.12 37.41 78.98 Q36.03 79.84 34.70 80.74 Q33.37 81.65 32.42 82.33 Q31.48 83.02 31.39 83.19 L31.39 83.19 Q31.22 84.14 29.41 84.91 L29.41 84.91 Q27.69 85.95 26.40 87.84 Q25.11 89.73 23.39 92.65 L23.39 92.65 Q21.93 94.63 21.33 96.91 Q20.73 99.19 21.33 100.57 L21.33 100.57 Q21.76 101.94 23.69 103.28 Q25.63 104.61 28.98 106.59 L28.98 106.59 Q31.91 108.22 34.49 110.03 Q37.07 111.83 38.87 113.51 Q40.68 115.19 41.19 116.30 L41.19 116.30 Q42.23 117.77 42.44 119.66 Q42.66 121.55 42.44 123.31 Q42.23 125.08 41.88 126.19 L41.88 126.19 Q41.28 127.57 40.03 129.12 Q38.79 130.67 37.75 130.58 L37.75 130.58 Q36.81 130.84 36.34 131.18 Q35.86 131.53 35.26 131.78 L35.26 131.78 Q34.66 132.13 32.42 132.60 Q30.19 133.07 27.52 133.38 Q24.85 133.68 22.88 133.59 Z M67.77 126.28 L67.77 126.28 Q65.19 127.74 62.31 127.96 Q59.43 128.17 56.93 127.18 Q54.44 126.19 52.89 124.22 L52.89 124.22 Q52.03 123.10 51.26 120.65 Q50.48 118.20 51.00 113.98 L51.00 113.98 Q51.51 110.03 53.45 105.98 Q55.38 101.94 58.22 98.85 Q61.06 95.75 64.41 94.63 L64.41 94.63 Q65.62 94.20 66.86 93.99 Q68.11 93.77 70.18 93.94 L70.18 93.94 Q72.15 94.20 73.70 94.93 Q75.25 95.66 75.94 96.52 L75.94 96.52 Q77.31 97.90 77.74 99.19 Q78.17 100.48 78.09 101.68 L78.09 101.68 Q77.66 104.44 75.64 107.62 Q73.62 110.80 70.00 112.35 L70.00 112.35 Q68.54 112.95 66.56 113.12 Q64.59 113.29 61.15 112.61 L61.15 112.61 Q59.08 112.18 58.44 113.04 Q57.79 113.90 57.88 116.39 L57.88 116.39 Q58.05 117.94 58.61 119.10 Q59.17 120.26 60.72 120.69 L60.72 120.69 Q62.69 121.03 63.55 120.73 Q64.41 120.43 65.70 119.83 L65.70 119.83 Q66.39 119.40 67.08 118.88 L67.08 118.88 L68.37 117.85 Q68.97 117.34 69.40 117.08 L69.40 117.08 Q69.83 116.73 70.26 116.65 Q70.69 116.56 71.12 116.56 L71.12 116.56 Q72.07 116.65 72.93 117.59 Q73.79 118.54 74.05 119.40 L74.05 119.40 Q74.05 120.09 73.19 121.33 Q72.33 122.58 70.91 123.92 Q69.49 125.25 67.77 126.28 Z M66.65 107.10 L66.65 107.10 Q67.25 106.84 68.41 105.90 Q69.57 104.95 70.52 103.88 Q71.47 102.80 71.47 102.20 L71.47 102.20 Q71.47 101.25 70.22 100.57 Q68.97 99.88 66.99 100.31 L66.99 100.31 Q66.31 100.48 65.36 101.25 Q64.41 102.03 63.47 103.02 Q62.52 104.01 61.83 104.91 Q61.15 105.81 60.89 106.33 L60.89 106.33 Q61.23 106.76 62.26 107.02 Q63.30 107.27 64.54 107.27 Q65.79 107.27 66.65 107.10 Z M96.49 126.28 L96.49 126.28 Q93.91 127.74 91.03 127.96 Q88.15 128.17 85.66 127.18 Q83.16 126.19 81.61 124.22 L81.61 124.22 Q80.75 123.10 79.98 120.65 Q79.21 118.20 79.72 113.98 L79.72 113.98 Q80.24 110.03 82.17 105.98 Q84.11 101.94 86.95 98.85 Q89.78 95.75 93.14 94.63 L93.14 94.63 Q94.34 94.20 95.59 93.99 Q96.84 93.77 98.90 93.94 L98.90 93.94 Q100.88 94.20 102.43 94.93 Q103.97 95.66 104.66 96.52 L104.66 96.52 Q106.04 97.90 106.47 99.19 Q106.90 100.48 106.81 101.68 L106.81 101.68 Q106.38 104.44 104.36 107.62 Q102.34 110.80 98.73 112.35 L98.73 112.35 Q97.27 112.95 95.29 113.12 Q93.31 113.29 89.87 112.61 L89.87 112.61 Q87.81 112.18 87.16 113.04 Q86.52 113.90 86.60 116.39 L86.60 116.39 Q86.77 117.94 87.33 119.10 Q87.89 120.26 89.44 120.69 L89.44 120.69 Q91.42 121.03 92.28 120.73 Q93.14 120.43 94.43 119.83 L94.43 119.83 Q95.12 119.40 95.80 118.88 L95.80 118.88 L97.09 117.85 Q97.70 117.34 98.13 117.08 L98.13 117.08 Q98.56 116.73 98.99 116.65 Q99.42 116.56 99.85 116.56 L99.85 116.56 Q100.79 116.65 101.65 117.59 Q102.51 118.54 102.77 119.40 L102.77 119.40 Q102.77 120.09 101.91 121.33 Q101.05 122.58 99.63 123.92 Q98.21 125.25 96.49 126.28 Z M95.37 107.10 L95.37 107.10 Q95.98 106.84 97.14 105.90 Q98.30 104.95 99.24 103.88 Q100.19 102.80 100.19 102.20 L100.19 102.20 Q100.19 101.25 98.94 100.57 Q97.70 99.88 95.72 100.31 L95.72 100.31 Q95.03 100.48 94.08 101.25 Q93.14 102.03 92.19 103.02 Q91.25 104.01 90.56 104.91 Q89.87 105.81 89.61 106.33 L89.61 106.33 Q89.96 106.76 90.99 107.02 Q92.02 107.27 93.27 107.27 Q94.51 107.27 95.37 107.10 Z M118.42 145.20 L118.42 145.20 Q116.01 146.15 113.39 144.90 Q110.77 143.65 108.88 140.99 L108.88 140.99 Q108.53 140.47 107.84 139.14 Q107.16 137.80 106.51 136.26 Q105.87 134.71 105.56 133.59 Q105.26 132.47 105.52 132.30 L105.52 132.30 Q105.87 131.35 107.07 131.18 Q108.27 131.01 109.48 131.31 Q110.68 131.61 110.85 132.13 L110.85 132.13 Q111.11 132.73 111.37 133.38 Q111.63 134.02 112.01 134.58 Q112.40 135.14 112.75 135.57 L112.75 135.57 Q113.69 137.03 114.81 137.59 Q115.93 138.15 116.53 137.72 L116.53 137.72 Q117.99 136.60 118.72 135.09 Q119.45 133.59 120.66 129.81 L120.66 129.81 Q121.60 126.62 122.29 124.30 Q122.98 121.98 123.75 120.00 L123.75 120.00 Q124.01 118.97 124.44 118.20 L124.44 118.20 Q124.53 118.02 124.61 117.85 L124.61 117.85 Q123.41 118.71 122.46 119.57 L122.46 119.57 Q121.17 120.78 118.94 121.72 L118.94 121.72 Q118.42 122.32 116.40 122.45 Q114.38 122.58 112.49 121.98 L112.49 121.98 Q111.28 121.29 110.55 120.56 Q109.82 119.83 109.35 118.88 Q108.88 117.94 108.36 116.65 L108.36 116.65 Q107.76 115.36 108.19 112.43 Q108.62 109.51 109.74 106.59 L109.74 106.59 Q110.77 104.44 112.75 101.94 Q114.72 99.45 116.96 97.43 Q119.20 95.41 121.00 94.89 L121.00 94.89 Q121.69 94.55 123.41 94.07 Q125.13 93.60 126.68 94.03 L126.68 94.03 Q128.14 94.20 128.91 94.67 Q129.69 95.15 131.41 96.61 L131.41 96.61 Q132.53 97.73 134.16 99.49 Q135.79 101.25 136.22 102.46 L136.22 102.46 Q136.83 103.75 136.48 105.25 Q136.14 106.76 135.28 107.88 L135.28 107.88 Q134.50 108.99 133.64 110.11 Q132.78 111.23 132.35 113.21 L132.35 113.21 Q131.92 115.79 130.72 119.01 Q129.52 122.24 128.83 124.99 L128.83 124.99 L127.45 130.32 Q125.30 137.63 122.72 140.94 Q120.14 144.25 118.42 145.20 Z M116.62 115.62 L116.62 115.62 Q118.34 115.53 119.58 115.23 Q120.83 114.93 121.95 113.85 Q123.07 112.78 124.53 110.54 L124.53 110.54 Q125.99 108.48 126.59 106.76 Q127.19 105.04 127.02 102.89 L127.02 102.89 Q126.94 101.51 126.25 101.08 Q125.56 100.65 124.44 100.82 L124.44 100.82 Q122.81 101.08 121.52 102.16 Q120.23 103.23 118.51 105.47 L118.51 105.47 Q117.22 107.19 116.36 109.60 L116.36 109.60 Q115.50 112.18 115.63 113.72 Q115.76 115.27 116.62 115.62 Z M143.88 138.41 L143.88 138.41 Q143.36 138.75 141.56 137.59 Q139.75 136.43 138.55 135.05 L138.55 135.05 Q137.94 134.36 137.77 133.59 Q137.60 132.82 137.86 130.67 L137.86 130.67 Q138.20 129.72 138.24 128.86 Q138.29 128.00 138.29 127.66 L138.29 127.66 Q138.29 127.14 138.59 125.25 Q138.89 123.36 139.23 121.25 Q139.58 119.14 139.84 118.02 L139.84 118.02 Q139.84 117.94 139.96 117.42 Q140.09 116.91 140.18 116.65 L140.18 116.65 Q140.35 115.87 140.61 114.76 Q140.87 113.64 141.13 111.75 L141.13 111.75 Q141.81 109.60 142.29 107.49 Q142.76 105.38 142.76 104.61 L142.76 104.61 Q142.76 103.06 143.96 102.37 L143.96 102.37 Q144.05 101.94 144.48 101.04 Q144.91 100.14 145.25 99.53 L145.25 99.53 Q146.97 94.63 148.09 91.71 Q149.21 88.78 150.41 86.63 L150.41 86.63 Q150.93 85.17 151.57 83.62 Q152.22 82.08 152.91 81.22 L152.91 81.22 Q153.51 80.01 155.01 78.25 Q156.52 76.49 158.24 74.85 Q159.96 73.22 160.99 72.44 L160.99 72.44 Q162.88 71.50 164.52 70.90 Q166.15 70.29 167.96 70.29 L167.96 70.29 Q169.59 70.29 170.84 71.03 Q172.09 71.76 174.58 73.99 L174.58 73.99 Q175.44 75.11 175.44 76.14 Q175.44 77.17 175.01 77.86 L175.01 77.86 Q174.41 79.24 173.20 81.26 Q172.00 83.28 170.88 84.87 Q169.76 86.46 169.25 86.55 L169.25 86.55 Q168.22 87.15 167.10 86.89 Q165.98 86.63 165.98 85.34 L165.98 85.34 Q165.98 84.74 166.07 84.23 L166.07 84.23 L166.07 83.71 Q166.32 82.59 166.71 81.73 Q167.10 80.87 167.44 80.27 L167.44 80.27 Q168.13 79.15 167.83 78.12 Q167.53 77.09 165.64 77.26 L165.64 77.26 Q165.38 77.43 164.65 78.08 Q163.92 78.72 163.10 79.54 Q162.28 80.36 161.68 81.09 Q161.08 81.82 161.08 82.08 L161.08 82.08 L160.65 82.94 Q160.13 83.88 159.19 85.00 L159.19 85.00 Q158.58 85.86 158.15 86.63 Q157.72 87.41 157.72 87.84 L157.72 87.84 Q157.72 88.18 157.64 88.44 Q157.55 88.70 157.21 88.70 L157.21 88.70 L156.95 89.56 Q156.61 90.42 155.92 91.62 L155.92 91.62 Q155.57 92.48 155.19 93.21 Q154.80 93.94 154.46 94.29 L154.46 94.29 L154.37 94.46 L154.03 95.41 Q153.60 96.44 153.17 97.47 Q152.74 98.50 152.74 98.67 L152.74 98.67 Q152.74 99.02 153.77 99.02 Q154.80 99.02 156.26 98.72 Q157.72 98.42 159.10 98.07 L159.10 98.07 Q160.30 97.73 160.82 97.73 Q161.34 97.73 162.45 98.07 L162.45 98.07 Q163.14 98.50 163.57 99.58 Q164.00 100.65 164.22 101.73 Q164.43 102.80 164.26 103.32 L164.26 103.32 Q164.17 103.66 162.32 104.26 Q160.48 104.87 158.67 105.21 L158.67 105.21 Q157.12 105.55 155.19 105.94 Q153.25 106.33 151.79 106.72 Q150.33 107.10 150.24 107.45 L150.24 107.45 Q149.90 107.45 149.68 107.88 Q149.47 108.31 149.47 108.65 L149.47 108.65 Q149.47 109.77 149.04 110.46 L149.04 110.46 Q148.87 110.97 148.48 112.56 Q148.09 114.15 147.70 116.00 Q147.32 117.85 147.02 119.44 Q146.72 121.03 146.72 121.55 L146.72 121.55 Q146.20 122.15 146.11 123.06 Q146.03 123.96 146.03 124.65 L146.03 124.65 Q145.68 125.33 145.60 125.89 Q145.51 126.45 145.51 126.80 L145.51 126.80 L145.51 127.14 Q145.51 127.40 145.43 127.66 L145.43 127.66 Q145.34 128.52 145.21 129.94 Q145.08 131.35 145.08 132.73 L145.08 132.73 L144.82 135.22 Q144.74 136.34 144.52 137.16 Q144.31 137.98 143.88 138.41 Z M186.02 127.83 L186.02 127.83 Q185.16 126.97 184.64 125.46 Q184.13 123.96 183.61 121.98 L183.61 121.98 Q183.44 121.29 183.48 120.43 Q183.52 119.57 183.44 119.06 L183.44 119.06 Q183.18 119.66 182.62 120.60 Q182.06 121.55 181.55 121.98 L181.55 121.98 Q181.20 122.32 180.00 123.31 Q178.79 124.30 177.59 124.90 L177.59 124.90 Q174.75 126.71 172.56 126.58 Q170.37 126.45 168.73 124.39 L168.73 124.39 Q167.36 123.27 166.50 121.55 Q165.64 119.83 166.15 117.42 L166.15 117.42 Q166.32 114.41 167.01 111.53 Q167.70 108.65 169.85 103.83 L169.85 103.83 Q171.66 100.31 172.60 98.33 Q173.55 96.35 173.81 96.01 L173.81 96.01 Q175.10 95.58 176.99 96.05 Q178.88 96.52 179.05 97.73 L179.05 97.73 Q179.57 98.59 179.05 100.95 Q178.54 103.32 176.99 106.33 L176.99 106.33 Q175.78 109.25 174.71 112.00 Q173.63 114.76 173.42 116.65 Q173.20 118.54 174.41 118.97 L174.41 118.97 Q175.18 119.40 176.69 118.88 Q178.19 118.37 180.26 115.79 Q182.32 113.21 184.64 107.62 L184.64 107.62 Q185.33 105.90 185.67 104.56 Q186.02 103.23 186.10 101.60 L186.10 101.60 Q185.93 100.57 186.66 99.45 Q187.39 98.33 188.43 97.73 L188.43 97.73 Q188.77 97.30 189.37 96.87 L189.37 96.87 Q189.80 96.61 189.97 96.78 L189.97 96.78 Q190.06 96.78 190.15 96.95 L190.15 96.95 L191.52 96.87 Q191.87 96.78 192.30 97.56 Q192.73 98.33 193.16 98.67 L193.16 98.67 Q194.10 99.45 194.02 102.03 Q193.93 104.61 191.95 109.25 L191.95 109.25 Q190.32 112.78 189.76 114.58 Q189.20 116.39 189.11 118.11 L189.11 118.11 Q189.11 119.66 189.37 120.73 Q189.63 121.81 190.92 122.93 L190.92 122.93 Q191.87 123.53 191.99 124.95 Q192.12 126.37 192.04 127.40 L192.04 127.40 Q191.87 128.17 190.70 128.47 Q189.54 128.77 188.21 128.60 Q186.88 128.43 186.02 127.83 Z M197.80 126.54 L197.80 126.54 Q197.11 125.85 196.81 124.47 Q196.51 123.10 196.60 121.77 Q196.68 120.43 197.03 119.74 L197.03 119.74 Q197.03 119.06 197.24 118.67 Q197.46 118.28 197.37 117.94 L197.37 117.94 Q197.28 117.59 197.54 116.73 Q197.80 115.87 198.06 115.10 L198.06 115.10 Q198.66 113.72 199.43 111.53 Q200.21 109.34 200.98 107.06 Q201.76 104.78 202.27 103.10 Q202.79 101.43 202.87 101.08 L202.87 101.08 Q202.87 100.05 204.25 99.96 L204.25 99.96 Q205.28 99.62 206.74 100.82 Q208.21 102.03 209.07 103.40 L209.07 103.40 Q209.75 104.09 209.58 105.21 Q209.41 106.33 208.46 108.39 L208.46 108.39 Q208.12 109.08 207.65 110.67 Q207.17 112.26 207.00 113.29 L207.00 113.29 Q206.66 113.98 206.18 115.23 Q205.71 116.48 205.37 117.59 L205.37 117.59 Q205.20 118.02 205.02 119.19 Q204.85 120.35 204.59 121.55 Q204.34 122.75 203.91 123.44 L203.91 123.44 Q203.13 126.97 201.20 127.57 Q199.26 128.17 197.80 126.54 Z " fill="#f1ece2"></path><defs><mask id="hm2" maskUnits="userSpaceOnUse"><path d="M0,3 C0,-3 -9,-6 -9,-13 C-9,-19 -2,-20 0,-14 C2,-20 9,-19 9,-13 C9,-6 0,-3 0,3 Z" fill="#fff"></path><path d="M-7.5,-8 q2.5,-3.4 5,0 t5,0 t5,0" fill="none" stroke="#000" stroke-width="2.1" stroke-linecap="round"></path></mask></defs><g transform="translate(210.40,95.23) rotate(12) scale(0.940)"><path d="M0,3 C0,-3 -9,-6 -9,-13 C-9,-19 -2,-20 0,-14 C2,-20 9,-19 9,-13 C9,-6 0,-3 0,3 Z" fill="#d23b34" mask="url(#hm2)"></path></g></g></g></svg><path d="M16.90 326.32L16.90 326.32Q15.94 326.32 15.20 325.98Q14.46 325.64 14.04 324.99Q13.62 324.34 13.62 323.40L13.62 323.40L13.62 323.09L15.05 323.09L15.05 323.40Q15.05 324.23 15.55 324.64Q16.06 325.05 16.90 325.05L16.90 325.05Q17.75 325.05 18.18 324.70Q18.61 324.35 18.61 323.80L18.61 323.80Q18.61 323.43 18.41 323.19Q18.20 322.96 17.81 322.82Q17.42 322.67 16.87 322.54L16.87 322.54L16.51 322.47Q15.68 322.28 15.08 321.98Q14.47 321.69 14.15 321.22Q13.82 320.75 13.82 320.00L13.82 320.00Q13.82 319.24 14.18 318.70Q14.54 318.16 15.20 317.87Q15.86 317.58 16.75 317.58L16.75 317.58Q17.64 317.58 18.34 317.88Q19.03 318.18 19.43 318.78Q19.84 319.38 19.84 320.28L19.84 320.28L19.84 320.68L18.41 320.68L18.41 320.28Q18.41 319.77 18.20 319.46Q18.00 319.14 17.63 319Q17.26 318.86 16.75 318.86L16.75 318.86Q16.01 318.86 15.62 319.14Q15.24 319.43 15.24 319.96L15.24 319.96Q15.24 320.30 15.41 320.53Q15.59 320.76 15.93 320.91Q16.27 321.06 16.79 321.17L16.79 321.17L17.15 321.26Q18.01 321.45 18.66 321.74Q19.31 322.04 19.67 322.52Q20.04 323.00 20.04 323.76L20.04 323.76Q20.04 324.52 19.65 325.10Q19.26 325.67 18.56 326.00Q17.86 326.32 16.90 326.32Z M31.72 326.15L30.28 326.15L30.28 319.06L27.77 319.06L27.77 317.75L34.23 317.75L34.23 319.06L31.72 319.06L31.72 326.15Z M43.26 326.15L41.77 326.15L44.07 317.75L46.58 317.75L48.88 326.15L47.40 326.15L46.89 324.23L43.76 324.23L43.26 326.15ZM45.22 318.65L44.10 322.91L46.56 322.91L45.43 318.65L45.22 318.65Z M58.40 326.15L56.95 326.15L56.95 317.75L60.54 317.75Q61.33 317.75 61.92 318.03Q62.51 318.30 62.84 318.80Q63.17 319.30 63.17 320.00L63.17 320.00L63.17 320.13Q63.17 320.91 62.80 321.38Q62.42 321.84 61.90 322.06L61.90 322.06L61.90 322.25Q62.36 322.28 62.63 322.58Q62.90 322.88 62.90 323.38L62.90 323.38L62.90 326.15L61.46 326.15L61.46 323.58Q61.46 323.28 61.30 323.10Q61.14 322.91 60.78 322.91L60.78 322.91L58.40 322.91L58.40 326.15ZM58.40 319.06L58.40 321.60L60.40 321.60Q61.02 321.60 61.37 321.27Q61.73 320.94 61.73 320.39L61.73 320.39L61.73 320.28Q61.73 319.72 61.38 319.39Q61.03 319.06 60.40 319.06L60.40 319.06L58.40 319.06Z M72.96 326.15L71.54 326.15L71.54 317.75L74.30 317.75L76.28 325.18L76.47 325.18L76.47 317.75L77.90 317.75L77.90 326.15L75.15 326.15L73.17 318.72L72.96 318.72L72.96 326.15Z M90.61 326.15L86.28 326.15L86.28 324.88L87.40 324.88L87.40 319.02L86.28 319.02L86.28 317.75L90.57 317.75Q91.33 317.75 91.90 318.01Q92.47 318.27 92.79 318.74Q93.10 319.22 93.10 319.88L93.10 319.88L93.10 319.98Q93.10 320.56 92.89 320.93Q92.67 321.30 92.37 321.51Q92.07 321.71 91.80 321.80L91.80 321.80L91.80 322Q92.07 322.07 92.39 322.27Q92.71 322.47 92.93 322.85Q93.15 323.22 93.15 323.82L93.15 323.82L93.15 323.94Q93.15 324.63 92.82 325.13Q92.49 325.62 91.92 325.89Q91.35 326.15 90.61 326.15L90.61 326.15ZM88.84 322.58L88.84 324.84L90.44 324.84Q91.02 324.84 91.36 324.56Q91.70 324.28 91.70 323.76L91.70 323.76L91.70 323.66Q91.70 323.14 91.36 322.86Q91.03 322.58 90.44 322.58L90.44 322.58L88.84 322.58ZM88.84 319.06L88.84 321.27L90.43 321.27Q90.98 321.27 91.32 320.99Q91.66 320.72 91.66 320.22L91.66 320.22L91.66 320.10Q91.66 319.61 91.32 319.34Q90.98 319.06 90.43 319.06L90.43 319.06L88.84 319.06Z M106.92 326.15L101.51 326.15L101.51 317.75L106.86 317.75L106.86 319.06L102.96 319.06L102.96 321.27L106.52 321.27L106.52 322.58L102.96 322.58L102.96 324.84L106.92 324.84L106.92 326.15Z M116.63 326.15L115.18 326.15L115.18 317.75L118.77 317.75Q119.56 317.75 120.15 318.03Q120.74 318.30 121.07 318.80Q121.40 319.30 121.40 320.00L121.40 320.00L121.40 320.13Q121.40 320.91 121.02 321.38Q120.65 321.84 120.12 322.06L120.12 322.06L120.12 322.25Q120.59 322.28 120.86 322.58Q121.13 322.88 121.13 323.38L121.13 323.38L121.13 326.15L119.69 326.15L119.69 323.58Q119.69 323.28 119.53 323.10Q119.37 322.91 119.01 322.91L119.01 322.91L116.63 322.91L116.63 326.15ZM116.63 319.06L116.63 321.60L118.62 321.60Q119.25 321.60 119.60 321.27Q119.96 320.94 119.96 320.39L119.96 320.39L119.96 320.28Q119.96 319.72 119.61 319.39Q119.26 319.06 118.62 319.06L118.62 319.06L116.63 319.06Z M132.68 326.32L132.68 326.32Q131.79 326.32 131.09 325.93Q130.39 325.54 129.97 324.79Q129.56 324.04 129.56 322.95L129.56 322.95L129.56 320.96Q129.56 319.32 130.47 318.45Q131.38 317.58 132.92 317.58L132.92 317.58Q134.46 317.58 135.28 318.41Q136.11 319.23 136.11 320.62L136.11 320.62L136.11 320.67L134.70 320.67L134.70 320.57Q134.70 320.09 134.50 319.71Q134.31 319.32 133.92 319.10Q133.52 318.88 132.92 318.88L132.92 318.88Q132.03 318.88 131.52 319.43Q131.01 319.97 131.01 320.93L131.01 320.93L131.01 322.97Q131.01 323.92 131.52 324.48Q132.03 325.05 132.94 325.05L132.94 325.05Q133.86 325.05 134.28 324.56Q134.70 324.06 134.70 323.30L134.70 323.30L134.70 323.15L132.57 323.15L132.57 321.93L136.11 321.93L136.11 326.15L134.79 326.15L134.79 325.32L134.59 325.32Q134.49 325.54 134.29 325.77Q134.08 326.01 133.71 326.16Q133.33 326.32 132.68 326.32Z M150.11 326.15L144.70 326.15L144.70 317.75L150.05 317.75L150.05 319.06L146.15 319.06L146.15 321.27L149.71 321.27L149.71 322.58L146.15 322.58L146.15 324.84L150.11 324.84L150.11 326.15Z M159.82 326.15L158.37 326.15L158.37 317.75L161.96 317.75Q162.75 317.75 163.34 318.03Q163.92 318.30 164.25 318.80Q164.58 319.30 164.58 320.00L164.58 320.00L164.58 320.13Q164.58 320.91 164.21 321.38Q163.84 321.84 163.31 322.06L163.31 322.06L163.31 322.25Q163.78 322.28 164.05 322.58Q164.32 322.88 164.32 323.38L164.32 323.38L164.32 326.15L162.88 326.15L162.88 323.58Q162.88 323.28 162.72 323.10Q162.56 322.91 162.20 322.91L162.20 322.91L159.82 322.91L159.82 326.15ZM159.82 319.06L159.82 321.60L161.81 321.60Q162.44 321.60 162.79 321.27Q163.14 320.94 163.14 320.39L163.14 320.39L163.14 320.28Q163.14 319.72 162.80 319.39Q162.45 319.06 161.81 319.06L161.81 319.06L159.82 319.06Z  M185.90 326.32L185.90 326.32Q184.94 326.32 184.21 325.98Q183.47 325.64 183.05 324.99Q182.63 324.34 182.63 323.40L182.63 323.40L182.63 323.09L184.06 323.09L184.06 323.40Q184.06 324.23 184.56 324.64Q185.06 325.05 185.90 325.05L185.90 325.05Q186.76 325.05 187.19 324.70Q187.62 324.35 187.62 323.80L187.62 323.80Q187.62 323.43 187.42 323.19Q187.21 322.96 186.82 322.82Q186.43 322.67 185.88 322.54L185.88 322.54L185.52 322.47Q184.69 322.28 184.09 321.98Q183.48 321.69 183.16 321.22Q182.83 320.75 182.83 320.00L182.83 320.00Q182.83 319.24 183.19 318.70Q183.55 318.16 184.21 317.87Q184.87 317.58 185.76 317.58L185.76 317.58Q186.65 317.58 187.34 317.88Q188.04 318.18 188.44 318.78Q188.84 319.38 188.84 320.28L188.84 320.28L188.84 320.68L187.42 320.68L187.42 320.28Q187.42 319.77 187.21 319.46Q187.01 319.14 186.64 319Q186.26 318.86 185.76 318.86L185.76 318.86Q185.02 318.86 184.63 319.14Q184.25 319.43 184.25 319.96L184.25 319.96Q184.25 320.30 184.42 320.53Q184.60 320.76 184.94 320.91Q185.28 321.06 185.80 321.17L185.80 321.17L186.16 321.26Q187.02 321.45 187.67 321.74Q188.32 322.04 188.68 322.52Q189.05 323.00 189.05 323.76L189.05 323.76Q189.05 324.52 188.66 325.10Q188.27 325.67 187.57 326.00Q186.86 326.32 185.90 326.32Z M202.72 326.15L197.31 326.15L197.31 317.75L202.66 317.75L202.66 319.06L198.76 319.06L198.76 321.27L202.32 321.27L202.32 322.58L198.76 322.58L198.76 324.84L202.72 324.84L202.72 326.15Z M216.39 326.15L210.98 326.15L210.98 317.75L216.33 317.75L216.33 319.06L212.43 319.06L212.43 321.27L216.00 321.27L216.00 322.58L212.43 322.58L212.43 324.84L216.39 324.84L216.39 326.15Z" fill="#9aa6d6"></path><circle cx="155.0" cy="73.8" r="10" fill="#fff"></circle><circle cx="155.0" cy="73.8" r="10" fill="none" stroke="#9aa6d6" stroke-width="2.4"></circle><circle cx="155.0" cy="73.8" r="4" fill="#9aa6d6"></circle></svg>