<svg xmlns="http://www.w3.org/2000/svg" width="1380" height="2040" viewBox="0 0 230 340"><path d="M25.2,-72.2 L22.6,-75 L20.5,-75 L14.9,-72.5 L6.9,-51.7 L5,-48.1 L2.9,-46.5 L1,-41.4 L-0.9,-40 L-4.5,-32.7 L-4,-29.4 L-7.3,-27.5 L-7,-25.3 L-8.8,-21.6 L-11.1,-11.2 L-14.8,-7 L-14.8,-3.5 L-17.7,-2.1 L-17.1,-0.7 L-17.6,1 L-20.3,3 L-20.4,4.7 L-22.3,6.7 L-22.8,8.6 L-22,10.8 L-24.2,12.6 L-25.2,16 L-24.7,18.8 L-22,21.4 L-20.1,21 L-17.8,18.6 L-16.3,19 L-16.8,22.5 L-14.6,25.9 L-14.1,31.2 L-9.1,36.6 L-7.3,41.9 L-7.8,45.3 L-11.2,47.9 L-11.9,51.8 L-12.7,52.3 L-13,61.3 L-14,63.5 L-12.8,67 L-0.2,75 L6.5,74 L8,74.9 L10.3,73.9 L10.6,72.7 L11.5,73.2 L13,69.8 L11.7,66.1 L12.5,65.6 L12,63.7 L13.4,62 L13.6,59.1 L11,34.9 L9.7,32.1 L10.5,27.3 L10.2,17.4 L11.2,11.5 L10.7,0.7 L9.1,-9.1 L10,-17.5 L15.3,-32.9 L15.9,-38 L20,-52.1 L25.1,-59.7 L24.5,-68.4 Z M-9.2,-8 L-9.73,-6.16 L-11,-5.4 L-12.27,-6.16 L-12.8,-8 L-12.27,-9.84 L-11,-10.6 L-9.73,-9.84 Z" fill="#74c2b4" fill-opacity="0.11" fill-rule="evenodd" transform="translate(115 178) scale(2.00000) translate(0.00 0.00)"></path><path d="M25.2,-72.2 L22.6,-75 L20.5,-75 L14.9,-72.5 L6.9,-51.7 L5,-48.1 L2.9,-46.5 L1,-41.4 L-0.9,-40 L-4.5,-32.7 L-4,-29.4 L-7.3,-27.5 L-7,-25.3 L-8.8,-21.6 L-11.1,-11.2 L-14.8,-7 L-14.8,-3.5 L-17.7,-2.1 L-17.1,-0.7 L-17.6,1 L-20.3,3 L-20.4,4.7 L-22.3,6.7 L-22.8,8.6 L-22,10.8 L-24.2,12.6 L-25.2,16 L-24.7,18.8 L-22,21.4 L-20.1,21 L-17.8,18.6 L-16.3,19 L-16.8,22.5 L-14.6,25.9 L-14.1,31.2 L-9.1,36.6 L-7.3,41.9 L-7.8,45.3 L-11.2,47.9 L-11.9,51.8 L-12.7,52.3 L-13,61.3 L-14,63.5 L-12.8,67 L-0.2,75 L6.5,74 L8,74.9 L10.3,73.9 L10.6,72.7 L11.5,73.2 L13,69.8 L11.7,66.1 L12.5,65.6 L12,63.7 L13.4,62 L13.6,59.1 L11,34.9 L9.7,32.1 L10.5,27.3 L10.2,17.4 L11.2,11.5 L10.7,0.7 L9.1,-9.1 L10,-17.5 L15.3,-32.9 L15.9,-38 L20,-52.1 L25.1,-59.7 L24.5,-68.4 Z M-9.2,-8 L-9.73,-6.16 L-11,-5.4 L-12.27,-6.16 L-12.8,-8 L-12.27,-9.84 L-11,-10.6 L-9.73,-9.84 Z" fill="none" stroke="#74c2b4" stroke-opacity="0.5" stroke-width="0.90" stroke-linejoin="round" stroke-linecap="round" transform="translate(115 178) scale(2.00000) translate(0.00 0.00)"></path><path d="M88.08 123.29L74.61 123.29L74.61 119L78.02 119L78.02 101.68L74.61 101.68L74.61 97.39L87.93 97.39Q90.30 97.39 92.06 98.19Q93.82 98.98 94.80 100.44Q95.78 101.91 95.78 103.94L95.78 103.94L95.78 104.31Q95.78 106.09 95.11 107.22Q94.45 108.34 93.54 108.95Q92.63 109.56 91.82 109.82L91.82 109.82L91.82 110.49Q92.63 110.71 93.60 111.32Q94.56 111.93 95.24 113.08Q95.93 114.23 95.93 116.08L95.93 116.08L95.93 116.45Q95.93 118.59 94.93 120.13Q93.93 121.66 92.17 122.48Q90.41 123.29 88.08 123.29L88.08 123.29ZM82.90 112.49L82.90 118.85L87.49 118.85Q89.08 118.85 90.06 118.08Q91.04 117.30 91.04 115.86L91.04 115.86L91.04 115.48Q91.04 114.04 90.08 113.27Q89.12 112.49 87.49 112.49L87.49 112.49L82.90 112.49ZM82.90 101.83L82.90 108.05L87.42 108.05Q88.93 108.05 89.91 107.27Q90.89 106.49 90.89 105.13L90.89 105.13L90.89 104.75Q90.89 103.35 89.93 102.59Q88.97 101.83 87.42 101.83L87.42 101.83L82.90 101.83Z M108.43 123.81L108.43 123.81Q105.69 123.81 103.60 122.64Q101.51 121.48 100.35 119.35Q99.18 117.22 99.18 114.34L99.18 114.34L99.18 113.89Q99.18 111.01 100.33 108.88Q101.48 106.75 103.55 105.59Q105.62 104.42 108.36 104.42L108.36 104.42Q111.06 104.42 113.06 105.62Q115.06 106.83 116.17 108.95Q117.28 111.08 117.28 113.89L117.28 113.89L117.28 115.48L103.92 115.48Q103.99 117.37 105.32 118.56Q106.66 119.74 108.58 119.74L108.58 119.74Q110.54 119.74 111.47 118.89Q112.39 118.04 112.87 117.00L112.87 117.00L116.68 119Q116.17 119.96 115.18 121.09Q114.20 122.22 112.58 123.01Q110.95 123.81 108.43 123.81ZM103.96 112.01L103.96 112.01L112.54 112.01Q112.39 110.42 111.26 109.45Q110.13 108.49 108.32 108.49L108.32 108.49Q106.43 108.49 105.32 109.45Q104.21 110.42 103.96 112.01Z M126.08 123.29L121.42 123.29L121.42 104.94L126.01 104.94L126.01 107.01L126.67 107.01Q127.08 105.90 128.02 105.38Q128.97 104.87 130.23 104.87L130.23 104.87L132.45 104.87L132.45 109.01L130.15 109.01Q128.38 109.01 127.23 109.95Q126.08 110.90 126.08 112.86L126.08 112.86L126.08 123.29Z M135.18 114.19L135.18 114.19L135.18 113.60Q135.18 110.71 136.33 108.66Q137.48 106.61 139.38 105.51Q141.29 104.42 143.55 104.42L143.55 104.42Q146.06 104.42 147.36 105.31Q148.65 106.20 149.24 107.16L149.24 107.16L149.91 107.16L149.91 104.94L154.50 104.94L154.50 126.55Q154.50 128.44 153.39 129.56Q152.28 130.69 150.43 130.69L150.43 130.69L138.14 130.69L138.14 126.62L148.80 126.62Q149.84 126.62 149.84 125.51L149.84 125.51L149.84 120.74L149.17 120.74Q148.80 121.33 148.13 121.94Q147.47 122.55 146.36 122.96Q145.25 123.37 143.55 123.37L143.55 123.37Q141.29 123.37 139.38 122.27Q137.48 121.18 136.33 119.13Q135.18 117.08 135.18 114.19ZM144.88 119.30L144.88 119.30Q147.02 119.30 148.47 117.93Q149.91 116.56 149.91 114.08L149.91 114.08L149.91 113.71Q149.91 111.19 148.48 109.84Q147.06 108.49 144.88 108.49L144.88 108.49Q142.73 108.49 141.29 109.84Q139.85 111.19 139.85 113.71L139.85 113.71L139.85 114.08Q139.85 116.56 141.29 117.93Q142.73 119.30 144.88 119.30Z" fill="#f1ece2"></path><path d="M54.95 147.71L54.95 147.71Q54.04 147.71 53.26 147.26Q52.48 146.81 52.00 145.96Q51.53 145.12 51.53 143.91L51.53 143.91L51.53 143.69Q51.53 142.50 52.00 141.65Q52.46 140.79 53.24 140.34Q54.02 139.90 54.95 139.90L54.95 139.90Q55.67 139.90 56.16 140.07Q56.65 140.25 56.96 140.53Q57.28 140.81 57.44 141.11L57.44 141.11L57.68 141.11L57.68 137L59.23 137L59.23 147.50L57.71 147.50L57.71 146.45L57.47 146.45Q57.19 146.93 56.61 147.32Q56.03 147.71 54.95 147.71ZM55.39 146.36L55.39 146.36Q56.39 146.36 57.04 145.72Q57.70 145.07 57.70 143.87L57.70 143.87L57.70 143.74Q57.70 142.55 57.05 141.91Q56.41 141.26 55.39 141.26L55.39 141.26Q54.40 141.26 53.74 141.91Q53.09 142.55 53.09 143.74L53.09 143.74L53.09 143.87Q53.09 145.07 53.74 145.72Q54.40 146.36 55.39 146.36Z M64.80 147.71L64.80 147.71Q64.01 147.71 63.38 147.44Q62.76 147.17 62.39 146.65Q62.03 146.12 62.03 145.37L62.03 145.37Q62.03 144.60 62.39 144.10Q62.76 143.60 63.40 143.34Q64.04 143.09 64.85 143.09L64.85 143.09L67.10 143.09L67.10 142.61Q67.10 141.97 66.71 141.57Q66.32 141.19 65.51 141.19L65.51 141.19Q64.71 141.19 64.29 141.56Q63.87 141.94 63.74 142.53L63.74 142.53L62.30 142.07Q62.48 141.47 62.88 140.98Q63.27 140.50 63.93 140.19Q64.59 139.90 65.52 139.90L65.52 139.90Q66.96 139.90 67.79 140.63Q68.61 141.37 68.61 142.72L68.61 142.72L68.61 145.76Q68.61 146.21 69.03 146.21L69.03 146.21L69.66 146.21L69.66 147.50L68.51 147.50Q67.98 147.50 67.65 147.23Q67.32 146.96 67.32 146.50L67.32 146.50L67.32 146.45L67.10 146.45Q66.98 146.68 66.74 146.97Q66.50 147.28 66.03 147.49Q65.57 147.71 64.80 147.71ZM65.03 146.44L65.03 146.44Q65.96 146.44 66.53 145.90Q67.10 145.37 67.10 144.44L67.10 144.44L67.10 144.29L64.94 144.29Q64.32 144.29 63.95 144.55Q63.57 144.81 63.57 145.32L63.57 145.32Q63.57 145.84 63.96 146.13Q64.35 146.44 65.03 146.44Z  M81.26 147.71L81.26 147.71Q80.18 147.71 79.60 147.32Q79.03 146.93 78.74 146.45L78.74 146.45L78.50 146.45L78.50 147.50L76.99 147.50L76.99 137L78.53 137L78.53 141.11L78.77 141.11Q78.95 140.81 79.25 140.53Q79.55 140.25 80.05 140.07Q80.54 139.90 81.26 139.90L81.26 139.90Q82.19 139.90 82.97 140.34Q83.75 140.79 84.22 141.65Q84.68 142.50 84.68 143.69L84.68 143.69L84.68 143.91Q84.68 145.12 84.21 145.96Q83.74 146.81 82.97 147.26Q82.19 147.71 81.26 147.71ZM80.81 146.36L80.81 146.36Q81.82 146.36 82.47 145.72Q83.12 145.07 83.12 143.87L83.12 143.87L83.12 143.74Q83.12 142.55 82.48 141.91Q81.83 141.26 80.81 141.26L80.81 141.26Q79.82 141.26 79.17 141.91Q78.52 142.55 78.52 143.74L78.52 143.74L78.52 143.87Q78.52 145.07 79.17 145.72Q79.82 146.36 80.81 146.36Z M89.15 147.50L87.60 147.50L87.60 140.10L89.15 140.10L89.15 147.50ZM88.38 139.10L88.38 139.10Q87.93 139.10 87.62 138.81Q87.32 138.51 87.32 138.05L87.32 138.05Q87.32 137.59 87.62 137.29Q87.93 137 88.38 137L88.38 137Q88.85 137 89.15 137.29Q89.45 137.59 89.45 138.05L89.45 138.05Q89.45 138.51 89.15 138.81Q88.85 139.10 88.38 139.10Z M93.99 147.50L92.44 147.50L92.44 140.10L93.96 140.10L93.96 141.22L94.20 141.22Q94.41 140.76 94.95 140.38Q95.49 139.99 96.55 139.99L96.55 139.99Q97.39 139.99 98.04 140.36Q98.70 140.74 99.07 141.42Q99.45 142.10 99.45 143.06L99.45 143.06L99.45 147.50L97.90 147.50L97.90 143.18Q97.90 142.22 97.42 141.76Q96.94 141.31 96.10 141.31L96.10 141.31Q95.14 141.31 94.56 141.94Q93.99 142.56 93.99 143.76L93.99 143.76L93.99 147.50Z  M109.04 147.50L107.49 147.50L107.49 140.10L109.04 140.10L109.04 147.50ZM108.27 139.10L108.27 139.10Q107.82 139.10 107.51 138.81Q107.21 138.51 107.21 138.05L107.21 138.05Q107.21 137.59 107.51 137.29Q107.82 137 108.27 137L108.27 137Q108.74 137 109.04 137.29Q109.34 137.59 109.34 138.05L109.34 138.05Q109.34 138.51 109.04 138.81Q108.74 139.10 108.27 139.10Z  M120.22 147.71L120.22 147.71Q119.30 147.71 118.52 147.26Q117.74 146.81 117.27 145.96Q116.80 145.12 116.80 143.91L116.80 143.91L116.80 143.69Q116.80 142.50 117.26 141.65Q117.73 140.79 118.51 140.34Q119.29 139.90 120.22 139.90L120.22 139.90Q120.94 139.90 121.42 140.07Q121.91 140.25 122.23 140.53Q122.54 140.81 122.71 141.11L122.71 141.11L122.95 141.11L122.95 137L124.49 137L124.49 147.50L122.98 147.50L122.98 146.45L122.74 146.45Q122.45 146.93 121.88 147.32Q121.30 147.71 120.22 147.71ZM120.65 146.36L120.65 146.36Q121.66 146.36 122.31 145.72Q122.96 145.07 122.96 143.87L122.96 143.87L122.96 143.74Q122.96 142.55 122.32 141.91Q121.67 141.26 120.65 141.26L120.65 141.26Q119.66 141.26 119.01 141.91Q118.36 142.55 118.36 143.74L118.36 143.74L118.36 143.87Q118.36 145.07 119.01 145.72Q119.66 146.36 120.65 146.36Z M130.07 147.71L130.07 147.71Q129.27 147.71 128.65 147.44Q128.03 147.17 127.66 146.65Q127.29 146.12 127.29 145.37L127.29 145.37Q127.29 144.60 127.66 144.10Q128.03 143.60 128.66 143.34Q129.30 143.09 130.11 143.09L130.11 143.09L132.36 143.09L132.36 142.61Q132.36 141.97 131.97 141.57Q131.58 141.19 130.77 141.19L130.77 141.19Q129.98 141.19 129.56 141.56Q129.14 141.94 129.00 142.53L129.00 142.53L127.56 142.07Q127.74 141.47 128.14 140.98Q128.54 140.50 129.20 140.19Q129.86 139.90 130.79 139.90L130.79 139.90Q132.23 139.90 133.05 140.63Q133.88 141.37 133.88 142.72L133.88 142.72L133.88 145.76Q133.88 146.21 134.30 146.21L134.30 146.21L134.93 146.21L134.93 147.50L133.77 147.50Q133.25 147.50 132.92 147.23Q132.59 146.96 132.59 146.50L132.59 146.50L132.59 146.45L132.36 146.45Q132.24 146.68 132.00 146.97Q131.76 147.28 131.30 147.49Q130.83 147.71 130.07 147.71ZM130.29 146.44L130.29 146.44Q131.22 146.44 131.79 145.90Q132.36 145.37 132.36 144.44L132.36 144.44L132.36 144.29L130.20 144.29Q129.59 144.29 129.21 144.55Q128.84 144.81 128.84 145.32L128.84 145.32Q128.84 145.84 129.23 146.13Q129.62 146.44 130.29 146.44Z M138.97 147.50L137.43 147.50L137.43 137L138.97 137L138.97 141.16L139.21 141.16Q139.36 140.87 139.64 140.60Q139.92 140.33 140.38 140.16Q140.83 139.99 141.54 139.99L141.54 139.99Q142.38 139.99 143.03 140.36Q143.68 140.74 144.06 141.42Q144.43 142.10 144.43 143.06L144.43 143.06L144.43 147.50L142.89 147.50L142.89 143.18Q142.89 142.22 142.41 141.76Q141.93 141.31 141.09 141.31L141.09 141.31Q140.13 141.31 139.55 141.94Q138.97 142.56 138.97 143.76L138.97 143.76L138.97 147.50Z M151.12 147.71L151.12 147.71Q150.01 147.71 149.14 147.25Q148.28 146.79 147.79 145.94Q147.29 145.09 147.29 143.91L147.29 143.91L147.29 143.69Q147.29 142.52 147.79 141.67Q148.28 140.82 149.14 140.36Q150.01 139.90 151.12 139.90L151.12 139.90Q152.23 139.90 153.10 140.36Q153.97 140.82 154.46 141.67Q154.96 142.52 154.96 143.69L154.96 143.69L154.96 143.91Q154.96 145.09 154.46 145.94Q153.97 146.79 153.10 147.25Q152.23 147.71 151.12 147.71ZM151.12 146.33L151.12 146.33Q152.14 146.33 152.77 145.68Q153.41 145.03 153.41 143.87L153.41 143.87L153.41 143.74Q153.41 142.58 152.78 141.93Q152.15 141.28 151.12 141.28L151.12 141.28Q150.11 141.28 149.47 141.93Q148.84 142.58 148.84 143.74L148.84 143.74L148.84 143.87Q148.84 145.03 149.47 145.68Q150.11 146.33 151.12 146.33Z M160.17 147.71L160.17 147.71Q159.38 147.71 158.75 147.44Q158.13 147.17 157.76 146.65Q157.40 146.12 157.40 145.37L157.40 145.37Q157.40 144.60 157.76 144.10Q158.13 143.60 158.77 143.34Q159.41 143.09 160.22 143.09L160.22 143.09L162.47 143.09L162.47 142.61Q162.47 141.97 162.08 141.57Q161.69 141.19 160.88 141.19L160.88 141.19Q160.08 141.19 159.66 141.56Q159.24 141.94 159.11 142.53L159.11 142.53L157.67 142.07Q157.85 141.47 158.24 140.98Q158.64 140.50 159.30 140.19Q159.96 139.90 160.89 139.90L160.89 139.90Q162.33 139.90 163.16 140.63Q163.98 141.37 163.98 142.72L163.98 142.72L163.98 145.76Q163.98 146.21 164.40 146.21L164.40 146.21L165.03 146.21L165.03 147.50L163.88 147.50Q163.35 147.50 163.02 147.23Q162.69 146.96 162.69 146.50L162.69 146.50L162.69 146.45L162.47 146.45Q162.35 146.68 162.11 146.97Q161.87 147.28 161.40 147.49Q160.94 147.71 160.17 147.71ZM160.40 146.44L160.40 146.44Q161.33 146.44 161.90 145.90Q162.47 145.37 162.47 144.44L162.47 144.44L162.47 144.29L160.31 144.29Q159.69 144.29 159.32 144.55Q158.94 144.81 158.94 145.32L158.94 145.32Q158.94 145.84 159.33 146.13Q159.72 146.44 160.40 146.44Z M169.08 147.50L167.53 147.50L167.53 140.10L169.05 140.10L169.05 140.97L169.29 140.97Q169.50 140.59 169.96 140.28Q170.43 139.99 171.22 139.99L171.22 139.99Q172.05 139.99 172.55 140.32Q173.05 140.66 173.31 141.19L173.31 141.19L173.55 141.19Q173.80 140.68 174.29 140.33Q174.78 139.99 175.68 139.99L175.68 139.99Q176.40 139.99 176.95 140.28Q177.51 140.57 177.84 141.15Q178.17 141.72 178.17 142.58L178.17 142.58L178.17 147.50L176.62 147.50L176.62 142.70Q176.62 142.03 176.25 141.66Q175.89 141.29 175.21 141.29L175.21 141.29Q174.49 141.29 174.06 141.75Q173.62 142.22 173.62 143.09L173.62 143.09L173.62 147.50L172.08 147.50L172.08 142.70Q172.08 142.03 171.71 141.66Q171.34 141.29 170.67 141.29L170.67 141.29Q169.95 141.29 169.51 141.75Q169.08 142.22 169.08 143.09L169.08 143.09L169.08 147.50Z" fill="#f1ece2" fill-opacity="0.7"></path><svg x="-17.50" y="144.99" width="258.46" height="132.82" viewBox="0 0 360 185" overflow="visible"><g fill="#f1ece2"><g transform="translate(64.98,0)"><path d="M22.88 133.59 L22.88 133.59 Q21.33 133.16 20.38 132.82 L20.38 132.82 L19.44 132.56 Q19.61 132.13 19.31 131.78 Q19.01 131.44 18.06 131.35 L18.06 131.35 Q16.77 130.49 15.39 128.95 Q14.02 127.40 12.99 125.76 Q11.95 124.13 11.61 123.36 L11.61 123.36 Q11.18 122.32 11.44 121.98 L11.44 121.98 Q11.52 121.81 11.70 121.72 L11.70 121.72 Q12.38 121.46 13.33 121.03 L13.33 121.03 Q14.28 120.35 15.35 120.00 Q16.43 119.66 17.11 121.12 L17.11 121.12 Q18.23 123.10 20.60 124.47 Q22.96 125.85 26.02 126.11 Q29.07 126.37 32.16 125.08 L32.16 125.08 Q34.23 124.13 34.40 122.45 Q34.57 120.78 33.11 118.54 L33.11 118.54 Q32.85 117.85 32.38 117.42 Q31.91 116.99 31.00 116.30 Q30.10 115.62 28.47 114.07 L28.47 114.07 Q27.18 113.47 26.10 112.95 Q25.03 112.43 23.82 111.83 L23.82 111.83 Q22.45 111.14 20.73 109.90 Q19.01 108.65 17.54 107.14 Q16.08 105.64 15.31 104.26 L15.31 104.26 Q13.93 102.97 13.59 100.69 Q13.24 98.42 13.72 95.84 Q14.19 93.26 15.31 91.19 L15.31 91.19 Q15.82 89.99 17.20 88.05 Q18.58 86.12 20.30 84.05 Q22.02 81.99 23.61 80.31 Q25.20 78.64 26.14 78.03 L26.14 78.03 Q26.83 77.35 27.61 76.57 L27.61 76.57 L28.38 75.88 Q28.47 75.45 28.72 75.45 L28.72 75.45 L28.90 75.45 Q29.33 75.20 30.79 74.59 Q32.25 73.99 33.97 72.36 L33.97 72.36 Q39.73 69.61 43.77 68.62 Q47.82 67.63 50.14 67.63 L50.14 67.63 Q52.29 67.71 54.35 68.79 Q56.42 69.86 57.92 71.50 Q59.43 73.13 59.68 75.20 L59.68 75.20 Q60.29 77.26 59.13 80.14 Q57.96 83.02 55.94 85.56 Q53.92 88.10 51.77 89.30 L51.77 89.30 Q49.36 90.33 47.69 89.56 Q46.01 88.78 46.10 87.15 L46.10 87.15 Q46.10 86.46 46.57 85.52 Q47.04 84.57 49.19 82.16 L49.19 82.16 Q51.94 78.12 52.12 76.40 Q52.29 74.68 50.57 74.42 L50.57 74.42 Q50.05 74.25 48.59 74.51 Q47.13 74.77 45.45 75.15 Q43.77 75.54 42.53 75.97 Q41.28 76.40 41.28 76.57 L41.28 76.57 L41.28 76.83 Q41.28 76.92 41.19 77.00 L41.19 77.00 Q41.19 77.09 40.94 77.00 L40.94 77.00 Q40.76 77.00 39.78 77.56 Q38.79 78.12 37.41 78.98 Q36.03 79.84 34.70 80.74 Q33.37 81.65 32.42 82.33 Q31.48 83.02 31.39 83.19 L31.39 83.19 Q31.22 84.14 29.41 84.91 L29.41 84.91 Q27.69 85.95 26.40 87.84 Q25.11 89.73 23.39 92.65 L23.39 92.65 Q21.93 94.63 21.33 96.91 Q20.73 99.19 21.33 100.57 L21.33 100.57 Q21.76 101.94 23.69 103.28 Q25.63 104.61 28.98 106.59 L28.98 106.59 Q31.91 108.22 34.49 110.03 Q37.07 111.83 38.87 113.51 Q40.68 115.19 41.19 116.30 L41.19 116.30 Q42.23 117.77 42.44 119.66 Q42.66 121.55 42.44 123.31 Q42.23 125.08 41.88 126.19 L41.88 126.19 Q41.28 127.57 40.03 129.12 Q38.79 130.67 37.75 130.58 L37.75 130.58 Q36.81 130.84 36.34 131.18 Q35.86 131.53 35.26 131.78 L35.26 131.78 Q34.66 132.13 32.42 132.60 Q30.19 133.07 27.52 133.38 Q24.85 133.68 22.88 133.59 Z M67.77 126.28 L67.77 126.28 Q65.19 127.74 62.31 127.96 Q59.43 128.17 56.93 127.18 Q54.44 126.19 52.89 124.22 L52.89 124.22 Q52.03 123.10 51.26 120.65 Q50.48 118.20 51.00 113.98 L51.00 113.98 Q51.51 110.03 53.45 105.98 Q55.38 101.94 58.22 98.85 Q61.06 95.75 64.41 94.63 L64.41 94.63 Q65.62 94.20 66.86 93.99 Q68.11 93.77 70.18 93.94 L70.18 93.94 Q72.15 94.20 73.70 94.93 Q75.25 95.66 75.94 96.52 L75.94 96.52 Q77.31 97.90 77.74 99.19 Q78.17 100.48 78.09 101.68 L78.09 101.68 Q77.66 104.44 75.64 107.62 Q73.62 110.80 70.00 112.35 L70.00 112.35 Q68.54 112.95 66.56 113.12 Q64.59 113.29 61.15 112.61 L61.15 112.61 Q59.08 112.18 58.44 113.04 Q57.79 113.90 57.88 116.39 L57.88 116.39 Q58.05 117.94 58.61 119.10 Q59.17 120.26 60.72 120.69 L60.72 120.69 Q62.69 121.03 63.55 120.73 Q64.41 120.43 65.70 119.83 L65.70 119.83 Q66.39 119.40 67.08 118.88 L67.08 118.88 L68.37 117.85 Q68.97 117.34 69.40 117.08 L69.40 117.08 Q69.83 116.73 70.26 116.65 Q70.69 116.56 71.12 116.56 L71.12 116.56 Q72.07 116.65 72.93 117.59 Q73.79 118.54 74.05 119.40 L74.05 119.40 Q74.05 120.09 73.19 121.33 Q72.33 122.58 70.91 123.92 Q69.49 125.25 67.77 126.28 Z M66.65 107.10 L66.65 107.10 Q67.25 106.84 68.41 105.90 Q69.57 104.95 70.52 103.88 Q71.47 102.80 71.47 102.20 L71.47 102.20 Q71.47 101.25 70.22 100.57 Q68.97 99.88 66.99 100.31 L66.99 100.31 Q66.31 100.48 65.36 101.25 Q64.41 102.03 63.47 103.02 Q62.52 104.01 61.83 104.91 Q61.15 105.81 60.89 106.33 L60.89 106.33 Q61.23 106.76 62.26 107.02 Q63.30 107.27 64.54 107.27 Q65.79 107.27 66.65 107.10 Z M96.49 126.28 L96.49 126.28 Q93.91 127.74 91.03 127.96 Q88.15 128.17 85.66 127.18 Q83.16 126.19 81.61 124.22 L81.61 124.22 Q80.75 123.10 79.98 120.65 Q79.21 118.20 79.72 113.98 L79.72 113.98 Q80.24 110.03 82.17 105.98 Q84.11 101.94 86.95 98.85 Q89.78 95.75 93.14 94.63 L93.14 94.63 Q94.34 94.20 95.59 93.99 Q96.84 93.77 98.90 93.94 L98.90 93.94 Q100.88 94.20 102.43 94.93 Q103.97 95.66 104.66 96.52 L104.66 96.52 Q106.04 97.90 106.47 99.19 Q106.90 100.48 106.81 101.68 L106.81 101.68 Q106.38 104.44 104.36 107.62 Q102.34 110.80 98.73 112.35 L98.73 112.35 Q97.27 112.95 95.29 113.12 Q93.31 113.29 89.87 112.61 L89.87 112.61 Q87.81 112.18 87.16 113.04 Q86.52 113.90 86.60 116.39 L86.60 116.39 Q86.77 117.94 87.33 119.10 Q87.89 120.26 89.44 120.69 L89.44 120.69 Q91.42 121.03 92.28 120.73 Q93.14 120.43 94.43 119.83 L94.43 119.83 Q95.12 119.40 95.80 118.88 L95.80 118.88 L97.09 117.85 Q97.70 117.34 98.13 117.08 L98.13 117.08 Q98.56 116.73 98.99 116.65 Q99.42 116.56 99.85 116.56 L99.85 116.56 Q100.79 116.65 101.65 117.59 Q102.51 118.54 102.77 119.40 L102.77 119.40 Q102.77 120.09 101.91 121.33 Q101.05 122.58 99.63 123.92 Q98.21 125.25 96.49 126.28 Z M95.37 107.10 L95.37 107.10 Q95.98 106.84 97.14 105.90 Q98.30 104.95 99.24 103.88 Q100.19 102.80 100.19 102.20 L100.19 102.20 Q100.19 101.25 98.94 100.57 Q97.70 99.88 95.72 100.31 L95.72 100.31 Q95.03 100.48 94.08 101.25 Q93.14 102.03 92.19 103.02 Q91.25 104.01 90.56 104.91 Q89.87 105.81 89.61 106.33 L89.61 106.33 Q89.96 106.76 90.99 107.02 Q92.02 107.27 93.27 107.27 Q94.51 107.27 95.37 107.10 Z M118.42 145.20 L118.42 145.20 Q116.01 146.15 113.39 144.90 Q110.77 143.65 108.88 140.99 L108.88 140.99 Q108.53 140.47 107.84 139.14 Q107.16 137.80 106.51 136.26 Q105.87 134.71 105.56 133.59 Q105.26 132.47 105.52 132.30 L105.52 132.30 Q105.87 131.35 107.07 131.18 Q108.27 131.01 109.48 131.31 Q110.68 131.61 110.85 132.13 L110.85 132.13 Q111.11 132.73 111.37 133.38 Q111.63 134.02 112.01 134.58 Q112.40 135.14 112.75 135.57 L112.75 135.57 Q113.69 137.03 114.81 137.59 Q115.93 138.15 116.53 137.72 L116.53 137.72 Q117.99 136.60 118.72 135.09 Q119.45 133.59 120.66 129.81 L120.66 129.81 Q121.60 126.62 122.29 124.30 Q122.98 121.98 123.75 120.00 L123.75 120.00 Q124.01 118.97 124.44 118.20 L124.44 118.20 Q124.53 118.02 124.61 117.85 L124.61 117.85 Q123.41 118.71 122.46 119.57 L122.46 119.57 Q121.17 120.78 118.94 121.72 L118.94 121.72 Q118.42 122.32 116.40 122.45 Q114.38 122.58 112.49 121.98 L112.49 121.98 Q111.28 121.29 110.55 120.56 Q109.82 119.83 109.35 118.88 Q108.88 117.94 108.36 116.65 L108.36 116.65 Q107.76 115.36 108.19 112.43 Q108.62 109.51 109.74 106.59 L109.74 106.59 Q110.77 104.44 112.75 101.94 Q114.72 99.45 116.96 97.43 Q119.20 95.41 121.00 94.89 L121.00 94.89 Q121.69 94.55 123.41 94.07 Q125.13 93.60 126.68 94.03 L126.68 94.03 Q128.14 94.20 128.91 94.67 Q129.69 95.15 131.41 96.61 L131.41 96.61 Q132.53 97.73 134.16 99.49 Q135.79 101.25 136.22 102.46 L136.22 102.46 Q136.83 103.75 136.48 105.25 Q136.14 106.76 135.28 107.88 L135.28 107.88 Q134.50 108.99 133.64 110.11 Q132.78 111.23 132.35 113.21 L132.35 113.21 Q131.92 115.79 130.72 119.01 Q129.52 122.24 128.83 124.99 L128.83 124.99 L127.45 130.32 Q125.30 137.63 122.72 140.94 Q120.14 144.25 118.42 145.20 Z M116.62 115.62 L116.62 115.62 Q118.34 115.53 119.58 115.23 Q120.83 114.93 121.95 113.85 Q123.07 112.78 124.53 110.54 L124.53 110.54 Q125.99 108.48 126.59 106.76 Q127.19 105.04 127.02 102.89 L127.02 102.89 Q126.94 101.51 126.25 101.08 Q125.56 100.65 124.44 100.82 L124.44 100.82 Q122.81 101.08 121.52 102.16 Q120.23 103.23 118.51 105.47 L118.51 105.47 Q117.22 107.19 116.36 109.60 L116.36 109.60 Q115.50 112.18 115.63 113.72 Q115.76 115.27 116.62 115.62 Z M143.88 138.41 L143.88 138.41 Q143.36 138.75 141.56 137.59 Q139.75 136.43 138.55 135.05 L138.55 135.05 Q137.94 134.36 137.77 133.59 Q137.60 132.82 137.86 130.67 L137.86 130.67 Q138.20 129.72 138.24 128.86 Q138.29 128.00 138.29 127.66 L138.29 127.66 Q138.29 127.14 138.59 125.25 Q138.89 123.36 139.23 121.25 Q139.58 119.14 139.84 118.02 L139.84 118.02 Q139.84 117.94 139.96 117.42 Q140.09 116.91 140.18 116.65 L140.18 116.65 Q140.35 115.87 140.61 114.76 Q140.87 113.64 141.13 111.75 L141.13 111.75 Q141.81 109.60 142.29 107.49 Q142.76 105.38 142.76 104.61 L142.76 104.61 Q142.76 103.06 143.96 102.37 L143.96 102.37 Q144.05 101.94 144.48 101.04 Q144.91 100.14 145.25 99.53 L145.25 99.53 Q146.97 94.63 148.09 91.71 Q149.21 88.78 150.41 86.63 L150.41 86.63 Q150.93 85.17 151.57 83.62 Q152.22 82.08 152.91 81.22 L152.91 81.22 Q153.51 80.01 155.01 78.25 Q156.52 76.49 158.24 74.85 Q159.96 73.22 160.99 72.44 L160.99 72.44 Q162.88 71.50 164.52 70.90 Q166.15 70.29 167.96 70.29 L167.96 70.29 Q169.59 70.29 170.84 71.03 Q172.09 71.76 174.58 73.99 L174.58 73.99 Q175.44 75.11 175.44 76.14 Q175.44 77.17 175.01 77.86 L175.01 77.86 Q174.41 79.24 173.20 81.26 Q172.00 83.28 170.88 84.87 Q169.76 86.46 169.25 86.55 L169.25 86.55 Q168.22 87.15 167.10 86.89 Q165.98 86.63 165.98 85.34 L165.98 85.34 Q165.98 84.74 166.07 84.23 L166.07 84.23 L166.07 83.71 Q166.32 82.59 166.71 81.73 Q167.10 80.87 167.44 80.27 L167.44 80.27 Q168.13 79.15 167.83 78.12 Q167.53 77.09 165.64 77.26 L165.64 77.26 Q165.38 77.43 164.65 78.08 Q163.92 78.72 163.10 79.54 Q162.28 80.36 161.68 81.09 Q161.08 81.82 161.08 82.08 L161.08 82.08 L160.65 82.94 Q160.13 83.88 159.19 85.00 L159.19 85.00 Q158.58 85.86 158.15 86.63 Q157.72 87.41 157.72 87.84 L157.72 87.84 Q157.72 88.18 157.64 88.44 Q157.55 88.70 157.21 88.70 L157.21 88.70 L156.95 89.56 Q156.61 90.42 155.92 91.62 L155.92 91.62 Q155.57 92.48 155.19 93.21 Q154.80 93.94 154.46 94.29 L154.46 94.29 L154.37 94.46 L154.03 95.41 Q153.60 96.44 153.17 97.47 Q152.74 98.50 152.74 98.67 L152.74 98.67 Q152.74 99.02 153.77 99.02 Q154.80 99.02 156.26 98.72 Q157.72 98.42 159.10 98.07 L159.10 98.07 Q160.30 97.73 160.82 97.73 Q161.34 97.73 162.45 98.07 L162.45 98.07 Q163.14 98.50 163.57 99.58 Q164.00 100.65 164.22 101.73 Q164.43 102.80 164.26 103.32 L164.26 103.32 Q164.17 103.66 162.32 104.26 Q160.48 104.87 158.67 105.21 L158.67 105.21 Q157.12 105.55 155.19 105.94 Q153.25 106.33 151.79 106.72 Q150.33 107.10 150.24 107.45 L150.24 107.45 Q149.90 107.45 149.68 107.88 Q149.47 108.31 149.47 108.65 L149.47 108.65 Q149.47 109.77 149.04 110.46 L149.04 110.46 Q148.87 110.97 148.48 112.56 Q148.09 114.15 147.70 116.00 Q147.32 117.85 147.02 119.44 Q146.72 121.03 146.72 121.55 L146.72 121.55 Q146.20 122.15 146.11 123.06 Q146.03 123.96 146.03 124.65 L146.03 124.65 Q145.68 125.33 145.60 125.89 Q145.51 126.45 145.51 126.80 L145.51 126.80 L145.51 127.14 Q145.51 127.40 145.43 127.66 L145.43 127.66 Q145.34 128.52 145.21 129.94 Q145.08 131.35 145.08 132.73 L145.08 132.73 L144.82 135.22 Q144.74 136.34 144.52 137.16 Q144.31 137.98 143.88 138.41 Z M186.02 127.83 L186.02 127.83 Q185.16 126.97 184.64 125.46 Q184.13 123.96 183.61 121.98 L183.61 121.98 Q183.44 121.29 183.48 120.43 Q183.52 119.57 183.44 119.06 L183.44 119.06 Q183.18 119.66 182.62 120.60 Q182.06 121.55 181.55 121.98 L181.55 121.98 Q181.20 122.32 180.00 123.31 Q178.79 124.30 177.59 124.90 L177.59 124.90 Q174.75 126.71 172.56 126.58 Q170.37 126.45 168.73 124.39 L168.73 124.39 Q167.36 123.27 166.50 121.55 Q165.64 119.83 166.15 117.42 L166.15 117.42 Q166.32 114.41 167.01 111.53 Q167.70 108.65 169.85 103.83 L169.85 103.83 Q171.66 100.31 172.60 98.33 Q173.55 96.35 173.81 96.01 L173.81 96.01 Q175.10 95.58 176.99 96.05 Q178.88 96.52 179.05 97.73 L179.05 97.73 Q179.57 98.59 179.05 100.95 Q178.54 103.32 176.99 106.33 L176.99 106.33 Q175.78 109.25 174.71 112.00 Q173.63 114.76 173.42 116.65 Q173.20 118.54 174.41 118.97 L174.41 118.97 Q175.18 119.40 176.69 118.88 Q178.19 118.37 180.26 115.79 Q182.32 113.21 184.64 107.62 L184.64 107.62 Q185.33 105.90 185.67 104.56 Q186.02 103.23 186.10 101.60 L186.10 101.60 Q185.93 100.57 186.66 99.45 Q187.39 98.33 188.43 97.73 L188.43 97.73 Q188.77 97.30 189.37 96.87 L189.37 96.87 Q189.80 96.61 189.97 96.78 L189.97 96.78 Q190.06 96.78 190.15 96.95 L190.15 96.95 L191.52 96.87 Q191.87 96.78 192.30 97.56 Q192.73 98.33 193.16 98.67 L193.16 98.67 Q194.10 99.45 194.02 102.03 Q193.93 104.61 191.95 109.25 L191.95 109.25 Q190.32 112.78 189.76 114.58 Q189.20 116.39 189.11 118.11 L189.11 118.11 Q189.11 119.66 189.37 120.73 Q189.63 121.81 190.92 122.93 L190.92 122.93 Q191.87 123.53 191.99 124.95 Q192.12 126.37 192.04 127.40 L192.04 127.40 Q191.87 128.17 190.70 128.47 Q189.54 128.77 188.21 128.60 Q186.88 128.43 186.02 127.83 Z M197.80 126.54 L197.80 126.54 Q197.11 125.85 196.81 124.47 Q196.51 123.10 196.60 121.77 Q196.68 120.43 197.03 119.74 L197.03 119.74 Q197.03 119.06 197.24 118.67 Q197.46 118.28 197.37 117.94 L197.37 117.94 Q197.28 117.59 197.54 116.73 Q197.80 115.87 198.06 115.10 L198.06 115.10 Q198.66 113.72 199.43 111.53 Q200.21 109.34 200.98 107.06 Q201.76 104.78 202.27 103.10 Q202.79 101.43 202.87 101.08 L202.87 101.08 Q202.87 100.05 204.25 99.96 L204.25 99.96 Q205.28 99.62 206.74 100.82 Q208.21 102.03 209.07 103.40 L209.07 103.40 Q209.75 104.09 209.58 105.21 Q209.41 106.33 208.46 108.39 L208.46 108.39 Q208.12 109.08 207.65 110.67 Q207.17 112.26 207.00 113.29 L207.00 113.29 Q206.66 113.98 206.18 115.23 Q205.71 116.48 205.37 117.59 L205.37 117.59 Q205.20 118.02 205.02 119.19 Q204.85 120.35 204.59 121.55 Q204.34 122.75 203.91 123.44 L203.91 123.44 Q203.13 126.97 201.20 127.57 Q199.26 128.17 197.80 126.54 Z " fill="#f1ece2"></path><defs><mask id="hm2" maskUnits="userSpaceOnUse"><path d="M0,3 C0,-3 -9,-6 -9,-13 C-9,-19 -2,-20 0,-14 C2,-20 9,-19 9,-13 C9,-6 0,-3 0,3 Z" fill="#fff"></path><path d="M-7.5,-8 q2.5,-3.4 5,0 t5,0 t5,0" fill="none" stroke="#000" stroke-width="2.1" stroke-linecap="round"></path></mask></defs><g transform="translate(210.40,95.23) rotate(12) scale(0.940)"><path d="M0,3 C0,-3 -9,-6 -9,-13 C-9,-19 -2,-20 0,-14 C2,-20 9,-19 9,-13 C9,-6 0,-3 0,3 Z" fill="#d23b34" mask="url(#hm2)"></path></g></g></g></svg><path d="M20.33 304.80L20.33 304.80Q19.05 304.80 18.06 304.34Q17.08 303.89 16.52 303.02Q15.96 302.16 15.96 300.91L15.96 300.91L15.96 300.50L17.86 300.50L17.86 300.91Q17.86 302.02 18.54 302.56Q19.21 303.10 20.33 303.10L20.33 303.10Q21.46 303.10 22.04 302.64Q22.62 302.18 22.62 301.44L22.62 301.44Q22.62 300.94 22.34 300.63Q22.07 300.32 21.55 300.13Q21.03 299.94 20.30 299.76L20.30 299.76L19.82 299.66Q18.71 299.41 17.90 299.02Q17.10 298.62 16.66 298Q16.23 297.38 16.23 296.37L16.23 296.37Q16.23 295.36 16.71 294.64Q17.19 293.92 18.07 293.54Q18.95 293.15 20.14 293.15L20.14 293.15Q21.32 293.15 22.25 293.55Q23.18 293.95 23.71 294.75Q24.25 295.55 24.25 296.75L24.25 296.75L24.25 297.28L22.34 297.28L22.34 296.75Q22.34 296.06 22.07 295.65Q21.80 295.23 21.30 295.04Q20.81 294.85 20.14 294.85L20.14 294.85Q19.14 294.85 18.63 295.23Q18.12 295.62 18.12 296.32L18.12 296.32Q18.12 296.77 18.35 297.08Q18.58 297.39 19.04 297.59Q19.50 297.79 20.18 297.94L20.18 297.94L20.66 298.05Q21.82 298.30 22.68 298.70Q23.54 299.09 24.03 299.73Q24.52 300.37 24.52 301.39L24.52 301.39Q24.52 302.40 24.00 303.17Q23.48 303.94 22.54 304.37Q21.61 304.80 20.33 304.80Z M39.76 304.58L37.84 304.58L37.84 295.12L34.50 295.12L34.50 293.38L43.10 293.38L43.10 295.12L39.76 295.12L39.76 304.58Z M54.81 304.58L52.82 304.58L55.90 293.38L59.24 293.38L62.31 304.58L60.33 304.58L59.66 302.02L55.48 302.02L54.81 304.58ZM57.43 294.58L55.93 300.26L59.21 300.26L57.70 294.58L57.43 294.58Z M74.67 304.58L72.74 304.58L72.74 293.38L77.52 293.38Q78.58 293.38 79.36 293.74Q80.14 294.11 80.58 294.78Q81.02 295.44 81.02 296.37L81.02 296.37L81.02 296.54Q81.02 297.58 80.53 298.21Q80.03 298.83 79.33 299.12L79.33 299.12L79.33 299.38Q79.95 299.41 80.31 299.81Q80.67 300.21 80.67 300.88L80.67 300.88L80.67 304.58L78.75 304.58L78.75 301.15Q78.75 300.75 78.54 300.50Q78.32 300.26 77.84 300.26L77.84 300.26L74.67 300.26L74.67 304.58ZM74.67 295.12L74.67 298.51L77.33 298.51Q78.16 298.51 78.63 298.07Q79.10 297.63 79.10 296.90L79.10 296.90L79.10 296.75Q79.10 296 78.64 295.56Q78.18 295.12 77.33 295.12L77.33 295.12L74.67 295.12Z M93.75 304.58L91.85 304.58L91.85 293.38L95.53 293.38L98.17 303.28L98.42 303.28L98.42 293.38L100.33 293.38L100.33 304.58L96.66 304.58L94.02 294.67L93.75 294.67L93.75 304.58Z M116.94 304.58L111.17 304.58L111.17 302.88L112.67 302.88L112.67 295.07L111.17 295.07L111.17 293.38L116.90 293.38Q117.90 293.38 118.66 293.72Q119.42 294.06 119.85 294.70Q120.27 295.33 120.27 296.21L120.27 296.21L120.27 296.35Q120.27 297.12 119.98 297.62Q119.70 298.11 119.30 298.38Q118.90 298.66 118.53 298.77L118.53 298.77L118.53 299.04Q118.90 299.14 119.32 299.40Q119.74 299.66 120.04 300.17Q120.34 300.67 120.34 301.47L120.34 301.47L120.34 301.63Q120.34 302.54 119.90 303.21Q119.46 303.87 118.70 304.22Q117.94 304.58 116.94 304.58L116.94 304.58ZM114.59 299.81L114.59 302.83L116.72 302.83Q117.49 302.83 117.94 302.46Q118.40 302.08 118.40 301.39L118.40 301.39L118.40 301.25Q118.40 300.56 117.95 300.18Q117.50 299.81 116.72 299.81L116.72 299.81L114.59 299.81ZM114.59 295.12L114.59 298.06L116.70 298.06Q117.44 298.06 117.90 297.70Q118.35 297.33 118.35 296.67L118.35 296.67L118.35 296.51Q118.35 295.86 117.90 295.49Q117.44 295.12 116.70 295.12L116.70 295.12L114.59 295.12Z M138.36 304.58L131.14 304.58L131.14 293.38L138.28 293.38L138.28 295.12L133.08 295.12L133.08 298.06L137.83 298.06L137.83 299.81L133.08 299.81L133.08 302.83L138.36 302.83L138.36 304.58Z M150.98 304.58L149.04 304.58L149.04 293.38L153.82 293.38Q154.88 293.38 155.66 293.74Q156.45 294.11 156.89 294.78Q157.33 295.44 157.33 296.37L157.33 296.37L157.33 296.54Q157.33 297.58 156.83 298.21Q156.34 298.83 155.63 299.12L155.63 299.12L155.63 299.38Q156.26 299.41 156.62 299.81Q156.98 300.21 156.98 300.88L156.98 300.88L156.98 304.58L155.06 304.58L155.06 301.15Q155.06 300.75 154.84 300.50Q154.62 300.26 154.14 300.26L154.14 300.26L150.98 300.26L150.98 304.58ZM150.98 295.12L150.98 298.51L153.63 298.51Q154.46 298.51 154.94 298.07Q155.41 297.63 155.41 296.90L155.41 296.90L155.41 296.75Q155.41 296 154.94 295.56Q154.48 295.12 153.63 295.12L153.63 295.12L150.98 295.12Z M172.04 304.80L172.04 304.80Q170.86 304.80 169.92 304.28Q168.98 303.76 168.43 302.76Q167.88 301.76 167.88 300.30L167.88 300.30L167.88 297.65Q167.88 295.47 169.10 294.31Q170.31 293.15 172.36 293.15L172.36 293.15Q174.41 293.15 175.51 294.25Q176.62 295.34 176.62 297.20L176.62 297.20L176.62 297.26L174.73 297.26L174.73 297.14Q174.73 296.50 174.47 295.98Q174.22 295.47 173.69 295.18Q173.16 294.88 172.36 294.88L172.36 294.88Q171.18 294.88 170.50 295.61Q169.82 296.34 169.82 297.62L169.82 297.62L169.82 300.34Q169.82 301.60 170.50 302.35Q171.18 303.10 172.39 303.10L172.39 303.10Q173.61 303.10 174.17 302.45Q174.73 301.79 174.73 300.77L174.73 300.77L174.73 300.58L171.90 300.58L171.90 298.94L176.62 298.94L176.62 304.58L174.86 304.58L174.86 303.47L174.58 303.47Q174.46 303.76 174.18 304.07Q173.91 304.38 173.41 304.59Q172.90 304.80 172.04 304.80Z M194.94 304.58L187.73 304.58L187.73 293.38L194.86 293.38L194.86 295.12L189.66 295.12L189.66 298.06L194.42 298.06L194.42 299.81L189.66 299.81L189.66 302.83L194.94 302.83L194.94 304.58Z M207.56 304.58L205.62 304.58L205.62 293.38L210.41 293.38Q211.46 293.38 212.25 293.74Q213.03 294.11 213.47 294.78Q213.91 295.44 213.91 296.37L213.91 296.37L213.91 296.54Q213.91 297.58 213.42 298.21Q212.92 298.83 212.22 299.12L212.22 299.12L212.22 299.38Q212.84 299.41 213.20 299.81Q213.56 300.21 213.56 300.88L213.56 300.88L213.56 304.58L211.64 304.58L211.64 301.15Q211.64 300.75 211.42 300.50Q211.21 300.26 210.73 300.26L210.73 300.26L207.56 300.26L207.56 304.58ZM207.56 295.12L207.56 298.51L210.22 298.51Q211.05 298.51 211.52 298.07Q211.99 297.63 211.99 296.90L211.99 296.90L211.99 296.75Q211.99 296 211.53 295.56Q211.06 295.12 210.22 295.12L210.22 295.12L207.56 295.12Z" fill="#74c2b4"></path><path d="M97.20 322.72L97.20 322.72Q95.92 322.72 94.94 322.26Q93.95 321.81 93.39 320.94Q92.83 320.08 92.83 318.83L92.83 318.83L92.83 318.42L94.74 318.42L94.74 318.83Q94.74 319.94 95.41 320.48Q96.08 321.02 97.20 321.02L97.20 321.02Q98.34 321.02 98.91 320.56Q99.49 320.10 99.49 319.36L99.49 319.36Q99.49 318.86 99.22 318.55Q98.94 318.24 98.42 318.05Q97.90 317.86 97.17 317.68L97.17 317.68L96.69 317.58Q95.58 317.33 94.78 316.94Q93.97 316.54 93.54 315.92Q93.10 315.30 93.10 314.29L93.10 314.29Q93.10 313.28 93.58 312.56Q94.06 311.84 94.94 311.46Q95.82 311.07 97.01 311.07L97.01 311.07Q98.19 311.07 99.12 311.47Q100.05 311.87 100.58 312.67Q101.12 313.47 101.12 314.67L101.12 314.67L101.12 315.20L99.22 315.20L99.22 314.67Q99.22 313.98 98.94 313.57Q98.67 313.15 98.18 312.96Q97.68 312.77 97.01 312.77L97.01 312.77Q96.02 312.77 95.50 313.15Q94.99 313.54 94.99 314.24L94.99 314.24Q94.99 314.69 95.22 315Q95.46 315.31 95.91 315.51Q96.37 315.71 97.06 315.86L97.06 315.86L97.54 315.97Q98.69 316.22 99.55 316.62Q100.42 317.01 100.90 317.65Q101.39 318.29 101.39 319.31L101.39 319.31Q101.39 320.32 100.87 321.09Q100.35 321.86 99.42 322.29Q98.48 322.72 97.20 322.72Z M119.29 322.50L112.07 322.50L112.07 311.30L119.21 311.30L119.21 313.04L114.01 313.04L114.01 315.98L118.76 315.98L118.76 317.73L114.01 317.73L114.01 320.75L119.29 320.75L119.29 322.50Z M137.18 322.50L129.97 322.50L129.97 311.30L137.10 311.30L137.10 313.04L131.90 313.04L131.90 315.98L136.66 315.98L136.66 317.73L131.90 317.73L131.90 320.75L137.18 320.75L137.18 322.50Z" fill="#74c2b4"></path><circle cx="155.0" cy="73.8" r="10" fill="#fff"></circle><circle cx="155.0" cy="73.8" r="10" fill="none" stroke="#74c2b4" stroke-width="2.4"></circle><circle cx="155.0" cy="73.8" r="4" fill="#74c2b4"></circle></svg>