<svg xmlns="http://www.w3.org/2000/svg" width="1380" height="2040" viewBox="0 0 230 340"><path d="M25.2,-72.2 L22.6,-75 L20.5,-75 L14.9,-72.5 L6.9,-51.7 L5,-48.1 L2.9,-46.5 L1,-41.4 L-0.9,-40 L-4.5,-32.7 L-4,-29.4 L-7.3,-27.5 L-7,-25.3 L-8.8,-21.6 L-11.1,-11.2 L-14.8,-7 L-14.8,-3.5 L-17.7,-2.1 L-17.1,-0.7 L-17.6,1 L-20.3,3 L-20.4,4.7 L-22.3,6.7 L-22.8,8.6 L-22,10.8 L-24.2,12.6 L-25.2,16 L-24.7,18.8 L-22,21.4 L-20.1,21 L-17.8,18.6 L-16.3,19 L-16.8,22.5 L-14.6,25.9 L-14.1,31.2 L-9.1,36.6 L-7.3,41.9 L-7.8,45.3 L-11.2,47.9 L-11.9,51.8 L-12.7,52.3 L-13,61.3 L-14,63.5 L-12.8,67 L-0.2,75 L6.5,74 L8,74.9 L10.3,73.9 L10.6,72.7 L11.5,73.2 L13,69.8 L11.7,66.1 L12.5,65.6 L12,63.7 L13.4,62 L13.6,59.1 L11,34.9 L9.7,32.1 L10.5,27.3 L10.2,17.4 L11.2,11.5 L10.7,0.7 L9.1,-9.1 L10,-17.5 L15.3,-32.9 L15.9,-38 L20,-52.1 L25.1,-59.7 L24.5,-68.4 Z M-9.2,-8 L-9.73,-6.16 L-11,-5.4 L-12.27,-6.16 L-12.8,-8 L-12.27,-9.84 L-11,-10.6 L-9.73,-9.84 Z" fill="none" stroke="#74c2b4" stroke-opacity="0.32" stroke-width="0.90" stroke-linejoin="round" stroke-linecap="round" transform="translate(115 178) scale(2.00000) translate(0.00 0.00)"></path><path d="M37.31 62.24L37.31 62.24Q34.56 62.24 32.45 61.25Q30.34 60.27 29.15 58.43Q27.96 56.60 27.96 54.01L27.96 54.01L27.96 53.06L32.38 53.06L32.38 54.01Q32.38 56.15 33.71 57.23Q35.03 58.30 37.31 58.30L37.31 58.30Q39.62 58.30 40.76 57.38Q41.90 56.46 41.90 55.03L41.90 55.03Q41.90 54.05 41.34 53.43Q40.78 52.82 39.71 52.43Q38.64 52.04 37.11 51.70L37.11 51.70L36.32 51.53Q33.88 50.99 32.12 50.15Q30.37 49.32 29.44 47.96Q28.50 46.60 28.50 44.42L28.50 44.42Q28.50 42.25 29.54 40.70Q30.58 39.15 32.46 38.32Q34.35 37.49 36.90 37.49L36.90 37.49Q39.45 37.49 41.44 38.36Q43.43 39.22 44.57 40.94Q45.71 42.66 45.71 45.24L45.71 45.24L45.71 46.26L41.29 46.26L41.29 45.24Q41.29 43.88 40.76 43.05Q40.23 42.21 39.25 41.82Q38.26 41.43 36.90 41.43L36.90 41.43Q34.86 41.43 33.89 42.20Q32.92 42.96 32.92 44.29L32.92 44.29Q32.92 45.17 33.38 45.78Q33.84 46.40 34.76 46.80Q35.68 47.21 37.11 47.52L37.11 47.52L37.89 47.69Q40.44 48.23 42.32 49.08Q44.21 49.93 45.27 51.33Q46.32 52.72 46.32 54.90L46.32 54.90Q46.32 57.07 45.21 58.72Q44.11 60.37 42.09 61.30Q40.06 62.24 37.31 62.24Z M57.47 62.24L57.47 62.24Q54.96 62.24 53.03 61.17Q51.11 60.10 50.04 58.14Q48.97 56.19 48.97 53.54L48.97 53.54L48.97 53.13Q48.97 50.48 50.03 48.52Q51.08 46.57 52.98 45.50Q54.89 44.42 57.40 44.42L57.40 44.42Q59.89 44.42 61.72 45.53Q63.56 46.63 64.58 48.59Q65.60 50.54 65.60 53.13L65.60 53.13L65.60 54.59L53.32 54.59Q53.39 56.32 54.62 57.41Q55.84 58.50 57.61 58.50L57.61 58.50Q59.41 58.50 60.26 57.72Q61.11 56.94 61.55 55.98L61.55 55.98L65.05 57.82Q64.58 58.70 63.68 59.74Q62.78 60.78 61.28 61.51Q59.78 62.24 57.47 62.24ZM53.36 51.39L53.36 51.39L61.25 51.39Q61.11 49.93 60.07 49.05Q59.04 48.16 57.37 48.16L57.37 48.16Q55.64 48.16 54.62 49.05Q53.60 49.93 53.36 51.39Z M77.09 62.24L77.09 62.24Q74.57 62.24 72.65 61.17Q70.73 60.10 69.66 58.14Q68.59 56.19 68.59 53.54L68.59 53.54L68.59 53.13Q68.59 50.48 69.64 48.52Q70.70 46.57 72.60 45.50Q74.51 44.42 77.02 44.42L77.02 44.42Q79.50 44.42 81.34 45.53Q83.18 46.63 84.20 48.59Q85.22 50.54 85.22 53.13L85.22 53.13L85.22 54.59L72.94 54.59Q73.01 56.32 74.23 57.41Q75.46 58.50 77.23 58.50L77.23 58.50Q79.03 58.50 79.88 57.72Q80.73 56.94 81.17 55.98L81.17 55.98L84.67 57.82Q84.20 58.70 83.29 59.74Q82.39 60.78 80.90 61.51Q79.40 62.24 77.09 62.24ZM72.98 51.39L72.98 51.39L80.86 51.39Q80.73 49.93 79.69 49.05Q78.65 48.16 76.99 48.16L76.99 48.16Q75.25 48.16 74.23 49.05Q73.21 49.93 72.98 51.39Z M96.03 62.24L96.03 62.24Q92.73 62.24 90.62 60.81Q88.51 59.38 88.07 56.73L88.07 56.73L92.02 55.71Q92.25 56.90 92.81 57.58Q93.38 58.26 94.21 58.55Q95.04 58.84 96.03 58.84L96.03 58.84Q97.52 58.84 98.24 58.31Q98.95 57.79 98.95 57.00L98.95 57.00Q98.95 56.22 98.27 55.80Q97.59 55.37 96.10 55.10L96.10 55.10L95.14 54.93Q93.38 54.59 91.91 54.00Q90.45 53.40 89.57 52.35Q88.68 51.29 88.68 49.63L88.68 49.63Q88.68 47.11 90.52 45.77Q92.36 44.42 95.35 44.42L95.35 44.42Q98.17 44.42 100.04 45.68Q101.91 46.94 102.49 48.98L102.49 48.98L98.51 50.20Q98.24 48.91 97.40 48.37Q96.57 47.82 95.35 47.82L95.35 47.82Q94.12 47.82 93.48 48.25Q92.83 48.67 92.83 49.42L92.83 49.42Q92.83 50.24 93.51 50.63Q94.19 51.02 95.35 51.22L95.35 51.22L96.30 51.39Q98.20 51.73 99.75 52.30Q101.30 52.86 102.20 53.89Q103.10 54.93 103.10 56.70L103.10 56.70Q103.10 59.35 101.18 60.80Q99.26 62.24 96.03 62.24Z M111.12 61.76L106.84 61.76L106.84 37.96L111.12 37.96L111.12 46.97L111.74 46.97Q112.01 46.43 112.59 45.89Q113.16 45.34 114.13 44.98Q115.10 44.63 116.60 44.63L116.60 44.63Q118.57 44.63 120.05 45.53Q121.53 46.43 122.34 48.01Q123.16 49.59 123.16 51.70L123.16 51.70L123.16 61.76L118.88 61.76L118.88 52.04Q118.88 50.14 117.94 49.18Q117.01 48.23 115.27 48.23L115.27 48.23Q113.30 48.23 112.21 49.54Q111.12 50.85 111.12 53.20L111.12 53.20L111.12 61.76Z M133.02 62.24L133.02 62.24Q131.22 62.24 129.79 61.61Q128.36 60.98 127.53 59.78Q126.70 58.57 126.70 56.83L126.70 56.83Q126.70 55.10 127.53 53.93Q128.36 52.75 129.84 52.16Q131.32 51.56 133.22 51.56L133.22 51.56L137.85 51.56L137.85 50.61Q137.85 49.42 137.10 48.66Q136.35 47.89 134.72 47.89L134.72 47.89Q133.12 47.89 132.34 48.62Q131.56 49.35 131.32 50.51L131.32 50.51L127.38 49.18Q127.78 47.89 128.68 46.82Q129.59 45.75 131.10 45.09Q132.61 44.42 134.79 44.42L134.79 44.42Q138.12 44.42 140.06 46.09Q142.00 47.76 142.00 50.92L142.00 50.92L142.00 57.21Q142.00 58.23 142.95 58.23L142.95 58.23L144.31 58.23L144.31 61.76L141.45 61.76Q140.19 61.76 139.38 61.15Q138.56 60.54 138.56 59.52L138.56 59.52L138.56 59.49L137.92 59.49Q137.78 59.89 137.30 60.56Q136.83 61.22 135.81 61.73Q134.79 62.24 133.02 62.24ZM133.77 58.77L133.77 58.77Q135.57 58.77 136.71 57.77Q137.85 56.77 137.85 55.10L137.85 55.10L137.85 54.76L133.53 54.76Q132.34 54.76 131.66 55.27Q130.98 55.78 130.98 56.70L130.98 56.70Q130.98 57.62 131.69 58.19Q132.41 58.77 133.77 58.77Z M153.86 62.04L153.86 62.04Q151.89 62.04 150.41 61.14Q148.93 60.23 148.12 58.64Q147.30 57.04 147.30 54.96L147.30 54.96L147.30 44.90L151.58 44.90L151.58 54.62Q151.58 56.53 152.52 57.48Q153.45 58.43 155.19 58.43L155.19 58.43Q157.16 58.43 158.25 57.12Q159.34 55.81 159.34 53.47L159.34 53.47L159.34 44.90L163.62 44.90L163.62 61.76L159.40 61.76L159.40 59.55L158.79 59.55Q158.38 60.40 157.26 61.22Q156.14 62.04 153.86 62.04Z M172.66 68.56L168.38 68.56L168.38 44.90L172.60 44.90L172.60 46.94L173.21 46.94Q173.79 45.95 175.01 45.19Q176.23 44.42 178.51 44.42L178.51 44.42Q180.55 44.42 182.29 45.43Q184.02 46.43 185.07 48.37Q186.13 50.31 186.13 53.06L186.13 53.06L186.13 53.60Q186.13 56.36 185.07 58.30Q184.02 60.23 182.29 61.24Q180.55 62.24 178.51 62.24L178.51 62.24Q176.98 62.24 175.94 61.88Q174.91 61.53 174.28 60.97Q173.65 60.40 173.28 59.83L173.28 59.83L172.66 59.83L172.66 68.56ZM177.22 58.50L177.22 58.50Q179.23 58.50 180.53 57.23Q181.84 55.95 181.84 53.50L181.84 53.50L181.84 53.16Q181.84 50.71 180.52 49.44Q179.19 48.16 177.22 48.16L177.22 48.16Q175.25 48.16 173.92 49.44Q172.60 50.71 172.60 53.16L172.60 53.16L172.60 53.50Q172.60 55.95 173.92 57.23Q175.25 58.50 177.22 58.50Z M201.29 61.76L196.53 61.76Q194.87 61.76 193.83 60.73Q192.79 59.69 192.79 57.96L192.79 57.96L192.79 48.44L188.58 48.44L188.58 44.90L192.79 44.90L192.79 39.66L197.08 39.66L197.08 44.90L201.70 44.90L201.70 48.44L197.08 48.44L197.08 57.21Q197.08 58.23 198.03 58.23L198.03 58.23L201.29 58.23L201.29 61.76Z" fill="#f1ece2"></path><path d="M62.03 83.92L62.03 83.92Q61.23 83.92 60.56 83.53Q59.88 83.14 59.47 82.41Q59.06 81.67 59.06 80.63L59.06 80.63L59.06 80.44Q59.06 79.41 59.46 78.67Q59.87 77.93 60.54 77.54Q61.22 77.15 62.03 77.15L62.03 77.15Q62.65 77.15 63.07 77.30Q63.49 77.46 63.77 77.70Q64.04 77.94 64.18 78.20L64.18 78.20L64.39 78.20L64.39 74.64L65.73 74.64L65.73 83.74L64.42 83.74L64.42 82.83L64.21 82.83Q63.96 83.24 63.46 83.58Q62.96 83.92 62.03 83.92ZM62.40 82.75L62.40 82.75Q63.27 82.75 63.84 82.19Q64.40 81.63 64.40 80.59L64.40 80.59L64.40 80.47Q64.40 79.45 63.85 78.89Q63.29 78.33 62.40 78.33L62.40 78.33Q61.54 78.33 60.98 78.89Q60.41 79.45 60.41 80.47L60.41 80.47L60.41 80.59Q60.41 81.63 60.98 82.19Q61.54 82.75 62.40 82.75Z M70.70 83.92L70.70 83.92Q70.01 83.92 69.47 83.69Q68.93 83.45 68.61 83.00Q68.29 82.54 68.29 81.89L68.29 81.89Q68.29 81.23 68.61 80.79Q68.93 80.36 69.48 80.14Q70.03 79.92 70.73 79.92L70.73 79.92L72.68 79.92L72.68 79.50Q72.68 78.94 72.35 78.60Q72.01 78.27 71.31 78.27L71.31 78.27Q70.62 78.27 70.25 78.59Q69.89 78.91 69.77 79.44L69.77 79.44L68.52 79.03Q68.68 78.51 69.02 78.09Q69.37 77.67 69.94 77.41Q70.51 77.15 71.32 77.15L71.32 77.15Q72.57 77.15 73.28 77.78Q74.00 78.42 74.00 79.59L74.00 79.59L74.00 82.23Q74.00 82.62 74.36 82.62L74.36 82.62L74.91 82.62L74.91 83.74L73.91 83.74Q73.45 83.74 73.17 83.50Q72.88 83.27 72.88 82.87L72.88 82.87L72.88 82.83L72.68 82.83Q72.58 83.02 72.37 83.28Q72.16 83.54 71.76 83.73Q71.36 83.92 70.70 83.92ZM70.89 82.81L70.89 82.81Q71.70 82.81 72.19 82.35Q72.68 81.89 72.68 81.09L72.68 81.09L72.68 80.96L70.81 80.96Q70.28 80.96 69.95 81.18Q69.63 81.41 69.63 81.85L69.63 81.85Q69.63 82.30 69.97 82.55Q70.31 82.81 70.89 82.81Z  M85.23 83.92L85.23 83.92Q84.29 83.92 83.79 83.58Q83.29 83.24 83.04 82.83L83.04 82.83L82.84 82.83L82.84 83.74L81.52 83.74L81.52 74.64L82.86 74.64L82.86 78.20L83.07 78.20Q83.23 77.94 83.49 77.70Q83.75 77.46 84.17 77.30Q84.60 77.15 85.23 77.15L85.23 77.15Q86.03 77.15 86.71 77.54Q87.39 77.93 87.79 78.67Q88.19 79.41 88.19 80.44L88.19 80.44L88.19 80.63Q88.19 81.67 87.78 82.41Q87.37 83.14 86.70 83.53Q86.03 83.92 85.23 83.92ZM84.84 82.75L84.84 82.75Q85.71 82.75 86.27 82.19Q86.84 81.63 86.84 80.59L86.84 80.59L86.84 80.47Q86.84 79.45 86.28 78.89Q85.72 78.33 84.84 78.33L84.84 78.33Q83.98 78.33 83.41 78.89Q82.85 79.45 82.85 80.47L82.85 80.47L82.85 80.59Q82.85 81.63 83.41 82.19Q83.98 82.75 84.84 82.75Z M92.19 83.74L90.86 83.74L90.86 77.33L92.19 77.33L92.19 83.74ZM91.53 76.46L91.53 76.46Q91.14 76.46 90.87 76.20Q90.61 75.95 90.61 75.55L90.61 75.55Q90.61 75.14 90.87 74.89Q91.14 74.64 91.53 74.64L91.53 74.64Q91.93 74.64 92.19 74.89Q92.45 75.14 92.45 75.55L92.45 75.55Q92.45 75.95 92.19 76.20Q91.93 76.46 91.53 76.46Z M96.52 83.74L95.18 83.74L95.18 77.33L96.50 77.33L96.50 78.29L96.70 78.29Q96.89 77.90 97.35 77.56Q97.82 77.22 98.75 77.22L98.75 77.22Q99.47 77.22 100.04 77.55Q100.60 77.88 100.93 78.47Q101.25 79.06 101.25 79.89L101.25 79.89L101.25 83.74L99.92 83.74L99.92 79.99Q99.92 79.16 99.50 78.77Q99.08 78.37 98.36 78.37L98.36 78.37Q97.52 78.37 97.02 78.91Q96.52 79.46 96.52 80.50L96.52 80.50L96.52 83.74Z  M109.83 83.74L108.49 83.74L108.49 77.33L109.83 77.33L109.83 83.74ZM109.17 76.46L109.17 76.46Q108.78 76.46 108.51 76.20Q108.25 75.95 108.25 75.55L108.25 75.55Q108.25 75.14 108.51 74.89Q108.78 74.64 109.17 74.64L109.17 74.64Q109.57 74.64 109.83 74.89Q110.09 75.14 110.09 75.55L110.09 75.55Q110.09 75.95 109.83 76.20Q109.57 76.46 109.17 76.46Z  M119.79 83.92L119.79 83.92Q119.00 83.92 118.32 83.53Q117.64 83.14 117.23 82.41Q116.82 81.67 116.82 80.63L116.82 80.63L116.82 80.44Q116.82 79.41 117.23 78.67Q117.63 77.93 118.31 77.54Q118.98 77.15 119.79 77.15L119.79 77.15Q120.41 77.15 120.83 77.30Q121.26 77.46 121.53 77.70Q121.80 77.94 121.95 78.20L121.95 78.20L122.15 78.20L122.15 74.64L123.49 74.64L123.49 83.74L122.18 83.74L122.18 82.83L121.97 82.83Q121.73 83.24 121.22 83.58Q120.72 83.92 119.79 83.92ZM120.17 82.75L120.17 82.75Q121.04 82.75 121.60 82.19Q122.17 81.63 122.17 80.59L122.17 80.59L122.17 80.47Q122.17 79.45 121.61 78.89Q121.05 78.33 120.17 78.33L120.17 78.33Q119.31 78.33 118.74 78.89Q118.18 79.45 118.18 80.47L118.18 80.47L118.18 80.59Q118.18 81.63 118.74 82.19Q119.31 82.75 120.17 82.75Z M128.46 83.92L128.46 83.92Q127.77 83.92 127.23 83.69Q126.69 83.45 126.37 83.00Q126.05 82.54 126.05 81.89L126.05 81.89Q126.05 81.23 126.37 80.79Q126.69 80.36 127.24 80.14Q127.80 79.92 128.50 79.92L128.50 79.92L130.45 79.92L130.45 79.50Q130.45 78.94 130.11 78.60Q129.77 78.27 129.07 78.27L129.07 78.27Q128.38 78.27 128.02 78.59Q127.65 78.91 127.54 79.44L127.54 79.44L126.29 79.03Q126.44 78.51 126.79 78.09Q127.13 77.67 127.70 77.41Q128.28 77.15 129.08 77.15L129.08 77.15Q130.33 77.15 131.05 77.78Q131.76 78.42 131.76 79.59L131.76 79.59L131.76 82.23Q131.76 82.62 132.12 82.62L132.12 82.62L132.67 82.62L132.67 83.74L131.67 83.74Q131.21 83.74 130.93 83.50Q130.64 83.27 130.64 82.87L130.64 82.87L130.64 82.83L130.45 82.83Q130.34 83.02 130.14 83.28Q129.93 83.54 129.52 83.73Q129.12 83.92 128.46 83.92ZM128.65 82.81L128.65 82.81Q129.46 82.81 129.95 82.35Q130.45 81.89 130.45 81.09L130.45 81.09L130.45 80.96L128.58 80.96Q128.04 80.96 127.72 81.18Q127.39 81.41 127.39 81.85L127.39 81.85Q127.39 82.30 127.73 82.55Q128.07 82.81 128.65 82.81Z M136.31 83.74L134.97 83.74L134.97 74.64L136.31 74.64L136.31 78.24L136.52 78.24Q136.65 77.99 136.89 77.76Q137.13 77.52 137.52 77.37Q137.92 77.22 138.53 77.22L138.53 77.22Q139.26 77.22 139.83 77.55Q140.39 77.88 140.72 78.47Q141.04 79.06 141.04 79.89L141.04 79.89L141.04 83.74L139.70 83.74L139.70 79.99Q139.70 79.16 139.29 78.77Q138.87 78.37 138.14 78.37L138.14 78.37Q137.31 78.37 136.81 78.91Q136.31 79.46 136.31 80.50L136.31 80.50L136.31 83.74Z M146.97 83.92L146.97 83.92Q146.01 83.92 145.26 83.52Q144.51 83.13 144.08 82.39Q143.65 81.64 143.65 80.63L143.65 80.63L143.65 80.44Q143.65 79.42 144.08 78.69Q144.51 77.95 145.26 77.55Q146.01 77.15 146.97 77.15L146.97 77.15Q147.93 77.15 148.68 77.55Q149.44 77.95 149.87 78.69Q150.30 79.42 150.30 80.44L150.30 80.44L150.30 80.63Q150.30 81.64 149.87 82.39Q149.44 83.13 148.68 83.52Q147.93 83.92 146.97 83.92ZM146.97 82.72L146.97 82.72Q147.85 82.72 148.41 82.16Q148.96 81.59 148.96 80.59L148.96 80.59L148.96 80.47Q148.96 79.47 148.41 78.91Q147.87 78.34 146.97 78.34L146.97 78.34Q146.10 78.34 145.54 78.91Q144.99 79.47 144.99 80.47L144.99 80.47L144.99 80.59Q144.99 81.59 145.54 82.16Q146.10 82.72 146.97 82.72Z M154.95 83.92L154.95 83.92Q154.26 83.92 153.72 83.69Q153.18 83.45 152.86 83.00Q152.54 82.54 152.54 81.89L152.54 81.89Q152.54 81.23 152.86 80.79Q153.18 80.36 153.73 80.14Q154.29 79.92 154.99 79.92L154.99 79.92L156.94 79.92L156.94 79.50Q156.94 78.94 156.60 78.60Q156.26 78.27 155.56 78.27L155.56 78.27Q154.87 78.27 154.51 78.59Q154.14 78.91 154.03 79.44L154.03 79.44L152.78 79.03Q152.93 78.51 153.28 78.09Q153.62 77.67 154.20 77.41Q154.77 77.15 155.57 77.15L155.57 77.15Q156.82 77.15 157.54 77.78Q158.25 78.42 158.25 79.59L158.25 79.59L158.25 82.23Q158.25 82.62 158.62 82.62L158.62 82.62L159.16 82.62L159.16 83.74L158.16 83.74Q157.71 83.74 157.42 83.50Q157.13 83.27 157.13 82.87L157.13 82.87L157.13 82.83L156.94 82.83Q156.83 83.02 156.63 83.28Q156.42 83.54 156.02 83.73Q155.61 83.92 154.95 83.92ZM155.14 82.81L155.14 82.81Q155.95 82.81 156.44 82.35Q156.94 81.89 156.94 81.09L156.94 81.09L156.94 80.96L155.07 80.96Q154.53 80.96 154.21 81.18Q153.88 81.41 153.88 81.85L153.88 81.85Q153.88 82.30 154.22 82.55Q154.56 82.81 155.14 82.81Z M162.80 83.74L161.46 83.74L161.46 77.33L162.77 77.33L162.77 78.08L162.98 78.08Q163.16 77.75 163.57 77.48Q163.97 77.22 164.66 77.22L164.66 77.22Q165.37 77.22 165.81 77.52Q166.25 77.81 166.47 78.27L166.47 78.27L166.67 78.27Q166.90 77.82 167.32 77.52Q167.74 77.22 168.52 77.22L168.52 77.22Q169.14 77.22 169.63 77.48Q170.11 77.73 170.39 78.23Q170.68 78.73 170.68 79.47L170.68 79.47L170.68 83.74L169.34 83.74L169.34 79.58Q169.34 78.99 169.02 78.67Q168.70 78.36 168.12 78.36L168.12 78.36Q167.49 78.36 167.12 78.76Q166.74 79.16 166.74 79.92L166.74 79.92L166.74 83.74L165.40 83.74L165.40 79.58Q165.40 78.99 165.08 78.67Q164.76 78.36 164.18 78.36L164.18 78.36Q163.55 78.36 163.18 78.76Q162.80 79.16 162.80 79.92L162.80 79.92L162.80 83.74Z" fill="#f1ece2" fill-opacity="0.7"></path><svg x="-17.50" y="114.50" width="258.46" height="132.82" viewBox="0 0 360 185" overflow="visible"><g fill="#f1ece2"><g transform="translate(64.98,0)"><path d="M22.88 133.59 L22.88 133.59 Q21.33 133.16 20.38 132.82 L20.38 132.82 L19.44 132.56 Q19.61 132.13 19.31 131.78 Q19.01 131.44 18.06 131.35 L18.06 131.35 Q16.77 130.49 15.39 128.95 Q14.02 127.40 12.99 125.76 Q11.95 124.13 11.61 123.36 L11.61 123.36 Q11.18 122.32 11.44 121.98 L11.44 121.98 Q11.52 121.81 11.70 121.72 L11.70 121.72 Q12.38 121.46 13.33 121.03 L13.33 121.03 Q14.28 120.35 15.35 120.00 Q16.43 119.66 17.11 121.12 L17.11 121.12 Q18.23 123.10 20.60 124.47 Q22.96 125.85 26.02 126.11 Q29.07 126.37 32.16 125.08 L32.16 125.08 Q34.23 124.13 34.40 122.45 Q34.57 120.78 33.11 118.54 L33.11 118.54 Q32.85 117.85 32.38 117.42 Q31.91 116.99 31.00 116.30 Q30.10 115.62 28.47 114.07 L28.47 114.07 Q27.18 113.47 26.10 112.95 Q25.03 112.43 23.82 111.83 L23.82 111.83 Q22.45 111.14 20.73 109.90 Q19.01 108.65 17.54 107.14 Q16.08 105.64 15.31 104.26 L15.31 104.26 Q13.93 102.97 13.59 100.69 Q13.24 98.42 13.72 95.84 Q14.19 93.26 15.31 91.19 L15.31 91.19 Q15.82 89.99 17.20 88.05 Q18.58 86.12 20.30 84.05 Q22.02 81.99 23.61 80.31 Q25.20 78.64 26.14 78.03 L26.14 78.03 Q26.83 77.35 27.61 76.57 L27.61 76.57 L28.38 75.88 Q28.47 75.45 28.72 75.45 L28.72 75.45 L28.90 75.45 Q29.33 75.20 30.79 74.59 Q32.25 73.99 33.97 72.36 L33.97 72.36 Q39.73 69.61 43.77 68.62 Q47.82 67.63 50.14 67.63 L50.14 67.63 Q52.29 67.71 54.35 68.79 Q56.42 69.86 57.92 71.50 Q59.43 73.13 59.68 75.20 L59.68 75.20 Q60.29 77.26 59.13 80.14 Q57.96 83.02 55.94 85.56 Q53.92 88.10 51.77 89.30 L51.77 89.30 Q49.36 90.33 47.69 89.56 Q46.01 88.78 46.10 87.15 L46.10 87.15 Q46.10 86.46 46.57 85.52 Q47.04 84.57 49.19 82.16 L49.19 82.16 Q51.94 78.12 52.12 76.40 Q52.29 74.68 50.57 74.42 L50.57 74.42 Q50.05 74.25 48.59 74.51 Q47.13 74.77 45.45 75.15 Q43.77 75.54 42.53 75.97 Q41.28 76.40 41.28 76.57 L41.28 76.57 L41.28 76.83 Q41.28 76.92 41.19 77.00 L41.19 77.00 Q41.19 77.09 40.94 77.00 L40.94 77.00 Q40.76 77.00 39.78 77.56 Q38.79 78.12 37.41 78.98 Q36.03 79.84 34.70 80.74 Q33.37 81.65 32.42 82.33 Q31.48 83.02 31.39 83.19 L31.39 83.19 Q31.22 84.14 29.41 84.91 L29.41 84.91 Q27.69 85.95 26.40 87.84 Q25.11 89.73 23.39 92.65 L23.39 92.65 Q21.93 94.63 21.33 96.91 Q20.73 99.19 21.33 100.57 L21.33 100.57 Q21.76 101.94 23.69 103.28 Q25.63 104.61 28.98 106.59 L28.98 106.59 Q31.91 108.22 34.49 110.03 Q37.07 111.83 38.87 113.51 Q40.68 115.19 41.19 116.30 L41.19 116.30 Q42.23 117.77 42.44 119.66 Q42.66 121.55 42.44 123.31 Q42.23 125.08 41.88 126.19 L41.88 126.19 Q41.28 127.57 40.03 129.12 Q38.79 130.67 37.75 130.58 L37.75 130.58 Q36.81 130.84 36.34 131.18 Q35.86 131.53 35.26 131.78 L35.26 131.78 Q34.66 132.13 32.42 132.60 Q30.19 133.07 27.52 133.38 Q24.85 133.68 22.88 133.59 Z M67.77 126.28 L67.77 126.28 Q65.19 127.74 62.31 127.96 Q59.43 128.17 56.93 127.18 Q54.44 126.19 52.89 124.22 L52.89 124.22 Q52.03 123.10 51.26 120.65 Q50.48 118.20 51.00 113.98 L51.00 113.98 Q51.51 110.03 53.45 105.98 Q55.38 101.94 58.22 98.85 Q61.06 95.75 64.41 94.63 L64.41 94.63 Q65.62 94.20 66.86 93.99 Q68.11 93.77 70.18 93.94 L70.18 93.94 Q72.15 94.20 73.70 94.93 Q75.25 95.66 75.94 96.52 L75.94 96.52 Q77.31 97.90 77.74 99.19 Q78.17 100.48 78.09 101.68 L78.09 101.68 Q77.66 104.44 75.64 107.62 Q73.62 110.80 70.00 112.35 L70.00 112.35 Q68.54 112.95 66.56 113.12 Q64.59 113.29 61.15 112.61 L61.15 112.61 Q59.08 112.18 58.44 113.04 Q57.79 113.90 57.88 116.39 L57.88 116.39 Q58.05 117.94 58.61 119.10 Q59.17 120.26 60.72 120.69 L60.72 120.69 Q62.69 121.03 63.55 120.73 Q64.41 120.43 65.70 119.83 L65.70 119.83 Q66.39 119.40 67.08 118.88 L67.08 118.88 L68.37 117.85 Q68.97 117.34 69.40 117.08 L69.40 117.08 Q69.83 116.73 70.26 116.65 Q70.69 116.56 71.12 116.56 L71.12 116.56 Q72.07 116.65 72.93 117.59 Q73.79 118.54 74.05 119.40 L74.05 119.40 Q74.05 120.09 73.19 121.33 Q72.33 122.58 70.91 123.92 Q69.49 125.25 67.77 126.28 Z M66.65 107.10 L66.65 107.10 Q67.25 106.84 68.41 105.90 Q69.57 104.95 70.52 103.88 Q71.47 102.80 71.47 102.20 L71.47 102.20 Q71.47 101.25 70.22 100.57 Q68.97 99.88 66.99 100.31 L66.99 100.31 Q66.31 100.48 65.36 101.25 Q64.41 102.03 63.47 103.02 Q62.52 104.01 61.83 104.91 Q61.15 105.81 60.89 106.33 L60.89 106.33 Q61.23 106.76 62.26 107.02 Q63.30 107.27 64.54 107.27 Q65.79 107.27 66.65 107.10 Z M96.49 126.28 L96.49 126.28 Q93.91 127.74 91.03 127.96 Q88.15 128.17 85.66 127.18 Q83.16 126.19 81.61 124.22 L81.61 124.22 Q80.75 123.10 79.98 120.65 Q79.21 118.20 79.72 113.98 L79.72 113.98 Q80.24 110.03 82.17 105.98 Q84.11 101.94 86.95 98.85 Q89.78 95.75 93.14 94.63 L93.14 94.63 Q94.34 94.20 95.59 93.99 Q96.84 93.77 98.90 93.94 L98.90 93.94 Q100.88 94.20 102.43 94.93 Q103.97 95.66 104.66 96.52 L104.66 96.52 Q106.04 97.90 106.47 99.19 Q106.90 100.48 106.81 101.68 L106.81 101.68 Q106.38 104.44 104.36 107.62 Q102.34 110.80 98.73 112.35 L98.73 112.35 Q97.27 112.95 95.29 113.12 Q93.31 113.29 89.87 112.61 L89.87 112.61 Q87.81 112.18 87.16 113.04 Q86.52 113.90 86.60 116.39 L86.60 116.39 Q86.77 117.94 87.33 119.10 Q87.89 120.26 89.44 120.69 L89.44 120.69 Q91.42 121.03 92.28 120.73 Q93.14 120.43 94.43 119.83 L94.43 119.83 Q95.12 119.40 95.80 118.88 L95.80 118.88 L97.09 117.85 Q97.70 117.34 98.13 117.08 L98.13 117.08 Q98.56 116.73 98.99 116.65 Q99.42 116.56 99.85 116.56 L99.85 116.56 Q100.79 116.65 101.65 117.59 Q102.51 118.54 102.77 119.40 L102.77 119.40 Q102.77 120.09 101.91 121.33 Q101.05 122.58 99.63 123.92 Q98.21 125.25 96.49 126.28 Z M95.37 107.10 L95.37 107.10 Q95.98 106.84 97.14 105.90 Q98.30 104.95 99.24 103.88 Q100.19 102.80 100.19 102.20 L100.19 102.20 Q100.19 101.25 98.94 100.57 Q97.70 99.88 95.72 100.31 L95.72 100.31 Q95.03 100.48 94.08 101.25 Q93.14 102.03 92.19 103.02 Q91.25 104.01 90.56 104.91 Q89.87 105.81 89.61 106.33 L89.61 106.33 Q89.96 106.76 90.99 107.02 Q92.02 107.27 93.27 107.27 Q94.51 107.27 95.37 107.10 Z M118.42 145.20 L118.42 145.20 Q116.01 146.15 113.39 144.90 Q110.77 143.65 108.88 140.99 L108.88 140.99 Q108.53 140.47 107.84 139.14 Q107.16 137.80 106.51 136.26 Q105.87 134.71 105.56 133.59 Q105.26 132.47 105.52 132.30 L105.52 132.30 Q105.87 131.35 107.07 131.18 Q108.27 131.01 109.48 131.31 Q110.68 131.61 110.85 132.13 L110.85 132.13 Q111.11 132.73 111.37 133.38 Q111.63 134.02 112.01 134.58 Q112.40 135.14 112.75 135.57 L112.75 135.57 Q113.69 137.03 114.81 137.59 Q115.93 138.15 116.53 137.72 L116.53 137.72 Q117.99 136.60 118.72 135.09 Q119.45 133.59 120.66 129.81 L120.66 129.81 Q121.60 126.62 122.29 124.30 Q122.98 121.98 123.75 120.00 L123.75 120.00 Q124.01 118.97 124.44 118.20 L124.44 118.20 Q124.53 118.02 124.61 117.85 L124.61 117.85 Q123.41 118.71 122.46 119.57 L122.46 119.57 Q121.17 120.78 118.94 121.72 L118.94 121.72 Q118.42 122.32 116.40 122.45 Q114.38 122.58 112.49 121.98 L112.49 121.98 Q111.28 121.29 110.55 120.56 Q109.82 119.83 109.35 118.88 Q108.88 117.94 108.36 116.65 L108.36 116.65 Q107.76 115.36 108.19 112.43 Q108.62 109.51 109.74 106.59 L109.74 106.59 Q110.77 104.44 112.75 101.94 Q114.72 99.45 116.96 97.43 Q119.20 95.41 121.00 94.89 L121.00 94.89 Q121.69 94.55 123.41 94.07 Q125.13 93.60 126.68 94.03 L126.68 94.03 Q128.14 94.20 128.91 94.67 Q129.69 95.15 131.41 96.61 L131.41 96.61 Q132.53 97.73 134.16 99.49 Q135.79 101.25 136.22 102.46 L136.22 102.46 Q136.83 103.75 136.48 105.25 Q136.14 106.76 135.28 107.88 L135.28 107.88 Q134.50 108.99 133.64 110.11 Q132.78 111.23 132.35 113.21 L132.35 113.21 Q131.92 115.79 130.72 119.01 Q129.52 122.24 128.83 124.99 L128.83 124.99 L127.45 130.32 Q125.30 137.63 122.72 140.94 Q120.14 144.25 118.42 145.20 Z M116.62 115.62 L116.62 115.62 Q118.34 115.53 119.58 115.23 Q120.83 114.93 121.95 113.85 Q123.07 112.78 124.53 110.54 L124.53 110.54 Q125.99 108.48 126.59 106.76 Q127.19 105.04 127.02 102.89 L127.02 102.89 Q126.94 101.51 126.25 101.08 Q125.56 100.65 124.44 100.82 L124.44 100.82 Q122.81 101.08 121.52 102.16 Q120.23 103.23 118.51 105.47 L118.51 105.47 Q117.22 107.19 116.36 109.60 L116.36 109.60 Q115.50 112.18 115.63 113.72 Q115.76 115.27 116.62 115.62 Z M143.88 138.41 L143.88 138.41 Q143.36 138.75 141.56 137.59 Q139.75 136.43 138.55 135.05 L138.55 135.05 Q137.94 134.36 137.77 133.59 Q137.60 132.82 137.86 130.67 L137.86 130.67 Q138.20 129.72 138.24 128.86 Q138.29 128.00 138.29 127.66 L138.29 127.66 Q138.29 127.14 138.59 125.25 Q138.89 123.36 139.23 121.25 Q139.58 119.14 139.84 118.02 L139.84 118.02 Q139.84 117.94 139.96 117.42 Q140.09 116.91 140.18 116.65 L140.18 116.65 Q140.35 115.87 140.61 114.76 Q140.87 113.64 141.13 111.75 L141.13 111.75 Q141.81 109.60 142.29 107.49 Q142.76 105.38 142.76 104.61 L142.76 104.61 Q142.76 103.06 143.96 102.37 L143.96 102.37 Q144.05 101.94 144.48 101.04 Q144.91 100.14 145.25 99.53 L145.25 99.53 Q146.97 94.63 148.09 91.71 Q149.21 88.78 150.41 86.63 L150.41 86.63 Q150.93 85.17 151.57 83.62 Q152.22 82.08 152.91 81.22 L152.91 81.22 Q153.51 80.01 155.01 78.25 Q156.52 76.49 158.24 74.85 Q159.96 73.22 160.99 72.44 L160.99 72.44 Q162.88 71.50 164.52 70.90 Q166.15 70.29 167.96 70.29 L167.96 70.29 Q169.59 70.29 170.84 71.03 Q172.09 71.76 174.58 73.99 L174.58 73.99 Q175.44 75.11 175.44 76.14 Q175.44 77.17 175.01 77.86 L175.01 77.86 Q174.41 79.24 173.20 81.26 Q172.00 83.28 170.88 84.87 Q169.76 86.46 169.25 86.55 L169.25 86.55 Q168.22 87.15 167.10 86.89 Q165.98 86.63 165.98 85.34 L165.98 85.34 Q165.98 84.74 166.07 84.23 L166.07 84.23 L166.07 83.71 Q166.32 82.59 166.71 81.73 Q167.10 80.87 167.44 80.27 L167.44 80.27 Q168.13 79.15 167.83 78.12 Q167.53 77.09 165.64 77.26 L165.64 77.26 Q165.38 77.43 164.65 78.08 Q163.92 78.72 163.10 79.54 Q162.28 80.36 161.68 81.09 Q161.08 81.82 161.08 82.08 L161.08 82.08 L160.65 82.94 Q160.13 83.88 159.19 85.00 L159.19 85.00 Q158.58 85.86 158.15 86.63 Q157.72 87.41 157.72 87.84 L157.72 87.84 Q157.72 88.18 157.64 88.44 Q157.55 88.70 157.21 88.70 L157.21 88.70 L156.95 89.56 Q156.61 90.42 155.92 91.62 L155.92 91.62 Q155.57 92.48 155.19 93.21 Q154.80 93.94 154.46 94.29 L154.46 94.29 L154.37 94.46 L154.03 95.41 Q153.60 96.44 153.17 97.47 Q152.74 98.50 152.74 98.67 L152.74 98.67 Q152.74 99.02 153.77 99.02 Q154.80 99.02 156.26 98.72 Q157.72 98.42 159.10 98.07 L159.10 98.07 Q160.30 97.73 160.82 97.73 Q161.34 97.73 162.45 98.07 L162.45 98.07 Q163.14 98.50 163.57 99.58 Q164.00 100.65 164.22 101.73 Q164.43 102.80 164.26 103.32 L164.26 103.32 Q164.17 103.66 162.32 104.26 Q160.48 104.87 158.67 105.21 L158.67 105.21 Q157.12 105.55 155.19 105.94 Q153.25 106.33 151.79 106.72 Q150.33 107.10 150.24 107.45 L150.24 107.45 Q149.90 107.45 149.68 107.88 Q149.47 108.31 149.47 108.65 L149.47 108.65 Q149.47 109.77 149.04 110.46 L149.04 110.46 Q148.87 110.97 148.48 112.56 Q148.09 114.15 147.70 116.00 Q147.32 117.85 147.02 119.44 Q146.72 121.03 146.72 121.55 L146.72 121.55 Q146.20 122.15 146.11 123.06 Q146.03 123.96 146.03 124.65 L146.03 124.65 Q145.68 125.33 145.60 125.89 Q145.51 126.45 145.51 126.80 L145.51 126.80 L145.51 127.14 Q145.51 127.40 145.43 127.66 L145.43 127.66 Q145.34 128.52 145.21 129.94 Q145.08 131.35 145.08 132.73 L145.08 132.73 L144.82 135.22 Q144.74 136.34 144.52 137.16 Q144.31 137.98 143.88 138.41 Z M186.02 127.83 L186.02 127.83 Q185.16 126.97 184.64 125.46 Q184.13 123.96 183.61 121.98 L183.61 121.98 Q183.44 121.29 183.48 120.43 Q183.52 119.57 183.44 119.06 L183.44 119.06 Q183.18 119.66 182.62 120.60 Q182.06 121.55 181.55 121.98 L181.55 121.98 Q181.20 122.32 180.00 123.31 Q178.79 124.30 177.59 124.90 L177.59 124.90 Q174.75 126.71 172.56 126.58 Q170.37 126.45 168.73 124.39 L168.73 124.39 Q167.36 123.27 166.50 121.55 Q165.64 119.83 166.15 117.42 L166.15 117.42 Q166.32 114.41 167.01 111.53 Q167.70 108.65 169.85 103.83 L169.85 103.83 Q171.66 100.31 172.60 98.33 Q173.55 96.35 173.81 96.01 L173.81 96.01 Q175.10 95.58 176.99 96.05 Q178.88 96.52 179.05 97.73 L179.05 97.73 Q179.57 98.59 179.05 100.95 Q178.54 103.32 176.99 106.33 L176.99 106.33 Q175.78 109.25 174.71 112.00 Q173.63 114.76 173.42 116.65 Q173.20 118.54 174.41 118.97 L174.41 118.97 Q175.18 119.40 176.69 118.88 Q178.19 118.37 180.26 115.79 Q182.32 113.21 184.64 107.62 L184.64 107.62 Q185.33 105.90 185.67 104.56 Q186.02 103.23 186.10 101.60 L186.10 101.60 Q185.93 100.57 186.66 99.45 Q187.39 98.33 188.43 97.73 L188.43 97.73 Q188.77 97.30 189.37 96.87 L189.37 96.87 Q189.80 96.61 189.97 96.78 L189.97 96.78 Q190.06 96.78 190.15 96.95 L190.15 96.95 L191.52 96.87 Q191.87 96.78 192.30 97.56 Q192.73 98.33 193.16 98.67 L193.16 98.67 Q194.10 99.45 194.02 102.03 Q193.93 104.61 191.95 109.25 L191.95 109.25 Q190.32 112.78 189.76 114.58 Q189.20 116.39 189.11 118.11 L189.11 118.11 Q189.11 119.66 189.37 120.73 Q189.63 121.81 190.92 122.93 L190.92 122.93 Q191.87 123.53 191.99 124.95 Q192.12 126.37 192.04 127.40 L192.04 127.40 Q191.87 128.17 190.70 128.47 Q189.54 128.77 188.21 128.60 Q186.88 128.43 186.02 127.83 Z M197.80 126.54 L197.80 126.54 Q197.11 125.85 196.81 124.47 Q196.51 123.10 196.60 121.77 Q196.68 120.43 197.03 119.74 L197.03 119.74 Q197.03 119.06 197.24 118.67 Q197.46 118.28 197.37 117.94 L197.37 117.94 Q197.28 117.59 197.54 116.73 Q197.80 115.87 198.06 115.10 L198.06 115.10 Q198.66 113.72 199.43 111.53 Q200.21 109.34 200.98 107.06 Q201.76 104.78 202.27 103.10 Q202.79 101.43 202.87 101.08 L202.87 101.08 Q202.87 100.05 204.25 99.96 L204.25 99.96 Q205.28 99.62 206.74 100.82 Q208.21 102.03 209.07 103.40 L209.07 103.40 Q209.75 104.09 209.58 105.21 Q209.41 106.33 208.46 108.39 L208.46 108.39 Q208.12 109.08 207.65 110.67 Q207.17 112.26 207.00 113.29 L207.00 113.29 Q206.66 113.98 206.18 115.23 Q205.71 116.48 205.37 117.59 L205.37 117.59 Q205.20 118.02 205.02 119.19 Q204.85 120.35 204.59 121.55 Q204.34 122.75 203.91 123.44 L203.91 123.44 Q203.13 126.97 201.20 127.57 Q199.26 128.17 197.80 126.54 Z " fill="#f1ece2"></path><defs><mask id="hm2" maskUnits="userSpaceOnUse"><path d="M0,3 C0,-3 -9,-6 -9,-13 C-9,-19 -2,-20 0,-14 C2,-20 9,-19 9,-13 C9,-6 0,-3 0,3 Z" fill="#fff"></path><path d="M-7.5,-8 q2.5,-3.4 5,0 t5,0 t5,0" fill="none" stroke="#000" stroke-width="2.1" stroke-linecap="round"></path></mask></defs><g transform="translate(210.40,95.23) rotate(12) scale(0.940)"><path d="M0,3 C0,-3 -9,-6 -9,-13 C-9,-19 -2,-20 0,-14 C2,-20 9,-19 9,-13 C9,-6 0,-3 0,3 Z" fill="#d23b34" mask="url(#hm2)"></path></g></g></g></svg><path d="M16.90 305L16.90 305Q15.94 305 15.20 304.66Q14.46 304.32 14.04 303.67Q13.62 303.02 13.62 302.08L13.62 302.08L13.62 301.77L15.05 301.77L15.05 302.08Q15.05 302.91 15.55 303.32Q16.06 303.73 16.90 303.73L16.90 303.73Q17.75 303.73 18.18 303.38Q18.61 303.03 18.61 302.48L18.61 302.48Q18.61 302.11 18.41 301.87Q18.20 301.64 17.81 301.50Q17.42 301.35 16.87 301.22L16.87 301.22L16.51 301.15Q15.68 300.96 15.08 300.66Q14.47 300.37 14.15 299.90Q13.82 299.43 13.82 298.68L13.82 298.68Q13.82 297.92 14.18 297.38Q14.54 296.84 15.20 296.55Q15.86 296.26 16.75 296.26L16.75 296.26Q17.64 296.26 18.34 296.56Q19.03 296.86 19.43 297.46Q19.84 298.06 19.84 298.96L19.84 298.96L19.84 299.36L18.41 299.36L18.41 298.96Q18.41 298.45 18.20 298.14Q18.00 297.82 17.63 297.68Q17.26 297.54 16.75 297.54L16.75 297.54Q16.01 297.54 15.62 297.82Q15.24 298.11 15.24 298.64L15.24 298.64Q15.24 298.98 15.41 299.21Q15.59 299.44 15.93 299.59Q16.27 299.74 16.79 299.85L16.79 299.85L17.15 299.94Q18.01 300.13 18.66 300.42Q19.31 300.72 19.67 301.20Q20.04 301.68 20.04 302.44L20.04 302.44Q20.04 303.20 19.65 303.78Q19.26 304.35 18.56 304.68Q17.86 305 16.90 305Z M31.72 304.83L30.28 304.83L30.28 297.74L27.77 297.74L27.77 296.43L34.23 296.43L34.23 297.74L31.72 297.74L31.72 304.83Z M43.26 304.83L41.77 304.83L44.07 296.43L46.58 296.43L48.88 304.83L47.40 304.83L46.89 302.91L43.76 302.91L43.26 304.83ZM45.22 297.33L44.10 301.59L46.56 301.59L45.43 297.33L45.22 297.33Z M58.40 304.83L56.95 304.83L56.95 296.43L60.54 296.43Q61.33 296.43 61.92 296.71Q62.51 296.98 62.84 297.48Q63.17 297.98 63.17 298.68L63.17 298.68L63.17 298.81Q63.17 299.59 62.80 300.06Q62.42 300.52 61.90 300.74L61.90 300.74L61.90 300.93Q62.36 300.96 62.63 301.26Q62.90 301.56 62.90 302.06L62.90 302.06L62.90 304.83L61.46 304.83L61.46 302.26Q61.46 301.96 61.30 301.78Q61.14 301.59 60.78 301.59L60.78 301.59L58.40 301.59L58.40 304.83ZM58.40 297.74L58.40 300.28L60.40 300.28Q61.02 300.28 61.37 299.95Q61.73 299.62 61.73 299.07L61.73 299.07L61.73 298.96Q61.73 298.40 61.38 298.07Q61.03 297.74 60.40 297.74L60.40 297.74L58.40 297.74Z M72.96 304.83L71.54 304.83L71.54 296.43L74.30 296.43L76.28 303.86L76.47 303.86L76.47 296.43L77.90 296.43L77.90 304.83L75.15 304.83L73.17 297.40L72.96 297.40L72.96 304.83Z M90.61 304.83L86.28 304.83L86.28 303.56L87.40 303.56L87.40 297.70L86.28 297.70L86.28 296.43L90.57 296.43Q91.33 296.43 91.90 296.69Q92.47 296.95 92.79 297.42Q93.10 297.90 93.10 298.56L93.10 298.56L93.10 298.66Q93.10 299.24 92.89 299.61Q92.67 299.98 92.37 300.19Q92.07 300.39 91.80 300.48L91.80 300.48L91.80 300.68Q92.07 300.75 92.39 300.95Q92.71 301.15 92.93 301.53Q93.15 301.90 93.15 302.50L93.15 302.50L93.15 302.62Q93.15 303.31 92.82 303.81Q92.49 304.30 91.92 304.57Q91.35 304.83 90.61 304.83L90.61 304.83ZM88.84 301.26L88.84 303.52L90.44 303.52Q91.02 303.52 91.36 303.24Q91.70 302.96 91.70 302.44L91.70 302.44L91.70 302.34Q91.70 301.82 91.36 301.54Q91.03 301.26 90.44 301.26L90.44 301.26L88.84 301.26ZM88.84 297.74L88.84 299.95L90.43 299.95Q90.98 299.95 91.32 299.67Q91.66 299.40 91.66 298.90L91.66 298.90L91.66 298.78Q91.66 298.29 91.32 298.02Q90.98 297.74 90.43 297.74L90.43 297.74L88.84 297.74Z M106.92 304.83L101.51 304.83L101.51 296.43L106.86 296.43L106.86 297.74L102.96 297.74L102.96 299.95L106.52 299.95L106.52 301.26L102.96 301.26L102.96 303.52L106.92 303.52L106.92 304.83Z M116.63 304.83L115.18 304.83L115.18 296.43L118.77 296.43Q119.56 296.43 120.15 296.71Q120.74 296.98 121.07 297.48Q121.40 297.98 121.40 298.68L121.40 298.68L121.40 298.81Q121.40 299.59 121.02 300.06Q120.65 300.52 120.12 300.74L120.12 300.74L120.12 300.93Q120.59 300.96 120.86 301.26Q121.13 301.56 121.13 302.06L121.13 302.06L121.13 304.83L119.69 304.83L119.69 302.26Q119.69 301.96 119.53 301.78Q119.37 301.59 119.01 301.59L119.01 301.59L116.63 301.59L116.63 304.83ZM116.63 297.74L116.63 300.28L118.62 300.28Q119.25 300.28 119.60 299.95Q119.96 299.62 119.96 299.07L119.96 299.07L119.96 298.96Q119.96 298.40 119.61 298.07Q119.26 297.74 118.62 297.74L118.62 297.74L116.63 297.74Z M132.68 305L132.68 305Q131.79 305 131.09 304.61Q130.39 304.22 129.97 303.47Q129.56 302.72 129.56 301.63L129.56 301.63L129.56 299.64Q129.56 298.00 130.47 297.13Q131.38 296.26 132.92 296.26L132.92 296.26Q134.46 296.26 135.28 297.09Q136.11 297.91 136.11 299.30L136.11 299.30L136.11 299.35L134.70 299.35L134.70 299.25Q134.70 298.77 134.50 298.39Q134.31 298.00 133.92 297.78Q133.52 297.56 132.92 297.56L132.92 297.56Q132.03 297.56 131.52 298.11Q131.01 298.65 131.01 299.61L131.01 299.61L131.01 301.65Q131.01 302.60 131.52 303.16Q132.03 303.73 132.94 303.73L132.94 303.73Q133.86 303.73 134.28 303.24Q134.70 302.74 134.70 301.98L134.70 301.98L134.70 301.83L132.57 301.83L132.57 300.61L136.11 300.61L136.11 304.83L134.79 304.83L134.79 304.00L134.59 304.00Q134.49 304.22 134.29 304.45Q134.08 304.69 133.71 304.84Q133.33 305 132.68 305Z M150.11 304.83L144.70 304.83L144.70 296.43L150.05 296.43L150.05 297.74L146.15 297.74L146.15 299.95L149.71 299.95L149.71 301.26L146.15 301.26L146.15 303.52L150.11 303.52L150.11 304.83Z M159.82 304.83L158.37 304.83L158.37 296.43L161.96 296.43Q162.75 296.43 163.34 296.71Q163.92 296.98 164.25 297.48Q164.58 297.98 164.58 298.68L164.58 298.68L164.58 298.81Q164.58 299.59 164.21 300.06Q163.84 300.52 163.31 300.74L163.31 300.74L163.31 300.93Q163.78 300.96 164.05 301.26Q164.32 301.56 164.32 302.06L164.32 302.06L164.32 304.83L162.88 304.83L162.88 302.26Q162.88 301.96 162.72 301.78Q162.56 301.59 162.20 301.59L162.20 301.59L159.82 301.59L159.82 304.83ZM159.82 297.74L159.82 300.28L161.81 300.28Q162.44 300.28 162.79 299.95Q163.14 299.62 163.14 299.07L163.14 299.07L163.14 298.96Q163.14 298.40 162.80 298.07Q162.45 297.74 161.81 297.74L161.81 297.74L159.82 297.74Z  M185.90 305L185.90 305Q184.94 305 184.21 304.66Q183.47 304.32 183.05 303.67Q182.63 303.02 182.63 302.08L182.63 302.08L182.63 301.77L184.06 301.77L184.06 302.08Q184.06 302.91 184.56 303.32Q185.06 303.73 185.90 303.73L185.90 303.73Q186.76 303.73 187.19 303.38Q187.62 303.03 187.62 302.48L187.62 302.48Q187.62 302.11 187.42 301.87Q187.21 301.64 186.82 301.50Q186.43 301.35 185.88 301.22L185.88 301.22L185.52 301.15Q184.69 300.96 184.09 300.66Q183.48 300.37 183.16 299.90Q182.83 299.43 182.83 298.68L182.83 298.68Q182.83 297.92 183.19 297.38Q183.55 296.84 184.21 296.55Q184.87 296.26 185.76 296.26L185.76 296.26Q186.65 296.26 187.34 296.56Q188.04 296.86 188.44 297.46Q188.84 298.06 188.84 298.96L188.84 298.96L188.84 299.36L187.42 299.36L187.42 298.96Q187.42 298.45 187.21 298.14Q187.01 297.82 186.64 297.68Q186.26 297.54 185.76 297.54L185.76 297.54Q185.02 297.54 184.63 297.82Q184.25 298.11 184.25 298.64L184.25 298.64Q184.25 298.98 184.42 299.21Q184.60 299.44 184.94 299.59Q185.28 299.74 185.80 299.85L185.80 299.85L186.16 299.94Q187.02 300.13 187.67 300.42Q188.32 300.72 188.68 301.20Q189.05 301.68 189.05 302.44L189.05 302.44Q189.05 303.20 188.66 303.78Q188.27 304.35 187.57 304.68Q186.86 305 185.90 305Z M202.72 304.83L197.31 304.83L197.31 296.43L202.66 296.43L202.66 297.74L198.76 297.74L198.76 299.95L202.32 299.95L202.32 301.26L198.76 301.26L198.76 303.52L202.72 303.52L202.72 304.83Z M216.39 304.83L210.98 304.83L210.98 296.43L216.33 296.43L216.33 297.74L212.43 297.74L212.43 299.95L216.00 299.95L216.00 301.26L212.43 301.26L212.43 303.52L216.39 303.52L216.39 304.83Z" fill="#74c2b4"></path><circle cx="114.6" cy="328.0" r="10" fill="#fff"></circle><circle cx="114.6" cy="328.0" r="10" fill="none" stroke="#74c2b4" stroke-width="2.4"></circle><circle cx="114.6" cy="328.0" r="4" fill="#74c2b4"></circle></svg>