<svg xmlns="http://www.w3.org/2000/svg" width="1380" height="2040" viewBox="0 0 230 340"><path d="M25.2,-72.2 L22.6,-75 L20.5,-75 L14.9,-72.5 L6.9,-51.7 L5,-48.1 L2.9,-46.5 L1,-41.4 L-0.9,-40 L-4.5,-32.7 L-4,-29.4 L-7.3,-27.5 L-7,-25.3 L-8.8,-21.6 L-11.1,-11.2 L-14.8,-7 L-14.8,-3.5 L-17.7,-2.1 L-17.1,-0.7 L-17.6,1 L-20.3,3 L-20.4,4.7 L-22.3,6.7 L-22.8,8.6 L-22,10.8 L-24.2,12.6 L-25.2,16 L-24.7,18.8 L-22,21.4 L-20.1,21 L-17.8,18.6 L-16.3,19 L-16.8,22.5 L-14.6,25.9 L-14.1,31.2 L-9.1,36.6 L-7.3,41.9 L-7.8,45.3 L-11.2,47.9 L-11.9,51.8 L-12.7,52.3 L-13,61.3 L-14,63.5 L-12.8,67 L-0.2,75 L6.5,74 L8,74.9 L10.3,73.9 L10.6,72.7 L11.5,73.2 L13,69.8 L11.7,66.1 L12.5,65.6 L12,63.7 L13.4,62 L13.6,59.1 L11,34.9 L9.7,32.1 L10.5,27.3 L10.2,17.4 L11.2,11.5 L10.7,0.7 L9.1,-9.1 L10,-17.5 L15.3,-32.9 L15.9,-38 L20,-52.1 L25.1,-59.7 L24.5,-68.4 Z M-9.2,-8 L-9.73,-6.16 L-11,-5.4 L-12.27,-6.16 L-12.8,-8 L-12.27,-9.84 L-11,-10.6 L-9.73,-9.84 Z" fill="none" stroke="#d8b66a" stroke-opacity="0.32" stroke-width="0.90" stroke-linejoin="round" stroke-linecap="round" transform="translate(115 178) scale(2.00000) translate(0.00 0.00)"></path><path d="M42.19 80.82L42.19 80.82Q39.43 80.82 37.33 79.83Q35.22 78.85 34.03 77.01Q32.84 75.18 32.84 72.59L32.84 72.59L32.84 71.64L37.26 71.64L37.26 72.59Q37.26 74.73 38.58 75.80Q39.91 76.88 42.19 76.88L42.19 76.88Q44.50 76.88 45.64 75.96Q46.78 75.04 46.78 73.61L46.78 73.61Q46.78 72.63 46.22 72.01Q45.66 71.40 44.59 71.01Q43.51 70.62 41.98 70.28L41.98 70.28L41.20 70.11Q38.75 69.57 37.00 68.73Q35.25 67.90 34.32 66.54Q33.38 65.18 33.38 63.00L33.38 63.00Q33.38 60.83 34.42 59.28Q35.46 57.73 37.34 56.90Q39.23 56.07 41.78 56.07L41.78 56.07Q44.33 56.07 46.32 56.93Q48.31 57.80 49.45 59.52Q50.59 61.24 50.59 63.82L50.59 63.82L50.59 64.84L46.17 64.84L46.17 63.82Q46.17 62.46 45.64 61.63Q45.11 60.79 44.13 60.40Q43.14 60.01 41.78 60.01L41.78 60.01Q39.74 60.01 38.77 60.78Q37.80 61.54 37.80 62.87L37.80 62.87Q37.80 63.75 38.26 64.36Q38.72 64.98 39.64 65.38Q40.56 65.79 41.98 66.10L41.98 66.10L42.77 66.27Q45.32 66.81 47.20 67.66Q49.09 68.51 50.14 69.91Q51.20 71.30 51.20 73.48L51.20 73.48Q51.20 75.65 50.09 77.30Q48.99 78.95 46.97 79.88Q44.94 80.82 42.19 80.82Z M65.89 80.34L61.13 80.34Q59.46 80.34 58.42 79.31Q57.39 78.27 57.39 76.54L57.39 76.54L57.39 67.02L53.17 67.02L53.17 63.48L57.39 63.48L57.39 58.24L61.67 58.24L61.67 63.48L66.29 63.48L66.29 67.02L61.67 67.02L61.67 75.79Q61.67 76.81 62.62 76.81L62.62 76.81L65.89 76.81L65.89 80.34Z M75.41 80.82L75.41 80.82Q73.60 80.82 72.18 80.19Q70.75 79.56 69.92 78.35Q69.08 77.15 69.08 75.41L69.08 75.41Q69.08 73.68 69.92 72.51Q70.75 71.33 72.23 70.74Q73.71 70.14 75.61 70.14L75.61 70.14L80.23 70.14L80.23 69.19Q80.23 68.00 79.49 67.24Q78.74 66.47 77.11 66.47L77.11 66.47Q75.51 66.47 74.73 67.20Q73.94 67.93 73.71 69.09L73.71 69.09L69.76 67.76Q70.17 66.47 71.07 65.40Q71.97 64.33 73.49 63.67Q75.00 63.00 77.17 63.00L77.17 63.00Q80.51 63.00 82.44 64.67Q84.38 66.34 84.38 69.50L84.38 69.50L84.38 75.79Q84.38 76.81 85.33 76.81L85.33 76.81L86.69 76.81L86.69 80.34L83.84 80.34Q82.58 80.34 81.77 79.73Q80.95 79.12 80.95 78.10L80.95 78.10L80.95 78.07L80.30 78.07Q80.17 78.47 79.69 79.14Q79.22 79.80 78.19 80.31Q77.17 80.82 75.41 80.82ZM76.16 77.35L76.16 77.35Q77.96 77.35 79.10 76.35Q80.23 75.35 80.23 73.68L80.23 73.68L80.23 73.34L75.92 73.34Q74.73 73.34 74.05 73.85Q73.37 74.36 73.37 75.28L73.37 75.28Q73.37 76.20 74.08 76.77Q74.80 77.35 76.16 77.35Z M94.11 80.34L89.82 80.34L89.82 63.48L94.04 63.48L94.04 65.38L94.65 65.38Q95.03 64.36 95.89 63.89Q96.76 63.41 97.91 63.41L97.91 63.41L99.95 63.41L99.95 67.22L97.85 67.22Q96.22 67.22 95.16 68.09Q94.11 68.95 94.11 70.76L94.11 70.76L94.11 80.34Z M107.57 80.34L103.29 80.34L103.29 63.48L107.50 63.48L107.50 65.69L108.11 65.69Q108.52 64.81 109.64 64.01Q110.77 63.21 113.05 63.21L113.05 63.21Q115.02 63.21 116.50 64.11Q117.97 65.01 118.79 66.59Q119.61 68.17 119.61 70.28L119.61 70.28L119.61 80.34L115.32 80.34L115.32 70.62Q115.32 68.72 114.39 67.76Q113.45 66.81 111.72 66.81L111.72 66.81Q109.75 66.81 108.66 68.12Q107.57 69.43 107.57 71.78L107.57 71.78L107.57 80.34Z M134.36 80.82L134.36 80.82Q132.09 80.82 130.86 80.04Q129.64 79.26 129.06 78.30L129.06 78.30L128.45 78.30L128.45 80.34L124.23 80.34L124.23 56.54L128.51 56.54L128.51 65.42L129.13 65.42Q129.50 64.81 130.13 64.26Q130.76 63.72 131.80 63.36Q132.83 63.00 134.36 63.00L134.36 63.00Q136.40 63.00 138.14 64.01Q139.87 65.01 140.93 66.95Q141.98 68.89 141.98 71.64L141.98 71.64L141.98 72.18Q141.98 74.94 140.93 76.88Q139.87 78.81 138.14 79.82Q136.40 80.82 134.36 80.82ZM133.07 77.08L133.07 77.08Q135.04 77.08 136.37 75.80Q137.69 74.53 137.69 72.08L137.69 72.08L137.69 71.74Q137.69 69.29 136.39 68.02Q135.08 66.74 133.07 66.74L133.07 66.74Q131.10 66.74 129.77 68.02Q128.45 69.29 128.45 71.74L128.45 71.74L128.45 72.08Q128.45 74.53 129.77 75.80Q131.10 77.08 133.07 77.08Z M153.61 80.82L153.61 80.82Q151.09 80.82 149.17 79.75Q147.25 78.68 146.18 76.72Q145.11 74.77 145.11 72.12L145.11 72.12L145.11 71.71Q145.11 69.06 146.16 67.10Q147.22 65.15 149.12 64.07Q151.02 63.00 153.54 63.00L153.54 63.00Q156.02 63.00 157.86 64.11Q159.69 65.21 160.71 67.17Q161.73 69.12 161.73 71.71L161.73 71.71L161.73 73.17L149.46 73.17Q149.53 74.90 150.75 75.99Q151.97 77.08 153.74 77.08L153.74 77.08Q155.55 77.08 156.40 76.30Q157.25 75.52 157.69 74.56L157.69 74.56L161.19 76.40Q160.71 77.28 159.81 78.32Q158.91 79.36 157.42 80.09Q155.92 80.82 153.61 80.82ZM149.49 69.97L149.49 69.97L157.38 69.97Q157.25 68.51 156.21 67.63Q155.17 66.74 153.50 66.74L153.50 66.74Q151.77 66.74 150.75 67.63Q149.73 68.51 149.49 69.97Z M169.82 80.34L165.54 80.34L165.54 63.48L169.76 63.48L169.76 65.38L170.37 65.38Q170.74 64.36 171.61 63.89Q172.48 63.41 173.63 63.41L173.63 63.41L175.67 63.41L175.67 67.22L173.56 67.22Q171.93 67.22 170.88 68.09Q169.82 68.95 169.82 70.76L169.82 70.76L169.82 80.34Z M178.19 71.98L178.19 71.98L178.19 71.44Q178.19 68.78 179.24 66.90Q180.30 65.01 182.05 64.01Q183.80 63.00 185.87 63.00L185.87 63.00Q188.19 63.00 189.38 63.82Q190.56 64.64 191.11 65.52L191.11 65.52L191.72 65.52L191.72 63.48L195.94 63.48L195.94 83.34Q195.94 85.07 194.92 86.11Q193.90 87.14 192.20 87.14L192.20 87.14L180.91 87.14L180.91 83.40L190.70 83.40Q191.65 83.40 191.65 82.38L191.65 82.38L191.65 78.00L191.04 78.00Q190.70 78.54 190.09 79.10Q189.48 79.66 188.46 80.04Q187.44 80.41 185.87 80.41L185.87 80.41Q183.80 80.41 182.05 79.41Q180.30 78.41 179.24 76.52Q178.19 74.63 178.19 71.98ZM187.10 76.67L187.10 76.67Q189.07 76.67 190.40 75.41Q191.72 74.16 191.72 71.88L191.72 71.88L191.72 71.54Q191.72 69.23 190.41 67.98Q189.10 66.74 187.10 66.74L187.10 66.74Q185.13 66.74 183.80 67.98Q182.47 69.23 182.47 71.54L182.47 71.54L182.47 71.88Q182.47 74.16 183.80 75.41Q185.13 76.67 187.10 76.67Z" fill="#f1ece2"></path><path d="M62.03 102.50L62.03 102.50Q61.23 102.50 60.56 102.11Q59.88 101.72 59.47 100.99Q59.06 100.25 59.06 99.21L59.06 99.21L59.06 99.02Q59.06 97.99 59.46 97.25Q59.87 96.51 60.54 96.12Q61.22 95.73 62.03 95.73L62.03 95.73Q62.65 95.73 63.07 95.88Q63.49 96.04 63.77 96.28Q64.04 96.52 64.18 96.78L64.18 96.78L64.39 96.78L64.39 93.22L65.73 93.22L65.73 102.32L64.42 102.32L64.42 101.41L64.21 101.41Q63.96 101.82 63.46 102.16Q62.96 102.50 62.03 102.50ZM62.40 101.33L62.40 101.33Q63.27 101.33 63.84 100.77Q64.40 100.21 64.40 99.17L64.40 99.17L64.40 99.05Q64.40 98.03 63.85 97.47Q63.29 96.91 62.40 96.91L62.40 96.91Q61.54 96.91 60.98 97.47Q60.41 98.03 60.41 99.05L60.41 99.05L60.41 99.17Q60.41 100.21 60.98 100.77Q61.54 101.33 62.40 101.33Z M70.70 102.50L70.70 102.50Q70.01 102.50 69.47 102.27Q68.93 102.03 68.61 101.58Q68.29 101.12 68.29 100.47L68.29 100.47Q68.29 99.81 68.61 99.37Q68.93 98.94 69.48 98.72Q70.03 98.50 70.73 98.50L70.73 98.50L72.68 98.50L72.68 98.08Q72.68 97.52 72.35 97.18Q72.01 96.84 71.31 96.84L71.31 96.84Q70.62 96.84 70.25 97.17Q69.89 97.50 69.77 98.02L69.77 98.02L68.52 97.61Q68.68 97.09 69.02 96.67Q69.37 96.25 69.94 95.99Q70.51 95.73 71.32 95.73L71.32 95.73Q72.57 95.73 73.28 96.36Q74.00 97.00 74.00 98.17L74.00 98.17L74.00 100.81Q74.00 101.20 74.36 101.20L74.36 101.20L74.91 101.20L74.91 102.32L73.91 102.32Q73.45 102.32 73.17 102.08Q72.88 101.85 72.88 101.45L72.88 101.45L72.88 101.41L72.68 101.41Q72.58 101.60 72.37 101.86Q72.16 102.12 71.76 102.31Q71.36 102.50 70.70 102.50ZM70.89 101.39L70.89 101.39Q71.70 101.39 72.19 100.93Q72.68 100.47 72.68 99.67L72.68 99.67L72.68 99.54L70.81 99.54Q70.28 99.54 69.95 99.76Q69.63 99.99 69.63 100.43L69.63 100.43Q69.63 100.88 69.97 101.13Q70.31 101.39 70.89 101.39Z  M85.23 102.50L85.23 102.50Q84.29 102.50 83.79 102.16Q83.29 101.82 83.04 101.41L83.04 101.41L82.84 101.41L82.84 102.32L81.52 102.32L81.52 93.22L82.86 93.22L82.86 96.78L83.07 96.78Q83.23 96.52 83.49 96.28Q83.75 96.04 84.17 95.88Q84.60 95.73 85.23 95.73L85.23 95.73Q86.03 95.73 86.71 96.12Q87.39 96.51 87.79 97.25Q88.19 97.99 88.19 99.02L88.19 99.02L88.19 99.21Q88.19 100.25 87.78 100.99Q87.37 101.72 86.70 102.11Q86.03 102.50 85.23 102.50ZM84.84 101.33L84.84 101.33Q85.71 101.33 86.27 100.77Q86.84 100.21 86.84 99.17L86.84 99.17L86.84 99.05Q86.84 98.03 86.28 97.47Q85.72 96.91 84.84 96.91L84.84 96.91Q83.98 96.91 83.41 97.47Q82.85 98.03 82.85 99.05L82.85 99.05L82.85 99.17Q82.85 100.21 83.41 100.77Q83.98 101.33 84.84 101.33Z M92.19 102.32L90.86 102.32L90.86 95.91L92.19 95.91L92.19 102.32ZM91.53 95.04L91.53 95.04Q91.14 95.04 90.87 94.78Q90.61 94.53 90.61 94.13L90.61 94.13Q90.61 93.72 90.87 93.47Q91.14 93.22 91.53 93.22L91.53 93.22Q91.93 93.22 92.19 93.47Q92.45 93.72 92.45 94.13L92.45 94.13Q92.45 94.53 92.19 94.78Q91.93 95.04 91.53 95.04Z M96.52 102.32L95.18 102.32L95.18 95.91L96.50 95.91L96.50 96.87L96.70 96.87Q96.89 96.48 97.35 96.14Q97.82 95.80 98.75 95.80L98.75 95.80Q99.47 95.80 100.04 96.13Q100.60 96.45 100.93 97.05Q101.25 97.64 101.25 98.47L101.25 98.47L101.25 102.32L99.92 102.32L99.92 98.57Q99.92 97.74 99.50 97.35Q99.08 96.95 98.36 96.95L98.36 96.95Q97.52 96.95 97.02 97.50Q96.52 98.04 96.52 99.08L96.52 99.08L96.52 102.32Z  M109.83 102.32L108.49 102.32L108.49 95.91L109.83 95.91L109.83 102.32ZM109.17 95.04L109.17 95.04Q108.78 95.04 108.51 94.78Q108.25 94.53 108.25 94.13L108.25 94.13Q108.25 93.72 108.51 93.47Q108.78 93.22 109.17 93.22L109.17 93.22Q109.57 93.22 109.83 93.47Q110.09 93.72 110.09 94.13L110.09 94.13Q110.09 94.53 109.83 94.78Q109.57 95.04 109.17 95.04Z  M119.79 102.50L119.79 102.50Q119.00 102.50 118.32 102.11Q117.64 101.72 117.23 100.99Q116.82 100.25 116.82 99.21L116.82 99.21L116.82 99.02Q116.82 97.99 117.23 97.25Q117.63 96.51 118.31 96.12Q118.98 95.73 119.79 95.73L119.79 95.73Q120.41 95.73 120.83 95.88Q121.26 96.04 121.53 96.28Q121.80 96.52 121.95 96.78L121.95 96.78L122.15 96.78L122.15 93.22L123.49 93.22L123.49 102.32L122.18 102.32L122.18 101.41L121.97 101.41Q121.73 101.82 121.22 102.16Q120.72 102.50 119.79 102.50ZM120.17 101.33L120.17 101.33Q121.04 101.33 121.60 100.77Q122.17 100.21 122.17 99.17L122.17 99.17L122.17 99.05Q122.17 98.03 121.61 97.47Q121.05 96.91 120.17 96.91L120.17 96.91Q119.31 96.91 118.74 97.47Q118.18 98.03 118.18 99.05L118.18 99.05L118.18 99.17Q118.18 100.21 118.74 100.77Q119.31 101.33 120.17 101.33Z M128.46 102.50L128.46 102.50Q127.77 102.50 127.23 102.27Q126.69 102.03 126.37 101.58Q126.05 101.12 126.05 100.47L126.05 100.47Q126.05 99.81 126.37 99.37Q126.69 98.94 127.24 98.72Q127.80 98.50 128.50 98.50L128.50 98.50L130.45 98.50L130.45 98.08Q130.45 97.52 130.11 97.18Q129.77 96.84 129.07 96.84L129.07 96.84Q128.38 96.84 128.02 97.17Q127.65 97.50 127.54 98.02L127.54 98.02L126.29 97.61Q126.44 97.09 126.79 96.67Q127.13 96.25 127.70 95.99Q128.28 95.73 129.08 95.73L129.08 95.73Q130.33 95.73 131.05 96.36Q131.76 97.00 131.76 98.17L131.76 98.17L131.76 100.81Q131.76 101.20 132.12 101.20L132.12 101.20L132.67 101.20L132.67 102.32L131.67 102.32Q131.21 102.32 130.93 102.08Q130.64 101.85 130.64 101.45L130.64 101.45L130.64 101.41L130.45 101.41Q130.34 101.60 130.14 101.86Q129.93 102.12 129.52 102.31Q129.12 102.50 128.46 102.50ZM128.65 101.39L128.65 101.39Q129.46 101.39 129.95 100.93Q130.45 100.47 130.45 99.67L130.45 99.67L130.45 99.54L128.58 99.54Q128.04 99.54 127.72 99.76Q127.39 99.99 127.39 100.43L127.39 100.43Q127.39 100.88 127.73 101.13Q128.07 101.39 128.65 101.39Z M136.31 102.32L134.97 102.32L134.97 93.22L136.31 93.22L136.31 96.82L136.52 96.82Q136.65 96.57 136.89 96.34Q137.13 96.10 137.52 95.95Q137.92 95.80 138.53 95.80L138.53 95.80Q139.26 95.80 139.83 96.13Q140.39 96.45 140.72 97.05Q141.04 97.64 141.04 98.47L141.04 98.47L141.04 102.32L139.70 102.32L139.70 98.57Q139.70 97.74 139.29 97.35Q138.87 96.95 138.14 96.95L138.14 96.95Q137.31 96.95 136.81 97.50Q136.31 98.04 136.31 99.08L136.31 99.08L136.31 102.32Z M146.97 102.50L146.97 102.50Q146.01 102.50 145.26 102.10Q144.51 101.71 144.08 100.97Q143.65 100.22 143.65 99.21L143.65 99.21L143.65 99.02Q143.65 98.00 144.08 97.27Q144.51 96.53 145.26 96.13Q146.01 95.73 146.97 95.73L146.97 95.73Q147.93 95.73 148.68 96.13Q149.44 96.53 149.87 97.27Q150.30 98.00 150.30 99.02L150.30 99.02L150.30 99.21Q150.30 100.22 149.87 100.97Q149.44 101.71 148.68 102.10Q147.93 102.50 146.97 102.50ZM146.97 101.30L146.97 101.30Q147.85 101.30 148.41 100.74Q148.96 100.17 148.96 99.17L148.96 99.17L148.96 99.05Q148.96 98.05 148.41 97.49Q147.87 96.92 146.97 96.92L146.97 96.92Q146.10 96.92 145.54 97.49Q144.99 98.05 144.99 99.05L144.99 99.05L144.99 99.17Q144.99 100.17 145.54 100.74Q146.10 101.30 146.97 101.30Z M154.95 102.50L154.95 102.50Q154.26 102.50 153.72 102.27Q153.18 102.03 152.86 101.58Q152.54 101.12 152.54 100.47L152.54 100.47Q152.54 99.81 152.86 99.37Q153.18 98.94 153.73 98.72Q154.29 98.50 154.99 98.50L154.99 98.50L156.94 98.50L156.94 98.08Q156.94 97.52 156.60 97.18Q156.26 96.84 155.56 96.84L155.56 96.84Q154.87 96.84 154.51 97.17Q154.14 97.50 154.03 98.02L154.03 98.02L152.78 97.61Q152.93 97.09 153.28 96.67Q153.62 96.25 154.20 95.99Q154.77 95.73 155.57 95.73L155.57 95.73Q156.82 95.73 157.54 96.36Q158.25 97.00 158.25 98.17L158.25 98.17L158.25 100.81Q158.25 101.20 158.62 101.20L158.62 101.20L159.16 101.20L159.16 102.32L158.16 102.32Q157.71 102.32 157.42 102.08Q157.13 101.85 157.13 101.45L157.13 101.45L157.13 101.41L156.94 101.41Q156.83 101.60 156.63 101.86Q156.42 102.12 156.02 102.31Q155.61 102.50 154.95 102.50ZM155.14 101.39L155.14 101.39Q155.95 101.39 156.44 100.93Q156.94 100.47 156.94 99.67L156.94 99.67L156.94 99.54L155.07 99.54Q154.53 99.54 154.21 99.76Q153.88 99.99 153.88 100.43L153.88 100.43Q153.88 100.88 154.22 101.13Q154.56 101.39 155.14 101.39Z M162.80 102.32L161.46 102.32L161.46 95.91L162.77 95.91L162.77 96.66L162.98 96.66Q163.16 96.33 163.57 96.06Q163.97 95.80 164.66 95.80L164.66 95.80Q165.37 95.80 165.81 96.10Q166.25 96.39 166.47 96.84L166.47 96.84L166.67 96.84Q166.90 96.40 167.32 96.10Q167.74 95.80 168.52 95.80L168.52 95.80Q169.14 95.80 169.63 96.06Q170.11 96.31 170.39 96.81Q170.68 97.31 170.68 98.05L170.68 98.05L170.68 102.32L169.34 102.32L169.34 98.16Q169.34 97.57 169.02 97.25Q168.70 96.94 168.12 96.94L168.12 96.94Q167.49 96.94 167.12 97.34Q166.74 97.74 166.74 98.50L166.74 98.50L166.74 102.32L165.40 102.32L165.40 98.16Q165.40 97.57 165.08 97.25Q164.76 96.94 164.18 96.94L164.18 96.94Q163.55 96.94 163.18 97.34Q162.80 97.74 162.80 98.50L162.80 98.50L162.80 102.32Z" fill="#f1ece2" fill-opacity="0.7"></path><svg x="-17.50" y="134.45" width="258.46" height="132.82" viewBox="0 0 360 185" overflow="visible"><g fill="#f1ece2"><g transform="translate(64.98,0)"><path d="M22.88 133.59 L22.88 133.59 Q21.33 133.16 20.38 132.82 L20.38 132.82 L19.44 132.56 Q19.61 132.13 19.31 131.78 Q19.01 131.44 18.06 131.35 L18.06 131.35 Q16.77 130.49 15.39 128.95 Q14.02 127.40 12.99 125.76 Q11.95 124.13 11.61 123.36 L11.61 123.36 Q11.18 122.32 11.44 121.98 L11.44 121.98 Q11.52 121.81 11.70 121.72 L11.70 121.72 Q12.38 121.46 13.33 121.03 L13.33 121.03 Q14.28 120.35 15.35 120.00 Q16.43 119.66 17.11 121.12 L17.11 121.12 Q18.23 123.10 20.60 124.47 Q22.96 125.85 26.02 126.11 Q29.07 126.37 32.16 125.08 L32.16 125.08 Q34.23 124.13 34.40 122.45 Q34.57 120.78 33.11 118.54 L33.11 118.54 Q32.85 117.85 32.38 117.42 Q31.91 116.99 31.00 116.30 Q30.10 115.62 28.47 114.07 L28.47 114.07 Q27.18 113.47 26.10 112.95 Q25.03 112.43 23.82 111.83 L23.82 111.83 Q22.45 111.14 20.73 109.90 Q19.01 108.65 17.54 107.14 Q16.08 105.64 15.31 104.26 L15.31 104.26 Q13.93 102.97 13.59 100.69 Q13.24 98.42 13.72 95.84 Q14.19 93.26 15.31 91.19 L15.31 91.19 Q15.82 89.99 17.20 88.05 Q18.58 86.12 20.30 84.05 Q22.02 81.99 23.61 80.31 Q25.20 78.64 26.14 78.03 L26.14 78.03 Q26.83 77.35 27.61 76.57 L27.61 76.57 L28.38 75.88 Q28.47 75.45 28.72 75.45 L28.72 75.45 L28.90 75.45 Q29.33 75.20 30.79 74.59 Q32.25 73.99 33.97 72.36 L33.97 72.36 Q39.73 69.61 43.77 68.62 Q47.82 67.63 50.14 67.63 L50.14 67.63 Q52.29 67.71 54.35 68.79 Q56.42 69.86 57.92 71.50 Q59.43 73.13 59.68 75.20 L59.68 75.20 Q60.29 77.26 59.13 80.14 Q57.96 83.02 55.94 85.56 Q53.92 88.10 51.77 89.30 L51.77 89.30 Q49.36 90.33 47.69 89.56 Q46.01 88.78 46.10 87.15 L46.10 87.15 Q46.10 86.46 46.57 85.52 Q47.04 84.57 49.19 82.16 L49.19 82.16 Q51.94 78.12 52.12 76.40 Q52.29 74.68 50.57 74.42 L50.57 74.42 Q50.05 74.25 48.59 74.51 Q47.13 74.77 45.45 75.15 Q43.77 75.54 42.53 75.97 Q41.28 76.40 41.28 76.57 L41.28 76.57 L41.28 76.83 Q41.28 76.92 41.19 77.00 L41.19 77.00 Q41.19 77.09 40.94 77.00 L40.94 77.00 Q40.76 77.00 39.78 77.56 Q38.79 78.12 37.41 78.98 Q36.03 79.84 34.70 80.74 Q33.37 81.65 32.42 82.33 Q31.48 83.02 31.39 83.19 L31.39 83.19 Q31.22 84.14 29.41 84.91 L29.41 84.91 Q27.69 85.95 26.40 87.84 Q25.11 89.73 23.39 92.65 L23.39 92.65 Q21.93 94.63 21.33 96.91 Q20.73 99.19 21.33 100.57 L21.33 100.57 Q21.76 101.94 23.69 103.28 Q25.63 104.61 28.98 106.59 L28.98 106.59 Q31.91 108.22 34.49 110.03 Q37.07 111.83 38.87 113.51 Q40.68 115.19 41.19 116.30 L41.19 116.30 Q42.23 117.77 42.44 119.66 Q42.66 121.55 42.44 123.31 Q42.23 125.08 41.88 126.19 L41.88 126.19 Q41.28 127.57 40.03 129.12 Q38.79 130.67 37.75 130.58 L37.75 130.58 Q36.81 130.84 36.34 131.18 Q35.86 131.53 35.26 131.78 L35.26 131.78 Q34.66 132.13 32.42 132.60 Q30.19 133.07 27.52 133.38 Q24.85 133.68 22.88 133.59 Z M67.77 126.28 L67.77 126.28 Q65.19 127.74 62.31 127.96 Q59.43 128.17 56.93 127.18 Q54.44 126.19 52.89 124.22 L52.89 124.22 Q52.03 123.10 51.26 120.65 Q50.48 118.20 51.00 113.98 L51.00 113.98 Q51.51 110.03 53.45 105.98 Q55.38 101.94 58.22 98.85 Q61.06 95.75 64.41 94.63 L64.41 94.63 Q65.62 94.20 66.86 93.99 Q68.11 93.77 70.18 93.94 L70.18 93.94 Q72.15 94.20 73.70 94.93 Q75.25 95.66 75.94 96.52 L75.94 96.52 Q77.31 97.90 77.74 99.19 Q78.17 100.48 78.09 101.68 L78.09 101.68 Q77.66 104.44 75.64 107.62 Q73.62 110.80 70.00 112.35 L70.00 112.35 Q68.54 112.95 66.56 113.12 Q64.59 113.29 61.15 112.61 L61.15 112.61 Q59.08 112.18 58.44 113.04 Q57.79 113.90 57.88 116.39 L57.88 116.39 Q58.05 117.94 58.61 119.10 Q59.17 120.26 60.72 120.69 L60.72 120.69 Q62.69 121.03 63.55 120.73 Q64.41 120.43 65.70 119.83 L65.70 119.83 Q66.39 119.40 67.08 118.88 L67.08 118.88 L68.37 117.85 Q68.97 117.34 69.40 117.08 L69.40 117.08 Q69.83 116.73 70.26 116.65 Q70.69 116.56 71.12 116.56 L71.12 116.56 Q72.07 116.65 72.93 117.59 Q73.79 118.54 74.05 119.40 L74.05 119.40 Q74.05 120.09 73.19 121.33 Q72.33 122.58 70.91 123.92 Q69.49 125.25 67.77 126.28 Z M66.65 107.10 L66.65 107.10 Q67.25 106.84 68.41 105.90 Q69.57 104.95 70.52 103.88 Q71.47 102.80 71.47 102.20 L71.47 102.20 Q71.47 101.25 70.22 100.57 Q68.97 99.88 66.99 100.31 L66.99 100.31 Q66.31 100.48 65.36 101.25 Q64.41 102.03 63.47 103.02 Q62.52 104.01 61.83 104.91 Q61.15 105.81 60.89 106.33 L60.89 106.33 Q61.23 106.76 62.26 107.02 Q63.30 107.27 64.54 107.27 Q65.79 107.27 66.65 107.10 Z M96.49 126.28 L96.49 126.28 Q93.91 127.74 91.03 127.96 Q88.15 128.17 85.66 127.18 Q83.16 126.19 81.61 124.22 L81.61 124.22 Q80.75 123.10 79.98 120.65 Q79.21 118.20 79.72 113.98 L79.72 113.98 Q80.24 110.03 82.17 105.98 Q84.11 101.94 86.95 98.85 Q89.78 95.75 93.14 94.63 L93.14 94.63 Q94.34 94.20 95.59 93.99 Q96.84 93.77 98.90 93.94 L98.90 93.94 Q100.88 94.20 102.43 94.93 Q103.97 95.66 104.66 96.52 L104.66 96.52 Q106.04 97.90 106.47 99.19 Q106.90 100.48 106.81 101.68 L106.81 101.68 Q106.38 104.44 104.36 107.62 Q102.34 110.80 98.73 112.35 L98.73 112.35 Q97.27 112.95 95.29 113.12 Q93.31 113.29 89.87 112.61 L89.87 112.61 Q87.81 112.18 87.16 113.04 Q86.52 113.90 86.60 116.39 L86.60 116.39 Q86.77 117.94 87.33 119.10 Q87.89 120.26 89.44 120.69 L89.44 120.69 Q91.42 121.03 92.28 120.73 Q93.14 120.43 94.43 119.83 L94.43 119.83 Q95.12 119.40 95.80 118.88 L95.80 118.88 L97.09 117.85 Q97.70 117.34 98.13 117.08 L98.13 117.08 Q98.56 116.73 98.99 116.65 Q99.42 116.56 99.85 116.56 L99.85 116.56 Q100.79 116.65 101.65 117.59 Q102.51 118.54 102.77 119.40 L102.77 119.40 Q102.77 120.09 101.91 121.33 Q101.05 122.58 99.63 123.92 Q98.21 125.25 96.49 126.28 Z M95.37 107.10 L95.37 107.10 Q95.98 106.84 97.14 105.90 Q98.30 104.95 99.24 103.88 Q100.19 102.80 100.19 102.20 L100.19 102.20 Q100.19 101.25 98.94 100.57 Q97.70 99.88 95.72 100.31 L95.72 100.31 Q95.03 100.48 94.08 101.25 Q93.14 102.03 92.19 103.02 Q91.25 104.01 90.56 104.91 Q89.87 105.81 89.61 106.33 L89.61 106.33 Q89.96 106.76 90.99 107.02 Q92.02 107.27 93.27 107.27 Q94.51 107.27 95.37 107.10 Z M118.42 145.20 L118.42 145.20 Q116.01 146.15 113.39 144.90 Q110.77 143.65 108.88 140.99 L108.88 140.99 Q108.53 140.47 107.84 139.14 Q107.16 137.80 106.51 136.26 Q105.87 134.71 105.56 133.59 Q105.26 132.47 105.52 132.30 L105.52 132.30 Q105.87 131.35 107.07 131.18 Q108.27 131.01 109.48 131.31 Q110.68 131.61 110.85 132.13 L110.85 132.13 Q111.11 132.73 111.37 133.38 Q111.63 134.02 112.01 134.58 Q112.40 135.14 112.75 135.57 L112.75 135.57 Q113.69 137.03 114.81 137.59 Q115.93 138.15 116.53 137.72 L116.53 137.72 Q117.99 136.60 118.72 135.09 Q119.45 133.59 120.66 129.81 L120.66 129.81 Q121.60 126.62 122.29 124.30 Q122.98 121.98 123.75 120.00 L123.75 120.00 Q124.01 118.97 124.44 118.20 L124.44 118.20 Q124.53 118.02 124.61 117.85 L124.61 117.85 Q123.41 118.71 122.46 119.57 L122.46 119.57 Q121.17 120.78 118.94 121.72 L118.94 121.72 Q118.42 122.32 116.40 122.45 Q114.38 122.58 112.49 121.98 L112.49 121.98 Q111.28 121.29 110.55 120.56 Q109.82 119.83 109.35 118.88 Q108.88 117.94 108.36 116.65 L108.36 116.65 Q107.76 115.36 108.19 112.43 Q108.62 109.51 109.74 106.59 L109.74 106.59 Q110.77 104.44 112.75 101.94 Q114.72 99.45 116.96 97.43 Q119.20 95.41 121.00 94.89 L121.00 94.89 Q121.69 94.55 123.41 94.07 Q125.13 93.60 126.68 94.03 L126.68 94.03 Q128.14 94.20 128.91 94.67 Q129.69 95.15 131.41 96.61 L131.41 96.61 Q132.53 97.73 134.16 99.49 Q135.79 101.25 136.22 102.46 L136.22 102.46 Q136.83 103.75 136.48 105.25 Q136.14 106.76 135.28 107.88 L135.28 107.88 Q134.50 108.99 133.64 110.11 Q132.78 111.23 132.35 113.21 L132.35 113.21 Q131.92 115.79 130.72 119.01 Q129.52 122.24 128.83 124.99 L128.83 124.99 L127.45 130.32 Q125.30 137.63 122.72 140.94 Q120.14 144.25 118.42 145.20 Z M116.62 115.62 L116.62 115.62 Q118.34 115.53 119.58 115.23 Q120.83 114.93 121.95 113.85 Q123.07 112.78 124.53 110.54 L124.53 110.54 Q125.99 108.48 126.59 106.76 Q127.19 105.04 127.02 102.89 L127.02 102.89 Q126.94 101.51 126.25 101.08 Q125.56 100.65 124.44 100.82 L124.44 100.82 Q122.81 101.08 121.52 102.16 Q120.23 103.23 118.51 105.47 L118.51 105.47 Q117.22 107.19 116.36 109.60 L116.36 109.60 Q115.50 112.18 115.63 113.72 Q115.76 115.27 116.62 115.62 Z M143.88 138.41 L143.88 138.41 Q143.36 138.75 141.56 137.59 Q139.75 136.43 138.55 135.05 L138.55 135.05 Q137.94 134.36 137.77 133.59 Q137.60 132.82 137.86 130.67 L137.86 130.67 Q138.20 129.72 138.24 128.86 Q138.29 128.00 138.29 127.66 L138.29 127.66 Q138.29 127.14 138.59 125.25 Q138.89 123.36 139.23 121.25 Q139.58 119.14 139.84 118.02 L139.84 118.02 Q139.84 117.94 139.96 117.42 Q140.09 116.91 140.18 116.65 L140.18 116.65 Q140.35 115.87 140.61 114.76 Q140.87 113.64 141.13 111.75 L141.13 111.75 Q141.81 109.60 142.29 107.49 Q142.76 105.38 142.76 104.61 L142.76 104.61 Q142.76 103.06 143.96 102.37 L143.96 102.37 Q144.05 101.94 144.48 101.04 Q144.91 100.14 145.25 99.53 L145.25 99.53 Q146.97 94.63 148.09 91.71 Q149.21 88.78 150.41 86.63 L150.41 86.63 Q150.93 85.17 151.57 83.62 Q152.22 82.08 152.91 81.22 L152.91 81.22 Q153.51 80.01 155.01 78.25 Q156.52 76.49 158.24 74.85 Q159.96 73.22 160.99 72.44 L160.99 72.44 Q162.88 71.50 164.52 70.90 Q166.15 70.29 167.96 70.29 L167.96 70.29 Q169.59 70.29 170.84 71.03 Q172.09 71.76 174.58 73.99 L174.58 73.99 Q175.44 75.11 175.44 76.14 Q175.44 77.17 175.01 77.86 L175.01 77.86 Q174.41 79.24 173.20 81.26 Q172.00 83.28 170.88 84.87 Q169.76 86.46 169.25 86.55 L169.25 86.55 Q168.22 87.15 167.10 86.89 Q165.98 86.63 165.98 85.34 L165.98 85.34 Q165.98 84.74 166.07 84.23 L166.07 84.23 L166.07 83.71 Q166.32 82.59 166.71 81.73 Q167.10 80.87 167.44 80.27 L167.44 80.27 Q168.13 79.15 167.83 78.12 Q167.53 77.09 165.64 77.26 L165.64 77.26 Q165.38 77.43 164.65 78.08 Q163.92 78.72 163.10 79.54 Q162.28 80.36 161.68 81.09 Q161.08 81.82 161.08 82.08 L161.08 82.08 L160.65 82.94 Q160.13 83.88 159.19 85.00 L159.19 85.00 Q158.58 85.86 158.15 86.63 Q157.72 87.41 157.72 87.84 L157.72 87.84 Q157.72 88.18 157.64 88.44 Q157.55 88.70 157.21 88.70 L157.21 88.70 L156.95 89.56 Q156.61 90.42 155.92 91.62 L155.92 91.62 Q155.57 92.48 155.19 93.21 Q154.80 93.94 154.46 94.29 L154.46 94.29 L154.37 94.46 L154.03 95.41 Q153.60 96.44 153.17 97.47 Q152.74 98.50 152.74 98.67 L152.74 98.67 Q152.74 99.02 153.77 99.02 Q154.80 99.02 156.26 98.72 Q157.72 98.42 159.10 98.07 L159.10 98.07 Q160.30 97.73 160.82 97.73 Q161.34 97.73 162.45 98.07 L162.45 98.07 Q163.14 98.50 163.57 99.58 Q164.00 100.65 164.22 101.73 Q164.43 102.80 164.26 103.32 L164.26 103.32 Q164.17 103.66 162.32 104.26 Q160.48 104.87 158.67 105.21 L158.67 105.21 Q157.12 105.55 155.19 105.94 Q153.25 106.33 151.79 106.72 Q150.33 107.10 150.24 107.45 L150.24 107.45 Q149.90 107.45 149.68 107.88 Q149.47 108.31 149.47 108.65 L149.47 108.65 Q149.47 109.77 149.04 110.46 L149.04 110.46 Q148.87 110.97 148.48 112.56 Q148.09 114.15 147.70 116.00 Q147.32 117.85 147.02 119.44 Q146.72 121.03 146.72 121.55 L146.72 121.55 Q146.20 122.15 146.11 123.06 Q146.03 123.96 146.03 124.65 L146.03 124.65 Q145.68 125.33 145.60 125.89 Q145.51 126.45 145.51 126.80 L145.51 126.80 L145.51 127.14 Q145.51 127.40 145.43 127.66 L145.43 127.66 Q145.34 128.52 145.21 129.94 Q145.08 131.35 145.08 132.73 L145.08 132.73 L144.82 135.22 Q144.74 136.34 144.52 137.16 Q144.31 137.98 143.88 138.41 Z M186.02 127.83 L186.02 127.83 Q185.16 126.97 184.64 125.46 Q184.13 123.96 183.61 121.98 L183.61 121.98 Q183.44 121.29 183.48 120.43 Q183.52 119.57 183.44 119.06 L183.44 119.06 Q183.18 119.66 182.62 120.60 Q182.06 121.55 181.55 121.98 L181.55 121.98 Q181.20 122.32 180.00 123.31 Q178.79 124.30 177.59 124.90 L177.59 124.90 Q174.75 126.71 172.56 126.58 Q170.37 126.45 168.73 124.39 L168.73 124.39 Q167.36 123.27 166.50 121.55 Q165.64 119.83 166.15 117.42 L166.15 117.42 Q166.32 114.41 167.01 111.53 Q167.70 108.65 169.85 103.83 L169.85 103.83 Q171.66 100.31 172.60 98.33 Q173.55 96.35 173.81 96.01 L173.81 96.01 Q175.10 95.58 176.99 96.05 Q178.88 96.52 179.05 97.73 L179.05 97.73 Q179.57 98.59 179.05 100.95 Q178.54 103.32 176.99 106.33 L176.99 106.33 Q175.78 109.25 174.71 112.00 Q173.63 114.76 173.42 116.65 Q173.20 118.54 174.41 118.97 L174.41 118.97 Q175.18 119.40 176.69 118.88 Q178.19 118.37 180.26 115.79 Q182.32 113.21 184.64 107.62 L184.64 107.62 Q185.33 105.90 185.67 104.56 Q186.02 103.23 186.10 101.60 L186.10 101.60 Q185.93 100.57 186.66 99.45 Q187.39 98.33 188.43 97.73 L188.43 97.73 Q188.77 97.30 189.37 96.87 L189.37 96.87 Q189.80 96.61 189.97 96.78 L189.97 96.78 Q190.06 96.78 190.15 96.95 L190.15 96.95 L191.52 96.87 Q191.87 96.78 192.30 97.56 Q192.73 98.33 193.16 98.67 L193.16 98.67 Q194.10 99.45 194.02 102.03 Q193.93 104.61 191.95 109.25 L191.95 109.25 Q190.32 112.78 189.76 114.58 Q189.20 116.39 189.11 118.11 L189.11 118.11 Q189.11 119.66 189.37 120.73 Q189.63 121.81 190.92 122.93 L190.92 122.93 Q191.87 123.53 191.99 124.95 Q192.12 126.37 192.04 127.40 L192.04 127.40 Q191.87 128.17 190.70 128.47 Q189.54 128.77 188.21 128.60 Q186.88 128.43 186.02 127.83 Z M197.80 126.54 L197.80 126.54 Q197.11 125.85 196.81 124.47 Q196.51 123.10 196.60 121.77 Q196.68 120.43 197.03 119.74 L197.03 119.74 Q197.03 119.06 197.24 118.67 Q197.46 118.28 197.37 117.94 L197.37 117.94 Q197.28 117.59 197.54 116.73 Q197.80 115.87 198.06 115.10 L198.06 115.10 Q198.66 113.72 199.43 111.53 Q200.21 109.34 200.98 107.06 Q201.76 104.78 202.27 103.10 Q202.79 101.43 202.87 101.08 L202.87 101.08 Q202.87 100.05 204.25 99.96 L204.25 99.96 Q205.28 99.62 206.74 100.82 Q208.21 102.03 209.07 103.40 L209.07 103.40 Q209.75 104.09 209.58 105.21 Q209.41 106.33 208.46 108.39 L208.46 108.39 Q208.12 109.08 207.65 110.67 Q207.17 112.26 207.00 113.29 L207.00 113.29 Q206.66 113.98 206.18 115.23 Q205.71 116.48 205.37 117.59 L205.37 117.59 Q205.20 118.02 205.02 119.19 Q204.85 120.35 204.59 121.55 Q204.34 122.75 203.91 123.44 L203.91 123.44 Q203.13 126.97 201.20 127.57 Q199.26 128.17 197.80 126.54 Z " fill="#f1ece2"></path><defs><mask id="hm2" maskUnits="userSpaceOnUse"><path d="M0,3 C0,-3 -9,-6 -9,-13 C-9,-19 -2,-20 0,-14 C2,-20 9,-19 9,-13 C9,-6 0,-3 0,3 Z" fill="#fff"></path><path d="M-7.5,-8 q2.5,-3.4 5,0 t5,0 t5,0" fill="none" stroke="#000" stroke-width="2.1" stroke-linecap="round"></path></mask></defs><g transform="translate(210.40,95.23) rotate(12) scale(0.940)"><path d="M0,3 C0,-3 -9,-6 -9,-13 C-9,-19 -2,-20 0,-14 C2,-20 9,-19 9,-13 C9,-6 0,-3 0,3 Z" fill="#d23b34" mask="url(#hm2)"></path></g></g></g></svg><path d="M16.90 326.32L16.90 326.32Q15.94 326.32 15.20 325.98Q14.46 325.64 14.04 324.99Q13.62 324.34 13.62 323.40L13.62 323.40L13.62 323.09L15.05 323.09L15.05 323.40Q15.05 324.23 15.55 324.64Q16.06 325.05 16.90 325.05L16.90 325.05Q17.75 325.05 18.18 324.70Q18.61 324.35 18.61 323.80L18.61 323.80Q18.61 323.43 18.41 323.19Q18.20 322.96 17.81 322.82Q17.42 322.67 16.87 322.54L16.87 322.54L16.51 322.47Q15.68 322.28 15.08 321.98Q14.47 321.69 14.15 321.22Q13.82 320.75 13.82 320.00L13.82 320.00Q13.82 319.24 14.18 318.70Q14.54 318.16 15.20 317.87Q15.86 317.58 16.75 317.58L16.75 317.58Q17.64 317.58 18.34 317.88Q19.03 318.18 19.43 318.78Q19.84 319.38 19.84 320.28L19.84 320.28L19.84 320.68L18.41 320.68L18.41 320.28Q18.41 319.77 18.20 319.46Q18.00 319.14 17.63 319Q17.26 318.86 16.75 318.86L16.75 318.86Q16.01 318.86 15.62 319.14Q15.24 319.43 15.24 319.96L15.24 319.96Q15.24 320.30 15.41 320.53Q15.59 320.76 15.93 320.91Q16.27 321.06 16.79 321.17L16.79 321.17L17.15 321.26Q18.01 321.45 18.66 321.74Q19.31 322.04 19.67 322.52Q20.04 323.00 20.04 323.76L20.04 323.76Q20.04 324.52 19.65 325.10Q19.26 325.67 18.56 326.00Q17.86 326.32 16.90 326.32Z M31.72 326.15L30.28 326.15L30.28 319.06L27.77 319.06L27.77 317.75L34.23 317.75L34.23 319.06L31.72 319.06L31.72 326.15Z M43.26 326.15L41.77 326.15L44.07 317.75L46.58 317.75L48.88 326.15L47.40 326.15L46.89 324.23L43.76 324.23L43.26 326.15ZM45.22 318.65L44.10 322.91L46.56 322.91L45.43 318.65L45.22 318.65Z M58.40 326.15L56.95 326.15L56.95 317.75L60.54 317.75Q61.33 317.75 61.92 318.03Q62.51 318.30 62.84 318.80Q63.17 319.30 63.17 320.00L63.17 320.00L63.17 320.13Q63.17 320.91 62.80 321.38Q62.42 321.84 61.90 322.06L61.90 322.06L61.90 322.25Q62.36 322.28 62.63 322.58Q62.90 322.88 62.90 323.38L62.90 323.38L62.90 326.15L61.46 326.15L61.46 323.58Q61.46 323.28 61.30 323.10Q61.14 322.91 60.78 322.91L60.78 322.91L58.40 322.91L58.40 326.15ZM58.40 319.06L58.40 321.60L60.40 321.60Q61.02 321.60 61.37 321.27Q61.73 320.94 61.73 320.39L61.73 320.39L61.73 320.28Q61.73 319.72 61.38 319.39Q61.03 319.06 60.40 319.06L60.40 319.06L58.40 319.06Z M72.96 326.15L71.54 326.15L71.54 317.75L74.30 317.75L76.28 325.18L76.47 325.18L76.47 317.75L77.90 317.75L77.90 326.15L75.15 326.15L73.17 318.72L72.96 318.72L72.96 326.15Z M90.61 326.15L86.28 326.15L86.28 324.88L87.40 324.88L87.40 319.02L86.28 319.02L86.28 317.75L90.57 317.75Q91.33 317.75 91.90 318.01Q92.47 318.27 92.79 318.74Q93.10 319.22 93.10 319.88L93.10 319.88L93.10 319.98Q93.10 320.56 92.89 320.93Q92.67 321.30 92.37 321.51Q92.07 321.71 91.80 321.80L91.80 321.80L91.80 322Q92.07 322.07 92.39 322.27Q92.71 322.47 92.93 322.85Q93.15 323.22 93.15 323.82L93.15 323.82L93.15 323.94Q93.15 324.63 92.82 325.13Q92.49 325.62 91.92 325.89Q91.35 326.15 90.61 326.15L90.61 326.15ZM88.84 322.58L88.84 324.84L90.44 324.84Q91.02 324.84 91.36 324.56Q91.70 324.28 91.70 323.76L91.70 323.76L91.70 323.66Q91.70 323.14 91.36 322.86Q91.03 322.58 90.44 322.58L90.44 322.58L88.84 322.58ZM88.84 319.06L88.84 321.27L90.43 321.27Q90.98 321.27 91.32 320.99Q91.66 320.72 91.66 320.22L91.66 320.22L91.66 320.10Q91.66 319.61 91.32 319.34Q90.98 319.06 90.43 319.06L90.43 319.06L88.84 319.06Z M106.92 326.15L101.51 326.15L101.51 317.75L106.86 317.75L106.86 319.06L102.96 319.06L102.96 321.27L106.52 321.27L106.52 322.58L102.96 322.58L102.96 324.84L106.92 324.84L106.92 326.15Z M116.63 326.15L115.18 326.15L115.18 317.75L118.77 317.75Q119.56 317.75 120.15 318.03Q120.74 318.30 121.07 318.80Q121.40 319.30 121.40 320.00L121.40 320.00L121.40 320.13Q121.40 320.91 121.02 321.38Q120.65 321.84 120.12 322.06L120.12 322.06L120.12 322.25Q120.59 322.28 120.86 322.58Q121.13 322.88 121.13 323.38L121.13 323.38L121.13 326.15L119.69 326.15L119.69 323.58Q119.69 323.28 119.53 323.10Q119.37 322.91 119.01 322.91L119.01 322.91L116.63 322.91L116.63 326.15ZM116.63 319.06L116.63 321.60L118.62 321.60Q119.25 321.60 119.60 321.27Q119.96 320.94 119.96 320.39L119.96 320.39L119.96 320.28Q119.96 319.72 119.61 319.39Q119.26 319.06 118.62 319.06L118.62 319.06L116.63 319.06Z M132.68 326.32L132.68 326.32Q131.79 326.32 131.09 325.93Q130.39 325.54 129.97 324.79Q129.56 324.04 129.56 322.95L129.56 322.95L129.56 320.96Q129.56 319.32 130.47 318.45Q131.38 317.58 132.92 317.58L132.92 317.58Q134.46 317.58 135.28 318.41Q136.11 319.23 136.11 320.62L136.11 320.62L136.11 320.67L134.70 320.67L134.70 320.57Q134.70 320.09 134.50 319.71Q134.31 319.32 133.92 319.10Q133.52 318.88 132.92 318.88L132.92 318.88Q132.03 318.88 131.52 319.43Q131.01 319.97 131.01 320.93L131.01 320.93L131.01 322.97Q131.01 323.92 131.52 324.48Q132.03 325.05 132.94 325.05L132.94 325.05Q133.86 325.05 134.28 324.56Q134.70 324.06 134.70 323.30L134.70 323.30L134.70 323.15L132.57 323.15L132.57 321.93L136.11 321.93L136.11 326.15L134.79 326.15L134.79 325.32L134.59 325.32Q134.49 325.54 134.29 325.77Q134.08 326.01 133.71 326.16Q133.33 326.32 132.68 326.32Z M150.11 326.15L144.70 326.15L144.70 317.75L150.05 317.75L150.05 319.06L146.15 319.06L146.15 321.27L149.71 321.27L149.71 322.58L146.15 322.58L146.15 324.84L150.11 324.84L150.11 326.15Z M159.82 326.15L158.37 326.15L158.37 317.75L161.96 317.75Q162.75 317.75 163.34 318.03Q163.92 318.30 164.25 318.80Q164.58 319.30 164.58 320.00L164.58 320.00L164.58 320.13Q164.58 320.91 164.21 321.38Q163.84 321.84 163.31 322.06L163.31 322.06L163.31 322.25Q163.78 322.28 164.05 322.58Q164.32 322.88 164.32 323.38L164.32 323.38L164.32 326.15L162.88 326.15L162.88 323.58Q162.88 323.28 162.72 323.10Q162.56 322.91 162.20 322.91L162.20 322.91L159.82 322.91L159.82 326.15ZM159.82 319.06L159.82 321.60L161.81 321.60Q162.44 321.60 162.79 321.27Q163.14 320.94 163.14 320.39L163.14 320.39L163.14 320.28Q163.14 319.72 162.80 319.39Q162.45 319.06 161.81 319.06L161.81 319.06L159.82 319.06Z  M185.90 326.32L185.90 326.32Q184.94 326.32 184.21 325.98Q183.47 325.64 183.05 324.99Q182.63 324.34 182.63 323.40L182.63 323.40L182.63 323.09L184.06 323.09L184.06 323.40Q184.06 324.23 184.56 324.64Q185.06 325.05 185.90 325.05L185.90 325.05Q186.76 325.05 187.19 324.70Q187.62 324.35 187.62 323.80L187.62 323.80Q187.62 323.43 187.42 323.19Q187.21 322.96 186.82 322.82Q186.43 322.67 185.88 322.54L185.88 322.54L185.52 322.47Q184.69 322.28 184.09 321.98Q183.48 321.69 183.16 321.22Q182.83 320.75 182.83 320.00L182.83 320.00Q182.83 319.24 183.19 318.70Q183.55 318.16 184.21 317.87Q184.87 317.58 185.76 317.58L185.76 317.58Q186.65 317.58 187.34 317.88Q188.04 318.18 188.44 318.78Q188.84 319.38 188.84 320.28L188.84 320.28L188.84 320.68L187.42 320.68L187.42 320.28Q187.42 319.77 187.21 319.46Q187.01 319.14 186.64 319Q186.26 318.86 185.76 318.86L185.76 318.86Q185.02 318.86 184.63 319.14Q184.25 319.43 184.25 319.96L184.25 319.96Q184.25 320.30 184.42 320.53Q184.60 320.76 184.94 320.91Q185.28 321.06 185.80 321.17L185.80 321.17L186.16 321.26Q187.02 321.45 187.67 321.74Q188.32 322.04 188.68 322.52Q189.05 323.00 189.05 323.76L189.05 323.76Q189.05 324.52 188.66 325.10Q188.27 325.67 187.57 326.00Q186.86 326.32 185.90 326.32Z M202.72 326.15L197.31 326.15L197.31 317.75L202.66 317.75L202.66 319.06L198.76 319.06L198.76 321.27L202.32 321.27L202.32 322.58L198.76 322.58L198.76 324.84L202.72 324.84L202.72 326.15Z M216.39 326.15L210.98 326.15L210.98 317.75L216.33 317.75L216.33 319.06L212.43 319.06L212.43 321.27L216.00 321.27L216.00 322.58L212.43 322.58L212.43 324.84L216.39 324.84L216.39 326.15Z" fill="#d8b66a"></path><circle cx="144.8" cy="33.0" r="10" fill="#fff"></circle><circle cx="144.8" cy="33.0" r="10" fill="none" stroke="#d8b66a" stroke-width="2.4"></circle><circle cx="144.8" cy="33.0" r="4" fill="#d8b66a"></circle></svg>