<svg xmlns="http://www.w3.org/2000/svg" width="1380" height="2040" viewBox="0 0 230 340"><path d="M59.65,63.48 L59.36,62.45 L58.93,61.53 L58.37,60.72 L57.66,60.01 L56.81,59.41 L56.11,58.79 L55.53,58.15 L55.09,57.50 L54.79,56.82 L54.33,56.33 L53.71,56.04 L52.94,55.95 L52.00,56.04 L50.97,55.92 L49.86,55.57 L48.66,55.00 L47.37,54.21 L45.90,53.78 L44.25,53.72 L42.41,54.03 L40.39,54.71 L38.72,55.14 L37.40,55.31 L36.42,55.23 L35.80,54.90 L35.36,54.38 L35.12,53.65 L35.06,52.73 L35.19,51.60 L35.45,50.50 L35.85,49.42 L36.38,48.35 L37.04,47.31 L37.52,46.24 L37.80,45.14 L37.90,44.03 L37.81,42.89 L37.59,41.80 L37.23,40.78 L36.74,39.81 L36.11,38.90 L35.32,38.14 L34.36,37.53 L33.24,37.07 L31.95,36.76 L30.51,35.91 L28.92,34.53 L27.17,32.61 L25.26,30.15 L23.95,28.16 L23.22,26.63 L23.07,25.56 L23.52,24.96 L23.94,24.03 L24.36,22.77 L24.77,21.19 L25.16,19.27 L25.44,17.32 L25.60,15.33 L25.65,13.32 L25.58,11.27 L25.00,9.00 L23.92,6.51 L22.32,3.80 L20.21,0.88 L18.57,-1.56 L17.40,-3.53 L16.70,-5.01 L16.46,-6.02 L15.88,-7.17 L14.95,-8.46 L13.67,-9.89 L12.04,-11.45 L10.74,-13.09 L9.77,-14.79 L9.12,-16.56 L8.81,-18.40 L8.36,-19.92 L7.78,-21.11 L7.05,-21.97 L6.20,-22.52 L5.41,-23.51 L4.69,-24.95 L4.05,-26.85 L3.47,-29.19 L2.87,-31.11 L2.22,-32.60 L1.54,-33.66 L0.82,-34.30 L0.16,-35.04 L-0.46,-35.87 L-1.03,-36.80 L-1.55,-37.83 L-1.88,-38.62 L-2.02,-39.20 L-1.96,-39.54 L-1.72,-39.66 L-1.68,-39.81 L-1.84,-40.02 L-2.21,-40.27 L-2.78,-40.56 L-3.38,-41.12 L-4.00,-41.96 L-4.65,-43.08 L-5.33,-44.48 L-5.87,-45.81 L-6.26,-47.08 L-6.51,-48.28 L-6.61,-49.43 L-6.49,-50.69 L-6.13,-52.07 L-5.55,-53.58 L-4.74,-55.21 L-4.22,-56.87 L-3.99,-58.56 L-4.04,-60.29 L-4.38,-62.05 L-4.56,-63.51 L-4.57,-64.65 L-4.42,-65.48 L-4.11,-66.00 L-3.94,-66.78 L-3.91,-67.79 L-4.03,-69.06 L-4.29,-70.57 L-4.61,-71.83 L-4.98,-72.86 L-5.41,-73.65 L-5.89,-74.19 L-6.37,-74.37 L-6.86,-74.20 L-7.35,-73.66 L-7.84,-72.77 L-8.84,-71.99 L-10.35,-71.32 L-12.36,-70.77 L-14.87,-70.32 L-16.98,-69.62 L-18.70,-68.68 L-20.01,-67.48 L-20.92,-66.02 L-22.00,-64.82 L-23.24,-63.87 L-24.64,-63.18 L-26.20,-62.73 L-27.70,-62.10 L-29.14,-61.29 L-30.52,-60.29 L-31.83,-59.11 L-33.01,-57.77 L-34.05,-56.27 L-34.96,-54.60 L-35.73,-52.78 L-36.20,-50.86 L-36.38,-48.82 L-36.27,-46.68 L-35.87,-44.44 L-35.66,-42.50 L-35.66,-40.86 L-35.85,-39.53 L-36.24,-38.50 L-36.41,-37.53 L-36.37,-36.61 L-36.10,-35.74 L-35.62,-34.93 L-35.37,-34.08 L-35.36,-33.20 L-35.58,-32.28 L-36.04,-31.33 L-36.04,-29.70 L-35.60,-27.37 L-34.71,-24.36 L-33.37,-20.67 L-32.53,-17.69 L-32.20,-15.43 L-32.37,-13.90 L-33.05,-13.08 L-33.56,-12.31 L-33.92,-11.59 L-34.12,-10.91 L-34.16,-10.27 L-33.40,-9.59 L-31.85,-8.86 L-29.49,-8.09 L-26.34,-7.28 L-23.89,-6.54 L-22.14,-5.87 L-21.10,-5.27 L-20.76,-4.75 L-20.52,-4.18 L-20.38,-3.56 L-20.33,-2.89 L-20.39,-2.18 L-20.58,-1.37 L-20.91,-0.48 L-21.38,0.50 L-22.00,1.56 L-22.38,2.47 L-22.55,3.23 L-22.48,3.83 L-22.20,4.27 L-21.76,4.65 L-21.17,4.96 L-20.42,5.20 L-19.52,5.37 L-18.80,5.87 L-18.27,6.69 L-17.92,7.84 L-17.75,9.31 L-17.91,10.65 L-18.39,11.86 L-19.20,12.94 L-20.33,13.89 L-21.20,14.77 L-21.80,15.56 L-22.14,16.27 L-22.22,16.91 L-21.87,17.67 L-21.09,18.54 L-19.88,19.52 L-18.24,20.63 L-17.02,21.56 L-16.23,22.31 L-15.87,22.89 L-15.94,23.30 L-15.86,23.75 L-15.63,24.26 L-15.25,24.81 L-14.73,25.41 L-14.01,26.04 L-13.10,26.71 L-11.98,27.41 L-10.66,28.15 L-9.42,29.02 L-8.26,30.04 L-7.17,31.20 L-6.15,32.49 L-5.19,33.47 L-4.27,34.13 L-3.40,34.47 L-2.58,34.49 L-1.80,34.68 L-1.07,35.03 L-0.39,35.56 L0.25,36.26 L0.88,36.82 L1.50,37.23 L2.10,37.51 L2.71,37.64 L3.01,38.41 L3.01,39.83 L2.71,41.88 L2.10,44.57 L1.52,46.81 L0.94,48.61 L0.37,49.97 L-0.19,50.88 L-0.61,52.16 L-0.89,53.82 L-1.03,55.84 L-1.03,58.24 L-1.34,60.02 L-1.95,61.18 L-2.87,61.73 L-4.09,61.65 L-5.25,61.72 L-6.34,61.96 L-7.36,62.34 L-8.31,62.89 L-8.97,63.58 L-9.34,64.44 L-9.42,65.44 L-9.22,66.60 L-8.84,67.77 L-8.31,68.94 L-7.61,70.12 L-6.75,71.30 L-5.83,72.30 L-4.86,73.13 L-3.82,73.79 L-2.73,74.28 L-1.82,74.37 L-1.09,74.07 L-0.56,73.37 L-0.21,72.29 L-0.11,71.25 L-0.28,70.24 L-0.70,69.27 L-1.37,68.34 L-1.85,67.57 L-2.14,66.96 L-2.23,66.51 L-2.13,66.22 L-1.88,65.93 L-1.49,65.63 L-0.96,65.33 L-0.28,65.02 L0.51,64.90 L1.42,64.96 L2.44,65.22 L3.57,65.67 L5.18,65.85 L7.26,65.77 L9.80,65.43 L12.83,64.83 L15.22,64.30 L16.99,63.83 L18.14,63.44 L18.66,63.11 L19.10,62.71 L19.47,62.23 L19.76,61.69 L19.96,61.07 L20.32,60.64 L20.81,60.40 L21.45,60.34 L22.23,60.48 L23.04,60.42 L23.88,60.16 L24.75,59.70 L25.65,59.04 L26.43,58.69 L27.09,58.65 L27.64,58.92 L28.07,59.50 L28.86,59.93 L30.00,60.21 L31.49,60.34 L33.34,60.32 L34.86,60.72 L36.06,61.52 L36.93,62.73 L37.48,64.36 L38.28,65.48 L39.33,66.08 L40.63,66.19 L42.18,65.78 L43.89,65.63 L45.76,65.75 L47.80,66.13 L50.00,66.77 L51.71,67.32 L52.92,67.80 L53.64,68.19 L53.86,68.50 L54.17,68.56 L54.57,68.38 L55.07,67.95 L55.65,67.27 L56.11,66.82 L56.43,66.61 L56.61,66.63 L56.67,66.88 L56.85,67.06 L57.15,67.15 L57.58,67.17 L58.14,67.11 L58.63,66.95 L59.05,66.66 L59.39,66.27 L59.67,65.77 L59.87,65.39 L60.01,65.14 L60.08,65.02 L60.08,65.02 L60.01,64.76 L59.86,64.25 Z" fill="#2f8a7e" fill-opacity="0.11" fill-rule="evenodd" transform="translate(115 178) scale(2.01694) translate(-11.84 0.00)"></path><path d="M59.65,63.48 L59.36,62.45 L58.93,61.53 L58.37,60.72 L57.66,60.01 L56.81,59.41 L56.11,58.79 L55.53,58.15 L55.09,57.50 L54.79,56.82 L54.33,56.33 L53.71,56.04 L52.94,55.95 L52.00,56.04 L50.97,55.92 L49.86,55.57 L48.66,55.00 L47.37,54.21 L45.90,53.78 L44.25,53.72 L42.41,54.03 L40.39,54.71 L38.72,55.14 L37.40,55.31 L36.42,55.23 L35.80,54.90 L35.36,54.38 L35.12,53.65 L35.06,52.73 L35.19,51.60 L35.45,50.50 L35.85,49.42 L36.38,48.35 L37.04,47.31 L37.52,46.24 L37.80,45.14 L37.90,44.03 L37.81,42.89 L37.59,41.80 L37.23,40.78 L36.74,39.81 L36.11,38.90 L35.32,38.14 L34.36,37.53 L33.24,37.07 L31.95,36.76 L30.51,35.91 L28.92,34.53 L27.17,32.61 L25.26,30.15 L23.95,28.16 L23.22,26.63 L23.07,25.56 L23.52,24.96 L23.94,24.03 L24.36,22.77 L24.77,21.19 L25.16,19.27 L25.44,17.32 L25.60,15.33 L25.65,13.32 L25.58,11.27 L25.00,9.00 L23.92,6.51 L22.32,3.80 L20.21,0.88 L18.57,-1.56 L17.40,-3.53 L16.70,-5.01 L16.46,-6.02 L15.88,-7.17 L14.95,-8.46 L13.67,-9.89 L12.04,-11.45 L10.74,-13.09 L9.77,-14.79 L9.12,-16.56 L8.81,-18.40 L8.36,-19.92 L7.78,-21.11 L7.05,-21.97 L6.20,-22.52 L5.41,-23.51 L4.69,-24.95 L4.05,-26.85 L3.47,-29.19 L2.87,-31.11 L2.22,-32.60 L1.54,-33.66 L0.82,-34.30 L0.16,-35.04 L-0.46,-35.87 L-1.03,-36.80 L-1.55,-37.83 L-1.88,-38.62 L-2.02,-39.20 L-1.96,-39.54 L-1.72,-39.66 L-1.68,-39.81 L-1.84,-40.02 L-2.21,-40.27 L-2.78,-40.56 L-3.38,-41.12 L-4.00,-41.96 L-4.65,-43.08 L-5.33,-44.48 L-5.87,-45.81 L-6.26,-47.08 L-6.51,-48.28 L-6.61,-49.43 L-6.49,-50.69 L-6.13,-52.07 L-5.55,-53.58 L-4.74,-55.21 L-4.22,-56.87 L-3.99,-58.56 L-4.04,-60.29 L-4.38,-62.05 L-4.56,-63.51 L-4.57,-64.65 L-4.42,-65.48 L-4.11,-66.00 L-3.94,-66.78 L-3.91,-67.79 L-4.03,-69.06 L-4.29,-70.57 L-4.61,-71.83 L-4.98,-72.86 L-5.41,-73.65 L-5.89,-74.19 L-6.37,-74.37 L-6.86,-74.20 L-7.35,-73.66 L-7.84,-72.77 L-8.84,-71.99 L-10.35,-71.32 L-12.36,-70.77 L-14.87,-70.32 L-16.98,-69.62 L-18.70,-68.68 L-20.01,-67.48 L-20.92,-66.02 L-22.00,-64.82 L-23.24,-63.87 L-24.64,-63.18 L-26.20,-62.73 L-27.70,-62.10 L-29.14,-61.29 L-30.52,-60.29 L-31.83,-59.11 L-33.01,-57.77 L-34.05,-56.27 L-34.96,-54.60 L-35.73,-52.78 L-36.20,-50.86 L-36.38,-48.82 L-36.27,-46.68 L-35.87,-44.44 L-35.66,-42.50 L-35.66,-40.86 L-35.85,-39.53 L-36.24,-38.50 L-36.41,-37.53 L-36.37,-36.61 L-36.10,-35.74 L-35.62,-34.93 L-35.37,-34.08 L-35.36,-33.20 L-35.58,-32.28 L-36.04,-31.33 L-36.04,-29.70 L-35.60,-27.37 L-34.71,-24.36 L-33.37,-20.67 L-32.53,-17.69 L-32.20,-15.43 L-32.37,-13.90 L-33.05,-13.08 L-33.56,-12.31 L-33.92,-11.59 L-34.12,-10.91 L-34.16,-10.27 L-33.40,-9.59 L-31.85,-8.86 L-29.49,-8.09 L-26.34,-7.28 L-23.89,-6.54 L-22.14,-5.87 L-21.10,-5.27 L-20.76,-4.75 L-20.52,-4.18 L-20.38,-3.56 L-20.33,-2.89 L-20.39,-2.18 L-20.58,-1.37 L-20.91,-0.48 L-21.38,0.50 L-22.00,1.56 L-22.38,2.47 L-22.55,3.23 L-22.48,3.83 L-22.20,4.27 L-21.76,4.65 L-21.17,4.96 L-20.42,5.20 L-19.52,5.37 L-18.80,5.87 L-18.27,6.69 L-17.92,7.84 L-17.75,9.31 L-17.91,10.65 L-18.39,11.86 L-19.20,12.94 L-20.33,13.89 L-21.20,14.77 L-21.80,15.56 L-22.14,16.27 L-22.22,16.91 L-21.87,17.67 L-21.09,18.54 L-19.88,19.52 L-18.24,20.63 L-17.02,21.56 L-16.23,22.31 L-15.87,22.89 L-15.94,23.30 L-15.86,23.75 L-15.63,24.26 L-15.25,24.81 L-14.73,25.41 L-14.01,26.04 L-13.10,26.71 L-11.98,27.41 L-10.66,28.15 L-9.42,29.02 L-8.26,30.04 L-7.17,31.20 L-6.15,32.49 L-5.19,33.47 L-4.27,34.13 L-3.40,34.47 L-2.58,34.49 L-1.80,34.68 L-1.07,35.03 L-0.39,35.56 L0.25,36.26 L0.88,36.82 L1.50,37.23 L2.10,37.51 L2.71,37.64 L3.01,38.41 L3.01,39.83 L2.71,41.88 L2.10,44.57 L1.52,46.81 L0.94,48.61 L0.37,49.97 L-0.19,50.88 L-0.61,52.16 L-0.89,53.82 L-1.03,55.84 L-1.03,58.24 L-1.34,60.02 L-1.95,61.18 L-2.87,61.73 L-4.09,61.65 L-5.25,61.72 L-6.34,61.96 L-7.36,62.34 L-8.31,62.89 L-8.97,63.58 L-9.34,64.44 L-9.42,65.44 L-9.22,66.60 L-8.84,67.77 L-8.31,68.94 L-7.61,70.12 L-6.75,71.30 L-5.83,72.30 L-4.86,73.13 L-3.82,73.79 L-2.73,74.28 L-1.82,74.37 L-1.09,74.07 L-0.56,73.37 L-0.21,72.29 L-0.11,71.25 L-0.28,70.24 L-0.70,69.27 L-1.37,68.34 L-1.85,67.57 L-2.14,66.96 L-2.23,66.51 L-2.13,66.22 L-1.88,65.93 L-1.49,65.63 L-0.96,65.33 L-0.28,65.02 L0.51,64.90 L1.42,64.96 L2.44,65.22 L3.57,65.67 L5.18,65.85 L7.26,65.77 L9.80,65.43 L12.83,64.83 L15.22,64.30 L16.99,63.83 L18.14,63.44 L18.66,63.11 L19.10,62.71 L19.47,62.23 L19.76,61.69 L19.96,61.07 L20.32,60.64 L20.81,60.40 L21.45,60.34 L22.23,60.48 L23.04,60.42 L23.88,60.16 L24.75,59.70 L25.65,59.04 L26.43,58.69 L27.09,58.65 L27.64,58.92 L28.07,59.50 L28.86,59.93 L30.00,60.21 L31.49,60.34 L33.34,60.32 L34.86,60.72 L36.06,61.52 L36.93,62.73 L37.48,64.36 L38.28,65.48 L39.33,66.08 L40.63,66.19 L42.18,65.78 L43.89,65.63 L45.76,65.75 L47.80,66.13 L50.00,66.77 L51.71,67.32 L52.92,67.80 L53.64,68.19 L53.86,68.50 L54.17,68.56 L54.57,68.38 L55.07,67.95 L55.65,67.27 L56.11,66.82 L56.43,66.61 L56.61,66.63 L56.67,66.88 L56.85,67.06 L57.15,67.15 L57.58,67.17 L58.14,67.11 L58.63,66.95 L59.05,66.66 L59.39,66.27 L59.67,65.77 L59.87,65.39 L60.01,65.14 L60.08,65.02 L60.08,65.02 L60.01,64.76 L59.86,64.25 Z" fill="none" stroke="#2f8a7e" stroke-opacity="0.5" stroke-width="0.89" stroke-linejoin="round" stroke-linecap="round" transform="translate(115 178) scale(2.01694) translate(-11.84 0.00)"></path><path d="M63.76 91.28L63.76 91.28Q61.09 91.28 58.93 90.08Q56.76 88.88 55.49 86.56Q54.21 84.25 54.21 80.92L54.21 80.92L54.21 74.71Q54.21 69.71 57.02 67.03Q59.83 64.35 64.64 64.35L64.64 64.35Q69.42 64.35 72.02 66.88Q74.63 69.41 74.63 73.74L74.63 73.74L74.63 73.89L69.82 73.89L69.82 73.60Q69.82 72.23 69.25 71.12Q68.68 70.01 67.53 69.36Q66.38 68.71 64.64 68.71L64.64 68.71Q62.05 68.71 60.57 70.30Q59.09 71.89 59.09 74.63L59.09 74.63L59.09 81.00Q59.09 83.70 60.57 85.34Q62.05 86.99 64.72 86.99L64.72 86.99Q67.38 86.99 68.60 85.58Q69.82 84.18 69.82 82.03L69.82 82.03L69.82 81.66L63.68 81.66L63.68 77.52L74.63 77.52L74.63 90.76L70.12 90.76L70.12 88.28L69.45 88.28Q69.19 88.91 68.62 89.62Q68.05 90.32 66.90 90.80Q65.75 91.28 63.76 91.28Z M84.11 90.76L79.44 90.76L79.44 72.41L84.03 72.41L84.03 74.41L84.70 74.41Q85.18 73.48 86.29 72.80Q87.40 72.12 89.21 72.12L89.21 72.12Q91.17 72.12 92.36 72.87Q93.54 73.63 94.17 74.85L94.17 74.85L94.84 74.85Q95.46 73.67 96.61 72.89Q97.76 72.12 99.87 72.12L99.87 72.12Q101.57 72.12 102.96 72.84Q104.34 73.56 105.18 75.02Q106.01 76.48 106.01 78.70L106.01 78.70L106.01 90.76L101.35 90.76L101.35 79.03Q101.35 77.52 100.57 76.76Q99.79 76.00 98.39 76.00L98.39 76.00Q96.80 76.00 95.93 77.02Q95.06 78.04 95.06 79.92L95.06 79.92L95.06 90.76L90.40 90.76L90.40 79.03Q90.40 77.52 89.62 76.76Q88.84 76.00 87.44 76.00L87.44 76.00Q85.84 76.00 84.97 77.02Q84.11 78.04 84.11 79.92L84.11 79.92L84.11 90.76Z M118.03 91.06L118.03 91.06Q115.89 91.06 114.28 90.08Q112.67 89.10 111.78 87.36Q110.89 85.62 110.89 83.36L110.89 83.36L110.89 72.41L115.56 72.41L115.56 82.99Q115.56 85.07 116.57 86.10Q117.59 87.14 119.48 87.14L119.48 87.14Q121.62 87.14 122.81 85.71Q123.99 84.29 123.99 81.74L123.99 81.74L123.99 72.41L128.65 72.41L128.65 90.76L124.07 90.76L124.07 88.36L123.40 88.36Q122.96 89.28 121.73 90.17Q120.51 91.06 118.03 91.06Z M138.50 90.76L133.83 90.76L133.83 72.41L138.42 72.41L138.42 74.82L139.09 74.82Q139.53 73.85 140.75 72.98Q141.97 72.12 144.45 72.12L144.45 72.12Q146.60 72.12 148.21 73.10Q149.82 74.08 150.70 75.80Q151.59 77.52 151.59 79.81L151.59 79.81L151.59 90.76L146.93 90.76L146.93 80.18Q146.93 78.11 145.91 77.07Q144.90 76.04 143.01 76.04L143.01 76.04Q140.86 76.04 139.68 77.46Q138.50 78.89 138.50 81.44L138.50 81.44L138.50 90.76Z M164.03 91.28L164.03 91.28Q161.84 91.28 159.94 90.19Q158.03 89.10 156.88 86.99Q155.74 84.88 155.74 81.88L155.74 81.88L155.74 81.29Q155.74 78.29 156.88 76.19Q158.03 74.08 159.92 72.98Q161.81 71.89 164.03 71.89L164.03 71.89Q165.69 71.89 166.82 72.28Q167.95 72.67 168.65 73.26Q169.35 73.85 169.72 74.52L169.72 74.52L170.39 74.52L170.39 64.86L175.05 64.86L175.05 90.76L170.46 90.76L170.46 88.54L169.80 88.54Q169.17 89.58 167.85 90.43Q166.54 91.28 164.03 91.28ZM165.43 87.21L165.43 87.21Q167.58 87.21 169.02 85.82Q170.46 84.44 170.46 81.77L170.46 81.77L170.46 81.40Q170.46 78.74 169.04 77.35Q167.61 75.96 165.43 75.96L165.43 75.96Q163.28 75.96 161.84 77.35Q160.40 78.74 160.40 81.40L160.40 81.40L160.40 81.77Q160.40 84.44 161.84 85.82Q163.28 87.21 165.43 87.21Z" fill="#1d1c19"></path><path d="M54.95 115.18L54.95 115.18Q54.04 115.18 53.26 114.73Q52.48 114.28 52.00 113.43Q51.53 112.59 51.53 111.39L51.53 111.39L51.53 111.16Q51.53 109.98 52.00 109.12Q52.46 108.27 53.24 107.82Q54.02 107.37 54.95 107.37L54.95 107.37Q55.67 107.37 56.16 107.55Q56.65 107.73 56.96 108.00Q57.28 108.28 57.44 108.58L57.44 108.58L57.68 108.58L57.68 104.47L59.23 104.47L59.23 114.97L57.71 114.97L57.71 113.92L57.47 113.92Q57.19 114.40 56.61 114.79Q56.03 115.18 54.95 115.18ZM55.39 113.83L55.39 113.83Q56.39 113.83 57.04 113.19Q57.70 112.54 57.70 111.34L57.70 111.34L57.70 111.21Q57.70 110.02 57.05 109.38Q56.41 108.73 55.39 108.73L55.39 108.73Q54.40 108.73 53.74 109.38Q53.09 110.02 53.09 111.21L53.09 111.21L53.09 111.34Q53.09 112.54 53.74 113.19Q54.40 113.83 55.39 113.83Z M64.80 115.18L64.80 115.18Q64.01 115.18 63.38 114.91Q62.76 114.64 62.39 114.12Q62.03 113.59 62.03 112.84L62.03 112.84Q62.03 112.08 62.39 111.57Q62.76 111.07 63.40 110.82Q64.04 110.56 64.85 110.56L64.85 110.56L67.10 110.56L67.10 110.08Q67.10 109.44 66.71 109.05Q66.32 108.66 65.51 108.66L65.51 108.66Q64.71 108.66 64.29 109.03Q63.87 109.41 63.74 110.01L63.74 110.01L62.30 109.54Q62.48 108.94 62.88 108.45Q63.27 107.97 63.93 107.67Q64.59 107.37 65.52 107.37L65.52 107.37Q66.96 107.37 67.79 108.10Q68.61 108.84 68.61 110.19L68.61 110.19L68.61 113.23Q68.61 113.68 69.03 113.68L69.03 113.68L69.66 113.68L69.66 114.97L68.51 114.97Q67.98 114.97 67.65 114.70Q67.32 114.43 67.32 113.97L67.32 113.97L67.32 113.92L67.10 113.92Q66.98 114.15 66.74 114.45Q66.50 114.75 66.03 114.96Q65.57 115.18 64.80 115.18ZM65.03 113.91L65.03 113.91Q65.96 113.91 66.53 113.37Q67.10 112.84 67.10 111.91L67.10 111.91L67.10 111.76L64.94 111.76Q64.32 111.76 63.95 112.02Q63.57 112.29 63.57 112.80L63.57 112.80Q63.57 113.31 63.96 113.61Q64.35 113.91 65.03 113.91Z  M81.26 115.18L81.26 115.18Q80.18 115.18 79.60 114.79Q79.03 114.40 78.74 113.92L78.74 113.92L78.50 113.92L78.50 114.97L76.99 114.97L76.99 104.47L78.53 104.47L78.53 108.58L78.77 108.58Q78.95 108.28 79.25 108.00Q79.55 107.73 80.05 107.55Q80.54 107.37 81.26 107.37L81.26 107.37Q82.19 107.37 82.97 107.82Q83.75 108.27 84.22 109.12Q84.68 109.98 84.68 111.16L84.68 111.16L84.68 111.39Q84.68 112.59 84.21 113.43Q83.74 114.28 82.97 114.73Q82.19 115.18 81.26 115.18ZM80.81 113.83L80.81 113.83Q81.82 113.83 82.47 113.19Q83.12 112.54 83.12 111.34L83.12 111.34L83.12 111.21Q83.12 110.02 82.48 109.38Q81.83 108.73 80.81 108.73L80.81 108.73Q79.82 108.73 79.17 109.38Q78.52 110.02 78.52 111.21L78.52 111.21L78.52 111.34Q78.52 112.54 79.17 113.19Q79.82 113.83 80.81 113.83Z M89.15 114.97L87.60 114.97L87.60 107.58L89.15 107.58L89.15 114.97ZM88.38 106.57L88.38 106.57Q87.93 106.57 87.62 106.28Q87.32 105.99 87.32 105.52L87.32 105.52Q87.32 105.06 87.62 104.76Q87.93 104.47 88.38 104.47L88.38 104.47Q88.85 104.47 89.15 104.76Q89.45 105.06 89.45 105.52L89.45 105.52Q89.45 105.99 89.15 106.28Q88.85 106.57 88.38 106.57Z M93.99 114.97L92.44 114.97L92.44 107.58L93.96 107.58L93.96 108.69L94.20 108.69Q94.41 108.24 94.95 107.85Q95.49 107.46 96.55 107.46L96.55 107.46Q97.39 107.46 98.04 107.83Q98.70 108.21 99.07 108.89Q99.45 109.57 99.45 110.53L99.45 110.53L99.45 114.97L97.90 114.97L97.90 110.65Q97.90 109.69 97.42 109.23Q96.94 108.78 96.10 108.78L96.10 108.78Q95.14 108.78 94.56 109.41Q93.99 110.04 93.99 111.24L93.99 111.24L93.99 114.97Z  M109.04 114.97L107.49 114.97L107.49 107.58L109.04 107.58L109.04 114.97ZM108.27 106.57L108.27 106.57Q107.82 106.57 107.51 106.28Q107.21 105.99 107.21 105.52L107.21 105.52Q107.21 105.06 107.51 104.76Q107.82 104.47 108.27 104.47L108.27 104.47Q108.74 104.47 109.04 104.76Q109.34 105.06 109.34 105.52L109.34 105.52Q109.34 105.99 109.04 106.28Q108.74 106.57 108.27 106.57Z  M120.22 115.18L120.22 115.18Q119.30 115.18 118.52 114.73Q117.74 114.28 117.27 113.43Q116.80 112.59 116.80 111.39L116.80 111.39L116.80 111.16Q116.80 109.98 117.26 109.12Q117.73 108.27 118.51 107.82Q119.29 107.37 120.22 107.37L120.22 107.37Q120.94 107.37 121.42 107.55Q121.91 107.73 122.23 108.00Q122.54 108.28 122.71 108.58L122.71 108.58L122.95 108.58L122.95 104.47L124.49 104.47L124.49 114.97L122.98 114.97L122.98 113.92L122.74 113.92Q122.45 114.40 121.88 114.79Q121.30 115.18 120.22 115.18ZM120.65 113.83L120.65 113.83Q121.66 113.83 122.31 113.19Q122.96 112.54 122.96 111.34L122.96 111.34L122.96 111.21Q122.96 110.02 122.32 109.38Q121.67 108.73 120.65 108.73L120.65 108.73Q119.66 108.73 119.01 109.38Q118.36 110.02 118.36 111.21L118.36 111.21L118.36 111.34Q118.36 112.54 119.01 113.19Q119.66 113.83 120.65 113.83Z M130.07 115.18L130.07 115.18Q129.27 115.18 128.65 114.91Q128.03 114.64 127.66 114.12Q127.29 113.59 127.29 112.84L127.29 112.84Q127.29 112.08 127.66 111.57Q128.03 111.07 128.66 110.82Q129.30 110.56 130.11 110.56L130.11 110.56L132.36 110.56L132.36 110.08Q132.36 109.44 131.97 109.05Q131.58 108.66 130.77 108.66L130.77 108.66Q129.98 108.66 129.56 109.03Q129.14 109.41 129.00 110.01L129.00 110.01L127.56 109.54Q127.74 108.94 128.14 108.45Q128.54 107.97 129.20 107.67Q129.86 107.37 130.79 107.37L130.79 107.37Q132.23 107.37 133.05 108.10Q133.88 108.84 133.88 110.19L133.88 110.19L133.88 113.23Q133.88 113.68 134.30 113.68L134.30 113.68L134.93 113.68L134.93 114.97L133.77 114.97Q133.25 114.97 132.92 114.70Q132.59 114.43 132.59 113.97L132.59 113.97L132.59 113.92L132.36 113.92Q132.24 114.15 132.00 114.45Q131.76 114.75 131.30 114.96Q130.83 115.18 130.07 115.18ZM130.29 113.91L130.29 113.91Q131.22 113.91 131.79 113.37Q132.36 112.84 132.36 111.91L132.36 111.91L132.36 111.76L130.20 111.76Q129.59 111.76 129.21 112.02Q128.84 112.29 128.84 112.80L128.84 112.80Q128.84 113.31 129.23 113.61Q129.62 113.91 130.29 113.91Z M138.97 114.97L137.43 114.97L137.43 104.47L138.97 104.47L138.97 108.63L139.21 108.63Q139.36 108.34 139.64 108.07Q139.92 107.80 140.38 107.63Q140.83 107.46 141.54 107.46L141.54 107.46Q142.38 107.46 143.03 107.83Q143.68 108.21 144.06 108.89Q144.43 109.57 144.43 110.53L144.43 110.53L144.43 114.97L142.89 114.97L142.89 110.65Q142.89 109.69 142.41 109.23Q141.93 108.78 141.09 108.78L141.09 108.78Q140.13 108.78 139.55 109.41Q138.97 110.04 138.97 111.24L138.97 111.24L138.97 114.97Z M151.12 115.18L151.12 115.18Q150.01 115.18 149.14 114.72Q148.28 114.27 147.79 113.41Q147.29 112.56 147.29 111.39L147.29 111.39L147.29 111.16Q147.29 109.99 147.79 109.14Q148.28 108.30 149.14 107.83Q150.01 107.37 151.12 107.37L151.12 107.37Q152.23 107.37 153.10 107.83Q153.97 108.30 154.46 109.14Q154.96 109.99 154.96 111.16L154.96 111.16L154.96 111.39Q154.96 112.56 154.46 113.41Q153.97 114.27 153.10 114.72Q152.23 115.18 151.12 115.18ZM151.12 113.80L151.12 113.80Q152.14 113.80 152.77 113.15Q153.41 112.50 153.41 111.34L153.41 111.34L153.41 111.21Q153.41 110.05 152.78 109.40Q152.15 108.75 151.12 108.75L151.12 108.75Q150.11 108.75 149.47 109.40Q148.84 110.05 148.84 111.21L148.84 111.21L148.84 111.34Q148.84 112.50 149.47 113.15Q150.11 113.80 151.12 113.80Z M160.17 115.18L160.17 115.18Q159.38 115.18 158.75 114.91Q158.13 114.64 157.76 114.12Q157.40 113.59 157.40 112.84L157.40 112.84Q157.40 112.08 157.76 111.57Q158.13 111.07 158.77 110.82Q159.41 110.56 160.22 110.56L160.22 110.56L162.47 110.56L162.47 110.08Q162.47 109.44 162.08 109.05Q161.69 108.66 160.88 108.66L160.88 108.66Q160.08 108.66 159.66 109.03Q159.24 109.41 159.11 110.01L159.11 110.01L157.67 109.54Q157.85 108.94 158.24 108.45Q158.64 107.97 159.30 107.67Q159.96 107.37 160.89 107.37L160.89 107.37Q162.33 107.37 163.16 108.10Q163.98 108.84 163.98 110.19L163.98 110.19L163.98 113.23Q163.98 113.68 164.40 113.68L164.40 113.68L165.03 113.68L165.03 114.97L163.88 114.97Q163.35 114.97 163.02 114.70Q162.69 114.43 162.69 113.97L162.69 113.97L162.69 113.92L162.47 113.92Q162.35 114.15 162.11 114.45Q161.87 114.75 161.40 114.96Q160.94 115.18 160.17 115.18ZM160.40 113.91L160.40 113.91Q161.33 113.91 161.90 113.37Q162.47 112.84 162.47 111.91L162.47 111.91L162.47 111.76L160.31 111.76Q159.69 111.76 159.32 112.02Q158.94 112.29 158.94 112.80L158.94 112.80Q158.94 113.31 159.33 113.61Q159.72 113.91 160.40 113.91Z M169.08 114.97L167.53 114.97L167.53 107.58L169.05 107.58L169.05 108.45L169.29 108.45Q169.50 108.06 169.96 107.76Q170.43 107.46 171.22 107.46L171.22 107.46Q172.05 107.46 172.55 107.79Q173.05 108.13 173.31 108.66L173.31 108.66L173.55 108.66Q173.80 108.15 174.29 107.80Q174.78 107.46 175.68 107.46L175.68 107.46Q176.40 107.46 176.95 107.75Q177.51 108.04 177.84 108.62Q178.17 109.20 178.17 110.05L178.17 110.05L178.17 114.97L176.62 114.97L176.62 110.17Q176.62 109.50 176.25 109.13Q175.89 108.76 175.21 108.76L175.21 108.76Q174.49 108.76 174.06 109.23Q173.62 109.69 173.62 110.56L173.62 110.56L173.62 114.97L172.08 114.97L172.08 110.17Q172.08 109.50 171.71 109.13Q171.34 108.76 170.67 108.76L170.67 108.76Q169.95 108.76 169.51 109.23Q169.08 109.69 169.08 110.56L169.08 110.56L169.08 114.97Z" fill="#1d1c19" fill-opacity="0.7"></path><svg x="-17.50" y="140.21" width="258.46" height="132.82" viewBox="0 0 360 185" overflow="visible"><g fill="#1d1c19"><g transform="translate(64.98,0)"><path d="M22.88 133.59 L22.88 133.59 Q21.33 133.16 20.38 132.82 L20.38 132.82 L19.44 132.56 Q19.61 132.13 19.31 131.78 Q19.01 131.44 18.06 131.35 L18.06 131.35 Q16.77 130.49 15.39 128.95 Q14.02 127.40 12.99 125.76 Q11.95 124.13 11.61 123.36 L11.61 123.36 Q11.18 122.32 11.44 121.98 L11.44 121.98 Q11.52 121.81 11.70 121.72 L11.70 121.72 Q12.38 121.46 13.33 121.03 L13.33 121.03 Q14.28 120.35 15.35 120.00 Q16.43 119.66 17.11 121.12 L17.11 121.12 Q18.23 123.10 20.60 124.47 Q22.96 125.85 26.02 126.11 Q29.07 126.37 32.16 125.08 L32.16 125.08 Q34.23 124.13 34.40 122.45 Q34.57 120.78 33.11 118.54 L33.11 118.54 Q32.85 117.85 32.38 117.42 Q31.91 116.99 31.00 116.30 Q30.10 115.62 28.47 114.07 L28.47 114.07 Q27.18 113.47 26.10 112.95 Q25.03 112.43 23.82 111.83 L23.82 111.83 Q22.45 111.14 20.73 109.90 Q19.01 108.65 17.54 107.14 Q16.08 105.64 15.31 104.26 L15.31 104.26 Q13.93 102.97 13.59 100.69 Q13.24 98.42 13.72 95.84 Q14.19 93.26 15.31 91.19 L15.31 91.19 Q15.82 89.99 17.20 88.05 Q18.58 86.12 20.30 84.05 Q22.02 81.99 23.61 80.31 Q25.20 78.64 26.14 78.03 L26.14 78.03 Q26.83 77.35 27.61 76.57 L27.61 76.57 L28.38 75.88 Q28.47 75.45 28.72 75.45 L28.72 75.45 L28.90 75.45 Q29.33 75.20 30.79 74.59 Q32.25 73.99 33.97 72.36 L33.97 72.36 Q39.73 69.61 43.77 68.62 Q47.82 67.63 50.14 67.63 L50.14 67.63 Q52.29 67.71 54.35 68.79 Q56.42 69.86 57.92 71.50 Q59.43 73.13 59.68 75.20 L59.68 75.20 Q60.29 77.26 59.13 80.14 Q57.96 83.02 55.94 85.56 Q53.92 88.10 51.77 89.30 L51.77 89.30 Q49.36 90.33 47.69 89.56 Q46.01 88.78 46.10 87.15 L46.10 87.15 Q46.10 86.46 46.57 85.52 Q47.04 84.57 49.19 82.16 L49.19 82.16 Q51.94 78.12 52.12 76.40 Q52.29 74.68 50.57 74.42 L50.57 74.42 Q50.05 74.25 48.59 74.51 Q47.13 74.77 45.45 75.15 Q43.77 75.54 42.53 75.97 Q41.28 76.40 41.28 76.57 L41.28 76.57 L41.28 76.83 Q41.28 76.92 41.19 77.00 L41.19 77.00 Q41.19 77.09 40.94 77.00 L40.94 77.00 Q40.76 77.00 39.78 77.56 Q38.79 78.12 37.41 78.98 Q36.03 79.84 34.70 80.74 Q33.37 81.65 32.42 82.33 Q31.48 83.02 31.39 83.19 L31.39 83.19 Q31.22 84.14 29.41 84.91 L29.41 84.91 Q27.69 85.95 26.40 87.84 Q25.11 89.73 23.39 92.65 L23.39 92.65 Q21.93 94.63 21.33 96.91 Q20.73 99.19 21.33 100.57 L21.33 100.57 Q21.76 101.94 23.69 103.28 Q25.63 104.61 28.98 106.59 L28.98 106.59 Q31.91 108.22 34.49 110.03 Q37.07 111.83 38.87 113.51 Q40.68 115.19 41.19 116.30 L41.19 116.30 Q42.23 117.77 42.44 119.66 Q42.66 121.55 42.44 123.31 Q42.23 125.08 41.88 126.19 L41.88 126.19 Q41.28 127.57 40.03 129.12 Q38.79 130.67 37.75 130.58 L37.75 130.58 Q36.81 130.84 36.34 131.18 Q35.86 131.53 35.26 131.78 L35.26 131.78 Q34.66 132.13 32.42 132.60 Q30.19 133.07 27.52 133.38 Q24.85 133.68 22.88 133.59 Z M67.77 126.28 L67.77 126.28 Q65.19 127.74 62.31 127.96 Q59.43 128.17 56.93 127.18 Q54.44 126.19 52.89 124.22 L52.89 124.22 Q52.03 123.10 51.26 120.65 Q50.48 118.20 51.00 113.98 L51.00 113.98 Q51.51 110.03 53.45 105.98 Q55.38 101.94 58.22 98.85 Q61.06 95.75 64.41 94.63 L64.41 94.63 Q65.62 94.20 66.86 93.99 Q68.11 93.77 70.18 93.94 L70.18 93.94 Q72.15 94.20 73.70 94.93 Q75.25 95.66 75.94 96.52 L75.94 96.52 Q77.31 97.90 77.74 99.19 Q78.17 100.48 78.09 101.68 L78.09 101.68 Q77.66 104.44 75.64 107.62 Q73.62 110.80 70.00 112.35 L70.00 112.35 Q68.54 112.95 66.56 113.12 Q64.59 113.29 61.15 112.61 L61.15 112.61 Q59.08 112.18 58.44 113.04 Q57.79 113.90 57.88 116.39 L57.88 116.39 Q58.05 117.94 58.61 119.10 Q59.17 120.26 60.72 120.69 L60.72 120.69 Q62.69 121.03 63.55 120.73 Q64.41 120.43 65.70 119.83 L65.70 119.83 Q66.39 119.40 67.08 118.88 L67.08 118.88 L68.37 117.85 Q68.97 117.34 69.40 117.08 L69.40 117.08 Q69.83 116.73 70.26 116.65 Q70.69 116.56 71.12 116.56 L71.12 116.56 Q72.07 116.65 72.93 117.59 Q73.79 118.54 74.05 119.40 L74.05 119.40 Q74.05 120.09 73.19 121.33 Q72.33 122.58 70.91 123.92 Q69.49 125.25 67.77 126.28 Z M66.65 107.10 L66.65 107.10 Q67.25 106.84 68.41 105.90 Q69.57 104.95 70.52 103.88 Q71.47 102.80 71.47 102.20 L71.47 102.20 Q71.47 101.25 70.22 100.57 Q68.97 99.88 66.99 100.31 L66.99 100.31 Q66.31 100.48 65.36 101.25 Q64.41 102.03 63.47 103.02 Q62.52 104.01 61.83 104.91 Q61.15 105.81 60.89 106.33 L60.89 106.33 Q61.23 106.76 62.26 107.02 Q63.30 107.27 64.54 107.27 Q65.79 107.27 66.65 107.10 Z M96.49 126.28 L96.49 126.28 Q93.91 127.74 91.03 127.96 Q88.15 128.17 85.66 127.18 Q83.16 126.19 81.61 124.22 L81.61 124.22 Q80.75 123.10 79.98 120.65 Q79.21 118.20 79.72 113.98 L79.72 113.98 Q80.24 110.03 82.17 105.98 Q84.11 101.94 86.95 98.85 Q89.78 95.75 93.14 94.63 L93.14 94.63 Q94.34 94.20 95.59 93.99 Q96.84 93.77 98.90 93.94 L98.90 93.94 Q100.88 94.20 102.43 94.93 Q103.97 95.66 104.66 96.52 L104.66 96.52 Q106.04 97.90 106.47 99.19 Q106.90 100.48 106.81 101.68 L106.81 101.68 Q106.38 104.44 104.36 107.62 Q102.34 110.80 98.73 112.35 L98.73 112.35 Q97.27 112.95 95.29 113.12 Q93.31 113.29 89.87 112.61 L89.87 112.61 Q87.81 112.18 87.16 113.04 Q86.52 113.90 86.60 116.39 L86.60 116.39 Q86.77 117.94 87.33 119.10 Q87.89 120.26 89.44 120.69 L89.44 120.69 Q91.42 121.03 92.28 120.73 Q93.14 120.43 94.43 119.83 L94.43 119.83 Q95.12 119.40 95.80 118.88 L95.80 118.88 L97.09 117.85 Q97.70 117.34 98.13 117.08 L98.13 117.08 Q98.56 116.73 98.99 116.65 Q99.42 116.56 99.85 116.56 L99.85 116.56 Q100.79 116.65 101.65 117.59 Q102.51 118.54 102.77 119.40 L102.77 119.40 Q102.77 120.09 101.91 121.33 Q101.05 122.58 99.63 123.92 Q98.21 125.25 96.49 126.28 Z M95.37 107.10 L95.37 107.10 Q95.98 106.84 97.14 105.90 Q98.30 104.95 99.24 103.88 Q100.19 102.80 100.19 102.20 L100.19 102.20 Q100.19 101.25 98.94 100.57 Q97.70 99.88 95.72 100.31 L95.72 100.31 Q95.03 100.48 94.08 101.25 Q93.14 102.03 92.19 103.02 Q91.25 104.01 90.56 104.91 Q89.87 105.81 89.61 106.33 L89.61 106.33 Q89.96 106.76 90.99 107.02 Q92.02 107.27 93.27 107.27 Q94.51 107.27 95.37 107.10 Z M118.42 145.20 L118.42 145.20 Q116.01 146.15 113.39 144.90 Q110.77 143.65 108.88 140.99 L108.88 140.99 Q108.53 140.47 107.84 139.14 Q107.16 137.80 106.51 136.26 Q105.87 134.71 105.56 133.59 Q105.26 132.47 105.52 132.30 L105.52 132.30 Q105.87 131.35 107.07 131.18 Q108.27 131.01 109.48 131.31 Q110.68 131.61 110.85 132.13 L110.85 132.13 Q111.11 132.73 111.37 133.38 Q111.63 134.02 112.01 134.58 Q112.40 135.14 112.75 135.57 L112.75 135.57 Q113.69 137.03 114.81 137.59 Q115.93 138.15 116.53 137.72 L116.53 137.72 Q117.99 136.60 118.72 135.09 Q119.45 133.59 120.66 129.81 L120.66 129.81 Q121.60 126.62 122.29 124.30 Q122.98 121.98 123.75 120.00 L123.75 120.00 Q124.01 118.97 124.44 118.20 L124.44 118.20 Q124.53 118.02 124.61 117.85 L124.61 117.85 Q123.41 118.71 122.46 119.57 L122.46 119.57 Q121.17 120.78 118.94 121.72 L118.94 121.72 Q118.42 122.32 116.40 122.45 Q114.38 122.58 112.49 121.98 L112.49 121.98 Q111.28 121.29 110.55 120.56 Q109.82 119.83 109.35 118.88 Q108.88 117.94 108.36 116.65 L108.36 116.65 Q107.76 115.36 108.19 112.43 Q108.62 109.51 109.74 106.59 L109.74 106.59 Q110.77 104.44 112.75 101.94 Q114.72 99.45 116.96 97.43 Q119.20 95.41 121.00 94.89 L121.00 94.89 Q121.69 94.55 123.41 94.07 Q125.13 93.60 126.68 94.03 L126.68 94.03 Q128.14 94.20 128.91 94.67 Q129.69 95.15 131.41 96.61 L131.41 96.61 Q132.53 97.73 134.16 99.49 Q135.79 101.25 136.22 102.46 L136.22 102.46 Q136.83 103.75 136.48 105.25 Q136.14 106.76 135.28 107.88 L135.28 107.88 Q134.50 108.99 133.64 110.11 Q132.78 111.23 132.35 113.21 L132.35 113.21 Q131.92 115.79 130.72 119.01 Q129.52 122.24 128.83 124.99 L128.83 124.99 L127.45 130.32 Q125.30 137.63 122.72 140.94 Q120.14 144.25 118.42 145.20 Z M116.62 115.62 L116.62 115.62 Q118.34 115.53 119.58 115.23 Q120.83 114.93 121.95 113.85 Q123.07 112.78 124.53 110.54 L124.53 110.54 Q125.99 108.48 126.59 106.76 Q127.19 105.04 127.02 102.89 L127.02 102.89 Q126.94 101.51 126.25 101.08 Q125.56 100.65 124.44 100.82 L124.44 100.82 Q122.81 101.08 121.52 102.16 Q120.23 103.23 118.51 105.47 L118.51 105.47 Q117.22 107.19 116.36 109.60 L116.36 109.60 Q115.50 112.18 115.63 113.72 Q115.76 115.27 116.62 115.62 Z M143.88 138.41 L143.88 138.41 Q143.36 138.75 141.56 137.59 Q139.75 136.43 138.55 135.05 L138.55 135.05 Q137.94 134.36 137.77 133.59 Q137.60 132.82 137.86 130.67 L137.86 130.67 Q138.20 129.72 138.24 128.86 Q138.29 128.00 138.29 127.66 L138.29 127.66 Q138.29 127.14 138.59 125.25 Q138.89 123.36 139.23 121.25 Q139.58 119.14 139.84 118.02 L139.84 118.02 Q139.84 117.94 139.96 117.42 Q140.09 116.91 140.18 116.65 L140.18 116.65 Q140.35 115.87 140.61 114.76 Q140.87 113.64 141.13 111.75 L141.13 111.75 Q141.81 109.60 142.29 107.49 Q142.76 105.38 142.76 104.61 L142.76 104.61 Q142.76 103.06 143.96 102.37 L143.96 102.37 Q144.05 101.94 144.48 101.04 Q144.91 100.14 145.25 99.53 L145.25 99.53 Q146.97 94.63 148.09 91.71 Q149.21 88.78 150.41 86.63 L150.41 86.63 Q150.93 85.17 151.57 83.62 Q152.22 82.08 152.91 81.22 L152.91 81.22 Q153.51 80.01 155.01 78.25 Q156.52 76.49 158.24 74.85 Q159.96 73.22 160.99 72.44 L160.99 72.44 Q162.88 71.50 164.52 70.90 Q166.15 70.29 167.96 70.29 L167.96 70.29 Q169.59 70.29 170.84 71.03 Q172.09 71.76 174.58 73.99 L174.58 73.99 Q175.44 75.11 175.44 76.14 Q175.44 77.17 175.01 77.86 L175.01 77.86 Q174.41 79.24 173.20 81.26 Q172.00 83.28 170.88 84.87 Q169.76 86.46 169.25 86.55 L169.25 86.55 Q168.22 87.15 167.10 86.89 Q165.98 86.63 165.98 85.34 L165.98 85.34 Q165.98 84.74 166.07 84.23 L166.07 84.23 L166.07 83.71 Q166.32 82.59 166.71 81.73 Q167.10 80.87 167.44 80.27 L167.44 80.27 Q168.13 79.15 167.83 78.12 Q167.53 77.09 165.64 77.26 L165.64 77.26 Q165.38 77.43 164.65 78.08 Q163.92 78.72 163.10 79.54 Q162.28 80.36 161.68 81.09 Q161.08 81.82 161.08 82.08 L161.08 82.08 L160.65 82.94 Q160.13 83.88 159.19 85.00 L159.19 85.00 Q158.58 85.86 158.15 86.63 Q157.72 87.41 157.72 87.84 L157.72 87.84 Q157.72 88.18 157.64 88.44 Q157.55 88.70 157.21 88.70 L157.21 88.70 L156.95 89.56 Q156.61 90.42 155.92 91.62 L155.92 91.62 Q155.57 92.48 155.19 93.21 Q154.80 93.94 154.46 94.29 L154.46 94.29 L154.37 94.46 L154.03 95.41 Q153.60 96.44 153.17 97.47 Q152.74 98.50 152.74 98.67 L152.74 98.67 Q152.74 99.02 153.77 99.02 Q154.80 99.02 156.26 98.72 Q157.72 98.42 159.10 98.07 L159.10 98.07 Q160.30 97.73 160.82 97.73 Q161.34 97.73 162.45 98.07 L162.45 98.07 Q163.14 98.50 163.57 99.58 Q164.00 100.65 164.22 101.73 Q164.43 102.80 164.26 103.32 L164.26 103.32 Q164.17 103.66 162.32 104.26 Q160.48 104.87 158.67 105.21 L158.67 105.21 Q157.12 105.55 155.19 105.94 Q153.25 106.33 151.79 106.72 Q150.33 107.10 150.24 107.45 L150.24 107.45 Q149.90 107.45 149.68 107.88 Q149.47 108.31 149.47 108.65 L149.47 108.65 Q149.47 109.77 149.04 110.46 L149.04 110.46 Q148.87 110.97 148.48 112.56 Q148.09 114.15 147.70 116.00 Q147.32 117.85 147.02 119.44 Q146.72 121.03 146.72 121.55 L146.72 121.55 Q146.20 122.15 146.11 123.06 Q146.03 123.96 146.03 124.65 L146.03 124.65 Q145.68 125.33 145.60 125.89 Q145.51 126.45 145.51 126.80 L145.51 126.80 L145.51 127.14 Q145.51 127.40 145.43 127.66 L145.43 127.66 Q145.34 128.52 145.21 129.94 Q145.08 131.35 145.08 132.73 L145.08 132.73 L144.82 135.22 Q144.74 136.34 144.52 137.16 Q144.31 137.98 143.88 138.41 Z M186.02 127.83 L186.02 127.83 Q185.16 126.97 184.64 125.46 Q184.13 123.96 183.61 121.98 L183.61 121.98 Q183.44 121.29 183.48 120.43 Q183.52 119.57 183.44 119.06 L183.44 119.06 Q183.18 119.66 182.62 120.60 Q182.06 121.55 181.55 121.98 L181.55 121.98 Q181.20 122.32 180.00 123.31 Q178.79 124.30 177.59 124.90 L177.59 124.90 Q174.75 126.71 172.56 126.58 Q170.37 126.45 168.73 124.39 L168.73 124.39 Q167.36 123.27 166.50 121.55 Q165.64 119.83 166.15 117.42 L166.15 117.42 Q166.32 114.41 167.01 111.53 Q167.70 108.65 169.85 103.83 L169.85 103.83 Q171.66 100.31 172.60 98.33 Q173.55 96.35 173.81 96.01 L173.81 96.01 Q175.10 95.58 176.99 96.05 Q178.88 96.52 179.05 97.73 L179.05 97.73 Q179.57 98.59 179.05 100.95 Q178.54 103.32 176.99 106.33 L176.99 106.33 Q175.78 109.25 174.71 112.00 Q173.63 114.76 173.42 116.65 Q173.20 118.54 174.41 118.97 L174.41 118.97 Q175.18 119.40 176.69 118.88 Q178.19 118.37 180.26 115.79 Q182.32 113.21 184.64 107.62 L184.64 107.62 Q185.33 105.90 185.67 104.56 Q186.02 103.23 186.10 101.60 L186.10 101.60 Q185.93 100.57 186.66 99.45 Q187.39 98.33 188.43 97.73 L188.43 97.73 Q188.77 97.30 189.37 96.87 L189.37 96.87 Q189.80 96.61 189.97 96.78 L189.97 96.78 Q190.06 96.78 190.15 96.95 L190.15 96.95 L191.52 96.87 Q191.87 96.78 192.30 97.56 Q192.73 98.33 193.16 98.67 L193.16 98.67 Q194.10 99.45 194.02 102.03 Q193.93 104.61 191.95 109.25 L191.95 109.25 Q190.32 112.78 189.76 114.58 Q189.20 116.39 189.11 118.11 L189.11 118.11 Q189.11 119.66 189.37 120.73 Q189.63 121.81 190.92 122.93 L190.92 122.93 Q191.87 123.53 191.99 124.95 Q192.12 126.37 192.04 127.40 L192.04 127.40 Q191.87 128.17 190.70 128.47 Q189.54 128.77 188.21 128.60 Q186.88 128.43 186.02 127.83 Z M197.80 126.54 L197.80 126.54 Q197.11 125.85 196.81 124.47 Q196.51 123.10 196.60 121.77 Q196.68 120.43 197.03 119.74 L197.03 119.74 Q197.03 119.06 197.24 118.67 Q197.46 118.28 197.37 117.94 L197.37 117.94 Q197.28 117.59 197.54 116.73 Q197.80 115.87 198.06 115.10 L198.06 115.10 Q198.66 113.72 199.43 111.53 Q200.21 109.34 200.98 107.06 Q201.76 104.78 202.27 103.10 Q202.79 101.43 202.87 101.08 L202.87 101.08 Q202.87 100.05 204.25 99.96 L204.25 99.96 Q205.28 99.62 206.74 100.82 Q208.21 102.03 209.07 103.40 L209.07 103.40 Q209.75 104.09 209.58 105.21 Q209.41 106.33 208.46 108.39 L208.46 108.39 Q208.12 109.08 207.65 110.67 Q207.17 112.26 207.00 113.29 L207.00 113.29 Q206.66 113.98 206.18 115.23 Q205.71 116.48 205.37 117.59 L205.37 117.59 Q205.20 118.02 205.02 119.19 Q204.85 120.35 204.59 121.55 Q204.34 122.75 203.91 123.44 L203.91 123.44 Q203.13 126.97 201.20 127.57 Q199.26 128.17 197.80 126.54 Z " fill="#1d1c19"></path><defs><mask id="hm2" maskUnits="userSpaceOnUse"><path d="M0,3 C0,-3 -9,-6 -9,-13 C-9,-19 -2,-20 0,-14 C2,-20 9,-19 9,-13 C9,-6 0,-3 0,3 Z" fill="#fff"></path><path d="M-7.5,-8 q2.5,-3.4 5,0 t5,0 t5,0" fill="none" stroke="#000" stroke-width="2.1" stroke-linecap="round"></path></mask></defs><g transform="translate(210.40,95.23) rotate(12) scale(0.940)"><path d="M0,3 C0,-3 -9,-6 -9,-13 C-9,-19 -2,-20 0,-14 C2,-20 9,-19 9,-13 C9,-6 0,-3 0,3 Z" fill="#d23b34" mask="url(#hm2)"></path></g></g></g></svg><path d="M41.62 327.54L39.70 327.54L39.70 318.08L36.35 318.08L36.35 316.34L44.96 316.34L44.96 318.08L41.62 318.08L41.62 327.54Z M62.68 327.54L55.46 327.54L55.46 316.34L62.60 316.34L62.60 318.08L57.40 318.08L57.40 321.02L62.15 321.02L62.15 322.77L57.40 322.77L57.40 325.79L62.68 325.79L62.68 327.54Z M77.25 327.76L77.25 327.76Q76.06 327.76 75.13 327.24Q74.19 326.72 73.64 325.72Q73.09 324.72 73.09 323.26L73.09 323.26L73.09 320.61Q73.09 318.43 74.30 317.27Q75.52 316.11 77.57 316.11L77.57 316.11Q79.62 316.11 80.72 317.21Q81.82 318.30 81.82 320.16L81.82 320.16L81.82 320.22L79.94 320.22L79.94 320.10Q79.94 319.46 79.68 318.94Q79.42 318.43 78.90 318.14Q78.37 317.84 77.57 317.84L77.57 317.84Q76.38 317.84 75.70 318.57Q75.02 319.30 75.02 320.58L75.02 320.58L75.02 323.30Q75.02 324.56 75.70 325.31Q76.38 326.06 77.60 326.06L77.60 326.06Q78.82 326.06 79.38 325.41Q79.94 324.75 79.94 323.73L79.94 323.73L79.94 323.54L77.10 323.54L77.10 321.90L81.82 321.90L81.82 327.54L80.06 327.54L80.06 326.43L79.79 326.43Q79.66 326.72 79.39 327.03Q79.12 327.34 78.62 327.55Q78.11 327.76 77.25 327.76Z M100.15 327.54L92.94 327.54L92.94 316.34L100.07 316.34L100.07 318.08L94.87 318.08L94.87 321.02L99.62 321.02L99.62 322.77L94.87 322.77L94.87 325.79L100.15 325.79L100.15 327.54Z M112.77 327.54L110.83 327.54L110.83 316.34L115.62 316.34Q116.67 316.34 117.46 316.70Q118.24 317.07 118.68 317.74Q119.12 318.40 119.12 319.33L119.12 319.33L119.12 319.50Q119.12 320.54 118.62 321.17Q118.13 321.79 117.42 322.08L117.42 322.08L117.42 322.34Q118.05 322.37 118.41 322.77Q118.77 323.17 118.77 323.84L118.77 323.84L118.77 327.54L116.85 327.54L116.85 324.11Q116.85 323.71 116.63 323.46Q116.42 323.22 115.94 323.22L115.94 323.22L112.77 323.22L112.77 327.54ZM112.77 318.08L112.77 321.47L115.42 321.47Q116.26 321.47 116.73 321.03Q117.20 320.59 117.20 319.86L117.20 319.86L117.20 319.71Q117.20 318.96 116.74 318.52Q116.27 318.08 115.42 318.08L115.42 318.08L112.77 318.08Z M131.85 327.54L129.94 327.54L129.94 316.34L133.62 316.34L136.26 326.24L136.52 326.24L136.52 316.34L138.42 316.34L138.42 327.54L134.76 327.54L132.12 317.63L131.85 317.63L131.85 327.54Z M153.49 327.76L153.49 327.76Q152.21 327.76 151.22 327.30Q150.24 326.85 149.68 325.98Q149.12 325.12 149.12 323.87L149.12 323.87L149.12 323.46L151.02 323.46L151.02 323.87Q151.02 324.98 151.70 325.52Q152.37 326.06 153.49 326.06L153.49 326.06Q154.62 326.06 155.20 325.60Q155.78 325.14 155.78 324.40L155.78 324.40Q155.78 323.90 155.50 323.59Q155.23 323.28 154.71 323.09Q154.19 322.90 153.46 322.72L153.46 322.72L152.98 322.62Q151.87 322.37 151.06 321.98Q150.26 321.58 149.82 320.96Q149.39 320.34 149.39 319.33L149.39 319.33Q149.39 318.32 149.87 317.60Q150.35 316.88 151.23 316.50Q152.11 316.11 153.30 316.11L153.30 316.11Q154.48 316.11 155.41 316.51Q156.34 316.91 156.87 317.71Q157.41 318.51 157.41 319.71L157.41 319.71L157.41 320.24L155.50 320.24L155.50 319.71Q155.50 319.02 155.23 318.61Q154.96 318.19 154.46 318Q153.97 317.81 153.30 317.81L153.30 317.81Q152.30 317.81 151.79 318.19Q151.28 318.58 151.28 319.28L151.28 319.28Q151.28 319.73 151.51 320.04Q151.74 320.35 152.20 320.55Q152.66 320.75 153.34 320.90L153.34 320.90L153.82 321.01Q154.98 321.26 155.84 321.66Q156.70 322.05 157.19 322.69Q157.68 323.33 157.68 324.35L157.68 324.35Q157.68 325.36 157.16 326.13Q156.64 326.90 155.70 327.33Q154.77 327.76 153.49 327.76Z M175.58 327.54L168.36 327.54L168.36 316.34L175.50 316.34L175.50 318.08L170.30 318.08L170.30 321.02L175.05 321.02L175.05 322.77L170.30 322.77L170.30 325.79L175.58 325.79L175.58 327.54Z M193.47 327.54L186.26 327.54L186.26 316.34L193.39 316.34L193.39 318.08L188.19 318.08L188.19 321.02L192.94 321.02L192.94 322.77L188.19 322.77L188.19 325.79L193.47 325.79L193.47 327.54Z" fill="#2f8a7e"></path><circle cx="83.2" cy="41.3" r="10" fill="#fff"></circle><circle cx="83.2" cy="41.3" r="10" fill="none" stroke="#2f8a7e" stroke-width="2.4"></circle><circle cx="83.2" cy="41.3" r="4" fill="#2f8a7e"></circle></svg>