<svg xmlns="http://www.w3.org/2000/svg" width="1380" height="2040" viewBox="0 0 230 340"><path d="M1646.026,1866.889v-2.045v-5.17l-1.4-3.088l-4.164-3.086l-4.236-4.164l-0.609-2.012l0.609-5.205l0.719-7.252 v-5.098l-0.719-6.281l-1.293-3.088l-2.117-4.057l-2.117-4.127l-4.164-3.088l-3.447-3.088l-4.129-1.076l-2.836-2.117l-2.727-6.176 l-5.564-4.129l-0.684-2.045l-2.836-2.01l-6.246-4.166l-4.164,1.078l-2.729-2.119l-3.518-1.076l-2.047-2.01l-0.682-3.088l0.682-4.164 l-0.682-4.129l-0.717-3.086l-2.119-4.164l-1.4-4.057l-0.609-2.119l-1.436-3.086l-2.801-3.088l-2.047-2.01l-2.117-1.078l-2.117-2.117 l-2.729-0.969l-2.836,0.969l-3.447,1.076l-2.729,1.041l-4.918-1.041l-4.846-4.164l-4.883,2.119l-7.574,3.086l-6.246,2.047 l-6.281,1.041h-3.52l-2.727-1.041l-2.836-2.047l-2.729-4.127l-2.119-4.164l-3.445-3.088l-4.129-1.041l-4.236-2.047l-5.564-1.041 h-6.893l-4.918-0.969h-3.445l-4.129-1.078l-3.553-4.127l-0.611-7.252l-5.564-6.139l-4.918-3.123l-6.893-1.041v4.164l-9.082,2.01 l-11.129,2.119l-7.574,3.086l-4.236-3.086l-6.174,1.041l-9.082,4.057l-10.41,2.117l-7.684,2.047l-7.574,3.086l-9.082,8.293 l1.4,1.041l-2.01,2.047l-1.436-1.076l-1.4,1.076l-9.012,2.01l-2.799-2.01l-2.729-1.076h-3.518l-2.047,4.164l-2.117,1.041h-6.248 l-5.563-1.041l-6.283-1.078l-5.527-3.086l-3.447-3.088l-2.836-4.129l-3.445-5.133l-2.801-7.217l-2.047-4.164l-0.717-6.174 l2.152-7.215l3.412-7.217l0.717-4.164l2.729-4.127l1.4-10.34l2.117-9.262l4.164-7.215l4.129-4.164l6.283-2.012l3.445-3.086 l6.246-8.293l1.4-5.133l2.117-5.205v-4.129l2.047-5.133l1.4-5.207l2.836-2.01l1.328-4.164l0.682-5.098l-2.01-6.281l-0.719-9.262 l-0.717-7.217v-10.338v-5.098v-3.088v-5.205l-0.684-5.133l-1.398-4.129l-3.447-6.246l-7.682-9.262l-4.846-6.174l-0.719-4.164 l-3.447-3.088l-2.117-3.088l-4.846-5.205l-2.729-5.098l-1.4-4.164l-2.117-2.01l-6.965-2.119l-5.564-0.969l-6.893-1.076l-4.236-1.041 l-3.445-3.088l-2.082-1.076l-4.883-0.971l-6.855-1.041h-4.236h-1.328h-11.811l-3.555-1.076l-2.729-2.01l-4.127-2.119l-2.838-4.057 l-2.727-5.205l-1.4-4.164l-1.436-3.086l-4.848-11.381l-2.117-6.174l-2.01-4.129l-0.719-2.045l-4.846-4.129l-2.119-2.047 l-3.445-4.129l-5.564-5.205l-2.117-2.045h-1.4l-2.729-4.129l-0.719-1.076l0.719-2.012l-2.836-4.164l-4.129-5.098l-0.717-1.076 l-7.684-10.303l-6.855-5.205l-4.236-4.057l-3.447-1.041l-1.398-4.164l-2.047-6.176l-0.682-2.117v-0.969l-3.555-7.217h-1.328 l-15.328-10.338h-1.328l-1.4-1.041h-1.436l-0.682-2.047l-2.047-1.041l0.717-1.076h3.447l0.682-0.969l-2.799-1.041l-0.719-1.078 l1.4-1.041l2.836-3.086l4.164-4.057l4.846-3.195l2.801-3.088l1.328-3.088l2.117-4.127l0.719-4.057l2.01-2.119l-1.328-1.076 l-2.801-0.969l-0.717-10.303l-0.719-2.119l-0.609-2.045l0.609-4.129l0.719-5.133l3.518-5.205l0.719-7.217h0.609v-2.045h2.119v-3.088 v-4.129l-1.4-2.117h-0.719l1.4-7.252h1.436l1.4-6.139l-1.4-2.047l4.129-7.215l3.553-6.174l2.729-3.195l5.529-10.303l-1.4-0.969 l2.117-3.088l1.438-6.283l1.291-22.65v-8.293l-0.609-3.088v-1.076v-0.969l-0.682-1.041v-2.047l-0.719-1.041l1.4-2.117v-2.047 l-2.119-4.129h2.119l2.729-2.045v-6.176h1.436l-0.719-5.205l-0.717-5.098l-1.4-6.281l-0.719-2.012v-6.174l-1.291-4.164l-2.836-4.129 l-2.047-3.086v-4.164v-6.176l1.328-3.086v-3.088l-5.564-6.246l-6.246-8.186l-9.693-10.338l-4.846-4.129l-1.436-4.164l-27.068-35.109 h-2.045l-3.518-5.205l-3.447-5.098l-4.129-3.086l-0.717-3.088l-3.518-5.205l-4.848-7.252l-4.164-7.215l-2.799-5.133l-2.047-6.176 l-1.4-6.246l-2.729-6.174l-5.564-9.262l-11.127-12.422l-5.529-6.174l-4.236-8.293l-3.445-8.221l-0.719-5.205v-14.467v-9.262 l-4.127-8.293l-4.848-6.174l-5.564-4.129l-7.682-9.262l-1.4-4.164l-6.281-5.205l-4.848-4.057l-7.574-11.379l-0.717-6.176 l-4.848-6.246l-4.918-2.045l-10.41-10.305l-5.564-5.205l-3.445-2.045l-3.447-2.119l-4.234-0.934l-3.447-1.076l-2.801-2.047h-3.445 l-1.4-1.041l1.4-5.205v-2.01l-2.729-4.164l-2.117-6.174l-3.447-6.176l-2.836-5.205l-0.682-6.174l-0.719-9.334l-1.328-9.262v-5.133 l1.328-7.217l1.4-1.076v-5.205l-1.4-9.262l-5.564-16.479l-5.563-8.291l-6.857-6.176l-9.801-7.25h-1.328l-11.092-3.088l-5.564-1.041 h-1.4h-0.717l-0.719-1.076l-1.4-0.971l-1.328-1.041l0.611-2.117l0.717-7.217l-2.047-6.174l-0.682-13.426l-4.236-5.205l-3.445-7.215 l-4.129-9.262l-1.436-21.719l-1.4-6.176l-0.717-8.291l-2.012-6.176l-1.436-3.086l-4.129-6.176l-1.398-4.127l-2.119-1.078 l-1.328-3.086l0.682-5.207l-1.398-6.174l-0.684-3.088l-3.445-3.086l-2.836-1.041l-2.119-2.047l-4.846-4.129l-6.281-5.205 l-14.539-12.348l-4.129-6.176l-6.965-13.498l-2.764-8.184l-2.799-12.457l-4.164-7.215l-5.564-4.164l-4.129-6.176l-1.4-3.086 l8.975-3.088l4.164-3.088l-0.646-1.041l-4.199,1.041l-9.729,4.164l-4.129-5.205l-6.281-8.293l-5.529-6.174l-2.117-5.133 l-2.047-8.293l-2.799-13.391l-1.438-7.252l-3.445-6.246l-6.246-6.174l-9.693-8.293l-3.445-5.098l-4.955-14.467l-1.328-8.293v-18.523 l-1.4-9.369l-2.799-11.379l-0.719-7.217l0.719-6.174l2.082-3.088l4.881-6.174l9.084-7.252l4.127-6.246l3.447-6.174l4.127-5.133 l2.836-9.334l1.4-5.133l0.719-4.129l1.328-4.164l4.236-11.344l0.609-3.088l1.4-3.088l2.117-8.291l0.719-4.164v-4.129l-0.719-5.133 l-0.682-2.012l-1.436-2.117l-1.4-2.047v-4.129l2.119-2.117l0.717-2.047l-2.117-7.215h-0.719l-2.729-3.088l-1.398-1.076l-1.438-9.262 l1.438-6.246l3.518-6.174l-0.719-16.514l0.719-4.129v-3.088l-0.719-4.164l-3.518-6.174l-2.047-2.117l-1.4-2.012l-2.836,1.041 l-2.01,0.971l-0.717-0.971v-1.041l2.117-1.076h2.047l1.398-2.01l2.729-2.119l2.119-2.045l1.4-1.041v-3.088l1.436-6.174l2.01-5.207 l1.436-4.127v-7.252v-4.057l-1.436-13.498l-0.682-8.184v-5.207l-1.328-3.086l-1.436-8.293l-2.082-4.164l-3.447-11.379l-2.836-10.304 l-0.719-5.134l-2.01-3.087l-3.518-4.128l-0.646-4.164l-4.199-6.175l-2.047-3.087l-0.719-4.129V0h-4.846h-7.682l-3.41,3.087 l1.328,6.175l-0.719,6.282l-4.846,14.467l-3.447,4.057l-4.164,3.159l-3.518,4.057l-2.729,3.088l-4.846,3.193l-5.564-2.117 l-4.846-2.047l-5.564-1.041h-9.082l-7.574,1.041l-9.082,2.047l-9.012,4.129l-9.082,3.086h-5.564l-4.846-3.086l-4.129,1.076 l-4.883,2.01l-4.127,4.164l-0.719,1.041l-6.963,3.088l-2.729,1.076l-6.246,2.012l-7.684,3.086l-4.164-1.041l-6.246-0.969 l-6.281,0.969l-3.412,2.119l-6.281,3.086l-6.246,4.129l-1.436,3.088l-6.965,5.205l-3.41,4.057l-7.682,6.281v2.012l-2.047,6.174 l-2.117,7.252l-0.684,4.127l-4.164,8.293l-2.836,9.262l-2.729,7.217l-3.445,5.205l-2.801,3.086l-2.117,2.047h-0.611l-6.281,1.041 l-9.801,1.076h-8.256l-7.684,3.088l-4.846,1.041l-2.045-1.041l-3.52-1.076l-3.445,1.076h-2.119l-2.727,2.01l-6.965,5.205 l-7.682,5.207l-6.248,3.086l-11.127,3.088l-6.893,8.221l-10.482,6.246l-4.129,3.088l-10.41,4.164l-9.01,4.127l-2.836,6.176v4.164 l-1.4,6.174l-2.012,4.129l-4.164,2.045l-4.234,3.088l-6.248,1.041l-3.445,4.164l-4.846,6.176l-1.436,5.205l-1.4,6.174l-2.012,7.215 l-3.553,15.51l-1.293,4.055l-2.154,3.195l-8.256,11.273l-2.836,5.205l-8.293,11.379v6.174l-2.836,4.164l-2.117,7.217l-3.447,6.174 l-1.4,4.164l0.719,3.088l1.4,8.293l2.117,7.215l2.047,12.35v15.543l5.527,4.129l1.438,4.164l-1.438,5.098l-1.398,3.088l-4.848,1.076 l-2.01,4.129l3.41,5.098l0.719,6.281l4.127,7.215l4.166,6.176l2.836,8.293l1.398,8.221v5.205l1.328,5.098l-1.328,3.193l-0.717,6.176 l0.717,4.127l1.328,5.135l-0.609,4.129l-3.555,4.164l-6.246,6.174l-5.564,5.205l-4.164,6.174l-1.4,3.088l0.719,7.215l2.117,5.205 l4.848,5.135l2.729,5.205l5.564,13.391l2.836,6.174l6.246,4.129l1.398,4.164l-11.811,15.436l-8.363,14.467l-4.883,7.217l0.719,9.369 v4.127l4.846,13.426l1.436,7.217l0.684,8.221l2.727,3.158l7.002,8.221l4.846,5.205l6.965,5.098l2.01,7.252l4.236,11.379l2.045,5.17 l3.52,7.252l3.445,12.35l2.117,8.291l-0.717,5.098l2.045,9.369l0.684,8.186l-1.293,10.338l-2.154,7.217l0.719,4.164l6.281,9.334 l4.129,6.174l2.729,8.221l4.953,5.205l2.012,8.293l4.881,6.174l1.4,7.217v5.133l-4.846,15.508l-3.447,5.205l-2.117,3.088h-9.01 l-2.801,7.215l-5.564,4.057l-8.293,3.195L387.325,850l-2.047,6.174l-0.682,4.164l2.01,10.303l2.119,5.205l3.445,4.164l4.848,3.088 l2.799,1.041l11.848-1.041l4.846,2.01l11.092-0.969l4.883,0.969l3.41,4.164l3.555,2.119h5.527l11.848-3.195l8.291-0.969l7.646,0.969 l8.293,2.117l5.564,4.164l4.953,4.057l7.574,7.217l3.52,3.193l8.291-1.076l7.684,2.047l4.846,2.117l4.846,0.969h5.564l2.729,3.088 l7,2.117h4.811h5.564l2.836,1.041l4.846,2.047l3.447,3.088l1.4,4.127v3.088l-0.684,5.205l1.4,4.057l6.246,2.119l0.719,2.045 l0.717,2.119l-0.717,0.969l-1.4,1.041l-5.564,3.088l-2.117,15.508l5.564,5.133l1.398,6.246v6.174l-2.117,5.135l-2.01,5.205 l-3.555,4.129l-5.564,2.045l-5.527,4.129l-6.176,8.293l-7.682,7.25v3.088l-0.719,4.129l1.438,5.133l-0.719,8.293l3.447,7.215 l4.234,8.221l7.576,8.293l3.518,1.041l3.445,0.969h2.729l5.564,1.078l4.236-1.078l2.01-3.086l3.555-0.971l6.246,2.047l5.564,3.088 l6.174,3.086l4.953,3.088l4.129,7.215l2.047,5.205l-2.764,5.135l-2.119,5.205l0.719,7.215l-3.447,8.186l-1.4,8.293l-0.717,7.25 l0.717,5.205l2.836,5.098l2.012,4.164l4.846,5.098l1.4,2.119l0.717,3.086l-1.398,2.047h-6.965l-4.164,3.088l-5.564,6.246l-1.4,6.174 l-0.609,5.135l-2.119,5.205l-4.846,6.174l-7.682,2.117l-9.693,2.012l-0.717-2.012l-10.412,9.262l-4.846,5.207l0.719,7.143 l-6.283,2.119l-2.799,3.086l-0.719,7.217l1.436,7.25l3.518,7.217l3.447,5.133l4.129,6.246l4.127,4.057l2.836,1.076h2.729v-3.086 v-4.164h1.436v5.205l-0.717,2.045h2.836v3.088h1.4l0.609-7.252l2.836,1.078l-0.719,1.041l-1.398-1.041l-0.719,6.174h6.246 l1.436-3.088l-2.729-1.076v-0.969l3.447,0.969l0.682-0.969l4.846,2.045l-0.682,2.012h4.129l4.236,3.158l9.01,7.252l2.117,4.057 l2.729,3.086l4.848,1.041l4.234,5.207l6.176,5.133l7.682,6.174l6.246,5.205l-0.717,2.012h-2.119v1.076v1.041l2.119,2.047 l-3.41,8.291l0.682,7.217l5.564,3.086l4.164,4.166l1.4,5.096l2.01,3.088l4.846,5.205l7,4.164l2.801,7.217l4.164,4.057l14.539,6.281 l11.811,5.098l6.281,2.117l13.211,10.34l6.893,5.098l7.682,2.117l5.529,4.057l6.281,6.246l2.729,5.135l1.4,8.291l6.281,8.186 l3.447,4.164l4.846,2.117l6.246,5.098l9.801,10.34l4.846,7.215l3.447,7.252l4.846,5.205l4.846,3.088l4.955,4.057l4.127,2.117h6.283 l6.246-1.076l4.846-1.041l3.447-3.088l4.846-2.047l4.164-1.041l4.236,3.088l4.129,3.088l3.445,3.158l3.518,5.133l4.848,4.129 l4.164,4.164l3.445,4.057l4.236,7.215l2.01,3.195l5.564,2.012l4.846,1.076h5.564h2.836l3.41-1.076l4.848,3.086l4.953,2.047 l-4.236,5.205v7.215l0.719,14.467l0.682,5.135l0.719,7.215l0.717,3.088v2.117l-8.4,4.129l-2.01,3.088l-1.4,5.133l-4.881,4.129 l-1.4,4.164v4.127v5.135l1.4,3.086l1.436,5.205l1.293,4.129v3.088l-2.729,4.057l-3.52,3.195l-1.328,2.01l-0.682,4.164v5.098v7.252 l-4.164,7.215l-2.117,5.205l-1.4,7.252l-0.719,8.184l-2.01,2.119l-6.965,7.143l-2.836,5.205l-2.729,3.088l-6.963,9.262l-2.047,7.252 l-4.236,9.334l-2.01,5.133v5.205l4.846,4.021l-3.553,4.164l-1.293,7.215l2.729,6.174l1.4,7.252l0.717,5.205l-1.4,4.129l-2.764,4.057 l-4.236,3.195l-0.682,3.086l0.682,9.262l4.236,4.129l3.447,5.133l2.117,5.205l2.047,6.176l2.117,4.127l-2.836,4.166l-6.893,6.174 l-1.4,4.129l-4.164,7.25v5.098l2.047,4.164l2.117,4.129l0.719,5.133l-4.236,4.129l-11.738,1.076l-9.082-1.076l-8.293-2.01 l-6.965-3.195l-6.281-2.01l-5.529-1.078h-9.01h-4.236l-6.174,4.164l-4.236,3.088l-3.445,4.129l-0.684,7.25h-9.01l-7.682,1.041 l-19.494,9.264l-4.127,6.174l-0.719,9.334l0.719,11.307l2.799,2.119l-2.117,6.174l2.117,3.088l4.164,7.215l4.848,5.133l4.164,5.207 l-0.719,6.174l5.564,6.174l6.965,3.088l7.646,8.293l2.764,6.174l2.801,3.088l4.164,4.127l0.682,4.164l6.281,7.217l2.119,6.174 l2.01,6.174l2.117,4.166l2.766,4.127l5.527,4.164l6.283,2.012l6.963,3.086l5.564,4.164l5.529,3.088l9.01,3.088l7.682,3.086 l6.965,2.119l4.846,0.969l4.164-2.047l2.801-2.01l2.729-6.281l-1.4-3.088l0.719-7.215l0.682-2.047l2.836-2.01l4.129-3.195 l2.045-2.01l-2.729-2.047l-3.445-3.088v-8.293l3.445-5.205l2.729-4.057v-5.205l-4.164-3.086l-2.729-6.176l-3.518-3.086l-3.445-3.088 l-2.836-3.158h-2.729l-2.801-2.047l-2.729-9.262l-2.117-6.174l-0.719-4.129l-0.609-3.088l-4.236-2.117l-2.047-2.047l-1.398-2.117 l0.717-6.176l1.4-6.174l3.445-3.088l4.129-2.01h3.518h2.766l7.645-4.164l6.283-3.088l2.729-3.086l2.836-3.16l6.174-0.969 l5.529,6.174l2.836,2.047l3.445,3.051l6.965,2.119l4.129,1.076h3.553h1.328l2.119,2.01l6.246,2.047h4.127l4.166,1.041l4.234,1.076 l2.729,0.971l4.236,1.041l4.846,1.076l2.047-1.076l0.682-3.088h1.436l2.729,1.076l11.811-1.076l9.082-3.088h5.564l4.848-2.01 l4.846-2.117l4.164-3.088l5.527-4.164l5.564-3.088l8.4-2.01l4.129,0.969h7.682h11.094h4.881h8.975l5.564-0.969h4.164l5.529-3.088 l4.846,0.971l7.682-3.088h3.447h3.518h5.564l8.293-0.969l9.082-2.119l6.963-2.01l6.176-3.088l5.564-4.164l6.246-5.205l2.836-3.088 l0.717-6.174l2.012-5.205l1.436-4.057l2.082-3.088l2.047-6.246l2.117-7.25l0.719-0.971l6.963-2.117h4.129l1.4,4.164l5.564,4.129 h8.291l4.166,1.076h4.234h6.857l6.281-2.117l5.529-2.047l2.836-2.117l3.445-2.012l2.836-1.076l4.129-2.01l2.047-2.047l1.4-4.129 l3.518-7.252l2.045-5.205l2.801-2.01l6.283-2.047l4.846-1.041l4.129,2.012l4.164,3.086l3.518,4.164l2.729,10.305l0.717,6.174 l4.129,3.088l3.555,2.117l10.41,2.047h6.965h7.574l5.564,1.041h5.563l6.965-1.041l2.119-0.971h4.846l7.574-1.076l7.682-2.117 l4.848-0.971l6.963-1.041h5.564h3.447h3.518l2.729,1.041l3.445,0.971l2.836,1.076l2.119,2.117l1.328,2.012h-0.719l0.719,4.164h1.4 v0.969v1.041h-0.719l0.719,5.205h-0.719l1.4,5.133l1.436,6.176l0.682,6.246l1.328,5.133l2.119,5.205v0.969l0.717,5.207l2.012,4.127 v0.971l1.436,6.246l0.682,6.174h-2.117l3.553,12.35l2.01-2.012l3.52,4.129l2.764,3.088l3.518,2.045h2.729l5.564,1.041l9.082-2.117 l6.246-4.057l4.846-3.158l11.848-9.262l6.855-3.088l5.564-2.047l5.564-1.041h6.965l6.281,2.047h6.246h4.848l6.281,2.082l6.965,2.047 l4.129,3.086l9.01,3.088l5.527,2.117l4.883,2.012l4.846-1.041h6.246h4.236l4.164,2.117l11.094,5.098l10.41,3.088l4.846,1.076 l3.555,2.117l1.293-1.076l6.281,2.047l2.836,1.041l2.729,1.076l4.129,5.098h4.953l2.01,1.078h2.119h2.045l0.684-1.078v-1.041h0.717 h0.719h0.682l0.719,1.041l2.045,3.088l2.801,4.164l2.729,4.129l2.836,3.086l0.682,1.078l2.047-1.078l7.682-2.01l2.836-2.117 l2.729-2.047l4.129-5.205l4.846-6.176l3.518-5.098l2.764-6.281l0.682-6.174l2.838-1.041v3.158l0.717,5.133l-0.717,6.176h2.045h1.4 v-2.047h2.117l3.447,1.076l1.4,2.012l4.846-1.041l2.729-2.047l3.518-1.041h5.564h2.729l3.553-3.088l2.012-3.086l2.117-3.088 l2.729-2.117l0.719-0.971l2.117-3.086l0.719-2.119v-2.045l1.398-5.17L1646.026,1866.889z M898.624,1782.205h-3.555l-3.41-0.969 l-4.164-3.088h-4.918l-6.174-1.041l-6.283-1.076l-3.518-0.971l-4.846-4.127l-2.047-3.088l0.611-8.293l-0.611-3.086v-6.176 l2.729-3.086l6.283,0.969l3.445,2.117l7.682,5.098l6.246,3.088l6.248,4.164l4.881,4.129l4.848,6.174l2.117,4.164L898.624,1782.205z" fill="none" stroke="#2f6f9e" stroke-opacity="0.32" stroke-width="12.00" stroke-linejoin="round" stroke-linecap="round" transform="translate(115 178) scale(0.15000) translate(-1000.00 -1000.01)"></path><path d="M67.91 90.54L67.91 90.54Q65.46 90.54 63.47 89.44Q61.48 88.33 60.31 86.21Q59.14 84.08 59.14 81.02L59.14 81.02L59.14 75.31Q59.14 70.72 61.72 68.26Q64.31 65.79 68.73 65.79L68.73 65.79Q73.11 65.79 75.51 68.12Q77.91 70.45 77.91 74.43L77.91 74.43L77.91 74.56L73.49 74.56L73.49 74.29Q73.49 73.03 72.96 72.01Q72.43 70.99 71.38 70.40Q70.32 69.80 68.73 69.80L68.73 69.80Q66.35 69.80 64.99 71.26Q63.63 72.73 63.63 75.24L63.63 75.24L63.63 81.09Q63.63 83.57 64.99 85.09Q66.35 86.60 68.79 86.60L68.79 86.60Q71.24 86.60 72.36 85.31Q73.49 84.01 73.49 82.04L73.49 82.04L73.49 81.70L67.84 81.70L67.84 77.89L77.91 77.89L77.91 90.07L73.76 90.07L73.76 87.79L73.15 87.79Q72.91 88.37 72.38 89.01Q71.85 89.66 70.80 90.10Q69.75 90.54 67.91 90.54Z M86.61 90.07L82.33 90.07L82.33 73.20L86.54 73.20L86.54 75.04L87.15 75.04Q87.60 74.19 88.62 73.56Q89.64 72.93 91.30 72.93L91.30 72.93Q93.10 72.93 94.19 73.63Q95.28 74.32 95.86 75.45L95.86 75.45L96.47 75.45Q97.05 74.36 98.10 73.64Q99.16 72.93 101.09 72.93L101.09 72.93Q102.66 72.93 103.93 73.59Q105.21 74.26 105.97 75.60Q106.74 76.94 106.74 78.98L106.74 78.98L106.74 90.07L102.45 90.07L102.45 79.29Q102.45 77.89 101.74 77.20Q101.03 76.50 99.73 76.50L99.73 76.50Q98.27 76.50 97.47 77.44Q96.67 78.37 96.67 80.10L96.67 80.10L96.67 90.07L92.39 90.07L92.39 79.29Q92.39 77.89 91.68 77.20Q90.96 76.50 89.67 76.50L89.67 76.50Q88.21 76.50 87.41 77.44Q86.61 78.37 86.61 80.10L86.61 80.10L86.61 90.07Z M117.79 90.34L117.79 90.34Q115.82 90.34 114.34 89.44Q112.86 88.54 112.04 86.94Q111.23 85.34 111.23 83.27L111.23 83.27L111.23 73.20L115.51 73.20L115.51 82.93Q115.51 84.83 116.44 85.78Q117.38 86.73 119.11 86.73L119.11 86.73Q121.09 86.73 122.17 85.43Q123.26 84.12 123.26 81.77L123.26 81.77L123.26 73.20L127.55 73.20L127.55 90.07L123.33 90.07L123.33 87.86L122.72 87.86Q122.31 88.71 121.19 89.52Q120.07 90.34 117.79 90.34Z M136.59 90.07L132.31 90.07L132.31 73.20L136.52 73.20L136.52 75.41L137.13 75.41Q137.54 74.53 138.66 73.73Q139.79 72.93 142.06 72.93L142.06 72.93Q144.04 72.93 145.51 73.83Q146.99 74.73 147.81 76.31Q148.63 77.89 148.63 80.00L148.63 80.00L148.63 90.07L144.34 90.07L144.34 80.34Q144.34 78.44 143.41 77.49Q142.47 76.53 140.74 76.53L140.74 76.53Q138.77 76.53 137.68 77.84Q136.59 79.15 136.59 81.50L136.59 81.50L136.59 90.07Z M160.05 90.54L160.05 90.54Q158.04 90.54 156.29 89.54Q154.54 88.54 153.49 86.60Q152.43 84.66 152.43 81.91L152.43 81.91L152.43 81.36Q152.43 78.61 153.49 76.67Q154.54 74.73 156.28 73.73Q158.01 72.73 160.05 72.73L160.05 72.73Q161.58 72.73 162.62 73.08Q163.65 73.44 164.30 73.98Q164.95 74.53 165.29 75.14L165.29 75.14L165.90 75.14L165.90 66.27L170.18 66.27L170.18 90.07L165.97 90.07L165.97 88.03L165.35 88.03Q164.78 88.98 163.57 89.76Q162.36 90.54 160.05 90.54ZM161.34 86.80L161.34 86.80Q163.31 86.80 164.64 85.53Q165.97 84.25 165.97 81.80L165.97 81.80L165.97 81.46Q165.97 79.02 164.66 77.74Q163.35 76.47 161.34 76.47L161.34 76.47Q159.37 76.47 158.04 77.74Q156.72 79.02 156.72 81.46L156.72 81.46L156.72 81.80Q156.72 84.25 158.04 85.53Q159.37 86.80 161.34 86.80Z" fill="#1d1c19"></path><path d="M62.03 112.22L62.03 112.22Q61.23 112.22 60.56 111.83Q59.88 111.44 59.47 110.71Q59.06 109.97 59.06 108.93L59.06 108.93L59.06 108.74Q59.06 107.71 59.46 106.97Q59.87 106.23 60.54 105.84Q61.22 105.45 62.03 105.45L62.03 105.45Q62.65 105.45 63.07 105.61Q63.49 105.76 63.77 106.00Q64.04 106.24 64.18 106.50L64.18 106.50L64.39 106.50L64.39 102.94L65.73 102.94L65.73 112.04L64.42 112.04L64.42 111.13L64.21 111.13Q63.96 111.55 63.46 111.88Q62.96 112.22 62.03 112.22ZM62.40 111.05L62.40 111.05Q63.27 111.05 63.84 110.49Q64.40 109.93 64.40 108.89L64.40 108.89L64.40 108.78Q64.40 107.75 63.85 107.19Q63.29 106.63 62.40 106.63L62.40 106.63Q61.54 106.63 60.98 107.19Q60.41 107.75 60.41 108.78L60.41 108.78L60.41 108.89Q60.41 109.93 60.98 110.49Q61.54 111.05 62.40 111.05Z M70.70 112.22L70.70 112.22Q70.01 112.22 69.47 111.99Q68.93 111.75 68.61 111.30Q68.29 110.84 68.29 110.19L68.29 110.19Q68.29 109.53 68.61 109.10Q68.93 108.66 69.48 108.44Q70.03 108.22 70.73 108.22L70.73 108.22L72.68 108.22L72.68 107.80Q72.68 107.24 72.35 106.91Q72.01 106.57 71.31 106.57L71.31 106.57Q70.62 106.57 70.25 106.89Q69.89 107.22 69.77 107.74L69.77 107.74L68.52 107.33Q68.68 106.81 69.02 106.39Q69.37 105.97 69.94 105.71Q70.51 105.45 71.32 105.45L71.32 105.45Q72.57 105.45 73.28 106.09Q74.00 106.72 74.00 107.89L74.00 107.89L74.00 110.53Q74.00 110.92 74.36 110.92L74.36 110.92L74.91 110.92L74.91 112.04L73.91 112.04Q73.45 112.04 73.17 111.81Q72.88 111.57 72.88 111.17L72.88 111.17L72.88 111.13L72.68 111.13Q72.58 111.33 72.37 111.59Q72.16 111.85 71.76 112.03Q71.36 112.22 70.70 112.22ZM70.89 111.12L70.89 111.12Q71.70 111.12 72.19 110.66Q72.68 110.19 72.68 109.39L72.68 109.39L72.68 109.26L70.81 109.26Q70.28 109.26 69.95 109.49Q69.63 109.71 69.63 110.16L69.63 110.16Q69.63 110.60 69.97 110.86Q70.31 111.12 70.89 111.12Z  M85.23 112.22L85.23 112.22Q84.29 112.22 83.79 111.88Q83.29 111.55 83.04 111.13L83.04 111.13L82.84 111.13L82.84 112.04L81.52 112.04L81.52 102.94L82.86 102.94L82.86 106.50L83.07 106.50Q83.23 106.24 83.49 106.00Q83.75 105.76 84.17 105.61Q84.60 105.45 85.23 105.45L85.23 105.45Q86.03 105.45 86.71 105.84Q87.39 106.23 87.79 106.97Q88.19 107.71 88.19 108.74L88.19 108.74L88.19 108.93Q88.19 109.97 87.78 110.71Q87.37 111.44 86.70 111.83Q86.03 112.22 85.23 112.22ZM84.84 111.05L84.84 111.05Q85.71 111.05 86.27 110.49Q86.84 109.93 86.84 108.89L86.84 108.89L86.84 108.78Q86.84 107.75 86.28 107.19Q85.72 106.63 84.84 106.63L84.84 106.63Q83.98 106.63 83.41 107.19Q82.85 107.75 82.85 108.78L82.85 108.78L82.85 108.89Q82.85 109.93 83.41 110.49Q83.98 111.05 84.84 111.05Z M92.19 112.04L90.86 112.04L90.86 105.63L92.19 105.63L92.19 112.04ZM91.53 104.76L91.53 104.76Q91.14 104.76 90.87 104.51Q90.61 104.25 90.61 103.85L90.61 103.85Q90.61 103.45 90.87 103.19Q91.14 102.94 91.53 102.94L91.53 102.94Q91.93 102.94 92.19 103.19Q92.45 103.45 92.45 103.85L92.45 103.85Q92.45 104.25 92.19 104.51Q91.93 104.76 91.53 104.76Z M96.52 112.04L95.18 112.04L95.18 105.63L96.50 105.63L96.50 106.59L96.70 106.59Q96.89 106.20 97.35 105.87Q97.82 105.53 98.75 105.53L98.75 105.53Q99.47 105.53 100.04 105.85Q100.60 106.18 100.93 106.77Q101.25 107.36 101.25 108.19L101.25 108.19L101.25 112.04L99.92 112.04L99.92 108.30Q99.92 107.46 99.50 107.07Q99.08 106.67 98.36 106.67L98.36 106.67Q97.52 106.67 97.02 107.22Q96.52 107.76 96.52 108.80L96.52 108.80L96.52 112.04Z  M109.83 112.04L108.49 112.04L108.49 105.63L109.83 105.63L109.83 112.04ZM109.17 104.76L109.17 104.76Q108.78 104.76 108.51 104.51Q108.25 104.25 108.25 103.85L108.25 103.85Q108.25 103.45 108.51 103.19Q108.78 102.94 109.17 102.94L109.17 102.94Q109.57 102.94 109.83 103.19Q110.09 103.45 110.09 103.85L110.09 103.85Q110.09 104.25 109.83 104.51Q109.57 104.76 109.17 104.76Z  M119.79 112.22L119.79 112.22Q119.00 112.22 118.32 111.83Q117.64 111.44 117.23 110.71Q116.82 109.97 116.82 108.93L116.82 108.93L116.82 108.74Q116.82 107.71 117.23 106.97Q117.63 106.23 118.31 105.84Q118.98 105.45 119.79 105.45L119.79 105.45Q120.41 105.45 120.83 105.61Q121.26 105.76 121.53 106.00Q121.80 106.24 121.95 106.50L121.95 106.50L122.15 106.50L122.15 102.94L123.49 102.94L123.49 112.04L122.18 112.04L122.18 111.13L121.97 111.13Q121.73 111.55 121.22 111.88Q120.72 112.22 119.79 112.22ZM120.17 111.05L120.17 111.05Q121.04 111.05 121.60 110.49Q122.17 109.93 122.17 108.89L122.17 108.89L122.17 108.78Q122.17 107.75 121.61 107.19Q121.05 106.63 120.17 106.63L120.17 106.63Q119.31 106.63 118.74 107.19Q118.18 107.75 118.18 108.78L118.18 108.78L118.18 108.89Q118.18 109.93 118.74 110.49Q119.31 111.05 120.17 111.05Z M128.46 112.22L128.46 112.22Q127.77 112.22 127.23 111.99Q126.69 111.75 126.37 111.30Q126.05 110.84 126.05 110.19L126.05 110.19Q126.05 109.53 126.37 109.10Q126.69 108.66 127.24 108.44Q127.80 108.22 128.50 108.22L128.50 108.22L130.45 108.22L130.45 107.80Q130.45 107.24 130.11 106.91Q129.77 106.57 129.07 106.57L129.07 106.57Q128.38 106.57 128.02 106.89Q127.65 107.22 127.54 107.74L127.54 107.74L126.29 107.33Q126.44 106.81 126.79 106.39Q127.13 105.97 127.70 105.71Q128.28 105.45 129.08 105.45L129.08 105.45Q130.33 105.45 131.05 106.09Q131.76 106.72 131.76 107.89L131.76 107.89L131.76 110.53Q131.76 110.92 132.12 110.92L132.12 110.92L132.67 110.92L132.67 112.04L131.67 112.04Q131.21 112.04 130.93 111.81Q130.64 111.57 130.64 111.17L130.64 111.17L130.64 111.13L130.45 111.13Q130.34 111.33 130.14 111.59Q129.93 111.85 129.52 112.03Q129.12 112.22 128.46 112.22ZM128.65 111.12L128.65 111.12Q129.46 111.12 129.95 110.66Q130.45 110.19 130.45 109.39L130.45 109.39L130.45 109.26L128.58 109.26Q128.04 109.26 127.72 109.49Q127.39 109.71 127.39 110.16L127.39 110.16Q127.39 110.60 127.73 110.86Q128.07 111.12 128.65 111.12Z M136.31 112.04L134.97 112.04L134.97 102.94L136.31 102.94L136.31 106.54L136.52 106.54Q136.65 106.29 136.89 106.06Q137.13 105.83 137.52 105.68Q137.92 105.53 138.53 105.53L138.53 105.53Q139.26 105.53 139.83 105.85Q140.39 106.18 140.72 106.77Q141.04 107.36 141.04 108.19L141.04 108.19L141.04 112.04L139.70 112.04L139.70 108.30Q139.70 107.46 139.29 107.07Q138.87 106.67 138.14 106.67L138.14 106.67Q137.31 106.67 136.81 107.22Q136.31 107.76 136.31 108.80L136.31 108.80L136.31 112.04Z M146.97 112.22L146.97 112.22Q146.01 112.22 145.26 111.83Q144.51 111.43 144.08 110.69Q143.65 109.95 143.65 108.93L143.65 108.93L143.65 108.74Q143.65 107.72 144.08 106.99Q144.51 106.26 145.26 105.85Q146.01 105.45 146.97 105.45L146.97 105.45Q147.93 105.45 148.68 105.85Q149.44 106.26 149.87 106.99Q150.30 107.72 150.30 108.74L150.30 108.74L150.30 108.93Q150.30 109.95 149.87 110.69Q149.44 111.43 148.68 111.83Q147.93 112.22 146.97 112.22ZM146.97 111.03L146.97 111.03Q147.85 111.03 148.41 110.46Q148.96 109.90 148.96 108.89L148.96 108.89L148.96 108.78Q148.96 107.78 148.41 107.21Q147.87 106.65 146.97 106.65L146.97 106.65Q146.10 106.65 145.54 107.21Q144.99 107.78 144.99 108.78L144.99 108.78L144.99 108.89Q144.99 109.90 145.54 110.46Q146.10 111.03 146.97 111.03Z M154.95 112.22L154.95 112.22Q154.26 112.22 153.72 111.99Q153.18 111.75 152.86 111.30Q152.54 110.84 152.54 110.19L152.54 110.19Q152.54 109.53 152.86 109.10Q153.18 108.66 153.73 108.44Q154.29 108.22 154.99 108.22L154.99 108.22L156.94 108.22L156.94 107.80Q156.94 107.24 156.60 106.91Q156.26 106.57 155.56 106.57L155.56 106.57Q154.87 106.57 154.51 106.89Q154.14 107.22 154.03 107.74L154.03 107.74L152.78 107.33Q152.93 106.81 153.28 106.39Q153.62 105.97 154.20 105.71Q154.77 105.45 155.57 105.45L155.57 105.45Q156.82 105.45 157.54 106.09Q158.25 106.72 158.25 107.89L158.25 107.89L158.25 110.53Q158.25 110.92 158.62 110.92L158.62 110.92L159.16 110.92L159.16 112.04L158.16 112.04Q157.71 112.04 157.42 111.81Q157.13 111.57 157.13 111.17L157.13 111.17L157.13 111.13L156.94 111.13Q156.83 111.33 156.63 111.59Q156.42 111.85 156.02 112.03Q155.61 112.22 154.95 112.22ZM155.14 111.12L155.14 111.12Q155.95 111.12 156.44 110.66Q156.94 110.19 156.94 109.39L156.94 109.39L156.94 109.26L155.07 109.26Q154.53 109.26 154.21 109.49Q153.88 109.71 153.88 110.16L153.88 110.16Q153.88 110.60 154.22 110.86Q154.56 111.12 155.14 111.12Z M162.80 112.04L161.46 112.04L161.46 105.63L162.77 105.63L162.77 106.39L162.98 106.39Q163.16 106.05 163.57 105.79Q163.97 105.53 164.66 105.53L164.66 105.53Q165.37 105.53 165.81 105.82Q166.25 106.11 166.47 106.57L166.47 106.57L166.67 106.57Q166.90 106.13 167.32 105.83Q167.74 105.53 168.52 105.53L168.52 105.53Q169.14 105.53 169.63 105.78Q170.11 106.03 170.39 106.54Q170.68 107.04 170.68 107.78L170.68 107.78L170.68 112.04L169.34 112.04L169.34 107.88Q169.34 107.30 169.02 106.98Q168.70 106.66 168.12 106.66L168.12 106.66Q167.49 106.66 167.12 107.06Q166.74 107.46 166.74 108.22L166.74 108.22L166.74 112.04L165.40 112.04L165.40 107.88Q165.40 107.30 165.08 106.98Q164.76 106.66 164.18 106.66L164.18 106.66Q163.55 106.66 163.18 107.06Q162.80 107.46 162.80 108.22L162.80 108.22L162.80 112.04Z" fill="#1d1c19" fill-opacity="0.7"></path><svg x="-17.50" y="139.31" width="258.46" height="132.82" viewBox="0 0 360 185" overflow="visible"><g fill="#1d1c19"><g transform="translate(64.98,0)"><path d="M22.88 133.59 L22.88 133.59 Q21.33 133.16 20.38 132.82 L20.38 132.82 L19.44 132.56 Q19.61 132.13 19.31 131.78 Q19.01 131.44 18.06 131.35 L18.06 131.35 Q16.77 130.49 15.39 128.95 Q14.02 127.40 12.99 125.76 Q11.95 124.13 11.61 123.36 L11.61 123.36 Q11.18 122.32 11.44 121.98 L11.44 121.98 Q11.52 121.81 11.70 121.72 L11.70 121.72 Q12.38 121.46 13.33 121.03 L13.33 121.03 Q14.28 120.35 15.35 120.00 Q16.43 119.66 17.11 121.12 L17.11 121.12 Q18.23 123.10 20.60 124.47 Q22.96 125.85 26.02 126.11 Q29.07 126.37 32.16 125.08 L32.16 125.08 Q34.23 124.13 34.40 122.45 Q34.57 120.78 33.11 118.54 L33.11 118.54 Q32.85 117.85 32.38 117.42 Q31.91 116.99 31.00 116.30 Q30.10 115.62 28.47 114.07 L28.47 114.07 Q27.18 113.47 26.10 112.95 Q25.03 112.43 23.82 111.83 L23.82 111.83 Q22.45 111.14 20.73 109.90 Q19.01 108.65 17.54 107.14 Q16.08 105.64 15.31 104.26 L15.31 104.26 Q13.93 102.97 13.59 100.69 Q13.24 98.42 13.72 95.84 Q14.19 93.26 15.31 91.19 L15.31 91.19 Q15.82 89.99 17.20 88.05 Q18.58 86.12 20.30 84.05 Q22.02 81.99 23.61 80.31 Q25.20 78.64 26.14 78.03 L26.14 78.03 Q26.83 77.35 27.61 76.57 L27.61 76.57 L28.38 75.88 Q28.47 75.45 28.72 75.45 L28.72 75.45 L28.90 75.45 Q29.33 75.20 30.79 74.59 Q32.25 73.99 33.97 72.36 L33.97 72.36 Q39.73 69.61 43.77 68.62 Q47.82 67.63 50.14 67.63 L50.14 67.63 Q52.29 67.71 54.35 68.79 Q56.42 69.86 57.92 71.50 Q59.43 73.13 59.68 75.20 L59.68 75.20 Q60.29 77.26 59.13 80.14 Q57.96 83.02 55.94 85.56 Q53.92 88.10 51.77 89.30 L51.77 89.30 Q49.36 90.33 47.69 89.56 Q46.01 88.78 46.10 87.15 L46.10 87.15 Q46.10 86.46 46.57 85.52 Q47.04 84.57 49.19 82.16 L49.19 82.16 Q51.94 78.12 52.12 76.40 Q52.29 74.68 50.57 74.42 L50.57 74.42 Q50.05 74.25 48.59 74.51 Q47.13 74.77 45.45 75.15 Q43.77 75.54 42.53 75.97 Q41.28 76.40 41.28 76.57 L41.28 76.57 L41.28 76.83 Q41.28 76.92 41.19 77.00 L41.19 77.00 Q41.19 77.09 40.94 77.00 L40.94 77.00 Q40.76 77.00 39.78 77.56 Q38.79 78.12 37.41 78.98 Q36.03 79.84 34.70 80.74 Q33.37 81.65 32.42 82.33 Q31.48 83.02 31.39 83.19 L31.39 83.19 Q31.22 84.14 29.41 84.91 L29.41 84.91 Q27.69 85.95 26.40 87.84 Q25.11 89.73 23.39 92.65 L23.39 92.65 Q21.93 94.63 21.33 96.91 Q20.73 99.19 21.33 100.57 L21.33 100.57 Q21.76 101.94 23.69 103.28 Q25.63 104.61 28.98 106.59 L28.98 106.59 Q31.91 108.22 34.49 110.03 Q37.07 111.83 38.87 113.51 Q40.68 115.19 41.19 116.30 L41.19 116.30 Q42.23 117.77 42.44 119.66 Q42.66 121.55 42.44 123.31 Q42.23 125.08 41.88 126.19 L41.88 126.19 Q41.28 127.57 40.03 129.12 Q38.79 130.67 37.75 130.58 L37.75 130.58 Q36.81 130.84 36.34 131.18 Q35.86 131.53 35.26 131.78 L35.26 131.78 Q34.66 132.13 32.42 132.60 Q30.19 133.07 27.52 133.38 Q24.85 133.68 22.88 133.59 Z M67.77 126.28 L67.77 126.28 Q65.19 127.74 62.31 127.96 Q59.43 128.17 56.93 127.18 Q54.44 126.19 52.89 124.22 L52.89 124.22 Q52.03 123.10 51.26 120.65 Q50.48 118.20 51.00 113.98 L51.00 113.98 Q51.51 110.03 53.45 105.98 Q55.38 101.94 58.22 98.85 Q61.06 95.75 64.41 94.63 L64.41 94.63 Q65.62 94.20 66.86 93.99 Q68.11 93.77 70.18 93.94 L70.18 93.94 Q72.15 94.20 73.70 94.93 Q75.25 95.66 75.94 96.52 L75.94 96.52 Q77.31 97.90 77.74 99.19 Q78.17 100.48 78.09 101.68 L78.09 101.68 Q77.66 104.44 75.64 107.62 Q73.62 110.80 70.00 112.35 L70.00 112.35 Q68.54 112.95 66.56 113.12 Q64.59 113.29 61.15 112.61 L61.15 112.61 Q59.08 112.18 58.44 113.04 Q57.79 113.90 57.88 116.39 L57.88 116.39 Q58.05 117.94 58.61 119.10 Q59.17 120.26 60.72 120.69 L60.72 120.69 Q62.69 121.03 63.55 120.73 Q64.41 120.43 65.70 119.83 L65.70 119.83 Q66.39 119.40 67.08 118.88 L67.08 118.88 L68.37 117.85 Q68.97 117.34 69.40 117.08 L69.40 117.08 Q69.83 116.73 70.26 116.65 Q70.69 116.56 71.12 116.56 L71.12 116.56 Q72.07 116.65 72.93 117.59 Q73.79 118.54 74.05 119.40 L74.05 119.40 Q74.05 120.09 73.19 121.33 Q72.33 122.58 70.91 123.92 Q69.49 125.25 67.77 126.28 Z M66.65 107.10 L66.65 107.10 Q67.25 106.84 68.41 105.90 Q69.57 104.95 70.52 103.88 Q71.47 102.80 71.47 102.20 L71.47 102.20 Q71.47 101.25 70.22 100.57 Q68.97 99.88 66.99 100.31 L66.99 100.31 Q66.31 100.48 65.36 101.25 Q64.41 102.03 63.47 103.02 Q62.52 104.01 61.83 104.91 Q61.15 105.81 60.89 106.33 L60.89 106.33 Q61.23 106.76 62.26 107.02 Q63.30 107.27 64.54 107.27 Q65.79 107.27 66.65 107.10 Z M96.49 126.28 L96.49 126.28 Q93.91 127.74 91.03 127.96 Q88.15 128.17 85.66 127.18 Q83.16 126.19 81.61 124.22 L81.61 124.22 Q80.75 123.10 79.98 120.65 Q79.21 118.20 79.72 113.98 L79.72 113.98 Q80.24 110.03 82.17 105.98 Q84.11 101.94 86.95 98.85 Q89.78 95.75 93.14 94.63 L93.14 94.63 Q94.34 94.20 95.59 93.99 Q96.84 93.77 98.90 93.94 L98.90 93.94 Q100.88 94.20 102.43 94.93 Q103.97 95.66 104.66 96.52 L104.66 96.52 Q106.04 97.90 106.47 99.19 Q106.90 100.48 106.81 101.68 L106.81 101.68 Q106.38 104.44 104.36 107.62 Q102.34 110.80 98.73 112.35 L98.73 112.35 Q97.27 112.95 95.29 113.12 Q93.31 113.29 89.87 112.61 L89.87 112.61 Q87.81 112.18 87.16 113.04 Q86.52 113.90 86.60 116.39 L86.60 116.39 Q86.77 117.94 87.33 119.10 Q87.89 120.26 89.44 120.69 L89.44 120.69 Q91.42 121.03 92.28 120.73 Q93.14 120.43 94.43 119.83 L94.43 119.83 Q95.12 119.40 95.80 118.88 L95.80 118.88 L97.09 117.85 Q97.70 117.34 98.13 117.08 L98.13 117.08 Q98.56 116.73 98.99 116.65 Q99.42 116.56 99.85 116.56 L99.85 116.56 Q100.79 116.65 101.65 117.59 Q102.51 118.54 102.77 119.40 L102.77 119.40 Q102.77 120.09 101.91 121.33 Q101.05 122.58 99.63 123.92 Q98.21 125.25 96.49 126.28 Z M95.37 107.10 L95.37 107.10 Q95.98 106.84 97.14 105.90 Q98.30 104.95 99.24 103.88 Q100.19 102.80 100.19 102.20 L100.19 102.20 Q100.19 101.25 98.94 100.57 Q97.70 99.88 95.72 100.31 L95.72 100.31 Q95.03 100.48 94.08 101.25 Q93.14 102.03 92.19 103.02 Q91.25 104.01 90.56 104.91 Q89.87 105.81 89.61 106.33 L89.61 106.33 Q89.96 106.76 90.99 107.02 Q92.02 107.27 93.27 107.27 Q94.51 107.27 95.37 107.10 Z M118.42 145.20 L118.42 145.20 Q116.01 146.15 113.39 144.90 Q110.77 143.65 108.88 140.99 L108.88 140.99 Q108.53 140.47 107.84 139.14 Q107.16 137.80 106.51 136.26 Q105.87 134.71 105.56 133.59 Q105.26 132.47 105.52 132.30 L105.52 132.30 Q105.87 131.35 107.07 131.18 Q108.27 131.01 109.48 131.31 Q110.68 131.61 110.85 132.13 L110.85 132.13 Q111.11 132.73 111.37 133.38 Q111.63 134.02 112.01 134.58 Q112.40 135.14 112.75 135.57 L112.75 135.57 Q113.69 137.03 114.81 137.59 Q115.93 138.15 116.53 137.72 L116.53 137.72 Q117.99 136.60 118.72 135.09 Q119.45 133.59 120.66 129.81 L120.66 129.81 Q121.60 126.62 122.29 124.30 Q122.98 121.98 123.75 120.00 L123.75 120.00 Q124.01 118.97 124.44 118.20 L124.44 118.20 Q124.53 118.02 124.61 117.85 L124.61 117.85 Q123.41 118.71 122.46 119.57 L122.46 119.57 Q121.17 120.78 118.94 121.72 L118.94 121.72 Q118.42 122.32 116.40 122.45 Q114.38 122.58 112.49 121.98 L112.49 121.98 Q111.28 121.29 110.55 120.56 Q109.82 119.83 109.35 118.88 Q108.88 117.94 108.36 116.65 L108.36 116.65 Q107.76 115.36 108.19 112.43 Q108.62 109.51 109.74 106.59 L109.74 106.59 Q110.77 104.44 112.75 101.94 Q114.72 99.45 116.96 97.43 Q119.20 95.41 121.00 94.89 L121.00 94.89 Q121.69 94.55 123.41 94.07 Q125.13 93.60 126.68 94.03 L126.68 94.03 Q128.14 94.20 128.91 94.67 Q129.69 95.15 131.41 96.61 L131.41 96.61 Q132.53 97.73 134.16 99.49 Q135.79 101.25 136.22 102.46 L136.22 102.46 Q136.83 103.75 136.48 105.25 Q136.14 106.76 135.28 107.88 L135.28 107.88 Q134.50 108.99 133.64 110.11 Q132.78 111.23 132.35 113.21 L132.35 113.21 Q131.92 115.79 130.72 119.01 Q129.52 122.24 128.83 124.99 L128.83 124.99 L127.45 130.32 Q125.30 137.63 122.72 140.94 Q120.14 144.25 118.42 145.20 Z M116.62 115.62 L116.62 115.62 Q118.34 115.53 119.58 115.23 Q120.83 114.93 121.95 113.85 Q123.07 112.78 124.53 110.54 L124.53 110.54 Q125.99 108.48 126.59 106.76 Q127.19 105.04 127.02 102.89 L127.02 102.89 Q126.94 101.51 126.25 101.08 Q125.56 100.65 124.44 100.82 L124.44 100.82 Q122.81 101.08 121.52 102.16 Q120.23 103.23 118.51 105.47 L118.51 105.47 Q117.22 107.19 116.36 109.60 L116.36 109.60 Q115.50 112.18 115.63 113.72 Q115.76 115.27 116.62 115.62 Z M143.88 138.41 L143.88 138.41 Q143.36 138.75 141.56 137.59 Q139.75 136.43 138.55 135.05 L138.55 135.05 Q137.94 134.36 137.77 133.59 Q137.60 132.82 137.86 130.67 L137.86 130.67 Q138.20 129.72 138.24 128.86 Q138.29 128.00 138.29 127.66 L138.29 127.66 Q138.29 127.14 138.59 125.25 Q138.89 123.36 139.23 121.25 Q139.58 119.14 139.84 118.02 L139.84 118.02 Q139.84 117.94 139.96 117.42 Q140.09 116.91 140.18 116.65 L140.18 116.65 Q140.35 115.87 140.61 114.76 Q140.87 113.64 141.13 111.75 L141.13 111.75 Q141.81 109.60 142.29 107.49 Q142.76 105.38 142.76 104.61 L142.76 104.61 Q142.76 103.06 143.96 102.37 L143.96 102.37 Q144.05 101.94 144.48 101.04 Q144.91 100.14 145.25 99.53 L145.25 99.53 Q146.97 94.63 148.09 91.71 Q149.21 88.78 150.41 86.63 L150.41 86.63 Q150.93 85.17 151.57 83.62 Q152.22 82.08 152.91 81.22 L152.91 81.22 Q153.51 80.01 155.01 78.25 Q156.52 76.49 158.24 74.85 Q159.96 73.22 160.99 72.44 L160.99 72.44 Q162.88 71.50 164.52 70.90 Q166.15 70.29 167.96 70.29 L167.96 70.29 Q169.59 70.29 170.84 71.03 Q172.09 71.76 174.58 73.99 L174.58 73.99 Q175.44 75.11 175.44 76.14 Q175.44 77.17 175.01 77.86 L175.01 77.86 Q174.41 79.24 173.20 81.26 Q172.00 83.28 170.88 84.87 Q169.76 86.46 169.25 86.55 L169.25 86.55 Q168.22 87.15 167.10 86.89 Q165.98 86.63 165.98 85.34 L165.98 85.34 Q165.98 84.74 166.07 84.23 L166.07 84.23 L166.07 83.71 Q166.32 82.59 166.71 81.73 Q167.10 80.87 167.44 80.27 L167.44 80.27 Q168.13 79.15 167.83 78.12 Q167.53 77.09 165.64 77.26 L165.64 77.26 Q165.38 77.43 164.65 78.08 Q163.92 78.72 163.10 79.54 Q162.28 80.36 161.68 81.09 Q161.08 81.82 161.08 82.08 L161.08 82.08 L160.65 82.94 Q160.13 83.88 159.19 85.00 L159.19 85.00 Q158.58 85.86 158.15 86.63 Q157.72 87.41 157.72 87.84 L157.72 87.84 Q157.72 88.18 157.64 88.44 Q157.55 88.70 157.21 88.70 L157.21 88.70 L156.95 89.56 Q156.61 90.42 155.92 91.62 L155.92 91.62 Q155.57 92.48 155.19 93.21 Q154.80 93.94 154.46 94.29 L154.46 94.29 L154.37 94.46 L154.03 95.41 Q153.60 96.44 153.17 97.47 Q152.74 98.50 152.74 98.67 L152.74 98.67 Q152.74 99.02 153.77 99.02 Q154.80 99.02 156.26 98.72 Q157.72 98.42 159.10 98.07 L159.10 98.07 Q160.30 97.73 160.82 97.73 Q161.34 97.73 162.45 98.07 L162.45 98.07 Q163.14 98.50 163.57 99.58 Q164.00 100.65 164.22 101.73 Q164.43 102.80 164.26 103.32 L164.26 103.32 Q164.17 103.66 162.32 104.26 Q160.48 104.87 158.67 105.21 L158.67 105.21 Q157.12 105.55 155.19 105.94 Q153.25 106.33 151.79 106.72 Q150.33 107.10 150.24 107.45 L150.24 107.45 Q149.90 107.45 149.68 107.88 Q149.47 108.31 149.47 108.65 L149.47 108.65 Q149.47 109.77 149.04 110.46 L149.04 110.46 Q148.87 110.97 148.48 112.56 Q148.09 114.15 147.70 116.00 Q147.32 117.85 147.02 119.44 Q146.72 121.03 146.72 121.55 L146.72 121.55 Q146.20 122.15 146.11 123.06 Q146.03 123.96 146.03 124.65 L146.03 124.65 Q145.68 125.33 145.60 125.89 Q145.51 126.45 145.51 126.80 L145.51 126.80 L145.51 127.14 Q145.51 127.40 145.43 127.66 L145.43 127.66 Q145.34 128.52 145.21 129.94 Q145.08 131.35 145.08 132.73 L145.08 132.73 L144.82 135.22 Q144.74 136.34 144.52 137.16 Q144.31 137.98 143.88 138.41 Z M186.02 127.83 L186.02 127.83 Q185.16 126.97 184.64 125.46 Q184.13 123.96 183.61 121.98 L183.61 121.98 Q183.44 121.29 183.48 120.43 Q183.52 119.57 183.44 119.06 L183.44 119.06 Q183.18 119.66 182.62 120.60 Q182.06 121.55 181.55 121.98 L181.55 121.98 Q181.20 122.32 180.00 123.31 Q178.79 124.30 177.59 124.90 L177.59 124.90 Q174.75 126.71 172.56 126.58 Q170.37 126.45 168.73 124.39 L168.73 124.39 Q167.36 123.27 166.50 121.55 Q165.64 119.83 166.15 117.42 L166.15 117.42 Q166.32 114.41 167.01 111.53 Q167.70 108.65 169.85 103.83 L169.85 103.83 Q171.66 100.31 172.60 98.33 Q173.55 96.35 173.81 96.01 L173.81 96.01 Q175.10 95.58 176.99 96.05 Q178.88 96.52 179.05 97.73 L179.05 97.73 Q179.57 98.59 179.05 100.95 Q178.54 103.32 176.99 106.33 L176.99 106.33 Q175.78 109.25 174.71 112.00 Q173.63 114.76 173.42 116.65 Q173.20 118.54 174.41 118.97 L174.41 118.97 Q175.18 119.40 176.69 118.88 Q178.19 118.37 180.26 115.79 Q182.32 113.21 184.64 107.62 L184.64 107.62 Q185.33 105.90 185.67 104.56 Q186.02 103.23 186.10 101.60 L186.10 101.60 Q185.93 100.57 186.66 99.45 Q187.39 98.33 188.43 97.73 L188.43 97.73 Q188.77 97.30 189.37 96.87 L189.37 96.87 Q189.80 96.61 189.97 96.78 L189.97 96.78 Q190.06 96.78 190.15 96.95 L190.15 96.95 L191.52 96.87 Q191.87 96.78 192.30 97.56 Q192.73 98.33 193.16 98.67 L193.16 98.67 Q194.10 99.45 194.02 102.03 Q193.93 104.61 191.95 109.25 L191.95 109.25 Q190.32 112.78 189.76 114.58 Q189.20 116.39 189.11 118.11 L189.11 118.11 Q189.11 119.66 189.37 120.73 Q189.63 121.81 190.92 122.93 L190.92 122.93 Q191.87 123.53 191.99 124.95 Q192.12 126.37 192.04 127.40 L192.04 127.40 Q191.87 128.17 190.70 128.47 Q189.54 128.77 188.21 128.60 Q186.88 128.43 186.02 127.83 Z M197.80 126.54 L197.80 126.54 Q197.11 125.85 196.81 124.47 Q196.51 123.10 196.60 121.77 Q196.68 120.43 197.03 119.74 L197.03 119.74 Q197.03 119.06 197.24 118.67 Q197.46 118.28 197.37 117.94 L197.37 117.94 Q197.28 117.59 197.54 116.73 Q197.80 115.87 198.06 115.10 L198.06 115.10 Q198.66 113.72 199.43 111.53 Q200.21 109.34 200.98 107.06 Q201.76 104.78 202.27 103.10 Q202.79 101.43 202.87 101.08 L202.87 101.08 Q202.87 100.05 204.25 99.96 L204.25 99.96 Q205.28 99.62 206.74 100.82 Q208.21 102.03 209.07 103.40 L209.07 103.40 Q209.75 104.09 209.58 105.21 Q209.41 106.33 208.46 108.39 L208.46 108.39 Q208.12 109.08 207.65 110.67 Q207.17 112.26 207.00 113.29 L207.00 113.29 Q206.66 113.98 206.18 115.23 Q205.71 116.48 205.37 117.59 L205.37 117.59 Q205.20 118.02 205.02 119.19 Q204.85 120.35 204.59 121.55 Q204.34 122.75 203.91 123.44 L203.91 123.44 Q203.13 126.97 201.20 127.57 Q199.26 128.17 197.80 126.54 Z " fill="#1d1c19"></path><defs><mask id="hm2" maskUnits="userSpaceOnUse"><path d="M0,3 C0,-3 -9,-6 -9,-13 C-9,-19 -2,-20 0,-14 C2,-20 9,-19 9,-13 C9,-6 0,-3 0,3 Z" fill="#fff"></path><path d="M-7.5,-8 q2.5,-3.4 5,0 t5,0 t5,0" fill="none" stroke="#000" stroke-width="2.1" stroke-linecap="round"></path></mask></defs><g transform="translate(210.40,95.23) rotate(12) scale(0.940)"><path d="M0,3 C0,-3 -9,-6 -9,-13 C-9,-19 -2,-20 0,-14 C2,-20 9,-19 9,-13 C9,-6 0,-3 0,3 Z" fill="#d23b34" mask="url(#hm2)"></path></g></g></g></svg><path d="M58.96 326.15L57.52 326.15L57.52 319.06L55.01 319.06L55.01 317.75L61.47 317.75L61.47 319.06L58.96 319.06L58.96 326.15Z M75.01 326.15L69.60 326.15L69.60 317.75L74.95 317.75L74.95 319.06L71.05 319.06L71.05 321.27L74.61 321.27L74.61 322.58L71.05 322.58L71.05 324.84L75.01 324.84L75.01 326.15Z M86.19 326.32L86.19 326.32Q85.30 326.32 84.60 325.93Q83.89 325.54 83.48 324.79Q83.07 324.04 83.07 322.95L83.07 322.95L83.07 320.96Q83.07 319.32 83.98 318.45Q84.89 317.58 86.43 317.58L86.43 317.58Q87.96 317.58 88.79 318.41Q89.62 319.23 89.62 320.62L89.62 320.62L89.62 320.67L88.20 320.67L88.20 320.57Q88.20 320.09 88.01 319.71Q87.82 319.32 87.42 319.10Q87.03 318.88 86.43 318.88L86.43 318.88Q85.54 318.88 85.03 319.43Q84.52 319.97 84.52 320.93L84.52 320.93L84.52 322.97Q84.52 323.92 85.03 324.48Q85.54 325.05 86.45 325.05L86.45 325.05Q87.36 325.05 87.78 324.56Q88.20 324.06 88.20 323.30L88.20 323.30L88.20 323.15L86.08 323.15L86.08 321.93L89.62 321.93L89.62 326.15L88.30 326.15L88.30 325.32L88.09 325.32Q88.00 325.54 87.79 325.77Q87.59 326.01 87.21 326.16Q86.83 326.32 86.19 326.32Z M103.61 326.15L98.20 326.15L98.20 317.75L103.55 317.75L103.55 319.06L99.65 319.06L99.65 321.27L103.22 321.27L103.22 322.58L99.65 322.58L99.65 324.84L103.61 324.84L103.61 326.15Z M113.33 326.15L111.87 326.15L111.87 317.75L115.46 317.75Q116.25 317.75 116.84 318.03Q117.43 318.30 117.76 318.80Q118.09 319.30 118.09 320.00L118.09 320.00L118.09 320.13Q118.09 320.91 117.72 321.38Q117.35 321.84 116.82 322.06L116.82 322.06L116.82 322.25Q117.29 322.28 117.56 322.58Q117.83 322.88 117.83 323.38L117.83 323.38L117.83 326.15L116.39 326.15L116.39 323.58Q116.39 323.28 116.22 323.10Q116.06 322.91 115.70 322.91L115.70 322.91L113.33 322.91L113.33 326.15ZM113.33 319.06L113.33 321.60L115.32 321.60Q115.94 321.60 116.30 321.27Q116.65 320.94 116.65 320.39L116.65 320.39L116.65 320.28Q116.65 319.72 116.30 319.39Q115.95 319.06 115.32 319.06L115.32 319.06L113.33 319.06Z M127.89 326.15L126.46 326.15L126.46 317.75L129.22 317.75L131.20 325.18L131.39 325.18L131.39 317.75L132.82 317.75L132.82 326.15L130.07 326.15L128.09 318.72L127.89 318.72L127.89 326.15Z M144.37 326.32L144.37 326.32Q143.41 326.32 142.67 325.98Q141.93 325.64 141.51 324.99Q141.09 324.34 141.09 323.40L141.09 323.40L141.09 323.09L142.52 323.09L142.52 323.40Q142.52 324.23 143.02 324.64Q143.53 325.05 144.37 325.05L144.37 325.05Q145.22 325.05 145.65 324.70Q146.08 324.35 146.08 323.80L146.08 323.80Q146.08 323.43 145.88 323.19Q145.67 322.96 145.28 322.82Q144.89 322.67 144.34 322.54L144.34 322.54L143.98 322.47Q143.15 322.28 142.55 321.98Q141.94 321.69 141.62 321.22Q141.29 320.75 141.29 320.00L141.29 320.00Q141.29 319.24 141.65 318.70Q142.01 318.16 142.67 317.87Q143.33 317.58 144.22 317.58L144.22 317.58Q145.11 317.58 145.81 317.88Q146.50 318.18 146.90 318.78Q147.31 319.38 147.31 320.28L147.31 320.28L147.31 320.68L145.88 320.68L145.88 320.28Q145.88 319.77 145.67 319.46Q145.47 319.14 145.10 319Q144.73 318.86 144.22 318.86L144.22 318.86Q143.48 318.86 143.09 319.14Q142.71 319.43 142.71 319.96L142.71 319.96Q142.71 320.30 142.88 320.53Q143.06 320.76 143.40 320.91Q143.74 321.06 144.26 321.17L144.26 321.17L144.62 321.26Q145.48 321.45 146.13 321.74Q146.78 322.04 147.14 322.52Q147.51 323.00 147.51 323.76L147.51 323.76Q147.51 324.52 147.12 325.10Q146.73 325.67 146.03 326.00Q145.33 326.32 144.37 326.32Z M161.18 326.15L155.77 326.15L155.77 317.75L161.12 317.75L161.12 319.06L157.22 319.06L157.22 321.27L160.79 321.27L160.79 322.58L157.22 322.58L157.22 324.84L161.18 324.84L161.18 326.15Z M174.85 326.15L169.44 326.15L169.44 317.75L174.79 317.75L174.79 319.06L170.89 319.06L170.89 321.27L174.46 321.27L174.46 322.58L170.89 322.58L170.89 324.84L174.85 324.84L174.85 326.15Z" fill="#2f6f9e"></path><circle cx="84.5" cy="42.7" r="10" fill="#fff"></circle><circle cx="84.5" cy="42.7" r="10" fill="none" stroke="#2f6f9e" stroke-width="2.4"></circle><circle cx="84.5" cy="42.7" r="4" fill="#2f6f9e"></circle></svg>