<svg xmlns="http://www.w3.org/2000/svg" width="1380" height="2040" viewBox="0 0 230 340"><path d="M59.65,63.48 L59.36,62.45 L58.93,61.53 L58.37,60.72 L57.66,60.01 L56.81,59.41 L56.11,58.79 L55.53,58.15 L55.09,57.50 L54.79,56.82 L54.33,56.33 L53.71,56.04 L52.94,55.95 L52.00,56.04 L50.97,55.92 L49.86,55.57 L48.66,55.00 L47.37,54.21 L45.90,53.78 L44.25,53.72 L42.41,54.03 L40.39,54.71 L38.72,55.14 L37.40,55.31 L36.42,55.23 L35.80,54.90 L35.36,54.38 L35.12,53.65 L35.06,52.73 L35.19,51.60 L35.45,50.50 L35.85,49.42 L36.38,48.35 L37.04,47.31 L37.52,46.24 L37.80,45.14 L37.90,44.03 L37.81,42.89 L37.59,41.80 L37.23,40.78 L36.74,39.81 L36.11,38.90 L35.32,38.14 L34.36,37.53 L33.24,37.07 L31.95,36.76 L30.51,35.91 L28.92,34.53 L27.17,32.61 L25.26,30.15 L23.95,28.16 L23.22,26.63 L23.07,25.56 L23.52,24.96 L23.94,24.03 L24.36,22.77 L24.77,21.19 L25.16,19.27 L25.44,17.32 L25.60,15.33 L25.65,13.32 L25.58,11.27 L25.00,9.00 L23.92,6.51 L22.32,3.80 L20.21,0.88 L18.57,-1.56 L17.40,-3.53 L16.70,-5.01 L16.46,-6.02 L15.88,-7.17 L14.95,-8.46 L13.67,-9.89 L12.04,-11.45 L10.74,-13.09 L9.77,-14.79 L9.12,-16.56 L8.81,-18.40 L8.36,-19.92 L7.78,-21.11 L7.05,-21.97 L6.20,-22.52 L5.41,-23.51 L4.69,-24.95 L4.05,-26.85 L3.47,-29.19 L2.87,-31.11 L2.22,-32.60 L1.54,-33.66 L0.82,-34.30 L0.16,-35.04 L-0.46,-35.87 L-1.03,-36.80 L-1.55,-37.83 L-1.88,-38.62 L-2.02,-39.20 L-1.96,-39.54 L-1.72,-39.66 L-1.68,-39.81 L-1.84,-40.02 L-2.21,-40.27 L-2.78,-40.56 L-3.38,-41.12 L-4.00,-41.96 L-4.65,-43.08 L-5.33,-44.48 L-5.87,-45.81 L-6.26,-47.08 L-6.51,-48.28 L-6.61,-49.43 L-6.49,-50.69 L-6.13,-52.07 L-5.55,-53.58 L-4.74,-55.21 L-4.22,-56.87 L-3.99,-58.56 L-4.04,-60.29 L-4.38,-62.05 L-4.56,-63.51 L-4.57,-64.65 L-4.42,-65.48 L-4.11,-66.00 L-3.94,-66.78 L-3.91,-67.79 L-4.03,-69.06 L-4.29,-70.57 L-4.61,-71.83 L-4.98,-72.86 L-5.41,-73.65 L-5.89,-74.19 L-6.37,-74.37 L-6.86,-74.20 L-7.35,-73.66 L-7.84,-72.77 L-8.84,-71.99 L-10.35,-71.32 L-12.36,-70.77 L-14.87,-70.32 L-16.98,-69.62 L-18.70,-68.68 L-20.01,-67.48 L-20.92,-66.02 L-22.00,-64.82 L-23.24,-63.87 L-24.64,-63.18 L-26.20,-62.73 L-27.70,-62.10 L-29.14,-61.29 L-30.52,-60.29 L-31.83,-59.11 L-33.01,-57.77 L-34.05,-56.27 L-34.96,-54.60 L-35.73,-52.78 L-36.20,-50.86 L-36.38,-48.82 L-36.27,-46.68 L-35.87,-44.44 L-35.66,-42.50 L-35.66,-40.86 L-35.85,-39.53 L-36.24,-38.50 L-36.41,-37.53 L-36.37,-36.61 L-36.10,-35.74 L-35.62,-34.93 L-35.37,-34.08 L-35.36,-33.20 L-35.58,-32.28 L-36.04,-31.33 L-36.04,-29.70 L-35.60,-27.37 L-34.71,-24.36 L-33.37,-20.67 L-32.53,-17.69 L-32.20,-15.43 L-32.37,-13.90 L-33.05,-13.08 L-33.56,-12.31 L-33.92,-11.59 L-34.12,-10.91 L-34.16,-10.27 L-33.40,-9.59 L-31.85,-8.86 L-29.49,-8.09 L-26.34,-7.28 L-23.89,-6.54 L-22.14,-5.87 L-21.10,-5.27 L-20.76,-4.75 L-20.52,-4.18 L-20.38,-3.56 L-20.33,-2.89 L-20.39,-2.18 L-20.58,-1.37 L-20.91,-0.48 L-21.38,0.50 L-22.00,1.56 L-22.38,2.47 L-22.55,3.23 L-22.48,3.83 L-22.20,4.27 L-21.76,4.65 L-21.17,4.96 L-20.42,5.20 L-19.52,5.37 L-18.80,5.87 L-18.27,6.69 L-17.92,7.84 L-17.75,9.31 L-17.91,10.65 L-18.39,11.86 L-19.20,12.94 L-20.33,13.89 L-21.20,14.77 L-21.80,15.56 L-22.14,16.27 L-22.22,16.91 L-21.87,17.67 L-21.09,18.54 L-19.88,19.52 L-18.24,20.63 L-17.02,21.56 L-16.23,22.31 L-15.87,22.89 L-15.94,23.30 L-15.86,23.75 L-15.63,24.26 L-15.25,24.81 L-14.73,25.41 L-14.01,26.04 L-13.10,26.71 L-11.98,27.41 L-10.66,28.15 L-9.42,29.02 L-8.26,30.04 L-7.17,31.20 L-6.15,32.49 L-5.19,33.47 L-4.27,34.13 L-3.40,34.47 L-2.58,34.49 L-1.80,34.68 L-1.07,35.03 L-0.39,35.56 L0.25,36.26 L0.88,36.82 L1.50,37.23 L2.10,37.51 L2.71,37.64 L3.01,38.41 L3.01,39.83 L2.71,41.88 L2.10,44.57 L1.52,46.81 L0.94,48.61 L0.37,49.97 L-0.19,50.88 L-0.61,52.16 L-0.89,53.82 L-1.03,55.84 L-1.03,58.24 L-1.34,60.02 L-1.95,61.18 L-2.87,61.73 L-4.09,61.65 L-5.25,61.72 L-6.34,61.96 L-7.36,62.34 L-8.31,62.89 L-8.97,63.58 L-9.34,64.44 L-9.42,65.44 L-9.22,66.60 L-8.84,67.77 L-8.31,68.94 L-7.61,70.12 L-6.75,71.30 L-5.83,72.30 L-4.86,73.13 L-3.82,73.79 L-2.73,74.28 L-1.82,74.37 L-1.09,74.07 L-0.56,73.37 L-0.21,72.29 L-0.11,71.25 L-0.28,70.24 L-0.70,69.27 L-1.37,68.34 L-1.85,67.57 L-2.14,66.96 L-2.23,66.51 L-2.13,66.22 L-1.88,65.93 L-1.49,65.63 L-0.96,65.33 L-0.28,65.02 L0.51,64.90 L1.42,64.96 L2.44,65.22 L3.57,65.67 L5.18,65.85 L7.26,65.77 L9.80,65.43 L12.83,64.83 L15.22,64.30 L16.99,63.83 L18.14,63.44 L18.66,63.11 L19.10,62.71 L19.47,62.23 L19.76,61.69 L19.96,61.07 L20.32,60.64 L20.81,60.40 L21.45,60.34 L22.23,60.48 L23.04,60.42 L23.88,60.16 L24.75,59.70 L25.65,59.04 L26.43,58.69 L27.09,58.65 L27.64,58.92 L28.07,59.50 L28.86,59.93 L30.00,60.21 L31.49,60.34 L33.34,60.32 L34.86,60.72 L36.06,61.52 L36.93,62.73 L37.48,64.36 L38.28,65.48 L39.33,66.08 L40.63,66.19 L42.18,65.78 L43.89,65.63 L45.76,65.75 L47.80,66.13 L50.00,66.77 L51.71,67.32 L52.92,67.80 L53.64,68.19 L53.86,68.50 L54.17,68.56 L54.57,68.38 L55.07,67.95 L55.65,67.27 L56.11,66.82 L56.43,66.61 L56.61,66.63 L56.67,66.88 L56.85,67.06 L57.15,67.15 L57.58,67.17 L58.14,67.11 L58.63,66.95 L59.05,66.66 L59.39,66.27 L59.67,65.77 L59.87,65.39 L60.01,65.14 L60.08,65.02 L60.08,65.02 L60.01,64.76 L59.86,64.25 Z" fill="#a9842b" fill-opacity="0.11" fill-rule="evenodd" transform="translate(115 178) scale(2.01694) translate(-11.84 0.00)"></path><path d="M59.65,63.48 L59.36,62.45 L58.93,61.53 L58.37,60.72 L57.66,60.01 L56.81,59.41 L56.11,58.79 L55.53,58.15 L55.09,57.50 L54.79,56.82 L54.33,56.33 L53.71,56.04 L52.94,55.95 L52.00,56.04 L50.97,55.92 L49.86,55.57 L48.66,55.00 L47.37,54.21 L45.90,53.78 L44.25,53.72 L42.41,54.03 L40.39,54.71 L38.72,55.14 L37.40,55.31 L36.42,55.23 L35.80,54.90 L35.36,54.38 L35.12,53.65 L35.06,52.73 L35.19,51.60 L35.45,50.50 L35.85,49.42 L36.38,48.35 L37.04,47.31 L37.52,46.24 L37.80,45.14 L37.90,44.03 L37.81,42.89 L37.59,41.80 L37.23,40.78 L36.74,39.81 L36.11,38.90 L35.32,38.14 L34.36,37.53 L33.24,37.07 L31.95,36.76 L30.51,35.91 L28.92,34.53 L27.17,32.61 L25.26,30.15 L23.95,28.16 L23.22,26.63 L23.07,25.56 L23.52,24.96 L23.94,24.03 L24.36,22.77 L24.77,21.19 L25.16,19.27 L25.44,17.32 L25.60,15.33 L25.65,13.32 L25.58,11.27 L25.00,9.00 L23.92,6.51 L22.32,3.80 L20.21,0.88 L18.57,-1.56 L17.40,-3.53 L16.70,-5.01 L16.46,-6.02 L15.88,-7.17 L14.95,-8.46 L13.67,-9.89 L12.04,-11.45 L10.74,-13.09 L9.77,-14.79 L9.12,-16.56 L8.81,-18.40 L8.36,-19.92 L7.78,-21.11 L7.05,-21.97 L6.20,-22.52 L5.41,-23.51 L4.69,-24.95 L4.05,-26.85 L3.47,-29.19 L2.87,-31.11 L2.22,-32.60 L1.54,-33.66 L0.82,-34.30 L0.16,-35.04 L-0.46,-35.87 L-1.03,-36.80 L-1.55,-37.83 L-1.88,-38.62 L-2.02,-39.20 L-1.96,-39.54 L-1.72,-39.66 L-1.68,-39.81 L-1.84,-40.02 L-2.21,-40.27 L-2.78,-40.56 L-3.38,-41.12 L-4.00,-41.96 L-4.65,-43.08 L-5.33,-44.48 L-5.87,-45.81 L-6.26,-47.08 L-6.51,-48.28 L-6.61,-49.43 L-6.49,-50.69 L-6.13,-52.07 L-5.55,-53.58 L-4.74,-55.21 L-4.22,-56.87 L-3.99,-58.56 L-4.04,-60.29 L-4.38,-62.05 L-4.56,-63.51 L-4.57,-64.65 L-4.42,-65.48 L-4.11,-66.00 L-3.94,-66.78 L-3.91,-67.79 L-4.03,-69.06 L-4.29,-70.57 L-4.61,-71.83 L-4.98,-72.86 L-5.41,-73.65 L-5.89,-74.19 L-6.37,-74.37 L-6.86,-74.20 L-7.35,-73.66 L-7.84,-72.77 L-8.84,-71.99 L-10.35,-71.32 L-12.36,-70.77 L-14.87,-70.32 L-16.98,-69.62 L-18.70,-68.68 L-20.01,-67.48 L-20.92,-66.02 L-22.00,-64.82 L-23.24,-63.87 L-24.64,-63.18 L-26.20,-62.73 L-27.70,-62.10 L-29.14,-61.29 L-30.52,-60.29 L-31.83,-59.11 L-33.01,-57.77 L-34.05,-56.27 L-34.96,-54.60 L-35.73,-52.78 L-36.20,-50.86 L-36.38,-48.82 L-36.27,-46.68 L-35.87,-44.44 L-35.66,-42.50 L-35.66,-40.86 L-35.85,-39.53 L-36.24,-38.50 L-36.41,-37.53 L-36.37,-36.61 L-36.10,-35.74 L-35.62,-34.93 L-35.37,-34.08 L-35.36,-33.20 L-35.58,-32.28 L-36.04,-31.33 L-36.04,-29.70 L-35.60,-27.37 L-34.71,-24.36 L-33.37,-20.67 L-32.53,-17.69 L-32.20,-15.43 L-32.37,-13.90 L-33.05,-13.08 L-33.56,-12.31 L-33.92,-11.59 L-34.12,-10.91 L-34.16,-10.27 L-33.40,-9.59 L-31.85,-8.86 L-29.49,-8.09 L-26.34,-7.28 L-23.89,-6.54 L-22.14,-5.87 L-21.10,-5.27 L-20.76,-4.75 L-20.52,-4.18 L-20.38,-3.56 L-20.33,-2.89 L-20.39,-2.18 L-20.58,-1.37 L-20.91,-0.48 L-21.38,0.50 L-22.00,1.56 L-22.38,2.47 L-22.55,3.23 L-22.48,3.83 L-22.20,4.27 L-21.76,4.65 L-21.17,4.96 L-20.42,5.20 L-19.52,5.37 L-18.80,5.87 L-18.27,6.69 L-17.92,7.84 L-17.75,9.31 L-17.91,10.65 L-18.39,11.86 L-19.20,12.94 L-20.33,13.89 L-21.20,14.77 L-21.80,15.56 L-22.14,16.27 L-22.22,16.91 L-21.87,17.67 L-21.09,18.54 L-19.88,19.52 L-18.24,20.63 L-17.02,21.56 L-16.23,22.31 L-15.87,22.89 L-15.94,23.30 L-15.86,23.75 L-15.63,24.26 L-15.25,24.81 L-14.73,25.41 L-14.01,26.04 L-13.10,26.71 L-11.98,27.41 L-10.66,28.15 L-9.42,29.02 L-8.26,30.04 L-7.17,31.20 L-6.15,32.49 L-5.19,33.47 L-4.27,34.13 L-3.40,34.47 L-2.58,34.49 L-1.80,34.68 L-1.07,35.03 L-0.39,35.56 L0.25,36.26 L0.88,36.82 L1.50,37.23 L2.10,37.51 L2.71,37.64 L3.01,38.41 L3.01,39.83 L2.71,41.88 L2.10,44.57 L1.52,46.81 L0.94,48.61 L0.37,49.97 L-0.19,50.88 L-0.61,52.16 L-0.89,53.82 L-1.03,55.84 L-1.03,58.24 L-1.34,60.02 L-1.95,61.18 L-2.87,61.73 L-4.09,61.65 L-5.25,61.72 L-6.34,61.96 L-7.36,62.34 L-8.31,62.89 L-8.97,63.58 L-9.34,64.44 L-9.42,65.44 L-9.22,66.60 L-8.84,67.77 L-8.31,68.94 L-7.61,70.12 L-6.75,71.30 L-5.83,72.30 L-4.86,73.13 L-3.82,73.79 L-2.73,74.28 L-1.82,74.37 L-1.09,74.07 L-0.56,73.37 L-0.21,72.29 L-0.11,71.25 L-0.28,70.24 L-0.70,69.27 L-1.37,68.34 L-1.85,67.57 L-2.14,66.96 L-2.23,66.51 L-2.13,66.22 L-1.88,65.93 L-1.49,65.63 L-0.96,65.33 L-0.28,65.02 L0.51,64.90 L1.42,64.96 L2.44,65.22 L3.57,65.67 L5.18,65.85 L7.26,65.77 L9.80,65.43 L12.83,64.83 L15.22,64.30 L16.99,63.83 L18.14,63.44 L18.66,63.11 L19.10,62.71 L19.47,62.23 L19.76,61.69 L19.96,61.07 L20.32,60.64 L20.81,60.40 L21.45,60.34 L22.23,60.48 L23.04,60.42 L23.88,60.16 L24.75,59.70 L25.65,59.04 L26.43,58.69 L27.09,58.65 L27.64,58.92 L28.07,59.50 L28.86,59.93 L30.00,60.21 L31.49,60.34 L33.34,60.32 L34.86,60.72 L36.06,61.52 L36.93,62.73 L37.48,64.36 L38.28,65.48 L39.33,66.08 L40.63,66.19 L42.18,65.78 L43.89,65.63 L45.76,65.75 L47.80,66.13 L50.00,66.77 L51.71,67.32 L52.92,67.80 L53.64,68.19 L53.86,68.50 L54.17,68.56 L54.57,68.38 L55.07,67.95 L55.65,67.27 L56.11,66.82 L56.43,66.61 L56.61,66.63 L56.67,66.88 L56.85,67.06 L57.15,67.15 L57.58,67.17 L58.14,67.11 L58.63,66.95 L59.05,66.66 L59.39,66.27 L59.67,65.77 L59.87,65.39 L60.01,65.14 L60.08,65.02 L60.08,65.02 L60.01,64.76 L59.86,64.25 Z" fill="none" stroke="#a9842b" stroke-opacity="0.5" stroke-width="0.89" stroke-linejoin="round" stroke-linecap="round" transform="translate(115 178) scale(2.01694) translate(-11.84 0.00)"></path><path d="M61.52 62.80L56.63 62.80L56.63 36.90L61.52 36.90L61.52 47.19L62.18 47.19L70.58 36.90L76.83 36.90L66.03 49.67L77.20 62.80L70.77 62.80L62.18 52.29L61.52 52.29L61.52 62.80Z M84.60 62.80L79.94 62.80L79.94 44.45L84.53 44.45L84.53 46.52L85.20 46.52Q85.60 45.41 86.55 44.89Q87.49 44.38 88.75 44.38L88.75 44.38L90.97 44.38L90.97 48.52L88.67 48.52Q86.90 48.52 85.75 49.46Q84.60 50.41 84.60 52.37L84.60 52.37L84.60 62.80Z M102.96 63.32L102.96 63.32Q100.22 63.32 98.13 62.15Q96.04 60.99 94.87 58.86Q93.71 56.73 93.71 53.85L93.71 53.85L93.71 53.40Q93.71 50.52 94.85 48.39Q96.00 46.26 98.07 45.10Q100.14 43.93 102.88 43.93L102.88 43.93Q105.58 43.93 107.58 45.13Q109.58 46.34 110.69 48.46Q111.80 50.59 111.80 53.40L111.80 53.40L111.80 54.99L98.44 54.99Q98.52 56.88 99.85 58.07Q101.18 59.25 103.10 59.25L103.10 59.25Q105.07 59.25 105.99 58.40Q106.92 57.55 107.40 56.51L107.40 56.51L111.21 58.51Q110.69 59.47 109.71 60.60Q108.73 61.73 107.10 62.52Q105.47 63.32 102.96 63.32ZM98.48 51.52L98.48 51.52L107.06 51.52Q106.92 49.93 105.79 48.96Q104.66 48.00 102.85 48.00L102.85 48.00Q100.96 48.00 99.85 48.96Q98.74 49.93 98.48 51.52Z M122.94 63.10L122.94 63.10Q120.79 63.10 119.18 62.12Q117.57 61.14 116.68 59.40Q115.80 57.66 115.80 55.40L115.80 55.40L115.80 44.45L120.46 44.45L120.46 55.03Q120.46 57.10 121.47 58.14Q122.49 59.18 124.38 59.18L124.38 59.18Q126.53 59.18 127.71 57.75Q128.89 56.33 128.89 53.77L128.89 53.77L128.89 44.45L133.56 44.45L133.56 62.80L128.97 62.80L128.97 60.40L128.30 60.40Q127.86 61.32 126.64 62.21Q125.42 63.10 122.94 63.10Z M150.95 62.80L145.77 62.80Q143.95 62.80 142.82 61.67Q141.70 60.55 141.70 58.66L141.70 58.66L141.70 48.30L137.11 48.30L137.11 44.45L141.70 44.45L141.70 38.75L146.36 38.75L146.36 44.45L151.39 44.45L151.39 48.30L146.36 48.30L146.36 57.84Q146.36 58.95 147.39 58.95L147.39 58.95L150.95 58.95L150.95 62.80Z M160.27 62.80L155.61 62.80L155.61 36.90L160.27 36.90L160.27 46.71L160.94 46.71Q161.23 46.12 161.86 45.52Q162.49 44.93 163.54 44.54Q164.60 44.15 166.23 44.15L166.23 44.15Q168.37 44.15 169.98 45.13Q171.59 46.12 172.48 47.84Q173.37 49.56 173.37 51.85L173.37 51.85L173.37 62.80L168.71 62.80L168.71 52.22Q168.71 50.15 167.69 49.11Q166.67 48.08 164.78 48.08L164.78 48.08Q162.64 48.08 161.45 49.50Q160.27 50.92 160.27 53.48L160.27 53.48L160.27 62.80Z" fill="#1d1c19"></path><path d="M54.95 87.22L54.95 87.22Q54.04 87.22 53.26 86.77Q52.48 86.32 52.00 85.47Q51.53 84.62 51.53 83.42L51.53 83.42L51.53 83.20Q51.53 82.01 52.00 81.16Q52.46 80.30 53.24 79.85Q54.02 79.40 54.95 79.40L54.95 79.40Q55.67 79.40 56.16 79.58Q56.65 79.76 56.96 80.04Q57.28 80.32 57.44 80.62L57.44 80.62L57.68 80.62L57.68 76.51L59.23 76.51L59.23 87.01L57.71 87.01L57.71 85.96L57.47 85.96Q57.19 86.44 56.61 86.83Q56.03 87.22 54.95 87.22ZM55.39 85.87L55.39 85.87Q56.39 85.87 57.04 85.22Q57.70 84.58 57.70 83.38L57.70 83.38L57.70 83.24Q57.70 82.06 57.05 81.41Q56.41 80.77 55.39 80.77L55.39 80.77Q54.40 80.77 53.74 81.41Q53.09 82.06 53.09 83.24L53.09 83.24L53.09 83.38Q53.09 84.58 53.74 85.22Q54.40 85.87 55.39 85.87Z M64.80 87.22L64.80 87.22Q64.01 87.22 63.38 86.95Q62.76 86.68 62.39 86.15Q62.03 85.63 62.03 84.88L62.03 84.88Q62.03 84.11 62.39 83.61Q62.76 83.11 63.40 82.85Q64.04 82.60 64.85 82.60L64.85 82.60L67.10 82.60L67.10 82.12Q67.10 81.47 66.71 81.08Q66.32 80.69 65.51 80.69L65.51 80.69Q64.71 80.69 64.29 81.07Q63.87 81.44 63.74 82.04L63.74 82.04L62.30 81.58Q62.48 80.98 62.88 80.49Q63.27 80.00 63.93 79.70Q64.59 79.40 65.52 79.40L65.52 79.40Q66.96 79.40 67.79 80.14Q68.61 80.87 68.61 82.22L68.61 82.22L68.61 85.27Q68.61 85.72 69.03 85.72L69.03 85.72L69.66 85.72L69.66 87.01L68.51 87.01Q67.98 87.01 67.65 86.74Q67.32 86.47 67.32 86.00L67.32 86.00L67.32 85.96L67.10 85.96Q66.98 86.18 66.74 86.48Q66.50 86.78 66.03 87.00Q65.57 87.22 64.80 87.22ZM65.03 85.94L65.03 85.94Q65.96 85.94 66.53 85.41Q67.10 84.88 67.10 83.95L67.10 83.95L67.10 83.80L64.94 83.80Q64.32 83.80 63.95 84.06Q63.57 84.32 63.57 84.83L63.57 84.83Q63.57 85.34 63.96 85.64Q64.35 85.94 65.03 85.94Z  M81.26 87.22L81.26 87.22Q80.18 87.22 79.60 86.83Q79.03 86.44 78.74 85.96L78.74 85.96L78.50 85.96L78.50 87.01L76.99 87.01L76.99 76.51L78.53 76.51L78.53 80.62L78.77 80.62Q78.95 80.32 79.25 80.04Q79.55 79.76 80.05 79.58Q80.54 79.40 81.26 79.40L81.26 79.40Q82.19 79.40 82.97 79.85Q83.75 80.30 84.22 81.16Q84.68 82.01 84.68 83.20L84.68 83.20L84.68 83.42Q84.68 84.62 84.21 85.47Q83.74 86.32 82.97 86.77Q82.19 87.22 81.26 87.22ZM80.81 85.87L80.81 85.87Q81.82 85.87 82.47 85.22Q83.12 84.58 83.12 83.38L83.12 83.38L83.12 83.24Q83.12 82.06 82.48 81.41Q81.83 80.77 80.81 80.77L80.81 80.77Q79.82 80.77 79.17 81.41Q78.52 82.06 78.52 83.24L78.52 83.24L78.52 83.38Q78.52 84.58 79.17 85.22Q79.82 85.87 80.81 85.87Z M89.15 87.01L87.60 87.01L87.60 79.61L89.15 79.61L89.15 87.01ZM88.38 78.61L88.38 78.61Q87.93 78.61 87.62 78.32Q87.32 78.02 87.32 77.56L87.32 77.56Q87.32 77.09 87.62 76.80Q87.93 76.51 88.38 76.51L88.38 76.51Q88.85 76.51 89.15 76.80Q89.45 77.09 89.45 77.56L89.45 77.56Q89.45 78.02 89.15 78.32Q88.85 78.61 88.38 78.61Z M93.99 87.01L92.44 87.01L92.44 79.61L93.96 79.61L93.96 80.72L94.20 80.72Q94.41 80.27 94.95 79.88Q95.49 79.49 96.55 79.49L96.55 79.49Q97.39 79.49 98.04 79.87Q98.70 80.24 99.07 80.93Q99.45 81.61 99.45 82.57L99.45 82.57L99.45 87.01L97.90 87.01L97.90 82.69Q97.90 81.73 97.42 81.27Q96.94 80.81 96.10 80.81L96.10 80.81Q95.14 80.81 94.56 81.44Q93.99 82.07 93.99 83.27L93.99 83.27L93.99 87.01Z  M109.04 87.01L107.49 87.01L107.49 79.61L109.04 79.61L109.04 87.01ZM108.27 78.61L108.27 78.61Q107.82 78.61 107.51 78.32Q107.21 78.02 107.21 77.56L107.21 77.56Q107.21 77.09 107.51 76.80Q107.82 76.51 108.27 76.51L108.27 76.51Q108.74 76.51 109.04 76.80Q109.34 77.09 109.34 77.56L109.34 77.56Q109.34 78.02 109.04 78.32Q108.74 78.61 108.27 78.61Z  M120.22 87.22L120.22 87.22Q119.30 87.22 118.52 86.77Q117.74 86.32 117.27 85.47Q116.80 84.62 116.80 83.42L116.80 83.42L116.80 83.20Q116.80 82.01 117.26 81.16Q117.73 80.30 118.51 79.85Q119.29 79.40 120.22 79.40L120.22 79.40Q120.94 79.40 121.42 79.58Q121.91 79.76 122.23 80.04Q122.54 80.32 122.71 80.62L122.71 80.62L122.95 80.62L122.95 76.51L124.49 76.51L124.49 87.01L122.98 87.01L122.98 85.96L122.74 85.96Q122.45 86.44 121.88 86.83Q121.30 87.22 120.22 87.22ZM120.65 85.87L120.65 85.87Q121.66 85.87 122.31 85.22Q122.96 84.58 122.96 83.38L122.96 83.38L122.96 83.24Q122.96 82.06 122.32 81.41Q121.67 80.77 120.65 80.77L120.65 80.77Q119.66 80.77 119.01 81.41Q118.36 82.06 118.36 83.24L118.36 83.24L118.36 83.38Q118.36 84.58 119.01 85.22Q119.66 85.87 120.65 85.87Z M130.07 87.22L130.07 87.22Q129.27 87.22 128.65 86.95Q128.03 86.68 127.66 86.15Q127.29 85.63 127.29 84.88L127.29 84.88Q127.29 84.11 127.66 83.61Q128.03 83.11 128.66 82.85Q129.30 82.60 130.11 82.60L130.11 82.60L132.36 82.60L132.36 82.12Q132.36 81.47 131.97 81.08Q131.58 80.69 130.77 80.69L130.77 80.69Q129.98 80.69 129.56 81.07Q129.14 81.44 129.00 82.04L129.00 82.04L127.56 81.58Q127.74 80.98 128.14 80.49Q128.54 80.00 129.20 79.70Q129.86 79.40 130.79 79.40L130.79 79.40Q132.23 79.40 133.05 80.14Q133.88 80.87 133.88 82.22L133.88 82.22L133.88 85.27Q133.88 85.72 134.30 85.72L134.30 85.72L134.93 85.72L134.93 87.01L133.77 87.01Q133.25 87.01 132.92 86.74Q132.59 86.47 132.59 86.00L132.59 86.00L132.59 85.96L132.36 85.96Q132.24 86.18 132.00 86.48Q131.76 86.78 131.30 87.00Q130.83 87.22 130.07 87.22ZM130.29 85.94L130.29 85.94Q131.22 85.94 131.79 85.41Q132.36 84.88 132.36 83.95L132.36 83.95L132.36 83.80L130.20 83.80Q129.59 83.80 129.21 84.06Q128.84 84.32 128.84 84.83L128.84 84.83Q128.84 85.34 129.23 85.64Q129.62 85.94 130.29 85.94Z M138.97 87.01L137.43 87.01L137.43 76.51L138.97 76.51L138.97 80.66L139.21 80.66Q139.36 80.38 139.64 80.11Q139.92 79.84 140.38 79.67Q140.83 79.49 141.54 79.49L141.54 79.49Q142.38 79.49 143.03 79.87Q143.68 80.24 144.06 80.93Q144.43 81.61 144.43 82.57L144.43 82.57L144.43 87.01L142.89 87.01L142.89 82.69Q142.89 81.73 142.41 81.27Q141.93 80.81 141.09 80.81L141.09 80.81Q140.13 80.81 139.55 81.44Q138.97 82.07 138.97 83.27L138.97 83.27L138.97 87.01Z M151.12 87.22L151.12 87.22Q150.01 87.22 149.14 86.76Q148.28 86.30 147.79 85.45Q147.29 84.59 147.29 83.42L147.29 83.42L147.29 83.20Q147.29 82.03 147.79 81.18Q148.28 80.33 149.14 79.87Q150.01 79.40 151.12 79.40L151.12 79.40Q152.23 79.40 153.10 79.87Q153.97 80.33 154.46 81.18Q154.96 82.03 154.96 83.20L154.96 83.20L154.96 83.42Q154.96 84.59 154.46 85.45Q153.97 86.30 153.10 86.76Q152.23 87.22 151.12 87.22ZM151.12 85.84L151.12 85.84Q152.14 85.84 152.77 85.19Q153.41 84.53 153.41 83.38L153.41 83.38L153.41 83.24Q153.41 82.09 152.78 81.44Q152.15 80.78 151.12 80.78L151.12 80.78Q150.11 80.78 149.47 81.44Q148.84 82.09 148.84 83.24L148.84 83.24L148.84 83.38Q148.84 84.53 149.47 85.19Q150.11 85.84 151.12 85.84Z M160.17 87.22L160.17 87.22Q159.38 87.22 158.75 86.95Q158.13 86.68 157.76 86.15Q157.40 85.63 157.40 84.88L157.40 84.88Q157.40 84.11 157.76 83.61Q158.13 83.11 158.77 82.85Q159.41 82.60 160.22 82.60L160.22 82.60L162.47 82.60L162.47 82.12Q162.47 81.47 162.08 81.08Q161.69 80.69 160.88 80.69L160.88 80.69Q160.08 80.69 159.66 81.07Q159.24 81.44 159.11 82.04L159.11 82.04L157.67 81.58Q157.85 80.98 158.24 80.49Q158.64 80.00 159.30 79.70Q159.96 79.40 160.89 79.40L160.89 79.40Q162.33 79.40 163.16 80.14Q163.98 80.87 163.98 82.22L163.98 82.22L163.98 85.27Q163.98 85.72 164.40 85.72L164.40 85.72L165.03 85.72L165.03 87.01L163.88 87.01Q163.35 87.01 163.02 86.74Q162.69 86.47 162.69 86.00L162.69 86.00L162.69 85.96L162.47 85.96Q162.35 86.18 162.11 86.48Q161.87 86.78 161.40 87.00Q160.94 87.22 160.17 87.22ZM160.40 85.94L160.40 85.94Q161.33 85.94 161.90 85.41Q162.47 84.88 162.47 83.95L162.47 83.95L162.47 83.80L160.31 83.80Q159.69 83.80 159.32 84.06Q158.94 84.32 158.94 84.83L158.94 84.83Q158.94 85.34 159.33 85.64Q159.72 85.94 160.40 85.94Z M169.08 87.01L167.53 87.01L167.53 79.61L169.05 79.61L169.05 80.48L169.29 80.48Q169.50 80.09 169.96 79.79Q170.43 79.49 171.22 79.49L171.22 79.49Q172.05 79.49 172.55 79.83Q173.05 80.17 173.31 80.69L173.31 80.69L173.55 80.69Q173.80 80.18 174.29 79.84Q174.78 79.49 175.68 79.49L175.68 79.49Q176.40 79.49 176.95 79.79Q177.51 80.08 177.84 80.66Q178.17 81.23 178.17 82.09L178.17 82.09L178.17 87.01L176.62 87.01L176.62 82.21Q176.62 81.53 176.25 81.17Q175.89 80.80 175.21 80.80L175.21 80.80Q174.49 80.80 174.06 81.26Q173.62 81.73 173.62 82.60L173.62 82.60L173.62 87.01L172.08 87.01L172.08 82.21Q172.08 81.53 171.71 81.17Q171.34 80.80 170.67 80.80L170.67 80.80Q169.95 80.80 169.51 81.26Q169.08 81.73 169.08 82.60L169.08 82.60L169.08 87.01Z" fill="#1d1c19" fill-opacity="0.7"></path><svg x="-17.50" y="105.83" width="258.46" height="132.82" viewBox="0 0 360 185" overflow="visible"><g fill="#1d1c19"><g transform="translate(64.98,0)"><path d="M22.88 133.59 L22.88 133.59 Q21.33 133.16 20.38 132.82 L20.38 132.82 L19.44 132.56 Q19.61 132.13 19.31 131.78 Q19.01 131.44 18.06 131.35 L18.06 131.35 Q16.77 130.49 15.39 128.95 Q14.02 127.40 12.99 125.76 Q11.95 124.13 11.61 123.36 L11.61 123.36 Q11.18 122.32 11.44 121.98 L11.44 121.98 Q11.52 121.81 11.70 121.72 L11.70 121.72 Q12.38 121.46 13.33 121.03 L13.33 121.03 Q14.28 120.35 15.35 120.00 Q16.43 119.66 17.11 121.12 L17.11 121.12 Q18.23 123.10 20.60 124.47 Q22.96 125.85 26.02 126.11 Q29.07 126.37 32.16 125.08 L32.16 125.08 Q34.23 124.13 34.40 122.45 Q34.57 120.78 33.11 118.54 L33.11 118.54 Q32.85 117.85 32.38 117.42 Q31.91 116.99 31.00 116.30 Q30.10 115.62 28.47 114.07 L28.47 114.07 Q27.18 113.47 26.10 112.95 Q25.03 112.43 23.82 111.83 L23.82 111.83 Q22.45 111.14 20.73 109.90 Q19.01 108.65 17.54 107.14 Q16.08 105.64 15.31 104.26 L15.31 104.26 Q13.93 102.97 13.59 100.69 Q13.24 98.42 13.72 95.84 Q14.19 93.26 15.31 91.19 L15.31 91.19 Q15.82 89.99 17.20 88.05 Q18.58 86.12 20.30 84.05 Q22.02 81.99 23.61 80.31 Q25.20 78.64 26.14 78.03 L26.14 78.03 Q26.83 77.35 27.61 76.57 L27.61 76.57 L28.38 75.88 Q28.47 75.45 28.72 75.45 L28.72 75.45 L28.90 75.45 Q29.33 75.20 30.79 74.59 Q32.25 73.99 33.97 72.36 L33.97 72.36 Q39.73 69.61 43.77 68.62 Q47.82 67.63 50.14 67.63 L50.14 67.63 Q52.29 67.71 54.35 68.79 Q56.42 69.86 57.92 71.50 Q59.43 73.13 59.68 75.20 L59.68 75.20 Q60.29 77.26 59.13 80.14 Q57.96 83.02 55.94 85.56 Q53.92 88.10 51.77 89.30 L51.77 89.30 Q49.36 90.33 47.69 89.56 Q46.01 88.78 46.10 87.15 L46.10 87.15 Q46.10 86.46 46.57 85.52 Q47.04 84.57 49.19 82.16 L49.19 82.16 Q51.94 78.12 52.12 76.40 Q52.29 74.68 50.57 74.42 L50.57 74.42 Q50.05 74.25 48.59 74.51 Q47.13 74.77 45.45 75.15 Q43.77 75.54 42.53 75.97 Q41.28 76.40 41.28 76.57 L41.28 76.57 L41.28 76.83 Q41.28 76.92 41.19 77.00 L41.19 77.00 Q41.19 77.09 40.94 77.00 L40.94 77.00 Q40.76 77.00 39.78 77.56 Q38.79 78.12 37.41 78.98 Q36.03 79.84 34.70 80.74 Q33.37 81.65 32.42 82.33 Q31.48 83.02 31.39 83.19 L31.39 83.19 Q31.22 84.14 29.41 84.91 L29.41 84.91 Q27.69 85.95 26.40 87.84 Q25.11 89.73 23.39 92.65 L23.39 92.65 Q21.93 94.63 21.33 96.91 Q20.73 99.19 21.33 100.57 L21.33 100.57 Q21.76 101.94 23.69 103.28 Q25.63 104.61 28.98 106.59 L28.98 106.59 Q31.91 108.22 34.49 110.03 Q37.07 111.83 38.87 113.51 Q40.68 115.19 41.19 116.30 L41.19 116.30 Q42.23 117.77 42.44 119.66 Q42.66 121.55 42.44 123.31 Q42.23 125.08 41.88 126.19 L41.88 126.19 Q41.28 127.57 40.03 129.12 Q38.79 130.67 37.75 130.58 L37.75 130.58 Q36.81 130.84 36.34 131.18 Q35.86 131.53 35.26 131.78 L35.26 131.78 Q34.66 132.13 32.42 132.60 Q30.19 133.07 27.52 133.38 Q24.85 133.68 22.88 133.59 Z M67.77 126.28 L67.77 126.28 Q65.19 127.74 62.31 127.96 Q59.43 128.17 56.93 127.18 Q54.44 126.19 52.89 124.22 L52.89 124.22 Q52.03 123.10 51.26 120.65 Q50.48 118.20 51.00 113.98 L51.00 113.98 Q51.51 110.03 53.45 105.98 Q55.38 101.94 58.22 98.85 Q61.06 95.75 64.41 94.63 L64.41 94.63 Q65.62 94.20 66.86 93.99 Q68.11 93.77 70.18 93.94 L70.18 93.94 Q72.15 94.20 73.70 94.93 Q75.25 95.66 75.94 96.52 L75.94 96.52 Q77.31 97.90 77.74 99.19 Q78.17 100.48 78.09 101.68 L78.09 101.68 Q77.66 104.44 75.64 107.62 Q73.62 110.80 70.00 112.35 L70.00 112.35 Q68.54 112.95 66.56 113.12 Q64.59 113.29 61.15 112.61 L61.15 112.61 Q59.08 112.18 58.44 113.04 Q57.79 113.90 57.88 116.39 L57.88 116.39 Q58.05 117.94 58.61 119.10 Q59.17 120.26 60.72 120.69 L60.72 120.69 Q62.69 121.03 63.55 120.73 Q64.41 120.43 65.70 119.83 L65.70 119.83 Q66.39 119.40 67.08 118.88 L67.08 118.88 L68.37 117.85 Q68.97 117.34 69.40 117.08 L69.40 117.08 Q69.83 116.73 70.26 116.65 Q70.69 116.56 71.12 116.56 L71.12 116.56 Q72.07 116.65 72.93 117.59 Q73.79 118.54 74.05 119.40 L74.05 119.40 Q74.05 120.09 73.19 121.33 Q72.33 122.58 70.91 123.92 Q69.49 125.25 67.77 126.28 Z M66.65 107.10 L66.65 107.10 Q67.25 106.84 68.41 105.90 Q69.57 104.95 70.52 103.88 Q71.47 102.80 71.47 102.20 L71.47 102.20 Q71.47 101.25 70.22 100.57 Q68.97 99.88 66.99 100.31 L66.99 100.31 Q66.31 100.48 65.36 101.25 Q64.41 102.03 63.47 103.02 Q62.52 104.01 61.83 104.91 Q61.15 105.81 60.89 106.33 L60.89 106.33 Q61.23 106.76 62.26 107.02 Q63.30 107.27 64.54 107.27 Q65.79 107.27 66.65 107.10 Z M96.49 126.28 L96.49 126.28 Q93.91 127.74 91.03 127.96 Q88.15 128.17 85.66 127.18 Q83.16 126.19 81.61 124.22 L81.61 124.22 Q80.75 123.10 79.98 120.65 Q79.21 118.20 79.72 113.98 L79.72 113.98 Q80.24 110.03 82.17 105.98 Q84.11 101.94 86.95 98.85 Q89.78 95.75 93.14 94.63 L93.14 94.63 Q94.34 94.20 95.59 93.99 Q96.84 93.77 98.90 93.94 L98.90 93.94 Q100.88 94.20 102.43 94.93 Q103.97 95.66 104.66 96.52 L104.66 96.52 Q106.04 97.90 106.47 99.19 Q106.90 100.48 106.81 101.68 L106.81 101.68 Q106.38 104.44 104.36 107.62 Q102.34 110.80 98.73 112.35 L98.73 112.35 Q97.27 112.95 95.29 113.12 Q93.31 113.29 89.87 112.61 L89.87 112.61 Q87.81 112.18 87.16 113.04 Q86.52 113.90 86.60 116.39 L86.60 116.39 Q86.77 117.94 87.33 119.10 Q87.89 120.26 89.44 120.69 L89.44 120.69 Q91.42 121.03 92.28 120.73 Q93.14 120.43 94.43 119.83 L94.43 119.83 Q95.12 119.40 95.80 118.88 L95.80 118.88 L97.09 117.85 Q97.70 117.34 98.13 117.08 L98.13 117.08 Q98.56 116.73 98.99 116.65 Q99.42 116.56 99.85 116.56 L99.85 116.56 Q100.79 116.65 101.65 117.59 Q102.51 118.54 102.77 119.40 L102.77 119.40 Q102.77 120.09 101.91 121.33 Q101.05 122.58 99.63 123.92 Q98.21 125.25 96.49 126.28 Z M95.37 107.10 L95.37 107.10 Q95.98 106.84 97.14 105.90 Q98.30 104.95 99.24 103.88 Q100.19 102.80 100.19 102.20 L100.19 102.20 Q100.19 101.25 98.94 100.57 Q97.70 99.88 95.72 100.31 L95.72 100.31 Q95.03 100.48 94.08 101.25 Q93.14 102.03 92.19 103.02 Q91.25 104.01 90.56 104.91 Q89.87 105.81 89.61 106.33 L89.61 106.33 Q89.96 106.76 90.99 107.02 Q92.02 107.27 93.27 107.27 Q94.51 107.27 95.37 107.10 Z M118.42 145.20 L118.42 145.20 Q116.01 146.15 113.39 144.90 Q110.77 143.65 108.88 140.99 L108.88 140.99 Q108.53 140.47 107.84 139.14 Q107.16 137.80 106.51 136.26 Q105.87 134.71 105.56 133.59 Q105.26 132.47 105.52 132.30 L105.52 132.30 Q105.87 131.35 107.07 131.18 Q108.27 131.01 109.48 131.31 Q110.68 131.61 110.85 132.13 L110.85 132.13 Q111.11 132.73 111.37 133.38 Q111.63 134.02 112.01 134.58 Q112.40 135.14 112.75 135.57 L112.75 135.57 Q113.69 137.03 114.81 137.59 Q115.93 138.15 116.53 137.72 L116.53 137.72 Q117.99 136.60 118.72 135.09 Q119.45 133.59 120.66 129.81 L120.66 129.81 Q121.60 126.62 122.29 124.30 Q122.98 121.98 123.75 120.00 L123.75 120.00 Q124.01 118.97 124.44 118.20 L124.44 118.20 Q124.53 118.02 124.61 117.85 L124.61 117.85 Q123.41 118.71 122.46 119.57 L122.46 119.57 Q121.17 120.78 118.94 121.72 L118.94 121.72 Q118.42 122.32 116.40 122.45 Q114.38 122.58 112.49 121.98 L112.49 121.98 Q111.28 121.29 110.55 120.56 Q109.82 119.83 109.35 118.88 Q108.88 117.94 108.36 116.65 L108.36 116.65 Q107.76 115.36 108.19 112.43 Q108.62 109.51 109.74 106.59 L109.74 106.59 Q110.77 104.44 112.75 101.94 Q114.72 99.45 116.96 97.43 Q119.20 95.41 121.00 94.89 L121.00 94.89 Q121.69 94.55 123.41 94.07 Q125.13 93.60 126.68 94.03 L126.68 94.03 Q128.14 94.20 128.91 94.67 Q129.69 95.15 131.41 96.61 L131.41 96.61 Q132.53 97.73 134.16 99.49 Q135.79 101.25 136.22 102.46 L136.22 102.46 Q136.83 103.75 136.48 105.25 Q136.14 106.76 135.28 107.88 L135.28 107.88 Q134.50 108.99 133.64 110.11 Q132.78 111.23 132.35 113.21 L132.35 113.21 Q131.92 115.79 130.72 119.01 Q129.52 122.24 128.83 124.99 L128.83 124.99 L127.45 130.32 Q125.30 137.63 122.72 140.94 Q120.14 144.25 118.42 145.20 Z M116.62 115.62 L116.62 115.62 Q118.34 115.53 119.58 115.23 Q120.83 114.93 121.95 113.85 Q123.07 112.78 124.53 110.54 L124.53 110.54 Q125.99 108.48 126.59 106.76 Q127.19 105.04 127.02 102.89 L127.02 102.89 Q126.94 101.51 126.25 101.08 Q125.56 100.65 124.44 100.82 L124.44 100.82 Q122.81 101.08 121.52 102.16 Q120.23 103.23 118.51 105.47 L118.51 105.47 Q117.22 107.19 116.36 109.60 L116.36 109.60 Q115.50 112.18 115.63 113.72 Q115.76 115.27 116.62 115.62 Z M143.88 138.41 L143.88 138.41 Q143.36 138.75 141.56 137.59 Q139.75 136.43 138.55 135.05 L138.55 135.05 Q137.94 134.36 137.77 133.59 Q137.60 132.82 137.86 130.67 L137.86 130.67 Q138.20 129.72 138.24 128.86 Q138.29 128.00 138.29 127.66 L138.29 127.66 Q138.29 127.14 138.59 125.25 Q138.89 123.36 139.23 121.25 Q139.58 119.14 139.84 118.02 L139.84 118.02 Q139.84 117.94 139.96 117.42 Q140.09 116.91 140.18 116.65 L140.18 116.65 Q140.35 115.87 140.61 114.76 Q140.87 113.64 141.13 111.75 L141.13 111.75 Q141.81 109.60 142.29 107.49 Q142.76 105.38 142.76 104.61 L142.76 104.61 Q142.76 103.06 143.96 102.37 L143.96 102.37 Q144.05 101.94 144.48 101.04 Q144.91 100.14 145.25 99.53 L145.25 99.53 Q146.97 94.63 148.09 91.71 Q149.21 88.78 150.41 86.63 L150.41 86.63 Q150.93 85.17 151.57 83.62 Q152.22 82.08 152.91 81.22 L152.91 81.22 Q153.51 80.01 155.01 78.25 Q156.52 76.49 158.24 74.85 Q159.96 73.22 160.99 72.44 L160.99 72.44 Q162.88 71.50 164.52 70.90 Q166.15 70.29 167.96 70.29 L167.96 70.29 Q169.59 70.29 170.84 71.03 Q172.09 71.76 174.58 73.99 L174.58 73.99 Q175.44 75.11 175.44 76.14 Q175.44 77.17 175.01 77.86 L175.01 77.86 Q174.41 79.24 173.20 81.26 Q172.00 83.28 170.88 84.87 Q169.76 86.46 169.25 86.55 L169.25 86.55 Q168.22 87.15 167.10 86.89 Q165.98 86.63 165.98 85.34 L165.98 85.34 Q165.98 84.74 166.07 84.23 L166.07 84.23 L166.07 83.71 Q166.32 82.59 166.71 81.73 Q167.10 80.87 167.44 80.27 L167.44 80.27 Q168.13 79.15 167.83 78.12 Q167.53 77.09 165.64 77.26 L165.64 77.26 Q165.38 77.43 164.65 78.08 Q163.92 78.72 163.10 79.54 Q162.28 80.36 161.68 81.09 Q161.08 81.82 161.08 82.08 L161.08 82.08 L160.65 82.94 Q160.13 83.88 159.19 85.00 L159.19 85.00 Q158.58 85.86 158.15 86.63 Q157.72 87.41 157.72 87.84 L157.72 87.84 Q157.72 88.18 157.64 88.44 Q157.55 88.70 157.21 88.70 L157.21 88.70 L156.95 89.56 Q156.61 90.42 155.92 91.62 L155.92 91.62 Q155.57 92.48 155.19 93.21 Q154.80 93.94 154.46 94.29 L154.46 94.29 L154.37 94.46 L154.03 95.41 Q153.60 96.44 153.17 97.47 Q152.74 98.50 152.74 98.67 L152.74 98.67 Q152.74 99.02 153.77 99.02 Q154.80 99.02 156.26 98.72 Q157.72 98.42 159.10 98.07 L159.10 98.07 Q160.30 97.73 160.82 97.73 Q161.34 97.73 162.45 98.07 L162.45 98.07 Q163.14 98.50 163.57 99.58 Q164.00 100.65 164.22 101.73 Q164.43 102.80 164.26 103.32 L164.26 103.32 Q164.17 103.66 162.32 104.26 Q160.48 104.87 158.67 105.21 L158.67 105.21 Q157.12 105.55 155.19 105.94 Q153.25 106.33 151.79 106.72 Q150.33 107.10 150.24 107.45 L150.24 107.45 Q149.90 107.45 149.68 107.88 Q149.47 108.31 149.47 108.65 L149.47 108.65 Q149.47 109.77 149.04 110.46 L149.04 110.46 Q148.87 110.97 148.48 112.56 Q148.09 114.15 147.70 116.00 Q147.32 117.85 147.02 119.44 Q146.72 121.03 146.72 121.55 L146.72 121.55 Q146.20 122.15 146.11 123.06 Q146.03 123.96 146.03 124.65 L146.03 124.65 Q145.68 125.33 145.60 125.89 Q145.51 126.45 145.51 126.80 L145.51 126.80 L145.51 127.14 Q145.51 127.40 145.43 127.66 L145.43 127.66 Q145.34 128.52 145.21 129.94 Q145.08 131.35 145.08 132.73 L145.08 132.73 L144.82 135.22 Q144.74 136.34 144.52 137.16 Q144.31 137.98 143.88 138.41 Z M186.02 127.83 L186.02 127.83 Q185.16 126.97 184.64 125.46 Q184.13 123.96 183.61 121.98 L183.61 121.98 Q183.44 121.29 183.48 120.43 Q183.52 119.57 183.44 119.06 L183.44 119.06 Q183.18 119.66 182.62 120.60 Q182.06 121.55 181.55 121.98 L181.55 121.98 Q181.20 122.32 180.00 123.31 Q178.79 124.30 177.59 124.90 L177.59 124.90 Q174.75 126.71 172.56 126.58 Q170.37 126.45 168.73 124.39 L168.73 124.39 Q167.36 123.27 166.50 121.55 Q165.64 119.83 166.15 117.42 L166.15 117.42 Q166.32 114.41 167.01 111.53 Q167.70 108.65 169.85 103.83 L169.85 103.83 Q171.66 100.31 172.60 98.33 Q173.55 96.35 173.81 96.01 L173.81 96.01 Q175.10 95.58 176.99 96.05 Q178.88 96.52 179.05 97.73 L179.05 97.73 Q179.57 98.59 179.05 100.95 Q178.54 103.32 176.99 106.33 L176.99 106.33 Q175.78 109.25 174.71 112.00 Q173.63 114.76 173.42 116.65 Q173.20 118.54 174.41 118.97 L174.41 118.97 Q175.18 119.40 176.69 118.88 Q178.19 118.37 180.26 115.79 Q182.32 113.21 184.64 107.62 L184.64 107.62 Q185.33 105.90 185.67 104.56 Q186.02 103.23 186.10 101.60 L186.10 101.60 Q185.93 100.57 186.66 99.45 Q187.39 98.33 188.43 97.73 L188.43 97.73 Q188.77 97.30 189.37 96.87 L189.37 96.87 Q189.80 96.61 189.97 96.78 L189.97 96.78 Q190.06 96.78 190.15 96.95 L190.15 96.95 L191.52 96.87 Q191.87 96.78 192.30 97.56 Q192.73 98.33 193.16 98.67 L193.16 98.67 Q194.10 99.45 194.02 102.03 Q193.93 104.61 191.95 109.25 L191.95 109.25 Q190.32 112.78 189.76 114.58 Q189.20 116.39 189.11 118.11 L189.11 118.11 Q189.11 119.66 189.37 120.73 Q189.63 121.81 190.92 122.93 L190.92 122.93 Q191.87 123.53 191.99 124.95 Q192.12 126.37 192.04 127.40 L192.04 127.40 Q191.87 128.17 190.70 128.47 Q189.54 128.77 188.21 128.60 Q186.88 128.43 186.02 127.83 Z M197.80 126.54 L197.80 126.54 Q197.11 125.85 196.81 124.47 Q196.51 123.10 196.60 121.77 Q196.68 120.43 197.03 119.74 L197.03 119.74 Q197.03 119.06 197.24 118.67 Q197.46 118.28 197.37 117.94 L197.37 117.94 Q197.28 117.59 197.54 116.73 Q197.80 115.87 198.06 115.10 L198.06 115.10 Q198.66 113.72 199.43 111.53 Q200.21 109.34 200.98 107.06 Q201.76 104.78 202.27 103.10 Q202.79 101.43 202.87 101.08 L202.87 101.08 Q202.87 100.05 204.25 99.96 L204.25 99.96 Q205.28 99.62 206.74 100.82 Q208.21 102.03 209.07 103.40 L209.07 103.40 Q209.75 104.09 209.58 105.21 Q209.41 106.33 208.46 108.39 L208.46 108.39 Q208.12 109.08 207.65 110.67 Q207.17 112.26 207.00 113.29 L207.00 113.29 Q206.66 113.98 206.18 115.23 Q205.71 116.48 205.37 117.59 L205.37 117.59 Q205.20 118.02 205.02 119.19 Q204.85 120.35 204.59 121.55 Q204.34 122.75 203.91 123.44 L203.91 123.44 Q203.13 126.97 201.20 127.57 Q199.26 128.17 197.80 126.54 Z " fill="#1d1c19"></path><defs><mask id="hm2" maskUnits="userSpaceOnUse"><path d="M0,3 C0,-3 -9,-6 -9,-13 C-9,-19 -2,-20 0,-14 C2,-20 9,-19 9,-13 C9,-6 0,-3 0,3 Z" fill="#fff"></path><path d="M-7.5,-8 q2.5,-3.4 5,0 t5,0 t5,0" fill="none" stroke="#000" stroke-width="2.1" stroke-linecap="round"></path></mask></defs><g transform="translate(210.40,95.23) rotate(12) scale(0.940)"><path d="M0,3 C0,-3 -9,-6 -9,-13 C-9,-19 -2,-20 0,-14 C2,-20 9,-19 9,-13 C9,-6 0,-3 0,3 Z" fill="#d23b34" mask="url(#hm2)"></path></g></g></g></svg><path d="M41.62 286.74L39.70 286.74L39.70 277.29L36.35 277.29L36.35 275.54L44.96 275.54L44.96 277.29L41.62 277.29L41.62 286.74Z M62.68 286.74L55.46 286.74L55.46 275.54L62.60 275.54L62.60 277.29L57.40 277.29L57.40 280.23L62.15 280.23L62.15 281.98L57.40 281.98L57.40 285.00L62.68 285.00L62.68 286.74Z M77.25 286.97L77.25 286.97Q76.06 286.97 75.13 286.45Q74.19 285.93 73.64 284.93Q73.09 283.93 73.09 282.47L73.09 282.47L73.09 279.82Q73.09 277.64 74.30 276.48Q75.52 275.32 77.57 275.32L77.57 275.32Q79.62 275.32 80.72 276.42Q81.82 277.51 81.82 279.37L81.82 279.37L81.82 279.43L79.94 279.43L79.94 279.30Q79.94 278.66 79.68 278.15Q79.42 277.64 78.90 277.34Q78.37 277.05 77.57 277.05L77.57 277.05Q76.38 277.05 75.70 277.78Q75.02 278.50 75.02 279.78L75.02 279.78L75.02 282.50Q75.02 283.77 75.70 284.52Q76.38 285.27 77.60 285.27L77.60 285.27Q78.82 285.27 79.38 284.62Q79.94 283.96 79.94 282.94L79.94 282.94L79.94 282.74L77.10 282.74L77.10 281.11L81.82 281.11L81.82 286.74L80.06 286.74L80.06 285.64L79.79 285.64Q79.66 285.93 79.39 286.24Q79.12 286.55 78.62 286.76Q78.11 286.97 77.25 286.97Z M100.15 286.74L92.94 286.74L92.94 275.54L100.07 275.54L100.07 277.29L94.87 277.29L94.87 280.23L99.62 280.23L99.62 281.98L94.87 281.98L94.87 285.00L100.15 285.00L100.15 286.74Z M112.77 286.74L110.83 286.74L110.83 275.54L115.62 275.54Q116.67 275.54 117.46 275.91Q118.24 276.28 118.68 276.94Q119.12 277.61 119.12 278.54L119.12 278.54L119.12 278.71Q119.12 279.75 118.62 280.38Q118.13 281.00 117.42 281.29L117.42 281.29L117.42 281.54Q118.05 281.58 118.41 281.98Q118.77 282.38 118.77 283.05L118.77 283.05L118.77 286.74L116.85 286.74L116.85 283.32Q116.85 282.92 116.63 282.67Q116.42 282.42 115.94 282.42L115.94 282.42L112.77 282.42L112.77 286.74ZM112.77 277.29L112.77 280.68L115.42 280.68Q116.26 280.68 116.73 280.24Q117.20 279.80 117.20 279.06L117.20 279.06L117.20 278.92Q117.20 278.17 116.74 277.73Q116.27 277.29 115.42 277.29L115.42 277.29L112.77 277.29Z M131.85 286.74L129.94 286.74L129.94 275.54L133.62 275.54L136.26 285.45L136.52 285.45L136.52 275.54L138.42 275.54L138.42 286.74L134.76 286.74L132.12 276.84L131.85 276.84L131.85 286.74Z M153.49 286.97L153.49 286.97Q152.21 286.97 151.22 286.51Q150.24 286.06 149.68 285.19Q149.12 284.33 149.12 283.08L149.12 283.08L149.12 282.66L151.02 282.66L151.02 283.08Q151.02 284.18 151.70 284.73Q152.37 285.27 153.49 285.27L153.49 285.27Q154.62 285.27 155.20 284.81Q155.78 284.34 155.78 283.61L155.78 283.61Q155.78 283.11 155.50 282.80Q155.23 282.49 154.71 282.30Q154.19 282.10 153.46 281.93L153.46 281.93L152.98 281.83Q151.87 281.58 151.06 281.18Q150.26 280.79 149.82 280.17Q149.39 279.54 149.39 278.54L149.39 278.54Q149.39 277.53 149.87 276.81Q150.35 276.09 151.23 275.70Q152.11 275.32 153.30 275.32L153.30 275.32Q154.48 275.32 155.41 275.72Q156.34 276.12 156.87 276.92Q157.41 277.72 157.41 278.92L157.41 278.92L157.41 279.45L155.50 279.45L155.50 278.92Q155.50 278.23 155.23 277.82Q154.96 277.40 154.46 277.21Q153.97 277.02 153.30 277.02L153.30 277.02Q152.30 277.02 151.79 277.40Q151.28 277.78 151.28 278.49L151.28 278.49Q151.28 278.94 151.51 279.25Q151.74 279.56 152.20 279.76Q152.66 279.96 153.34 280.10L153.34 280.10L153.82 280.22Q154.98 280.47 155.84 280.86Q156.70 281.26 157.19 281.90Q157.68 282.54 157.68 283.56L157.68 283.56Q157.68 284.57 157.16 285.34Q156.64 286.10 155.70 286.54Q154.77 286.97 153.49 286.97Z M175.58 286.74L168.36 286.74L168.36 275.54L175.50 275.54L175.50 277.29L170.30 277.29L170.30 280.23L175.05 280.23L175.05 281.98L170.30 281.98L170.30 285.00L175.58 285.00L175.58 286.74Z M193.47 286.74L186.26 286.74L186.26 275.54L193.39 275.54L193.39 277.29L188.19 277.29L188.19 280.23L192.94 280.23L192.94 281.98L188.19 281.98L188.19 285.00L193.47 285.00L193.47 286.74Z" fill="#a9842b"></path><circle cx="110.9" cy="310.0" r="10" fill="#fff"></circle><circle cx="110.9" cy="310.0" r="10" fill="none" stroke="#a9842b" stroke-width="2.4"></circle><circle cx="110.9" cy="310.0" r="4" fill="#a9842b"></circle></svg>