<svg xmlns="http://www.w3.org/2000/svg" width="1380" height="2040" viewBox="0 0 230 340"><path d="M59.65,63.48 L59.36,62.45 L58.93,61.53 L58.37,60.72 L57.66,60.01 L56.81,59.41 L56.11,58.79 L55.53,58.15 L55.09,57.50 L54.79,56.82 L54.33,56.33 L53.71,56.04 L52.94,55.95 L52.00,56.04 L50.97,55.92 L49.86,55.57 L48.66,55.00 L47.37,54.21 L45.90,53.78 L44.25,53.72 L42.41,54.03 L40.39,54.71 L38.72,55.14 L37.40,55.31 L36.42,55.23 L35.80,54.90 L35.36,54.38 L35.12,53.65 L35.06,52.73 L35.19,51.60 L35.45,50.50 L35.85,49.42 L36.38,48.35 L37.04,47.31 L37.52,46.24 L37.80,45.14 L37.90,44.03 L37.81,42.89 L37.59,41.80 L37.23,40.78 L36.74,39.81 L36.11,38.90 L35.32,38.14 L34.36,37.53 L33.24,37.07 L31.95,36.76 L30.51,35.91 L28.92,34.53 L27.17,32.61 L25.26,30.15 L23.95,28.16 L23.22,26.63 L23.07,25.56 L23.52,24.96 L23.94,24.03 L24.36,22.77 L24.77,21.19 L25.16,19.27 L25.44,17.32 L25.60,15.33 L25.65,13.32 L25.58,11.27 L25.00,9.00 L23.92,6.51 L22.32,3.80 L20.21,0.88 L18.57,-1.56 L17.40,-3.53 L16.70,-5.01 L16.46,-6.02 L15.88,-7.17 L14.95,-8.46 L13.67,-9.89 L12.04,-11.45 L10.74,-13.09 L9.77,-14.79 L9.12,-16.56 L8.81,-18.40 L8.36,-19.92 L7.78,-21.11 L7.05,-21.97 L6.20,-22.52 L5.41,-23.51 L4.69,-24.95 L4.05,-26.85 L3.47,-29.19 L2.87,-31.11 L2.22,-32.60 L1.54,-33.66 L0.82,-34.30 L0.16,-35.04 L-0.46,-35.87 L-1.03,-36.80 L-1.55,-37.83 L-1.88,-38.62 L-2.02,-39.20 L-1.96,-39.54 L-1.72,-39.66 L-1.68,-39.81 L-1.84,-40.02 L-2.21,-40.27 L-2.78,-40.56 L-3.38,-41.12 L-4.00,-41.96 L-4.65,-43.08 L-5.33,-44.48 L-5.87,-45.81 L-6.26,-47.08 L-6.51,-48.28 L-6.61,-49.43 L-6.49,-50.69 L-6.13,-52.07 L-5.55,-53.58 L-4.74,-55.21 L-4.22,-56.87 L-3.99,-58.56 L-4.04,-60.29 L-4.38,-62.05 L-4.56,-63.51 L-4.57,-64.65 L-4.42,-65.48 L-4.11,-66.00 L-3.94,-66.78 L-3.91,-67.79 L-4.03,-69.06 L-4.29,-70.57 L-4.61,-71.83 L-4.98,-72.86 L-5.41,-73.65 L-5.89,-74.19 L-6.37,-74.37 L-6.86,-74.20 L-7.35,-73.66 L-7.84,-72.77 L-8.84,-71.99 L-10.35,-71.32 L-12.36,-70.77 L-14.87,-70.32 L-16.98,-69.62 L-18.70,-68.68 L-20.01,-67.48 L-20.92,-66.02 L-22.00,-64.82 L-23.24,-63.87 L-24.64,-63.18 L-26.20,-62.73 L-27.70,-62.10 L-29.14,-61.29 L-30.52,-60.29 L-31.83,-59.11 L-33.01,-57.77 L-34.05,-56.27 L-34.96,-54.60 L-35.73,-52.78 L-36.20,-50.86 L-36.38,-48.82 L-36.27,-46.68 L-35.87,-44.44 L-35.66,-42.50 L-35.66,-40.86 L-35.85,-39.53 L-36.24,-38.50 L-36.41,-37.53 L-36.37,-36.61 L-36.10,-35.74 L-35.62,-34.93 L-35.37,-34.08 L-35.36,-33.20 L-35.58,-32.28 L-36.04,-31.33 L-36.04,-29.70 L-35.60,-27.37 L-34.71,-24.36 L-33.37,-20.67 L-32.53,-17.69 L-32.20,-15.43 L-32.37,-13.90 L-33.05,-13.08 L-33.56,-12.31 L-33.92,-11.59 L-34.12,-10.91 L-34.16,-10.27 L-33.40,-9.59 L-31.85,-8.86 L-29.49,-8.09 L-26.34,-7.28 L-23.89,-6.54 L-22.14,-5.87 L-21.10,-5.27 L-20.76,-4.75 L-20.52,-4.18 L-20.38,-3.56 L-20.33,-2.89 L-20.39,-2.18 L-20.58,-1.37 L-20.91,-0.48 L-21.38,0.50 L-22.00,1.56 L-22.38,2.47 L-22.55,3.23 L-22.48,3.83 L-22.20,4.27 L-21.76,4.65 L-21.17,4.96 L-20.42,5.20 L-19.52,5.37 L-18.80,5.87 L-18.27,6.69 L-17.92,7.84 L-17.75,9.31 L-17.91,10.65 L-18.39,11.86 L-19.20,12.94 L-20.33,13.89 L-21.20,14.77 L-21.80,15.56 L-22.14,16.27 L-22.22,16.91 L-21.87,17.67 L-21.09,18.54 L-19.88,19.52 L-18.24,20.63 L-17.02,21.56 L-16.23,22.31 L-15.87,22.89 L-15.94,23.30 L-15.86,23.75 L-15.63,24.26 L-15.25,24.81 L-14.73,25.41 L-14.01,26.04 L-13.10,26.71 L-11.98,27.41 L-10.66,28.15 L-9.42,29.02 L-8.26,30.04 L-7.17,31.20 L-6.15,32.49 L-5.19,33.47 L-4.27,34.13 L-3.40,34.47 L-2.58,34.49 L-1.80,34.68 L-1.07,35.03 L-0.39,35.56 L0.25,36.26 L0.88,36.82 L1.50,37.23 L2.10,37.51 L2.71,37.64 L3.01,38.41 L3.01,39.83 L2.71,41.88 L2.10,44.57 L1.52,46.81 L0.94,48.61 L0.37,49.97 L-0.19,50.88 L-0.61,52.16 L-0.89,53.82 L-1.03,55.84 L-1.03,58.24 L-1.34,60.02 L-1.95,61.18 L-2.87,61.73 L-4.09,61.65 L-5.25,61.72 L-6.34,61.96 L-7.36,62.34 L-8.31,62.89 L-8.97,63.58 L-9.34,64.44 L-9.42,65.44 L-9.22,66.60 L-8.84,67.77 L-8.31,68.94 L-7.61,70.12 L-6.75,71.30 L-5.83,72.30 L-4.86,73.13 L-3.82,73.79 L-2.73,74.28 L-1.82,74.37 L-1.09,74.07 L-0.56,73.37 L-0.21,72.29 L-0.11,71.25 L-0.28,70.24 L-0.70,69.27 L-1.37,68.34 L-1.85,67.57 L-2.14,66.96 L-2.23,66.51 L-2.13,66.22 L-1.88,65.93 L-1.49,65.63 L-0.96,65.33 L-0.28,65.02 L0.51,64.90 L1.42,64.96 L2.44,65.22 L3.57,65.67 L5.18,65.85 L7.26,65.77 L9.80,65.43 L12.83,64.83 L15.22,64.30 L16.99,63.83 L18.14,63.44 L18.66,63.11 L19.10,62.71 L19.47,62.23 L19.76,61.69 L19.96,61.07 L20.32,60.64 L20.81,60.40 L21.45,60.34 L22.23,60.48 L23.04,60.42 L23.88,60.16 L24.75,59.70 L25.65,59.04 L26.43,58.69 L27.09,58.65 L27.64,58.92 L28.07,59.50 L28.86,59.93 L30.00,60.21 L31.49,60.34 L33.34,60.32 L34.86,60.72 L36.06,61.52 L36.93,62.73 L37.48,64.36 L38.28,65.48 L39.33,66.08 L40.63,66.19 L42.18,65.78 L43.89,65.63 L45.76,65.75 L47.80,66.13 L50.00,66.77 L51.71,67.32 L52.92,67.80 L53.64,68.19 L53.86,68.50 L54.17,68.56 L54.57,68.38 L55.07,67.95 L55.65,67.27 L56.11,66.82 L56.43,66.61 L56.61,66.63 L56.67,66.88 L56.85,67.06 L57.15,67.15 L57.58,67.17 L58.14,67.11 L58.63,66.95 L59.05,66.66 L59.39,66.27 L59.67,65.77 L59.87,65.39 L60.01,65.14 L60.08,65.02 L60.08,65.02 L60.01,64.76 L59.86,64.25 Z" fill="#2f7d8a" fill-opacity="0.11" fill-rule="evenodd" transform="translate(115 178) scale(2.01694) translate(-11.84 0.00)"></path><path d="M59.65,63.48 L59.36,62.45 L58.93,61.53 L58.37,60.72 L57.66,60.01 L56.81,59.41 L56.11,58.79 L55.53,58.15 L55.09,57.50 L54.79,56.82 L54.33,56.33 L53.71,56.04 L52.94,55.95 L52.00,56.04 L50.97,55.92 L49.86,55.57 L48.66,55.00 L47.37,54.21 L45.90,53.78 L44.25,53.72 L42.41,54.03 L40.39,54.71 L38.72,55.14 L37.40,55.31 L36.42,55.23 L35.80,54.90 L35.36,54.38 L35.12,53.65 L35.06,52.73 L35.19,51.60 L35.45,50.50 L35.85,49.42 L36.38,48.35 L37.04,47.31 L37.52,46.24 L37.80,45.14 L37.90,44.03 L37.81,42.89 L37.59,41.80 L37.23,40.78 L36.74,39.81 L36.11,38.90 L35.32,38.14 L34.36,37.53 L33.24,37.07 L31.95,36.76 L30.51,35.91 L28.92,34.53 L27.17,32.61 L25.26,30.15 L23.95,28.16 L23.22,26.63 L23.07,25.56 L23.52,24.96 L23.94,24.03 L24.36,22.77 L24.77,21.19 L25.16,19.27 L25.44,17.32 L25.60,15.33 L25.65,13.32 L25.58,11.27 L25.00,9.00 L23.92,6.51 L22.32,3.80 L20.21,0.88 L18.57,-1.56 L17.40,-3.53 L16.70,-5.01 L16.46,-6.02 L15.88,-7.17 L14.95,-8.46 L13.67,-9.89 L12.04,-11.45 L10.74,-13.09 L9.77,-14.79 L9.12,-16.56 L8.81,-18.40 L8.36,-19.92 L7.78,-21.11 L7.05,-21.97 L6.20,-22.52 L5.41,-23.51 L4.69,-24.95 L4.05,-26.85 L3.47,-29.19 L2.87,-31.11 L2.22,-32.60 L1.54,-33.66 L0.82,-34.30 L0.16,-35.04 L-0.46,-35.87 L-1.03,-36.80 L-1.55,-37.83 L-1.88,-38.62 L-2.02,-39.20 L-1.96,-39.54 L-1.72,-39.66 L-1.68,-39.81 L-1.84,-40.02 L-2.21,-40.27 L-2.78,-40.56 L-3.38,-41.12 L-4.00,-41.96 L-4.65,-43.08 L-5.33,-44.48 L-5.87,-45.81 L-6.26,-47.08 L-6.51,-48.28 L-6.61,-49.43 L-6.49,-50.69 L-6.13,-52.07 L-5.55,-53.58 L-4.74,-55.21 L-4.22,-56.87 L-3.99,-58.56 L-4.04,-60.29 L-4.38,-62.05 L-4.56,-63.51 L-4.57,-64.65 L-4.42,-65.48 L-4.11,-66.00 L-3.94,-66.78 L-3.91,-67.79 L-4.03,-69.06 L-4.29,-70.57 L-4.61,-71.83 L-4.98,-72.86 L-5.41,-73.65 L-5.89,-74.19 L-6.37,-74.37 L-6.86,-74.20 L-7.35,-73.66 L-7.84,-72.77 L-8.84,-71.99 L-10.35,-71.32 L-12.36,-70.77 L-14.87,-70.32 L-16.98,-69.62 L-18.70,-68.68 L-20.01,-67.48 L-20.92,-66.02 L-22.00,-64.82 L-23.24,-63.87 L-24.64,-63.18 L-26.20,-62.73 L-27.70,-62.10 L-29.14,-61.29 L-30.52,-60.29 L-31.83,-59.11 L-33.01,-57.77 L-34.05,-56.27 L-34.96,-54.60 L-35.73,-52.78 L-36.20,-50.86 L-36.38,-48.82 L-36.27,-46.68 L-35.87,-44.44 L-35.66,-42.50 L-35.66,-40.86 L-35.85,-39.53 L-36.24,-38.50 L-36.41,-37.53 L-36.37,-36.61 L-36.10,-35.74 L-35.62,-34.93 L-35.37,-34.08 L-35.36,-33.20 L-35.58,-32.28 L-36.04,-31.33 L-36.04,-29.70 L-35.60,-27.37 L-34.71,-24.36 L-33.37,-20.67 L-32.53,-17.69 L-32.20,-15.43 L-32.37,-13.90 L-33.05,-13.08 L-33.56,-12.31 L-33.92,-11.59 L-34.12,-10.91 L-34.16,-10.27 L-33.40,-9.59 L-31.85,-8.86 L-29.49,-8.09 L-26.34,-7.28 L-23.89,-6.54 L-22.14,-5.87 L-21.10,-5.27 L-20.76,-4.75 L-20.52,-4.18 L-20.38,-3.56 L-20.33,-2.89 L-20.39,-2.18 L-20.58,-1.37 L-20.91,-0.48 L-21.38,0.50 L-22.00,1.56 L-22.38,2.47 L-22.55,3.23 L-22.48,3.83 L-22.20,4.27 L-21.76,4.65 L-21.17,4.96 L-20.42,5.20 L-19.52,5.37 L-18.80,5.87 L-18.27,6.69 L-17.92,7.84 L-17.75,9.31 L-17.91,10.65 L-18.39,11.86 L-19.20,12.94 L-20.33,13.89 L-21.20,14.77 L-21.80,15.56 L-22.14,16.27 L-22.22,16.91 L-21.87,17.67 L-21.09,18.54 L-19.88,19.52 L-18.24,20.63 L-17.02,21.56 L-16.23,22.31 L-15.87,22.89 L-15.94,23.30 L-15.86,23.75 L-15.63,24.26 L-15.25,24.81 L-14.73,25.41 L-14.01,26.04 L-13.10,26.71 L-11.98,27.41 L-10.66,28.15 L-9.42,29.02 L-8.26,30.04 L-7.17,31.20 L-6.15,32.49 L-5.19,33.47 L-4.27,34.13 L-3.40,34.47 L-2.58,34.49 L-1.80,34.68 L-1.07,35.03 L-0.39,35.56 L0.25,36.26 L0.88,36.82 L1.50,37.23 L2.10,37.51 L2.71,37.64 L3.01,38.41 L3.01,39.83 L2.71,41.88 L2.10,44.57 L1.52,46.81 L0.94,48.61 L0.37,49.97 L-0.19,50.88 L-0.61,52.16 L-0.89,53.82 L-1.03,55.84 L-1.03,58.24 L-1.34,60.02 L-1.95,61.18 L-2.87,61.73 L-4.09,61.65 L-5.25,61.72 L-6.34,61.96 L-7.36,62.34 L-8.31,62.89 L-8.97,63.58 L-9.34,64.44 L-9.42,65.44 L-9.22,66.60 L-8.84,67.77 L-8.31,68.94 L-7.61,70.12 L-6.75,71.30 L-5.83,72.30 L-4.86,73.13 L-3.82,73.79 L-2.73,74.28 L-1.82,74.37 L-1.09,74.07 L-0.56,73.37 L-0.21,72.29 L-0.11,71.25 L-0.28,70.24 L-0.70,69.27 L-1.37,68.34 L-1.85,67.57 L-2.14,66.96 L-2.23,66.51 L-2.13,66.22 L-1.88,65.93 L-1.49,65.63 L-0.96,65.33 L-0.28,65.02 L0.51,64.90 L1.42,64.96 L2.44,65.22 L3.57,65.67 L5.18,65.85 L7.26,65.77 L9.80,65.43 L12.83,64.83 L15.22,64.30 L16.99,63.83 L18.14,63.44 L18.66,63.11 L19.10,62.71 L19.47,62.23 L19.76,61.69 L19.96,61.07 L20.32,60.64 L20.81,60.40 L21.45,60.34 L22.23,60.48 L23.04,60.42 L23.88,60.16 L24.75,59.70 L25.65,59.04 L26.43,58.69 L27.09,58.65 L27.64,58.92 L28.07,59.50 L28.86,59.93 L30.00,60.21 L31.49,60.34 L33.34,60.32 L34.86,60.72 L36.06,61.52 L36.93,62.73 L37.48,64.36 L38.28,65.48 L39.33,66.08 L40.63,66.19 L42.18,65.78 L43.89,65.63 L45.76,65.75 L47.80,66.13 L50.00,66.77 L51.71,67.32 L52.92,67.80 L53.64,68.19 L53.86,68.50 L54.17,68.56 L54.57,68.38 L55.07,67.95 L55.65,67.27 L56.11,66.82 L56.43,66.61 L56.61,66.63 L56.67,66.88 L56.85,67.06 L57.15,67.15 L57.58,67.17 L58.14,67.11 L58.63,66.95 L59.05,66.66 L59.39,66.27 L59.67,65.77 L59.87,65.39 L60.01,65.14 L60.08,65.02 L60.08,65.02 L60.01,64.76 L59.86,64.25 Z" fill="none" stroke="#2f7d8a" stroke-opacity="0.5" stroke-width="0.89" stroke-linejoin="round" stroke-linecap="round" transform="translate(115 178) scale(2.01694) translate(-11.84 0.00)"></path><path d="M20.64 59.86L16.88 59.86L16.88 39.91L25.54 39.91Q27.42 39.91 28.82 40.57Q30.22 41.22 30.99 42.42Q31.75 43.62 31.75 45.24L31.75 45.24L31.75 45.58Q31.75 47.38 30.90 48.49Q30.04 49.60 28.79 50.11L28.79 50.11L28.79 50.63Q29.93 50.68 30.56 51.41Q31.18 52.14 31.18 53.33L31.18 53.33L31.18 59.86L27.42 59.86L27.42 53.88Q27.42 53.19 27.07 52.76Q26.71 52.34 25.88 52.34L25.88 52.34L20.64 52.34L20.64 59.86ZM20.64 43.33L20.64 48.92L25.14 48.92Q26.48 48.92 27.24 48.19Q27.99 47.46 27.99 46.27L27.99 46.27L27.99 45.98Q27.99 44.79 27.25 44.06Q26.51 43.33 25.14 43.33L25.14 43.33L20.64 43.33Z M41.73 60.26L41.73 60.26Q39.62 60.26 37.94 59.40Q36.26 58.55 35.29 56.92Q34.32 55.30 34.32 53.02L34.32 53.02L34.32 52.56Q34.32 50.28 35.29 48.66Q36.26 47.04 37.94 46.18Q39.62 45.33 41.73 45.33L41.73 45.33Q43.84 45.33 45.52 46.18Q47.20 47.04 48.17 48.66Q49.14 50.28 49.14 52.56L49.14 52.56L49.14 53.02Q49.14 55.30 48.17 56.92Q47.20 58.55 45.52 59.40Q43.84 60.26 41.73 60.26ZM41.73 57.07L41.73 57.07Q43.38 57.07 44.46 56.00Q45.55 54.93 45.55 52.93L45.55 52.93L45.55 52.65Q45.55 50.66 44.48 49.59Q43.41 48.52 41.73 48.52L41.73 48.52Q40.07 48.52 38.99 49.59Q37.91 50.66 37.91 52.65L37.91 52.65L37.91 52.93Q37.91 54.93 38.99 56.00Q40.07 57.07 41.73 57.07Z M61.84 59.86L57.86 59.86Q56.46 59.86 55.59 58.99Q54.72 58.12 54.72 56.67L54.72 56.67L54.72 48.69L51.19 48.69L51.19 45.73L54.72 45.73L54.72 41.34L58.31 41.34L58.31 45.73L61.33 45.73L61.33 48.69L58.31 48.69L58.31 56.04Q58.31 56.90 59.11 56.90L59.11 56.90L61.84 56.90L61.84 59.86ZM71.13 59.86L67.14 59.86Q65.75 59.86 64.88 58.99Q64.01 58.12 64.01 56.67L64.01 56.67L64.01 48.69L61.33 48.69L61.33 45.73L64.01 45.73L64.01 41.34L67.60 41.34L67.60 45.73L71.48 45.73L71.48 48.69L67.60 48.69L67.60 56.04Q67.60 56.90 68.40 56.90L68.40 56.90L71.13 56.90L71.13 59.86Z M79.11 60.26L79.11 60.26Q77.60 60.26 76.40 59.73Q75.21 59.20 74.51 58.19Q73.81 57.18 73.81 55.73L73.81 55.73Q73.81 54.27 74.51 53.29Q75.21 52.31 76.45 51.81Q77.69 51.31 79.28 51.31L79.28 51.31L83.16 51.31L83.16 50.51Q83.16 49.52 82.53 48.87Q81.90 48.23 80.54 48.23L80.54 48.23Q79.20 48.23 78.54 48.85Q77.89 49.46 77.69 50.43L77.69 50.43L74.38 49.32Q74.72 48.23 75.48 47.34Q76.23 46.44 77.50 45.88Q78.77 45.33 80.59 45.33L80.59 45.33Q83.39 45.33 85.01 46.72Q86.63 48.12 86.63 50.77L86.63 50.77L86.63 56.04Q86.63 56.90 87.43 56.90L87.43 56.90L88.57 56.90L88.57 59.86L86.18 59.86Q85.12 59.86 84.44 59.35Q83.76 58.83 83.76 57.98L83.76 57.98L83.76 57.95L83.21 57.95Q83.10 58.29 82.70 58.85Q82.30 59.40 81.45 59.83Q80.59 60.26 79.11 60.26ZM79.74 57.35L79.74 57.35Q81.25 57.35 82.20 56.51Q83.16 55.67 83.16 54.27L83.16 54.27L83.16 53.99L79.54 53.99Q78.54 53.99 77.97 54.42Q77.40 54.84 77.40 55.61L77.40 55.61Q77.40 56.38 78.00 56.87Q78.60 57.35 79.74 57.35Z M97.83 60.26L97.83 60.26Q95.78 60.26 94.11 59.40Q92.45 58.55 91.48 56.92Q90.51 55.30 90.51 52.99L90.51 52.99L90.51 52.59Q90.51 50.28 91.48 48.66Q92.45 47.04 94.11 46.18Q95.78 45.33 97.83 45.33L97.83 45.33Q99.86 45.33 101.31 46.04Q102.76 46.75 103.66 47.99Q104.56 49.23 104.84 50.80L104.84 50.80L101.37 51.54Q101.25 50.68 100.85 50Q100.45 49.32 99.73 48.92Q99.00 48.52 97.92 48.52L97.92 48.52Q96.84 48.52 95.97 48.99Q95.10 49.46 94.60 50.38Q94.10 51.31 94.10 52.65L94.10 52.65L94.10 52.93Q94.10 54.27 94.60 55.20Q95.10 56.13 95.97 56.60Q96.84 57.07 97.92 57.07L97.92 57.07Q99.54 57.07 100.38 56.23Q101.22 55.39 101.45 54.02L101.45 54.02L104.93 54.84Q104.56 56.35 103.66 57.59Q102.76 58.83 101.31 59.55Q99.86 60.26 97.83 60.26Z M111.48 59.86L107.89 59.86L107.89 39.91L111.48 39.91L111.48 47.46L111.99 47.46Q112.22 47.01 112.71 46.55Q113.19 46.10 114.00 45.80Q114.81 45.50 116.07 45.50L116.07 45.50Q117.72 45.50 118.96 46.25Q120.20 47.01 120.88 48.33Q121.57 49.66 121.57 51.42L121.57 51.42L121.57 59.86L117.98 59.86L117.98 51.71Q117.98 50.11 117.19 49.32Q116.41 48.52 114.96 48.52L114.96 48.52Q113.30 48.52 112.39 49.62Q111.48 50.71 111.48 52.68L111.48 52.68L111.48 59.86Z M133.82 54.22L125.39 54.22L125.39 50.97L133.82 50.97L133.82 54.22Z M150.63 59.86L137.64 59.86L137.64 39.91L150.46 39.91L150.46 43.33L141.40 43.33L141.40 48.09L149.66 48.09L149.66 51.51L141.40 51.51L141.40 56.44L150.63 56.44L150.63 59.86Z M152.85 52.85L152.85 52.85L152.85 52.39Q152.85 50.17 153.74 48.59Q154.62 47.01 156.09 46.17Q157.56 45.33 159.29 45.33L159.29 45.33Q161.23 45.33 162.23 46.01Q163.23 46.69 163.68 47.44L163.68 47.44L164.20 47.44L164.20 45.73L167.73 45.73L167.73 62.37Q167.73 63.82 166.87 64.69Q166.02 65.56 164.59 65.56L164.59 65.56L155.13 65.56L155.13 62.42L163.34 62.42Q164.14 62.42 164.14 61.57L164.14 61.57L164.14 57.89L163.63 57.89Q163.34 58.35 162.83 58.82Q162.31 59.29 161.46 59.60Q160.60 59.92 159.29 59.92L159.29 59.92Q157.56 59.92 156.09 59.08Q154.62 58.23 153.74 56.65Q152.85 55.07 152.85 52.85ZM160.32 56.78L160.32 56.78Q161.97 56.78 163.08 55.73Q164.20 54.67 164.20 52.76L164.20 52.76L164.20 52.48Q164.20 50.54 163.10 49.50Q162.00 48.46 160.32 48.46L160.32 48.46Q158.67 48.46 157.56 49.50Q156.44 50.54 156.44 52.48L156.44 52.48L156.44 52.76Q156.44 54.67 157.56 55.73Q158.67 56.78 160.32 56.78Z M178.16 60.26L178.16 60.26Q176.05 60.26 174.44 59.36Q172.83 58.46 171.93 56.82Q171.03 55.19 171.03 52.96L171.03 52.96L171.03 52.62Q171.03 50.40 171.92 48.76Q172.80 47.12 174.40 46.22Q175.99 45.33 178.10 45.33L178.10 45.33Q180.18 45.33 181.72 46.25Q183.26 47.18 184.11 48.82Q184.97 50.46 184.97 52.62L184.97 52.62L184.97 53.85L174.68 53.85Q174.74 55.30 175.76 56.21Q176.79 57.12 178.27 57.12L178.27 57.12Q179.78 57.12 180.49 56.47Q181.21 55.81 181.58 55.01L181.58 55.01L184.51 56.55Q184.11 57.29 183.36 58.16Q182.60 59.03 181.35 59.65Q180.09 60.26 178.16 60.26ZM174.71 51.17L174.71 51.17L181.32 51.17Q181.21 49.94 180.34 49.20Q179.47 48.46 178.07 48.46L178.07 48.46Q176.62 48.46 175.76 49.20Q174.91 49.94 174.71 51.17Z M191.75 59.86L188.16 59.86L188.16 45.73L191.69 45.73L191.69 47.32L192.20 47.32Q192.52 46.47 193.24 46.07Q193.97 45.67 194.94 45.67L194.94 45.67L196.65 45.67L196.65 48.86L194.88 48.86Q193.52 48.86 192.63 49.59Q191.75 50.31 191.75 51.82L191.75 51.82L191.75 59.86Z M203.03 59.86L199.44 59.86L199.44 45.73L202.98 45.73L202.98 47.58L203.49 47.58Q203.83 46.84 204.77 46.17Q205.71 45.50 207.62 45.50L207.62 45.50Q209.27 45.50 210.51 46.25Q211.75 47.01 212.44 48.33Q213.12 49.66 213.12 51.42L213.12 51.42L213.12 59.86L209.53 59.86L209.53 51.71Q209.53 50.11 208.75 49.32Q207.96 48.52 206.51 48.52L206.51 48.52Q204.86 48.52 203.94 49.62Q203.03 50.71 203.03 52.68L203.03 52.68L203.03 59.86Z" fill="#1d1c19"></path><path d="M54.95 79.90L54.95 79.90Q54.04 79.90 53.26 79.45Q52.48 79.00 52.00 78.16Q51.53 77.31 51.53 76.11L51.53 76.11L51.53 75.88Q51.53 74.70 52.00 73.84Q52.46 72.99 53.24 72.54Q54.02 72.09 54.95 72.09L54.95 72.09Q55.67 72.09 56.16 72.27Q56.65 72.45 56.96 72.73Q57.28 73.00 57.44 73.30L57.44 73.30L57.68 73.30L57.68 69.19L59.23 69.19L59.23 79.69L57.71 79.69L57.71 78.64L57.47 78.64Q57.19 79.12 56.61 79.51Q56.03 79.90 54.95 79.90ZM55.39 78.55L55.39 78.55Q56.39 78.55 57.04 77.91Q57.70 77.26 57.70 76.06L57.70 76.06L57.70 75.93Q57.70 74.74 57.05 74.10Q56.41 73.45 55.39 73.45L55.39 73.45Q54.40 73.45 53.74 74.10Q53.09 74.74 53.09 75.93L53.09 75.93L53.09 76.06Q53.09 77.26 53.74 77.91Q54.40 78.55 55.39 78.55Z M64.80 79.90L64.80 79.90Q64.01 79.90 63.38 79.63Q62.76 79.36 62.39 78.84Q62.03 78.31 62.03 77.56L62.03 77.56Q62.03 76.80 62.39 76.30Q62.76 75.79 63.40 75.54Q64.04 75.28 64.85 75.28L64.85 75.28L67.10 75.28L67.10 74.80Q67.10 74.16 66.71 73.77Q66.32 73.38 65.51 73.38L65.51 73.38Q64.71 73.38 64.29 73.75Q63.87 74.13 63.74 74.73L63.74 74.73L62.30 74.26Q62.48 73.66 62.88 73.18Q63.27 72.69 63.93 72.39Q64.59 72.09 65.52 72.09L65.52 72.09Q66.96 72.09 67.79 72.82Q68.61 73.56 68.61 74.91L68.61 74.91L68.61 77.95Q68.61 78.40 69.03 78.40L69.03 78.40L69.66 78.40L69.66 79.69L68.51 79.69Q67.98 79.69 67.65 79.42Q67.32 79.15 67.32 78.69L67.32 78.69L67.32 78.64L67.10 78.64Q66.98 78.87 66.74 79.17Q66.50 79.47 66.03 79.69Q65.57 79.90 64.80 79.90ZM65.03 78.63L65.03 78.63Q65.96 78.63 66.53 78.10Q67.10 77.56 67.10 76.63L67.10 76.63L67.10 76.48L64.94 76.48Q64.32 76.48 63.95 76.75Q63.57 77.01 63.57 77.52L63.57 77.52Q63.57 78.03 63.96 78.33Q64.35 78.63 65.03 78.63Z  M81.26 79.90L81.26 79.90Q80.18 79.90 79.60 79.51Q79.03 79.12 78.74 78.64L78.74 78.64L78.50 78.64L78.50 79.69L76.99 79.69L76.99 69.19L78.53 69.19L78.53 73.30L78.77 73.30Q78.95 73.00 79.25 72.73Q79.55 72.45 80.05 72.27Q80.54 72.09 81.26 72.09L81.26 72.09Q82.19 72.09 82.97 72.54Q83.75 72.99 84.22 73.84Q84.68 74.70 84.68 75.88L84.68 75.88L84.68 76.11Q84.68 77.31 84.21 78.16Q83.74 79.00 82.97 79.45Q82.19 79.90 81.26 79.90ZM80.81 78.55L80.81 78.55Q81.82 78.55 82.47 77.91Q83.12 77.26 83.12 76.06L83.12 76.06L83.12 75.93Q83.12 74.74 82.48 74.10Q81.83 73.45 80.81 73.45L80.81 73.45Q79.82 73.45 79.17 74.10Q78.52 74.74 78.52 75.93L78.52 75.93L78.52 76.06Q78.52 77.26 79.17 77.91Q79.82 78.55 80.81 78.55Z M89.15 79.69L87.60 79.69L87.60 72.30L89.15 72.30L89.15 79.69ZM88.38 71.29L88.38 71.29Q87.93 71.29 87.62 71.00Q87.32 70.71 87.32 70.24L87.32 70.24Q87.32 69.78 87.62 69.49Q87.93 69.19 88.38 69.19L88.38 69.19Q88.85 69.19 89.15 69.49Q89.45 69.78 89.45 70.24L89.45 70.24Q89.45 70.71 89.15 71.00Q88.85 71.29 88.38 71.29Z M93.99 79.69L92.44 79.69L92.44 72.30L93.96 72.30L93.96 73.41L94.20 73.41Q94.41 72.96 94.95 72.57Q95.49 72.18 96.55 72.18L96.55 72.18Q97.39 72.18 98.04 72.55Q98.70 72.93 99.07 73.61Q99.45 74.29 99.45 75.25L99.45 75.25L99.45 79.69L97.90 79.69L97.90 75.37Q97.90 74.41 97.42 73.96Q96.94 73.50 96.10 73.50L96.10 73.50Q95.14 73.50 94.56 74.13Q93.99 74.76 93.99 75.96L93.99 75.96L93.99 79.69Z  M109.04 79.69L107.49 79.69L107.49 72.30L109.04 72.30L109.04 79.69ZM108.27 71.29L108.27 71.29Q107.82 71.29 107.51 71.00Q107.21 70.71 107.21 70.24L107.21 70.24Q107.21 69.78 107.51 69.49Q107.82 69.19 108.27 69.19L108.27 69.19Q108.74 69.19 109.04 69.49Q109.34 69.78 109.34 70.24L109.34 70.24Q109.34 70.71 109.04 71.00Q108.74 71.29 108.27 71.29Z  M120.22 79.90L120.22 79.90Q119.30 79.90 118.52 79.45Q117.74 79.00 117.27 78.16Q116.80 77.31 116.80 76.11L116.80 76.11L116.80 75.88Q116.80 74.70 117.26 73.84Q117.73 72.99 118.51 72.54Q119.29 72.09 120.22 72.09L120.22 72.09Q120.94 72.09 121.42 72.27Q121.91 72.45 122.23 72.73Q122.54 73.00 122.71 73.30L122.71 73.30L122.95 73.30L122.95 69.19L124.49 69.19L124.49 79.69L122.98 79.69L122.98 78.64L122.74 78.64Q122.45 79.12 121.88 79.51Q121.30 79.90 120.22 79.90ZM120.65 78.55L120.65 78.55Q121.66 78.55 122.31 77.91Q122.96 77.26 122.96 76.06L122.96 76.06L122.96 75.93Q122.96 74.74 122.32 74.10Q121.67 73.45 120.65 73.45L120.65 73.45Q119.66 73.45 119.01 74.10Q118.36 74.74 118.36 75.93L118.36 75.93L118.36 76.06Q118.36 77.26 119.01 77.91Q119.66 78.55 120.65 78.55Z M130.07 79.90L130.07 79.90Q129.27 79.90 128.65 79.63Q128.03 79.36 127.66 78.84Q127.29 78.31 127.29 77.56L127.29 77.56Q127.29 76.80 127.66 76.30Q128.03 75.79 128.66 75.54Q129.30 75.28 130.11 75.28L130.11 75.28L132.36 75.28L132.36 74.80Q132.36 74.16 131.97 73.77Q131.58 73.38 130.77 73.38L130.77 73.38Q129.98 73.38 129.56 73.75Q129.14 74.13 129.00 74.73L129.00 74.73L127.56 74.26Q127.74 73.66 128.14 73.18Q128.54 72.69 129.20 72.39Q129.86 72.09 130.79 72.09L130.79 72.09Q132.23 72.09 133.05 72.82Q133.88 73.56 133.88 74.91L133.88 74.91L133.88 77.95Q133.88 78.40 134.30 78.40L134.30 78.40L134.93 78.40L134.93 79.69L133.77 79.69Q133.25 79.69 132.92 79.42Q132.59 79.15 132.59 78.69L132.59 78.69L132.59 78.64L132.36 78.64Q132.24 78.87 132.00 79.17Q131.76 79.47 131.30 79.69Q130.83 79.90 130.07 79.90ZM130.29 78.63L130.29 78.63Q131.22 78.63 131.79 78.10Q132.36 77.56 132.36 76.63L132.36 76.63L132.36 76.48L130.20 76.48Q129.59 76.48 129.21 76.75Q128.84 77.01 128.84 77.52L128.84 77.52Q128.84 78.03 129.23 78.33Q129.62 78.63 130.29 78.63Z M138.97 79.69L137.43 79.69L137.43 69.19L138.97 69.19L138.97 73.35L139.21 73.35Q139.36 73.06 139.64 72.79Q139.92 72.52 140.38 72.35Q140.83 72.18 141.54 72.18L141.54 72.18Q142.38 72.18 143.03 72.55Q143.68 72.93 144.06 73.61Q144.43 74.29 144.43 75.25L144.43 75.25L144.43 79.69L142.89 79.69L142.89 75.37Q142.89 74.41 142.41 73.96Q141.93 73.50 141.09 73.50L141.09 73.50Q140.13 73.50 139.55 74.13Q138.97 74.76 138.97 75.96L138.97 75.96L138.97 79.69Z M151.12 79.90L151.12 79.90Q150.01 79.90 149.14 79.45Q148.28 78.99 147.79 78.13Q147.29 77.28 147.29 76.11L147.29 76.11L147.29 75.88Q147.29 74.71 147.79 73.87Q148.28 73.02 149.14 72.55Q150.01 72.09 151.12 72.09L151.12 72.09Q152.23 72.09 153.10 72.55Q153.97 73.02 154.46 73.87Q154.96 74.71 154.96 75.88L154.96 75.88L154.96 76.11Q154.96 77.28 154.46 78.13Q153.97 78.99 153.10 79.45Q152.23 79.90 151.12 79.90ZM151.12 78.52L151.12 78.52Q152.14 78.52 152.77 77.87Q153.41 77.22 153.41 76.06L153.41 76.06L153.41 75.93Q153.41 74.77 152.78 74.12Q152.15 73.47 151.12 73.47L151.12 73.47Q150.11 73.47 149.47 74.12Q148.84 74.77 148.84 75.93L148.84 75.93L148.84 76.06Q148.84 77.22 149.47 77.87Q150.11 78.52 151.12 78.52Z M160.17 79.90L160.17 79.90Q159.38 79.90 158.75 79.63Q158.13 79.36 157.76 78.84Q157.40 78.31 157.40 77.56L157.40 77.56Q157.40 76.80 157.76 76.30Q158.13 75.79 158.77 75.54Q159.41 75.28 160.22 75.28L160.22 75.28L162.47 75.28L162.47 74.80Q162.47 74.16 162.08 73.77Q161.69 73.38 160.88 73.38L160.88 73.38Q160.08 73.38 159.66 73.75Q159.24 74.13 159.11 74.73L159.11 74.73L157.67 74.26Q157.85 73.66 158.24 73.18Q158.64 72.69 159.30 72.39Q159.96 72.09 160.89 72.09L160.89 72.09Q162.33 72.09 163.16 72.82Q163.98 73.56 163.98 74.91L163.98 74.91L163.98 77.95Q163.98 78.40 164.40 78.40L164.40 78.40L165.03 78.40L165.03 79.69L163.88 79.69Q163.35 79.69 163.02 79.42Q162.69 79.15 162.69 78.69L162.69 78.69L162.69 78.64L162.47 78.64Q162.35 78.87 162.11 79.17Q161.87 79.47 161.40 79.69Q160.94 79.90 160.17 79.90ZM160.40 78.63L160.40 78.63Q161.33 78.63 161.90 78.10Q162.47 77.56 162.47 76.63L162.47 76.63L162.47 76.48L160.31 76.48Q159.69 76.48 159.32 76.75Q158.94 77.01 158.94 77.52L158.94 77.52Q158.94 78.03 159.33 78.33Q159.72 78.63 160.40 78.63Z M169.08 79.69L167.53 79.69L167.53 72.30L169.05 72.30L169.05 73.17L169.29 73.17Q169.50 72.78 169.96 72.48Q170.43 72.18 171.22 72.18L171.22 72.18Q172.05 72.18 172.55 72.52Q173.05 72.85 173.31 73.38L173.31 73.38L173.55 73.38Q173.80 72.87 174.29 72.52Q174.78 72.18 175.68 72.18L175.68 72.18Q176.40 72.18 176.95 72.47Q177.51 72.76 177.84 73.34Q178.17 73.92 178.17 74.77L178.17 74.77L178.17 79.69L176.62 79.69L176.62 74.89Q176.62 74.22 176.25 73.85Q175.89 73.48 175.21 73.48L175.21 73.48Q174.49 73.48 174.06 73.95Q173.62 74.41 173.62 75.28L173.62 75.28L173.62 79.69L172.08 79.69L172.08 74.89Q172.08 74.22 171.71 73.85Q171.34 73.48 170.67 73.48L170.67 73.48Q169.95 73.48 169.51 73.95Q169.08 74.41 169.08 75.28L169.08 75.28L169.08 79.69Z" fill="#1d1c19" fill-opacity="0.7"></path><svg x="-17.50" y="101.57" width="258.46" height="132.82" viewBox="0 0 360 185" overflow="visible"><g fill="#1d1c19"><g transform="translate(64.98,0)"><path d="M22.88 133.59 L22.88 133.59 Q21.33 133.16 20.38 132.82 L20.38 132.82 L19.44 132.56 Q19.61 132.13 19.31 131.78 Q19.01 131.44 18.06 131.35 L18.06 131.35 Q16.77 130.49 15.39 128.95 Q14.02 127.40 12.99 125.76 Q11.95 124.13 11.61 123.36 L11.61 123.36 Q11.18 122.32 11.44 121.98 L11.44 121.98 Q11.52 121.81 11.70 121.72 L11.70 121.72 Q12.38 121.46 13.33 121.03 L13.33 121.03 Q14.28 120.35 15.35 120.00 Q16.43 119.66 17.11 121.12 L17.11 121.12 Q18.23 123.10 20.60 124.47 Q22.96 125.85 26.02 126.11 Q29.07 126.37 32.16 125.08 L32.16 125.08 Q34.23 124.13 34.40 122.45 Q34.57 120.78 33.11 118.54 L33.11 118.54 Q32.85 117.85 32.38 117.42 Q31.91 116.99 31.00 116.30 Q30.10 115.62 28.47 114.07 L28.47 114.07 Q27.18 113.47 26.10 112.95 Q25.03 112.43 23.82 111.83 L23.82 111.83 Q22.45 111.14 20.73 109.90 Q19.01 108.65 17.54 107.14 Q16.08 105.64 15.31 104.26 L15.31 104.26 Q13.93 102.97 13.59 100.69 Q13.24 98.42 13.72 95.84 Q14.19 93.26 15.31 91.19 L15.31 91.19 Q15.82 89.99 17.20 88.05 Q18.58 86.12 20.30 84.05 Q22.02 81.99 23.61 80.31 Q25.20 78.64 26.14 78.03 L26.14 78.03 Q26.83 77.35 27.61 76.57 L27.61 76.57 L28.38 75.88 Q28.47 75.45 28.72 75.45 L28.72 75.45 L28.90 75.45 Q29.33 75.20 30.79 74.59 Q32.25 73.99 33.97 72.36 L33.97 72.36 Q39.73 69.61 43.77 68.62 Q47.82 67.63 50.14 67.63 L50.14 67.63 Q52.29 67.71 54.35 68.79 Q56.42 69.86 57.92 71.50 Q59.43 73.13 59.68 75.20 L59.68 75.20 Q60.29 77.26 59.13 80.14 Q57.96 83.02 55.94 85.56 Q53.92 88.10 51.77 89.30 L51.77 89.30 Q49.36 90.33 47.69 89.56 Q46.01 88.78 46.10 87.15 L46.10 87.15 Q46.10 86.46 46.57 85.52 Q47.04 84.57 49.19 82.16 L49.19 82.16 Q51.94 78.12 52.12 76.40 Q52.29 74.68 50.57 74.42 L50.57 74.42 Q50.05 74.25 48.59 74.51 Q47.13 74.77 45.45 75.15 Q43.77 75.54 42.53 75.97 Q41.28 76.40 41.28 76.57 L41.28 76.57 L41.28 76.83 Q41.28 76.92 41.19 77.00 L41.19 77.00 Q41.19 77.09 40.94 77.00 L40.94 77.00 Q40.76 77.00 39.78 77.56 Q38.79 78.12 37.41 78.98 Q36.03 79.84 34.70 80.74 Q33.37 81.65 32.42 82.33 Q31.48 83.02 31.39 83.19 L31.39 83.19 Q31.22 84.14 29.41 84.91 L29.41 84.91 Q27.69 85.95 26.40 87.84 Q25.11 89.73 23.39 92.65 L23.39 92.65 Q21.93 94.63 21.33 96.91 Q20.73 99.19 21.33 100.57 L21.33 100.57 Q21.76 101.94 23.69 103.28 Q25.63 104.61 28.98 106.59 L28.98 106.59 Q31.91 108.22 34.49 110.03 Q37.07 111.83 38.87 113.51 Q40.68 115.19 41.19 116.30 L41.19 116.30 Q42.23 117.77 42.44 119.66 Q42.66 121.55 42.44 123.31 Q42.23 125.08 41.88 126.19 L41.88 126.19 Q41.28 127.57 40.03 129.12 Q38.79 130.67 37.75 130.58 L37.75 130.58 Q36.81 130.84 36.34 131.18 Q35.86 131.53 35.26 131.78 L35.26 131.78 Q34.66 132.13 32.42 132.60 Q30.19 133.07 27.52 133.38 Q24.85 133.68 22.88 133.59 Z M67.77 126.28 L67.77 126.28 Q65.19 127.74 62.31 127.96 Q59.43 128.17 56.93 127.18 Q54.44 126.19 52.89 124.22 L52.89 124.22 Q52.03 123.10 51.26 120.65 Q50.48 118.20 51.00 113.98 L51.00 113.98 Q51.51 110.03 53.45 105.98 Q55.38 101.94 58.22 98.85 Q61.06 95.75 64.41 94.63 L64.41 94.63 Q65.62 94.20 66.86 93.99 Q68.11 93.77 70.18 93.94 L70.18 93.94 Q72.15 94.20 73.70 94.93 Q75.25 95.66 75.94 96.52 L75.94 96.52 Q77.31 97.90 77.74 99.19 Q78.17 100.48 78.09 101.68 L78.09 101.68 Q77.66 104.44 75.64 107.62 Q73.62 110.80 70.00 112.35 L70.00 112.35 Q68.54 112.95 66.56 113.12 Q64.59 113.29 61.15 112.61 L61.15 112.61 Q59.08 112.18 58.44 113.04 Q57.79 113.90 57.88 116.39 L57.88 116.39 Q58.05 117.94 58.61 119.10 Q59.17 120.26 60.72 120.69 L60.72 120.69 Q62.69 121.03 63.55 120.73 Q64.41 120.43 65.70 119.83 L65.70 119.83 Q66.39 119.40 67.08 118.88 L67.08 118.88 L68.37 117.85 Q68.97 117.34 69.40 117.08 L69.40 117.08 Q69.83 116.73 70.26 116.65 Q70.69 116.56 71.12 116.56 L71.12 116.56 Q72.07 116.65 72.93 117.59 Q73.79 118.54 74.05 119.40 L74.05 119.40 Q74.05 120.09 73.19 121.33 Q72.33 122.58 70.91 123.92 Q69.49 125.25 67.77 126.28 Z M66.65 107.10 L66.65 107.10 Q67.25 106.84 68.41 105.90 Q69.57 104.95 70.52 103.88 Q71.47 102.80 71.47 102.20 L71.47 102.20 Q71.47 101.25 70.22 100.57 Q68.97 99.88 66.99 100.31 L66.99 100.31 Q66.31 100.48 65.36 101.25 Q64.41 102.03 63.47 103.02 Q62.52 104.01 61.83 104.91 Q61.15 105.81 60.89 106.33 L60.89 106.33 Q61.23 106.76 62.26 107.02 Q63.30 107.27 64.54 107.27 Q65.79 107.27 66.65 107.10 Z M96.49 126.28 L96.49 126.28 Q93.91 127.74 91.03 127.96 Q88.15 128.17 85.66 127.18 Q83.16 126.19 81.61 124.22 L81.61 124.22 Q80.75 123.10 79.98 120.65 Q79.21 118.20 79.72 113.98 L79.72 113.98 Q80.24 110.03 82.17 105.98 Q84.11 101.94 86.95 98.85 Q89.78 95.75 93.14 94.63 L93.14 94.63 Q94.34 94.20 95.59 93.99 Q96.84 93.77 98.90 93.94 L98.90 93.94 Q100.88 94.20 102.43 94.93 Q103.97 95.66 104.66 96.52 L104.66 96.52 Q106.04 97.90 106.47 99.19 Q106.90 100.48 106.81 101.68 L106.81 101.68 Q106.38 104.44 104.36 107.62 Q102.34 110.80 98.73 112.35 L98.73 112.35 Q97.27 112.95 95.29 113.12 Q93.31 113.29 89.87 112.61 L89.87 112.61 Q87.81 112.18 87.16 113.04 Q86.52 113.90 86.60 116.39 L86.60 116.39 Q86.77 117.94 87.33 119.10 Q87.89 120.26 89.44 120.69 L89.44 120.69 Q91.42 121.03 92.28 120.73 Q93.14 120.43 94.43 119.83 L94.43 119.83 Q95.12 119.40 95.80 118.88 L95.80 118.88 L97.09 117.85 Q97.70 117.34 98.13 117.08 L98.13 117.08 Q98.56 116.73 98.99 116.65 Q99.42 116.56 99.85 116.56 L99.85 116.56 Q100.79 116.65 101.65 117.59 Q102.51 118.54 102.77 119.40 L102.77 119.40 Q102.77 120.09 101.91 121.33 Q101.05 122.58 99.63 123.92 Q98.21 125.25 96.49 126.28 Z M95.37 107.10 L95.37 107.10 Q95.98 106.84 97.14 105.90 Q98.30 104.95 99.24 103.88 Q100.19 102.80 100.19 102.20 L100.19 102.20 Q100.19 101.25 98.94 100.57 Q97.70 99.88 95.72 100.31 L95.72 100.31 Q95.03 100.48 94.08 101.25 Q93.14 102.03 92.19 103.02 Q91.25 104.01 90.56 104.91 Q89.87 105.81 89.61 106.33 L89.61 106.33 Q89.96 106.76 90.99 107.02 Q92.02 107.27 93.27 107.27 Q94.51 107.27 95.37 107.10 Z M118.42 145.20 L118.42 145.20 Q116.01 146.15 113.39 144.90 Q110.77 143.65 108.88 140.99 L108.88 140.99 Q108.53 140.47 107.84 139.14 Q107.16 137.80 106.51 136.26 Q105.87 134.71 105.56 133.59 Q105.26 132.47 105.52 132.30 L105.52 132.30 Q105.87 131.35 107.07 131.18 Q108.27 131.01 109.48 131.31 Q110.68 131.61 110.85 132.13 L110.85 132.13 Q111.11 132.73 111.37 133.38 Q111.63 134.02 112.01 134.58 Q112.40 135.14 112.75 135.57 L112.75 135.57 Q113.69 137.03 114.81 137.59 Q115.93 138.15 116.53 137.72 L116.53 137.72 Q117.99 136.60 118.72 135.09 Q119.45 133.59 120.66 129.81 L120.66 129.81 Q121.60 126.62 122.29 124.30 Q122.98 121.98 123.75 120.00 L123.75 120.00 Q124.01 118.97 124.44 118.20 L124.44 118.20 Q124.53 118.02 124.61 117.85 L124.61 117.85 Q123.41 118.71 122.46 119.57 L122.46 119.57 Q121.17 120.78 118.94 121.72 L118.94 121.72 Q118.42 122.32 116.40 122.45 Q114.38 122.58 112.49 121.98 L112.49 121.98 Q111.28 121.29 110.55 120.56 Q109.82 119.83 109.35 118.88 Q108.88 117.94 108.36 116.65 L108.36 116.65 Q107.76 115.36 108.19 112.43 Q108.62 109.51 109.74 106.59 L109.74 106.59 Q110.77 104.44 112.75 101.94 Q114.72 99.45 116.96 97.43 Q119.20 95.41 121.00 94.89 L121.00 94.89 Q121.69 94.55 123.41 94.07 Q125.13 93.60 126.68 94.03 L126.68 94.03 Q128.14 94.20 128.91 94.67 Q129.69 95.15 131.41 96.61 L131.41 96.61 Q132.53 97.73 134.16 99.49 Q135.79 101.25 136.22 102.46 L136.22 102.46 Q136.83 103.75 136.48 105.25 Q136.14 106.76 135.28 107.88 L135.28 107.88 Q134.50 108.99 133.64 110.11 Q132.78 111.23 132.35 113.21 L132.35 113.21 Q131.92 115.79 130.72 119.01 Q129.52 122.24 128.83 124.99 L128.83 124.99 L127.45 130.32 Q125.30 137.63 122.72 140.94 Q120.14 144.25 118.42 145.20 Z M116.62 115.62 L116.62 115.62 Q118.34 115.53 119.58 115.23 Q120.83 114.93 121.95 113.85 Q123.07 112.78 124.53 110.54 L124.53 110.54 Q125.99 108.48 126.59 106.76 Q127.19 105.04 127.02 102.89 L127.02 102.89 Q126.94 101.51 126.25 101.08 Q125.56 100.65 124.44 100.82 L124.44 100.82 Q122.81 101.08 121.52 102.16 Q120.23 103.23 118.51 105.47 L118.51 105.47 Q117.22 107.19 116.36 109.60 L116.36 109.60 Q115.50 112.18 115.63 113.72 Q115.76 115.27 116.62 115.62 Z M143.88 138.41 L143.88 138.41 Q143.36 138.75 141.56 137.59 Q139.75 136.43 138.55 135.05 L138.55 135.05 Q137.94 134.36 137.77 133.59 Q137.60 132.82 137.86 130.67 L137.86 130.67 Q138.20 129.72 138.24 128.86 Q138.29 128.00 138.29 127.66 L138.29 127.66 Q138.29 127.14 138.59 125.25 Q138.89 123.36 139.23 121.25 Q139.58 119.14 139.84 118.02 L139.84 118.02 Q139.84 117.94 139.96 117.42 Q140.09 116.91 140.18 116.65 L140.18 116.65 Q140.35 115.87 140.61 114.76 Q140.87 113.64 141.13 111.75 L141.13 111.75 Q141.81 109.60 142.29 107.49 Q142.76 105.38 142.76 104.61 L142.76 104.61 Q142.76 103.06 143.96 102.37 L143.96 102.37 Q144.05 101.94 144.48 101.04 Q144.91 100.14 145.25 99.53 L145.25 99.53 Q146.97 94.63 148.09 91.71 Q149.21 88.78 150.41 86.63 L150.41 86.63 Q150.93 85.17 151.57 83.62 Q152.22 82.08 152.91 81.22 L152.91 81.22 Q153.51 80.01 155.01 78.25 Q156.52 76.49 158.24 74.85 Q159.96 73.22 160.99 72.44 L160.99 72.44 Q162.88 71.50 164.52 70.90 Q166.15 70.29 167.96 70.29 L167.96 70.29 Q169.59 70.29 170.84 71.03 Q172.09 71.76 174.58 73.99 L174.58 73.99 Q175.44 75.11 175.44 76.14 Q175.44 77.17 175.01 77.86 L175.01 77.86 Q174.41 79.24 173.20 81.26 Q172.00 83.28 170.88 84.87 Q169.76 86.46 169.25 86.55 L169.25 86.55 Q168.22 87.15 167.10 86.89 Q165.98 86.63 165.98 85.34 L165.98 85.34 Q165.98 84.74 166.07 84.23 L166.07 84.23 L166.07 83.71 Q166.32 82.59 166.71 81.73 Q167.10 80.87 167.44 80.27 L167.44 80.27 Q168.13 79.15 167.83 78.12 Q167.53 77.09 165.64 77.26 L165.64 77.26 Q165.38 77.43 164.65 78.08 Q163.92 78.72 163.10 79.54 Q162.28 80.36 161.68 81.09 Q161.08 81.82 161.08 82.08 L161.08 82.08 L160.65 82.94 Q160.13 83.88 159.19 85.00 L159.19 85.00 Q158.58 85.86 158.15 86.63 Q157.72 87.41 157.72 87.84 L157.72 87.84 Q157.72 88.18 157.64 88.44 Q157.55 88.70 157.21 88.70 L157.21 88.70 L156.95 89.56 Q156.61 90.42 155.92 91.62 L155.92 91.62 Q155.57 92.48 155.19 93.21 Q154.80 93.94 154.46 94.29 L154.46 94.29 L154.37 94.46 L154.03 95.41 Q153.60 96.44 153.17 97.47 Q152.74 98.50 152.74 98.67 L152.74 98.67 Q152.74 99.02 153.77 99.02 Q154.80 99.02 156.26 98.72 Q157.72 98.42 159.10 98.07 L159.10 98.07 Q160.30 97.73 160.82 97.73 Q161.34 97.73 162.45 98.07 L162.45 98.07 Q163.14 98.50 163.57 99.58 Q164.00 100.65 164.22 101.73 Q164.43 102.80 164.26 103.32 L164.26 103.32 Q164.17 103.66 162.32 104.26 Q160.48 104.87 158.67 105.21 L158.67 105.21 Q157.12 105.55 155.19 105.94 Q153.25 106.33 151.79 106.72 Q150.33 107.10 150.24 107.45 L150.24 107.45 Q149.90 107.45 149.68 107.88 Q149.47 108.31 149.47 108.65 L149.47 108.65 Q149.47 109.77 149.04 110.46 L149.04 110.46 Q148.87 110.97 148.48 112.56 Q148.09 114.15 147.70 116.00 Q147.32 117.85 147.02 119.44 Q146.72 121.03 146.72 121.55 L146.72 121.55 Q146.20 122.15 146.11 123.06 Q146.03 123.96 146.03 124.65 L146.03 124.65 Q145.68 125.33 145.60 125.89 Q145.51 126.45 145.51 126.80 L145.51 126.80 L145.51 127.14 Q145.51 127.40 145.43 127.66 L145.43 127.66 Q145.34 128.52 145.21 129.94 Q145.08 131.35 145.08 132.73 L145.08 132.73 L144.82 135.22 Q144.74 136.34 144.52 137.16 Q144.31 137.98 143.88 138.41 Z M186.02 127.83 L186.02 127.83 Q185.16 126.97 184.64 125.46 Q184.13 123.96 183.61 121.98 L183.61 121.98 Q183.44 121.29 183.48 120.43 Q183.52 119.57 183.44 119.06 L183.44 119.06 Q183.18 119.66 182.62 120.60 Q182.06 121.55 181.55 121.98 L181.55 121.98 Q181.20 122.32 180.00 123.31 Q178.79 124.30 177.59 124.90 L177.59 124.90 Q174.75 126.71 172.56 126.58 Q170.37 126.45 168.73 124.39 L168.73 124.39 Q167.36 123.27 166.50 121.55 Q165.64 119.83 166.15 117.42 L166.15 117.42 Q166.32 114.41 167.01 111.53 Q167.70 108.65 169.85 103.83 L169.85 103.83 Q171.66 100.31 172.60 98.33 Q173.55 96.35 173.81 96.01 L173.81 96.01 Q175.10 95.58 176.99 96.05 Q178.88 96.52 179.05 97.73 L179.05 97.73 Q179.57 98.59 179.05 100.95 Q178.54 103.32 176.99 106.33 L176.99 106.33 Q175.78 109.25 174.71 112.00 Q173.63 114.76 173.42 116.65 Q173.20 118.54 174.41 118.97 L174.41 118.97 Q175.18 119.40 176.69 118.88 Q178.19 118.37 180.26 115.79 Q182.32 113.21 184.64 107.62 L184.64 107.62 Q185.33 105.90 185.67 104.56 Q186.02 103.23 186.10 101.60 L186.10 101.60 Q185.93 100.57 186.66 99.45 Q187.39 98.33 188.43 97.73 L188.43 97.73 Q188.77 97.30 189.37 96.87 L189.37 96.87 Q189.80 96.61 189.97 96.78 L189.97 96.78 Q190.06 96.78 190.15 96.95 L190.15 96.95 L191.52 96.87 Q191.87 96.78 192.30 97.56 Q192.73 98.33 193.16 98.67 L193.16 98.67 Q194.10 99.45 194.02 102.03 Q193.93 104.61 191.95 109.25 L191.95 109.25 Q190.32 112.78 189.76 114.58 Q189.20 116.39 189.11 118.11 L189.11 118.11 Q189.11 119.66 189.37 120.73 Q189.63 121.81 190.92 122.93 L190.92 122.93 Q191.87 123.53 191.99 124.95 Q192.12 126.37 192.04 127.40 L192.04 127.40 Q191.87 128.17 190.70 128.47 Q189.54 128.77 188.21 128.60 Q186.88 128.43 186.02 127.83 Z M197.80 126.54 L197.80 126.54 Q197.11 125.85 196.81 124.47 Q196.51 123.10 196.60 121.77 Q196.68 120.43 197.03 119.74 L197.03 119.74 Q197.03 119.06 197.24 118.67 Q197.46 118.28 197.37 117.94 L197.37 117.94 Q197.28 117.59 197.54 116.73 Q197.80 115.87 198.06 115.10 L198.06 115.10 Q198.66 113.72 199.43 111.53 Q200.21 109.34 200.98 107.06 Q201.76 104.78 202.27 103.10 Q202.79 101.43 202.87 101.08 L202.87 101.08 Q202.87 100.05 204.25 99.96 L204.25 99.96 Q205.28 99.62 206.74 100.82 Q208.21 102.03 209.07 103.40 L209.07 103.40 Q209.75 104.09 209.58 105.21 Q209.41 106.33 208.46 108.39 L208.46 108.39 Q208.12 109.08 207.65 110.67 Q207.17 112.26 207.00 113.29 L207.00 113.29 Q206.66 113.98 206.18 115.23 Q205.71 116.48 205.37 117.59 L205.37 117.59 Q205.20 118.02 205.02 119.19 Q204.85 120.35 204.59 121.55 Q204.34 122.75 203.91 123.44 L203.91 123.44 Q203.13 126.97 201.20 127.57 Q199.26 128.17 197.80 126.54 Z " fill="#1d1c19"></path><defs><mask id="hm2" maskUnits="userSpaceOnUse"><path d="M0,3 C0,-3 -9,-6 -9,-13 C-9,-19 -2,-20 0,-14 C2,-20 9,-19 9,-13 C9,-6 0,-3 0,3 Z" fill="#fff"></path><path d="M-7.5,-8 q2.5,-3.4 5,0 t5,0 t5,0" fill="none" stroke="#000" stroke-width="2.1" stroke-linecap="round"></path></mask></defs><g transform="translate(210.40,95.23) rotate(12) scale(0.940)"><path d="M0,3 C0,-3 -9,-6 -9,-13 C-9,-19 -2,-20 0,-14 C2,-20 9,-19 9,-13 C9,-6 0,-3 0,3 Z" fill="#d23b34" mask="url(#hm2)"></path></g></g></g></svg><path d="M41.62 285.53L39.70 285.53L39.70 276.08L36.35 276.08L36.35 274.33L44.96 274.33L44.96 276.08L41.62 276.08L41.62 285.53Z M62.68 285.53L55.46 285.53L55.46 274.33L62.60 274.33L62.60 276.08L57.40 276.08L57.40 279.02L62.15 279.02L62.15 280.77L57.40 280.77L57.40 283.79L62.68 283.79L62.68 285.53Z M77.25 285.76L77.25 285.76Q76.06 285.76 75.13 285.24Q74.19 284.72 73.64 283.72Q73.09 282.72 73.09 281.26L73.09 281.26L73.09 278.61Q73.09 276.43 74.30 275.27Q75.52 274.11 77.57 274.11L77.57 274.11Q79.62 274.11 80.72 275.21Q81.82 276.30 81.82 278.16L81.82 278.16L81.82 278.22L79.94 278.22L79.94 278.09Q79.94 277.45 79.68 276.94Q79.42 276.43 78.90 276.13Q78.37 275.84 77.57 275.84L77.57 275.84Q76.38 275.84 75.70 276.57Q75.02 277.29 75.02 278.57L75.02 278.57L75.02 281.29Q75.02 282.56 75.70 283.31Q76.38 284.06 77.60 284.06L77.60 284.06Q78.82 284.06 79.38 283.41Q79.94 282.75 79.94 281.73L79.94 281.73L79.94 281.53L77.10 281.53L77.10 279.90L81.82 279.90L81.82 285.53L80.06 285.53L80.06 284.43L79.79 284.43Q79.66 284.72 79.39 285.03Q79.12 285.34 78.62 285.55Q78.11 285.76 77.25 285.76Z M100.15 285.53L92.94 285.53L92.94 274.33L100.07 274.33L100.07 276.08L94.87 276.08L94.87 279.02L99.62 279.02L99.62 280.77L94.87 280.77L94.87 283.79L100.15 283.79L100.15 285.53Z M112.77 285.53L110.83 285.53L110.83 274.33L115.62 274.33Q116.67 274.33 117.46 274.70Q118.24 275.07 118.68 275.73Q119.12 276.40 119.12 277.33L119.12 277.33L119.12 277.50Q119.12 278.54 118.62 279.17Q118.13 279.79 117.42 280.08L117.42 280.08L117.42 280.33Q118.05 280.37 118.41 280.77Q118.77 281.17 118.77 281.84L118.77 281.84L118.77 285.53L116.85 285.53L116.85 282.11Q116.85 281.71 116.63 281.46Q116.42 281.21 115.94 281.21L115.94 281.21L112.77 281.21L112.77 285.53ZM112.77 276.08L112.77 279.47L115.42 279.47Q116.26 279.47 116.73 279.03Q117.20 278.59 117.20 277.85L117.20 277.85L117.20 277.71Q117.20 276.96 116.74 276.52Q116.27 276.08 115.42 276.08L115.42 276.08L112.77 276.08Z M131.85 285.53L129.94 285.53L129.94 274.33L133.62 274.33L136.26 284.24L136.52 284.24L136.52 274.33L138.42 274.33L138.42 285.53L134.76 285.53L132.12 275.63L131.85 275.63L131.85 285.53Z M153.49 285.76L153.49 285.76Q152.21 285.76 151.22 285.30Q150.24 284.85 149.68 283.98Q149.12 283.12 149.12 281.87L149.12 281.87L149.12 281.45L151.02 281.45L151.02 281.87Q151.02 282.97 151.70 283.52Q152.37 284.06 153.49 284.06L153.49 284.06Q154.62 284.06 155.20 283.60Q155.78 283.13 155.78 282.40L155.78 282.40Q155.78 281.90 155.50 281.59Q155.23 281.28 154.71 281.09Q154.19 280.89 153.46 280.72L153.46 280.72L152.98 280.62Q151.87 280.37 151.06 279.97Q150.26 279.58 149.82 278.96Q149.39 278.33 149.39 277.33L149.39 277.33Q149.39 276.32 149.87 275.60Q150.35 274.88 151.23 274.49Q152.11 274.11 153.30 274.11L153.30 274.11Q154.48 274.11 155.41 274.51Q156.34 274.91 156.87 275.71Q157.41 276.51 157.41 277.71L157.41 277.71L157.41 278.24L155.50 278.24L155.50 277.71Q155.50 277.02 155.23 276.61Q154.96 276.19 154.46 276.00Q153.97 275.81 153.30 275.81L153.30 275.81Q152.30 275.81 151.79 276.19Q151.28 276.57 151.28 277.28L151.28 277.28Q151.28 277.73 151.51 278.04Q151.74 278.35 152.20 278.55Q152.66 278.75 153.34 278.89L153.34 278.89L153.82 279.01Q154.98 279.26 155.84 279.65Q156.70 280.05 157.19 280.69Q157.68 281.33 157.68 282.35L157.68 282.35Q157.68 283.36 157.16 284.13Q156.64 284.89 155.70 285.33Q154.77 285.76 153.49 285.76Z M175.58 285.53L168.36 285.53L168.36 274.33L175.50 274.33L175.50 276.08L170.30 276.08L170.30 279.02L175.05 279.02L175.05 280.77L170.30 280.77L170.30 283.79L175.58 283.79L175.58 285.53Z M193.47 285.53L186.26 285.53L186.26 274.33L193.39 274.33L193.39 276.08L188.19 276.08L188.19 279.02L192.94 279.02L192.94 280.77L188.19 280.77L188.19 283.79L193.47 283.79L193.47 285.53Z" fill="#2f7d8a"></path><circle cx="117.0" cy="308.8" r="10" fill="#fff"></circle><circle cx="117.0" cy="308.8" r="10" fill="none" stroke="#2f7d8a" stroke-width="2.4"></circle><circle cx="117.0" cy="308.8" r="4" fill="#2f7d8a"></circle></svg>