<svg xmlns="http://www.w3.org/2000/svg" width="1380" height="2040" viewBox="0 0 230 340"><path d="M1646.026,1866.889v-2.045v-5.17l-1.4-3.088l-4.164-3.086l-4.236-4.164l-0.609-2.012l0.609-5.205l0.719-7.252 v-5.098l-0.719-6.281l-1.293-3.088l-2.117-4.057l-2.117-4.127l-4.164-3.088l-3.447-3.088l-4.129-1.076l-2.836-2.117l-2.727-6.176 l-5.564-4.129l-0.684-2.045l-2.836-2.01l-6.246-4.166l-4.164,1.078l-2.729-2.119l-3.518-1.076l-2.047-2.01l-0.682-3.088l0.682-4.164 l-0.682-4.129l-0.717-3.086l-2.119-4.164l-1.4-4.057l-0.609-2.119l-1.436-3.086l-2.801-3.088l-2.047-2.01l-2.117-1.078l-2.117-2.117 l-2.729-0.969l-2.836,0.969l-3.447,1.076l-2.729,1.041l-4.918-1.041l-4.846-4.164l-4.883,2.119l-7.574,3.086l-6.246,2.047 l-6.281,1.041h-3.52l-2.727-1.041l-2.836-2.047l-2.729-4.127l-2.119-4.164l-3.445-3.088l-4.129-1.041l-4.236-2.047l-5.564-1.041 h-6.893l-4.918-0.969h-3.445l-4.129-1.078l-3.553-4.127l-0.611-7.252l-5.564-6.139l-4.918-3.123l-6.893-1.041v4.164l-9.082,2.01 l-11.129,2.119l-7.574,3.086l-4.236-3.086l-6.174,1.041l-9.082,4.057l-10.41,2.117l-7.684,2.047l-7.574,3.086l-9.082,8.293 l1.4,1.041l-2.01,2.047l-1.436-1.076l-1.4,1.076l-9.012,2.01l-2.799-2.01l-2.729-1.076h-3.518l-2.047,4.164l-2.117,1.041h-6.248 l-5.563-1.041l-6.283-1.078l-5.527-3.086l-3.447-3.088l-2.836-4.129l-3.445-5.133l-2.801-7.217l-2.047-4.164l-0.717-6.174 l2.152-7.215l3.412-7.217l0.717-4.164l2.729-4.127l1.4-10.34l2.117-9.262l4.164-7.215l4.129-4.164l6.283-2.012l3.445-3.086 l6.246-8.293l1.4-5.133l2.117-5.205v-4.129l2.047-5.133l1.4-5.207l2.836-2.01l1.328-4.164l0.682-5.098l-2.01-6.281l-0.719-9.262 l-0.717-7.217v-10.338v-5.098v-3.088v-5.205l-0.684-5.133l-1.398-4.129l-3.447-6.246l-7.682-9.262l-4.846-6.174l-0.719-4.164 l-3.447-3.088l-2.117-3.088l-4.846-5.205l-2.729-5.098l-1.4-4.164l-2.117-2.01l-6.965-2.119l-5.564-0.969l-6.893-1.076l-4.236-1.041 l-3.445-3.088l-2.082-1.076l-4.883-0.971l-6.855-1.041h-4.236h-1.328h-11.811l-3.555-1.076l-2.729-2.01l-4.127-2.119l-2.838-4.057 l-2.727-5.205l-1.4-4.164l-1.436-3.086l-4.848-11.381l-2.117-6.174l-2.01-4.129l-0.719-2.045l-4.846-4.129l-2.119-2.047 l-3.445-4.129l-5.564-5.205l-2.117-2.045h-1.4l-2.729-4.129l-0.719-1.076l0.719-2.012l-2.836-4.164l-4.129-5.098l-0.717-1.076 l-7.684-10.303l-6.855-5.205l-4.236-4.057l-3.447-1.041l-1.398-4.164l-2.047-6.176l-0.682-2.117v-0.969l-3.555-7.217h-1.328 l-15.328-10.338h-1.328l-1.4-1.041h-1.436l-0.682-2.047l-2.047-1.041l0.717-1.076h3.447l0.682-0.969l-2.799-1.041l-0.719-1.078 l1.4-1.041l2.836-3.086l4.164-4.057l4.846-3.195l2.801-3.088l1.328-3.088l2.117-4.127l0.719-4.057l2.01-2.119l-1.328-1.076 l-2.801-0.969l-0.717-10.303l-0.719-2.119l-0.609-2.045l0.609-4.129l0.719-5.133l3.518-5.205l0.719-7.217h0.609v-2.045h2.119v-3.088 v-4.129l-1.4-2.117h-0.719l1.4-7.252h1.436l1.4-6.139l-1.4-2.047l4.129-7.215l3.553-6.174l2.729-3.195l5.529-10.303l-1.4-0.969 l2.117-3.088l1.438-6.283l1.291-22.65v-8.293l-0.609-3.088v-1.076v-0.969l-0.682-1.041v-2.047l-0.719-1.041l1.4-2.117v-2.047 l-2.119-4.129h2.119l2.729-2.045v-6.176h1.436l-0.719-5.205l-0.717-5.098l-1.4-6.281l-0.719-2.012v-6.174l-1.291-4.164l-2.836-4.129 l-2.047-3.086v-4.164v-6.176l1.328-3.086v-3.088l-5.564-6.246l-6.246-8.186l-9.693-10.338l-4.846-4.129l-1.436-4.164l-27.068-35.109 h-2.045l-3.518-5.205l-3.447-5.098l-4.129-3.086l-0.717-3.088l-3.518-5.205l-4.848-7.252l-4.164-7.215l-2.799-5.133l-2.047-6.176 l-1.4-6.246l-2.729-6.174l-5.564-9.262l-11.127-12.422l-5.529-6.174l-4.236-8.293l-3.445-8.221l-0.719-5.205v-14.467v-9.262 l-4.127-8.293l-4.848-6.174l-5.564-4.129l-7.682-9.262l-1.4-4.164l-6.281-5.205l-4.848-4.057l-7.574-11.379l-0.717-6.176 l-4.848-6.246l-4.918-2.045l-10.41-10.305l-5.564-5.205l-3.445-2.045l-3.447-2.119l-4.234-0.934l-3.447-1.076l-2.801-2.047h-3.445 l-1.4-1.041l1.4-5.205v-2.01l-2.729-4.164l-2.117-6.174l-3.447-6.176l-2.836-5.205l-0.682-6.174l-0.719-9.334l-1.328-9.262v-5.133 l1.328-7.217l1.4-1.076v-5.205l-1.4-9.262l-5.564-16.479l-5.563-8.291l-6.857-6.176l-9.801-7.25h-1.328l-11.092-3.088l-5.564-1.041 h-1.4h-0.717l-0.719-1.076l-1.4-0.971l-1.328-1.041l0.611-2.117l0.717-7.217l-2.047-6.174l-0.682-13.426l-4.236-5.205l-3.445-7.215 l-4.129-9.262l-1.436-21.719l-1.4-6.176l-0.717-8.291l-2.012-6.176l-1.436-3.086l-4.129-6.176l-1.398-4.127l-2.119-1.078 l-1.328-3.086l0.682-5.207l-1.398-6.174l-0.684-3.088l-3.445-3.086l-2.836-1.041l-2.119-2.047l-4.846-4.129l-6.281-5.205 l-14.539-12.348l-4.129-6.176l-6.965-13.498l-2.764-8.184l-2.799-12.457l-4.164-7.215l-5.564-4.164l-4.129-6.176l-1.4-3.086 l8.975-3.088l4.164-3.088l-0.646-1.041l-4.199,1.041l-9.729,4.164l-4.129-5.205l-6.281-8.293l-5.529-6.174l-2.117-5.133 l-2.047-8.293l-2.799-13.391l-1.438-7.252l-3.445-6.246l-6.246-6.174l-9.693-8.293l-3.445-5.098l-4.955-14.467l-1.328-8.293v-18.523 l-1.4-9.369l-2.799-11.379l-0.719-7.217l0.719-6.174l2.082-3.088l4.881-6.174l9.084-7.252l4.127-6.246l3.447-6.174l4.127-5.133 l2.836-9.334l1.4-5.133l0.719-4.129l1.328-4.164l4.236-11.344l0.609-3.088l1.4-3.088l2.117-8.291l0.719-4.164v-4.129l-0.719-5.133 l-0.682-2.012l-1.436-2.117l-1.4-2.047v-4.129l2.119-2.117l0.717-2.047l-2.117-7.215h-0.719l-2.729-3.088l-1.398-1.076l-1.438-9.262 l1.438-6.246l3.518-6.174l-0.719-16.514l0.719-4.129v-3.088l-0.719-4.164l-3.518-6.174l-2.047-2.117l-1.4-2.012l-2.836,1.041 l-2.01,0.971l-0.717-0.971v-1.041l2.117-1.076h2.047l1.398-2.01l2.729-2.119l2.119-2.045l1.4-1.041v-3.088l1.436-6.174l2.01-5.207 l1.436-4.127v-7.252v-4.057l-1.436-13.498l-0.682-8.184v-5.207l-1.328-3.086l-1.436-8.293l-2.082-4.164l-3.447-11.379l-2.836-10.304 l-0.719-5.134l-2.01-3.087l-3.518-4.128l-0.646-4.164l-4.199-6.175l-2.047-3.087l-0.719-4.129V0h-4.846h-7.682l-3.41,3.087 l1.328,6.175l-0.719,6.282l-4.846,14.467l-3.447,4.057l-4.164,3.159l-3.518,4.057l-2.729,3.088l-4.846,3.193l-5.564-2.117 l-4.846-2.047l-5.564-1.041h-9.082l-7.574,1.041l-9.082,2.047l-9.012,4.129l-9.082,3.086h-5.564l-4.846-3.086l-4.129,1.076 l-4.883,2.01l-4.127,4.164l-0.719,1.041l-6.963,3.088l-2.729,1.076l-6.246,2.012l-7.684,3.086l-4.164-1.041l-6.246-0.969 l-6.281,0.969l-3.412,2.119l-6.281,3.086l-6.246,4.129l-1.436,3.088l-6.965,5.205l-3.41,4.057l-7.682,6.281v2.012l-2.047,6.174 l-2.117,7.252l-0.684,4.127l-4.164,8.293l-2.836,9.262l-2.729,7.217l-3.445,5.205l-2.801,3.086l-2.117,2.047h-0.611l-6.281,1.041 l-9.801,1.076h-8.256l-7.684,3.088l-4.846,1.041l-2.045-1.041l-3.52-1.076l-3.445,1.076h-2.119l-2.727,2.01l-6.965,5.205 l-7.682,5.207l-6.248,3.086l-11.127,3.088l-6.893,8.221l-10.482,6.246l-4.129,3.088l-10.41,4.164l-9.01,4.127l-2.836,6.176v4.164 l-1.4,6.174l-2.012,4.129l-4.164,2.045l-4.234,3.088l-6.248,1.041l-3.445,4.164l-4.846,6.176l-1.436,5.205l-1.4,6.174l-2.012,7.215 l-3.553,15.51l-1.293,4.055l-2.154,3.195l-8.256,11.273l-2.836,5.205l-8.293,11.379v6.174l-2.836,4.164l-2.117,7.217l-3.447,6.174 l-1.4,4.164l0.719,3.088l1.4,8.293l2.117,7.215l2.047,12.35v15.543l5.527,4.129l1.438,4.164l-1.438,5.098l-1.398,3.088l-4.848,1.076 l-2.01,4.129l3.41,5.098l0.719,6.281l4.127,7.215l4.166,6.176l2.836,8.293l1.398,8.221v5.205l1.328,5.098l-1.328,3.193l-0.717,6.176 l0.717,4.127l1.328,5.135l-0.609,4.129l-3.555,4.164l-6.246,6.174l-5.564,5.205l-4.164,6.174l-1.4,3.088l0.719,7.215l2.117,5.205 l4.848,5.135l2.729,5.205l5.564,13.391l2.836,6.174l6.246,4.129l1.398,4.164l-11.811,15.436l-8.363,14.467l-4.883,7.217l0.719,9.369 v4.127l4.846,13.426l1.436,7.217l0.684,8.221l2.727,3.158l7.002,8.221l4.846,5.205l6.965,5.098l2.01,7.252l4.236,11.379l2.045,5.17 l3.52,7.252l3.445,12.35l2.117,8.291l-0.717,5.098l2.045,9.369l0.684,8.186l-1.293,10.338l-2.154,7.217l0.719,4.164l6.281,9.334 l4.129,6.174l2.729,8.221l4.953,5.205l2.012,8.293l4.881,6.174l1.4,7.217v5.133l-4.846,15.508l-3.447,5.205l-2.117,3.088h-9.01 l-2.801,7.215l-5.564,4.057l-8.293,3.195L387.325,850l-2.047,6.174l-0.682,4.164l2.01,10.303l2.119,5.205l3.445,4.164l4.848,3.088 l2.799,1.041l11.848-1.041l4.846,2.01l11.092-0.969l4.883,0.969l3.41,4.164l3.555,2.119h5.527l11.848-3.195l8.291-0.969l7.646,0.969 l8.293,2.117l5.564,4.164l4.953,4.057l7.574,7.217l3.52,3.193l8.291-1.076l7.684,2.047l4.846,2.117l4.846,0.969h5.564l2.729,3.088 l7,2.117h4.811h5.564l2.836,1.041l4.846,2.047l3.447,3.088l1.4,4.127v3.088l-0.684,5.205l1.4,4.057l6.246,2.119l0.719,2.045 l0.717,2.119l-0.717,0.969l-1.4,1.041l-5.564,3.088l-2.117,15.508l5.564,5.133l1.398,6.246v6.174l-2.117,5.135l-2.01,5.205 l-3.555,4.129l-5.564,2.045l-5.527,4.129l-6.176,8.293l-7.682,7.25v3.088l-0.719,4.129l1.438,5.133l-0.719,8.293l3.447,7.215 l4.234,8.221l7.576,8.293l3.518,1.041l3.445,0.969h2.729l5.564,1.078l4.236-1.078l2.01-3.086l3.555-0.971l6.246,2.047l5.564,3.088 l6.174,3.086l4.953,3.088l4.129,7.215l2.047,5.205l-2.764,5.135l-2.119,5.205l0.719,7.215l-3.447,8.186l-1.4,8.293l-0.717,7.25 l0.717,5.205l2.836,5.098l2.012,4.164l4.846,5.098l1.4,2.119l0.717,3.086l-1.398,2.047h-6.965l-4.164,3.088l-5.564,6.246l-1.4,6.174 l-0.609,5.135l-2.119,5.205l-4.846,6.174l-7.682,2.117l-9.693,2.012l-0.717-2.012l-10.412,9.262l-4.846,5.207l0.719,7.143 l-6.283,2.119l-2.799,3.086l-0.719,7.217l1.436,7.25l3.518,7.217l3.447,5.133l4.129,6.246l4.127,4.057l2.836,1.076h2.729v-3.086 v-4.164h1.436v5.205l-0.717,2.045h2.836v3.088h1.4l0.609-7.252l2.836,1.078l-0.719,1.041l-1.398-1.041l-0.719,6.174h6.246 l1.436-3.088l-2.729-1.076v-0.969l3.447,0.969l0.682-0.969l4.846,2.045l-0.682,2.012h4.129l4.236,3.158l9.01,7.252l2.117,4.057 l2.729,3.086l4.848,1.041l4.234,5.207l6.176,5.133l7.682,6.174l6.246,5.205l-0.717,2.012h-2.119v1.076v1.041l2.119,2.047 l-3.41,8.291l0.682,7.217l5.564,3.086l4.164,4.166l1.4,5.096l2.01,3.088l4.846,5.205l7,4.164l2.801,7.217l4.164,4.057l14.539,6.281 l11.811,5.098l6.281,2.117l13.211,10.34l6.893,5.098l7.682,2.117l5.529,4.057l6.281,6.246l2.729,5.135l1.4,8.291l6.281,8.186 l3.447,4.164l4.846,2.117l6.246,5.098l9.801,10.34l4.846,7.215l3.447,7.252l4.846,5.205l4.846,3.088l4.955,4.057l4.127,2.117h6.283 l6.246-1.076l4.846-1.041l3.447-3.088l4.846-2.047l4.164-1.041l4.236,3.088l4.129,3.088l3.445,3.158l3.518,5.133l4.848,4.129 l4.164,4.164l3.445,4.057l4.236,7.215l2.01,3.195l5.564,2.012l4.846,1.076h5.564h2.836l3.41-1.076l4.848,3.086l4.953,2.047 l-4.236,5.205v7.215l0.719,14.467l0.682,5.135l0.719,7.215l0.717,3.088v2.117l-8.4,4.129l-2.01,3.088l-1.4,5.133l-4.881,4.129 l-1.4,4.164v4.127v5.135l1.4,3.086l1.436,5.205l1.293,4.129v3.088l-2.729,4.057l-3.52,3.195l-1.328,2.01l-0.682,4.164v5.098v7.252 l-4.164,7.215l-2.117,5.205l-1.4,7.252l-0.719,8.184l-2.01,2.119l-6.965,7.143l-2.836,5.205l-2.729,3.088l-6.963,9.262l-2.047,7.252 l-4.236,9.334l-2.01,5.133v5.205l4.846,4.021l-3.553,4.164l-1.293,7.215l2.729,6.174l1.4,7.252l0.717,5.205l-1.4,4.129l-2.764,4.057 l-4.236,3.195l-0.682,3.086l0.682,9.262l4.236,4.129l3.447,5.133l2.117,5.205l2.047,6.176l2.117,4.127l-2.836,4.166l-6.893,6.174 l-1.4,4.129l-4.164,7.25v5.098l2.047,4.164l2.117,4.129l0.719,5.133l-4.236,4.129l-11.738,1.076l-9.082-1.076l-8.293-2.01 l-6.965-3.195l-6.281-2.01l-5.529-1.078h-9.01h-4.236l-6.174,4.164l-4.236,3.088l-3.445,4.129l-0.684,7.25h-9.01l-7.682,1.041 l-19.494,9.264l-4.127,6.174l-0.719,9.334l0.719,11.307l2.799,2.119l-2.117,6.174l2.117,3.088l4.164,7.215l4.848,5.133l4.164,5.207 l-0.719,6.174l5.564,6.174l6.965,3.088l7.646,8.293l2.764,6.174l2.801,3.088l4.164,4.127l0.682,4.164l6.281,7.217l2.119,6.174 l2.01,6.174l2.117,4.166l2.766,4.127l5.527,4.164l6.283,2.012l6.963,3.086l5.564,4.164l5.529,3.088l9.01,3.088l7.682,3.086 l6.965,2.119l4.846,0.969l4.164-2.047l2.801-2.01l2.729-6.281l-1.4-3.088l0.719-7.215l0.682-2.047l2.836-2.01l4.129-3.195 l2.045-2.01l-2.729-2.047l-3.445-3.088v-8.293l3.445-5.205l2.729-4.057v-5.205l-4.164-3.086l-2.729-6.176l-3.518-3.086l-3.445-3.088 l-2.836-3.158h-2.729l-2.801-2.047l-2.729-9.262l-2.117-6.174l-0.719-4.129l-0.609-3.088l-4.236-2.117l-2.047-2.047l-1.398-2.117 l0.717-6.176l1.4-6.174l3.445-3.088l4.129-2.01h3.518h2.766l7.645-4.164l6.283-3.088l2.729-3.086l2.836-3.16l6.174-0.969 l5.529,6.174l2.836,2.047l3.445,3.051l6.965,2.119l4.129,1.076h3.553h1.328l2.119,2.01l6.246,2.047h4.127l4.166,1.041l4.234,1.076 l2.729,0.971l4.236,1.041l4.846,1.076l2.047-1.076l0.682-3.088h1.436l2.729,1.076l11.811-1.076l9.082-3.088h5.564l4.848-2.01 l4.846-2.117l4.164-3.088l5.527-4.164l5.564-3.088l8.4-2.01l4.129,0.969h7.682h11.094h4.881h8.975l5.564-0.969h4.164l5.529-3.088 l4.846,0.971l7.682-3.088h3.447h3.518h5.564l8.293-0.969l9.082-2.119l6.963-2.01l6.176-3.088l5.564-4.164l6.246-5.205l2.836-3.088 l0.717-6.174l2.012-5.205l1.436-4.057l2.082-3.088l2.047-6.246l2.117-7.25l0.719-0.971l6.963-2.117h4.129l1.4,4.164l5.564,4.129 h8.291l4.166,1.076h4.234h6.857l6.281-2.117l5.529-2.047l2.836-2.117l3.445-2.012l2.836-1.076l4.129-2.01l2.047-2.047l1.4-4.129 l3.518-7.252l2.045-5.205l2.801-2.01l6.283-2.047l4.846-1.041l4.129,2.012l4.164,3.086l3.518,4.164l2.729,10.305l0.717,6.174 l4.129,3.088l3.555,2.117l10.41,2.047h6.965h7.574l5.564,1.041h5.563l6.965-1.041l2.119-0.971h4.846l7.574-1.076l7.682-2.117 l4.848-0.971l6.963-1.041h5.564h3.447h3.518l2.729,1.041l3.445,0.971l2.836,1.076l2.119,2.117l1.328,2.012h-0.719l0.719,4.164h1.4 v0.969v1.041h-0.719l0.719,5.205h-0.719l1.4,5.133l1.436,6.176l0.682,6.246l1.328,5.133l2.119,5.205v0.969l0.717,5.207l2.012,4.127 v0.971l1.436,6.246l0.682,6.174h-2.117l3.553,12.35l2.01-2.012l3.52,4.129l2.764,3.088l3.518,2.045h2.729l5.564,1.041l9.082-2.117 l6.246-4.057l4.846-3.158l11.848-9.262l6.855-3.088l5.564-2.047l5.564-1.041h6.965l6.281,2.047h6.246h4.848l6.281,2.082l6.965,2.047 l4.129,3.086l9.01,3.088l5.527,2.117l4.883,2.012l4.846-1.041h6.246h4.236l4.164,2.117l11.094,5.098l10.41,3.088l4.846,1.076 l3.555,2.117l1.293-1.076l6.281,2.047l2.836,1.041l2.729,1.076l4.129,5.098h4.953l2.01,1.078h2.119h2.045l0.684-1.078v-1.041h0.717 h0.719h0.682l0.719,1.041l2.045,3.088l2.801,4.164l2.729,4.129l2.836,3.086l0.682,1.078l2.047-1.078l7.682-2.01l2.836-2.117 l2.729-2.047l4.129-5.205l4.846-6.176l3.518-5.098l2.764-6.281l0.682-6.174l2.838-1.041v3.158l0.717,5.133l-0.717,6.176h2.045h1.4 v-2.047h2.117l3.447,1.076l1.4,2.012l4.846-1.041l2.729-2.047l3.518-1.041h5.564h2.729l3.553-3.088l2.012-3.086l2.117-3.088 l2.729-2.117l0.719-0.971l2.117-3.086l0.719-2.119v-2.045l1.398-5.17L1646.026,1866.889z M898.624,1782.205h-3.555l-3.41-0.969 l-4.164-3.088h-4.918l-6.174-1.041l-6.283-1.076l-3.518-0.971l-4.846-4.127l-2.047-3.088l0.611-8.293l-0.611-3.086v-6.176 l2.729-3.086l6.283,0.969l3.445,2.117l7.682,5.098l6.246,3.088l6.248,4.164l4.881,4.129l4.848,6.174l2.117,4.164L898.624,1782.205z" fill="none" stroke="#2f6f9e" stroke-opacity="0.32" stroke-width="12.00" stroke-linejoin="round" stroke-linecap="round" transform="translate(115 180) rotate(0) scale(0.15000) translate(-844.95 -1000.01)"></path><path d="M20.64 67.86L16.88 67.86L16.88 47.91L25.54 47.91Q27.42 47.91 28.82 48.57Q30.22 49.22 30.99 50.42Q31.75 51.62 31.75 53.24L31.75 53.24L31.75 53.58Q31.75 55.38 30.90 56.49Q30.04 57.60 28.79 58.11L28.79 58.11L28.79 58.63Q29.93 58.68 30.56 59.41Q31.18 60.14 31.18 61.33L31.18 61.33L31.18 67.86L27.42 67.86L27.42 61.88Q27.42 61.19 27.07 60.76Q26.71 60.34 25.88 60.34L25.88 60.34L20.64 60.34L20.64 67.86ZM20.64 51.33L20.64 56.92L25.14 56.92Q26.48 56.92 27.24 56.19Q27.99 55.46 27.99 54.27L27.99 54.27L27.99 53.98Q27.99 52.79 27.25 52.06Q26.51 51.33 25.14 51.33L25.14 51.33L20.64 51.33Z M41.73 68.26L41.73 68.26Q39.62 68.26 37.94 67.40Q36.26 66.55 35.29 64.92Q34.32 63.30 34.32 61.02L34.32 61.02L34.32 60.56Q34.32 58.28 35.29 56.66Q36.26 55.04 37.94 54.18Q39.62 53.33 41.73 53.33L41.73 53.33Q43.84 53.33 45.52 54.18Q47.20 55.04 48.17 56.66Q49.14 58.28 49.14 60.56L49.14 60.56L49.14 61.02Q49.14 63.30 48.17 64.92Q47.20 66.55 45.52 67.40Q43.84 68.26 41.73 68.26ZM41.73 65.07L41.73 65.07Q43.38 65.07 44.46 64.00Q45.55 62.93 45.55 60.93L45.55 60.93L45.55 60.65Q45.55 58.66 44.48 57.59Q43.41 56.52 41.73 56.52L41.73 56.52Q40.07 56.52 38.99 57.59Q37.91 58.66 37.91 60.65L37.91 60.65L37.91 60.93Q37.91 62.93 38.99 64.00Q40.07 65.07 41.73 65.07Z M61.84 67.86L57.86 67.86Q56.46 67.86 55.59 66.99Q54.72 66.12 54.72 64.67L54.72 64.67L54.72 56.69L51.19 56.69L51.19 53.73L54.72 53.73L54.72 49.34L58.31 49.34L58.31 53.73L61.33 53.73L61.33 56.69L58.31 56.69L58.31 64.04Q58.31 64.90 59.11 64.90L59.11 64.90L61.84 64.90L61.84 67.86ZM71.13 67.86L67.14 67.86Q65.75 67.86 64.88 66.99Q64.01 66.12 64.01 64.67L64.01 64.67L64.01 56.69L61.33 56.69L61.33 53.73L64.01 53.73L64.01 49.34L67.60 49.34L67.60 53.73L71.48 53.73L71.48 56.69L67.60 56.69L67.60 64.04Q67.60 64.90 68.40 64.90L68.40 64.90L71.13 64.90L71.13 67.86Z M79.11 68.26L79.11 68.26Q77.60 68.26 76.40 67.73Q75.21 67.20 74.51 66.19Q73.81 65.18 73.81 63.73L73.81 63.73Q73.81 62.27 74.51 61.29Q75.21 60.31 76.45 59.81Q77.69 59.31 79.28 59.31L79.28 59.31L83.16 59.31L83.16 58.51Q83.16 57.52 82.53 56.87Q81.90 56.23 80.54 56.23L80.54 56.23Q79.20 56.23 78.54 56.85Q77.89 57.46 77.69 58.43L77.69 58.43L74.38 57.32Q74.72 56.23 75.48 55.34Q76.23 54.44 77.50 53.88Q78.77 53.33 80.59 53.33L80.59 53.33Q83.39 53.33 85.01 54.72Q86.63 56.12 86.63 58.77L86.63 58.77L86.63 64.04Q86.63 64.90 87.43 64.90L87.43 64.90L88.57 64.90L88.57 67.86L86.18 67.86Q85.12 67.86 84.44 67.35Q83.76 66.83 83.76 65.98L83.76 65.98L83.76 65.95L83.21 65.95Q83.10 66.29 82.70 66.85Q82.30 67.40 81.45 67.83Q80.59 68.26 79.11 68.26ZM79.74 65.35L79.74 65.35Q81.25 65.35 82.20 64.51Q83.16 63.67 83.16 62.27L83.16 62.27L83.16 61.99L79.54 61.99Q78.54 61.99 77.97 62.42Q77.40 62.84 77.40 63.61L77.40 63.61Q77.40 64.38 78.00 64.87Q78.60 65.35 79.74 65.35Z M97.83 68.26L97.83 68.26Q95.78 68.26 94.11 67.40Q92.45 66.55 91.48 64.92Q90.51 63.30 90.51 60.99L90.51 60.99L90.51 60.59Q90.51 58.28 91.48 56.66Q92.45 55.04 94.11 54.18Q95.78 53.33 97.83 53.33L97.83 53.33Q99.86 53.33 101.31 54.04Q102.76 54.75 103.66 55.99Q104.56 57.23 104.84 58.80L104.84 58.80L101.37 59.54Q101.25 58.68 100.85 58Q100.45 57.32 99.73 56.92Q99.00 56.52 97.92 56.52L97.92 56.52Q96.84 56.52 95.97 56.99Q95.10 57.46 94.60 58.38Q94.10 59.31 94.10 60.65L94.10 60.65L94.10 60.93Q94.10 62.27 94.60 63.20Q95.10 64.13 95.97 64.60Q96.84 65.07 97.92 65.07L97.92 65.07Q99.54 65.07 100.38 64.23Q101.22 63.39 101.45 62.02L101.45 62.02L104.93 62.84Q104.56 64.35 103.66 65.59Q102.76 66.83 101.31 67.55Q99.86 68.26 97.83 68.26Z M111.48 67.86L107.89 67.86L107.89 47.91L111.48 47.91L111.48 55.46L111.99 55.46Q112.22 55.01 112.71 54.55Q113.19 54.10 114.00 53.80Q114.81 53.50 116.07 53.50L116.07 53.50Q117.72 53.50 118.96 54.25Q120.20 55.01 120.88 56.33Q121.57 57.66 121.57 59.42L121.57 59.42L121.57 67.86L117.98 67.86L117.98 59.71Q117.98 58.11 117.19 57.32Q116.41 56.52 114.96 56.52L114.96 56.52Q113.30 56.52 112.39 57.62Q111.48 58.71 111.48 60.68L111.48 60.68L111.48 67.86Z M133.82 62.22L125.39 62.22L125.39 58.97L133.82 58.97L133.82 62.22Z M150.63 67.86L137.64 67.86L137.64 47.91L150.46 47.91L150.46 51.33L141.40 51.33L141.40 56.09L149.66 56.09L149.66 59.51L141.40 59.51L141.40 64.44L150.63 64.44L150.63 67.86Z M152.85 60.85L152.85 60.85L152.85 60.39Q152.85 58.17 153.74 56.59Q154.62 55.01 156.09 54.17Q157.56 53.33 159.29 53.33L159.29 53.33Q161.23 53.33 162.23 54.01Q163.23 54.69 163.68 55.44L163.68 55.44L164.20 55.44L164.20 53.73L167.73 53.73L167.73 70.37Q167.73 71.82 166.87 72.69Q166.02 73.56 164.59 73.56L164.59 73.56L155.13 73.56L155.13 70.42L163.34 70.42Q164.14 70.42 164.14 69.57L164.14 69.57L164.14 65.89L163.63 65.89Q163.34 66.35 162.83 66.82Q162.31 67.29 161.46 67.60Q160.60 67.92 159.29 67.92L159.29 67.92Q157.56 67.92 156.09 67.08Q154.62 66.23 153.74 64.65Q152.85 63.07 152.85 60.85ZM160.32 64.78L160.32 64.78Q161.97 64.78 163.08 63.73Q164.20 62.67 164.20 60.76L164.20 60.76L164.20 60.48Q164.20 58.54 163.10 57.50Q162.00 56.46 160.32 56.46L160.32 56.46Q158.67 56.46 157.56 57.50Q156.44 58.54 156.44 60.48L156.44 60.48L156.44 60.76Q156.44 62.67 157.56 63.73Q158.67 64.78 160.32 64.78Z M178.16 68.26L178.16 68.26Q176.05 68.26 174.44 67.36Q172.83 66.46 171.93 64.82Q171.03 63.19 171.03 60.96L171.03 60.96L171.03 60.62Q171.03 58.40 171.92 56.76Q172.80 55.12 174.40 54.22Q175.99 53.33 178.10 53.33L178.10 53.33Q180.18 53.33 181.72 54.25Q183.26 55.18 184.11 56.82Q184.97 58.46 184.97 60.62L184.97 60.62L184.97 61.85L174.68 61.85Q174.74 63.30 175.76 64.21Q176.79 65.12 178.27 65.12L178.27 65.12Q179.78 65.12 180.49 64.47Q181.21 63.81 181.58 63.01L181.58 63.01L184.51 64.55Q184.11 65.29 183.36 66.16Q182.60 67.03 181.35 67.65Q180.09 68.26 178.16 68.26ZM174.71 59.17L174.71 59.17L181.32 59.17Q181.21 57.94 180.34 57.20Q179.47 56.46 178.07 56.46L178.07 56.46Q176.62 56.46 175.76 57.20Q174.91 57.94 174.71 59.17Z M191.75 67.86L188.16 67.86L188.16 53.73L191.69 53.73L191.69 55.32L192.20 55.32Q192.52 54.47 193.24 54.07Q193.97 53.67 194.94 53.67L194.94 53.67L196.65 53.67L196.65 56.86L194.88 56.86Q193.52 56.86 192.63 57.59Q191.75 58.31 191.75 59.82L191.75 59.82L191.75 67.86Z M203.03 67.86L199.44 67.86L199.44 53.73L202.98 53.73L202.98 55.58L203.49 55.58Q203.83 54.84 204.77 54.17Q205.71 53.50 207.62 53.50L207.62 53.50Q209.27 53.50 210.51 54.25Q211.75 55.01 212.44 56.33Q213.12 57.66 213.12 59.42L213.12 59.42L213.12 67.86L209.53 67.86L209.53 59.71Q209.53 58.11 208.75 57.32Q207.96 56.52 206.51 56.52L206.51 56.52Q204.86 56.52 203.94 57.62Q203.03 58.71 203.03 60.68L203.03 60.68L203.03 67.86Z" fill="#1d1c19"></path><path d="M62.03 86.90L62.03 86.90Q61.23 86.90 60.56 86.51Q59.88 86.12 59.47 85.39Q59.06 84.65 59.06 83.61L59.06 83.61L59.06 83.42Q59.06 82.39 59.46 81.65Q59.87 80.91 60.54 80.52Q61.22 80.13 62.03 80.13L62.03 80.13Q62.65 80.13 63.07 80.28Q63.49 80.44 63.77 80.68Q64.04 80.92 64.18 81.18L64.18 81.18L64.39 81.18L64.39 77.62L65.73 77.62L65.73 86.72L64.42 86.72L64.42 85.81L64.21 85.81Q63.96 86.22 63.46 86.56Q62.96 86.90 62.03 86.90ZM62.40 85.73L62.40 85.73Q63.27 85.73 63.84 85.17Q64.40 84.61 64.40 83.57L64.40 83.57L64.40 83.45Q64.40 82.43 63.85 81.87Q63.29 81.31 62.40 81.31L62.40 81.31Q61.54 81.31 60.98 81.87Q60.41 82.43 60.41 83.45L60.41 83.45L60.41 83.57Q60.41 84.61 60.98 85.17Q61.54 85.73 62.40 85.73Z M70.70 86.90L70.70 86.90Q70.01 86.90 69.47 86.67Q68.93 86.43 68.61 85.98Q68.29 85.52 68.29 84.87L68.29 84.87Q68.29 84.21 68.61 83.77Q68.93 83.34 69.48 83.12Q70.03 82.90 70.73 82.90L70.73 82.90L72.68 82.90L72.68 82.48Q72.68 81.92 72.35 81.58Q72.01 81.24 71.31 81.24L71.31 81.24Q70.62 81.24 70.25 81.57Q69.89 81.89 69.77 82.41L69.77 82.41L68.52 82.01Q68.68 81.49 69.02 81.07Q69.37 80.65 69.94 80.39Q70.51 80.13 71.32 80.13L71.32 80.13Q72.57 80.13 73.28 80.76Q74.00 81.40 74.00 82.57L74.00 82.57L74.00 85.21Q74.00 85.60 74.36 85.60L74.36 85.60L74.91 85.60L74.91 86.72L73.91 86.72Q73.45 86.72 73.17 86.48Q72.88 86.25 72.88 85.85L72.88 85.85L72.88 85.81L72.68 85.81Q72.58 86.00 72.37 86.26Q72.16 86.52 71.76 86.71Q71.36 86.90 70.70 86.90ZM70.89 85.79L70.89 85.79Q71.70 85.79 72.19 85.33Q72.68 84.87 72.68 84.07L72.68 84.07L72.68 83.94L70.81 83.94Q70.28 83.94 69.95 84.16Q69.63 84.39 69.63 84.83L69.63 84.83Q69.63 85.27 69.97 85.53Q70.31 85.79 70.89 85.79Z  M85.23 86.90L85.23 86.90Q84.29 86.90 83.79 86.56Q83.29 86.22 83.04 85.81L83.04 85.81L82.84 85.81L82.84 86.72L81.52 86.72L81.52 77.62L82.86 77.62L82.86 81.18L83.07 81.18Q83.23 80.92 83.49 80.68Q83.75 80.44 84.17 80.28Q84.60 80.13 85.23 80.13L85.23 80.13Q86.03 80.13 86.71 80.52Q87.39 80.91 87.79 81.65Q88.19 82.39 88.19 83.42L88.19 83.42L88.19 83.61Q88.19 84.65 87.78 85.39Q87.37 86.12 86.70 86.51Q86.03 86.90 85.23 86.90ZM84.84 85.73L84.84 85.73Q85.71 85.73 86.27 85.17Q86.84 84.61 86.84 83.57L86.84 83.57L86.84 83.45Q86.84 82.43 86.28 81.87Q85.72 81.31 84.84 81.31L84.84 81.31Q83.98 81.31 83.41 81.87Q82.85 82.43 82.85 83.45L82.85 83.45L82.85 83.57Q82.85 84.61 83.41 85.17Q83.98 85.73 84.84 85.73Z M92.19 86.72L90.86 86.72L90.86 80.31L92.19 80.31L92.19 86.72ZM91.53 79.44L91.53 79.44Q91.14 79.44 90.87 79.18Q90.61 78.93 90.61 78.53L90.61 78.53Q90.61 78.12 90.87 77.87Q91.14 77.62 91.53 77.62L91.53 77.62Q91.93 77.62 92.19 77.87Q92.45 78.12 92.45 78.53L92.45 78.53Q92.45 78.93 92.19 79.18Q91.93 79.44 91.53 79.44Z M96.52 86.72L95.18 86.72L95.18 80.31L96.50 80.31L96.50 81.27L96.70 81.27Q96.89 80.88 97.35 80.54Q97.82 80.20 98.75 80.20L98.75 80.20Q99.47 80.20 100.04 80.53Q100.60 80.85 100.93 81.45Q101.25 82.04 101.25 82.87L101.25 82.87L101.25 86.72L99.92 86.72L99.92 82.97Q99.92 82.14 99.50 81.75Q99.08 81.35 98.36 81.35L98.36 81.35Q97.52 81.35 97.02 81.89Q96.52 82.44 96.52 83.48L96.52 83.48L96.52 86.72Z  M109.83 86.72L108.49 86.72L108.49 80.31L109.83 80.31L109.83 86.72ZM109.17 79.44L109.17 79.44Q108.78 79.44 108.51 79.18Q108.25 78.93 108.25 78.53L108.25 78.53Q108.25 78.12 108.51 77.87Q108.78 77.62 109.17 77.62L109.17 77.62Q109.57 77.62 109.83 77.87Q110.09 78.12 110.09 78.53L110.09 78.53Q110.09 78.93 109.83 79.18Q109.57 79.44 109.17 79.44Z  M119.79 86.90L119.79 86.90Q119.00 86.90 118.32 86.51Q117.64 86.12 117.23 85.39Q116.82 84.65 116.82 83.61L116.82 83.61L116.82 83.42Q116.82 82.39 117.23 81.65Q117.63 80.91 118.31 80.52Q118.98 80.13 119.79 80.13L119.79 80.13Q120.41 80.13 120.83 80.28Q121.26 80.44 121.53 80.68Q121.80 80.92 121.95 81.18L121.95 81.18L122.15 81.18L122.15 77.62L123.49 77.62L123.49 86.72L122.18 86.72L122.18 85.81L121.97 85.81Q121.73 86.22 121.22 86.56Q120.72 86.90 119.79 86.90ZM120.17 85.73L120.17 85.73Q121.04 85.73 121.60 85.17Q122.17 84.61 122.17 83.57L122.17 83.57L122.17 83.45Q122.17 82.43 121.61 81.87Q121.05 81.31 120.17 81.31L120.17 81.31Q119.31 81.31 118.74 81.87Q118.18 82.43 118.18 83.45L118.18 83.45L118.18 83.57Q118.18 84.61 118.74 85.17Q119.31 85.73 120.17 85.73Z M128.46 86.90L128.46 86.90Q127.77 86.90 127.23 86.67Q126.69 86.43 126.37 85.98Q126.05 85.52 126.05 84.87L126.05 84.87Q126.05 84.21 126.37 83.77Q126.69 83.34 127.24 83.12Q127.80 82.90 128.50 82.90L128.50 82.90L130.45 82.90L130.45 82.48Q130.45 81.92 130.11 81.58Q129.77 81.24 129.07 81.24L129.07 81.24Q128.38 81.24 128.02 81.57Q127.65 81.89 127.54 82.41L127.54 82.41L126.29 82.01Q126.44 81.49 126.79 81.07Q127.13 80.65 127.70 80.39Q128.28 80.13 129.08 80.13L129.08 80.13Q130.33 80.13 131.05 80.76Q131.76 81.40 131.76 82.57L131.76 82.57L131.76 85.21Q131.76 85.60 132.12 85.60L132.12 85.60L132.67 85.60L132.67 86.72L131.67 86.72Q131.21 86.72 130.93 86.48Q130.64 86.25 130.64 85.85L130.64 85.85L130.64 85.81L130.45 85.81Q130.34 86.00 130.14 86.26Q129.93 86.52 129.52 86.71Q129.12 86.90 128.46 86.90ZM128.65 85.79L128.65 85.79Q129.46 85.79 129.95 85.33Q130.45 84.87 130.45 84.07L130.45 84.07L130.45 83.94L128.58 83.94Q128.04 83.94 127.72 84.16Q127.39 84.39 127.39 84.83L127.39 84.83Q127.39 85.27 127.73 85.53Q128.07 85.79 128.65 85.79Z M136.31 86.72L134.97 86.72L134.97 77.62L136.31 77.62L136.31 81.22L136.52 81.22Q136.65 80.97 136.89 80.74Q137.13 80.50 137.52 80.35Q137.92 80.20 138.53 80.20L138.53 80.20Q139.26 80.20 139.83 80.53Q140.39 80.85 140.72 81.45Q141.04 82.04 141.04 82.87L141.04 82.87L141.04 86.72L139.70 86.72L139.70 82.97Q139.70 82.14 139.29 81.75Q138.87 81.35 138.14 81.35L138.14 81.35Q137.31 81.35 136.81 81.89Q136.31 82.44 136.31 83.48L136.31 83.48L136.31 86.72Z M146.97 86.90L146.97 86.90Q146.01 86.90 145.26 86.50Q144.51 86.11 144.08 85.37Q143.65 84.62 143.65 83.61L143.65 83.61L143.65 83.42Q143.65 82.40 144.08 81.67Q144.51 80.93 145.26 80.53Q146.01 80.13 146.97 80.13L146.97 80.13Q147.93 80.13 148.68 80.53Q149.44 80.93 149.87 81.67Q150.30 82.40 150.30 83.42L150.30 83.42L150.30 83.61Q150.30 84.62 149.87 85.37Q149.44 86.11 148.68 86.50Q147.93 86.90 146.97 86.90ZM146.97 85.70L146.97 85.70Q147.85 85.70 148.41 85.14Q148.96 84.57 148.96 83.57L148.96 83.57L148.96 83.45Q148.96 82.45 148.41 81.89Q147.87 81.32 146.97 81.32L146.97 81.32Q146.10 81.32 145.54 81.89Q144.99 82.45 144.99 83.45L144.99 83.45L144.99 83.57Q144.99 84.57 145.54 85.14Q146.10 85.70 146.97 85.70Z M154.95 86.90L154.95 86.90Q154.26 86.90 153.72 86.67Q153.18 86.43 152.86 85.98Q152.54 85.52 152.54 84.87L152.54 84.87Q152.54 84.21 152.86 83.77Q153.18 83.34 153.73 83.12Q154.29 82.90 154.99 82.90L154.99 82.90L156.94 82.90L156.94 82.48Q156.94 81.92 156.60 81.58Q156.26 81.24 155.56 81.24L155.56 81.24Q154.87 81.24 154.51 81.57Q154.14 81.89 154.03 82.41L154.03 82.41L152.78 82.01Q152.93 81.49 153.28 81.07Q153.62 80.65 154.20 80.39Q154.77 80.13 155.57 80.13L155.57 80.13Q156.82 80.13 157.54 80.76Q158.25 81.40 158.25 82.57L158.25 82.57L158.25 85.21Q158.25 85.60 158.62 85.60L158.62 85.60L159.16 85.60L159.16 86.72L158.16 86.72Q157.71 86.72 157.42 86.48Q157.13 86.25 157.13 85.85L157.13 85.85L157.13 85.81L156.94 85.81Q156.83 86.00 156.63 86.26Q156.42 86.52 156.02 86.71Q155.61 86.90 154.95 86.90ZM155.14 85.79L155.14 85.79Q155.95 85.79 156.44 85.33Q156.94 84.87 156.94 84.07L156.94 84.07L156.94 83.94L155.07 83.94Q154.53 83.94 154.21 84.16Q153.88 84.39 153.88 84.83L153.88 84.83Q153.88 85.27 154.22 85.53Q154.56 85.79 155.14 85.79Z M162.80 86.72L161.46 86.72L161.46 80.31L162.77 80.31L162.77 81.06L162.98 81.06Q163.16 80.72 163.57 80.46Q163.97 80.20 164.66 80.20L164.66 80.20Q165.37 80.20 165.81 80.50Q166.25 80.79 166.47 81.24L166.47 81.24L166.67 81.24Q166.90 80.80 167.32 80.50Q167.74 80.20 168.52 80.20L168.52 80.20Q169.14 80.20 169.63 80.46Q170.11 80.71 170.39 81.21Q170.68 81.71 170.68 82.45L170.68 82.45L170.68 86.72L169.34 86.72L169.34 82.56Q169.34 81.97 169.02 81.65Q168.70 81.34 168.12 81.34L168.12 81.34Q167.49 81.34 167.12 81.74Q166.74 82.14 166.74 82.90L166.74 82.90L166.74 86.72L165.40 86.72L165.40 82.56Q165.40 81.97 165.08 81.65Q164.76 81.34 164.18 81.34L164.18 81.34Q163.55 81.34 163.18 81.74Q162.80 82.14 162.80 82.90L162.80 82.90L162.80 86.72Z" fill="#1d1c19" fill-opacity="0.7"></path><circle cx="139.0" cy="309.3" r="7.5" fill="#fff"></circle><circle cx="139.0" cy="309.3" r="7.5" fill="none" stroke="#2f6f9e" stroke-width="2"></circle><circle cx="139.0" cy="309.3" r="3.6" fill="#2f6f9e"></circle><svg x="25.43" y="163.00" width="175.14" height="90.00" viewBox="0 0 360 185" overflow="visible"><g fill="#1d1c19"><g transform="translate(64.98,0)"><path d="M22.88 133.59 L22.88 133.59 Q21.33 133.16 20.38 132.82 L20.38 132.82 L19.44 132.56 Q19.61 132.13 19.31 131.78 Q19.01 131.44 18.06 131.35 L18.06 131.35 Q16.77 130.49 15.39 128.95 Q14.02 127.40 12.99 125.76 Q11.95 124.13 11.61 123.36 L11.61 123.36 Q11.18 122.32 11.44 121.98 L11.44 121.98 Q11.52 121.81 11.70 121.72 L11.70 121.72 Q12.38 121.46 13.33 121.03 L13.33 121.03 Q14.28 120.35 15.35 120.00 Q16.43 119.66 17.11 121.12 L17.11 121.12 Q18.23 123.10 20.60 124.47 Q22.96 125.85 26.02 126.11 Q29.07 126.37 32.16 125.08 L32.16 125.08 Q34.23 124.13 34.40 122.45 Q34.57 120.78 33.11 118.54 L33.11 118.54 Q32.85 117.85 32.38 117.42 Q31.91 116.99 31.00 116.30 Q30.10 115.62 28.47 114.07 L28.47 114.07 Q27.18 113.47 26.10 112.95 Q25.03 112.43 23.82 111.83 L23.82 111.83 Q22.45 111.14 20.73 109.90 Q19.01 108.65 17.54 107.14 Q16.08 105.64 15.31 104.26 L15.31 104.26 Q13.93 102.97 13.59 100.69 Q13.24 98.42 13.72 95.84 Q14.19 93.26 15.31 91.19 L15.31 91.19 Q15.82 89.99 17.20 88.05 Q18.58 86.12 20.30 84.05 Q22.02 81.99 23.61 80.31 Q25.20 78.64 26.14 78.03 L26.14 78.03 Q26.83 77.35 27.61 76.57 L27.61 76.57 L28.38 75.88 Q28.47 75.45 28.72 75.45 L28.72 75.45 L28.90 75.45 Q29.33 75.20 30.79 74.59 Q32.25 73.99 33.97 72.36 L33.97 72.36 Q39.73 69.61 43.77 68.62 Q47.82 67.63 50.14 67.63 L50.14 67.63 Q52.29 67.71 54.35 68.79 Q56.42 69.86 57.92 71.50 Q59.43 73.13 59.68 75.20 L59.68 75.20 Q60.29 77.26 59.13 80.14 Q57.96 83.02 55.94 85.56 Q53.92 88.10 51.77 89.30 L51.77 89.30 Q49.36 90.33 47.69 89.56 Q46.01 88.78 46.10 87.15 L46.10 87.15 Q46.10 86.46 46.57 85.52 Q47.04 84.57 49.19 82.16 L49.19 82.16 Q51.94 78.12 52.12 76.40 Q52.29 74.68 50.57 74.42 L50.57 74.42 Q50.05 74.25 48.59 74.51 Q47.13 74.77 45.45 75.15 Q43.77 75.54 42.53 75.97 Q41.28 76.40 41.28 76.57 L41.28 76.57 L41.28 76.83 Q41.28 76.92 41.19 77.00 L41.19 77.00 Q41.19 77.09 40.94 77.00 L40.94 77.00 Q40.76 77.00 39.78 77.56 Q38.79 78.12 37.41 78.98 Q36.03 79.84 34.70 80.74 Q33.37 81.65 32.42 82.33 Q31.48 83.02 31.39 83.19 L31.39 83.19 Q31.22 84.14 29.41 84.91 L29.41 84.91 Q27.69 85.95 26.40 87.84 Q25.11 89.73 23.39 92.65 L23.39 92.65 Q21.93 94.63 21.33 96.91 Q20.73 99.19 21.33 100.57 L21.33 100.57 Q21.76 101.94 23.69 103.28 Q25.63 104.61 28.98 106.59 L28.98 106.59 Q31.91 108.22 34.49 110.03 Q37.07 111.83 38.87 113.51 Q40.68 115.19 41.19 116.30 L41.19 116.30 Q42.23 117.77 42.44 119.66 Q42.66 121.55 42.44 123.31 Q42.23 125.08 41.88 126.19 L41.88 126.19 Q41.28 127.57 40.03 129.12 Q38.79 130.67 37.75 130.58 L37.75 130.58 Q36.81 130.84 36.34 131.18 Q35.86 131.53 35.26 131.78 L35.26 131.78 Q34.66 132.13 32.42 132.60 Q30.19 133.07 27.52 133.38 Q24.85 133.68 22.88 133.59 Z M67.77 126.28 L67.77 126.28 Q65.19 127.74 62.31 127.96 Q59.43 128.17 56.93 127.18 Q54.44 126.19 52.89 124.22 L52.89 124.22 Q52.03 123.10 51.26 120.65 Q50.48 118.20 51.00 113.98 L51.00 113.98 Q51.51 110.03 53.45 105.98 Q55.38 101.94 58.22 98.85 Q61.06 95.75 64.41 94.63 L64.41 94.63 Q65.62 94.20 66.86 93.99 Q68.11 93.77 70.18 93.94 L70.18 93.94 Q72.15 94.20 73.70 94.93 Q75.25 95.66 75.94 96.52 L75.94 96.52 Q77.31 97.90 77.74 99.19 Q78.17 100.48 78.09 101.68 L78.09 101.68 Q77.66 104.44 75.64 107.62 Q73.62 110.80 70.00 112.35 L70.00 112.35 Q68.54 112.95 66.56 113.12 Q64.59 113.29 61.15 112.61 L61.15 112.61 Q59.08 112.18 58.44 113.04 Q57.79 113.90 57.88 116.39 L57.88 116.39 Q58.05 117.94 58.61 119.10 Q59.17 120.26 60.72 120.69 L60.72 120.69 Q62.69 121.03 63.55 120.73 Q64.41 120.43 65.70 119.83 L65.70 119.83 Q66.39 119.40 67.08 118.88 L67.08 118.88 L68.37 117.85 Q68.97 117.34 69.40 117.08 L69.40 117.08 Q69.83 116.73 70.26 116.65 Q70.69 116.56 71.12 116.56 L71.12 116.56 Q72.07 116.65 72.93 117.59 Q73.79 118.54 74.05 119.40 L74.05 119.40 Q74.05 120.09 73.19 121.33 Q72.33 122.58 70.91 123.92 Q69.49 125.25 67.77 126.28 Z M66.65 107.10 L66.65 107.10 Q67.25 106.84 68.41 105.90 Q69.57 104.95 70.52 103.88 Q71.47 102.80 71.47 102.20 L71.47 102.20 Q71.47 101.25 70.22 100.57 Q68.97 99.88 66.99 100.31 L66.99 100.31 Q66.31 100.48 65.36 101.25 Q64.41 102.03 63.47 103.02 Q62.52 104.01 61.83 104.91 Q61.15 105.81 60.89 106.33 L60.89 106.33 Q61.23 106.76 62.26 107.02 Q63.30 107.27 64.54 107.27 Q65.79 107.27 66.65 107.10 Z M96.49 126.28 L96.49 126.28 Q93.91 127.74 91.03 127.96 Q88.15 128.17 85.66 127.18 Q83.16 126.19 81.61 124.22 L81.61 124.22 Q80.75 123.10 79.98 120.65 Q79.21 118.20 79.72 113.98 L79.72 113.98 Q80.24 110.03 82.17 105.98 Q84.11 101.94 86.95 98.85 Q89.78 95.75 93.14 94.63 L93.14 94.63 Q94.34 94.20 95.59 93.99 Q96.84 93.77 98.90 93.94 L98.90 93.94 Q100.88 94.20 102.43 94.93 Q103.97 95.66 104.66 96.52 L104.66 96.52 Q106.04 97.90 106.47 99.19 Q106.90 100.48 106.81 101.68 L106.81 101.68 Q106.38 104.44 104.36 107.62 Q102.34 110.80 98.73 112.35 L98.73 112.35 Q97.27 112.95 95.29 113.12 Q93.31 113.29 89.87 112.61 L89.87 112.61 Q87.81 112.18 87.16 113.04 Q86.52 113.90 86.60 116.39 L86.60 116.39 Q86.77 117.94 87.33 119.10 Q87.89 120.26 89.44 120.69 L89.44 120.69 Q91.42 121.03 92.28 120.73 Q93.14 120.43 94.43 119.83 L94.43 119.83 Q95.12 119.40 95.80 118.88 L95.80 118.88 L97.09 117.85 Q97.70 117.34 98.13 117.08 L98.13 117.08 Q98.56 116.73 98.99 116.65 Q99.42 116.56 99.85 116.56 L99.85 116.56 Q100.79 116.65 101.65 117.59 Q102.51 118.54 102.77 119.40 L102.77 119.40 Q102.77 120.09 101.91 121.33 Q101.05 122.58 99.63 123.92 Q98.21 125.25 96.49 126.28 Z M95.37 107.10 L95.37 107.10 Q95.98 106.84 97.14 105.90 Q98.30 104.95 99.24 103.88 Q100.19 102.80 100.19 102.20 L100.19 102.20 Q100.19 101.25 98.94 100.57 Q97.70 99.88 95.72 100.31 L95.72 100.31 Q95.03 100.48 94.08 101.25 Q93.14 102.03 92.19 103.02 Q91.25 104.01 90.56 104.91 Q89.87 105.81 89.61 106.33 L89.61 106.33 Q89.96 106.76 90.99 107.02 Q92.02 107.27 93.27 107.27 Q94.51 107.27 95.37 107.10 Z M118.42 145.20 L118.42 145.20 Q116.01 146.15 113.39 144.90 Q110.77 143.65 108.88 140.99 L108.88 140.99 Q108.53 140.47 107.84 139.14 Q107.16 137.80 106.51 136.26 Q105.87 134.71 105.56 133.59 Q105.26 132.47 105.52 132.30 L105.52 132.30 Q105.87 131.35 107.07 131.18 Q108.27 131.01 109.48 131.31 Q110.68 131.61 110.85 132.13 L110.85 132.13 Q111.11 132.73 111.37 133.38 Q111.63 134.02 112.01 134.58 Q112.40 135.14 112.75 135.57 L112.75 135.57 Q113.69 137.03 114.81 137.59 Q115.93 138.15 116.53 137.72 L116.53 137.72 Q117.99 136.60 118.72 135.09 Q119.45 133.59 120.66 129.81 L120.66 129.81 Q121.60 126.62 122.29 124.30 Q122.98 121.98 123.75 120.00 L123.75 120.00 Q124.01 118.97 124.44 118.20 L124.44 118.20 Q124.53 118.02 124.61 117.85 L124.61 117.85 Q123.41 118.71 122.46 119.57 L122.46 119.57 Q121.17 120.78 118.94 121.72 L118.94 121.72 Q118.42 122.32 116.40 122.45 Q114.38 122.58 112.49 121.98 L112.49 121.98 Q111.28 121.29 110.55 120.56 Q109.82 119.83 109.35 118.88 Q108.88 117.94 108.36 116.65 L108.36 116.65 Q107.76 115.36 108.19 112.43 Q108.62 109.51 109.74 106.59 L109.74 106.59 Q110.77 104.44 112.75 101.94 Q114.72 99.45 116.96 97.43 Q119.20 95.41 121.00 94.89 L121.00 94.89 Q121.69 94.55 123.41 94.07 Q125.13 93.60 126.68 94.03 L126.68 94.03 Q128.14 94.20 128.91 94.67 Q129.69 95.15 131.41 96.61 L131.41 96.61 Q132.53 97.73 134.16 99.49 Q135.79 101.25 136.22 102.46 L136.22 102.46 Q136.83 103.75 136.48 105.25 Q136.14 106.76 135.28 107.88 L135.28 107.88 Q134.50 108.99 133.64 110.11 Q132.78 111.23 132.35 113.21 L132.35 113.21 Q131.92 115.79 130.72 119.01 Q129.52 122.24 128.83 124.99 L128.83 124.99 L127.45 130.32 Q125.30 137.63 122.72 140.94 Q120.14 144.25 118.42 145.20 Z M116.62 115.62 L116.62 115.62 Q118.34 115.53 119.58 115.23 Q120.83 114.93 121.95 113.85 Q123.07 112.78 124.53 110.54 L124.53 110.54 Q125.99 108.48 126.59 106.76 Q127.19 105.04 127.02 102.89 L127.02 102.89 Q126.94 101.51 126.25 101.08 Q125.56 100.65 124.44 100.82 L124.44 100.82 Q122.81 101.08 121.52 102.16 Q120.23 103.23 118.51 105.47 L118.51 105.47 Q117.22 107.19 116.36 109.60 L116.36 109.60 Q115.50 112.18 115.63 113.72 Q115.76 115.27 116.62 115.62 Z M143.88 138.41 L143.88 138.41 Q143.36 138.75 141.56 137.59 Q139.75 136.43 138.55 135.05 L138.55 135.05 Q137.94 134.36 137.77 133.59 Q137.60 132.82 137.86 130.67 L137.86 130.67 Q138.20 129.72 138.24 128.86 Q138.29 128.00 138.29 127.66 L138.29 127.66 Q138.29 127.14 138.59 125.25 Q138.89 123.36 139.23 121.25 Q139.58 119.14 139.84 118.02 L139.84 118.02 Q139.84 117.94 139.96 117.42 Q140.09 116.91 140.18 116.65 L140.18 116.65 Q140.35 115.87 140.61 114.76 Q140.87 113.64 141.13 111.75 L141.13 111.75 Q141.81 109.60 142.29 107.49 Q142.76 105.38 142.76 104.61 L142.76 104.61 Q142.76 103.06 143.96 102.37 L143.96 102.37 Q144.05 101.94 144.48 101.04 Q144.91 100.14 145.25 99.53 L145.25 99.53 Q146.97 94.63 148.09 91.71 Q149.21 88.78 150.41 86.63 L150.41 86.63 Q150.93 85.17 151.57 83.62 Q152.22 82.08 152.91 81.22 L152.91 81.22 Q153.51 80.01 155.01 78.25 Q156.52 76.49 158.24 74.85 Q159.96 73.22 160.99 72.44 L160.99 72.44 Q162.88 71.50 164.52 70.90 Q166.15 70.29 167.96 70.29 L167.96 70.29 Q169.59 70.29 170.84 71.03 Q172.09 71.76 174.58 73.99 L174.58 73.99 Q175.44 75.11 175.44 76.14 Q175.44 77.17 175.01 77.86 L175.01 77.86 Q174.41 79.24 173.20 81.26 Q172.00 83.28 170.88 84.87 Q169.76 86.46 169.25 86.55 L169.25 86.55 Q168.22 87.15 167.10 86.89 Q165.98 86.63 165.98 85.34 L165.98 85.34 Q165.98 84.74 166.07 84.23 L166.07 84.23 L166.07 83.71 Q166.32 82.59 166.71 81.73 Q167.10 80.87 167.44 80.27 L167.44 80.27 Q168.13 79.15 167.83 78.12 Q167.53 77.09 165.64 77.26 L165.64 77.26 Q165.38 77.43 164.65 78.08 Q163.92 78.72 163.10 79.54 Q162.28 80.36 161.68 81.09 Q161.08 81.82 161.08 82.08 L161.08 82.08 L160.65 82.94 Q160.13 83.88 159.19 85.00 L159.19 85.00 Q158.58 85.86 158.15 86.63 Q157.72 87.41 157.72 87.84 L157.72 87.84 Q157.72 88.18 157.64 88.44 Q157.55 88.70 157.21 88.70 L157.21 88.70 L156.95 89.56 Q156.61 90.42 155.92 91.62 L155.92 91.62 Q155.57 92.48 155.19 93.21 Q154.80 93.94 154.46 94.29 L154.46 94.29 L154.37 94.46 L154.03 95.41 Q153.60 96.44 153.17 97.47 Q152.74 98.50 152.74 98.67 L152.74 98.67 Q152.74 99.02 153.77 99.02 Q154.80 99.02 156.26 98.72 Q157.72 98.42 159.10 98.07 L159.10 98.07 Q160.30 97.73 160.82 97.73 Q161.34 97.73 162.45 98.07 L162.45 98.07 Q163.14 98.50 163.57 99.58 Q164.00 100.65 164.22 101.73 Q164.43 102.80 164.26 103.32 L164.26 103.32 Q164.17 103.66 162.32 104.26 Q160.48 104.87 158.67 105.21 L158.67 105.21 Q157.12 105.55 155.19 105.94 Q153.25 106.33 151.79 106.72 Q150.33 107.10 150.24 107.45 L150.24 107.45 Q149.90 107.45 149.68 107.88 Q149.47 108.31 149.47 108.65 L149.47 108.65 Q149.47 109.77 149.04 110.46 L149.04 110.46 Q148.87 110.97 148.48 112.56 Q148.09 114.15 147.70 116.00 Q147.32 117.85 147.02 119.44 Q146.72 121.03 146.72 121.55 L146.72 121.55 Q146.20 122.15 146.11 123.06 Q146.03 123.96 146.03 124.65 L146.03 124.65 Q145.68 125.33 145.60 125.89 Q145.51 126.45 145.51 126.80 L145.51 126.80 L145.51 127.14 Q145.51 127.40 145.43 127.66 L145.43 127.66 Q145.34 128.52 145.21 129.94 Q145.08 131.35 145.08 132.73 L145.08 132.73 L144.82 135.22 Q144.74 136.34 144.52 137.16 Q144.31 137.98 143.88 138.41 Z M186.02 127.83 L186.02 127.83 Q185.16 126.97 184.64 125.46 Q184.13 123.96 183.61 121.98 L183.61 121.98 Q183.44 121.29 183.48 120.43 Q183.52 119.57 183.44 119.06 L183.44 119.06 Q183.18 119.66 182.62 120.60 Q182.06 121.55 181.55 121.98 L181.55 121.98 Q181.20 122.32 180.00 123.31 Q178.79 124.30 177.59 124.90 L177.59 124.90 Q174.75 126.71 172.56 126.58 Q170.37 126.45 168.73 124.39 L168.73 124.39 Q167.36 123.27 166.50 121.55 Q165.64 119.83 166.15 117.42 L166.15 117.42 Q166.32 114.41 167.01 111.53 Q167.70 108.65 169.85 103.83 L169.85 103.83 Q171.66 100.31 172.60 98.33 Q173.55 96.35 173.81 96.01 L173.81 96.01 Q175.10 95.58 176.99 96.05 Q178.88 96.52 179.05 97.73 L179.05 97.73 Q179.57 98.59 179.05 100.95 Q178.54 103.32 176.99 106.33 L176.99 106.33 Q175.78 109.25 174.71 112.00 Q173.63 114.76 173.42 116.65 Q173.20 118.54 174.41 118.97 L174.41 118.97 Q175.18 119.40 176.69 118.88 Q178.19 118.37 180.26 115.79 Q182.32 113.21 184.64 107.62 L184.64 107.62 Q185.33 105.90 185.67 104.56 Q186.02 103.23 186.10 101.60 L186.10 101.60 Q185.93 100.57 186.66 99.45 Q187.39 98.33 188.43 97.73 L188.43 97.73 Q188.77 97.30 189.37 96.87 L189.37 96.87 Q189.80 96.61 189.97 96.78 L189.97 96.78 Q190.06 96.78 190.15 96.95 L190.15 96.95 L191.52 96.87 Q191.87 96.78 192.30 97.56 Q192.73 98.33 193.16 98.67 L193.16 98.67 Q194.10 99.45 194.02 102.03 Q193.93 104.61 191.95 109.25 L191.95 109.25 Q190.32 112.78 189.76 114.58 Q189.20 116.39 189.11 118.11 L189.11 118.11 Q189.11 119.66 189.37 120.73 Q189.63 121.81 190.92 122.93 L190.92 122.93 Q191.87 123.53 191.99 124.95 Q192.12 126.37 192.04 127.40 L192.04 127.40 Q191.87 128.17 190.70 128.47 Q189.54 128.77 188.21 128.60 Q186.88 128.43 186.02 127.83 Z M197.80 126.54 L197.80 126.54 Q197.11 125.85 196.81 124.47 Q196.51 123.10 196.60 121.77 Q196.68 120.43 197.03 119.74 L197.03 119.74 Q197.03 119.06 197.24 118.67 Q197.46 118.28 197.37 117.94 L197.37 117.94 Q197.28 117.59 197.54 116.73 Q197.80 115.87 198.06 115.10 L198.06 115.10 Q198.66 113.72 199.43 111.53 Q200.21 109.34 200.98 107.06 Q201.76 104.78 202.27 103.10 Q202.79 101.43 202.87 101.08 L202.87 101.08 Q202.87 100.05 204.25 99.96 L204.25 99.96 Q205.28 99.62 206.74 100.82 Q208.21 102.03 209.07 103.40 L209.07 103.40 Q209.75 104.09 209.58 105.21 Q209.41 106.33 208.46 108.39 L208.46 108.39 Q208.12 109.08 207.65 110.67 Q207.17 112.26 207.00 113.29 L207.00 113.29 Q206.66 113.98 206.18 115.23 Q205.71 116.48 205.37 117.59 L205.37 117.59 Q205.20 118.02 205.02 119.19 Q204.85 120.35 204.59 121.55 Q204.34 122.75 203.91 123.44 L203.91 123.44 Q203.13 126.97 201.20 127.57 Q199.26 128.17 197.80 126.54 Z " fill="#1d1c19"></path><defs><mask id="hm2" maskUnits="userSpaceOnUse"><path d="M0,3 C0,-3 -9,-6 -9,-13 C-9,-19 -2,-20 0,-14 C2,-20 9,-19 9,-13 C9,-6 0,-3 0,3 Z" fill="#fff"></path><path d="M-7.5,-8 q2.5,-3.4 5,0 t5,0 t5,0" fill="none" stroke="#000" stroke-width="2.1" stroke-linecap="round"></path></mask></defs><g transform="translate(210.40,95.23) rotate(12) scale(0.940)"><path d="M0,3 C0,-3 -9,-6 -9,-13 C-9,-19 -2,-20 0,-14 C2,-20 9,-19 9,-13 C9,-6 0,-3 0,3 Z" fill="#d23b34" mask="url(#hm2)"></path></g></g></g></svg><path d="M58.96 304.15L57.52 304.15L57.52 297.06L55.01 297.06L55.01 295.75L61.47 295.75L61.47 297.06L58.96 297.06L58.96 304.15Z M75.01 304.15L69.60 304.15L69.60 295.75L74.95 295.75L74.95 297.06L71.05 297.06L71.05 299.27L74.61 299.27L74.61 300.58L71.05 300.58L71.05 302.84L75.01 302.84L75.01 304.15Z M86.19 304.32L86.19 304.32Q85.30 304.32 84.60 303.93Q83.89 303.54 83.48 302.79Q83.07 302.04 83.07 300.95L83.07 300.95L83.07 298.96Q83.07 297.32 83.98 296.45Q84.89 295.58 86.43 295.58L86.43 295.58Q87.96 295.58 88.79 296.41Q89.62 297.23 89.62 298.62L89.62 298.62L89.62 298.67L88.20 298.67L88.20 298.57Q88.20 298.09 88.01 297.71Q87.82 297.32 87.42 297.10Q87.03 296.88 86.43 296.88L86.43 296.88Q85.54 296.88 85.03 297.43Q84.52 297.97 84.52 298.93L84.52 298.93L84.52 300.97Q84.52 301.92 85.03 302.48Q85.54 303.05 86.45 303.05L86.45 303.05Q87.36 303.05 87.78 302.56Q88.20 302.06 88.20 301.30L88.20 301.30L88.20 301.15L86.08 301.15L86.08 299.93L89.62 299.93L89.62 304.15L88.30 304.15L88.30 303.32L88.09 303.32Q88.00 303.54 87.79 303.77Q87.59 304.01 87.21 304.16Q86.83 304.32 86.19 304.32Z M103.61 304.15L98.20 304.15L98.20 295.75L103.55 295.75L103.55 297.06L99.65 297.06L99.65 299.27L103.22 299.27L103.22 300.58L99.65 300.58L99.65 302.84L103.61 302.84L103.61 304.15Z M113.33 304.15L111.87 304.15L111.87 295.75L115.46 295.75Q116.25 295.75 116.84 296.03Q117.43 296.30 117.76 296.80Q118.09 297.30 118.09 298.00L118.09 298.00L118.09 298.13Q118.09 298.91 117.72 299.38Q117.35 299.84 116.82 300.06L116.82 300.06L116.82 300.25Q117.29 300.28 117.56 300.58Q117.83 300.88 117.83 301.38L117.83 301.38L117.83 304.15L116.39 304.15L116.39 301.58Q116.39 301.28 116.22 301.10Q116.06 300.91 115.70 300.91L115.70 300.91L113.33 300.91L113.33 304.15ZM113.33 297.06L113.33 299.60L115.32 299.60Q115.94 299.60 116.30 299.27Q116.65 298.94 116.65 298.39L116.65 298.39L116.65 298.28Q116.65 297.72 116.30 297.39Q115.95 297.06 115.32 297.06L115.32 297.06L113.33 297.06Z M127.89 304.15L126.46 304.15L126.46 295.75L129.22 295.75L131.20 303.18L131.39 303.18L131.39 295.75L132.82 295.75L132.82 304.15L130.07 304.15L128.09 296.72L127.89 296.72L127.89 304.15Z M144.37 304.32L144.37 304.32Q143.41 304.32 142.67 303.98Q141.93 303.64 141.51 302.99Q141.09 302.34 141.09 301.40L141.09 301.40L141.09 301.09L142.52 301.09L142.52 301.40Q142.52 302.23 143.02 302.64Q143.53 303.05 144.37 303.05L144.37 303.05Q145.22 303.05 145.65 302.70Q146.08 302.35 146.08 301.80L146.08 301.80Q146.08 301.43 145.88 301.19Q145.67 300.96 145.28 300.82Q144.89 300.67 144.34 300.54L144.34 300.54L143.98 300.47Q143.15 300.28 142.55 299.98Q141.94 299.69 141.62 299.22Q141.29 298.75 141.29 298.00L141.29 298.00Q141.29 297.24 141.65 296.70Q142.01 296.16 142.67 295.87Q143.33 295.58 144.22 295.58L144.22 295.58Q145.11 295.58 145.81 295.88Q146.50 296.18 146.90 296.78Q147.31 297.38 147.31 298.28L147.31 298.28L147.31 298.68L145.88 298.68L145.88 298.28Q145.88 297.77 145.67 297.46Q145.47 297.14 145.10 297Q144.73 296.86 144.22 296.86L144.22 296.86Q143.48 296.86 143.09 297.14Q142.71 297.43 142.71 297.96L142.71 297.96Q142.71 298.30 142.88 298.53Q143.06 298.76 143.40 298.91Q143.74 299.06 144.26 299.17L144.26 299.17L144.62 299.26Q145.48 299.45 146.13 299.74Q146.78 300.04 147.14 300.52Q147.51 301.00 147.51 301.76L147.51 301.76Q147.51 302.52 147.12 303.10Q146.73 303.67 146.03 304.00Q145.33 304.32 144.37 304.32Z M161.18 304.15L155.77 304.15L155.77 295.75L161.12 295.75L161.12 297.06L157.22 297.06L157.22 299.27L160.79 299.27L160.79 300.58L157.22 300.58L157.22 302.84L161.18 302.84L161.18 304.15Z M174.85 304.15L169.44 304.15L169.44 295.75L174.79 295.75L174.79 297.06L170.89 297.06L170.89 299.27L174.46 299.27L174.46 300.58L170.89 300.58L170.89 302.84L174.85 302.84L174.85 304.15Z" fill="#2f6f9e"></path></svg>