<svg xmlns="http://www.w3.org/2000/svg" width="1380" height="2040" viewBox="0 0 230 340"><path d="M1646.026,1866.889v-2.045v-5.17l-1.4-3.088l-4.164-3.086l-4.236-4.164l-0.609-2.012l0.609-5.205l0.719-7.252 v-5.098l-0.719-6.281l-1.293-3.088l-2.117-4.057l-2.117-4.127l-4.164-3.088l-3.447-3.088l-4.129-1.076l-2.836-2.117l-2.727-6.176 l-5.564-4.129l-0.684-2.045l-2.836-2.01l-6.246-4.166l-4.164,1.078l-2.729-2.119l-3.518-1.076l-2.047-2.01l-0.682-3.088l0.682-4.164 l-0.682-4.129l-0.717-3.086l-2.119-4.164l-1.4-4.057l-0.609-2.119l-1.436-3.086l-2.801-3.088l-2.047-2.01l-2.117-1.078l-2.117-2.117 l-2.729-0.969l-2.836,0.969l-3.447,1.076l-2.729,1.041l-4.918-1.041l-4.846-4.164l-4.883,2.119l-7.574,3.086l-6.246,2.047 l-6.281,1.041h-3.52l-2.727-1.041l-2.836-2.047l-2.729-4.127l-2.119-4.164l-3.445-3.088l-4.129-1.041l-4.236-2.047l-5.564-1.041 h-6.893l-4.918-0.969h-3.445l-4.129-1.078l-3.553-4.127l-0.611-7.252l-5.564-6.139l-4.918-3.123l-6.893-1.041v4.164l-9.082,2.01 l-11.129,2.119l-7.574,3.086l-4.236-3.086l-6.174,1.041l-9.082,4.057l-10.41,2.117l-7.684,2.047l-7.574,3.086l-9.082,8.293 l1.4,1.041l-2.01,2.047l-1.436-1.076l-1.4,1.076l-9.012,2.01l-2.799-2.01l-2.729-1.076h-3.518l-2.047,4.164l-2.117,1.041h-6.248 l-5.563-1.041l-6.283-1.078l-5.527-3.086l-3.447-3.088l-2.836-4.129l-3.445-5.133l-2.801-7.217l-2.047-4.164l-0.717-6.174 l2.152-7.215l3.412-7.217l0.717-4.164l2.729-4.127l1.4-10.34l2.117-9.262l4.164-7.215l4.129-4.164l6.283-2.012l3.445-3.086 l6.246-8.293l1.4-5.133l2.117-5.205v-4.129l2.047-5.133l1.4-5.207l2.836-2.01l1.328-4.164l0.682-5.098l-2.01-6.281l-0.719-9.262 l-0.717-7.217v-10.338v-5.098v-3.088v-5.205l-0.684-5.133l-1.398-4.129l-3.447-6.246l-7.682-9.262l-4.846-6.174l-0.719-4.164 l-3.447-3.088l-2.117-3.088l-4.846-5.205l-2.729-5.098l-1.4-4.164l-2.117-2.01l-6.965-2.119l-5.564-0.969l-6.893-1.076l-4.236-1.041 l-3.445-3.088l-2.082-1.076l-4.883-0.971l-6.855-1.041h-4.236h-1.328h-11.811l-3.555-1.076l-2.729-2.01l-4.127-2.119l-2.838-4.057 l-2.727-5.205l-1.4-4.164l-1.436-3.086l-4.848-11.381l-2.117-6.174l-2.01-4.129l-0.719-2.045l-4.846-4.129l-2.119-2.047 l-3.445-4.129l-5.564-5.205l-2.117-2.045h-1.4l-2.729-4.129l-0.719-1.076l0.719-2.012l-2.836-4.164l-4.129-5.098l-0.717-1.076 l-7.684-10.303l-6.855-5.205l-4.236-4.057l-3.447-1.041l-1.398-4.164l-2.047-6.176l-0.682-2.117v-0.969l-3.555-7.217h-1.328 l-15.328-10.338h-1.328l-1.4-1.041h-1.436l-0.682-2.047l-2.047-1.041l0.717-1.076h3.447l0.682-0.969l-2.799-1.041l-0.719-1.078 l1.4-1.041l2.836-3.086l4.164-4.057l4.846-3.195l2.801-3.088l1.328-3.088l2.117-4.127l0.719-4.057l2.01-2.119l-1.328-1.076 l-2.801-0.969l-0.717-10.303l-0.719-2.119l-0.609-2.045l0.609-4.129l0.719-5.133l3.518-5.205l0.719-7.217h0.609v-2.045h2.119v-3.088 v-4.129l-1.4-2.117h-0.719l1.4-7.252h1.436l1.4-6.139l-1.4-2.047l4.129-7.215l3.553-6.174l2.729-3.195l5.529-10.303l-1.4-0.969 l2.117-3.088l1.438-6.283l1.291-22.65v-8.293l-0.609-3.088v-1.076v-0.969l-0.682-1.041v-2.047l-0.719-1.041l1.4-2.117v-2.047 l-2.119-4.129h2.119l2.729-2.045v-6.176h1.436l-0.719-5.205l-0.717-5.098l-1.4-6.281l-0.719-2.012v-6.174l-1.291-4.164l-2.836-4.129 l-2.047-3.086v-4.164v-6.176l1.328-3.086v-3.088l-5.564-6.246l-6.246-8.186l-9.693-10.338l-4.846-4.129l-1.436-4.164l-27.068-35.109 h-2.045l-3.518-5.205l-3.447-5.098l-4.129-3.086l-0.717-3.088l-3.518-5.205l-4.848-7.252l-4.164-7.215l-2.799-5.133l-2.047-6.176 l-1.4-6.246l-2.729-6.174l-5.564-9.262l-11.127-12.422l-5.529-6.174l-4.236-8.293l-3.445-8.221l-0.719-5.205v-14.467v-9.262 l-4.127-8.293l-4.848-6.174l-5.564-4.129l-7.682-9.262l-1.4-4.164l-6.281-5.205l-4.848-4.057l-7.574-11.379l-0.717-6.176 l-4.848-6.246l-4.918-2.045l-10.41-10.305l-5.564-5.205l-3.445-2.045l-3.447-2.119l-4.234-0.934l-3.447-1.076l-2.801-2.047h-3.445 l-1.4-1.041l1.4-5.205v-2.01l-2.729-4.164l-2.117-6.174l-3.447-6.176l-2.836-5.205l-0.682-6.174l-0.719-9.334l-1.328-9.262v-5.133 l1.328-7.217l1.4-1.076v-5.205l-1.4-9.262l-5.564-16.479l-5.563-8.291l-6.857-6.176l-9.801-7.25h-1.328l-11.092-3.088l-5.564-1.041 h-1.4h-0.717l-0.719-1.076l-1.4-0.971l-1.328-1.041l0.611-2.117l0.717-7.217l-2.047-6.174l-0.682-13.426l-4.236-5.205l-3.445-7.215 l-4.129-9.262l-1.436-21.719l-1.4-6.176l-0.717-8.291l-2.012-6.176l-1.436-3.086l-4.129-6.176l-1.398-4.127l-2.119-1.078 l-1.328-3.086l0.682-5.207l-1.398-6.174l-0.684-3.088l-3.445-3.086l-2.836-1.041l-2.119-2.047l-4.846-4.129l-6.281-5.205 l-14.539-12.348l-4.129-6.176l-6.965-13.498l-2.764-8.184l-2.799-12.457l-4.164-7.215l-5.564-4.164l-4.129-6.176l-1.4-3.086 l8.975-3.088l4.164-3.088l-0.646-1.041l-4.199,1.041l-9.729,4.164l-4.129-5.205l-6.281-8.293l-5.529-6.174l-2.117-5.133 l-2.047-8.293l-2.799-13.391l-1.438-7.252l-3.445-6.246l-6.246-6.174l-9.693-8.293l-3.445-5.098l-4.955-14.467l-1.328-8.293v-18.523 l-1.4-9.369l-2.799-11.379l-0.719-7.217l0.719-6.174l2.082-3.088l4.881-6.174l9.084-7.252l4.127-6.246l3.447-6.174l4.127-5.133 l2.836-9.334l1.4-5.133l0.719-4.129l1.328-4.164l4.236-11.344l0.609-3.088l1.4-3.088l2.117-8.291l0.719-4.164v-4.129l-0.719-5.133 l-0.682-2.012l-1.436-2.117l-1.4-2.047v-4.129l2.119-2.117l0.717-2.047l-2.117-7.215h-0.719l-2.729-3.088l-1.398-1.076l-1.438-9.262 l1.438-6.246l3.518-6.174l-0.719-16.514l0.719-4.129v-3.088l-0.719-4.164l-3.518-6.174l-2.047-2.117l-1.4-2.012l-2.836,1.041 l-2.01,0.971l-0.717-0.971v-1.041l2.117-1.076h2.047l1.398-2.01l2.729-2.119l2.119-2.045l1.4-1.041v-3.088l1.436-6.174l2.01-5.207 l1.436-4.127v-7.252v-4.057l-1.436-13.498l-0.682-8.184v-5.207l-1.328-3.086l-1.436-8.293l-2.082-4.164l-3.447-11.379l-2.836-10.304 l-0.719-5.134l-2.01-3.087l-3.518-4.128l-0.646-4.164l-4.199-6.175l-2.047-3.087l-0.719-4.129V0h-4.846h-7.682l-3.41,3.087 l1.328,6.175l-0.719,6.282l-4.846,14.467l-3.447,4.057l-4.164,3.159l-3.518,4.057l-2.729,3.088l-4.846,3.193l-5.564-2.117 l-4.846-2.047l-5.564-1.041h-9.082l-7.574,1.041l-9.082,2.047l-9.012,4.129l-9.082,3.086h-5.564l-4.846-3.086l-4.129,1.076 l-4.883,2.01l-4.127,4.164l-0.719,1.041l-6.963,3.088l-2.729,1.076l-6.246,2.012l-7.684,3.086l-4.164-1.041l-6.246-0.969 l-6.281,0.969l-3.412,2.119l-6.281,3.086l-6.246,4.129l-1.436,3.088l-6.965,5.205l-3.41,4.057l-7.682,6.281v2.012l-2.047,6.174 l-2.117,7.252l-0.684,4.127l-4.164,8.293l-2.836,9.262l-2.729,7.217l-3.445,5.205l-2.801,3.086l-2.117,2.047h-0.611l-6.281,1.041 l-9.801,1.076h-8.256l-7.684,3.088l-4.846,1.041l-2.045-1.041l-3.52-1.076l-3.445,1.076h-2.119l-2.727,2.01l-6.965,5.205 l-7.682,5.207l-6.248,3.086l-11.127,3.088l-6.893,8.221l-10.482,6.246l-4.129,3.088l-10.41,4.164l-9.01,4.127l-2.836,6.176v4.164 l-1.4,6.174l-2.012,4.129l-4.164,2.045l-4.234,3.088l-6.248,1.041l-3.445,4.164l-4.846,6.176l-1.436,5.205l-1.4,6.174l-2.012,7.215 l-3.553,15.51l-1.293,4.055l-2.154,3.195l-8.256,11.273l-2.836,5.205l-8.293,11.379v6.174l-2.836,4.164l-2.117,7.217l-3.447,6.174 l-1.4,4.164l0.719,3.088l1.4,8.293l2.117,7.215l2.047,12.35v15.543l5.527,4.129l1.438,4.164l-1.438,5.098l-1.398,3.088l-4.848,1.076 l-2.01,4.129l3.41,5.098l0.719,6.281l4.127,7.215l4.166,6.176l2.836,8.293l1.398,8.221v5.205l1.328,5.098l-1.328,3.193l-0.717,6.176 l0.717,4.127l1.328,5.135l-0.609,4.129l-3.555,4.164l-6.246,6.174l-5.564,5.205l-4.164,6.174l-1.4,3.088l0.719,7.215l2.117,5.205 l4.848,5.135l2.729,5.205l5.564,13.391l2.836,6.174l6.246,4.129l1.398,4.164l-11.811,15.436l-8.363,14.467l-4.883,7.217l0.719,9.369 v4.127l4.846,13.426l1.436,7.217l0.684,8.221l2.727,3.158l7.002,8.221l4.846,5.205l6.965,5.098l2.01,7.252l4.236,11.379l2.045,5.17 l3.52,7.252l3.445,12.35l2.117,8.291l-0.717,5.098l2.045,9.369l0.684,8.186l-1.293,10.338l-2.154,7.217l0.719,4.164l6.281,9.334 l4.129,6.174l2.729,8.221l4.953,5.205l2.012,8.293l4.881,6.174l1.4,7.217v5.133l-4.846,15.508l-3.447,5.205l-2.117,3.088h-9.01 l-2.801,7.215l-5.564,4.057l-8.293,3.195L387.325,850l-2.047,6.174l-0.682,4.164l2.01,10.303l2.119,5.205l3.445,4.164l4.848,3.088 l2.799,1.041l11.848-1.041l4.846,2.01l11.092-0.969l4.883,0.969l3.41,4.164l3.555,2.119h5.527l11.848-3.195l8.291-0.969l7.646,0.969 l8.293,2.117l5.564,4.164l4.953,4.057l7.574,7.217l3.52,3.193l8.291-1.076l7.684,2.047l4.846,2.117l4.846,0.969h5.564l2.729,3.088 l7,2.117h4.811h5.564l2.836,1.041l4.846,2.047l3.447,3.088l1.4,4.127v3.088l-0.684,5.205l1.4,4.057l6.246,2.119l0.719,2.045 l0.717,2.119l-0.717,0.969l-1.4,1.041l-5.564,3.088l-2.117,15.508l5.564,5.133l1.398,6.246v6.174l-2.117,5.135l-2.01,5.205 l-3.555,4.129l-5.564,2.045l-5.527,4.129l-6.176,8.293l-7.682,7.25v3.088l-0.719,4.129l1.438,5.133l-0.719,8.293l3.447,7.215 l4.234,8.221l7.576,8.293l3.518,1.041l3.445,0.969h2.729l5.564,1.078l4.236-1.078l2.01-3.086l3.555-0.971l6.246,2.047l5.564,3.088 l6.174,3.086l4.953,3.088l4.129,7.215l2.047,5.205l-2.764,5.135l-2.119,5.205l0.719,7.215l-3.447,8.186l-1.4,8.293l-0.717,7.25 l0.717,5.205l2.836,5.098l2.012,4.164l4.846,5.098l1.4,2.119l0.717,3.086l-1.398,2.047h-6.965l-4.164,3.088l-5.564,6.246l-1.4,6.174 l-0.609,5.135l-2.119,5.205l-4.846,6.174l-7.682,2.117l-9.693,2.012l-0.717-2.012l-10.412,9.262l-4.846,5.207l0.719,7.143 l-6.283,2.119l-2.799,3.086l-0.719,7.217l1.436,7.25l3.518,7.217l3.447,5.133l4.129,6.246l4.127,4.057l2.836,1.076h2.729v-3.086 v-4.164h1.436v5.205l-0.717,2.045h2.836v3.088h1.4l0.609-7.252l2.836,1.078l-0.719,1.041l-1.398-1.041l-0.719,6.174h6.246 l1.436-3.088l-2.729-1.076v-0.969l3.447,0.969l0.682-0.969l4.846,2.045l-0.682,2.012h4.129l4.236,3.158l9.01,7.252l2.117,4.057 l2.729,3.086l4.848,1.041l4.234,5.207l6.176,5.133l7.682,6.174l6.246,5.205l-0.717,2.012h-2.119v1.076v1.041l2.119,2.047 l-3.41,8.291l0.682,7.217l5.564,3.086l4.164,4.166l1.4,5.096l2.01,3.088l4.846,5.205l7,4.164l2.801,7.217l4.164,4.057l14.539,6.281 l11.811,5.098l6.281,2.117l13.211,10.34l6.893,5.098l7.682,2.117l5.529,4.057l6.281,6.246l2.729,5.135l1.4,8.291l6.281,8.186 l3.447,4.164l4.846,2.117l6.246,5.098l9.801,10.34l4.846,7.215l3.447,7.252l4.846,5.205l4.846,3.088l4.955,4.057l4.127,2.117h6.283 l6.246-1.076l4.846-1.041l3.447-3.088l4.846-2.047l4.164-1.041l4.236,3.088l4.129,3.088l3.445,3.158l3.518,5.133l4.848,4.129 l4.164,4.164l3.445,4.057l4.236,7.215l2.01,3.195l5.564,2.012l4.846,1.076h5.564h2.836l3.41-1.076l4.848,3.086l4.953,2.047 l-4.236,5.205v7.215l0.719,14.467l0.682,5.135l0.719,7.215l0.717,3.088v2.117l-8.4,4.129l-2.01,3.088l-1.4,5.133l-4.881,4.129 l-1.4,4.164v4.127v5.135l1.4,3.086l1.436,5.205l1.293,4.129v3.088l-2.729,4.057l-3.52,3.195l-1.328,2.01l-0.682,4.164v5.098v7.252 l-4.164,7.215l-2.117,5.205l-1.4,7.252l-0.719,8.184l-2.01,2.119l-6.965,7.143l-2.836,5.205l-2.729,3.088l-6.963,9.262l-2.047,7.252 l-4.236,9.334l-2.01,5.133v5.205l4.846,4.021l-3.553,4.164l-1.293,7.215l2.729,6.174l1.4,7.252l0.717,5.205l-1.4,4.129l-2.764,4.057 l-4.236,3.195l-0.682,3.086l0.682,9.262l4.236,4.129l3.447,5.133l2.117,5.205l2.047,6.176l2.117,4.127l-2.836,4.166l-6.893,6.174 l-1.4,4.129l-4.164,7.25v5.098l2.047,4.164l2.117,4.129l0.719,5.133l-4.236,4.129l-11.738,1.076l-9.082-1.076l-8.293-2.01 l-6.965-3.195l-6.281-2.01l-5.529-1.078h-9.01h-4.236l-6.174,4.164l-4.236,3.088l-3.445,4.129l-0.684,7.25h-9.01l-7.682,1.041 l-19.494,9.264l-4.127,6.174l-0.719,9.334l0.719,11.307l2.799,2.119l-2.117,6.174l2.117,3.088l4.164,7.215l4.848,5.133l4.164,5.207 l-0.719,6.174l5.564,6.174l6.965,3.088l7.646,8.293l2.764,6.174l2.801,3.088l4.164,4.127l0.682,4.164l6.281,7.217l2.119,6.174 l2.01,6.174l2.117,4.166l2.766,4.127l5.527,4.164l6.283,2.012l6.963,3.086l5.564,4.164l5.529,3.088l9.01,3.088l7.682,3.086 l6.965,2.119l4.846,0.969l4.164-2.047l2.801-2.01l2.729-6.281l-1.4-3.088l0.719-7.215l0.682-2.047l2.836-2.01l4.129-3.195 l2.045-2.01l-2.729-2.047l-3.445-3.088v-8.293l3.445-5.205l2.729-4.057v-5.205l-4.164-3.086l-2.729-6.176l-3.518-3.086l-3.445-3.088 l-2.836-3.158h-2.729l-2.801-2.047l-2.729-9.262l-2.117-6.174l-0.719-4.129l-0.609-3.088l-4.236-2.117l-2.047-2.047l-1.398-2.117 l0.717-6.176l1.4-6.174l3.445-3.088l4.129-2.01h3.518h2.766l7.645-4.164l6.283-3.088l2.729-3.086l2.836-3.16l6.174-0.969 l5.529,6.174l2.836,2.047l3.445,3.051l6.965,2.119l4.129,1.076h3.553h1.328l2.119,2.01l6.246,2.047h4.127l4.166,1.041l4.234,1.076 l2.729,0.971l4.236,1.041l4.846,1.076l2.047-1.076l0.682-3.088h1.436l2.729,1.076l11.811-1.076l9.082-3.088h5.564l4.848-2.01 l4.846-2.117l4.164-3.088l5.527-4.164l5.564-3.088l8.4-2.01l4.129,0.969h7.682h11.094h4.881h8.975l5.564-0.969h4.164l5.529-3.088 l4.846,0.971l7.682-3.088h3.447h3.518h5.564l8.293-0.969l9.082-2.119l6.963-2.01l6.176-3.088l5.564-4.164l6.246-5.205l2.836-3.088 l0.717-6.174l2.012-5.205l1.436-4.057l2.082-3.088l2.047-6.246l2.117-7.25l0.719-0.971l6.963-2.117h4.129l1.4,4.164l5.564,4.129 h8.291l4.166,1.076h4.234h6.857l6.281-2.117l5.529-2.047l2.836-2.117l3.445-2.012l2.836-1.076l4.129-2.01l2.047-2.047l1.4-4.129 l3.518-7.252l2.045-5.205l2.801-2.01l6.283-2.047l4.846-1.041l4.129,2.012l4.164,3.086l3.518,4.164l2.729,10.305l0.717,6.174 l4.129,3.088l3.555,2.117l10.41,2.047h6.965h7.574l5.564,1.041h5.563l6.965-1.041l2.119-0.971h4.846l7.574-1.076l7.682-2.117 l4.848-0.971l6.963-1.041h5.564h3.447h3.518l2.729,1.041l3.445,0.971l2.836,1.076l2.119,2.117l1.328,2.012h-0.719l0.719,4.164h1.4 v0.969v1.041h-0.719l0.719,5.205h-0.719l1.4,5.133l1.436,6.176l0.682,6.246l1.328,5.133l2.119,5.205v0.969l0.717,5.207l2.012,4.127 v0.971l1.436,6.246l0.682,6.174h-2.117l3.553,12.35l2.01-2.012l3.52,4.129l2.764,3.088l3.518,2.045h2.729l5.564,1.041l9.082-2.117 l6.246-4.057l4.846-3.158l11.848-9.262l6.855-3.088l5.564-2.047l5.564-1.041h6.965l6.281,2.047h6.246h4.848l6.281,2.082l6.965,2.047 l4.129,3.086l9.01,3.088l5.527,2.117l4.883,2.012l4.846-1.041h6.246h4.236l4.164,2.117l11.094,5.098l10.41,3.088l4.846,1.076 l3.555,2.117l1.293-1.076l6.281,2.047l2.836,1.041l2.729,1.076l4.129,5.098h4.953l2.01,1.078h2.119h2.045l0.684-1.078v-1.041h0.717 h0.719h0.682l0.719,1.041l2.045,3.088l2.801,4.164l2.729,4.129l2.836,3.086l0.682,1.078l2.047-1.078l7.682-2.01l2.836-2.117 l2.729-2.047l4.129-5.205l4.846-6.176l3.518-5.098l2.764-6.281l0.682-6.174l2.838-1.041v3.158l0.717,5.133l-0.717,6.176h2.045h1.4 v-2.047h2.117l3.447,1.076l1.4,2.012l4.846-1.041l2.729-2.047l3.518-1.041h5.564h2.729l3.553-3.088l2.012-3.086l2.117-3.088 l2.729-2.117l0.719-0.971l2.117-3.086l0.719-2.119v-2.045l1.398-5.17L1646.026,1866.889z M898.624,1782.205h-3.555l-3.41-0.969 l-4.164-3.088h-4.918l-6.174-1.041l-6.283-1.076l-3.518-0.971l-4.846-4.127l-2.047-3.088l0.611-8.293l-0.611-3.086v-6.176 l2.729-3.086l6.283,0.969l3.445,2.117l7.682,5.098l6.246,3.088l6.248,4.164l4.881,4.129l4.848,6.174l2.117,4.164L898.624,1782.205z" fill="none" stroke="#a9842b" stroke-opacity="0.32" stroke-width="12.00" stroke-linejoin="round" stroke-linecap="round" transform="translate(115 180) rotate(0) scale(0.15000) translate(-844.95 -1000.01)"></path><path d="M30.33 69.52L30.33 69.52Q27.74 69.52 25.75 68.59Q23.77 67.66 22.65 65.94Q21.53 64.21 21.53 61.78L21.53 61.78L21.53 60.88L25.69 60.88L25.69 61.78Q25.69 63.79 26.94 64.80Q28.18 65.81 30.33 65.81L30.33 65.81Q32.50 65.81 33.58 64.94Q34.65 64.08 34.65 62.74L34.65 62.74Q34.65 61.81 34.12 61.23Q33.59 60.66 32.58 60.29Q31.58 59.92 30.14 59.60L30.14 59.60L29.40 59.44Q27.10 58.93 25.45 58.14Q23.80 57.36 22.92 56.08Q22.04 54.80 22.04 52.75L22.04 52.75Q22.04 50.70 23.02 49.25Q23.99 47.79 25.77 47.01Q27.54 46.22 29.94 46.22L29.94 46.22Q32.34 46.22 34.22 47.04Q36.09 47.86 37.16 49.47Q38.23 51.09 38.23 53.52L38.23 53.52L38.23 54.48L34.07 54.48L34.07 53.52Q34.07 52.24 33.58 51.46Q33.08 50.67 32.15 50.30Q31.22 49.94 29.94 49.94L29.94 49.94Q28.02 49.94 27.11 50.66Q26.20 51.38 26.20 52.62L26.20 52.62Q26.20 53.46 26.63 54.03Q27.06 54.61 27.93 54.99Q28.79 55.38 30.14 55.66L30.14 55.66L30.87 55.82Q33.27 56.34 35.05 57.14Q36.82 57.94 37.82 59.25Q38.81 60.56 38.81 62.61L38.81 62.61Q38.81 64.66 37.77 66.21Q36.73 67.76 34.82 68.64Q32.92 69.52 30.33 69.52Z M47.00 69.52L47.00 69.52Q45.30 69.52 43.96 68.93Q42.62 68.34 41.83 67.20Q41.05 66.06 41.05 64.43L41.05 64.43Q41.05 62.80 41.83 61.70Q42.62 60.59 44.01 60.03Q45.40 59.47 47.19 59.47L47.19 59.47L51.54 59.47L51.54 58.58Q51.54 57.46 50.84 56.74Q50.14 56.02 48.60 56.02L48.60 56.02Q47.10 56.02 46.36 56.70Q45.62 57.39 45.40 58.48L45.40 58.48L41.69 57.23Q42.07 56.02 42.92 55.01Q43.77 54 45.19 53.38Q46.62 52.75 48.66 52.75L48.66 52.75Q51.80 52.75 53.62 54.32Q55.45 55.89 55.45 58.86L55.45 58.86L55.45 64.78Q55.45 65.74 56.34 65.74L56.34 65.74L57.62 65.74L57.62 69.07L54.94 69.07Q53.75 69.07 52.98 68.50Q52.22 67.92 52.22 66.96L52.22 66.96L52.22 66.93L51.61 66.93Q51.48 67.31 51.03 67.94Q50.58 68.56 49.62 69.04Q48.66 69.52 47.00 69.52ZM47.70 66.26L47.70 66.26Q49.40 66.26 50.47 65.31Q51.54 64.37 51.54 62.80L51.54 62.80L51.54 62.48L47.48 62.48Q46.36 62.48 45.72 62.96Q45.08 63.44 45.08 64.30L45.08 64.30Q45.08 65.17 45.75 65.71Q46.42 66.26 47.70 66.26Z M64.60 69.07L60.57 69.07L60.57 53.20L64.54 53.20L64.54 55.28L65.11 55.28Q65.50 54.45 66.55 53.70Q67.61 52.94 69.75 52.94L69.75 52.94Q71.61 52.94 73 53.79Q74.39 54.64 75.16 56.13Q75.93 57.62 75.93 59.60L75.93 59.60L75.93 69.07L71.90 69.07L71.90 59.92Q71.90 58.13 71.02 57.23Q70.14 56.34 68.50 56.34L68.50 56.34Q66.65 56.34 65.62 57.57Q64.60 58.80 64.60 61.01L64.60 61.01L64.60 69.07Z M84.31 69.07L80.28 69.07L80.28 46.67L84.31 46.67L84.31 59.06L84.89 59.06L90.14 53.20L95.38 53.20L88.06 60.88L95.64 69.07L90.46 69.07L84.89 62.77L84.31 62.77L84.31 69.07Z M108.89 69.07L104.41 69.07Q102.84 69.07 101.86 68.10Q100.89 67.12 100.89 65.49L100.89 65.49L100.89 56.53L96.92 56.53L96.92 53.20L100.89 53.20L100.89 48.27L104.92 48.27L104.92 53.20L109.27 53.20L109.27 56.53L104.92 56.53L104.92 64.78Q104.92 65.74 105.82 65.74L105.82 65.74L108.89 65.74L108.89 69.07Z  M129.62 69.52L129.62 69.52Q125.40 69.52 122.90 67.20Q120.41 64.88 120.41 60.56L120.41 60.56L120.41 55.18Q120.41 50.86 122.90 48.54Q125.40 46.22 129.62 46.22L129.62 46.22Q133.85 46.22 136.34 48.54Q138.84 50.86 138.84 55.18L138.84 55.18L138.84 60.56Q138.84 64.88 136.34 67.20Q133.85 69.52 129.62 69.52ZM129.62 65.74L129.62 65.74Q131.99 65.74 133.30 64.37Q134.62 62.99 134.62 60.69L134.62 60.69L134.62 55.06Q134.62 52.75 133.30 51.38Q131.99 50 129.62 50L129.62 50Q127.29 50 125.96 51.38Q124.63 52.75 124.63 55.06L124.63 55.06L124.63 60.69Q124.63 62.99 125.96 64.37Q127.29 65.74 129.62 65.74ZM134.46 74.83L131.10 74.83Q129.53 74.83 128.55 73.86Q127.58 72.88 127.58 71.25L127.58 71.25L127.58 69.07L131.67 69.07L131.67 70.61Q131.67 71.57 132.57 71.57L132.57 71.57L134.46 71.57L134.46 74.83Z M148.73 69.33L148.73 69.33Q146.87 69.33 145.48 68.48Q144.09 67.63 143.32 66.13Q142.55 64.62 142.55 62.67L142.55 62.67L142.55 53.20L146.58 53.20L146.58 62.35Q146.58 64.14 147.46 65.04Q148.34 65.94 149.98 65.94L149.98 65.94Q151.83 65.94 152.86 64.70Q153.88 63.47 153.88 61.26L153.88 61.26L153.88 53.20L157.91 53.20L157.91 69.07L153.94 69.07L153.94 66.99L153.37 66.99Q152.98 67.79 151.93 68.56Q150.87 69.33 148.73 69.33Z M166.42 69.07L162.39 69.07L162.39 53.20L166.42 53.20L166.42 69.07ZM164.41 51.34L164.41 51.34Q163.32 51.34 162.57 50.64Q161.82 49.94 161.82 48.78L161.82 48.78Q161.82 47.63 162.57 46.93Q163.32 46.22 164.41 46.22L164.41 46.22Q165.53 46.22 166.26 46.93Q167 47.63 167 48.78L167 48.78Q167 49.94 166.26 50.64Q165.53 51.34 164.41 51.34Z M174.94 69.07L170.90 69.07L170.90 53.20L174.87 53.20L174.87 54.99L175.45 54.99Q175.80 54.03 176.62 53.58Q177.43 53.14 178.52 53.14L178.52 53.14L180.44 53.14L180.44 56.72L178.46 56.72Q176.92 56.72 175.93 57.54Q174.94 58.35 174.94 60.05L174.94 60.05L174.94 69.07Z M187.61 69.07L183.58 69.07L183.58 53.20L187.61 53.20L187.61 69.07ZM185.59 51.34L185.59 51.34Q184.50 51.34 183.75 50.64Q183.00 49.94 183.00 48.78L183.00 48.78Q183.00 47.63 183.75 46.93Q184.50 46.22 185.59 46.22L185.59 46.22Q186.71 46.22 187.45 46.93Q188.18 47.63 188.18 48.78L188.18 48.78Q188.18 49.94 187.45 50.64Q186.71 51.34 185.59 51.34Z M196.12 69.07L192.09 69.07L192.09 53.20L196.06 53.20L196.06 55.28L196.63 55.28Q197.02 54.45 198.07 53.70Q199.13 52.94 201.27 52.94L201.27 52.94Q203.13 52.94 204.52 53.79Q205.91 54.64 206.68 56.13Q207.45 57.62 207.45 59.60L207.45 59.60L207.45 69.07L203.42 69.07L203.42 59.92Q203.42 58.13 202.54 57.23Q201.66 56.34 200.02 56.34L200.02 56.34Q198.17 56.34 197.14 57.57Q196.12 58.80 196.12 61.01L196.12 61.01L196.12 69.07Z" fill="#1d1c19"></path><path d="M62.03 89.88L62.03 89.88Q61.23 89.88 60.56 89.49Q59.88 89.10 59.47 88.37Q59.06 87.63 59.06 86.59L59.06 86.59L59.06 86.40Q59.06 85.37 59.46 84.63Q59.87 83.89 60.54 83.50Q61.22 83.11 62.03 83.11L62.03 83.11Q62.65 83.11 63.07 83.26Q63.49 83.42 63.77 83.66Q64.04 83.90 64.18 84.16L64.18 84.16L64.39 84.16L64.39 80.60L65.73 80.60L65.73 89.70L64.42 89.70L64.42 88.79L64.21 88.79Q63.96 89.20 63.46 89.54Q62.96 89.88 62.03 89.88ZM62.40 88.71L62.40 88.71Q63.27 88.71 63.84 88.15Q64.40 87.59 64.40 86.55L64.40 86.55L64.40 86.44Q64.40 85.41 63.85 84.85Q63.29 84.29 62.40 84.29L62.40 84.29Q61.54 84.29 60.98 84.85Q60.41 85.41 60.41 86.44L60.41 86.44L60.41 86.55Q60.41 87.59 60.98 88.15Q61.54 88.71 62.40 88.71Z M70.70 89.88L70.70 89.88Q70.01 89.88 69.47 89.65Q68.93 89.41 68.61 88.96Q68.29 88.50 68.29 87.85L68.29 87.85Q68.29 87.19 68.61 86.75Q68.93 86.32 69.48 86.10Q70.03 85.88 70.73 85.88L70.73 85.88L72.68 85.88L72.68 85.46Q72.68 84.90 72.35 84.56Q72.01 84.23 71.31 84.23L71.31 84.23Q70.62 84.23 70.25 84.55Q69.89 84.88 69.77 85.40L69.77 85.40L68.52 84.99Q68.68 84.47 69.02 84.05Q69.37 83.63 69.94 83.37Q70.51 83.11 71.32 83.11L71.32 83.11Q72.57 83.11 73.28 83.74Q74.00 84.38 74.00 85.55L74.00 85.55L74.00 88.19Q74.00 88.58 74.36 88.58L74.36 88.58L74.91 88.58L74.91 89.70L73.91 89.70Q73.45 89.70 73.17 89.46Q72.88 89.23 72.88 88.83L72.88 88.83L72.88 88.79L72.68 88.79Q72.58 88.98 72.37 89.24Q72.16 89.50 71.76 89.69Q71.36 89.88 70.70 89.88ZM70.89 88.78L70.89 88.78Q71.70 88.78 72.19 88.31Q72.68 87.85 72.68 87.05L72.68 87.05L72.68 86.92L70.81 86.92Q70.28 86.92 69.95 87.14Q69.63 87.37 69.63 87.81L69.63 87.81Q69.63 88.26 69.97 88.52Q70.31 88.78 70.89 88.78Z  M85.23 89.88L85.23 89.88Q84.29 89.88 83.79 89.54Q83.29 89.20 83.04 88.79L83.04 88.79L82.84 88.79L82.84 89.70L81.52 89.70L81.52 80.60L82.86 80.60L82.86 84.16L83.07 84.16Q83.23 83.90 83.49 83.66Q83.75 83.42 84.17 83.26Q84.60 83.11 85.23 83.11L85.23 83.11Q86.03 83.11 86.71 83.50Q87.39 83.89 87.79 84.63Q88.19 85.37 88.19 86.40L88.19 86.40L88.19 86.59Q88.19 87.63 87.78 88.37Q87.37 89.10 86.70 89.49Q86.03 89.88 85.23 89.88ZM84.84 88.71L84.84 88.71Q85.71 88.71 86.27 88.15Q86.84 87.59 86.84 86.55L86.84 86.55L86.84 86.44Q86.84 85.41 86.28 84.85Q85.72 84.29 84.84 84.29L84.84 84.29Q83.98 84.29 83.41 84.85Q82.85 85.41 82.85 86.44L82.85 86.44L82.85 86.55Q82.85 87.59 83.41 88.15Q83.98 88.71 84.84 88.71Z M92.19 89.70L90.86 89.70L90.86 83.29L92.19 83.29L92.19 89.70ZM91.53 82.42L91.53 82.42Q91.14 82.42 90.87 82.16Q90.61 81.91 90.61 81.51L90.61 81.51Q90.61 81.11 90.87 80.85Q91.14 80.60 91.53 80.60L91.53 80.60Q91.93 80.60 92.19 80.85Q92.45 81.11 92.45 81.51L92.45 81.51Q92.45 81.91 92.19 82.16Q91.93 82.42 91.53 82.42Z M96.52 89.70L95.18 89.70L95.18 83.29L96.50 83.29L96.50 84.25L96.70 84.25Q96.89 83.86 97.35 83.52Q97.82 83.19 98.75 83.19L98.75 83.19Q99.47 83.19 100.04 83.51Q100.60 83.84 100.93 84.43Q101.25 85.02 101.25 85.85L101.25 85.85L101.25 89.70L99.92 89.70L99.92 85.95Q99.92 85.12 99.50 84.73Q99.08 84.33 98.36 84.33L98.36 84.33Q97.52 84.33 97.02 84.88Q96.52 85.42 96.52 86.46L96.52 86.46L96.52 89.70Z  M109.83 89.70L108.49 89.70L108.49 83.29L109.83 83.29L109.83 89.70ZM109.17 82.42L109.17 82.42Q108.78 82.42 108.51 82.16Q108.25 81.91 108.25 81.51L108.25 81.51Q108.25 81.11 108.51 80.85Q108.78 80.60 109.17 80.60L109.17 80.60Q109.57 80.60 109.83 80.85Q110.09 81.11 110.09 81.51L110.09 81.51Q110.09 81.91 109.83 82.16Q109.57 82.42 109.17 82.42Z  M119.79 89.88L119.79 89.88Q119.00 89.88 118.32 89.49Q117.64 89.10 117.23 88.37Q116.82 87.63 116.82 86.59L116.82 86.59L116.82 86.40Q116.82 85.37 117.23 84.63Q117.63 83.89 118.31 83.50Q118.98 83.11 119.79 83.11L119.79 83.11Q120.41 83.11 120.83 83.26Q121.26 83.42 121.53 83.66Q121.80 83.90 121.95 84.16L121.95 84.16L122.15 84.16L122.15 80.60L123.49 80.60L123.49 89.70L122.18 89.70L122.18 88.79L121.97 88.79Q121.73 89.20 121.22 89.54Q120.72 89.88 119.79 89.88ZM120.17 88.71L120.17 88.71Q121.04 88.71 121.60 88.15Q122.17 87.59 122.17 86.55L122.17 86.55L122.17 86.44Q122.17 85.41 121.61 84.85Q121.05 84.29 120.17 84.29L120.17 84.29Q119.31 84.29 118.74 84.85Q118.18 85.41 118.18 86.44L118.18 86.44L118.18 86.55Q118.18 87.59 118.74 88.15Q119.31 88.71 120.17 88.71Z M128.46 89.88L128.46 89.88Q127.77 89.88 127.23 89.65Q126.69 89.41 126.37 88.96Q126.05 88.50 126.05 87.85L126.05 87.85Q126.05 87.19 126.37 86.75Q126.69 86.32 127.24 86.10Q127.80 85.88 128.50 85.88L128.50 85.88L130.45 85.88L130.45 85.46Q130.45 84.90 130.11 84.56Q129.77 84.23 129.07 84.23L129.07 84.23Q128.38 84.23 128.02 84.55Q127.65 84.88 127.54 85.40L127.54 85.40L126.29 84.99Q126.44 84.47 126.79 84.05Q127.13 83.63 127.70 83.37Q128.28 83.11 129.08 83.11L129.08 83.11Q130.33 83.11 131.05 83.74Q131.76 84.38 131.76 85.55L131.76 85.55L131.76 88.19Q131.76 88.58 132.12 88.58L132.12 88.58L132.67 88.58L132.67 89.70L131.67 89.70Q131.21 89.70 130.93 89.46Q130.64 89.23 130.64 88.83L130.64 88.83L130.64 88.79L130.45 88.79Q130.34 88.98 130.14 89.24Q129.93 89.50 129.52 89.69Q129.12 89.88 128.46 89.88ZM128.65 88.78L128.65 88.78Q129.46 88.78 129.95 88.31Q130.45 87.85 130.45 87.05L130.45 87.05L130.45 86.92L128.58 86.92Q128.04 86.92 127.72 87.14Q127.39 87.37 127.39 87.81L127.39 87.81Q127.39 88.26 127.73 88.52Q128.07 88.78 128.65 88.78Z M136.31 89.70L134.97 89.70L134.97 80.60L136.31 80.60L136.31 84.20L136.52 84.20Q136.65 83.95 136.89 83.72Q137.13 83.48 137.52 83.33Q137.92 83.19 138.53 83.19L138.53 83.19Q139.26 83.19 139.83 83.51Q140.39 83.84 140.72 84.43Q141.04 85.02 141.04 85.85L141.04 85.85L141.04 89.70L139.70 89.70L139.70 85.95Q139.70 85.12 139.29 84.73Q138.87 84.33 138.14 84.33L138.14 84.33Q137.31 84.33 136.81 84.88Q136.31 85.42 136.31 86.46L136.31 86.46L136.31 89.70Z M146.97 89.88L146.97 89.88Q146.01 89.88 145.26 89.48Q144.51 89.09 144.08 88.35Q143.65 87.61 143.65 86.59L143.65 86.59L143.65 86.40Q143.65 85.38 144.08 84.65Q144.51 83.91 145.26 83.51Q146.01 83.11 146.97 83.11L146.97 83.11Q147.93 83.11 148.68 83.51Q149.44 83.91 149.87 84.65Q150.30 85.38 150.30 86.40L150.30 86.40L150.30 86.59Q150.30 87.61 149.87 88.35Q149.44 89.09 148.68 89.48Q147.93 89.88 146.97 89.88ZM146.97 88.68L146.97 88.68Q147.85 88.68 148.41 88.12Q148.96 87.55 148.96 86.55L148.96 86.55L148.96 86.44Q148.96 85.43 148.41 84.87Q147.87 84.30 146.97 84.30L146.97 84.30Q146.10 84.30 145.54 84.87Q144.99 85.43 144.99 86.44L144.99 86.44L144.99 86.55Q144.99 87.55 145.54 88.12Q146.10 88.68 146.97 88.68Z M154.95 89.88L154.95 89.88Q154.26 89.88 153.72 89.65Q153.18 89.41 152.86 88.96Q152.54 88.50 152.54 87.85L152.54 87.85Q152.54 87.19 152.86 86.75Q153.18 86.32 153.73 86.10Q154.29 85.88 154.99 85.88L154.99 85.88L156.94 85.88L156.94 85.46Q156.94 84.90 156.60 84.56Q156.26 84.23 155.56 84.23L155.56 84.23Q154.87 84.23 154.51 84.55Q154.14 84.88 154.03 85.40L154.03 85.40L152.78 84.99Q152.93 84.47 153.28 84.05Q153.62 83.63 154.20 83.37Q154.77 83.11 155.57 83.11L155.57 83.11Q156.82 83.11 157.54 83.74Q158.25 84.38 158.25 85.55L158.25 85.55L158.25 88.19Q158.25 88.58 158.62 88.58L158.62 88.58L159.16 88.58L159.16 89.70L158.16 89.70Q157.71 89.70 157.42 89.46Q157.13 89.23 157.13 88.83L157.13 88.83L157.13 88.79L156.94 88.79Q156.83 88.98 156.63 89.24Q156.42 89.50 156.02 89.69Q155.61 89.88 154.95 89.88ZM155.14 88.78L155.14 88.78Q155.95 88.78 156.44 88.31Q156.94 87.85 156.94 87.05L156.94 87.05L156.94 86.92L155.07 86.92Q154.53 86.92 154.21 87.14Q153.88 87.37 153.88 87.81L153.88 87.81Q153.88 88.26 154.22 88.52Q154.56 88.78 155.14 88.78Z M162.80 89.70L161.46 89.70L161.46 83.29L162.77 83.29L162.77 84.04L162.98 84.04Q163.16 83.71 163.57 83.45Q163.97 83.19 164.66 83.19L164.66 83.19Q165.37 83.19 165.81 83.48Q166.25 83.77 166.47 84.23L166.47 84.23L166.67 84.23Q166.90 83.78 167.32 83.48Q167.74 83.19 168.52 83.19L168.52 83.19Q169.14 83.19 169.63 83.44Q170.11 83.69 170.39 84.19Q170.68 84.69 170.68 85.43L170.68 85.43L170.68 89.70L169.34 89.70L169.34 85.54Q169.34 84.95 169.02 84.63Q168.70 84.32 168.12 84.32L168.12 84.32Q167.49 84.32 167.12 84.72Q166.74 85.12 166.74 85.88L166.74 85.88L166.74 89.70L165.40 89.70L165.40 85.54Q165.40 84.95 165.08 84.63Q164.76 84.32 164.18 84.32L164.18 84.32Q163.55 84.32 163.18 84.72Q162.80 85.12 162.80 85.88L162.80 85.88L162.80 89.70Z" fill="#1d1c19" fill-opacity="0.7"></path><circle cx="115.6" cy="321.3" r="7.5" fill="#fff"></circle><circle cx="115.6" cy="321.3" r="7.5" fill="none" stroke="#a9842b" stroke-width="2"></circle><circle cx="115.6" cy="321.3" r="3.6" fill="#a9842b"></circle><svg x="25.43" y="163.00" width="175.14" height="90.00" viewBox="0 0 360 185" overflow="visible"><g fill="#1d1c19"><g transform="translate(64.98,0)"><path d="M22.88 133.59 L22.88 133.59 Q21.33 133.16 20.38 132.82 L20.38 132.82 L19.44 132.56 Q19.61 132.13 19.31 131.78 Q19.01 131.44 18.06 131.35 L18.06 131.35 Q16.77 130.49 15.39 128.95 Q14.02 127.40 12.99 125.76 Q11.95 124.13 11.61 123.36 L11.61 123.36 Q11.18 122.32 11.44 121.98 L11.44 121.98 Q11.52 121.81 11.70 121.72 L11.70 121.72 Q12.38 121.46 13.33 121.03 L13.33 121.03 Q14.28 120.35 15.35 120.00 Q16.43 119.66 17.11 121.12 L17.11 121.12 Q18.23 123.10 20.60 124.47 Q22.96 125.85 26.02 126.11 Q29.07 126.37 32.16 125.08 L32.16 125.08 Q34.23 124.13 34.40 122.45 Q34.57 120.78 33.11 118.54 L33.11 118.54 Q32.85 117.85 32.38 117.42 Q31.91 116.99 31.00 116.30 Q30.10 115.62 28.47 114.07 L28.47 114.07 Q27.18 113.47 26.10 112.95 Q25.03 112.43 23.82 111.83 L23.82 111.83 Q22.45 111.14 20.73 109.90 Q19.01 108.65 17.54 107.14 Q16.08 105.64 15.31 104.26 L15.31 104.26 Q13.93 102.97 13.59 100.69 Q13.24 98.42 13.72 95.84 Q14.19 93.26 15.31 91.19 L15.31 91.19 Q15.82 89.99 17.20 88.05 Q18.58 86.12 20.30 84.05 Q22.02 81.99 23.61 80.31 Q25.20 78.64 26.14 78.03 L26.14 78.03 Q26.83 77.35 27.61 76.57 L27.61 76.57 L28.38 75.88 Q28.47 75.45 28.72 75.45 L28.72 75.45 L28.90 75.45 Q29.33 75.20 30.79 74.59 Q32.25 73.99 33.97 72.36 L33.97 72.36 Q39.73 69.61 43.77 68.62 Q47.82 67.63 50.14 67.63 L50.14 67.63 Q52.29 67.71 54.35 68.79 Q56.42 69.86 57.92 71.50 Q59.43 73.13 59.68 75.20 L59.68 75.20 Q60.29 77.26 59.13 80.14 Q57.96 83.02 55.94 85.56 Q53.92 88.10 51.77 89.30 L51.77 89.30 Q49.36 90.33 47.69 89.56 Q46.01 88.78 46.10 87.15 L46.10 87.15 Q46.10 86.46 46.57 85.52 Q47.04 84.57 49.19 82.16 L49.19 82.16 Q51.94 78.12 52.12 76.40 Q52.29 74.68 50.57 74.42 L50.57 74.42 Q50.05 74.25 48.59 74.51 Q47.13 74.77 45.45 75.15 Q43.77 75.54 42.53 75.97 Q41.28 76.40 41.28 76.57 L41.28 76.57 L41.28 76.83 Q41.28 76.92 41.19 77.00 L41.19 77.00 Q41.19 77.09 40.94 77.00 L40.94 77.00 Q40.76 77.00 39.78 77.56 Q38.79 78.12 37.41 78.98 Q36.03 79.84 34.70 80.74 Q33.37 81.65 32.42 82.33 Q31.48 83.02 31.39 83.19 L31.39 83.19 Q31.22 84.14 29.41 84.91 L29.41 84.91 Q27.69 85.95 26.40 87.84 Q25.11 89.73 23.39 92.65 L23.39 92.65 Q21.93 94.63 21.33 96.91 Q20.73 99.19 21.33 100.57 L21.33 100.57 Q21.76 101.94 23.69 103.28 Q25.63 104.61 28.98 106.59 L28.98 106.59 Q31.91 108.22 34.49 110.03 Q37.07 111.83 38.87 113.51 Q40.68 115.19 41.19 116.30 L41.19 116.30 Q42.23 117.77 42.44 119.66 Q42.66 121.55 42.44 123.31 Q42.23 125.08 41.88 126.19 L41.88 126.19 Q41.28 127.57 40.03 129.12 Q38.79 130.67 37.75 130.58 L37.75 130.58 Q36.81 130.84 36.34 131.18 Q35.86 131.53 35.26 131.78 L35.26 131.78 Q34.66 132.13 32.42 132.60 Q30.19 133.07 27.52 133.38 Q24.85 133.68 22.88 133.59 Z M67.77 126.28 L67.77 126.28 Q65.19 127.74 62.31 127.96 Q59.43 128.17 56.93 127.18 Q54.44 126.19 52.89 124.22 L52.89 124.22 Q52.03 123.10 51.26 120.65 Q50.48 118.20 51.00 113.98 L51.00 113.98 Q51.51 110.03 53.45 105.98 Q55.38 101.94 58.22 98.85 Q61.06 95.75 64.41 94.63 L64.41 94.63 Q65.62 94.20 66.86 93.99 Q68.11 93.77 70.18 93.94 L70.18 93.94 Q72.15 94.20 73.70 94.93 Q75.25 95.66 75.94 96.52 L75.94 96.52 Q77.31 97.90 77.74 99.19 Q78.17 100.48 78.09 101.68 L78.09 101.68 Q77.66 104.44 75.64 107.62 Q73.62 110.80 70.00 112.35 L70.00 112.35 Q68.54 112.95 66.56 113.12 Q64.59 113.29 61.15 112.61 L61.15 112.61 Q59.08 112.18 58.44 113.04 Q57.79 113.90 57.88 116.39 L57.88 116.39 Q58.05 117.94 58.61 119.10 Q59.17 120.26 60.72 120.69 L60.72 120.69 Q62.69 121.03 63.55 120.73 Q64.41 120.43 65.70 119.83 L65.70 119.83 Q66.39 119.40 67.08 118.88 L67.08 118.88 L68.37 117.85 Q68.97 117.34 69.40 117.08 L69.40 117.08 Q69.83 116.73 70.26 116.65 Q70.69 116.56 71.12 116.56 L71.12 116.56 Q72.07 116.65 72.93 117.59 Q73.79 118.54 74.05 119.40 L74.05 119.40 Q74.05 120.09 73.19 121.33 Q72.33 122.58 70.91 123.92 Q69.49 125.25 67.77 126.28 Z M66.65 107.10 L66.65 107.10 Q67.25 106.84 68.41 105.90 Q69.57 104.95 70.52 103.88 Q71.47 102.80 71.47 102.20 L71.47 102.20 Q71.47 101.25 70.22 100.57 Q68.97 99.88 66.99 100.31 L66.99 100.31 Q66.31 100.48 65.36 101.25 Q64.41 102.03 63.47 103.02 Q62.52 104.01 61.83 104.91 Q61.15 105.81 60.89 106.33 L60.89 106.33 Q61.23 106.76 62.26 107.02 Q63.30 107.27 64.54 107.27 Q65.79 107.27 66.65 107.10 Z M96.49 126.28 L96.49 126.28 Q93.91 127.74 91.03 127.96 Q88.15 128.17 85.66 127.18 Q83.16 126.19 81.61 124.22 L81.61 124.22 Q80.75 123.10 79.98 120.65 Q79.21 118.20 79.72 113.98 L79.72 113.98 Q80.24 110.03 82.17 105.98 Q84.11 101.94 86.95 98.85 Q89.78 95.75 93.14 94.63 L93.14 94.63 Q94.34 94.20 95.59 93.99 Q96.84 93.77 98.90 93.94 L98.90 93.94 Q100.88 94.20 102.43 94.93 Q103.97 95.66 104.66 96.52 L104.66 96.52 Q106.04 97.90 106.47 99.19 Q106.90 100.48 106.81 101.68 L106.81 101.68 Q106.38 104.44 104.36 107.62 Q102.34 110.80 98.73 112.35 L98.73 112.35 Q97.27 112.95 95.29 113.12 Q93.31 113.29 89.87 112.61 L89.87 112.61 Q87.81 112.18 87.16 113.04 Q86.52 113.90 86.60 116.39 L86.60 116.39 Q86.77 117.94 87.33 119.10 Q87.89 120.26 89.44 120.69 L89.44 120.69 Q91.42 121.03 92.28 120.73 Q93.14 120.43 94.43 119.83 L94.43 119.83 Q95.12 119.40 95.80 118.88 L95.80 118.88 L97.09 117.85 Q97.70 117.34 98.13 117.08 L98.13 117.08 Q98.56 116.73 98.99 116.65 Q99.42 116.56 99.85 116.56 L99.85 116.56 Q100.79 116.65 101.65 117.59 Q102.51 118.54 102.77 119.40 L102.77 119.40 Q102.77 120.09 101.91 121.33 Q101.05 122.58 99.63 123.92 Q98.21 125.25 96.49 126.28 Z M95.37 107.10 L95.37 107.10 Q95.98 106.84 97.14 105.90 Q98.30 104.95 99.24 103.88 Q100.19 102.80 100.19 102.20 L100.19 102.20 Q100.19 101.25 98.94 100.57 Q97.70 99.88 95.72 100.31 L95.72 100.31 Q95.03 100.48 94.08 101.25 Q93.14 102.03 92.19 103.02 Q91.25 104.01 90.56 104.91 Q89.87 105.81 89.61 106.33 L89.61 106.33 Q89.96 106.76 90.99 107.02 Q92.02 107.27 93.27 107.27 Q94.51 107.27 95.37 107.10 Z M118.42 145.20 L118.42 145.20 Q116.01 146.15 113.39 144.90 Q110.77 143.65 108.88 140.99 L108.88 140.99 Q108.53 140.47 107.84 139.14 Q107.16 137.80 106.51 136.26 Q105.87 134.71 105.56 133.59 Q105.26 132.47 105.52 132.30 L105.52 132.30 Q105.87 131.35 107.07 131.18 Q108.27 131.01 109.48 131.31 Q110.68 131.61 110.85 132.13 L110.85 132.13 Q111.11 132.73 111.37 133.38 Q111.63 134.02 112.01 134.58 Q112.40 135.14 112.75 135.57 L112.75 135.57 Q113.69 137.03 114.81 137.59 Q115.93 138.15 116.53 137.72 L116.53 137.72 Q117.99 136.60 118.72 135.09 Q119.45 133.59 120.66 129.81 L120.66 129.81 Q121.60 126.62 122.29 124.30 Q122.98 121.98 123.75 120.00 L123.75 120.00 Q124.01 118.97 124.44 118.20 L124.44 118.20 Q124.53 118.02 124.61 117.85 L124.61 117.85 Q123.41 118.71 122.46 119.57 L122.46 119.57 Q121.17 120.78 118.94 121.72 L118.94 121.72 Q118.42 122.32 116.40 122.45 Q114.38 122.58 112.49 121.98 L112.49 121.98 Q111.28 121.29 110.55 120.56 Q109.82 119.83 109.35 118.88 Q108.88 117.94 108.36 116.65 L108.36 116.65 Q107.76 115.36 108.19 112.43 Q108.62 109.51 109.74 106.59 L109.74 106.59 Q110.77 104.44 112.75 101.94 Q114.72 99.45 116.96 97.43 Q119.20 95.41 121.00 94.89 L121.00 94.89 Q121.69 94.55 123.41 94.07 Q125.13 93.60 126.68 94.03 L126.68 94.03 Q128.14 94.20 128.91 94.67 Q129.69 95.15 131.41 96.61 L131.41 96.61 Q132.53 97.73 134.16 99.49 Q135.79 101.25 136.22 102.46 L136.22 102.46 Q136.83 103.75 136.48 105.25 Q136.14 106.76 135.28 107.88 L135.28 107.88 Q134.50 108.99 133.64 110.11 Q132.78 111.23 132.35 113.21 L132.35 113.21 Q131.92 115.79 130.72 119.01 Q129.52 122.24 128.83 124.99 L128.83 124.99 L127.45 130.32 Q125.30 137.63 122.72 140.94 Q120.14 144.25 118.42 145.20 Z M116.62 115.62 L116.62 115.62 Q118.34 115.53 119.58 115.23 Q120.83 114.93 121.95 113.85 Q123.07 112.78 124.53 110.54 L124.53 110.54 Q125.99 108.48 126.59 106.76 Q127.19 105.04 127.02 102.89 L127.02 102.89 Q126.94 101.51 126.25 101.08 Q125.56 100.65 124.44 100.82 L124.44 100.82 Q122.81 101.08 121.52 102.16 Q120.23 103.23 118.51 105.47 L118.51 105.47 Q117.22 107.19 116.36 109.60 L116.36 109.60 Q115.50 112.18 115.63 113.72 Q115.76 115.27 116.62 115.62 Z M143.88 138.41 L143.88 138.41 Q143.36 138.75 141.56 137.59 Q139.75 136.43 138.55 135.05 L138.55 135.05 Q137.94 134.36 137.77 133.59 Q137.60 132.82 137.86 130.67 L137.86 130.67 Q138.20 129.72 138.24 128.86 Q138.29 128.00 138.29 127.66 L138.29 127.66 Q138.29 127.14 138.59 125.25 Q138.89 123.36 139.23 121.25 Q139.58 119.14 139.84 118.02 L139.84 118.02 Q139.84 117.94 139.96 117.42 Q140.09 116.91 140.18 116.65 L140.18 116.65 Q140.35 115.87 140.61 114.76 Q140.87 113.64 141.13 111.75 L141.13 111.75 Q141.81 109.60 142.29 107.49 Q142.76 105.38 142.76 104.61 L142.76 104.61 Q142.76 103.06 143.96 102.37 L143.96 102.37 Q144.05 101.94 144.48 101.04 Q144.91 100.14 145.25 99.53 L145.25 99.53 Q146.97 94.63 148.09 91.71 Q149.21 88.78 150.41 86.63 L150.41 86.63 Q150.93 85.17 151.57 83.62 Q152.22 82.08 152.91 81.22 L152.91 81.22 Q153.51 80.01 155.01 78.25 Q156.52 76.49 158.24 74.85 Q159.96 73.22 160.99 72.44 L160.99 72.44 Q162.88 71.50 164.52 70.90 Q166.15 70.29 167.96 70.29 L167.96 70.29 Q169.59 70.29 170.84 71.03 Q172.09 71.76 174.58 73.99 L174.58 73.99 Q175.44 75.11 175.44 76.14 Q175.44 77.17 175.01 77.86 L175.01 77.86 Q174.41 79.24 173.20 81.26 Q172.00 83.28 170.88 84.87 Q169.76 86.46 169.25 86.55 L169.25 86.55 Q168.22 87.15 167.10 86.89 Q165.98 86.63 165.98 85.34 L165.98 85.34 Q165.98 84.74 166.07 84.23 L166.07 84.23 L166.07 83.71 Q166.32 82.59 166.71 81.73 Q167.10 80.87 167.44 80.27 L167.44 80.27 Q168.13 79.15 167.83 78.12 Q167.53 77.09 165.64 77.26 L165.64 77.26 Q165.38 77.43 164.65 78.08 Q163.92 78.72 163.10 79.54 Q162.28 80.36 161.68 81.09 Q161.08 81.82 161.08 82.08 L161.08 82.08 L160.65 82.94 Q160.13 83.88 159.19 85.00 L159.19 85.00 Q158.58 85.86 158.15 86.63 Q157.72 87.41 157.72 87.84 L157.72 87.84 Q157.72 88.18 157.64 88.44 Q157.55 88.70 157.21 88.70 L157.21 88.70 L156.95 89.56 Q156.61 90.42 155.92 91.62 L155.92 91.62 Q155.57 92.48 155.19 93.21 Q154.80 93.94 154.46 94.29 L154.46 94.29 L154.37 94.46 L154.03 95.41 Q153.60 96.44 153.17 97.47 Q152.74 98.50 152.74 98.67 L152.74 98.67 Q152.74 99.02 153.77 99.02 Q154.80 99.02 156.26 98.72 Q157.72 98.42 159.10 98.07 L159.10 98.07 Q160.30 97.73 160.82 97.73 Q161.34 97.73 162.45 98.07 L162.45 98.07 Q163.14 98.50 163.57 99.58 Q164.00 100.65 164.22 101.73 Q164.43 102.80 164.26 103.32 L164.26 103.32 Q164.17 103.66 162.32 104.26 Q160.48 104.87 158.67 105.21 L158.67 105.21 Q157.12 105.55 155.19 105.94 Q153.25 106.33 151.79 106.72 Q150.33 107.10 150.24 107.45 L150.24 107.45 Q149.90 107.45 149.68 107.88 Q149.47 108.31 149.47 108.65 L149.47 108.65 Q149.47 109.77 149.04 110.46 L149.04 110.46 Q148.87 110.97 148.48 112.56 Q148.09 114.15 147.70 116.00 Q147.32 117.85 147.02 119.44 Q146.72 121.03 146.72 121.55 L146.72 121.55 Q146.20 122.15 146.11 123.06 Q146.03 123.96 146.03 124.65 L146.03 124.65 Q145.68 125.33 145.60 125.89 Q145.51 126.45 145.51 126.80 L145.51 126.80 L145.51 127.14 Q145.51 127.40 145.43 127.66 L145.43 127.66 Q145.34 128.52 145.21 129.94 Q145.08 131.35 145.08 132.73 L145.08 132.73 L144.82 135.22 Q144.74 136.34 144.52 137.16 Q144.31 137.98 143.88 138.41 Z M186.02 127.83 L186.02 127.83 Q185.16 126.97 184.64 125.46 Q184.13 123.96 183.61 121.98 L183.61 121.98 Q183.44 121.29 183.48 120.43 Q183.52 119.57 183.44 119.06 L183.44 119.06 Q183.18 119.66 182.62 120.60 Q182.06 121.55 181.55 121.98 L181.55 121.98 Q181.20 122.32 180.00 123.31 Q178.79 124.30 177.59 124.90 L177.59 124.90 Q174.75 126.71 172.56 126.58 Q170.37 126.45 168.73 124.39 L168.73 124.39 Q167.36 123.27 166.50 121.55 Q165.64 119.83 166.15 117.42 L166.15 117.42 Q166.32 114.41 167.01 111.53 Q167.70 108.65 169.85 103.83 L169.85 103.83 Q171.66 100.31 172.60 98.33 Q173.55 96.35 173.81 96.01 L173.81 96.01 Q175.10 95.58 176.99 96.05 Q178.88 96.52 179.05 97.73 L179.05 97.73 Q179.57 98.59 179.05 100.95 Q178.54 103.32 176.99 106.33 L176.99 106.33 Q175.78 109.25 174.71 112.00 Q173.63 114.76 173.42 116.65 Q173.20 118.54 174.41 118.97 L174.41 118.97 Q175.18 119.40 176.69 118.88 Q178.19 118.37 180.26 115.79 Q182.32 113.21 184.64 107.62 L184.64 107.62 Q185.33 105.90 185.67 104.56 Q186.02 103.23 186.10 101.60 L186.10 101.60 Q185.93 100.57 186.66 99.45 Q187.39 98.33 188.43 97.73 L188.43 97.73 Q188.77 97.30 189.37 96.87 L189.37 96.87 Q189.80 96.61 189.97 96.78 L189.97 96.78 Q190.06 96.78 190.15 96.95 L190.15 96.95 L191.52 96.87 Q191.87 96.78 192.30 97.56 Q192.73 98.33 193.16 98.67 L193.16 98.67 Q194.10 99.45 194.02 102.03 Q193.93 104.61 191.95 109.25 L191.95 109.25 Q190.32 112.78 189.76 114.58 Q189.20 116.39 189.11 118.11 L189.11 118.11 Q189.11 119.66 189.37 120.73 Q189.63 121.81 190.92 122.93 L190.92 122.93 Q191.87 123.53 191.99 124.95 Q192.12 126.37 192.04 127.40 L192.04 127.40 Q191.87 128.17 190.70 128.47 Q189.54 128.77 188.21 128.60 Q186.88 128.43 186.02 127.83 Z M197.80 126.54 L197.80 126.54 Q197.11 125.85 196.81 124.47 Q196.51 123.10 196.60 121.77 Q196.68 120.43 197.03 119.74 L197.03 119.74 Q197.03 119.06 197.24 118.67 Q197.46 118.28 197.37 117.94 L197.37 117.94 Q197.28 117.59 197.54 116.73 Q197.80 115.87 198.06 115.10 L198.06 115.10 Q198.66 113.72 199.43 111.53 Q200.21 109.34 200.98 107.06 Q201.76 104.78 202.27 103.10 Q202.79 101.43 202.87 101.08 L202.87 101.08 Q202.87 100.05 204.25 99.96 L204.25 99.96 Q205.28 99.62 206.74 100.82 Q208.21 102.03 209.07 103.40 L209.07 103.40 Q209.75 104.09 209.58 105.21 Q209.41 106.33 208.46 108.39 L208.46 108.39 Q208.12 109.08 207.65 110.67 Q207.17 112.26 207.00 113.29 L207.00 113.29 Q206.66 113.98 206.18 115.23 Q205.71 116.48 205.37 117.59 L205.37 117.59 Q205.20 118.02 205.02 119.19 Q204.85 120.35 204.59 121.55 Q204.34 122.75 203.91 123.44 L203.91 123.44 Q203.13 126.97 201.20 127.57 Q199.26 128.17 197.80 126.54 Z " fill="#1d1c19"></path><defs><mask id="hm2" maskUnits="userSpaceOnUse"><path d="M0,3 C0,-3 -9,-6 -9,-13 C-9,-19 -2,-20 0,-14 C2,-20 9,-19 9,-13 C9,-6 0,-3 0,3 Z" fill="#fff"></path><path d="M-7.5,-8 q2.5,-3.4 5,0 t5,0 t5,0" fill="none" stroke="#000" stroke-width="2.1" stroke-linecap="round"></path></mask></defs><g transform="translate(210.40,95.23) rotate(12) scale(0.940)"><path d="M0,3 C0,-3 -9,-6 -9,-13 C-9,-19 -2,-20 0,-14 C2,-20 9,-19 9,-13 C9,-6 0,-3 0,3 Z" fill="#d23b34" mask="url(#hm2)"></path></g></g></g></svg><path d="M58.96 304.15L57.52 304.15L57.52 297.06L55.01 297.06L55.01 295.75L61.47 295.75L61.47 297.06L58.96 297.06L58.96 304.15Z M75.01 304.15L69.60 304.15L69.60 295.75L74.95 295.75L74.95 297.06L71.05 297.06L71.05 299.27L74.61 299.27L74.61 300.58L71.05 300.58L71.05 302.84L75.01 302.84L75.01 304.15Z M86.19 304.32L86.19 304.32Q85.30 304.32 84.60 303.93Q83.89 303.54 83.48 302.79Q83.07 302.04 83.07 300.95L83.07 300.95L83.07 298.96Q83.07 297.32 83.98 296.45Q84.89 295.58 86.43 295.58L86.43 295.58Q87.96 295.58 88.79 296.41Q89.62 297.23 89.62 298.62L89.62 298.62L89.62 298.67L88.20 298.67L88.20 298.57Q88.20 298.09 88.01 297.71Q87.82 297.32 87.42 297.10Q87.03 296.88 86.43 296.88L86.43 296.88Q85.54 296.88 85.03 297.43Q84.52 297.97 84.52 298.93L84.52 298.93L84.52 300.97Q84.52 301.92 85.03 302.48Q85.54 303.05 86.45 303.05L86.45 303.05Q87.36 303.05 87.78 302.56Q88.20 302.06 88.20 301.30L88.20 301.30L88.20 301.15L86.08 301.15L86.08 299.93L89.62 299.93L89.62 304.15L88.30 304.15L88.30 303.32L88.09 303.32Q88.00 303.54 87.79 303.77Q87.59 304.01 87.21 304.16Q86.83 304.32 86.19 304.32Z M103.61 304.15L98.20 304.15L98.20 295.75L103.55 295.75L103.55 297.06L99.65 297.06L99.65 299.27L103.22 299.27L103.22 300.58L99.65 300.58L99.65 302.84L103.61 302.84L103.61 304.15Z M113.33 304.15L111.87 304.15L111.87 295.75L115.46 295.75Q116.25 295.75 116.84 296.03Q117.43 296.30 117.76 296.80Q118.09 297.30 118.09 298.00L118.09 298.00L118.09 298.13Q118.09 298.91 117.72 299.38Q117.35 299.84 116.82 300.06L116.82 300.06L116.82 300.25Q117.29 300.28 117.56 300.58Q117.83 300.88 117.83 301.38L117.83 301.38L117.83 304.15L116.39 304.15L116.39 301.58Q116.39 301.28 116.22 301.10Q116.06 300.91 115.70 300.91L115.70 300.91L113.33 300.91L113.33 304.15ZM113.33 297.06L113.33 299.60L115.32 299.60Q115.94 299.60 116.30 299.27Q116.65 298.94 116.65 298.39L116.65 298.39L116.65 298.28Q116.65 297.72 116.30 297.39Q115.95 297.06 115.32 297.06L115.32 297.06L113.33 297.06Z M127.89 304.15L126.46 304.15L126.46 295.75L129.22 295.75L131.20 303.18L131.39 303.18L131.39 295.75L132.82 295.75L132.82 304.15L130.07 304.15L128.09 296.72L127.89 296.72L127.89 304.15Z M144.37 304.32L144.37 304.32Q143.41 304.32 142.67 303.98Q141.93 303.64 141.51 302.99Q141.09 302.34 141.09 301.40L141.09 301.40L141.09 301.09L142.52 301.09L142.52 301.40Q142.52 302.23 143.02 302.64Q143.53 303.05 144.37 303.05L144.37 303.05Q145.22 303.05 145.65 302.70Q146.08 302.35 146.08 301.80L146.08 301.80Q146.08 301.43 145.88 301.19Q145.67 300.96 145.28 300.82Q144.89 300.67 144.34 300.54L144.34 300.54L143.98 300.47Q143.15 300.28 142.55 299.98Q141.94 299.69 141.62 299.22Q141.29 298.75 141.29 298.00L141.29 298.00Q141.29 297.24 141.65 296.70Q142.01 296.16 142.67 295.87Q143.33 295.58 144.22 295.58L144.22 295.58Q145.11 295.58 145.81 295.88Q146.50 296.18 146.90 296.78Q147.31 297.38 147.31 298.28L147.31 298.28L147.31 298.68L145.88 298.68L145.88 298.28Q145.88 297.77 145.67 297.46Q145.47 297.14 145.10 297Q144.73 296.86 144.22 296.86L144.22 296.86Q143.48 296.86 143.09 297.14Q142.71 297.43 142.71 297.96L142.71 297.96Q142.71 298.30 142.88 298.53Q143.06 298.76 143.40 298.91Q143.74 299.06 144.26 299.17L144.26 299.17L144.62 299.26Q145.48 299.45 146.13 299.74Q146.78 300.04 147.14 300.52Q147.51 301.00 147.51 301.76L147.51 301.76Q147.51 302.52 147.12 303.10Q146.73 303.67 146.03 304.00Q145.33 304.32 144.37 304.32Z M161.18 304.15L155.77 304.15L155.77 295.75L161.12 295.75L161.12 297.06L157.22 297.06L157.22 299.27L160.79 299.27L160.79 300.58L157.22 300.58L157.22 302.84L161.18 302.84L161.18 304.15Z M174.85 304.15L169.44 304.15L169.44 295.75L174.79 295.75L174.79 297.06L170.89 297.06L170.89 299.27L174.46 299.27L174.46 300.58L170.89 300.58L170.89 302.84L174.85 302.84L174.85 304.15Z" fill="#a9842b"></path></svg>