<svg xmlns="http://www.w3.org/2000/svg" width="1440" height="2172" viewBox="0 0 240 362"><defs><mask id="ko" maskUnits="userSpaceOnUse" x="-20" y="-20" width="280" height="402"><rect x="-20" y="-20" width="280" height="402" fill="#fff"></rect><path d="M49.49 96L44.45 96L44.45 76.16L49.41 76.16L49.41 78.32L50.13 78.32Q50.65 77.32 51.85 76.58Q53.05 75.84 55.01 75.84L55.01 75.84Q57.13 75.84 58.41 76.66Q59.69 77.48 60.37 78.80L60.37 78.80L61.09 78.80Q61.77 77.52 63.01 76.68Q64.25 75.84 66.53 75.84L66.53 75.84Q68.37 75.84 69.87 76.62Q71.37 77.40 72.27 78.98Q73.17 80.56 73.17 82.96L73.17 82.96L73.17 96L68.13 96L68.13 83.32Q68.13 81.68 67.29 80.86Q66.45 80.04 64.93 80.04L64.93 80.04Q63.21 80.04 62.27 81.14Q61.33 82.24 61.33 84.28L61.33 84.28L61.33 96L56.29 96L56.29 83.32Q56.29 81.68 55.45 80.86Q54.61 80.04 53.09 80.04L53.09 80.04Q51.37 80.04 50.43 81.14Q49.49 82.24 49.49 84.28L49.49 84.28L49.49 96Z M87.15 96.56L87.15 96.56Q84.19 96.56 81.93 95.30Q79.67 94.04 78.41 91.74Q77.15 89.44 77.15 86.32L77.15 86.32L77.15 85.84Q77.15 82.72 78.39 80.42Q79.63 78.12 81.87 76.86Q84.11 75.60 87.07 75.60L87.07 75.60Q89.99 75.60 92.15 76.90Q94.31 78.20 95.51 80.50Q96.71 82.80 96.71 85.84L96.71 85.84L96.71 87.56L82.27 87.56Q82.35 89.60 83.79 90.88Q85.23 92.16 87.31 92.16L87.31 92.16Q89.43 92.16 90.43 91.24Q91.43 90.32 91.95 89.20L91.95 89.20L96.07 91.36Q95.51 92.40 94.45 93.62Q93.39 94.84 91.63 95.70Q89.87 96.56 87.15 96.56ZM82.31 83.80L82.31 83.80L91.59 83.80Q91.43 82.08 90.21 81.04Q88.99 80 87.03 80L87.03 80Q84.99 80 83.79 81.04Q82.59 82.08 82.31 83.80Z M105.73 96L100.69 96L100.69 76.16L105.73 76.16L105.73 96ZM103.21 73.84L103.21 73.84Q101.85 73.84 100.91 72.96Q99.97 72.08 99.97 70.64L99.97 70.64Q99.97 69.20 100.91 68.32Q101.85 67.44 103.21 67.44L103.21 67.44Q104.61 67.44 105.53 68.32Q106.45 69.20 106.45 70.64L106.45 70.64Q106.45 72.08 105.53 72.96Q104.61 73.84 103.21 73.84Z  M130.05 96.56L130.05 96.56Q126.81 96.56 124.33 95.40Q121.85 94.24 120.45 92.08Q119.05 89.92 119.05 86.88L119.05 86.88L119.05 85.76L124.25 85.76L124.25 86.88Q124.25 89.40 125.81 90.66Q127.37 91.92 130.05 91.92L130.05 91.92Q132.77 91.92 134.11 90.84Q135.45 89.76 135.45 88.08L135.45 88.08Q135.45 86.92 134.79 86.20Q134.13 85.48 132.87 85.02Q131.61 84.56 129.81 84.16L129.81 84.16L128.89 83.96Q126.01 83.32 123.95 82.34Q121.89 81.36 120.79 79.76Q119.69 78.16 119.69 75.60L119.69 75.60Q119.69 73.04 120.91 71.22Q122.13 69.40 124.35 68.42Q126.57 67.44 129.57 67.44L129.57 67.44Q132.57 67.44 134.91 68.46Q137.25 69.48 138.59 71.50Q139.93 73.52 139.93 76.56L139.93 76.56L139.93 77.76L134.73 77.76L134.73 76.56Q134.73 74.96 134.11 73.98Q133.49 73 132.33 72.54Q131.17 72.08 129.57 72.08L129.57 72.08Q127.17 72.08 126.03 72.98Q124.89 73.88 124.89 75.44L124.89 75.44Q124.89 76.48 125.43 77.20Q125.97 77.92 127.05 78.40Q128.13 78.88 129.81 79.24L129.81 79.24L130.73 79.44Q133.73 80.08 135.95 81.08Q138.17 82.08 139.41 83.72Q140.65 85.36 140.65 87.92L140.65 87.92Q140.65 90.48 139.35 92.42Q138.05 94.36 135.67 95.46Q133.29 96.56 130.05 96.56Z M153.27 96.56L153.27 96.56Q150.31 96.56 148.05 95.30Q145.79 94.04 144.53 91.74Q143.27 89.44 143.27 86.32L143.27 86.32L143.27 85.84Q143.27 82.72 144.51 80.42Q145.75 78.12 147.99 76.86Q150.23 75.60 153.19 75.60L153.19 75.60Q156.11 75.60 158.27 76.90Q160.43 78.20 161.63 80.50Q162.83 82.80 162.83 85.84L162.83 85.84L162.83 87.56L148.39 87.56Q148.47 89.60 149.91 90.88Q151.35 92.16 153.43 92.16L153.43 92.16Q155.55 92.16 156.55 91.24Q157.55 90.32 158.07 89.20L158.07 89.20L162.19 91.36Q161.63 92.40 160.57 93.62Q159.51 94.84 157.75 95.70Q155.99 96.56 153.27 96.56ZM148.43 83.80L148.43 83.80L157.71 83.80Q157.55 82.08 156.33 81.04Q155.11 80 153.15 80L153.15 80Q151.11 80 149.91 81.04Q148.71 82.08 148.43 83.80Z M175.85 96.56L175.85 96.56Q172.89 96.56 170.63 95.30Q168.37 94.04 167.11 91.74Q165.85 89.44 165.85 86.32L165.85 86.32L165.85 85.84Q165.85 82.72 167.09 80.42Q168.33 78.12 170.57 76.86Q172.81 75.60 175.77 75.60L175.77 75.60Q178.69 75.60 180.85 76.90Q183.01 78.20 184.21 80.50Q185.41 82.80 185.41 85.84L185.41 85.84L185.41 87.56L170.97 87.56Q171.05 89.60 172.49 90.88Q173.93 92.16 176.01 92.16L176.01 92.16Q178.13 92.16 179.13 91.24Q180.13 90.32 180.65 89.20L180.65 89.20L184.77 91.36Q184.21 92.40 183.15 93.62Q182.09 94.84 180.33 95.70Q178.57 96.56 175.85 96.56ZM171.01 83.80L171.01 83.80L180.29 83.80Q180.13 82.08 178.91 81.04Q177.69 80 175.73 80L175.73 80Q173.69 80 172.49 81.04Q171.29 82.08 171.01 83.80Z M191.71 101.88L189.75 101.88L189.75 99.16L191.31 99.16Q193.15 99.16 193.15 97.32L193.15 97.32L193.15 96.04L192.47 96.04Q190.87 96.04 189.81 95.08Q188.75 94.12 188.75 92.64L188.75 92.64Q188.75 91.04 189.81 90.04Q190.87 89.04 192.47 89.04L192.47 89.04Q194.11 89.04 195.15 90.06Q196.19 91.08 196.19 92.80L196.19 92.80L196.19 97.40Q196.19 101.88 191.71 101.88L191.71 101.88Z" fill="#000" stroke="#000" stroke-width="0.8" stroke-linejoin="round" stroke-linecap="round"></path><path d="M41.73 140.80L36.69 140.80L36.69 120.96L41.65 120.96L41.65 123.12L42.37 123.12Q42.89 122.12 44.09 121.38Q45.29 120.64 47.25 120.64L47.25 120.64Q49.37 120.64 50.65 121.46Q51.93 122.28 52.61 123.60L52.61 123.60L53.33 123.60Q54.01 122.32 55.25 121.48Q56.49 120.64 58.77 120.64L58.77 120.64Q60.61 120.64 62.11 121.42Q63.61 122.20 64.51 123.78Q65.41 125.36 65.41 127.76L65.41 127.76L65.41 140.80L60.37 140.80L60.37 128.12Q60.37 126.48 59.53 125.66Q58.69 124.84 57.17 124.84L57.17 124.84Q55.45 124.84 54.51 125.94Q53.57 127.04 53.57 129.08L53.57 129.08L53.57 140.80L48.53 140.80L48.53 128.12Q48.53 126.48 47.69 125.66Q46.85 124.84 45.33 124.84L45.33 124.84Q43.61 124.84 42.67 125.94Q41.73 127.04 41.73 129.08L41.73 129.08L41.73 140.80Z M79.39 141.36L79.39 141.36Q76.43 141.36 74.17 140.10Q71.91 138.84 70.65 136.54Q69.39 134.24 69.39 131.12L69.39 131.12L69.39 130.64Q69.39 127.52 70.63 125.22Q71.87 122.92 74.11 121.66Q76.35 120.40 79.31 120.40L79.31 120.40Q82.23 120.40 84.39 121.70Q86.55 123.00 87.75 125.30Q88.95 127.60 88.95 130.64L88.95 130.64L88.95 132.36L74.51 132.36Q74.59 134.40 76.03 135.68Q77.47 136.96 79.55 136.96L79.55 136.96Q81.67 136.96 82.67 136.04Q83.67 135.12 84.19 134L84.19 134L88.31 136.16Q87.75 137.20 86.69 138.42Q85.63 139.64 83.87 140.50Q82.11 141.36 79.39 141.36ZM74.55 128.60L74.55 128.60L83.83 128.60Q83.67 126.88 82.45 125.84Q81.23 124.80 79.27 124.80L79.27 124.80Q77.23 124.80 76.03 125.84Q74.83 126.88 74.55 128.60Z M97.97 140.80L92.93 140.80L92.93 120.96L97.97 120.96L97.97 140.80ZM95.45 118.64L95.45 118.64Q94.09 118.64 93.15 117.76Q92.21 116.88 92.21 115.44L92.21 115.44Q92.21 114.00 93.15 113.12Q94.09 112.24 95.45 112.24L95.45 112.24Q96.85 112.24 97.77 113.12Q98.69 114.00 98.69 115.44L98.69 115.44Q98.69 116.88 97.77 117.76Q96.85 118.64 95.45 118.64Z  M117.85 140.80L112.57 140.80L112.57 112.80L124.73 112.80Q127.37 112.80 129.33 113.72Q131.29 114.64 132.37 116.32Q133.45 118.00 133.45 120.28L133.45 120.28L133.45 120.76Q133.45 123.28 132.25 124.84Q131.05 126.40 129.29 127.12L129.29 127.12L129.29 127.84Q130.89 127.92 131.77 128.94Q132.65 129.96 132.65 131.64L132.65 131.64L132.65 140.80L127.37 140.80L127.37 132.40Q127.37 131.44 126.87 130.84Q126.37 130.24 125.21 130.24L125.21 130.24L117.85 130.24L117.85 140.80ZM117.85 117.60L117.85 125.44L124.17 125.44Q126.05 125.44 127.11 124.42Q128.17 123.40 128.17 121.72L128.17 121.72L128.17 121.32Q128.17 119.64 127.13 118.62Q126.09 117.60 124.17 117.60L124.17 117.60L117.85 117.60Z M145.07 141.12L145.07 141.12Q142.75 141.12 141.01 140.06Q139.27 139 138.31 137.12Q137.35 135.24 137.35 132.80L137.35 132.80L137.35 120.96L142.39 120.96L142.39 132.40Q142.39 134.64 143.49 135.76Q144.59 136.88 146.63 136.88L146.63 136.88Q148.95 136.88 150.23 135.34Q151.51 133.80 151.51 131.04L151.51 131.04L151.51 120.96L156.55 120.96L156.55 140.80L151.59 140.80L151.59 138.20L150.87 138.20Q150.39 139.20 149.07 140.16Q147.75 141.12 145.07 141.12Z M167.81 141.36L167.81 141.36Q165.69 141.36 164.01 140.62Q162.33 139.88 161.35 138.46Q160.37 137.04 160.37 135L160.37 135Q160.37 132.96 161.35 131.58Q162.33 130.20 164.07 129.50Q165.81 128.80 168.05 128.80L168.05 128.80L173.49 128.80L173.49 127.68Q173.49 126.28 172.61 125.38Q171.73 124.48 169.81 124.48L169.81 124.48Q167.93 124.48 167.01 125.34Q166.09 126.20 165.81 127.56L165.81 127.56L161.17 126.00Q161.65 124.48 162.71 123.22Q163.77 121.96 165.55 121.18Q167.33 120.40 169.89 120.40L169.89 120.40Q173.81 120.40 176.09 122.36Q178.37 124.32 178.37 128.04L178.37 128.04L178.37 135.44Q178.37 136.64 179.49 136.64L179.49 136.64L181.09 136.64L181.09 140.80L177.73 140.80Q176.25 140.80 175.29 140.08Q174.33 139.36 174.33 138.16L174.33 138.16L174.33 138.12L173.57 138.12Q173.41 138.60 172.85 139.38Q172.29 140.16 171.09 140.76Q169.89 141.36 167.81 141.36ZM168.69 137.28L168.69 137.28Q170.81 137.28 172.15 136.10Q173.49 134.92 173.49 132.96L173.49 132.96L173.49 132.56L168.41 132.56Q167.01 132.56 166.21 133.16Q165.41 133.76 165.41 134.84L165.41 134.84Q165.41 135.92 166.25 136.60Q167.09 137.28 168.69 137.28Z M189.31 140.80L184.27 140.80L184.27 112.80L189.31 112.80L189.31 123.40L190.03 123.40Q190.35 122.76 191.03 122.12Q191.71 121.48 192.85 121.06Q193.99 120.64 195.75 120.64L195.75 120.64Q198.07 120.64 199.81 121.70Q201.55 122.76 202.51 124.62Q203.47 126.48 203.47 128.96L203.47 128.96L203.47 140.80L198.43 140.80L198.43 129.36Q198.43 127.12 197.33 126.00Q196.23 124.88 194.19 124.88L194.19 124.88Q191.87 124.88 190.59 126.42Q189.31 127.96 189.31 130.72L189.31 130.72L189.31 140.80Z" fill="#000" stroke="#000" stroke-width="0.8" stroke-linejoin="round" stroke-linecap="round"></path><g transform="translate(0 10)"><path d="M35.99 280.27L35.99 280.27Q34.49 280.27 33.33 279.73Q32.17 279.20 31.51 278.17Q30.86 277.13 30.86 275.65L30.86 275.65L30.86 275.17L32.89 275.17L32.89 275.65Q32.89 277.06 33.73 277.76Q34.58 278.46 35.99 278.46L35.99 278.46Q37.41 278.46 38.13 277.86Q38.86 277.26 38.86 276.31L38.86 276.31Q38.86 275.69 38.51 275.29Q38.17 274.89 37.54 274.65Q36.92 274.41 36.04 274.20L36.04 274.20L35.34 274.03Q34.07 273.73 33.13 273.28Q32.19 272.84 31.67 272.10Q31.16 271.36 31.16 270.20L31.16 270.20Q31.16 269.02 31.74 268.18Q32.32 267.35 33.35 266.89Q34.37 266.43 35.76 266.43L35.76 266.43Q37.15 266.43 38.24 266.91Q39.33 267.38 39.96 268.31Q40.58 269.25 40.58 270.65L40.58 270.65L40.58 271.34L38.55 271.34L38.55 270.65Q38.55 269.80 38.20 269.26Q37.85 268.73 37.22 268.49Q36.59 268.24 35.76 268.24L35.76 268.24Q34.54 268.24 33.87 268.74Q33.19 269.25 33.19 270.14L33.19 270.14Q33.19 270.75 33.49 271.14Q33.78 271.53 34.35 271.77Q34.92 272.02 35.78 272.21L35.78 272.21L36.48 272.38Q37.77 272.67 38.76 273.11Q39.75 273.56 40.32 274.32Q40.89 275.08 40.89 276.28L40.89 276.28Q40.89 277.47 40.29 278.37Q39.69 279.26 38.59 279.76Q37.49 280.27 35.99 280.27Z M53.26 280L51.21 280L51.21 268.56L47.12 268.56L47.12 266.70L57.35 266.70L57.35 268.56L53.26 268.56L53.26 280Z M65.35 280L63.22 280L67.02 266.70L70.63 266.70L74.41 280L72.30 280L71.43 276.87L66.22 276.87L65.35 280ZM68.67 267.97L66.73 274.96L70.91 274.96L68.98 267.97L68.67 267.97Z M83.27 280L81.22 280L81.22 266.70L86.80 266.70Q88.04 266.70 88.98 267.13Q89.92 267.56 90.44 268.35Q90.96 269.15 90.96 270.25L90.96 270.25L90.96 270.46Q90.96 271.72 90.36 272.47Q89.77 273.22 88.91 273.52L88.91 273.52L88.91 273.82Q89.63 273.86 90.07 274.31Q90.51 274.76 90.51 275.59L90.51 275.59L90.51 280L88.44 280L88.44 275.88Q88.44 275.36 88.17 275.06Q87.90 274.76 87.31 274.76L87.31 274.76L83.27 274.76L83.27 280ZM83.27 268.56L83.27 272.89L86.57 272.89Q87.67 272.89 88.28 272.33Q88.89 271.77 88.89 270.80L88.89 270.80L88.89 270.65Q88.89 269.68 88.29 269.12Q87.69 268.56 86.57 268.56L86.57 268.56L83.27 268.56Z M100.26 280L98.22 280L98.22 266.70L102.17 266.70L105.78 278.63L106.09 278.63L106.09 266.70L108.12 266.70L108.12 280L104.17 280L100.56 268.05L100.26 268.05L100.26 280Z M122.19 280L115.40 280L115.40 278.18L117.19 278.18L117.19 268.52L115.40 268.52L115.40 266.70L122.15 266.70Q123.34 266.70 124.24 267.11Q125.13 267.52 125.63 268.27Q126.14 269.02 126.14 270.04L126.14 270.04L126.14 270.23Q126.14 271.15 125.80 271.74Q125.45 272.32 124.97 272.65Q124.48 272.97 124.05 273.10L124.05 273.10L124.05 273.41Q124.48 273.52 124.99 273.85Q125.49 274.19 125.84 274.77Q126.19 275.36 126.19 276.31L126.19 276.31L126.19 276.50Q126.19 277.61 125.68 278.38Q125.17 279.16 124.27 279.58Q123.36 280 122.19 280L122.19 280ZM119.26 274.24L119.26 278.14L121.94 278.14Q122.96 278.14 123.55 277.64Q124.14 277.15 124.14 276.28L124.14 276.28L124.14 276.11Q124.14 275.23 123.56 274.74Q122.98 274.24 121.94 274.24L121.94 274.24L119.26 274.24ZM119.26 268.56L119.26 272.36L121.94 272.36Q122.91 272.36 123.50 271.88Q124.09 271.39 124.09 270.56L124.09 270.56L124.09 270.37Q124.09 269.53 123.51 269.05Q122.93 268.56 121.94 268.56L121.94 268.56L119.26 268.56Z M141.97 280L133.49 280L133.49 266.70L141.87 266.70L141.87 268.56L135.54 268.56L135.54 272.38L141.34 272.38L141.34 274.24L135.54 274.24L135.54 278.14L141.97 278.14L141.97 280Z M151.17 280L149.11 280L149.11 266.70L154.70 266.70Q155.94 266.70 156.88 267.13Q157.82 267.56 158.34 268.35Q158.86 269.15 158.86 270.25L158.86 270.25L158.86 270.46Q158.86 271.72 158.26 272.47Q157.66 273.22 156.81 273.52L156.81 273.52L156.81 273.82Q157.53 273.86 157.97 274.31Q158.41 274.76 158.41 275.59L158.41 275.59L158.41 280L156.33 280L156.33 275.88Q156.33 275.36 156.07 275.06Q155.80 274.76 155.21 274.76L155.21 274.76L151.17 274.76L151.17 280ZM151.17 268.56L151.17 272.89L154.47 272.89Q155.57 272.89 156.18 272.33Q156.79 271.77 156.79 270.80L156.79 270.80L156.79 270.65Q156.79 269.68 156.19 269.12Q155.59 268.56 154.47 268.56L154.47 268.56L151.17 268.56Z M170.74 280.27L170.74 280.27Q169.31 280.27 168.19 279.65Q167.07 279.03 166.43 277.83Q165.78 276.64 165.78 274.91L165.78 274.91L165.78 271.79Q165.78 269.19 167.21 267.81Q168.63 266.43 171.06 266.43L171.06 266.43Q173.46 266.43 174.75 267.74Q176.04 269.04 176.04 271.22L176.04 271.22L176.04 271.32L174.01 271.32L174.01 271.17Q174.01 270.35 173.68 269.69Q173.36 269.04 172.72 268.66Q172.07 268.28 171.06 268.28L171.06 268.28Q169.54 268.28 168.69 269.20Q167.83 270.12 167.83 271.75L167.83 271.75L167.83 274.95Q167.83 276.56 168.69 277.50Q169.54 278.44 171.08 278.44L171.08 278.44Q172.60 278.44 173.30 277.61Q174.01 276.77 174.01 275.44L174.01 275.44L174.01 275.19L170.44 275.19L170.44 273.43L176.04 273.43L176.04 280L174.14 280L174.14 278.65L173.84 278.65Q173.67 279.01 173.33 279.39Q173 279.77 172.38 280.02Q171.77 280.27 170.74 280.27Z M192.16 280L183.68 280L183.68 266.70L192.06 266.70L192.06 268.56L185.73 268.56L185.73 272.38L191.53 272.38L191.53 274.24L185.73 274.24L185.73 278.14L192.16 278.14L192.16 280Z M201.35 280L199.30 280L199.30 266.70L204.89 266.70Q206.12 266.70 207.06 267.13Q208.00 267.56 208.53 268.35Q209.05 269.15 209.05 270.25L209.05 270.25L209.05 270.46Q209.05 271.72 208.45 272.47Q207.85 273.22 207.00 273.52L207.00 273.52L207.00 273.82Q207.72 273.86 208.16 274.31Q208.59 274.76 208.59 275.59L208.59 275.59L208.59 280L206.52 280L206.52 275.88Q206.52 275.36 206.26 275.06Q205.99 274.76 205.40 274.76L205.40 274.76L201.35 274.76L201.35 280ZM201.35 268.56L201.35 272.89L204.66 272.89Q205.76 272.89 206.37 272.33Q206.98 271.77 206.98 270.80L206.98 270.80L206.98 270.65Q206.98 269.68 206.38 269.12Q205.78 268.56 204.66 268.56L204.66 268.56L201.35 268.56Z" fill="#000" stroke="#000" stroke-width="0.8" stroke-linejoin="round" stroke-linecap="round"></path></g><g transform="translate(0 10)"><path d="M104.50 300.27L104.50 300.27Q103.00 300.27 101.84 299.73Q100.68 299.20 100.03 298.17Q99.37 297.13 99.37 295.65L99.37 295.65L99.37 295.17L101.41 295.17L101.41 295.65Q101.41 297.06 102.25 297.76Q103.10 298.46 104.50 298.46L104.50 298.46Q105.93 298.46 106.65 297.86Q107.37 297.26 107.37 296.31L107.37 296.31Q107.37 295.69 107.03 295.29Q106.69 294.89 106.06 294.65Q105.43 294.41 104.56 294.20L104.56 294.20L103.86 294.03Q102.58 293.73 101.64 293.28Q100.70 292.84 100.19 292.10Q99.68 291.36 99.68 290.20L99.68 290.20Q99.68 289.02 100.26 288.18Q100.84 287.35 101.86 286.89Q102.89 286.43 104.27 286.43L104.27 286.43Q105.66 286.43 106.75 286.91Q107.85 287.38 108.47 288.31Q109.10 289.25 109.10 290.65L109.10 290.65L109.10 291.34L107.07 291.34L107.07 290.65Q107.07 289.80 106.72 289.26Q106.36 288.73 105.74 288.49Q105.11 288.24 104.27 288.24L104.27 288.24Q103.06 288.24 102.38 288.74Q101.71 289.25 101.71 290.14L101.71 290.14Q101.71 290.75 102.00 291.14Q102.30 291.53 102.87 291.77Q103.44 292.02 104.29 292.21L104.29 292.21L105.00 292.38Q106.29 292.67 107.28 293.11Q108.26 293.56 108.83 294.32Q109.40 295.08 109.40 296.28L109.40 296.28Q109.40 297.47 108.81 298.37Q108.21 299.26 107.11 299.76Q106.00 300.27 104.50 300.27Z M125.03 300L116.55 300L116.55 286.70L124.93 286.70L124.93 288.56L118.60 288.56L118.60 292.38L124.40 292.38L124.40 294.24L118.60 294.24L118.60 298.14L125.03 298.14L125.03 300Z M140.65 300L132.17 300L132.17 286.70L140.55 286.70L140.55 288.56L134.22 288.56L134.22 292.38L140.02 292.38L140.02 294.24L134.22 294.24L134.22 298.14L140.65 298.14L140.65 300Z" fill="#000" stroke="#000" stroke-width="0.8" stroke-linejoin="round" stroke-linecap="round"></path></g><svg x="18.81" y="170.00" width="202.38" height="104.00" viewBox="0 0 360 185" overflow="visible"><g transform="translate(14.715 29.690)"><g fill="#000" stroke="#000" stroke-width="1.4" stroke-linejoin="round" stroke-linecap="round"><g transform="translate(64.98,0)"><path d="M22.88 133.59 L22.88 133.59 Q21.33 133.16 20.38 132.82 L20.38 132.82 L19.44 132.56 Q19.61 132.13 19.31 131.78 Q19.01 131.44 18.06 131.35 L18.06 131.35 Q16.77 130.49 15.39 128.95 Q14.02 127.40 12.99 125.76 Q11.95 124.13 11.61 123.36 L11.61 123.36 Q11.18 122.32 11.44 121.98 L11.44 121.98 Q11.52 121.81 11.70 121.72 L11.70 121.72 Q12.38 121.46 13.33 121.03 L13.33 121.03 Q14.28 120.35 15.35 120.00 Q16.43 119.66 17.11 121.12 L17.11 121.12 Q18.23 123.10 20.60 124.47 Q22.96 125.85 26.02 126.11 Q29.07 126.37 32.16 125.08 L32.16 125.08 Q34.23 124.13 34.40 122.45 Q34.57 120.78 33.11 118.54 L33.11 118.54 Q32.85 117.85 32.38 117.42 Q31.91 116.99 31.00 116.30 Q30.10 115.62 28.47 114.07 L28.47 114.07 Q27.18 113.47 26.10 112.95 Q25.03 112.43 23.82 111.83 L23.82 111.83 Q22.45 111.14 20.73 109.90 Q19.01 108.65 17.54 107.14 Q16.08 105.64 15.31 104.26 L15.31 104.26 Q13.93 102.97 13.59 100.69 Q13.24 98.42 13.72 95.84 Q14.19 93.26 15.31 91.19 L15.31 91.19 Q15.82 89.99 17.20 88.05 Q18.58 86.12 20.30 84.05 Q22.02 81.99 23.61 80.31 Q25.20 78.64 26.14 78.03 L26.14 78.03 Q26.83 77.35 27.61 76.57 L27.61 76.57 L28.38 75.88 Q28.47 75.45 28.72 75.45 L28.72 75.45 L28.90 75.45 Q29.33 75.20 30.79 74.59 Q32.25 73.99 33.97 72.36 L33.97 72.36 Q39.73 69.61 43.77 68.62 Q47.82 67.63 50.14 67.63 L50.14 67.63 Q52.29 67.71 54.35 68.79 Q56.42 69.86 57.92 71.50 Q59.43 73.13 59.68 75.20 L59.68 75.20 Q60.29 77.26 59.13 80.14 Q57.96 83.02 55.94 85.56 Q53.92 88.10 51.77 89.30 L51.77 89.30 Q49.36 90.33 47.69 89.56 Q46.01 88.78 46.10 87.15 L46.10 87.15 Q46.10 86.46 46.57 85.52 Q47.04 84.57 49.19 82.16 L49.19 82.16 Q51.94 78.12 52.12 76.40 Q52.29 74.68 50.57 74.42 L50.57 74.42 Q50.05 74.25 48.59 74.51 Q47.13 74.77 45.45 75.15 Q43.77 75.54 42.53 75.97 Q41.28 76.40 41.28 76.57 L41.28 76.57 L41.28 76.83 Q41.28 76.92 41.19 77.00 L41.19 77.00 Q41.19 77.09 40.94 77.00 L40.94 77.00 Q40.76 77.00 39.78 77.56 Q38.79 78.12 37.41 78.98 Q36.03 79.84 34.70 80.74 Q33.37 81.65 32.42 82.33 Q31.48 83.02 31.39 83.19 L31.39 83.19 Q31.22 84.14 29.41 84.91 L29.41 84.91 Q27.69 85.95 26.40 87.84 Q25.11 89.73 23.39 92.65 L23.39 92.65 Q21.93 94.63 21.33 96.91 Q20.73 99.19 21.33 100.57 L21.33 100.57 Q21.76 101.94 23.69 103.28 Q25.63 104.61 28.98 106.59 L28.98 106.59 Q31.91 108.22 34.49 110.03 Q37.07 111.83 38.87 113.51 Q40.68 115.19 41.19 116.30 L41.19 116.30 Q42.23 117.77 42.44 119.66 Q42.66 121.55 42.44 123.31 Q42.23 125.08 41.88 126.19 L41.88 126.19 Q41.28 127.57 40.03 129.12 Q38.79 130.67 37.75 130.58 L37.75 130.58 Q36.81 130.84 36.34 131.18 Q35.86 131.53 35.26 131.78 L35.26 131.78 Q34.66 132.13 32.42 132.60 Q30.19 133.07 27.52 133.38 Q24.85 133.68 22.88 133.59 Z M67.77 126.28 L67.77 126.28 Q65.19 127.74 62.31 127.96 Q59.43 128.17 56.93 127.18 Q54.44 126.19 52.89 124.22 L52.89 124.22 Q52.03 123.10 51.26 120.65 Q50.48 118.20 51.00 113.98 L51.00 113.98 Q51.51 110.03 53.45 105.98 Q55.38 101.94 58.22 98.85 Q61.06 95.75 64.41 94.63 L64.41 94.63 Q65.62 94.20 66.86 93.99 Q68.11 93.77 70.18 93.94 L70.18 93.94 Q72.15 94.20 73.70 94.93 Q75.25 95.66 75.94 96.52 L75.94 96.52 Q77.31 97.90 77.74 99.19 Q78.17 100.48 78.09 101.68 L78.09 101.68 Q77.66 104.44 75.64 107.62 Q73.62 110.80 70.00 112.35 L70.00 112.35 Q68.54 112.95 66.56 113.12 Q64.59 113.29 61.15 112.61 L61.15 112.61 Q59.08 112.18 58.44 113.04 Q57.79 113.90 57.88 116.39 L57.88 116.39 Q58.05 117.94 58.61 119.10 Q59.17 120.26 60.72 120.69 L60.72 120.69 Q62.69 121.03 63.55 120.73 Q64.41 120.43 65.70 119.83 L65.70 119.83 Q66.39 119.40 67.08 118.88 L67.08 118.88 L68.37 117.85 Q68.97 117.34 69.40 117.08 L69.40 117.08 Q69.83 116.73 70.26 116.65 Q70.69 116.56 71.12 116.56 L71.12 116.56 Q72.07 116.65 72.93 117.59 Q73.79 118.54 74.05 119.40 L74.05 119.40 Q74.05 120.09 73.19 121.33 Q72.33 122.58 70.91 123.92 Q69.49 125.25 67.77 126.28 Z M66.65 107.10 L66.65 107.10 Q67.25 106.84 68.41 105.90 Q69.57 104.95 70.52 103.88 Q71.47 102.80 71.47 102.20 L71.47 102.20 Q71.47 101.25 70.22 100.57 Q68.97 99.88 66.99 100.31 L66.99 100.31 Q66.31 100.48 65.36 101.25 Q64.41 102.03 63.47 103.02 Q62.52 104.01 61.83 104.91 Q61.15 105.81 60.89 106.33 L60.89 106.33 Q61.23 106.76 62.26 107.02 Q63.30 107.27 64.54 107.27 Q65.79 107.27 66.65 107.10 Z M96.49 126.28 L96.49 126.28 Q93.91 127.74 91.03 127.96 Q88.15 128.17 85.66 127.18 Q83.16 126.19 81.61 124.22 L81.61 124.22 Q80.75 123.10 79.98 120.65 Q79.21 118.20 79.72 113.98 L79.72 113.98 Q80.24 110.03 82.17 105.98 Q84.11 101.94 86.95 98.85 Q89.78 95.75 93.14 94.63 L93.14 94.63 Q94.34 94.20 95.59 93.99 Q96.84 93.77 98.90 93.94 L98.90 93.94 Q100.88 94.20 102.43 94.93 Q103.97 95.66 104.66 96.52 L104.66 96.52 Q106.04 97.90 106.47 99.19 Q106.90 100.48 106.81 101.68 L106.81 101.68 Q106.38 104.44 104.36 107.62 Q102.34 110.80 98.73 112.35 L98.73 112.35 Q97.27 112.95 95.29 113.12 Q93.31 113.29 89.87 112.61 L89.87 112.61 Q87.81 112.18 87.16 113.04 Q86.52 113.90 86.60 116.39 L86.60 116.39 Q86.77 117.94 87.33 119.10 Q87.89 120.26 89.44 120.69 L89.44 120.69 Q91.42 121.03 92.28 120.73 Q93.14 120.43 94.43 119.83 L94.43 119.83 Q95.12 119.40 95.80 118.88 L95.80 118.88 L97.09 117.85 Q97.70 117.34 98.13 117.08 L98.13 117.08 Q98.56 116.73 98.99 116.65 Q99.42 116.56 99.85 116.56 L99.85 116.56 Q100.79 116.65 101.65 117.59 Q102.51 118.54 102.77 119.40 L102.77 119.40 Q102.77 120.09 101.91 121.33 Q101.05 122.58 99.63 123.92 Q98.21 125.25 96.49 126.28 Z M95.37 107.10 L95.37 107.10 Q95.98 106.84 97.14 105.90 Q98.30 104.95 99.24 103.88 Q100.19 102.80 100.19 102.20 L100.19 102.20 Q100.19 101.25 98.94 100.57 Q97.70 99.88 95.72 100.31 L95.72 100.31 Q95.03 100.48 94.08 101.25 Q93.14 102.03 92.19 103.02 Q91.25 104.01 90.56 104.91 Q89.87 105.81 89.61 106.33 L89.61 106.33 Q89.96 106.76 90.99 107.02 Q92.02 107.27 93.27 107.27 Q94.51 107.27 95.37 107.10 Z M118.42 145.20 L118.42 145.20 Q116.01 146.15 113.39 144.90 Q110.77 143.65 108.88 140.99 L108.88 140.99 Q108.53 140.47 107.84 139.14 Q107.16 137.80 106.51 136.26 Q105.87 134.71 105.56 133.59 Q105.26 132.47 105.52 132.30 L105.52 132.30 Q105.87 131.35 107.07 131.18 Q108.27 131.01 109.48 131.31 Q110.68 131.61 110.85 132.13 L110.85 132.13 Q111.11 132.73 111.37 133.38 Q111.63 134.02 112.01 134.58 Q112.40 135.14 112.75 135.57 L112.75 135.57 Q113.69 137.03 114.81 137.59 Q115.93 138.15 116.53 137.72 L116.53 137.72 Q117.99 136.60 118.72 135.09 Q119.45 133.59 120.66 129.81 L120.66 129.81 Q121.60 126.62 122.29 124.30 Q122.98 121.98 123.75 120.00 L123.75 120.00 Q124.01 118.97 124.44 118.20 L124.44 118.20 Q124.53 118.02 124.61 117.85 L124.61 117.85 Q123.41 118.71 122.46 119.57 L122.46 119.57 Q121.17 120.78 118.94 121.72 L118.94 121.72 Q118.42 122.32 116.40 122.45 Q114.38 122.58 112.49 121.98 L112.49 121.98 Q111.28 121.29 110.55 120.56 Q109.82 119.83 109.35 118.88 Q108.88 117.94 108.36 116.65 L108.36 116.65 Q107.76 115.36 108.19 112.43 Q108.62 109.51 109.74 106.59 L109.74 106.59 Q110.77 104.44 112.75 101.94 Q114.72 99.45 116.96 97.43 Q119.20 95.41 121.00 94.89 L121.00 94.89 Q121.69 94.55 123.41 94.07 Q125.13 93.60 126.68 94.03 L126.68 94.03 Q128.14 94.20 128.91 94.67 Q129.69 95.15 131.41 96.61 L131.41 96.61 Q132.53 97.73 134.16 99.49 Q135.79 101.25 136.22 102.46 L136.22 102.46 Q136.83 103.75 136.48 105.25 Q136.14 106.76 135.28 107.88 L135.28 107.88 Q134.50 108.99 133.64 110.11 Q132.78 111.23 132.35 113.21 L132.35 113.21 Q131.92 115.79 130.72 119.01 Q129.52 122.24 128.83 124.99 L128.83 124.99 L127.45 130.32 Q125.30 137.63 122.72 140.94 Q120.14 144.25 118.42 145.20 Z M116.62 115.62 L116.62 115.62 Q118.34 115.53 119.58 115.23 Q120.83 114.93 121.95 113.85 Q123.07 112.78 124.53 110.54 L124.53 110.54 Q125.99 108.48 126.59 106.76 Q127.19 105.04 127.02 102.89 L127.02 102.89 Q126.94 101.51 126.25 101.08 Q125.56 100.65 124.44 100.82 L124.44 100.82 Q122.81 101.08 121.52 102.16 Q120.23 103.23 118.51 105.47 L118.51 105.47 Q117.22 107.19 116.36 109.60 L116.36 109.60 Q115.50 112.18 115.63 113.72 Q115.76 115.27 116.62 115.62 Z M143.88 138.41 L143.88 138.41 Q143.36 138.75 141.56 137.59 Q139.75 136.43 138.55 135.05 L138.55 135.05 Q137.94 134.36 137.77 133.59 Q137.60 132.82 137.86 130.67 L137.86 130.67 Q138.20 129.72 138.24 128.86 Q138.29 128.00 138.29 127.66 L138.29 127.66 Q138.29 127.14 138.59 125.25 Q138.89 123.36 139.23 121.25 Q139.58 119.14 139.84 118.02 L139.84 118.02 Q139.84 117.94 139.96 117.42 Q140.09 116.91 140.18 116.65 L140.18 116.65 Q140.35 115.87 140.61 114.76 Q140.87 113.64 141.13 111.75 L141.13 111.75 Q141.81 109.60 142.29 107.49 Q142.76 105.38 142.76 104.61 L142.76 104.61 Q142.76 103.06 143.96 102.37 L143.96 102.37 Q144.05 101.94 144.48 101.04 Q144.91 100.14 145.25 99.53 L145.25 99.53 Q146.97 94.63 148.09 91.71 Q149.21 88.78 150.41 86.63 L150.41 86.63 Q150.93 85.17 151.57 83.62 Q152.22 82.08 152.91 81.22 L152.91 81.22 Q153.51 80.01 155.01 78.25 Q156.52 76.49 158.24 74.85 Q159.96 73.22 160.99 72.44 L160.99 72.44 Q162.88 71.50 164.52 70.90 Q166.15 70.29 167.96 70.29 L167.96 70.29 Q169.59 70.29 170.84 71.03 Q172.09 71.76 174.58 73.99 L174.58 73.99 Q175.44 75.11 175.44 76.14 Q175.44 77.17 175.01 77.86 L175.01 77.86 Q174.41 79.24 173.20 81.26 Q172.00 83.28 170.88 84.87 Q169.76 86.46 169.25 86.55 L169.25 86.55 Q168.22 87.15 167.10 86.89 Q165.98 86.63 165.98 85.34 L165.98 85.34 Q165.98 84.74 166.07 84.23 L166.07 84.23 L166.07 83.71 Q166.32 82.59 166.71 81.73 Q167.10 80.87 167.44 80.27 L167.44 80.27 Q168.13 79.15 167.83 78.12 Q167.53 77.09 165.64 77.26 L165.64 77.26 Q165.38 77.43 164.65 78.08 Q163.92 78.72 163.10 79.54 Q162.28 80.36 161.68 81.09 Q161.08 81.82 161.08 82.08 L161.08 82.08 L160.65 82.94 Q160.13 83.88 159.19 85.00 L159.19 85.00 Q158.58 85.86 158.15 86.63 Q157.72 87.41 157.72 87.84 L157.72 87.84 Q157.72 88.18 157.64 88.44 Q157.55 88.70 157.21 88.70 L157.21 88.70 L156.95 89.56 Q156.61 90.42 155.92 91.62 L155.92 91.62 Q155.57 92.48 155.19 93.21 Q154.80 93.94 154.46 94.29 L154.46 94.29 L154.37 94.46 L154.03 95.41 Q153.60 96.44 153.17 97.47 Q152.74 98.50 152.74 98.67 L152.74 98.67 Q152.74 99.02 153.77 99.02 Q154.80 99.02 156.26 98.72 Q157.72 98.42 159.10 98.07 L159.10 98.07 Q160.30 97.73 160.82 97.73 Q161.34 97.73 162.45 98.07 L162.45 98.07 Q163.14 98.50 163.57 99.58 Q164.00 100.65 164.22 101.73 Q164.43 102.80 164.26 103.32 L164.26 103.32 Q164.17 103.66 162.32 104.26 Q160.48 104.87 158.67 105.21 L158.67 105.21 Q157.12 105.55 155.19 105.94 Q153.25 106.33 151.79 106.72 Q150.33 107.10 150.24 107.45 L150.24 107.45 Q149.90 107.45 149.68 107.88 Q149.47 108.31 149.47 108.65 L149.47 108.65 Q149.47 109.77 149.04 110.46 L149.04 110.46 Q148.87 110.97 148.48 112.56 Q148.09 114.15 147.70 116.00 Q147.32 117.85 147.02 119.44 Q146.72 121.03 146.72 121.55 L146.72 121.55 Q146.20 122.15 146.11 123.06 Q146.03 123.96 146.03 124.65 L146.03 124.65 Q145.68 125.33 145.60 125.89 Q145.51 126.45 145.51 126.80 L145.51 126.80 L145.51 127.14 Q145.51 127.40 145.43 127.66 L145.43 127.66 Q145.34 128.52 145.21 129.94 Q145.08 131.35 145.08 132.73 L145.08 132.73 L144.82 135.22 Q144.74 136.34 144.52 137.16 Q144.31 137.98 143.88 138.41 Z M186.02 127.83 L186.02 127.83 Q185.16 126.97 184.64 125.46 Q184.13 123.96 183.61 121.98 L183.61 121.98 Q183.44 121.29 183.48 120.43 Q183.52 119.57 183.44 119.06 L183.44 119.06 Q183.18 119.66 182.62 120.60 Q182.06 121.55 181.55 121.98 L181.55 121.98 Q181.20 122.32 180.00 123.31 Q178.79 124.30 177.59 124.90 L177.59 124.90 Q174.75 126.71 172.56 126.58 Q170.37 126.45 168.73 124.39 L168.73 124.39 Q167.36 123.27 166.50 121.55 Q165.64 119.83 166.15 117.42 L166.15 117.42 Q166.32 114.41 167.01 111.53 Q167.70 108.65 169.85 103.83 L169.85 103.83 Q171.66 100.31 172.60 98.33 Q173.55 96.35 173.81 96.01 L173.81 96.01 Q175.10 95.58 176.99 96.05 Q178.88 96.52 179.05 97.73 L179.05 97.73 Q179.57 98.59 179.05 100.95 Q178.54 103.32 176.99 106.33 L176.99 106.33 Q175.78 109.25 174.71 112.00 Q173.63 114.76 173.42 116.65 Q173.20 118.54 174.41 118.97 L174.41 118.97 Q175.18 119.40 176.69 118.88 Q178.19 118.37 180.26 115.79 Q182.32 113.21 184.64 107.62 L184.64 107.62 Q185.33 105.90 185.67 104.56 Q186.02 103.23 186.10 101.60 L186.10 101.60 Q185.93 100.57 186.66 99.45 Q187.39 98.33 188.43 97.73 L188.43 97.73 Q188.77 97.30 189.37 96.87 L189.37 96.87 Q189.80 96.61 189.97 96.78 L189.97 96.78 Q190.06 96.78 190.15 96.95 L190.15 96.95 L191.52 96.87 Q191.87 96.78 192.30 97.56 Q192.73 98.33 193.16 98.67 L193.16 98.67 Q194.10 99.45 194.02 102.03 Q193.93 104.61 191.95 109.25 L191.95 109.25 Q190.32 112.78 189.76 114.58 Q189.20 116.39 189.11 118.11 L189.11 118.11 Q189.11 119.66 189.37 120.73 Q189.63 121.81 190.92 122.93 L190.92 122.93 Q191.87 123.53 191.99 124.95 Q192.12 126.37 192.04 127.40 L192.04 127.40 Q191.87 128.17 190.70 128.47 Q189.54 128.77 188.21 128.60 Q186.88 128.43 186.02 127.83 Z M197.80 126.54 L197.80 126.54 Q197.11 125.85 196.81 124.47 Q196.51 123.10 196.60 121.77 Q196.68 120.43 197.03 119.74 L197.03 119.74 Q197.03 119.06 197.24 118.67 Q197.46 118.28 197.37 117.94 L197.37 117.94 Q197.28 117.59 197.54 116.73 Q197.80 115.87 198.06 115.10 L198.06 115.10 Q198.66 113.72 199.43 111.53 Q200.21 109.34 200.98 107.06 Q201.76 104.78 202.27 103.10 Q202.79 101.43 202.87 101.08 L202.87 101.08 Q202.87 100.05 204.25 99.96 L204.25 99.96 Q205.28 99.62 206.74 100.82 Q208.21 102.03 209.07 103.40 L209.07 103.40 Q209.75 104.09 209.58 105.21 Q209.41 106.33 208.46 108.39 L208.46 108.39 Q208.12 109.08 207.65 110.67 Q207.17 112.26 207.00 113.29 L207.00 113.29 Q206.66 113.98 206.18 115.23 Q205.71 116.48 205.37 117.59 L205.37 117.59 Q205.20 118.02 205.02 119.19 Q204.85 120.35 204.59 121.55 Q204.34 122.75 203.91 123.44 L203.91 123.44 Q203.13 126.97 201.20 127.57 Q199.26 128.17 197.80 126.54 Z " fill="#000"></path><defs><mask id="hm2k" maskUnits="userSpaceOnUse"><path d="M0,3 C0,-3 -9,-6 -9,-13 C-9,-19 -2,-20 0,-14 C2,-20 9,-19 9,-13 C9,-6 0,-3 0,3 Z" fill="#fff"></path><path d="M-7.5,-8 q2.5,-3.4 5,0 t5,0 t5,0" fill="none" stroke="#000" stroke-width="2.1" stroke-linecap="round"></path></mask></defs><g transform="translate(210.40,95.23) rotate(12) scale(0.940)"><path d="M0,3 C0,-3 -9,-6 -9,-13 C-9,-19 -2,-20 0,-14 C2,-20 9,-19 9,-13 C9,-6 0,-3 0,3 Z" fill="#000" mask="url(#hm2k)"></path></g></g></g></g></svg></mask></defs><g mask="url(#ko)"><path d="M25.2,-72.2 L22.6,-75 L20.5,-75 L14.9,-72.5 L6.9,-51.7 L5,-48.1 L2.9,-46.5 L1,-41.4 L-0.9,-40 L-4.5,-32.7 L-4,-29.4 L-7.3,-27.5 L-7,-25.3 L-8.8,-21.6 L-11.1,-11.2 L-14.8,-7 L-14.8,-3.5 L-17.7,-2.1 L-17.1,-0.7 L-17.6,1 L-20.3,3 L-20.4,4.7 L-22.3,6.7 L-22.8,8.6 L-22,10.8 L-24.2,12.6 L-25.2,16 L-24.7,18.8 L-22,21.4 L-20.1,21 L-17.8,18.6 L-16.3,19 L-16.8,22.5 L-14.6,25.9 L-14.1,31.2 L-9.1,36.6 L-7.3,41.9 L-7.8,45.3 L-11.2,47.9 L-11.9,51.8 L-12.7,52.3 L-13,61.3 L-14,63.5 L-12.8,67 L-0.2,75 L6.5,74 L8,74.9 L10.3,73.9 L10.6,72.7 L11.5,73.2 L13,69.8 L11.7,66.1 L12.5,65.6 L12,63.7 L13.4,62 L13.6,59.1 L11,34.9 L9.7,32.1 L10.5,27.3 L10.2,17.4 L11.2,11.5 L10.7,0.7 L9.1,-9.1 L10,-17.5 L15.3,-32.9 L15.9,-38 L20,-52.1 L25.1,-59.7 L24.5,-68.4 Z" fill="#aac072" fill-opacity="0.13" fill-rule="evenodd" transform="translate(120 178) scale(2.00000) translate(0.000 0.000)"></path><path d="M25.2,-72.2 L22.6,-75 L20.5,-75 L14.9,-72.5 L6.9,-51.7 L5,-48.1 L2.9,-46.5 L1,-41.4 L-0.9,-40 L-4.5,-32.7 L-4,-29.4 L-7.3,-27.5 L-7,-25.3 L-8.8,-21.6 L-11.1,-11.2 L-14.8,-7 L-14.8,-3.5 L-17.7,-2.1 L-17.1,-0.7 L-17.6,1 L-20.3,3 L-20.4,4.7 L-22.3,6.7 L-22.8,8.6 L-22,10.8 L-24.2,12.6 L-25.2,16 L-24.7,18.8 L-22,21.4 L-20.1,21 L-17.8,18.6 L-16.3,19 L-16.8,22.5 L-14.6,25.9 L-14.1,31.2 L-9.1,36.6 L-7.3,41.9 L-7.8,45.3 L-11.2,47.9 L-11.9,51.8 L-12.7,52.3 L-13,61.3 L-14,63.5 L-12.8,67 L-0.2,75 L6.5,74 L8,74.9 L10.3,73.9 L10.6,72.7 L11.5,73.2 L13,69.8 L11.7,66.1 L12.5,65.6 L12,63.7 L13.4,62 L13.6,59.1 L11,34.9 L9.7,32.1 L10.5,27.3 L10.2,17.4 L11.2,11.5 L10.7,0.7 L9.1,-9.1 L10,-17.5 L15.3,-32.9 L15.9,-38 L20,-52.1 L25.1,-59.7 L24.5,-68.4 Z" fill="none" stroke="#aac072" stroke-opacity="0.42" stroke-width="0.85" stroke-linejoin="round" stroke-linecap="round" transform="translate(120 178) scale(2.00000) translate(0.000 0.000)"></path></g><path d="M49.49 96L44.45 96L44.45 76.16L49.41 76.16L49.41 78.32L50.13 78.32Q50.65 77.32 51.85 76.58Q53.05 75.84 55.01 75.84L55.01 75.84Q57.13 75.84 58.41 76.66Q59.69 77.48 60.37 78.80L60.37 78.80L61.09 78.80Q61.77 77.52 63.01 76.68Q64.25 75.84 66.53 75.84L66.53 75.84Q68.37 75.84 69.87 76.62Q71.37 77.40 72.27 78.98Q73.17 80.56 73.17 82.96L73.17 82.96L73.17 96L68.13 96L68.13 83.32Q68.13 81.68 67.29 80.86Q66.45 80.04 64.93 80.04L64.93 80.04Q63.21 80.04 62.27 81.14Q61.33 82.24 61.33 84.28L61.33 84.28L61.33 96L56.29 96L56.29 83.32Q56.29 81.68 55.45 80.86Q54.61 80.04 53.09 80.04L53.09 80.04Q51.37 80.04 50.43 81.14Q49.49 82.24 49.49 84.28L49.49 84.28L49.49 96Z M87.15 96.56L87.15 96.56Q84.19 96.56 81.93 95.30Q79.67 94.04 78.41 91.74Q77.15 89.44 77.15 86.32L77.15 86.32L77.15 85.84Q77.15 82.72 78.39 80.42Q79.63 78.12 81.87 76.86Q84.11 75.60 87.07 75.60L87.07 75.60Q89.99 75.60 92.15 76.90Q94.31 78.20 95.51 80.50Q96.71 82.80 96.71 85.84L96.71 85.84L96.71 87.56L82.27 87.56Q82.35 89.60 83.79 90.88Q85.23 92.16 87.31 92.16L87.31 92.16Q89.43 92.16 90.43 91.24Q91.43 90.32 91.95 89.20L91.95 89.20L96.07 91.36Q95.51 92.40 94.45 93.62Q93.39 94.84 91.63 95.70Q89.87 96.56 87.15 96.56ZM82.31 83.80L82.31 83.80L91.59 83.80Q91.43 82.08 90.21 81.04Q88.99 80 87.03 80L87.03 80Q84.99 80 83.79 81.04Q82.59 82.08 82.31 83.80Z M105.73 96L100.69 96L100.69 76.16L105.73 76.16L105.73 96ZM103.21 73.84L103.21 73.84Q101.85 73.84 100.91 72.96Q99.97 72.08 99.97 70.64L99.97 70.64Q99.97 69.20 100.91 68.32Q101.85 67.44 103.21 67.44L103.21 67.44Q104.61 67.44 105.53 68.32Q106.45 69.20 106.45 70.64L106.45 70.64Q106.45 72.08 105.53 72.96Q104.61 73.84 103.21 73.84Z  M130.05 96.56L130.05 96.56Q126.81 96.56 124.33 95.40Q121.85 94.24 120.45 92.08Q119.05 89.92 119.05 86.88L119.05 86.88L119.05 85.76L124.25 85.76L124.25 86.88Q124.25 89.40 125.81 90.66Q127.37 91.92 130.05 91.92L130.05 91.92Q132.77 91.92 134.11 90.84Q135.45 89.76 135.45 88.08L135.45 88.08Q135.45 86.92 134.79 86.20Q134.13 85.48 132.87 85.02Q131.61 84.56 129.81 84.16L129.81 84.16L128.89 83.96Q126.01 83.32 123.95 82.34Q121.89 81.36 120.79 79.76Q119.69 78.16 119.69 75.60L119.69 75.60Q119.69 73.04 120.91 71.22Q122.13 69.40 124.35 68.42Q126.57 67.44 129.57 67.44L129.57 67.44Q132.57 67.44 134.91 68.46Q137.25 69.48 138.59 71.50Q139.93 73.52 139.93 76.56L139.93 76.56L139.93 77.76L134.73 77.76L134.73 76.56Q134.73 74.96 134.11 73.98Q133.49 73 132.33 72.54Q131.17 72.08 129.57 72.08L129.57 72.08Q127.17 72.08 126.03 72.98Q124.89 73.88 124.89 75.44L124.89 75.44Q124.89 76.48 125.43 77.20Q125.97 77.92 127.05 78.40Q128.13 78.88 129.81 79.24L129.81 79.24L130.73 79.44Q133.73 80.08 135.95 81.08Q138.17 82.08 139.41 83.72Q140.65 85.36 140.65 87.92L140.65 87.92Q140.65 90.48 139.35 92.42Q138.05 94.36 135.67 95.46Q133.29 96.56 130.05 96.56Z M153.27 96.56L153.27 96.56Q150.31 96.56 148.05 95.30Q145.79 94.04 144.53 91.74Q143.27 89.44 143.27 86.32L143.27 86.32L143.27 85.84Q143.27 82.72 144.51 80.42Q145.75 78.12 147.99 76.86Q150.23 75.60 153.19 75.60L153.19 75.60Q156.11 75.60 158.27 76.90Q160.43 78.20 161.63 80.50Q162.83 82.80 162.83 85.84L162.83 85.84L162.83 87.56L148.39 87.56Q148.47 89.60 149.91 90.88Q151.35 92.16 153.43 92.16L153.43 92.16Q155.55 92.16 156.55 91.24Q157.55 90.32 158.07 89.20L158.07 89.20L162.19 91.36Q161.63 92.40 160.57 93.62Q159.51 94.84 157.75 95.70Q155.99 96.56 153.27 96.56ZM148.43 83.80L148.43 83.80L157.71 83.80Q157.55 82.08 156.33 81.04Q155.11 80 153.15 80L153.15 80Q151.11 80 149.91 81.04Q148.71 82.08 148.43 83.80Z M175.85 96.56L175.85 96.56Q172.89 96.56 170.63 95.30Q168.37 94.04 167.11 91.74Q165.85 89.44 165.85 86.32L165.85 86.32L165.85 85.84Q165.85 82.72 167.09 80.42Q168.33 78.12 170.57 76.86Q172.81 75.60 175.77 75.60L175.77 75.60Q178.69 75.60 180.85 76.90Q183.01 78.20 184.21 80.50Q185.41 82.80 185.41 85.84L185.41 85.84L185.41 87.56L170.97 87.56Q171.05 89.60 172.49 90.88Q173.93 92.16 176.01 92.16L176.01 92.16Q178.13 92.16 179.13 91.24Q180.13 90.32 180.65 89.20L180.65 89.20L184.77 91.36Q184.21 92.40 183.15 93.62Q182.09 94.84 180.33 95.70Q178.57 96.56 175.85 96.56ZM171.01 83.80L171.01 83.80L180.29 83.80Q180.13 82.08 178.91 81.04Q177.69 80 175.73 80L175.73 80Q173.69 80 172.49 81.04Q171.29 82.08 171.01 83.80Z M191.71 101.88L189.75 101.88L189.75 99.16L191.31 99.16Q193.15 99.16 193.15 97.32L193.15 97.32L193.15 96.04L192.47 96.04Q190.87 96.04 189.81 95.08Q188.75 94.12 188.75 92.64L188.75 92.64Q188.75 91.04 189.81 90.04Q190.87 89.04 192.47 89.04L192.47 89.04Q194.11 89.04 195.15 90.06Q196.19 91.08 196.19 92.80L196.19 92.80L196.19 97.40Q196.19 101.88 191.71 101.88L191.71 101.88Z" fill="#f1ece2"></path><path d="M41.73 140.80L36.69 140.80L36.69 120.96L41.65 120.96L41.65 123.12L42.37 123.12Q42.89 122.12 44.09 121.38Q45.29 120.64 47.25 120.64L47.25 120.64Q49.37 120.64 50.65 121.46Q51.93 122.28 52.61 123.60L52.61 123.60L53.33 123.60Q54.01 122.32 55.25 121.48Q56.49 120.64 58.77 120.64L58.77 120.64Q60.61 120.64 62.11 121.42Q63.61 122.20 64.51 123.78Q65.41 125.36 65.41 127.76L65.41 127.76L65.41 140.80L60.37 140.80L60.37 128.12Q60.37 126.48 59.53 125.66Q58.69 124.84 57.17 124.84L57.17 124.84Q55.45 124.84 54.51 125.94Q53.57 127.04 53.57 129.08L53.57 129.08L53.57 140.80L48.53 140.80L48.53 128.12Q48.53 126.48 47.69 125.66Q46.85 124.84 45.33 124.84L45.33 124.84Q43.61 124.84 42.67 125.94Q41.73 127.04 41.73 129.08L41.73 129.08L41.73 140.80Z M79.39 141.36L79.39 141.36Q76.43 141.36 74.17 140.10Q71.91 138.84 70.65 136.54Q69.39 134.24 69.39 131.12L69.39 131.12L69.39 130.64Q69.39 127.52 70.63 125.22Q71.87 122.92 74.11 121.66Q76.35 120.40 79.31 120.40L79.31 120.40Q82.23 120.40 84.39 121.70Q86.55 123.00 87.75 125.30Q88.95 127.60 88.95 130.64L88.95 130.64L88.95 132.36L74.51 132.36Q74.59 134.40 76.03 135.68Q77.47 136.96 79.55 136.96L79.55 136.96Q81.67 136.96 82.67 136.04Q83.67 135.12 84.19 134L84.19 134L88.31 136.16Q87.75 137.20 86.69 138.42Q85.63 139.64 83.87 140.50Q82.11 141.36 79.39 141.36ZM74.55 128.60L74.55 128.60L83.83 128.60Q83.67 126.88 82.45 125.84Q81.23 124.80 79.27 124.80L79.27 124.80Q77.23 124.80 76.03 125.84Q74.83 126.88 74.55 128.60Z M97.97 140.80L92.93 140.80L92.93 120.96L97.97 120.96L97.97 140.80ZM95.45 118.64L95.45 118.64Q94.09 118.64 93.15 117.76Q92.21 116.88 92.21 115.44L92.21 115.44Q92.21 114.00 93.15 113.12Q94.09 112.24 95.45 112.24L95.45 112.24Q96.85 112.24 97.77 113.12Q98.69 114.00 98.69 115.44L98.69 115.44Q98.69 116.88 97.77 117.76Q96.85 118.64 95.45 118.64Z  M117.85 140.80L112.57 140.80L112.57 112.80L124.73 112.80Q127.37 112.80 129.33 113.72Q131.29 114.64 132.37 116.32Q133.45 118.00 133.45 120.28L133.45 120.28L133.45 120.76Q133.45 123.28 132.25 124.84Q131.05 126.40 129.29 127.12L129.29 127.12L129.29 127.84Q130.89 127.92 131.77 128.94Q132.65 129.96 132.65 131.64L132.65 131.64L132.65 140.80L127.37 140.80L127.37 132.40Q127.37 131.44 126.87 130.84Q126.37 130.24 125.21 130.24L125.21 130.24L117.85 130.24L117.85 140.80ZM117.85 117.60L117.85 125.44L124.17 125.44Q126.05 125.44 127.11 124.42Q128.17 123.40 128.17 121.72L128.17 121.72L128.17 121.32Q128.17 119.64 127.13 118.62Q126.09 117.60 124.17 117.60L124.17 117.60L117.85 117.60Z M145.07 141.12L145.07 141.12Q142.75 141.12 141.01 140.06Q139.27 139 138.31 137.12Q137.35 135.24 137.35 132.80L137.35 132.80L137.35 120.96L142.39 120.96L142.39 132.40Q142.39 134.64 143.49 135.76Q144.59 136.88 146.63 136.88L146.63 136.88Q148.95 136.88 150.23 135.34Q151.51 133.80 151.51 131.04L151.51 131.04L151.51 120.96L156.55 120.96L156.55 140.80L151.59 140.80L151.59 138.20L150.87 138.20Q150.39 139.20 149.07 140.16Q147.75 141.12 145.07 141.12Z M167.81 141.36L167.81 141.36Q165.69 141.36 164.01 140.62Q162.33 139.88 161.35 138.46Q160.37 137.04 160.37 135L160.37 135Q160.37 132.96 161.35 131.58Q162.33 130.20 164.07 129.50Q165.81 128.80 168.05 128.80L168.05 128.80L173.49 128.80L173.49 127.68Q173.49 126.28 172.61 125.38Q171.73 124.48 169.81 124.48L169.81 124.48Q167.93 124.48 167.01 125.34Q166.09 126.20 165.81 127.56L165.81 127.56L161.17 126.00Q161.65 124.48 162.71 123.22Q163.77 121.96 165.55 121.18Q167.33 120.40 169.89 120.40L169.89 120.40Q173.81 120.40 176.09 122.36Q178.37 124.32 178.37 128.04L178.37 128.04L178.37 135.44Q178.37 136.64 179.49 136.64L179.49 136.64L181.09 136.64L181.09 140.80L177.73 140.80Q176.25 140.80 175.29 140.08Q174.33 139.36 174.33 138.16L174.33 138.16L174.33 138.12L173.57 138.12Q173.41 138.60 172.85 139.38Q172.29 140.16 171.09 140.76Q169.89 141.36 167.81 141.36ZM168.69 137.28L168.69 137.28Q170.81 137.28 172.15 136.10Q173.49 134.92 173.49 132.96L173.49 132.96L173.49 132.56L168.41 132.56Q167.01 132.56 166.21 133.16Q165.41 133.76 165.41 134.84L165.41 134.84Q165.41 135.92 166.25 136.60Q167.09 137.28 168.69 137.28Z M189.31 140.80L184.27 140.80L184.27 112.80L189.31 112.80L189.31 123.40L190.03 123.40Q190.35 122.76 191.03 122.12Q191.71 121.48 192.85 121.06Q193.99 120.64 195.75 120.64L195.75 120.64Q198.07 120.64 199.81 121.70Q201.55 122.76 202.51 124.62Q203.47 126.48 203.47 128.96L203.47 128.96L203.47 140.80L198.43 140.80L198.43 129.36Q198.43 127.12 197.33 126.00Q196.23 124.88 194.19 124.88L194.19 124.88Q191.87 124.88 190.59 126.42Q189.31 127.96 189.31 130.72L189.31 130.72L189.31 140.80Z" fill="#f1ece2"></path><svg x="18.81" y="170.00" width="202.38" height="104.00" viewBox="0 0 360 185" overflow="visible"><g transform="translate(14.715 29.690)"><g transform="translate(64.98,0)"><path d="M22.88 133.59 L22.88 133.59 Q21.33 133.16 20.38 132.82 L20.38 132.82 L19.44 132.56 Q19.61 132.13 19.31 131.78 Q19.01 131.44 18.06 131.35 L18.06 131.35 Q16.77 130.49 15.39 128.95 Q14.02 127.40 12.99 125.76 Q11.95 124.13 11.61 123.36 L11.61 123.36 Q11.18 122.32 11.44 121.98 L11.44 121.98 Q11.52 121.81 11.70 121.72 L11.70 121.72 Q12.38 121.46 13.33 121.03 L13.33 121.03 Q14.28 120.35 15.35 120.00 Q16.43 119.66 17.11 121.12 L17.11 121.12 Q18.23 123.10 20.60 124.47 Q22.96 125.85 26.02 126.11 Q29.07 126.37 32.16 125.08 L32.16 125.08 Q34.23 124.13 34.40 122.45 Q34.57 120.78 33.11 118.54 L33.11 118.54 Q32.85 117.85 32.38 117.42 Q31.91 116.99 31.00 116.30 Q30.10 115.62 28.47 114.07 L28.47 114.07 Q27.18 113.47 26.10 112.95 Q25.03 112.43 23.82 111.83 L23.82 111.83 Q22.45 111.14 20.73 109.90 Q19.01 108.65 17.54 107.14 Q16.08 105.64 15.31 104.26 L15.31 104.26 Q13.93 102.97 13.59 100.69 Q13.24 98.42 13.72 95.84 Q14.19 93.26 15.31 91.19 L15.31 91.19 Q15.82 89.99 17.20 88.05 Q18.58 86.12 20.30 84.05 Q22.02 81.99 23.61 80.31 Q25.20 78.64 26.14 78.03 L26.14 78.03 Q26.83 77.35 27.61 76.57 L27.61 76.57 L28.38 75.88 Q28.47 75.45 28.72 75.45 L28.72 75.45 L28.90 75.45 Q29.33 75.20 30.79 74.59 Q32.25 73.99 33.97 72.36 L33.97 72.36 Q39.73 69.61 43.77 68.62 Q47.82 67.63 50.14 67.63 L50.14 67.63 Q52.29 67.71 54.35 68.79 Q56.42 69.86 57.92 71.50 Q59.43 73.13 59.68 75.20 L59.68 75.20 Q60.29 77.26 59.13 80.14 Q57.96 83.02 55.94 85.56 Q53.92 88.10 51.77 89.30 L51.77 89.30 Q49.36 90.33 47.69 89.56 Q46.01 88.78 46.10 87.15 L46.10 87.15 Q46.10 86.46 46.57 85.52 Q47.04 84.57 49.19 82.16 L49.19 82.16 Q51.94 78.12 52.12 76.40 Q52.29 74.68 50.57 74.42 L50.57 74.42 Q50.05 74.25 48.59 74.51 Q47.13 74.77 45.45 75.15 Q43.77 75.54 42.53 75.97 Q41.28 76.40 41.28 76.57 L41.28 76.57 L41.28 76.83 Q41.28 76.92 41.19 77.00 L41.19 77.00 Q41.19 77.09 40.94 77.00 L40.94 77.00 Q40.76 77.00 39.78 77.56 Q38.79 78.12 37.41 78.98 Q36.03 79.84 34.70 80.74 Q33.37 81.65 32.42 82.33 Q31.48 83.02 31.39 83.19 L31.39 83.19 Q31.22 84.14 29.41 84.91 L29.41 84.91 Q27.69 85.95 26.40 87.84 Q25.11 89.73 23.39 92.65 L23.39 92.65 Q21.93 94.63 21.33 96.91 Q20.73 99.19 21.33 100.57 L21.33 100.57 Q21.76 101.94 23.69 103.28 Q25.63 104.61 28.98 106.59 L28.98 106.59 Q31.91 108.22 34.49 110.03 Q37.07 111.83 38.87 113.51 Q40.68 115.19 41.19 116.30 L41.19 116.30 Q42.23 117.77 42.44 119.66 Q42.66 121.55 42.44 123.31 Q42.23 125.08 41.88 126.19 L41.88 126.19 Q41.28 127.57 40.03 129.12 Q38.79 130.67 37.75 130.58 L37.75 130.58 Q36.81 130.84 36.34 131.18 Q35.86 131.53 35.26 131.78 L35.26 131.78 Q34.66 132.13 32.42 132.60 Q30.19 133.07 27.52 133.38 Q24.85 133.68 22.88 133.59 Z M67.77 126.28 L67.77 126.28 Q65.19 127.74 62.31 127.96 Q59.43 128.17 56.93 127.18 Q54.44 126.19 52.89 124.22 L52.89 124.22 Q52.03 123.10 51.26 120.65 Q50.48 118.20 51.00 113.98 L51.00 113.98 Q51.51 110.03 53.45 105.98 Q55.38 101.94 58.22 98.85 Q61.06 95.75 64.41 94.63 L64.41 94.63 Q65.62 94.20 66.86 93.99 Q68.11 93.77 70.18 93.94 L70.18 93.94 Q72.15 94.20 73.70 94.93 Q75.25 95.66 75.94 96.52 L75.94 96.52 Q77.31 97.90 77.74 99.19 Q78.17 100.48 78.09 101.68 L78.09 101.68 Q77.66 104.44 75.64 107.62 Q73.62 110.80 70.00 112.35 L70.00 112.35 Q68.54 112.95 66.56 113.12 Q64.59 113.29 61.15 112.61 L61.15 112.61 Q59.08 112.18 58.44 113.04 Q57.79 113.90 57.88 116.39 L57.88 116.39 Q58.05 117.94 58.61 119.10 Q59.17 120.26 60.72 120.69 L60.72 120.69 Q62.69 121.03 63.55 120.73 Q64.41 120.43 65.70 119.83 L65.70 119.83 Q66.39 119.40 67.08 118.88 L67.08 118.88 L68.37 117.85 Q68.97 117.34 69.40 117.08 L69.40 117.08 Q69.83 116.73 70.26 116.65 Q70.69 116.56 71.12 116.56 L71.12 116.56 Q72.07 116.65 72.93 117.59 Q73.79 118.54 74.05 119.40 L74.05 119.40 Q74.05 120.09 73.19 121.33 Q72.33 122.58 70.91 123.92 Q69.49 125.25 67.77 126.28 Z M66.65 107.10 L66.65 107.10 Q67.25 106.84 68.41 105.90 Q69.57 104.95 70.52 103.88 Q71.47 102.80 71.47 102.20 L71.47 102.20 Q71.47 101.25 70.22 100.57 Q68.97 99.88 66.99 100.31 L66.99 100.31 Q66.31 100.48 65.36 101.25 Q64.41 102.03 63.47 103.02 Q62.52 104.01 61.83 104.91 Q61.15 105.81 60.89 106.33 L60.89 106.33 Q61.23 106.76 62.26 107.02 Q63.30 107.27 64.54 107.27 Q65.79 107.27 66.65 107.10 Z M96.49 126.28 L96.49 126.28 Q93.91 127.74 91.03 127.96 Q88.15 128.17 85.66 127.18 Q83.16 126.19 81.61 124.22 L81.61 124.22 Q80.75 123.10 79.98 120.65 Q79.21 118.20 79.72 113.98 L79.72 113.98 Q80.24 110.03 82.17 105.98 Q84.11 101.94 86.95 98.85 Q89.78 95.75 93.14 94.63 L93.14 94.63 Q94.34 94.20 95.59 93.99 Q96.84 93.77 98.90 93.94 L98.90 93.94 Q100.88 94.20 102.43 94.93 Q103.97 95.66 104.66 96.52 L104.66 96.52 Q106.04 97.90 106.47 99.19 Q106.90 100.48 106.81 101.68 L106.81 101.68 Q106.38 104.44 104.36 107.62 Q102.34 110.80 98.73 112.35 L98.73 112.35 Q97.27 112.95 95.29 113.12 Q93.31 113.29 89.87 112.61 L89.87 112.61 Q87.81 112.18 87.16 113.04 Q86.52 113.90 86.60 116.39 L86.60 116.39 Q86.77 117.94 87.33 119.10 Q87.89 120.26 89.44 120.69 L89.44 120.69 Q91.42 121.03 92.28 120.73 Q93.14 120.43 94.43 119.83 L94.43 119.83 Q95.12 119.40 95.80 118.88 L95.80 118.88 L97.09 117.85 Q97.70 117.34 98.13 117.08 L98.13 117.08 Q98.56 116.73 98.99 116.65 Q99.42 116.56 99.85 116.56 L99.85 116.56 Q100.79 116.65 101.65 117.59 Q102.51 118.54 102.77 119.40 L102.77 119.40 Q102.77 120.09 101.91 121.33 Q101.05 122.58 99.63 123.92 Q98.21 125.25 96.49 126.28 Z M95.37 107.10 L95.37 107.10 Q95.98 106.84 97.14 105.90 Q98.30 104.95 99.24 103.88 Q100.19 102.80 100.19 102.20 L100.19 102.20 Q100.19 101.25 98.94 100.57 Q97.70 99.88 95.72 100.31 L95.72 100.31 Q95.03 100.48 94.08 101.25 Q93.14 102.03 92.19 103.02 Q91.25 104.01 90.56 104.91 Q89.87 105.81 89.61 106.33 L89.61 106.33 Q89.96 106.76 90.99 107.02 Q92.02 107.27 93.27 107.27 Q94.51 107.27 95.37 107.10 Z M118.42 145.20 L118.42 145.20 Q116.01 146.15 113.39 144.90 Q110.77 143.65 108.88 140.99 L108.88 140.99 Q108.53 140.47 107.84 139.14 Q107.16 137.80 106.51 136.26 Q105.87 134.71 105.56 133.59 Q105.26 132.47 105.52 132.30 L105.52 132.30 Q105.87 131.35 107.07 131.18 Q108.27 131.01 109.48 131.31 Q110.68 131.61 110.85 132.13 L110.85 132.13 Q111.11 132.73 111.37 133.38 Q111.63 134.02 112.01 134.58 Q112.40 135.14 112.75 135.57 L112.75 135.57 Q113.69 137.03 114.81 137.59 Q115.93 138.15 116.53 137.72 L116.53 137.72 Q117.99 136.60 118.72 135.09 Q119.45 133.59 120.66 129.81 L120.66 129.81 Q121.60 126.62 122.29 124.30 Q122.98 121.98 123.75 120.00 L123.75 120.00 Q124.01 118.97 124.44 118.20 L124.44 118.20 Q124.53 118.02 124.61 117.85 L124.61 117.85 Q123.41 118.71 122.46 119.57 L122.46 119.57 Q121.17 120.78 118.94 121.72 L118.94 121.72 Q118.42 122.32 116.40 122.45 Q114.38 122.58 112.49 121.98 L112.49 121.98 Q111.28 121.29 110.55 120.56 Q109.82 119.83 109.35 118.88 Q108.88 117.94 108.36 116.65 L108.36 116.65 Q107.76 115.36 108.19 112.43 Q108.62 109.51 109.74 106.59 L109.74 106.59 Q110.77 104.44 112.75 101.94 Q114.72 99.45 116.96 97.43 Q119.20 95.41 121.00 94.89 L121.00 94.89 Q121.69 94.55 123.41 94.07 Q125.13 93.60 126.68 94.03 L126.68 94.03 Q128.14 94.20 128.91 94.67 Q129.69 95.15 131.41 96.61 L131.41 96.61 Q132.53 97.73 134.16 99.49 Q135.79 101.25 136.22 102.46 L136.22 102.46 Q136.83 103.75 136.48 105.25 Q136.14 106.76 135.28 107.88 L135.28 107.88 Q134.50 108.99 133.64 110.11 Q132.78 111.23 132.35 113.21 L132.35 113.21 Q131.92 115.79 130.72 119.01 Q129.52 122.24 128.83 124.99 L128.83 124.99 L127.45 130.32 Q125.30 137.63 122.72 140.94 Q120.14 144.25 118.42 145.20 Z M116.62 115.62 L116.62 115.62 Q118.34 115.53 119.58 115.23 Q120.83 114.93 121.95 113.85 Q123.07 112.78 124.53 110.54 L124.53 110.54 Q125.99 108.48 126.59 106.76 Q127.19 105.04 127.02 102.89 L127.02 102.89 Q126.94 101.51 126.25 101.08 Q125.56 100.65 124.44 100.82 L124.44 100.82 Q122.81 101.08 121.52 102.16 Q120.23 103.23 118.51 105.47 L118.51 105.47 Q117.22 107.19 116.36 109.60 L116.36 109.60 Q115.50 112.18 115.63 113.72 Q115.76 115.27 116.62 115.62 Z M143.88 138.41 L143.88 138.41 Q143.36 138.75 141.56 137.59 Q139.75 136.43 138.55 135.05 L138.55 135.05 Q137.94 134.36 137.77 133.59 Q137.60 132.82 137.86 130.67 L137.86 130.67 Q138.20 129.72 138.24 128.86 Q138.29 128.00 138.29 127.66 L138.29 127.66 Q138.29 127.14 138.59 125.25 Q138.89 123.36 139.23 121.25 Q139.58 119.14 139.84 118.02 L139.84 118.02 Q139.84 117.94 139.96 117.42 Q140.09 116.91 140.18 116.65 L140.18 116.65 Q140.35 115.87 140.61 114.76 Q140.87 113.64 141.13 111.75 L141.13 111.75 Q141.81 109.60 142.29 107.49 Q142.76 105.38 142.76 104.61 L142.76 104.61 Q142.76 103.06 143.96 102.37 L143.96 102.37 Q144.05 101.94 144.48 101.04 Q144.91 100.14 145.25 99.53 L145.25 99.53 Q146.97 94.63 148.09 91.71 Q149.21 88.78 150.41 86.63 L150.41 86.63 Q150.93 85.17 151.57 83.62 Q152.22 82.08 152.91 81.22 L152.91 81.22 Q153.51 80.01 155.01 78.25 Q156.52 76.49 158.24 74.85 Q159.96 73.22 160.99 72.44 L160.99 72.44 Q162.88 71.50 164.52 70.90 Q166.15 70.29 167.96 70.29 L167.96 70.29 Q169.59 70.29 170.84 71.03 Q172.09 71.76 174.58 73.99 L174.58 73.99 Q175.44 75.11 175.44 76.14 Q175.44 77.17 175.01 77.86 L175.01 77.86 Q174.41 79.24 173.20 81.26 Q172.00 83.28 170.88 84.87 Q169.76 86.46 169.25 86.55 L169.25 86.55 Q168.22 87.15 167.10 86.89 Q165.98 86.63 165.98 85.34 L165.98 85.34 Q165.98 84.74 166.07 84.23 L166.07 84.23 L166.07 83.71 Q166.32 82.59 166.71 81.73 Q167.10 80.87 167.44 80.27 L167.44 80.27 Q168.13 79.15 167.83 78.12 Q167.53 77.09 165.64 77.26 L165.64 77.26 Q165.38 77.43 164.65 78.08 Q163.92 78.72 163.10 79.54 Q162.28 80.36 161.68 81.09 Q161.08 81.82 161.08 82.08 L161.08 82.08 L160.65 82.94 Q160.13 83.88 159.19 85.00 L159.19 85.00 Q158.58 85.86 158.15 86.63 Q157.72 87.41 157.72 87.84 L157.72 87.84 Q157.72 88.18 157.64 88.44 Q157.55 88.70 157.21 88.70 L157.21 88.70 L156.95 89.56 Q156.61 90.42 155.92 91.62 L155.92 91.62 Q155.57 92.48 155.19 93.21 Q154.80 93.94 154.46 94.29 L154.46 94.29 L154.37 94.46 L154.03 95.41 Q153.60 96.44 153.17 97.47 Q152.74 98.50 152.74 98.67 L152.74 98.67 Q152.74 99.02 153.77 99.02 Q154.80 99.02 156.26 98.72 Q157.72 98.42 159.10 98.07 L159.10 98.07 Q160.30 97.73 160.82 97.73 Q161.34 97.73 162.45 98.07 L162.45 98.07 Q163.14 98.50 163.57 99.58 Q164.00 100.65 164.22 101.73 Q164.43 102.80 164.26 103.32 L164.26 103.32 Q164.17 103.66 162.32 104.26 Q160.48 104.87 158.67 105.21 L158.67 105.21 Q157.12 105.55 155.19 105.94 Q153.25 106.33 151.79 106.72 Q150.33 107.10 150.24 107.45 L150.24 107.45 Q149.90 107.45 149.68 107.88 Q149.47 108.31 149.47 108.65 L149.47 108.65 Q149.47 109.77 149.04 110.46 L149.04 110.46 Q148.87 110.97 148.48 112.56 Q148.09 114.15 147.70 116.00 Q147.32 117.85 147.02 119.44 Q146.72 121.03 146.72 121.55 L146.72 121.55 Q146.20 122.15 146.11 123.06 Q146.03 123.96 146.03 124.65 L146.03 124.65 Q145.68 125.33 145.60 125.89 Q145.51 126.45 145.51 126.80 L145.51 126.80 L145.51 127.14 Q145.51 127.40 145.43 127.66 L145.43 127.66 Q145.34 128.52 145.21 129.94 Q145.08 131.35 145.08 132.73 L145.08 132.73 L144.82 135.22 Q144.74 136.34 144.52 137.16 Q144.31 137.98 143.88 138.41 Z M186.02 127.83 L186.02 127.83 Q185.16 126.97 184.64 125.46 Q184.13 123.96 183.61 121.98 L183.61 121.98 Q183.44 121.29 183.48 120.43 Q183.52 119.57 183.44 119.06 L183.44 119.06 Q183.18 119.66 182.62 120.60 Q182.06 121.55 181.55 121.98 L181.55 121.98 Q181.20 122.32 180.00 123.31 Q178.79 124.30 177.59 124.90 L177.59 124.90 Q174.75 126.71 172.56 126.58 Q170.37 126.45 168.73 124.39 L168.73 124.39 Q167.36 123.27 166.50 121.55 Q165.64 119.83 166.15 117.42 L166.15 117.42 Q166.32 114.41 167.01 111.53 Q167.70 108.65 169.85 103.83 L169.85 103.83 Q171.66 100.31 172.60 98.33 Q173.55 96.35 173.81 96.01 L173.81 96.01 Q175.10 95.58 176.99 96.05 Q178.88 96.52 179.05 97.73 L179.05 97.73 Q179.57 98.59 179.05 100.95 Q178.54 103.32 176.99 106.33 L176.99 106.33 Q175.78 109.25 174.71 112.00 Q173.63 114.76 173.42 116.65 Q173.20 118.54 174.41 118.97 L174.41 118.97 Q175.18 119.40 176.69 118.88 Q178.19 118.37 180.26 115.79 Q182.32 113.21 184.64 107.62 L184.64 107.62 Q185.33 105.90 185.67 104.56 Q186.02 103.23 186.10 101.60 L186.10 101.60 Q185.93 100.57 186.66 99.45 Q187.39 98.33 188.43 97.73 L188.43 97.73 Q188.77 97.30 189.37 96.87 L189.37 96.87 Q189.80 96.61 189.97 96.78 L189.97 96.78 Q190.06 96.78 190.15 96.95 L190.15 96.95 L191.52 96.87 Q191.87 96.78 192.30 97.56 Q192.73 98.33 193.16 98.67 L193.16 98.67 Q194.10 99.45 194.02 102.03 Q193.93 104.61 191.95 109.25 L191.95 109.25 Q190.32 112.78 189.76 114.58 Q189.20 116.39 189.11 118.11 L189.11 118.11 Q189.11 119.66 189.37 120.73 Q189.63 121.81 190.92 122.93 L190.92 122.93 Q191.87 123.53 191.99 124.95 Q192.12 126.37 192.04 127.40 L192.04 127.40 Q191.87 128.17 190.70 128.47 Q189.54 128.77 188.21 128.60 Q186.88 128.43 186.02 127.83 Z M197.80 126.54 L197.80 126.54 Q197.11 125.85 196.81 124.47 Q196.51 123.10 196.60 121.77 Q196.68 120.43 197.03 119.74 L197.03 119.74 Q197.03 119.06 197.24 118.67 Q197.46 118.28 197.37 117.94 L197.37 117.94 Q197.28 117.59 197.54 116.73 Q197.80 115.87 198.06 115.10 L198.06 115.10 Q198.66 113.72 199.43 111.53 Q200.21 109.34 200.98 107.06 Q201.76 104.78 202.27 103.10 Q202.79 101.43 202.87 101.08 L202.87 101.08 Q202.87 100.05 204.25 99.96 L204.25 99.96 Q205.28 99.62 206.74 100.82 Q208.21 102.03 209.07 103.40 L209.07 103.40 Q209.75 104.09 209.58 105.21 Q209.41 106.33 208.46 108.39 L208.46 108.39 Q208.12 109.08 207.65 110.67 Q207.17 112.26 207.00 113.29 L207.00 113.29 Q206.66 113.98 206.18 115.23 Q205.71 116.48 205.37 117.59 L205.37 117.59 Q205.20 118.02 205.02 119.19 Q204.85 120.35 204.59 121.55 Q204.34 122.75 203.91 123.44 L203.91 123.44 Q203.13 126.97 201.20 127.57 Q199.26 128.17 197.80 126.54 Z " fill="#f1ece2"></path><defs><mask id="hm2" maskUnits="userSpaceOnUse"><path d="M0,3 C0,-3 -9,-6 -9,-13 C-9,-19 -2,-20 0,-14 C2,-20 9,-19 9,-13 C9,-6 0,-3 0,3 Z" fill="#fff"></path><path d="M-7.5,-8 q2.5,-3.4 5,0 t5,0 t5,0" fill="none" stroke="#000" stroke-width="2.1" stroke-linecap="round"></path></mask></defs><g transform="translate(210.40,95.23) rotate(12) scale(0.940)"><path d="M0,3 C0,-3 -9,-6 -9,-13 C-9,-19 -2,-20 0,-14 C2,-20 9,-19 9,-13 C9,-6 0,-3 0,3 Z" fill="#d23b34" mask="url(#hm2)"></path></g></g></g></svg><g transform="translate(0 10)"><path d="M35.99 280.27L35.99 280.27Q34.49 280.27 33.33 279.73Q32.17 279.20 31.51 278.17Q30.86 277.13 30.86 275.65L30.86 275.65L30.86 275.17L32.89 275.17L32.89 275.65Q32.89 277.06 33.73 277.76Q34.58 278.46 35.99 278.46L35.99 278.46Q37.41 278.46 38.13 277.86Q38.86 277.26 38.86 276.31L38.86 276.31Q38.86 275.69 38.51 275.29Q38.17 274.89 37.54 274.65Q36.92 274.41 36.04 274.20L36.04 274.20L35.34 274.03Q34.07 273.73 33.13 273.28Q32.19 272.84 31.67 272.10Q31.16 271.36 31.16 270.20L31.16 270.20Q31.16 269.02 31.74 268.18Q32.32 267.35 33.35 266.89Q34.37 266.43 35.76 266.43L35.76 266.43Q37.15 266.43 38.24 266.91Q39.33 267.38 39.96 268.31Q40.58 269.25 40.58 270.65L40.58 270.65L40.58 271.34L38.55 271.34L38.55 270.65Q38.55 269.80 38.20 269.26Q37.85 268.73 37.22 268.49Q36.59 268.24 35.76 268.24L35.76 268.24Q34.54 268.24 33.87 268.74Q33.19 269.25 33.19 270.14L33.19 270.14Q33.19 270.75 33.49 271.14Q33.78 271.53 34.35 271.77Q34.92 272.02 35.78 272.21L35.78 272.21L36.48 272.38Q37.77 272.67 38.76 273.11Q39.75 273.56 40.32 274.32Q40.89 275.08 40.89 276.28L40.89 276.28Q40.89 277.47 40.29 278.37Q39.69 279.26 38.59 279.76Q37.49 280.27 35.99 280.27Z M53.26 280L51.21 280L51.21 268.56L47.12 268.56L47.12 266.70L57.35 266.70L57.35 268.56L53.26 268.56L53.26 280Z M65.35 280L63.22 280L67.02 266.70L70.63 266.70L74.41 280L72.30 280L71.43 276.87L66.22 276.87L65.35 280ZM68.67 267.97L66.73 274.96L70.91 274.96L68.98 267.97L68.67 267.97Z M83.27 280L81.22 280L81.22 266.70L86.80 266.70Q88.04 266.70 88.98 267.13Q89.92 267.56 90.44 268.35Q90.96 269.15 90.96 270.25L90.96 270.25L90.96 270.46Q90.96 271.72 90.36 272.47Q89.77 273.22 88.91 273.52L88.91 273.52L88.91 273.82Q89.63 273.86 90.07 274.31Q90.51 274.76 90.51 275.59L90.51 275.59L90.51 280L88.44 280L88.44 275.88Q88.44 275.36 88.17 275.06Q87.90 274.76 87.31 274.76L87.31 274.76L83.27 274.76L83.27 280ZM83.27 268.56L83.27 272.89L86.57 272.89Q87.67 272.89 88.28 272.33Q88.89 271.77 88.89 270.80L88.89 270.80L88.89 270.65Q88.89 269.68 88.29 269.12Q87.69 268.56 86.57 268.56L86.57 268.56L83.27 268.56Z M100.26 280L98.22 280L98.22 266.70L102.17 266.70L105.78 278.63L106.09 278.63L106.09 266.70L108.12 266.70L108.12 280L104.17 280L100.56 268.05L100.26 268.05L100.26 280Z M122.19 280L115.40 280L115.40 278.18L117.19 278.18L117.19 268.52L115.40 268.52L115.40 266.70L122.15 266.70Q123.34 266.70 124.24 267.11Q125.13 267.52 125.63 268.27Q126.14 269.02 126.14 270.04L126.14 270.04L126.14 270.23Q126.14 271.15 125.80 271.74Q125.45 272.32 124.97 272.65Q124.48 272.97 124.05 273.10L124.05 273.10L124.05 273.41Q124.48 273.52 124.99 273.85Q125.49 274.19 125.84 274.77Q126.19 275.36 126.19 276.31L126.19 276.31L126.19 276.50Q126.19 277.61 125.68 278.38Q125.17 279.16 124.27 279.58Q123.36 280 122.19 280L122.19 280ZM119.26 274.24L119.26 278.14L121.94 278.14Q122.96 278.14 123.55 277.64Q124.14 277.15 124.14 276.28L124.14 276.28L124.14 276.11Q124.14 275.23 123.56 274.74Q122.98 274.24 121.94 274.24L121.94 274.24L119.26 274.24ZM119.26 268.56L119.26 272.36L121.94 272.36Q122.91 272.36 123.50 271.88Q124.09 271.39 124.09 270.56L124.09 270.56L124.09 270.37Q124.09 269.53 123.51 269.05Q122.93 268.56 121.94 268.56L121.94 268.56L119.26 268.56Z M141.97 280L133.49 280L133.49 266.70L141.87 266.70L141.87 268.56L135.54 268.56L135.54 272.38L141.34 272.38L141.34 274.24L135.54 274.24L135.54 278.14L141.97 278.14L141.97 280Z M151.17 280L149.11 280L149.11 266.70L154.70 266.70Q155.94 266.70 156.88 267.13Q157.82 267.56 158.34 268.35Q158.86 269.15 158.86 270.25L158.86 270.25L158.86 270.46Q158.86 271.72 158.26 272.47Q157.66 273.22 156.81 273.52L156.81 273.52L156.81 273.82Q157.53 273.86 157.97 274.31Q158.41 274.76 158.41 275.59L158.41 275.59L158.41 280L156.33 280L156.33 275.88Q156.33 275.36 156.07 275.06Q155.80 274.76 155.21 274.76L155.21 274.76L151.17 274.76L151.17 280ZM151.17 268.56L151.17 272.89L154.47 272.89Q155.57 272.89 156.18 272.33Q156.79 271.77 156.79 270.80L156.79 270.80L156.79 270.65Q156.79 269.68 156.19 269.12Q155.59 268.56 154.47 268.56L154.47 268.56L151.17 268.56Z M170.74 280.27L170.74 280.27Q169.31 280.27 168.19 279.65Q167.07 279.03 166.43 277.83Q165.78 276.64 165.78 274.91L165.78 274.91L165.78 271.79Q165.78 269.19 167.21 267.81Q168.63 266.43 171.06 266.43L171.06 266.43Q173.46 266.43 174.75 267.74Q176.04 269.04 176.04 271.22L176.04 271.22L176.04 271.32L174.01 271.32L174.01 271.17Q174.01 270.35 173.68 269.69Q173.36 269.04 172.72 268.66Q172.07 268.28 171.06 268.28L171.06 268.28Q169.54 268.28 168.69 269.20Q167.83 270.12 167.83 271.75L167.83 271.75L167.83 274.95Q167.83 276.56 168.69 277.50Q169.54 278.44 171.08 278.44L171.08 278.44Q172.60 278.44 173.30 277.61Q174.01 276.77 174.01 275.44L174.01 275.44L174.01 275.19L170.44 275.19L170.44 273.43L176.04 273.43L176.04 280L174.14 280L174.14 278.65L173.84 278.65Q173.67 279.01 173.33 279.39Q173 279.77 172.38 280.02Q171.77 280.27 170.74 280.27Z M192.16 280L183.68 280L183.68 266.70L192.06 266.70L192.06 268.56L185.73 268.56L185.73 272.38L191.53 272.38L191.53 274.24L185.73 274.24L185.73 278.14L192.16 278.14L192.16 280Z M201.35 280L199.30 280L199.30 266.70L204.89 266.70Q206.12 266.70 207.06 267.13Q208.00 267.56 208.53 268.35Q209.05 269.15 209.05 270.25L209.05 270.25L209.05 270.46Q209.05 271.72 208.45 272.47Q207.85 273.22 207.00 273.52L207.00 273.52L207.00 273.82Q207.72 273.86 208.16 274.31Q208.59 274.76 208.59 275.59L208.59 275.59L208.59 280L206.52 280L206.52 275.88Q206.52 275.36 206.26 275.06Q205.99 274.76 205.40 274.76L205.40 274.76L201.35 274.76L201.35 280ZM201.35 268.56L201.35 272.89L204.66 272.89Q205.76 272.89 206.37 272.33Q206.98 271.77 206.98 270.80L206.98 270.80L206.98 270.65Q206.98 269.68 206.38 269.12Q205.78 268.56 204.66 268.56L204.66 268.56L201.35 268.56Z" fill="#aac072"></path><path d="M104.50 300.27L104.50 300.27Q103.00 300.27 101.84 299.73Q100.68 299.20 100.03 298.17Q99.37 297.13 99.37 295.65L99.37 295.65L99.37 295.17L101.41 295.17L101.41 295.65Q101.41 297.06 102.25 297.76Q103.10 298.46 104.50 298.46L104.50 298.46Q105.93 298.46 106.65 297.86Q107.37 297.26 107.37 296.31L107.37 296.31Q107.37 295.69 107.03 295.29Q106.69 294.89 106.06 294.65Q105.43 294.41 104.56 294.20L104.56 294.20L103.86 294.03Q102.58 293.73 101.64 293.28Q100.70 292.84 100.19 292.10Q99.68 291.36 99.68 290.20L99.68 290.20Q99.68 289.02 100.26 288.18Q100.84 287.35 101.86 286.89Q102.89 286.43 104.27 286.43L104.27 286.43Q105.66 286.43 106.75 286.91Q107.85 287.38 108.47 288.31Q109.10 289.25 109.10 290.65L109.10 290.65L109.10 291.34L107.07 291.34L107.07 290.65Q107.07 289.80 106.72 289.26Q106.36 288.73 105.74 288.49Q105.11 288.24 104.27 288.24L104.27 288.24Q103.06 288.24 102.38 288.74Q101.71 289.25 101.71 290.14L101.71 290.14Q101.71 290.75 102.00 291.14Q102.30 291.53 102.87 291.77Q103.44 292.02 104.29 292.21L104.29 292.21L105.00 292.38Q106.29 292.67 107.28 293.11Q108.26 293.56 108.83 294.32Q109.40 295.08 109.40 296.28L109.40 296.28Q109.40 297.47 108.81 298.37Q108.21 299.26 107.11 299.76Q106.00 300.27 104.50 300.27Z M125.03 300L116.55 300L116.55 286.70L124.93 286.70L124.93 288.56L118.60 288.56L118.60 292.38L124.40 292.38L124.40 294.24L118.60 294.24L118.60 298.14L125.03 298.14L125.03 300Z M140.65 300L132.17 300L132.17 286.70L140.55 286.70L140.55 288.56L134.22 288.56L134.22 292.38L140.02 292.38L140.02 294.24L134.22 294.24L134.22 298.14L140.65 298.14L140.65 300Z" fill="#aac072"></path></g></svg>