<svg xmlns="http://www.w3.org/2000/svg" width="1380" height="2040" viewBox="0 0 230 340"><path d="M25.2,-72.2 L22.6,-75 L20.5,-75 L14.9,-72.5 L6.9,-51.7 L5,-48.1 L2.9,-46.5 L1,-41.4 L-0.9,-40 L-4.5,-32.7 L-4,-29.4 L-7.3,-27.5 L-7,-25.3 L-8.8,-21.6 L-11.1,-11.2 L-14.8,-7 L-14.8,-3.5 L-17.7,-2.1 L-17.1,-0.7 L-17.6,1 L-20.3,3 L-20.4,4.7 L-22.3,6.7 L-22.8,8.6 L-22,10.8 L-24.2,12.6 L-25.2,16 L-24.7,18.8 L-22,21.4 L-20.1,21 L-17.8,18.6 L-16.3,19 L-16.8,22.5 L-14.6,25.9 L-14.1,31.2 L-9.1,36.6 L-7.3,41.9 L-7.8,45.3 L-11.2,47.9 L-11.9,51.8 L-12.7,52.3 L-13,61.3 L-14,63.5 L-12.8,67 L-0.2,75 L6.5,74 L8,74.9 L10.3,73.9 L10.6,72.7 L11.5,73.2 L13,69.8 L11.7,66.1 L12.5,65.6 L12,63.7 L13.4,62 L13.6,59.1 L11,34.9 L9.7,32.1 L10.5,27.3 L10.2,17.4 L11.2,11.5 L10.7,0.7 L9.1,-9.1 L10,-17.5 L15.3,-32.9 L15.9,-38 L20,-52.1 L25.1,-59.7 L24.5,-68.4 Z M-9.2,-8 L-9.73,-6.16 L-11,-5.4 L-12.27,-6.16 L-12.8,-8 L-12.27,-9.84 L-11,-10.6 L-9.73,-9.84 Z M-9.20,-4.00 a2.2,2.2 0 1 0 4.40,0 a2.2,2.2 0 1 0 -4.40,0 Z" fill="none" stroke="#c2683f" stroke-opacity="0.32" stroke-width="0.90" stroke-linejoin="round" stroke-linecap="round" transform="translate(115 180) rotate(-6) scale(2.00000) translate(-1.03 0.00)"></path><path d="M33.32 69.07L28.97 69.07L34.86 46.67L42.22 46.67L48.10 69.07L43.75 69.07L42.54 64.14L34.54 64.14L33.32 69.07ZM38.25 49.33L35.53 60.24L41.54 60.24L38.82 49.33L38.25 49.33Z M54.95 69.07L50.92 69.07L50.92 53.20L54.89 53.20L54.89 54.93L55.46 54.93Q55.88 54.13 56.84 53.54Q57.80 52.94 59.37 52.94L59.37 52.94Q61.06 52.94 62.09 53.60Q63.11 54.26 63.66 55.31L63.66 55.31L64.23 55.31Q64.78 54.29 65.77 53.62Q66.76 52.94 68.58 52.94L68.58 52.94Q70.06 52.94 71.26 53.57Q72.46 54.19 73.18 55.46Q73.90 56.72 73.90 58.64L73.90 58.64L73.90 69.07L69.86 69.07L69.86 58.93Q69.86 57.62 69.19 56.96Q68.52 56.30 67.30 56.30L67.30 56.30Q65.93 56.30 65.18 57.18Q64.42 58.06 64.42 59.70L64.42 59.70L64.42 69.07L60.39 69.07L60.39 58.93Q60.39 57.62 59.72 56.96Q59.05 56.30 57.83 56.30L57.83 56.30Q56.46 56.30 55.70 57.18Q54.95 58.06 54.95 59.70L54.95 59.70L54.95 69.07Z M82.28 69.07L78.25 69.07L78.25 53.20L82.22 53.20L82.22 54.93L82.79 54.93Q83.21 54.13 84.17 53.54Q85.13 52.94 86.70 52.94L86.70 52.94Q88.39 52.94 89.42 53.60Q90.44 54.26 90.98 55.31L90.98 55.31L91.56 55.31Q92.10 54.29 93.10 53.62Q94.09 52.94 95.91 52.94L95.91 52.94Q97.38 52.94 98.58 53.57Q99.78 54.19 100.50 55.46Q101.22 56.72 101.22 58.64L101.22 58.64L101.22 69.07L97.19 69.07L97.19 58.93Q97.19 57.62 96.52 56.96Q95.85 56.30 94.63 56.30L94.63 56.30Q93.26 56.30 92.50 57.18Q91.75 58.06 91.75 59.70L91.75 59.70L91.75 69.07L87.72 69.07L87.72 58.93Q87.72 57.62 87.05 56.96Q86.38 56.30 85.16 56.30L85.16 56.30Q83.78 56.30 83.03 57.18Q82.28 58.06 82.28 59.70L82.28 59.70L82.28 69.07Z M112.81 69.52L112.81 69.52Q110.44 69.52 108.63 68.51Q106.82 67.50 105.82 65.66Q104.81 63.82 104.81 61.33L104.81 61.33L104.81 60.94Q104.81 58.45 105.80 56.61Q106.79 54.77 108.58 53.76Q110.38 52.75 112.74 52.75L112.74 52.75Q115.08 52.75 116.81 53.79Q118.54 54.83 119.50 56.67Q120.46 58.51 120.46 60.94L120.46 60.94L120.46 62.32L108.90 62.32Q108.97 63.95 110.12 64.98Q111.27 66 112.94 66L112.94 66Q114.63 66 115.43 65.26Q116.23 64.53 116.65 63.63L116.65 63.63L119.94 65.36Q119.50 66.19 118.65 67.17Q117.80 68.14 116.39 68.83Q114.98 69.52 112.81 69.52ZM108.94 59.31L108.94 59.31L116.36 59.31Q116.23 57.94 115.26 57.10Q114.28 56.27 112.71 56.27L112.71 56.27Q111.08 56.27 110.12 57.10Q109.16 57.94 108.94 59.31Z M128.07 69.07L124.04 69.07L124.04 53.20L128.01 53.20L128.01 54.99L128.58 54.99Q128.94 54.03 129.75 53.58Q130.57 53.14 131.66 53.14L131.66 53.14L133.58 53.14L133.58 56.72L131.59 56.72Q130.06 56.72 129.06 57.54Q128.07 58.35 128.07 60.05L128.07 60.05L128.07 69.07Z M140.74 69.07L136.71 69.07L136.71 46.67L140.74 46.67L140.74 69.07Z M150.15 69.52L150.15 69.52Q148.46 69.52 147.11 68.93Q145.77 68.34 144.98 67.20Q144.20 66.06 144.20 64.43L144.20 64.43Q144.20 62.80 144.98 61.70Q145.77 60.59 147.16 60.03Q148.55 59.47 150.34 59.47L150.34 59.47L154.70 59.47L154.70 58.58Q154.70 57.46 153.99 56.74Q153.29 56.02 151.75 56.02L151.75 56.02Q150.25 56.02 149.51 56.70Q148.78 57.39 148.55 58.48L148.55 58.48L144.84 57.23Q145.22 56.02 146.07 55.01Q146.92 54 148.34 53.38Q149.77 52.75 151.82 52.75L151.82 52.75Q154.95 52.75 156.78 54.32Q158.60 55.89 158.60 58.86L158.60 58.86L158.60 64.78Q158.60 65.74 159.50 65.74L159.50 65.74L160.78 65.74L160.78 69.07L158.09 69.07Q156.90 69.07 156.14 68.50Q155.37 67.92 155.37 66.96L155.37 66.96L155.37 66.93L154.76 66.93Q154.63 67.31 154.18 67.94Q153.74 68.56 152.78 69.04Q151.82 69.52 150.15 69.52ZM150.86 66.26L150.86 66.26Q152.55 66.26 153.62 65.31Q154.70 64.37 154.70 62.80L154.70 62.80L154.70 62.48L150.63 62.48Q149.51 62.48 148.87 62.96Q148.23 63.44 148.23 64.30L148.23 64.30Q148.23 65.17 148.90 65.71Q149.58 66.26 150.86 66.26Z M167.75 69.07L163.72 69.07L163.72 53.20L167.69 53.20L167.69 55.28L168.26 55.28Q168.65 54.45 169.70 53.70Q170.76 52.94 172.90 52.94L172.90 52.94Q174.76 52.94 176.15 53.79Q177.54 54.64 178.31 56.13Q179.08 57.62 179.08 59.60L179.08 59.60L179.08 69.07L175.05 69.07L175.05 59.92Q175.05 58.13 174.17 57.23Q173.29 56.34 171.66 56.34L171.66 56.34Q169.80 56.34 168.78 57.57Q167.75 58.80 167.75 61.01L167.75 61.01L167.75 69.07Z M189.83 69.52L189.83 69.52Q187.94 69.52 186.30 68.58Q184.65 67.63 183.66 65.81Q182.66 63.98 182.66 61.39L182.66 61.39L182.66 60.88Q182.66 58.29 183.66 56.46Q184.65 54.64 186.28 53.70Q187.91 52.75 189.83 52.75L189.83 52.75Q191.27 52.75 192.25 53.09Q193.22 53.42 193.83 53.94Q194.44 54.45 194.76 55.02L194.76 55.02L195.34 55.02L195.34 46.67L199.37 46.67L199.37 69.07L195.40 69.07L195.40 67.15L194.82 67.15Q194.28 68.05 193.14 68.78Q192.01 69.52 189.83 69.52ZM191.05 66L191.05 66Q192.90 66 194.15 64.80Q195.40 63.60 195.40 61.30L195.40 61.30L195.40 60.98Q195.40 58.67 194.17 57.47Q192.94 56.27 191.05 56.27L191.05 56.27Q189.19 56.27 187.94 57.47Q186.70 58.67 186.70 60.98L186.70 60.98L186.70 61.30Q186.70 63.60 187.94 64.80Q189.19 66 191.05 66Z" fill="#1d1c19"></path><path d="M62.03 89.88L62.03 89.88Q61.23 89.88 60.56 89.49Q59.88 89.10 59.47 88.37Q59.06 87.63 59.06 86.59L59.06 86.59L59.06 86.40Q59.06 85.37 59.46 84.63Q59.87 83.89 60.54 83.50Q61.22 83.11 62.03 83.11L62.03 83.11Q62.65 83.11 63.07 83.26Q63.49 83.42 63.77 83.66Q64.04 83.90 64.18 84.16L64.18 84.16L64.39 84.16L64.39 80.60L65.73 80.60L65.73 89.70L64.42 89.70L64.42 88.79L64.21 88.79Q63.96 89.20 63.46 89.54Q62.96 89.88 62.03 89.88ZM62.40 88.71L62.40 88.71Q63.27 88.71 63.84 88.15Q64.40 87.59 64.40 86.55L64.40 86.55L64.40 86.44Q64.40 85.41 63.85 84.85Q63.29 84.29 62.40 84.29L62.40 84.29Q61.54 84.29 60.98 84.85Q60.41 85.41 60.41 86.44L60.41 86.44L60.41 86.55Q60.41 87.59 60.98 88.15Q61.54 88.71 62.40 88.71Z M70.70 89.88L70.70 89.88Q70.01 89.88 69.47 89.65Q68.93 89.41 68.61 88.96Q68.29 88.50 68.29 87.85L68.29 87.85Q68.29 87.19 68.61 86.75Q68.93 86.32 69.48 86.10Q70.03 85.88 70.73 85.88L70.73 85.88L72.68 85.88L72.68 85.46Q72.68 84.90 72.35 84.56Q72.01 84.23 71.31 84.23L71.31 84.23Q70.62 84.23 70.25 84.55Q69.89 84.88 69.77 85.40L69.77 85.40L68.52 84.99Q68.68 84.47 69.02 84.05Q69.37 83.63 69.94 83.37Q70.51 83.11 71.32 83.11L71.32 83.11Q72.57 83.11 73.28 83.74Q74.00 84.38 74.00 85.55L74.00 85.55L74.00 88.19Q74.00 88.58 74.36 88.58L74.36 88.58L74.91 88.58L74.91 89.70L73.91 89.70Q73.45 89.70 73.17 89.46Q72.88 89.23 72.88 88.83L72.88 88.83L72.88 88.79L72.68 88.79Q72.58 88.98 72.37 89.24Q72.16 89.50 71.76 89.69Q71.36 89.88 70.70 89.88ZM70.89 88.78L70.89 88.78Q71.70 88.78 72.19 88.31Q72.68 87.85 72.68 87.05L72.68 87.05L72.68 86.92L70.81 86.92Q70.28 86.92 69.95 87.14Q69.63 87.37 69.63 87.81L69.63 87.81Q69.63 88.26 69.97 88.52Q70.31 88.78 70.89 88.78Z  M85.23 89.88L85.23 89.88Q84.29 89.88 83.79 89.54Q83.29 89.20 83.04 88.79L83.04 88.79L82.84 88.79L82.84 89.70L81.52 89.70L81.52 80.60L82.86 80.60L82.86 84.16L83.07 84.16Q83.23 83.90 83.49 83.66Q83.75 83.42 84.17 83.26Q84.60 83.11 85.23 83.11L85.23 83.11Q86.03 83.11 86.71 83.50Q87.39 83.89 87.79 84.63Q88.19 85.37 88.19 86.40L88.19 86.40L88.19 86.59Q88.19 87.63 87.78 88.37Q87.37 89.10 86.70 89.49Q86.03 89.88 85.23 89.88ZM84.84 88.71L84.84 88.71Q85.71 88.71 86.27 88.15Q86.84 87.59 86.84 86.55L86.84 86.55L86.84 86.44Q86.84 85.41 86.28 84.85Q85.72 84.29 84.84 84.29L84.84 84.29Q83.98 84.29 83.41 84.85Q82.85 85.41 82.85 86.44L82.85 86.44L82.85 86.55Q82.85 87.59 83.41 88.15Q83.98 88.71 84.84 88.71Z M92.19 89.70L90.86 89.70L90.86 83.29L92.19 83.29L92.19 89.70ZM91.53 82.42L91.53 82.42Q91.14 82.42 90.87 82.16Q90.61 81.91 90.61 81.51L90.61 81.51Q90.61 81.11 90.87 80.85Q91.14 80.60 91.53 80.60L91.53 80.60Q91.93 80.60 92.19 80.85Q92.45 81.11 92.45 81.51L92.45 81.51Q92.45 81.91 92.19 82.16Q91.93 82.42 91.53 82.42Z M96.52 89.70L95.18 89.70L95.18 83.29L96.50 83.29L96.50 84.25L96.70 84.25Q96.89 83.86 97.35 83.52Q97.82 83.19 98.75 83.19L98.75 83.19Q99.47 83.19 100.04 83.51Q100.60 83.84 100.93 84.43Q101.25 85.02 101.25 85.85L101.25 85.85L101.25 89.70L99.92 89.70L99.92 85.95Q99.92 85.12 99.50 84.73Q99.08 84.33 98.36 84.33L98.36 84.33Q97.52 84.33 97.02 84.88Q96.52 85.42 96.52 86.46L96.52 86.46L96.52 89.70Z  M109.83 89.70L108.49 89.70L108.49 83.29L109.83 83.29L109.83 89.70ZM109.17 82.42L109.17 82.42Q108.78 82.42 108.51 82.16Q108.25 81.91 108.25 81.51L108.25 81.51Q108.25 81.11 108.51 80.85Q108.78 80.60 109.17 80.60L109.17 80.60Q109.57 80.60 109.83 80.85Q110.09 81.11 110.09 81.51L110.09 81.51Q110.09 81.91 109.83 82.16Q109.57 82.42 109.17 82.42Z  M119.79 89.88L119.79 89.88Q119.00 89.88 118.32 89.49Q117.64 89.10 117.23 88.37Q116.82 87.63 116.82 86.59L116.82 86.59L116.82 86.40Q116.82 85.37 117.23 84.63Q117.63 83.89 118.31 83.50Q118.98 83.11 119.79 83.11L119.79 83.11Q120.41 83.11 120.83 83.26Q121.26 83.42 121.53 83.66Q121.80 83.90 121.95 84.16L121.95 84.16L122.15 84.16L122.15 80.60L123.49 80.60L123.49 89.70L122.18 89.70L122.18 88.79L121.97 88.79Q121.73 89.20 121.22 89.54Q120.72 89.88 119.79 89.88ZM120.17 88.71L120.17 88.71Q121.04 88.71 121.60 88.15Q122.17 87.59 122.17 86.55L122.17 86.55L122.17 86.44Q122.17 85.41 121.61 84.85Q121.05 84.29 120.17 84.29L120.17 84.29Q119.31 84.29 118.74 84.85Q118.18 85.41 118.18 86.44L118.18 86.44L118.18 86.55Q118.18 87.59 118.74 88.15Q119.31 88.71 120.17 88.71Z M128.46 89.88L128.46 89.88Q127.77 89.88 127.23 89.65Q126.69 89.41 126.37 88.96Q126.05 88.50 126.05 87.85L126.05 87.85Q126.05 87.19 126.37 86.75Q126.69 86.32 127.24 86.10Q127.80 85.88 128.50 85.88L128.50 85.88L130.45 85.88L130.45 85.46Q130.45 84.90 130.11 84.56Q129.77 84.23 129.07 84.23L129.07 84.23Q128.38 84.23 128.02 84.55Q127.65 84.88 127.54 85.40L127.54 85.40L126.29 84.99Q126.44 84.47 126.79 84.05Q127.13 83.63 127.70 83.37Q128.28 83.11 129.08 83.11L129.08 83.11Q130.33 83.11 131.05 83.74Q131.76 84.38 131.76 85.55L131.76 85.55L131.76 88.19Q131.76 88.58 132.12 88.58L132.12 88.58L132.67 88.58L132.67 89.70L131.67 89.70Q131.21 89.70 130.93 89.46Q130.64 89.23 130.64 88.83L130.64 88.83L130.64 88.79L130.45 88.79Q130.34 88.98 130.14 89.24Q129.93 89.50 129.52 89.69Q129.12 89.88 128.46 89.88ZM128.65 88.78L128.65 88.78Q129.46 88.78 129.95 88.31Q130.45 87.85 130.45 87.05L130.45 87.05L130.45 86.92L128.58 86.92Q128.04 86.92 127.72 87.14Q127.39 87.37 127.39 87.81L127.39 87.81Q127.39 88.26 127.73 88.52Q128.07 88.78 128.65 88.78Z M136.31 89.70L134.97 89.70L134.97 80.60L136.31 80.60L136.31 84.20L136.52 84.20Q136.65 83.95 136.89 83.72Q137.13 83.48 137.52 83.33Q137.92 83.19 138.53 83.19L138.53 83.19Q139.26 83.19 139.83 83.51Q140.39 83.84 140.72 84.43Q141.04 85.02 141.04 85.85L141.04 85.85L141.04 89.70L139.70 89.70L139.70 85.95Q139.70 85.12 139.29 84.73Q138.87 84.33 138.14 84.33L138.14 84.33Q137.31 84.33 136.81 84.88Q136.31 85.42 136.31 86.46L136.31 86.46L136.31 89.70Z M146.97 89.88L146.97 89.88Q146.01 89.88 145.26 89.48Q144.51 89.09 144.08 88.35Q143.65 87.61 143.65 86.59L143.65 86.59L143.65 86.40Q143.65 85.38 144.08 84.65Q144.51 83.91 145.26 83.51Q146.01 83.11 146.97 83.11L146.97 83.11Q147.93 83.11 148.68 83.51Q149.44 83.91 149.87 84.65Q150.30 85.38 150.30 86.40L150.30 86.40L150.30 86.59Q150.30 87.61 149.87 88.35Q149.44 89.09 148.68 89.48Q147.93 89.88 146.97 89.88ZM146.97 88.68L146.97 88.68Q147.85 88.68 148.41 88.12Q148.96 87.55 148.96 86.55L148.96 86.55L148.96 86.44Q148.96 85.43 148.41 84.87Q147.87 84.30 146.97 84.30L146.97 84.30Q146.10 84.30 145.54 84.87Q144.99 85.43 144.99 86.44L144.99 86.44L144.99 86.55Q144.99 87.55 145.54 88.12Q146.10 88.68 146.97 88.68Z M154.95 89.88L154.95 89.88Q154.26 89.88 153.72 89.65Q153.18 89.41 152.86 88.96Q152.54 88.50 152.54 87.85L152.54 87.85Q152.54 87.19 152.86 86.75Q153.18 86.32 153.73 86.10Q154.29 85.88 154.99 85.88L154.99 85.88L156.94 85.88L156.94 85.46Q156.94 84.90 156.60 84.56Q156.26 84.23 155.56 84.23L155.56 84.23Q154.87 84.23 154.51 84.55Q154.14 84.88 154.03 85.40L154.03 85.40L152.78 84.99Q152.93 84.47 153.28 84.05Q153.62 83.63 154.20 83.37Q154.77 83.11 155.57 83.11L155.57 83.11Q156.82 83.11 157.54 83.74Q158.25 84.38 158.25 85.55L158.25 85.55L158.25 88.19Q158.25 88.58 158.62 88.58L158.62 88.58L159.16 88.58L159.16 89.70L158.16 89.70Q157.71 89.70 157.42 89.46Q157.13 89.23 157.13 88.83L157.13 88.83L157.13 88.79L156.94 88.79Q156.83 88.98 156.63 89.24Q156.42 89.50 156.02 89.69Q155.61 89.88 154.95 89.88ZM155.14 88.78L155.14 88.78Q155.95 88.78 156.44 88.31Q156.94 87.85 156.94 87.05L156.94 87.05L156.94 86.92L155.07 86.92Q154.53 86.92 154.21 87.14Q153.88 87.37 153.88 87.81L153.88 87.81Q153.88 88.26 154.22 88.52Q154.56 88.78 155.14 88.78Z M162.80 89.70L161.46 89.70L161.46 83.29L162.77 83.29L162.77 84.04L162.98 84.04Q163.16 83.71 163.57 83.45Q163.97 83.19 164.66 83.19L164.66 83.19Q165.37 83.19 165.81 83.48Q166.25 83.77 166.47 84.23L166.47 84.23L166.67 84.23Q166.90 83.78 167.32 83.48Q167.74 83.19 168.52 83.19L168.52 83.19Q169.14 83.19 169.63 83.44Q170.11 83.69 170.39 84.19Q170.68 84.69 170.68 85.43L170.68 85.43L170.68 89.70L169.34 89.70L169.34 85.54Q169.34 84.95 169.02 84.63Q168.70 84.32 168.12 84.32L168.12 84.32Q167.49 84.32 167.12 84.72Q166.74 85.12 166.74 85.88L166.74 85.88L166.74 89.70L165.40 89.70L165.40 85.54Q165.40 84.95 165.08 84.63Q164.76 84.32 164.18 84.32L164.18 84.32Q163.55 84.32 163.18 84.72Q162.80 85.12 162.80 85.88L162.80 85.88L162.80 89.70Z" fill="#1d1c19" fill-opacity="0.7"></path><circle cx="133.9" cy="234.6" r="7.5" fill="#fff"></circle><circle cx="133.9" cy="234.6" r="7.5" fill="none" stroke="#c2683f" stroke-width="2"></circle><circle cx="133.9" cy="234.6" r="3.6" fill="#c2683f"></circle><svg x="25.43" y="163.00" width="175.14" height="90.00" viewBox="0 0 360 185" overflow="visible"><g fill="#1d1c19"><g transform="translate(64.98,0)"><path d="M22.88 133.59 L22.88 133.59 Q21.33 133.16 20.38 132.82 L20.38 132.82 L19.44 132.56 Q19.61 132.13 19.31 131.78 Q19.01 131.44 18.06 131.35 L18.06 131.35 Q16.77 130.49 15.39 128.95 Q14.02 127.40 12.99 125.76 Q11.95 124.13 11.61 123.36 L11.61 123.36 Q11.18 122.32 11.44 121.98 L11.44 121.98 Q11.52 121.81 11.70 121.72 L11.70 121.72 Q12.38 121.46 13.33 121.03 L13.33 121.03 Q14.28 120.35 15.35 120.00 Q16.43 119.66 17.11 121.12 L17.11 121.12 Q18.23 123.10 20.60 124.47 Q22.96 125.85 26.02 126.11 Q29.07 126.37 32.16 125.08 L32.16 125.08 Q34.23 124.13 34.40 122.45 Q34.57 120.78 33.11 118.54 L33.11 118.54 Q32.85 117.85 32.38 117.42 Q31.91 116.99 31.00 116.30 Q30.10 115.62 28.47 114.07 L28.47 114.07 Q27.18 113.47 26.10 112.95 Q25.03 112.43 23.82 111.83 L23.82 111.83 Q22.45 111.14 20.73 109.90 Q19.01 108.65 17.54 107.14 Q16.08 105.64 15.31 104.26 L15.31 104.26 Q13.93 102.97 13.59 100.69 Q13.24 98.42 13.72 95.84 Q14.19 93.26 15.31 91.19 L15.31 91.19 Q15.82 89.99 17.20 88.05 Q18.58 86.12 20.30 84.05 Q22.02 81.99 23.61 80.31 Q25.20 78.64 26.14 78.03 L26.14 78.03 Q26.83 77.35 27.61 76.57 L27.61 76.57 L28.38 75.88 Q28.47 75.45 28.72 75.45 L28.72 75.45 L28.90 75.45 Q29.33 75.20 30.79 74.59 Q32.25 73.99 33.97 72.36 L33.97 72.36 Q39.73 69.61 43.77 68.62 Q47.82 67.63 50.14 67.63 L50.14 67.63 Q52.29 67.71 54.35 68.79 Q56.42 69.86 57.92 71.50 Q59.43 73.13 59.68 75.20 L59.68 75.20 Q60.29 77.26 59.13 80.14 Q57.96 83.02 55.94 85.56 Q53.92 88.10 51.77 89.30 L51.77 89.30 Q49.36 90.33 47.69 89.56 Q46.01 88.78 46.10 87.15 L46.10 87.15 Q46.10 86.46 46.57 85.52 Q47.04 84.57 49.19 82.16 L49.19 82.16 Q51.94 78.12 52.12 76.40 Q52.29 74.68 50.57 74.42 L50.57 74.42 Q50.05 74.25 48.59 74.51 Q47.13 74.77 45.45 75.15 Q43.77 75.54 42.53 75.97 Q41.28 76.40 41.28 76.57 L41.28 76.57 L41.28 76.83 Q41.28 76.92 41.19 77.00 L41.19 77.00 Q41.19 77.09 40.94 77.00 L40.94 77.00 Q40.76 77.00 39.78 77.56 Q38.79 78.12 37.41 78.98 Q36.03 79.84 34.70 80.74 Q33.37 81.65 32.42 82.33 Q31.48 83.02 31.39 83.19 L31.39 83.19 Q31.22 84.14 29.41 84.91 L29.41 84.91 Q27.69 85.95 26.40 87.84 Q25.11 89.73 23.39 92.65 L23.39 92.65 Q21.93 94.63 21.33 96.91 Q20.73 99.19 21.33 100.57 L21.33 100.57 Q21.76 101.94 23.69 103.28 Q25.63 104.61 28.98 106.59 L28.98 106.59 Q31.91 108.22 34.49 110.03 Q37.07 111.83 38.87 113.51 Q40.68 115.19 41.19 116.30 L41.19 116.30 Q42.23 117.77 42.44 119.66 Q42.66 121.55 42.44 123.31 Q42.23 125.08 41.88 126.19 L41.88 126.19 Q41.28 127.57 40.03 129.12 Q38.79 130.67 37.75 130.58 L37.75 130.58 Q36.81 130.84 36.34 131.18 Q35.86 131.53 35.26 131.78 L35.26 131.78 Q34.66 132.13 32.42 132.60 Q30.19 133.07 27.52 133.38 Q24.85 133.68 22.88 133.59 Z M67.77 126.28 L67.77 126.28 Q65.19 127.74 62.31 127.96 Q59.43 128.17 56.93 127.18 Q54.44 126.19 52.89 124.22 L52.89 124.22 Q52.03 123.10 51.26 120.65 Q50.48 118.20 51.00 113.98 L51.00 113.98 Q51.51 110.03 53.45 105.98 Q55.38 101.94 58.22 98.85 Q61.06 95.75 64.41 94.63 L64.41 94.63 Q65.62 94.20 66.86 93.99 Q68.11 93.77 70.18 93.94 L70.18 93.94 Q72.15 94.20 73.70 94.93 Q75.25 95.66 75.94 96.52 L75.94 96.52 Q77.31 97.90 77.74 99.19 Q78.17 100.48 78.09 101.68 L78.09 101.68 Q77.66 104.44 75.64 107.62 Q73.62 110.80 70.00 112.35 L70.00 112.35 Q68.54 112.95 66.56 113.12 Q64.59 113.29 61.15 112.61 L61.15 112.61 Q59.08 112.18 58.44 113.04 Q57.79 113.90 57.88 116.39 L57.88 116.39 Q58.05 117.94 58.61 119.10 Q59.17 120.26 60.72 120.69 L60.72 120.69 Q62.69 121.03 63.55 120.73 Q64.41 120.43 65.70 119.83 L65.70 119.83 Q66.39 119.40 67.08 118.88 L67.08 118.88 L68.37 117.85 Q68.97 117.34 69.40 117.08 L69.40 117.08 Q69.83 116.73 70.26 116.65 Q70.69 116.56 71.12 116.56 L71.12 116.56 Q72.07 116.65 72.93 117.59 Q73.79 118.54 74.05 119.40 L74.05 119.40 Q74.05 120.09 73.19 121.33 Q72.33 122.58 70.91 123.92 Q69.49 125.25 67.77 126.28 Z M66.65 107.10 L66.65 107.10 Q67.25 106.84 68.41 105.90 Q69.57 104.95 70.52 103.88 Q71.47 102.80 71.47 102.20 L71.47 102.20 Q71.47 101.25 70.22 100.57 Q68.97 99.88 66.99 100.31 L66.99 100.31 Q66.31 100.48 65.36 101.25 Q64.41 102.03 63.47 103.02 Q62.52 104.01 61.83 104.91 Q61.15 105.81 60.89 106.33 L60.89 106.33 Q61.23 106.76 62.26 107.02 Q63.30 107.27 64.54 107.27 Q65.79 107.27 66.65 107.10 Z M96.49 126.28 L96.49 126.28 Q93.91 127.74 91.03 127.96 Q88.15 128.17 85.66 127.18 Q83.16 126.19 81.61 124.22 L81.61 124.22 Q80.75 123.10 79.98 120.65 Q79.21 118.20 79.72 113.98 L79.72 113.98 Q80.24 110.03 82.17 105.98 Q84.11 101.94 86.95 98.85 Q89.78 95.75 93.14 94.63 L93.14 94.63 Q94.34 94.20 95.59 93.99 Q96.84 93.77 98.90 93.94 L98.90 93.94 Q100.88 94.20 102.43 94.93 Q103.97 95.66 104.66 96.52 L104.66 96.52 Q106.04 97.90 106.47 99.19 Q106.90 100.48 106.81 101.68 L106.81 101.68 Q106.38 104.44 104.36 107.62 Q102.34 110.80 98.73 112.35 L98.73 112.35 Q97.27 112.95 95.29 113.12 Q93.31 113.29 89.87 112.61 L89.87 112.61 Q87.81 112.18 87.16 113.04 Q86.52 113.90 86.60 116.39 L86.60 116.39 Q86.77 117.94 87.33 119.10 Q87.89 120.26 89.44 120.69 L89.44 120.69 Q91.42 121.03 92.28 120.73 Q93.14 120.43 94.43 119.83 L94.43 119.83 Q95.12 119.40 95.80 118.88 L95.80 118.88 L97.09 117.85 Q97.70 117.34 98.13 117.08 L98.13 117.08 Q98.56 116.73 98.99 116.65 Q99.42 116.56 99.85 116.56 L99.85 116.56 Q100.79 116.65 101.65 117.59 Q102.51 118.54 102.77 119.40 L102.77 119.40 Q102.77 120.09 101.91 121.33 Q101.05 122.58 99.63 123.92 Q98.21 125.25 96.49 126.28 Z M95.37 107.10 L95.37 107.10 Q95.98 106.84 97.14 105.90 Q98.30 104.95 99.24 103.88 Q100.19 102.80 100.19 102.20 L100.19 102.20 Q100.19 101.25 98.94 100.57 Q97.70 99.88 95.72 100.31 L95.72 100.31 Q95.03 100.48 94.08 101.25 Q93.14 102.03 92.19 103.02 Q91.25 104.01 90.56 104.91 Q89.87 105.81 89.61 106.33 L89.61 106.33 Q89.96 106.76 90.99 107.02 Q92.02 107.27 93.27 107.27 Q94.51 107.27 95.37 107.10 Z M118.42 145.20 L118.42 145.20 Q116.01 146.15 113.39 144.90 Q110.77 143.65 108.88 140.99 L108.88 140.99 Q108.53 140.47 107.84 139.14 Q107.16 137.80 106.51 136.26 Q105.87 134.71 105.56 133.59 Q105.26 132.47 105.52 132.30 L105.52 132.30 Q105.87 131.35 107.07 131.18 Q108.27 131.01 109.48 131.31 Q110.68 131.61 110.85 132.13 L110.85 132.13 Q111.11 132.73 111.37 133.38 Q111.63 134.02 112.01 134.58 Q112.40 135.14 112.75 135.57 L112.75 135.57 Q113.69 137.03 114.81 137.59 Q115.93 138.15 116.53 137.72 L116.53 137.72 Q117.99 136.60 118.72 135.09 Q119.45 133.59 120.66 129.81 L120.66 129.81 Q121.60 126.62 122.29 124.30 Q122.98 121.98 123.75 120.00 L123.75 120.00 Q124.01 118.97 124.44 118.20 L124.44 118.20 Q124.53 118.02 124.61 117.85 L124.61 117.85 Q123.41 118.71 122.46 119.57 L122.46 119.57 Q121.17 120.78 118.94 121.72 L118.94 121.72 Q118.42 122.32 116.40 122.45 Q114.38 122.58 112.49 121.98 L112.49 121.98 Q111.28 121.29 110.55 120.56 Q109.82 119.83 109.35 118.88 Q108.88 117.94 108.36 116.65 L108.36 116.65 Q107.76 115.36 108.19 112.43 Q108.62 109.51 109.74 106.59 L109.74 106.59 Q110.77 104.44 112.75 101.94 Q114.72 99.45 116.96 97.43 Q119.20 95.41 121.00 94.89 L121.00 94.89 Q121.69 94.55 123.41 94.07 Q125.13 93.60 126.68 94.03 L126.68 94.03 Q128.14 94.20 128.91 94.67 Q129.69 95.15 131.41 96.61 L131.41 96.61 Q132.53 97.73 134.16 99.49 Q135.79 101.25 136.22 102.46 L136.22 102.46 Q136.83 103.75 136.48 105.25 Q136.14 106.76 135.28 107.88 L135.28 107.88 Q134.50 108.99 133.64 110.11 Q132.78 111.23 132.35 113.21 L132.35 113.21 Q131.92 115.79 130.72 119.01 Q129.52 122.24 128.83 124.99 L128.83 124.99 L127.45 130.32 Q125.30 137.63 122.72 140.94 Q120.14 144.25 118.42 145.20 Z M116.62 115.62 L116.62 115.62 Q118.34 115.53 119.58 115.23 Q120.83 114.93 121.95 113.85 Q123.07 112.78 124.53 110.54 L124.53 110.54 Q125.99 108.48 126.59 106.76 Q127.19 105.04 127.02 102.89 L127.02 102.89 Q126.94 101.51 126.25 101.08 Q125.56 100.65 124.44 100.82 L124.44 100.82 Q122.81 101.08 121.52 102.16 Q120.23 103.23 118.51 105.47 L118.51 105.47 Q117.22 107.19 116.36 109.60 L116.36 109.60 Q115.50 112.18 115.63 113.72 Q115.76 115.27 116.62 115.62 Z M143.88 138.41 L143.88 138.41 Q143.36 138.75 141.56 137.59 Q139.75 136.43 138.55 135.05 L138.55 135.05 Q137.94 134.36 137.77 133.59 Q137.60 132.82 137.86 130.67 L137.86 130.67 Q138.20 129.72 138.24 128.86 Q138.29 128.00 138.29 127.66 L138.29 127.66 Q138.29 127.14 138.59 125.25 Q138.89 123.36 139.23 121.25 Q139.58 119.14 139.84 118.02 L139.84 118.02 Q139.84 117.94 139.96 117.42 Q140.09 116.91 140.18 116.65 L140.18 116.65 Q140.35 115.87 140.61 114.76 Q140.87 113.64 141.13 111.75 L141.13 111.75 Q141.81 109.60 142.29 107.49 Q142.76 105.38 142.76 104.61 L142.76 104.61 Q142.76 103.06 143.96 102.37 L143.96 102.37 Q144.05 101.94 144.48 101.04 Q144.91 100.14 145.25 99.53 L145.25 99.53 Q146.97 94.63 148.09 91.71 Q149.21 88.78 150.41 86.63 L150.41 86.63 Q150.93 85.17 151.57 83.62 Q152.22 82.08 152.91 81.22 L152.91 81.22 Q153.51 80.01 155.01 78.25 Q156.52 76.49 158.24 74.85 Q159.96 73.22 160.99 72.44 L160.99 72.44 Q162.88 71.50 164.52 70.90 Q166.15 70.29 167.96 70.29 L167.96 70.29 Q169.59 70.29 170.84 71.03 Q172.09 71.76 174.58 73.99 L174.58 73.99 Q175.44 75.11 175.44 76.14 Q175.44 77.17 175.01 77.86 L175.01 77.86 Q174.41 79.24 173.20 81.26 Q172.00 83.28 170.88 84.87 Q169.76 86.46 169.25 86.55 L169.25 86.55 Q168.22 87.15 167.10 86.89 Q165.98 86.63 165.98 85.34 L165.98 85.34 Q165.98 84.74 166.07 84.23 L166.07 84.23 L166.07 83.71 Q166.32 82.59 166.71 81.73 Q167.10 80.87 167.44 80.27 L167.44 80.27 Q168.13 79.15 167.83 78.12 Q167.53 77.09 165.64 77.26 L165.64 77.26 Q165.38 77.43 164.65 78.08 Q163.92 78.72 163.10 79.54 Q162.28 80.36 161.68 81.09 Q161.08 81.82 161.08 82.08 L161.08 82.08 L160.65 82.94 Q160.13 83.88 159.19 85.00 L159.19 85.00 Q158.58 85.86 158.15 86.63 Q157.72 87.41 157.72 87.84 L157.72 87.84 Q157.72 88.18 157.64 88.44 Q157.55 88.70 157.21 88.70 L157.21 88.70 L156.95 89.56 Q156.61 90.42 155.92 91.62 L155.92 91.62 Q155.57 92.48 155.19 93.21 Q154.80 93.94 154.46 94.29 L154.46 94.29 L154.37 94.46 L154.03 95.41 Q153.60 96.44 153.17 97.47 Q152.74 98.50 152.74 98.67 L152.74 98.67 Q152.74 99.02 153.77 99.02 Q154.80 99.02 156.26 98.72 Q157.72 98.42 159.10 98.07 L159.10 98.07 Q160.30 97.73 160.82 97.73 Q161.34 97.73 162.45 98.07 L162.45 98.07 Q163.14 98.50 163.57 99.58 Q164.00 100.65 164.22 101.73 Q164.43 102.80 164.26 103.32 L164.26 103.32 Q164.17 103.66 162.32 104.26 Q160.48 104.87 158.67 105.21 L158.67 105.21 Q157.12 105.55 155.19 105.94 Q153.25 106.33 151.79 106.72 Q150.33 107.10 150.24 107.45 L150.24 107.45 Q149.90 107.45 149.68 107.88 Q149.47 108.31 149.47 108.65 L149.47 108.65 Q149.47 109.77 149.04 110.46 L149.04 110.46 Q148.87 110.97 148.48 112.56 Q148.09 114.15 147.70 116.00 Q147.32 117.85 147.02 119.44 Q146.72 121.03 146.72 121.55 L146.72 121.55 Q146.20 122.15 146.11 123.06 Q146.03 123.96 146.03 124.65 L146.03 124.65 Q145.68 125.33 145.60 125.89 Q145.51 126.45 145.51 126.80 L145.51 126.80 L145.51 127.14 Q145.51 127.40 145.43 127.66 L145.43 127.66 Q145.34 128.52 145.21 129.94 Q145.08 131.35 145.08 132.73 L145.08 132.73 L144.82 135.22 Q144.74 136.34 144.52 137.16 Q144.31 137.98 143.88 138.41 Z M186.02 127.83 L186.02 127.83 Q185.16 126.97 184.64 125.46 Q184.13 123.96 183.61 121.98 L183.61 121.98 Q183.44 121.29 183.48 120.43 Q183.52 119.57 183.44 119.06 L183.44 119.06 Q183.18 119.66 182.62 120.60 Q182.06 121.55 181.55 121.98 L181.55 121.98 Q181.20 122.32 180.00 123.31 Q178.79 124.30 177.59 124.90 L177.59 124.90 Q174.75 126.71 172.56 126.58 Q170.37 126.45 168.73 124.39 L168.73 124.39 Q167.36 123.27 166.50 121.55 Q165.64 119.83 166.15 117.42 L166.15 117.42 Q166.32 114.41 167.01 111.53 Q167.70 108.65 169.85 103.83 L169.85 103.83 Q171.66 100.31 172.60 98.33 Q173.55 96.35 173.81 96.01 L173.81 96.01 Q175.10 95.58 176.99 96.05 Q178.88 96.52 179.05 97.73 L179.05 97.73 Q179.57 98.59 179.05 100.95 Q178.54 103.32 176.99 106.33 L176.99 106.33 Q175.78 109.25 174.71 112.00 Q173.63 114.76 173.42 116.65 Q173.20 118.54 174.41 118.97 L174.41 118.97 Q175.18 119.40 176.69 118.88 Q178.19 118.37 180.26 115.79 Q182.32 113.21 184.64 107.62 L184.64 107.62 Q185.33 105.90 185.67 104.56 Q186.02 103.23 186.10 101.60 L186.10 101.60 Q185.93 100.57 186.66 99.45 Q187.39 98.33 188.43 97.73 L188.43 97.73 Q188.77 97.30 189.37 96.87 L189.37 96.87 Q189.80 96.61 189.97 96.78 L189.97 96.78 Q190.06 96.78 190.15 96.95 L190.15 96.95 L191.52 96.87 Q191.87 96.78 192.30 97.56 Q192.73 98.33 193.16 98.67 L193.16 98.67 Q194.10 99.45 194.02 102.03 Q193.93 104.61 191.95 109.25 L191.95 109.25 Q190.32 112.78 189.76 114.58 Q189.20 116.39 189.11 118.11 L189.11 118.11 Q189.11 119.66 189.37 120.73 Q189.63 121.81 190.92 122.93 L190.92 122.93 Q191.87 123.53 191.99 124.95 Q192.12 126.37 192.04 127.40 L192.04 127.40 Q191.87 128.17 190.70 128.47 Q189.54 128.77 188.21 128.60 Q186.88 128.43 186.02 127.83 Z M197.80 126.54 L197.80 126.54 Q197.11 125.85 196.81 124.47 Q196.51 123.10 196.60 121.77 Q196.68 120.43 197.03 119.74 L197.03 119.74 Q197.03 119.06 197.24 118.67 Q197.46 118.28 197.37 117.94 L197.37 117.94 Q197.28 117.59 197.54 116.73 Q197.80 115.87 198.06 115.10 L198.06 115.10 Q198.66 113.72 199.43 111.53 Q200.21 109.34 200.98 107.06 Q201.76 104.78 202.27 103.10 Q202.79 101.43 202.87 101.08 L202.87 101.08 Q202.87 100.05 204.25 99.96 L204.25 99.96 Q205.28 99.62 206.74 100.82 Q208.21 102.03 209.07 103.40 L209.07 103.40 Q209.75 104.09 209.58 105.21 Q209.41 106.33 208.46 108.39 L208.46 108.39 Q208.12 109.08 207.65 110.67 Q207.17 112.26 207.00 113.29 L207.00 113.29 Q206.66 113.98 206.18 115.23 Q205.71 116.48 205.37 117.59 L205.37 117.59 Q205.20 118.02 205.02 119.19 Q204.85 120.35 204.59 121.55 Q204.34 122.75 203.91 123.44 L203.91 123.44 Q203.13 126.97 201.20 127.57 Q199.26 128.17 197.80 126.54 Z " fill="#1d1c19"></path><defs><mask id="hm2" maskUnits="userSpaceOnUse"><path d="M0,3 C0,-3 -9,-6 -9,-13 C-9,-19 -2,-20 0,-14 C2,-20 9,-19 9,-13 C9,-6 0,-3 0,3 Z" fill="#fff"></path><path d="M-7.5,-8 q2.5,-3.4 5,0 t5,0 t5,0" fill="none" stroke="#000" stroke-width="2.1" stroke-linecap="round"></path></mask></defs><g transform="translate(210.40,95.23) rotate(12) scale(0.940)"><path d="M0,3 C0,-3 -9,-6 -9,-13 C-9,-19 -2,-20 0,-14 C2,-20 9,-19 9,-13 C9,-6 0,-3 0,3 Z" fill="#d23b34" mask="url(#hm2)"></path></g></g></g></svg><path d="M16.90 304.32L16.90 304.32Q15.94 304.32 15.20 303.98Q14.46 303.64 14.04 302.99Q13.62 302.34 13.62 301.40L13.62 301.40L13.62 301.09L15.05 301.09L15.05 301.40Q15.05 302.23 15.55 302.64Q16.06 303.05 16.90 303.05L16.90 303.05Q17.75 303.05 18.18 302.70Q18.61 302.35 18.61 301.80L18.61 301.80Q18.61 301.43 18.41 301.19Q18.20 300.96 17.81 300.82Q17.42 300.67 16.87 300.54L16.87 300.54L16.51 300.47Q15.68 300.28 15.08 299.98Q14.47 299.69 14.15 299.22Q13.82 298.75 13.82 298.00L13.82 298.00Q13.82 297.24 14.18 296.70Q14.54 296.16 15.20 295.87Q15.86 295.58 16.75 295.58L16.75 295.58Q17.64 295.58 18.34 295.88Q19.03 296.18 19.43 296.78Q19.84 297.38 19.84 298.28L19.84 298.28L19.84 298.68L18.41 298.68L18.41 298.28Q18.41 297.77 18.20 297.46Q18.00 297.14 17.63 297Q17.26 296.86 16.75 296.86L16.75 296.86Q16.01 296.86 15.62 297.14Q15.24 297.43 15.24 297.96L15.24 297.96Q15.24 298.30 15.41 298.53Q15.59 298.76 15.93 298.91Q16.27 299.06 16.79 299.17L16.79 299.17L17.15 299.26Q18.01 299.45 18.66 299.74Q19.31 300.04 19.67 300.52Q20.04 301.00 20.04 301.76L20.04 301.76Q20.04 302.52 19.65 303.10Q19.26 303.67 18.56 304.00Q17.86 304.32 16.90 304.32Z M31.72 304.15L30.28 304.15L30.28 297.06L27.77 297.06L27.77 295.75L34.23 295.75L34.23 297.06L31.72 297.06L31.72 304.15Z M43.26 304.15L41.77 304.15L44.07 295.75L46.58 295.75L48.88 304.15L47.40 304.15L46.89 302.23L43.76 302.23L43.26 304.15ZM45.22 296.65L44.10 300.91L46.56 300.91L45.43 296.65L45.22 296.65Z M58.40 304.15L56.95 304.15L56.95 295.75L60.54 295.75Q61.33 295.75 61.92 296.03Q62.51 296.30 62.84 296.80Q63.17 297.30 63.17 298.00L63.17 298.00L63.17 298.13Q63.17 298.91 62.80 299.38Q62.42 299.84 61.90 300.06L61.90 300.06L61.90 300.25Q62.36 300.28 62.63 300.58Q62.90 300.88 62.90 301.38L62.90 301.38L62.90 304.15L61.46 304.15L61.46 301.58Q61.46 301.28 61.30 301.10Q61.14 300.91 60.78 300.91L60.78 300.91L58.40 300.91L58.40 304.15ZM58.40 297.06L58.40 299.60L60.40 299.60Q61.02 299.60 61.37 299.27Q61.73 298.94 61.73 298.39L61.73 298.39L61.73 298.28Q61.73 297.72 61.38 297.39Q61.03 297.06 60.40 297.06L60.40 297.06L58.40 297.06Z M72.96 304.15L71.54 304.15L71.54 295.75L74.30 295.75L76.28 303.18L76.47 303.18L76.47 295.75L77.90 295.75L77.90 304.15L75.15 304.15L73.17 296.72L72.96 296.72L72.96 304.15Z M90.61 304.15L86.28 304.15L86.28 302.88L87.40 302.88L87.40 297.02L86.28 297.02L86.28 295.75L90.57 295.75Q91.33 295.75 91.90 296.01Q92.47 296.27 92.79 296.74Q93.10 297.22 93.10 297.88L93.10 297.88L93.10 297.98Q93.10 298.56 92.89 298.93Q92.67 299.30 92.37 299.51Q92.07 299.71 91.80 299.80L91.80 299.80L91.80 300Q92.07 300.07 92.39 300.27Q92.71 300.47 92.93 300.85Q93.15 301.22 93.15 301.82L93.15 301.82L93.15 301.94Q93.15 302.63 92.82 303.13Q92.49 303.62 91.92 303.89Q91.35 304.15 90.61 304.15L90.61 304.15ZM88.84 300.58L88.84 302.84L90.44 302.84Q91.02 302.84 91.36 302.56Q91.70 302.28 91.70 301.76L91.70 301.76L91.70 301.66Q91.70 301.14 91.36 300.86Q91.03 300.58 90.44 300.58L90.44 300.58L88.84 300.58ZM88.84 297.06L88.84 299.27L90.43 299.27Q90.98 299.27 91.32 298.99Q91.66 298.72 91.66 298.22L91.66 298.22L91.66 298.10Q91.66 297.61 91.32 297.34Q90.98 297.06 90.43 297.06L90.43 297.06L88.84 297.06Z M106.92 304.15L101.51 304.15L101.51 295.75L106.86 295.75L106.86 297.06L102.96 297.06L102.96 299.27L106.52 299.27L106.52 300.58L102.96 300.58L102.96 302.84L106.92 302.84L106.92 304.15Z M116.63 304.15L115.18 304.15L115.18 295.75L118.77 295.75Q119.56 295.75 120.15 296.03Q120.74 296.30 121.07 296.80Q121.40 297.30 121.40 298.00L121.40 298.00L121.40 298.13Q121.40 298.91 121.02 299.38Q120.65 299.84 120.12 300.06L120.12 300.06L120.12 300.25Q120.59 300.28 120.86 300.58Q121.13 300.88 121.13 301.38L121.13 301.38L121.13 304.15L119.69 304.15L119.69 301.58Q119.69 301.28 119.53 301.10Q119.37 300.91 119.01 300.91L119.01 300.91L116.63 300.91L116.63 304.15ZM116.63 297.06L116.63 299.60L118.62 299.60Q119.25 299.60 119.60 299.27Q119.96 298.94 119.96 298.39L119.96 298.39L119.96 298.28Q119.96 297.72 119.61 297.39Q119.26 297.06 118.62 297.06L118.62 297.06L116.63 297.06Z M132.68 304.32L132.68 304.32Q131.79 304.32 131.09 303.93Q130.39 303.54 129.97 302.79Q129.56 302.04 129.56 300.95L129.56 300.95L129.56 298.96Q129.56 297.32 130.47 296.45Q131.38 295.58 132.92 295.58L132.92 295.58Q134.46 295.58 135.28 296.41Q136.11 297.23 136.11 298.62L136.11 298.62L136.11 298.67L134.70 298.67L134.70 298.57Q134.70 298.09 134.50 297.71Q134.31 297.32 133.92 297.10Q133.52 296.88 132.92 296.88L132.92 296.88Q132.03 296.88 131.52 297.43Q131.01 297.97 131.01 298.93L131.01 298.93L131.01 300.97Q131.01 301.92 131.52 302.48Q132.03 303.05 132.94 303.05L132.94 303.05Q133.86 303.05 134.28 302.56Q134.70 302.06 134.70 301.30L134.70 301.30L134.70 301.15L132.57 301.15L132.57 299.93L136.11 299.93L136.11 304.15L134.79 304.15L134.79 303.32L134.59 303.32Q134.49 303.54 134.29 303.77Q134.08 304.01 133.71 304.16Q133.33 304.32 132.68 304.32Z M150.11 304.15L144.70 304.15L144.70 295.75L150.05 295.75L150.05 297.06L146.15 297.06L146.15 299.27L149.71 299.27L149.71 300.58L146.15 300.58L146.15 302.84L150.11 302.84L150.11 304.15Z M159.82 304.15L158.37 304.15L158.37 295.75L161.96 295.75Q162.75 295.75 163.34 296.03Q163.92 296.30 164.25 296.80Q164.58 297.30 164.58 298.00L164.58 298.00L164.58 298.13Q164.58 298.91 164.21 299.38Q163.84 299.84 163.31 300.06L163.31 300.06L163.31 300.25Q163.78 300.28 164.05 300.58Q164.32 300.88 164.32 301.38L164.32 301.38L164.32 304.15L162.88 304.15L162.88 301.58Q162.88 301.28 162.72 301.10Q162.56 300.91 162.20 300.91L162.20 300.91L159.82 300.91L159.82 304.15ZM159.82 297.06L159.82 299.60L161.81 299.60Q162.44 299.60 162.79 299.27Q163.14 298.94 163.14 298.39L163.14 298.39L163.14 298.28Q163.14 297.72 162.80 297.39Q162.45 297.06 161.81 297.06L161.81 297.06L159.82 297.06Z  M185.90 304.32L185.90 304.32Q184.94 304.32 184.21 303.98Q183.47 303.64 183.05 302.99Q182.63 302.34 182.63 301.40L182.63 301.40L182.63 301.09L184.06 301.09L184.06 301.40Q184.06 302.23 184.56 302.64Q185.06 303.05 185.90 303.05L185.90 303.05Q186.76 303.05 187.19 302.70Q187.62 302.35 187.62 301.80L187.62 301.80Q187.62 301.43 187.42 301.19Q187.21 300.96 186.82 300.82Q186.43 300.67 185.88 300.54L185.88 300.54L185.52 300.47Q184.69 300.28 184.09 299.98Q183.48 299.69 183.16 299.22Q182.83 298.75 182.83 298.00L182.83 298.00Q182.83 297.24 183.19 296.70Q183.55 296.16 184.21 295.87Q184.87 295.58 185.76 295.58L185.76 295.58Q186.65 295.58 187.34 295.88Q188.04 296.18 188.44 296.78Q188.84 297.38 188.84 298.28L188.84 298.28L188.84 298.68L187.42 298.68L187.42 298.28Q187.42 297.77 187.21 297.46Q187.01 297.14 186.64 297Q186.26 296.86 185.76 296.86L185.76 296.86Q185.02 296.86 184.63 297.14Q184.25 297.43 184.25 297.96L184.25 297.96Q184.25 298.30 184.42 298.53Q184.60 298.76 184.94 298.91Q185.28 299.06 185.80 299.17L185.80 299.17L186.16 299.26Q187.02 299.45 187.67 299.74Q188.32 300.04 188.68 300.52Q189.05 301.00 189.05 301.76L189.05 301.76Q189.05 302.52 188.66 303.10Q188.27 303.67 187.57 304.00Q186.86 304.32 185.90 304.32Z M202.72 304.15L197.31 304.15L197.31 295.75L202.66 295.75L202.66 297.06L198.76 297.06L198.76 299.27L202.32 299.27L202.32 300.58L198.76 300.58L198.76 302.84L202.72 302.84L202.72 304.15Z M216.39 304.15L210.98 304.15L210.98 295.75L216.33 295.75L216.33 297.06L212.43 297.06L212.43 299.27L216.00 299.27L216.00 300.58L212.43 300.58L212.43 302.84L216.39 302.84L216.39 304.15Z" fill="#c2683f"></path></svg>