<svg xmlns="http://www.w3.org/2000/svg" width="1488" height="1444" viewBox="0 0 248 240.8"><mask id="kauqia" maskUnits="userSpaceOnUse" x="-80" y="-80" width="500" height="500"><rect x="-80" y="-80" width="500" height="500" fill="#fff"></rect><rect x="26.008927813859458" y="69" width="195.98214437228108" height="48" rx="8" fill="#000"></rect><rect x="26.008927813859458" y="125.19999999999999" width="195.98214437228108" height="26.80000000000001" rx="8" fill="#000"></rect><rect x="26.008927813859458" y="168.60000000000002" width="195.98214437228108" height="21.19999999999999" rx="8" fill="#000"></rect></mask><g mask="url(#kauqia)"><g transform="translate(124 116) scale(0.10600) translate(-844.95 -1000.01)"><path d="M1646.026,1866.889v-2.045v-5.17l-1.4-3.088l-4.164-3.086l-4.236-4.164l-0.609-2.012l0.609-5.205l0.719-7.252 v-5.098l-0.719-6.281l-1.293-3.088l-2.117-4.057l-2.117-4.127l-4.164-3.088l-3.447-3.088l-4.129-1.076l-2.836-2.117l-2.727-6.176 l-5.564-4.129l-0.684-2.045l-2.836-2.01l-6.246-4.166l-4.164,1.078l-2.729-2.119l-3.518-1.076l-2.047-2.01l-0.682-3.088l0.682-4.164 l-0.682-4.129l-0.717-3.086l-2.119-4.164l-1.4-4.057l-0.609-2.119l-1.436-3.086l-2.801-3.088l-2.047-2.01l-2.117-1.078l-2.117-2.117 l-2.729-0.969l-2.836,0.969l-3.447,1.076l-2.729,1.041l-4.918-1.041l-4.846-4.164l-4.883,2.119l-7.574,3.086l-6.246,2.047 l-6.281,1.041h-3.52l-2.727-1.041l-2.836-2.047l-2.729-4.127l-2.119-4.164l-3.445-3.088l-4.129-1.041l-4.236-2.047l-5.564-1.041 h-6.893l-4.918-0.969h-3.445l-4.129-1.078l-3.553-4.127l-0.611-7.252l-5.564-6.139l-4.918-3.123l-6.893-1.041v4.164l-9.082,2.01 l-11.129,2.119l-7.574,3.086l-4.236-3.086l-6.174,1.041l-9.082,4.057l-10.41,2.117l-7.684,2.047l-7.574,3.086l-9.082,8.293 l1.4,1.041l-2.01,2.047l-1.436-1.076l-1.4,1.076l-9.012,2.01l-2.799-2.01l-2.729-1.076h-3.518l-2.047,4.164l-2.117,1.041h-6.248 l-5.563-1.041l-6.283-1.078l-5.527-3.086l-3.447-3.088l-2.836-4.129l-3.445-5.133l-2.801-7.217l-2.047-4.164l-0.717-6.174 l2.152-7.215l3.412-7.217l0.717-4.164l2.729-4.127l1.4-10.34l2.117-9.262l4.164-7.215l4.129-4.164l6.283-2.012l3.445-3.086 l6.246-8.293l1.4-5.133l2.117-5.205v-4.129l2.047-5.133l1.4-5.207l2.836-2.01l1.328-4.164l0.682-5.098l-2.01-6.281l-0.719-9.262 l-0.717-7.217v-10.338v-5.098v-3.088v-5.205l-0.684-5.133l-1.398-4.129l-3.447-6.246l-7.682-9.262l-4.846-6.174l-0.719-4.164 l-3.447-3.088l-2.117-3.088l-4.846-5.205l-2.729-5.098l-1.4-4.164l-2.117-2.01l-6.965-2.119l-5.564-0.969l-6.893-1.076l-4.236-1.041 l-3.445-3.088l-2.082-1.076l-4.883-0.971l-6.855-1.041h-4.236h-1.328h-11.811l-3.555-1.076l-2.729-2.01l-4.127-2.119l-2.838-4.057 l-2.727-5.205l-1.4-4.164l-1.436-3.086l-4.848-11.381l-2.117-6.174l-2.01-4.129l-0.719-2.045l-4.846-4.129l-2.119-2.047 l-3.445-4.129l-5.564-5.205l-2.117-2.045h-1.4l-2.729-4.129l-0.719-1.076l0.719-2.012l-2.836-4.164l-4.129-5.098l-0.717-1.076 l-7.684-10.303l-6.855-5.205l-4.236-4.057l-3.447-1.041l-1.398-4.164l-2.047-6.176l-0.682-2.117v-0.969l-3.555-7.217h-1.328 l-15.328-10.338h-1.328l-1.4-1.041h-1.436l-0.682-2.047l-2.047-1.041l0.717-1.076h3.447l0.682-0.969l-2.799-1.041l-0.719-1.078 l1.4-1.041l2.836-3.086l4.164-4.057l4.846-3.195l2.801-3.088l1.328-3.088l2.117-4.127l0.719-4.057l2.01-2.119l-1.328-1.076 l-2.801-0.969l-0.717-10.303l-0.719-2.119l-0.609-2.045l0.609-4.129l0.719-5.133l3.518-5.205l0.719-7.217h0.609v-2.045h2.119v-3.088 v-4.129l-1.4-2.117h-0.719l1.4-7.252h1.436l1.4-6.139l-1.4-2.047l4.129-7.215l3.553-6.174l2.729-3.195l5.529-10.303l-1.4-0.969 l2.117-3.088l1.438-6.283l1.291-22.65v-8.293l-0.609-3.088v-1.076v-0.969l-0.682-1.041v-2.047l-0.719-1.041l1.4-2.117v-2.047 l-2.119-4.129h2.119l2.729-2.045v-6.176h1.436l-0.719-5.205l-0.717-5.098l-1.4-6.281l-0.719-2.012v-6.174l-1.291-4.164l-2.836-4.129 l-2.047-3.086v-4.164v-6.176l1.328-3.086v-3.088l-5.564-6.246l-6.246-8.186l-9.693-10.338l-4.846-4.129l-1.436-4.164l-27.068-35.109 h-2.045l-3.518-5.205l-3.447-5.098l-4.129-3.086l-0.717-3.088l-3.518-5.205l-4.848-7.252l-4.164-7.215l-2.799-5.133l-2.047-6.176 l-1.4-6.246l-2.729-6.174l-5.564-9.262l-11.127-12.422l-5.529-6.174l-4.236-8.293l-3.445-8.221l-0.719-5.205v-14.467v-9.262 l-4.127-8.293l-4.848-6.174l-5.564-4.129l-7.682-9.262l-1.4-4.164l-6.281-5.205l-4.848-4.057l-7.574-11.379l-0.717-6.176 l-4.848-6.246l-4.918-2.045l-10.41-10.305l-5.564-5.205l-3.445-2.045l-3.447-2.119l-4.234-0.934l-3.447-1.076l-2.801-2.047h-3.445 l-1.4-1.041l1.4-5.205v-2.01l-2.729-4.164l-2.117-6.174l-3.447-6.176l-2.836-5.205l-0.682-6.174l-0.719-9.334l-1.328-9.262v-5.133 l1.328-7.217l1.4-1.076v-5.205l-1.4-9.262l-5.564-16.479l-5.563-8.291l-6.857-6.176l-9.801-7.25h-1.328l-11.092-3.088l-5.564-1.041 h-1.4h-0.717l-0.719-1.076l-1.4-0.971l-1.328-1.041l0.611-2.117l0.717-7.217l-2.047-6.174l-0.682-13.426l-4.236-5.205l-3.445-7.215 l-4.129-9.262l-1.436-21.719l-1.4-6.176l-0.717-8.291l-2.012-6.176l-1.436-3.086l-4.129-6.176l-1.398-4.127l-2.119-1.078 l-1.328-3.086l0.682-5.207l-1.398-6.174l-0.684-3.088l-3.445-3.086l-2.836-1.041l-2.119-2.047l-4.846-4.129l-6.281-5.205 l-14.539-12.348l-4.129-6.176l-6.965-13.498l-2.764-8.184l-2.799-12.457l-4.164-7.215l-5.564-4.164l-4.129-6.176l-1.4-3.086 l8.975-3.088l4.164-3.088l-0.646-1.041l-4.199,1.041l-9.729,4.164l-4.129-5.205l-6.281-8.293l-5.529-6.174l-2.117-5.133 l-2.047-8.293l-2.799-13.391l-1.438-7.252l-3.445-6.246l-6.246-6.174l-9.693-8.293l-3.445-5.098l-4.955-14.467l-1.328-8.293v-18.523 l-1.4-9.369l-2.799-11.379l-0.719-7.217l0.719-6.174l2.082-3.088l4.881-6.174l9.084-7.252l4.127-6.246l3.447-6.174l4.127-5.133 l2.836-9.334l1.4-5.133l0.719-4.129l1.328-4.164l4.236-11.344l0.609-3.088l1.4-3.088l2.117-8.291l0.719-4.164v-4.129l-0.719-5.133 l-0.682-2.012l-1.436-2.117l-1.4-2.047v-4.129l2.119-2.117l0.717-2.047l-2.117-7.215h-0.719l-2.729-3.088l-1.398-1.076l-1.438-9.262 l1.438-6.246l3.518-6.174l-0.719-16.514l0.719-4.129v-3.088l-0.719-4.164l-3.518-6.174l-2.047-2.117l-1.4-2.012l-2.836,1.041 l-2.01,0.971l-0.717-0.971v-1.041l2.117-1.076h2.047l1.398-2.01l2.729-2.119l2.119-2.045l1.4-1.041v-3.088l1.436-6.174l2.01-5.207 l1.436-4.127v-7.252v-4.057l-1.436-13.498l-0.682-8.184v-5.207l-1.328-3.086l-1.436-8.293l-2.082-4.164l-3.447-11.379l-2.836-10.304 l-0.719-5.134l-2.01-3.087l-3.518-4.128l-0.646-4.164l-4.199-6.175l-2.047-3.087l-0.719-4.129V0h-4.846h-7.682l-3.41,3.087 l1.328,6.175l-0.719,6.282l-4.846,14.467l-3.447,4.057l-4.164,3.159l-3.518,4.057l-2.729,3.088l-4.846,3.193l-5.564-2.117 l-4.846-2.047l-5.564-1.041h-9.082l-7.574,1.041l-9.082,2.047l-9.012,4.129l-9.082,3.086h-5.564l-4.846-3.086l-4.129,1.076 l-4.883,2.01l-4.127,4.164l-0.719,1.041l-6.963,3.088l-2.729,1.076l-6.246,2.012l-7.684,3.086l-4.164-1.041l-6.246-0.969 l-6.281,0.969l-3.412,2.119l-6.281,3.086l-6.246,4.129l-1.436,3.088l-6.965,5.205l-3.41,4.057l-7.682,6.281v2.012l-2.047,6.174 l-2.117,7.252l-0.684,4.127l-4.164,8.293l-2.836,9.262l-2.729,7.217l-3.445,5.205l-2.801,3.086l-2.117,2.047h-0.611l-6.281,1.041 l-9.801,1.076h-8.256l-7.684,3.088l-4.846,1.041l-2.045-1.041l-3.52-1.076l-3.445,1.076h-2.119l-2.727,2.01l-6.965,5.205 l-7.682,5.207l-6.248,3.086l-11.127,3.088l-6.893,8.221l-10.482,6.246l-4.129,3.088l-10.41,4.164l-9.01,4.127l-2.836,6.176v4.164 l-1.4,6.174l-2.012,4.129l-4.164,2.045l-4.234,3.088l-6.248,1.041l-3.445,4.164l-4.846,6.176l-1.436,5.205l-1.4,6.174l-2.012,7.215 l-3.553,15.51l-1.293,4.055l-2.154,3.195l-8.256,11.273l-2.836,5.205l-8.293,11.379v6.174l-2.836,4.164l-2.117,7.217l-3.447,6.174 l-1.4,4.164l0.719,3.088l1.4,8.293l2.117,7.215l2.047,12.35v15.543l5.527,4.129l1.438,4.164l-1.438,5.098l-1.398,3.088l-4.848,1.076 l-2.01,4.129l3.41,5.098l0.719,6.281l4.127,7.215l4.166,6.176l2.836,8.293l1.398,8.221v5.205l1.328,5.098l-1.328,3.193l-0.717,6.176 l0.717,4.127l1.328,5.135l-0.609,4.129l-3.555,4.164l-6.246,6.174l-5.564,5.205l-4.164,6.174l-1.4,3.088l0.719,7.215l2.117,5.205 l4.848,5.135l2.729,5.205l5.564,13.391l2.836,6.174l6.246,4.129l1.398,4.164l-11.811,15.436l-8.363,14.467l-4.883,7.217l0.719,9.369 v4.127l4.846,13.426l1.436,7.217l0.684,8.221l2.727,3.158l7.002,8.221l4.846,5.205l6.965,5.098l2.01,7.252l4.236,11.379l2.045,5.17 l3.52,7.252l3.445,12.35l2.117,8.291l-0.717,5.098l2.045,9.369l0.684,8.186l-1.293,10.338l-2.154,7.217l0.719,4.164l6.281,9.334 l4.129,6.174l2.729,8.221l4.953,5.205l2.012,8.293l4.881,6.174l1.4,7.217v5.133l-4.846,15.508l-3.447,5.205l-2.117,3.088h-9.01 l-2.801,7.215l-5.564,4.057l-8.293,3.195L387.325,850l-2.047,6.174l-0.682,4.164l2.01,10.303l2.119,5.205l3.445,4.164l4.848,3.088 l2.799,1.041l11.848-1.041l4.846,2.01l11.092-0.969l4.883,0.969l3.41,4.164l3.555,2.119h5.527l11.848-3.195l8.291-0.969l7.646,0.969 l8.293,2.117l5.564,4.164l4.953,4.057l7.574,7.217l3.52,3.193l8.291-1.076l7.684,2.047l4.846,2.117l4.846,0.969h5.564l2.729,3.088 l7,2.117h4.811h5.564l2.836,1.041l4.846,2.047l3.447,3.088l1.4,4.127v3.088l-0.684,5.205l1.4,4.057l6.246,2.119l0.719,2.045 l0.717,2.119l-0.717,0.969l-1.4,1.041l-5.564,3.088l-2.117,15.508l5.564,5.133l1.398,6.246v6.174l-2.117,5.135l-2.01,5.205 l-3.555,4.129l-5.564,2.045l-5.527,4.129l-6.176,8.293l-7.682,7.25v3.088l-0.719,4.129l1.438,5.133l-0.719,8.293l3.447,7.215 l4.234,8.221l7.576,8.293l3.518,1.041l3.445,0.969h2.729l5.564,1.078l4.236-1.078l2.01-3.086l3.555-0.971l6.246,2.047l5.564,3.088 l6.174,3.086l4.953,3.088l4.129,7.215l2.047,5.205l-2.764,5.135l-2.119,5.205l0.719,7.215l-3.447,8.186l-1.4,8.293l-0.717,7.25 l0.717,5.205l2.836,5.098l2.012,4.164l4.846,5.098l1.4,2.119l0.717,3.086l-1.398,2.047h-6.965l-4.164,3.088l-5.564,6.246l-1.4,6.174 l-0.609,5.135l-2.119,5.205l-4.846,6.174l-7.682,2.117l-9.693,2.012l-0.717-2.012l-10.412,9.262l-4.846,5.207l0.719,7.143 l-6.283,2.119l-2.799,3.086l-0.719,7.217l1.436,7.25l3.518,7.217l3.447,5.133l4.129,6.246l4.127,4.057l2.836,1.076h2.729v-3.086 v-4.164h1.436v5.205l-0.717,2.045h2.836v3.088h1.4l0.609-7.252l2.836,1.078l-0.719,1.041l-1.398-1.041l-0.719,6.174h6.246 l1.436-3.088l-2.729-1.076v-0.969l3.447,0.969l0.682-0.969l4.846,2.045l-0.682,2.012h4.129l4.236,3.158l9.01,7.252l2.117,4.057 l2.729,3.086l4.848,1.041l4.234,5.207l6.176,5.133l7.682,6.174l6.246,5.205l-0.717,2.012h-2.119v1.076v1.041l2.119,2.047 l-3.41,8.291l0.682,7.217l5.564,3.086l4.164,4.166l1.4,5.096l2.01,3.088l4.846,5.205l7,4.164l2.801,7.217l4.164,4.057l14.539,6.281 l11.811,5.098l6.281,2.117l13.211,10.34l6.893,5.098l7.682,2.117l5.529,4.057l6.281,6.246l2.729,5.135l1.4,8.291l6.281,8.186 l3.447,4.164l4.846,2.117l6.246,5.098l9.801,10.34l4.846,7.215l3.447,7.252l4.846,5.205l4.846,3.088l4.955,4.057l4.127,2.117h6.283 l6.246-1.076l4.846-1.041l3.447-3.088l4.846-2.047l4.164-1.041l4.236,3.088l4.129,3.088l3.445,3.158l3.518,5.133l4.848,4.129 l4.164,4.164l3.445,4.057l4.236,7.215l2.01,3.195l5.564,2.012l4.846,1.076h5.564h2.836l3.41-1.076l4.848,3.086l4.953,2.047 l-4.236,5.205v7.215l0.719,14.467l0.682,5.135l0.719,7.215l0.717,3.088v2.117l-8.4,4.129l-2.01,3.088l-1.4,5.133l-4.881,4.129 l-1.4,4.164v4.127v5.135l1.4,3.086l1.436,5.205l1.293,4.129v3.088l-2.729,4.057l-3.52,3.195l-1.328,2.01l-0.682,4.164v5.098v7.252 l-4.164,7.215l-2.117,5.205l-1.4,7.252l-0.719,8.184l-2.01,2.119l-6.965,7.143l-2.836,5.205l-2.729,3.088l-6.963,9.262l-2.047,7.252 l-4.236,9.334l-2.01,5.133v5.205l4.846,4.021l-3.553,4.164l-1.293,7.215l2.729,6.174l1.4,7.252l0.717,5.205l-1.4,4.129l-2.764,4.057 l-4.236,3.195l-0.682,3.086l0.682,9.262l4.236,4.129l3.447,5.133l2.117,5.205l2.047,6.176l2.117,4.127l-2.836,4.166l-6.893,6.174 l-1.4,4.129l-4.164,7.25v5.098l2.047,4.164l2.117,4.129l0.719,5.133l-4.236,4.129l-11.738,1.076l-9.082-1.076l-8.293-2.01 l-6.965-3.195l-6.281-2.01l-5.529-1.078h-9.01h-4.236l-6.174,4.164l-4.236,3.088l-3.445,4.129l-0.684,7.25h-9.01l-7.682,1.041 l-19.494,9.264l-4.127,6.174l-0.719,9.334l0.719,11.307l2.799,2.119l-2.117,6.174l2.117,3.088l4.164,7.215l4.848,5.133l4.164,5.207 l-0.719,6.174l5.564,6.174l6.965,3.088l7.646,8.293l2.764,6.174l2.801,3.088l4.164,4.127l0.682,4.164l6.281,7.217l2.119,6.174 l2.01,6.174l2.117,4.166l2.766,4.127l5.527,4.164l6.283,2.012l6.963,3.086l5.564,4.164l5.529,3.088l9.01,3.088l7.682,3.086 l6.965,2.119l4.846,0.969l4.164-2.047l2.801-2.01l2.729-6.281l-1.4-3.088l0.719-7.215l0.682-2.047l2.836-2.01l4.129-3.195 l2.045-2.01l-2.729-2.047l-3.445-3.088v-8.293l3.445-5.205l2.729-4.057v-5.205l-4.164-3.086l-2.729-6.176l-3.518-3.086l-3.445-3.088 l-2.836-3.158h-2.729l-2.801-2.047l-2.729-9.262l-2.117-6.174l-0.719-4.129l-0.609-3.088l-4.236-2.117l-2.047-2.047l-1.398-2.117 l0.717-6.176l1.4-6.174l3.445-3.088l4.129-2.01h3.518h2.766l7.645-4.164l6.283-3.088l2.729-3.086l2.836-3.16l6.174-0.969 l5.529,6.174l2.836,2.047l3.445,3.051l6.965,2.119l4.129,1.076h3.553h1.328l2.119,2.01l6.246,2.047h4.127l4.166,1.041l4.234,1.076 l2.729,0.971l4.236,1.041l4.846,1.076l2.047-1.076l0.682-3.088h1.436l2.729,1.076l11.811-1.076l9.082-3.088h5.564l4.848-2.01 l4.846-2.117l4.164-3.088l5.527-4.164l5.564-3.088l8.4-2.01l4.129,0.969h7.682h11.094h4.881h8.975l5.564-0.969h4.164l5.529-3.088 l4.846,0.971l7.682-3.088h3.447h3.518h5.564l8.293-0.969l9.082-2.119l6.963-2.01l6.176-3.088l5.564-4.164l6.246-5.205l2.836-3.088 l0.717-6.174l2.012-5.205l1.436-4.057l2.082-3.088l2.047-6.246l2.117-7.25l0.719-0.971l6.963-2.117h4.129l1.4,4.164l5.564,4.129 h8.291l4.166,1.076h4.234h6.857l6.281-2.117l5.529-2.047l2.836-2.117l3.445-2.012l2.836-1.076l4.129-2.01l2.047-2.047l1.4-4.129 l3.518-7.252l2.045-5.205l2.801-2.01l6.283-2.047l4.846-1.041l4.129,2.012l4.164,3.086l3.518,4.164l2.729,10.305l0.717,6.174 l4.129,3.088l3.555,2.117l10.41,2.047h6.965h7.574l5.564,1.041h5.563l6.965-1.041l2.119-0.971h4.846l7.574-1.076l7.682-2.117 l4.848-0.971l6.963-1.041h5.564h3.447h3.518l2.729,1.041l3.445,0.971l2.836,1.076l2.119,2.117l1.328,2.012h-0.719l0.719,4.164h1.4 v0.969v1.041h-0.719l0.719,5.205h-0.719l1.4,5.133l1.436,6.176l0.682,6.246l1.328,5.133l2.119,5.205v0.969l0.717,5.207l2.012,4.127 v0.971l1.436,6.246l0.682,6.174h-2.117l3.553,12.35l2.01-2.012l3.52,4.129l2.764,3.088l3.518,2.045h2.729l5.564,1.041l9.082-2.117 l6.246-4.057l4.846-3.158l11.848-9.262l6.855-3.088l5.564-2.047l5.564-1.041h6.965l6.281,2.047h6.246h4.848l6.281,2.082l6.965,2.047 l4.129,3.086l9.01,3.088l5.527,2.117l4.883,2.012l4.846-1.041h6.246h4.236l4.164,2.117l11.094,5.098l10.41,3.088l4.846,1.076 l3.555,2.117l1.293-1.076l6.281,2.047l2.836,1.041l2.729,1.076l4.129,5.098h4.953l2.01,1.078h2.119h2.045l0.684-1.078v-1.041h0.717 h0.719h0.682l0.719,1.041l2.045,3.088l2.801,4.164l2.729,4.129l2.836,3.086l0.682,1.078l2.047-1.078l7.682-2.01l2.836-2.117 l2.729-2.047l4.129-5.205l4.846-6.176l3.518-5.098l2.764-6.281l0.682-6.174l2.838-1.041v3.158l0.717,5.133l-0.717,6.176h2.045h1.4 v-2.047h2.117l3.447,1.076l1.4,2.012l4.846-1.041l2.729-2.047l3.518-1.041h5.564h2.729l3.553-3.088l2.012-3.086l2.117-3.088 l2.729-2.117l0.719-0.971l2.117-3.086l0.719-2.119v-2.045l1.398-5.17L1646.026,1866.889z M898.624,1782.205h-3.555l-3.41-0.969 l-4.164-3.088h-4.918l-6.174-1.041l-6.283-1.076l-3.518-0.971l-4.846-4.127l-2.047-3.088l0.611-8.293l-0.611-3.086v-6.176 l2.729-3.086l6.283,0.969l3.445,2.117l7.682,5.098l6.246,3.088l6.248,4.164l4.881,4.129l4.848,6.174l2.117,4.164L898.624,1782.205z" fill="none" stroke="#a9842b" stroke-width="27.36" stroke-linejoin="round" stroke-linecap="round"></path></g></g><g transform="translate(49.57187070504909 15.93453897096282) scale(0.6367804381049413)"><path d="M22.88 133.59 L22.88 133.59 Q21.33 133.16 20.38 132.82 L20.38 132.82 L19.44 132.56 Q19.61 132.13 19.31 131.78 Q19.01 131.44 18.06 131.35 L18.06 131.35 Q16.77 130.49 15.39 128.95 Q14.02 127.40 12.99 125.76 Q11.95 124.13 11.61 123.36 L11.61 123.36 Q11.18 122.32 11.44 121.98 L11.44 121.98 Q11.52 121.81 11.70 121.72 L11.70 121.72 Q12.38 121.46 13.33 121.03 L13.33 121.03 Q14.28 120.35 15.35 120.00 Q16.43 119.66 17.11 121.12 L17.11 121.12 Q18.23 123.10 20.60 124.47 Q22.96 125.85 26.02 126.11 Q29.07 126.37 32.16 125.08 L32.16 125.08 Q34.23 124.13 34.40 122.45 Q34.57 120.78 33.11 118.54 L33.11 118.54 Q32.85 117.85 32.38 117.42 Q31.91 116.99 31.00 116.30 Q30.10 115.62 28.47 114.07 L28.47 114.07 Q27.18 113.47 26.10 112.95 Q25.03 112.43 23.82 111.83 L23.82 111.83 Q22.45 111.14 20.73 109.90 Q19.01 108.65 17.54 107.14 Q16.08 105.64 15.31 104.26 L15.31 104.26 Q13.93 102.97 13.59 100.69 Q13.24 98.42 13.72 95.84 Q14.19 93.26 15.31 91.19 L15.31 91.19 Q15.82 89.99 17.20 88.05 Q18.58 86.12 20.30 84.05 Q22.02 81.99 23.61 80.31 Q25.20 78.64 26.14 78.03 L26.14 78.03 Q26.83 77.35 27.61 76.57 L27.61 76.57 L28.38 75.88 Q28.47 75.45 28.72 75.45 L28.72 75.45 L28.90 75.45 Q29.33 75.20 30.79 74.59 Q32.25 73.99 33.97 72.36 L33.97 72.36 Q39.73 69.61 43.77 68.62 Q47.82 67.63 50.14 67.63 L50.14 67.63 Q52.29 67.71 54.35 68.79 Q56.42 69.86 57.92 71.50 Q59.43 73.13 59.68 75.20 L59.68 75.20 Q60.29 77.26 59.13 80.14 Q57.96 83.02 55.94 85.56 Q53.92 88.10 51.77 89.30 L51.77 89.30 Q49.36 90.33 47.69 89.56 Q46.01 88.78 46.10 87.15 L46.10 87.15 Q46.10 86.46 46.57 85.52 Q47.04 84.57 49.19 82.16 L49.19 82.16 Q51.94 78.12 52.12 76.40 Q52.29 74.68 50.57 74.42 L50.57 74.42 Q50.05 74.25 48.59 74.51 Q47.13 74.77 45.45 75.15 Q43.77 75.54 42.53 75.97 Q41.28 76.40 41.28 76.57 L41.28 76.57 L41.28 76.83 Q41.28 76.92 41.19 77.00 L41.19 77.00 Q41.19 77.09 40.94 77.00 L40.94 77.00 Q40.76 77.00 39.78 77.56 Q38.79 78.12 37.41 78.98 Q36.03 79.84 34.70 80.74 Q33.37 81.65 32.42 82.33 Q31.48 83.02 31.39 83.19 L31.39 83.19 Q31.22 84.14 29.41 84.91 L29.41 84.91 Q27.69 85.95 26.40 87.84 Q25.11 89.73 23.39 92.65 L23.39 92.65 Q21.93 94.63 21.33 96.91 Q20.73 99.19 21.33 100.57 L21.33 100.57 Q21.76 101.94 23.69 103.28 Q25.63 104.61 28.98 106.59 L28.98 106.59 Q31.91 108.22 34.49 110.03 Q37.07 111.83 38.87 113.51 Q40.68 115.19 41.19 116.30 L41.19 116.30 Q42.23 117.77 42.44 119.66 Q42.66 121.55 42.44 123.31 Q42.23 125.08 41.88 126.19 L41.88 126.19 Q41.28 127.57 40.03 129.12 Q38.79 130.67 37.75 130.58 L37.75 130.58 Q36.81 130.84 36.34 131.18 Q35.86 131.53 35.26 131.78 L35.26 131.78 Q34.66 132.13 32.42 132.60 Q30.19 133.07 27.52 133.38 Q24.85 133.68 22.88 133.59 Z M67.77 126.28 L67.77 126.28 Q65.19 127.74 62.31 127.96 Q59.43 128.17 56.93 127.18 Q54.44 126.19 52.89 124.22 L52.89 124.22 Q52.03 123.10 51.26 120.65 Q50.48 118.20 51.00 113.98 L51.00 113.98 Q51.51 110.03 53.45 105.98 Q55.38 101.94 58.22 98.85 Q61.06 95.75 64.41 94.63 L64.41 94.63 Q65.62 94.20 66.86 93.99 Q68.11 93.77 70.18 93.94 L70.18 93.94 Q72.15 94.20 73.70 94.93 Q75.25 95.66 75.94 96.52 L75.94 96.52 Q77.31 97.90 77.74 99.19 Q78.17 100.48 78.09 101.68 L78.09 101.68 Q77.66 104.44 75.64 107.62 Q73.62 110.80 70.00 112.35 L70.00 112.35 Q68.54 112.95 66.56 113.12 Q64.59 113.29 61.15 112.61 L61.15 112.61 Q59.08 112.18 58.44 113.04 Q57.79 113.90 57.88 116.39 L57.88 116.39 Q58.05 117.94 58.61 119.10 Q59.17 120.26 60.72 120.69 L60.72 120.69 Q62.69 121.03 63.55 120.73 Q64.41 120.43 65.70 119.83 L65.70 119.83 Q66.39 119.40 67.08 118.88 L67.08 118.88 L68.37 117.85 Q68.97 117.34 69.40 117.08 L69.40 117.08 Q69.83 116.73 70.26 116.65 Q70.69 116.56 71.12 116.56 L71.12 116.56 Q72.07 116.65 72.93 117.59 Q73.79 118.54 74.05 119.40 L74.05 119.40 Q74.05 120.09 73.19 121.33 Q72.33 122.58 70.91 123.92 Q69.49 125.25 67.77 126.28 Z M66.65 107.10 L66.65 107.10 Q67.25 106.84 68.41 105.90 Q69.57 104.95 70.52 103.88 Q71.47 102.80 71.47 102.20 L71.47 102.20 Q71.47 101.25 70.22 100.57 Q68.97 99.88 66.99 100.31 L66.99 100.31 Q66.31 100.48 65.36 101.25 Q64.41 102.03 63.47 103.02 Q62.52 104.01 61.83 104.91 Q61.15 105.81 60.89 106.33 L60.89 106.33 Q61.23 106.76 62.26 107.02 Q63.30 107.27 64.54 107.27 Q65.79 107.27 66.65 107.10 Z M96.49 126.28 L96.49 126.28 Q93.91 127.74 91.03 127.96 Q88.15 128.17 85.66 127.18 Q83.16 126.19 81.61 124.22 L81.61 124.22 Q80.75 123.10 79.98 120.65 Q79.21 118.20 79.72 113.98 L79.72 113.98 Q80.24 110.03 82.17 105.98 Q84.11 101.94 86.95 98.85 Q89.78 95.75 93.14 94.63 L93.14 94.63 Q94.34 94.20 95.59 93.99 Q96.84 93.77 98.90 93.94 L98.90 93.94 Q100.88 94.20 102.43 94.93 Q103.97 95.66 104.66 96.52 L104.66 96.52 Q106.04 97.90 106.47 99.19 Q106.90 100.48 106.81 101.68 L106.81 101.68 Q106.38 104.44 104.36 107.62 Q102.34 110.80 98.73 112.35 L98.73 112.35 Q97.27 112.95 95.29 113.12 Q93.31 113.29 89.87 112.61 L89.87 112.61 Q87.81 112.18 87.16 113.04 Q86.52 113.90 86.60 116.39 L86.60 116.39 Q86.77 117.94 87.33 119.10 Q87.89 120.26 89.44 120.69 L89.44 120.69 Q91.42 121.03 92.28 120.73 Q93.14 120.43 94.43 119.83 L94.43 119.83 Q95.12 119.40 95.80 118.88 L95.80 118.88 L97.09 117.85 Q97.70 117.34 98.13 117.08 L98.13 117.08 Q98.56 116.73 98.99 116.65 Q99.42 116.56 99.85 116.56 L99.85 116.56 Q100.79 116.65 101.65 117.59 Q102.51 118.54 102.77 119.40 L102.77 119.40 Q102.77 120.09 101.91 121.33 Q101.05 122.58 99.63 123.92 Q98.21 125.25 96.49 126.28 Z M95.37 107.10 L95.37 107.10 Q95.98 106.84 97.14 105.90 Q98.30 104.95 99.24 103.88 Q100.19 102.80 100.19 102.20 L100.19 102.20 Q100.19 101.25 98.94 100.57 Q97.70 99.88 95.72 100.31 L95.72 100.31 Q95.03 100.48 94.08 101.25 Q93.14 102.03 92.19 103.02 Q91.25 104.01 90.56 104.91 Q89.87 105.81 89.61 106.33 L89.61 106.33 Q89.96 106.76 90.99 107.02 Q92.02 107.27 93.27 107.27 Q94.51 107.27 95.37 107.10 Z M118.42 145.20 L118.42 145.20 Q116.01 146.15 113.39 144.90 Q110.77 143.65 108.88 140.99 L108.88 140.99 Q108.53 140.47 107.84 139.14 Q107.16 137.80 106.51 136.26 Q105.87 134.71 105.56 133.59 Q105.26 132.47 105.52 132.30 L105.52 132.30 Q105.87 131.35 107.07 131.18 Q108.27 131.01 109.48 131.31 Q110.68 131.61 110.85 132.13 L110.85 132.13 Q111.11 132.73 111.37 133.38 Q111.63 134.02 112.01 134.58 Q112.40 135.14 112.75 135.57 L112.75 135.57 Q113.69 137.03 114.81 137.59 Q115.93 138.15 116.53 137.72 L116.53 137.72 Q117.99 136.60 118.72 135.09 Q119.45 133.59 120.66 129.81 L120.66 129.81 Q121.60 126.62 122.29 124.30 Q122.98 121.98 123.75 120.00 L123.75 120.00 Q124.01 118.97 124.44 118.20 L124.44 118.20 Q124.53 118.02 124.61 117.85 L124.61 117.85 Q123.41 118.71 122.46 119.57 L122.46 119.57 Q121.17 120.78 118.94 121.72 L118.94 121.72 Q118.42 122.32 116.40 122.45 Q114.38 122.58 112.49 121.98 L112.49 121.98 Q111.28 121.29 110.55 120.56 Q109.82 119.83 109.35 118.88 Q108.88 117.94 108.36 116.65 L108.36 116.65 Q107.76 115.36 108.19 112.43 Q108.62 109.51 109.74 106.59 L109.74 106.59 Q110.77 104.44 112.75 101.94 Q114.72 99.45 116.96 97.43 Q119.20 95.41 121.00 94.89 L121.00 94.89 Q121.69 94.55 123.41 94.07 Q125.13 93.60 126.68 94.03 L126.68 94.03 Q128.14 94.20 128.91 94.67 Q129.69 95.15 131.41 96.61 L131.41 96.61 Q132.53 97.73 134.16 99.49 Q135.79 101.25 136.22 102.46 L136.22 102.46 Q136.83 103.75 136.48 105.25 Q136.14 106.76 135.28 107.88 L135.28 107.88 Q134.50 108.99 133.64 110.11 Q132.78 111.23 132.35 113.21 L132.35 113.21 Q131.92 115.79 130.72 119.01 Q129.52 122.24 128.83 124.99 L128.83 124.99 L127.45 130.32 Q125.30 137.63 122.72 140.94 Q120.14 144.25 118.42 145.20 Z M116.62 115.62 L116.62 115.62 Q118.34 115.53 119.58 115.23 Q120.83 114.93 121.95 113.85 Q123.07 112.78 124.53 110.54 L124.53 110.54 Q125.99 108.48 126.59 106.76 Q127.19 105.04 127.02 102.89 L127.02 102.89 Q126.94 101.51 126.25 101.08 Q125.56 100.65 124.44 100.82 L124.44 100.82 Q122.81 101.08 121.52 102.16 Q120.23 103.23 118.51 105.47 L118.51 105.47 Q117.22 107.19 116.36 109.60 L116.36 109.60 Q115.50 112.18 115.63 113.72 Q115.76 115.27 116.62 115.62 Z M143.88 138.41 L143.88 138.41 Q143.36 138.75 141.56 137.59 Q139.75 136.43 138.55 135.05 L138.55 135.05 Q137.94 134.36 137.77 133.59 Q137.60 132.82 137.86 130.67 L137.86 130.67 Q138.20 129.72 138.24 128.86 Q138.29 128.00 138.29 127.66 L138.29 127.66 Q138.29 127.14 138.59 125.25 Q138.89 123.36 139.23 121.25 Q139.58 119.14 139.84 118.02 L139.84 118.02 Q139.84 117.94 139.96 117.42 Q140.09 116.91 140.18 116.65 L140.18 116.65 Q140.35 115.87 140.61 114.76 Q140.87 113.64 141.13 111.75 L141.13 111.75 Q141.81 109.60 142.29 107.49 Q142.76 105.38 142.76 104.61 L142.76 104.61 Q142.76 103.06 143.96 102.37 L143.96 102.37 Q144.05 101.94 144.48 101.04 Q144.91 100.14 145.25 99.53 L145.25 99.53 Q146.97 94.63 148.09 91.71 Q149.21 88.78 150.41 86.63 L150.41 86.63 Q150.93 85.17 151.57 83.62 Q152.22 82.08 152.91 81.22 L152.91 81.22 Q153.51 80.01 155.01 78.25 Q156.52 76.49 158.24 74.85 Q159.96 73.22 160.99 72.44 L160.99 72.44 Q162.88 71.50 164.52 70.90 Q166.15 70.29 167.96 70.29 L167.96 70.29 Q169.59 70.29 170.84 71.03 Q172.09 71.76 174.58 73.99 L174.58 73.99 Q175.44 75.11 175.44 76.14 Q175.44 77.17 175.01 77.86 L175.01 77.86 Q174.41 79.24 173.20 81.26 Q172.00 83.28 170.88 84.87 Q169.76 86.46 169.25 86.55 L169.25 86.55 Q168.22 87.15 167.10 86.89 Q165.98 86.63 165.98 85.34 L165.98 85.34 Q165.98 84.74 166.07 84.23 L166.07 84.23 L166.07 83.71 Q166.32 82.59 166.71 81.73 Q167.10 80.87 167.44 80.27 L167.44 80.27 Q168.13 79.15 167.83 78.12 Q167.53 77.09 165.64 77.26 L165.64 77.26 Q165.38 77.43 164.65 78.08 Q163.92 78.72 163.10 79.54 Q162.28 80.36 161.68 81.09 Q161.08 81.82 161.08 82.08 L161.08 82.08 L160.65 82.94 Q160.13 83.88 159.19 85.00 L159.19 85.00 Q158.58 85.86 158.15 86.63 Q157.72 87.41 157.72 87.84 L157.72 87.84 Q157.72 88.18 157.64 88.44 Q157.55 88.70 157.21 88.70 L157.21 88.70 L156.95 89.56 Q156.61 90.42 155.92 91.62 L155.92 91.62 Q155.57 92.48 155.19 93.21 Q154.80 93.94 154.46 94.29 L154.46 94.29 L154.37 94.46 L154.03 95.41 Q153.60 96.44 153.17 97.47 Q152.74 98.50 152.74 98.67 L152.74 98.67 Q152.74 99.02 153.77 99.02 Q154.80 99.02 156.26 98.72 Q157.72 98.42 159.10 98.07 L159.10 98.07 Q160.30 97.73 160.82 97.73 Q161.34 97.73 162.45 98.07 L162.45 98.07 Q163.14 98.50 163.57 99.58 Q164.00 100.65 164.22 101.73 Q164.43 102.80 164.26 103.32 L164.26 103.32 Q164.17 103.66 162.32 104.26 Q160.48 104.87 158.67 105.21 L158.67 105.21 Q157.12 105.55 155.19 105.94 Q153.25 106.33 151.79 106.72 Q150.33 107.10 150.24 107.45 L150.24 107.45 Q149.90 107.45 149.68 107.88 Q149.47 108.31 149.47 108.65 L149.47 108.65 Q149.47 109.77 149.04 110.46 L149.04 110.46 Q148.87 110.97 148.48 112.56 Q148.09 114.15 147.70 116.00 Q147.32 117.85 147.02 119.44 Q146.72 121.03 146.72 121.55 L146.72 121.55 Q146.20 122.15 146.11 123.06 Q146.03 123.96 146.03 124.65 L146.03 124.65 Q145.68 125.33 145.60 125.89 Q145.51 126.45 145.51 126.80 L145.51 126.80 L145.51 127.14 Q145.51 127.40 145.43 127.66 L145.43 127.66 Q145.34 128.52 145.21 129.94 Q145.08 131.35 145.08 132.73 L145.08 132.73 L144.82 135.22 Q144.74 136.34 144.52 137.16 Q144.31 137.98 143.88 138.41 Z M186.02 127.83 L186.02 127.83 Q185.16 126.97 184.64 125.46 Q184.13 123.96 183.61 121.98 L183.61 121.98 Q183.44 121.29 183.48 120.43 Q183.52 119.57 183.44 119.06 L183.44 119.06 Q183.18 119.66 182.62 120.60 Q182.06 121.55 181.55 121.98 L181.55 121.98 Q181.20 122.32 180.00 123.31 Q178.79 124.30 177.59 124.90 L177.59 124.90 Q174.75 126.71 172.56 126.58 Q170.37 126.45 168.73 124.39 L168.73 124.39 Q167.36 123.27 166.50 121.55 Q165.64 119.83 166.15 117.42 L166.15 117.42 Q166.32 114.41 167.01 111.53 Q167.70 108.65 169.85 103.83 L169.85 103.83 Q171.66 100.31 172.60 98.33 Q173.55 96.35 173.81 96.01 L173.81 96.01 Q175.10 95.58 176.99 96.05 Q178.88 96.52 179.05 97.73 L179.05 97.73 Q179.57 98.59 179.05 100.95 Q178.54 103.32 176.99 106.33 L176.99 106.33 Q175.78 109.25 174.71 112.00 Q173.63 114.76 173.42 116.65 Q173.20 118.54 174.41 118.97 L174.41 118.97 Q175.18 119.40 176.69 118.88 Q178.19 118.37 180.26 115.79 Q182.32 113.21 184.64 107.62 L184.64 107.62 Q185.33 105.90 185.67 104.56 Q186.02 103.23 186.10 101.60 L186.10 101.60 Q185.93 100.57 186.66 99.45 Q187.39 98.33 188.43 97.73 L188.43 97.73 Q188.77 97.30 189.37 96.87 L189.37 96.87 Q189.80 96.61 189.97 96.78 L189.97 96.78 Q190.06 96.78 190.15 96.95 L190.15 96.95 L191.52 96.87 Q191.87 96.78 192.30 97.56 Q192.73 98.33 193.16 98.67 L193.16 98.67 Q194.10 99.45 194.02 102.03 Q193.93 104.61 191.95 109.25 L191.95 109.25 Q190.32 112.78 189.76 114.58 Q189.20 116.39 189.11 118.11 L189.11 118.11 Q189.11 119.66 189.37 120.73 Q189.63 121.81 190.92 122.93 L190.92 122.93 Q191.87 123.53 191.99 124.95 Q192.12 126.37 192.04 127.40 L192.04 127.40 Q191.87 128.17 190.70 128.47 Q189.54 128.77 188.21 128.60 Q186.88 128.43 186.02 127.83 Z M197.80 126.54 L197.80 126.54 Q197.11 125.85 196.81 124.47 Q196.51 123.10 196.60 121.77 Q196.68 120.43 197.03 119.74 L197.03 119.74 Q197.03 119.06 197.24 118.67 Q197.46 118.28 197.37 117.94 L197.37 117.94 Q197.28 117.59 197.54 116.73 Q197.80 115.87 198.06 115.10 L198.06 115.10 Q198.66 113.72 199.43 111.53 Q200.21 109.34 200.98 107.06 Q201.76 104.78 202.27 103.10 Q202.79 101.43 202.87 101.08 L202.87 101.08 Q202.87 100.05 204.25 99.96 L204.25 99.96 Q205.28 99.62 206.74 100.82 Q208.21 102.03 209.07 103.40 L209.07 103.40 Q209.75 104.09 209.58 105.21 Q209.41 106.33 208.46 108.39 L208.46 108.39 Q208.12 109.08 207.65 110.67 Q207.17 112.26 207.00 113.29 L207.00 113.29 Q206.66 113.98 206.18 115.23 Q205.71 116.48 205.37 117.59 L205.37 117.59 Q205.20 118.02 205.02 119.19 Q204.85 120.35 204.59 121.55 Q204.34 122.75 203.91 123.44 L203.91 123.44 Q203.13 126.97 201.20 127.57 Q199.26 128.17 197.80 126.54 Z " fill="#1d1c19"></path><g transform="translate(210.40,95.23) rotate(12) scale(0.940)"><path d="M0,3 C0,-3 -9,-6 -9,-13 C-9,-19 -2,-20 0,-14 C2,-20 9,-19 9,-13 C9,-6 0,-3 0,3 Z" fill="#d23b34"></path></g></g><g stroke="#a9842b" stroke-width="1.2" stroke-linejoin="round" stroke-linecap="round" paint-order="stroke"><path d="M79.50 149.19L77.52 149.19L77.52 140.49L74.45 140.49L74.45 138.69L82.55 138.69L82.55 140.49L79.50 140.49L79.50 149.19Z M93.14 149.19L86.30 149.19L86.30 138.69L93.05 138.69L93.05 140.49L88.28 140.49L88.28 143.00L92.63 143.00L92.63 144.79L88.28 144.79L88.28 147.39L93.14 147.39L93.14 149.19Z M100.65 149.40L100.65 149.40Q99.57 149.40 98.69 148.91Q97.81 148.43 97.29 147.49Q96.78 146.55 96.78 145.20L96.78 145.20L96.78 142.68Q96.78 140.66 97.92 139.57Q99.06 138.48 101.01 138.48L101.01 138.48Q102.94 138.48 104.00 139.51Q105.06 140.53 105.06 142.29L105.06 142.29L105.06 142.35L103.11 142.35L103.11 142.23Q103.11 141.68 102.87 141.22Q102.64 140.78 102.18 140.51Q101.71 140.25 101.01 140.25L101.01 140.25Q99.96 140.25 99.36 140.90Q98.76 141.54 98.76 142.65L98.76 142.65L98.76 145.23Q98.76 146.32 99.36 146.99Q99.96 147.66 101.04 147.66L101.04 147.66Q102.12 147.66 102.61 147.09Q103.11 146.52 103.11 145.65L103.11 145.65L103.11 145.50L100.62 145.50L100.62 143.82L105.06 143.82L105.06 149.19L103.23 149.19L103.23 148.19L102.96 148.19Q102.85 148.44 102.62 148.72Q102.39 149.01 101.92 149.20Q101.46 149.40 100.65 149.40Z M116.19 149.19L109.34 149.19L109.34 138.69L116.09 138.69L116.09 140.49L111.33 140.49L111.33 143.00L115.67 143.00L115.67 144.79L111.33 144.79L111.33 147.39L116.19 147.39L116.19 149.19Z M122.03 149.19L120.05 149.19L120.05 138.69L124.61 138.69Q125.61 138.69 126.34 139.03Q127.08 139.38 127.48 140.01Q127.88 140.64 127.88 141.50L127.88 141.50L127.88 141.68Q127.88 142.62 127.44 143.20Q126.98 143.79 126.33 144.06L126.33 144.06L126.33 144.33Q126.92 144.36 127.25 144.74Q127.58 145.13 127.58 145.75L127.58 145.75L127.58 149.19L125.61 149.19L125.61 146.04Q125.61 145.68 125.42 145.45Q125.23 145.23 124.80 145.23L124.80 145.23L122.03 145.23L122.03 149.19ZM122.03 140.49L122.03 143.43L124.41 143.43Q125.11 143.43 125.51 143.05Q125.91 142.66 125.91 142.03L125.91 142.03L125.91 141.88Q125.91 141.25 125.52 140.87Q125.13 140.49 124.41 140.49L124.41 140.49L122.03 140.49Z M133.88 149.19L131.94 149.19L131.94 138.69L135.70 138.69L137.78 147.84L138.06 147.84L138.06 138.69L140.00 138.69L140.00 149.19L136.24 149.19L134.16 140.04L133.88 140.04L133.88 149.19Z M148.03 149.40L148.03 149.40Q146.81 149.40 145.88 148.97Q144.95 148.53 144.43 147.72Q143.90 146.91 143.90 145.77L143.90 145.77L143.90 145.35L145.85 145.35L145.85 145.77Q145.85 146.72 146.44 147.19Q147.02 147.66 148.03 147.66L148.03 147.66Q149.05 147.66 149.55 147.25Q150.05 146.85 150.05 146.22L150.05 146.22Q150.05 145.78 149.81 145.51Q149.56 145.25 149.09 145.07Q148.61 144.90 147.94 144.75L147.94 144.75L147.59 144.68Q146.51 144.44 145.74 144.07Q144.97 143.70 144.56 143.10Q144.14 142.50 144.14 141.54L144.14 141.54Q144.14 140.58 144.60 139.90Q145.06 139.22 145.89 138.85Q146.72 138.48 147.85 138.48L147.85 138.48Q148.97 138.48 149.85 138.86Q150.73 139.25 151.23 140.00Q151.73 140.76 151.73 141.90L151.73 141.90L151.73 142.35L149.78 142.35L149.78 141.90Q149.78 141.30 149.55 140.93Q149.32 140.56 148.88 140.39Q148.45 140.22 147.85 140.22L147.85 140.22Q146.95 140.22 146.52 140.56Q146.09 140.90 146.09 141.48L146.09 141.48Q146.09 141.87 146.30 142.14Q146.50 142.41 146.90 142.59Q147.31 142.77 147.94 142.91L147.94 142.91L148.28 142.98Q149.41 143.22 150.24 143.59Q151.07 143.97 151.54 144.59Q152.00 145.20 152.00 146.16L152.00 146.16Q152.00 147.12 151.52 147.85Q151.03 148.57 150.14 148.99Q149.24 149.40 148.03 149.40Z M162.72 149.19L155.88 149.19L155.88 138.69L162.63 138.69L162.63 140.49L157.85 140.49L157.85 143.00L162.20 143.00L162.20 144.79L157.85 144.79L157.85 147.39L162.72 147.39L162.72 149.19Z M173.43 149.19L166.59 149.19L166.59 138.69L173.34 138.69L173.34 140.49L168.56 140.49L168.56 143.00L172.91 143.00L172.91 144.79L168.56 144.79L168.56 147.39L173.43 147.39L173.43 149.19Z" fill="#a9842b"></path></g><path d="M75.13 186.26L73.97 186.26L73.97 184.84L70.47 184.84L70.47 183.49L73.02 179.26L75.13 179.26L75.13 183.80L76.30 183.80L76.30 184.84L75.13 184.84L75.13 186.26ZM71.59 183.65L71.59 183.80L73.97 183.80L73.97 180.00L73.80 180.00L71.59 183.65Z M80.56 186.26L79.39 186.26L79.39 186.00Q79.39 185.62 79.45 185.36Q79.51 185.09 79.71 184.74L79.71 184.74L82.13 180.45L82.13 180.30L78.31 180.30L78.31 179.26L83.34 179.26L83.34 180.64L80.78 185.21Q80.65 185.44 80.61 185.62Q80.56 185.79 80.56 186.05L80.56 186.05L80.56 186.26Z M86.53 186.40L86.53 186.40Q86.15 186.40 85.90 186.15Q85.64 185.90 85.64 185.51L85.64 185.51Q85.64 185.13 85.90 184.88Q86.15 184.63 86.53 184.63L86.53 184.63Q86.91 184.63 87.16 184.88Q87.41 185.13 87.41 185.52L87.41 185.52Q87.41 185.91 87.16 186.16Q86.91 186.40 86.53 186.40Z M91.99 186.26L90.82 186.26L90.82 186.00Q90.82 185.62 90.88 185.36Q90.94 185.09 91.14 184.74L91.14 184.74L93.56 180.45L93.56 180.30L89.74 180.30L89.74 179.26L94.77 179.26L94.77 180.64L92.21 185.21Q92.08 185.44 92.04 185.62Q91.99 185.79 91.99 186.05L91.99 186.05L91.99 186.26Z M100.26 186.26L99.10 186.26L99.10 180.10L98.93 180.10L97.88 182.39L96.65 182.39L98.14 179.26L100.26 179.26L100.26 186.26Z M104.41 182.29L104.41 182.29Q103.96 182.29 103.59 182.09Q103.22 181.88 103.01 181.52Q102.79 181.16 102.79 180.70L102.79 180.70Q102.79 180.24 103.01 179.88Q103.22 179.52 103.59 179.32Q103.96 179.12 104.41 179.12L104.41 179.12Q104.87 179.12 105.24 179.32Q105.61 179.52 105.83 179.88Q106.04 180.24 106.04 180.70L106.04 180.70Q106.04 181.16 105.83 181.52Q105.61 181.88 105.24 182.09Q104.87 182.29 104.41 182.29ZM104.41 181.40L104.41 181.40Q104.72 181.40 104.92 181.21Q105.11 181.01 105.11 180.70L105.11 180.70Q105.11 180.39 104.92 180.20Q104.72 180.01 104.41 180.01L104.41 180.01Q104.11 180.01 103.91 180.20Q103.71 180.38 103.71 180.70L103.71 180.70Q103.71 181.01 103.91 181.21Q104.11 181.40 104.41 181.40Z  M113.80 186.26L112.61 186.26L112.61 179.26L114.91 179.26L116.56 185.45L116.72 185.45L116.72 179.26L117.91 179.26L117.91 186.26L115.62 186.26L113.97 180.07L113.80 180.07L113.80 186.26Z  M125.21 184.28L125.21 184.28Q124.83 184.28 124.57 184.03Q124.32 183.78 124.32 183.39L124.32 183.39Q124.32 183.01 124.57 182.76Q124.83 182.51 125.21 182.51L125.21 182.51Q125.59 182.51 125.84 182.76Q126.09 183.01 126.09 183.40L126.09 183.40Q126.09 183.79 125.84 184.04Q125.59 184.28 125.21 184.28Z  M135.54 186.26L134.38 186.26L134.38 180.10L134.21 180.10L133.16 182.39L131.93 182.39L133.42 179.26L135.54 179.26L135.54 186.26Z M141.48 186.26L140.32 186.26L140.32 180.10L140.15 180.10L139.10 182.39L137.87 182.39L139.36 179.26L141.48 179.26L141.48 186.26Z M145.12 186.40L145.12 186.40Q144.74 186.40 144.48 186.15Q144.23 185.90 144.23 185.51L144.23 185.51Q144.23 185.13 144.48 184.88Q144.74 184.63 145.12 184.63L145.12 184.63Q145.50 184.63 145.75 184.88Q146.00 185.13 146.00 185.52L146.00 185.52Q146.00 185.91 145.75 186.16Q145.50 186.40 145.12 186.40Z M150.58 186.26L149.41 186.26L149.41 186.00Q149.41 185.62 149.47 185.36Q149.53 185.09 149.73 184.74L149.73 184.74L152.15 180.45L152.15 180.30L148.33 180.30L148.33 179.26L153.36 179.26L153.36 180.64L150.80 185.21Q150.67 185.44 150.62 185.62Q150.58 185.79 150.58 186.05L150.58 186.05L150.58 186.26Z M158.22 186.40L158.22 186.40Q157.44 186.40 156.86 186.11Q156.28 185.81 155.95 185.28Q155.63 184.75 155.63 184.05L155.63 184.05L155.63 181.64Q155.63 180.81 155.97 180.25Q156.31 179.69 156.90 179.41Q157.50 179.12 158.28 179.12L158.28 179.12Q159.06 179.12 159.62 179.39Q160.19 179.65 160.49 180.14Q160.80 180.62 160.80 181.28L160.80 181.28L159.62 181.28Q159.62 180.82 159.30 180.49Q158.99 180.16 158.28 180.16L158.28 180.16Q157.57 180.16 157.18 180.54Q156.80 180.91 156.80 181.57L156.80 181.57L156.80 182.35L156.97 182.35Q157.14 182.12 157.51 181.93Q157.88 181.73 158.56 181.73L158.56 181.73Q159.18 181.73 159.69 181.99Q160.21 182.25 160.53 182.75Q160.85 183.25 160.85 183.95L160.85 183.95L160.85 184.07Q160.85 184.77 160.52 185.30Q160.19 185.82 159.60 186.11Q159.01 186.40 158.22 186.40ZM158.24 185.36L158.24 185.36Q158.90 185.36 159.29 185.01Q159.68 184.65 159.68 184.06L159.68 184.06L159.68 183.98Q159.68 183.57 159.50 183.28Q159.33 182.99 159.00 182.83Q158.68 182.66 158.24 182.66L158.24 182.66Q157.81 182.66 157.48 182.83Q157.15 182.99 156.97 183.28Q156.80 183.57 156.80 183.98L156.80 183.98L156.80 184.06Q156.80 184.65 157.19 185.01Q157.58 185.36 158.24 185.36Z M164.73 182.29L164.73 182.29Q164.28 182.29 163.91 182.09Q163.54 181.88 163.32 181.52Q163.11 181.16 163.11 180.70L163.11 180.70Q163.11 180.24 163.32 179.88Q163.54 179.52 163.91 179.32Q164.28 179.12 164.73 179.12L164.73 179.12Q165.19 179.12 165.56 179.32Q165.93 179.52 166.14 179.88Q166.36 180.24 166.36 180.70L166.36 180.70Q166.36 181.16 166.14 181.52Q165.93 181.88 165.56 182.09Q165.19 182.29 164.73 182.29ZM164.73 181.40L164.73 181.40Q165.04 181.40 165.23 181.21Q165.43 181.01 165.43 180.70L165.43 180.70Q165.43 180.39 165.23 180.20Q165.04 180.01 164.73 180.01L164.73 180.01Q164.43 180.01 164.23 180.20Q164.03 180.38 164.03 180.70L164.03 180.70Q164.03 181.01 164.23 181.21Q164.43 181.40 164.73 181.40Z  M177.44 186.26L172.93 186.26L172.93 179.26L177.39 179.26L177.39 180.35L174.14 180.35L174.14 182.19L177.11 182.19L177.11 183.28L174.14 183.28L174.14 185.17L177.44 185.17L177.44 186.26Z" fill="#1d1c19"></path></svg>