<svg xmlns="http://www.w3.org/2000/svg" width="1488" height="906" viewBox="0 0 248 151.07999999999998"><g transform="translate(16.82349381527068 -52.01426388181355) scale(0.9169638308711155)"><path d="M22.88 133.59 L22.88 133.59 Q21.33 133.16 20.38 132.82 L20.38 132.82 L19.44 132.56 Q19.61 132.13 19.31 131.78 Q19.01 131.44 18.06 131.35 L18.06 131.35 Q16.77 130.49 15.39 128.95 Q14.02 127.40 12.99 125.76 Q11.95 124.13 11.61 123.36 L11.61 123.36 Q11.18 122.32 11.44 121.98 L11.44 121.98 Q11.52 121.81 11.70 121.72 L11.70 121.72 Q12.38 121.46 13.33 121.03 L13.33 121.03 Q14.28 120.35 15.35 120.00 Q16.43 119.66 17.11 121.12 L17.11 121.12 Q18.23 123.10 20.60 124.47 Q22.96 125.85 26.02 126.11 Q29.07 126.37 32.16 125.08 L32.16 125.08 Q34.23 124.13 34.40 122.45 Q34.57 120.78 33.11 118.54 L33.11 118.54 Q32.85 117.85 32.38 117.42 Q31.91 116.99 31.00 116.30 Q30.10 115.62 28.47 114.07 L28.47 114.07 Q27.18 113.47 26.10 112.95 Q25.03 112.43 23.82 111.83 L23.82 111.83 Q22.45 111.14 20.73 109.90 Q19.01 108.65 17.54 107.14 Q16.08 105.64 15.31 104.26 L15.31 104.26 Q13.93 102.97 13.59 100.69 Q13.24 98.42 13.72 95.84 Q14.19 93.26 15.31 91.19 L15.31 91.19 Q15.82 89.99 17.20 88.05 Q18.58 86.12 20.30 84.05 Q22.02 81.99 23.61 80.31 Q25.20 78.64 26.14 78.03 L26.14 78.03 Q26.83 77.35 27.61 76.57 L27.61 76.57 L28.38 75.88 Q28.47 75.45 28.72 75.45 L28.72 75.45 L28.90 75.45 Q29.33 75.20 30.79 74.59 Q32.25 73.99 33.97 72.36 L33.97 72.36 Q39.73 69.61 43.77 68.62 Q47.82 67.63 50.14 67.63 L50.14 67.63 Q52.29 67.71 54.35 68.79 Q56.42 69.86 57.92 71.50 Q59.43 73.13 59.68 75.20 L59.68 75.20 Q60.29 77.26 59.13 80.14 Q57.96 83.02 55.94 85.56 Q53.92 88.10 51.77 89.30 L51.77 89.30 Q49.36 90.33 47.69 89.56 Q46.01 88.78 46.10 87.15 L46.10 87.15 Q46.10 86.46 46.57 85.52 Q47.04 84.57 49.19 82.16 L49.19 82.16 Q51.94 78.12 52.12 76.40 Q52.29 74.68 50.57 74.42 L50.57 74.42 Q50.05 74.25 48.59 74.51 Q47.13 74.77 45.45 75.15 Q43.77 75.54 42.53 75.97 Q41.28 76.40 41.28 76.57 L41.28 76.57 L41.28 76.83 Q41.28 76.92 41.19 77.00 L41.19 77.00 Q41.19 77.09 40.94 77.00 L40.94 77.00 Q40.76 77.00 39.78 77.56 Q38.79 78.12 37.41 78.98 Q36.03 79.84 34.70 80.74 Q33.37 81.65 32.42 82.33 Q31.48 83.02 31.39 83.19 L31.39 83.19 Q31.22 84.14 29.41 84.91 L29.41 84.91 Q27.69 85.95 26.40 87.84 Q25.11 89.73 23.39 92.65 L23.39 92.65 Q21.93 94.63 21.33 96.91 Q20.73 99.19 21.33 100.57 L21.33 100.57 Q21.76 101.94 23.69 103.28 Q25.63 104.61 28.98 106.59 L28.98 106.59 Q31.91 108.22 34.49 110.03 Q37.07 111.83 38.87 113.51 Q40.68 115.19 41.19 116.30 L41.19 116.30 Q42.23 117.77 42.44 119.66 Q42.66 121.55 42.44 123.31 Q42.23 125.08 41.88 126.19 L41.88 126.19 Q41.28 127.57 40.03 129.12 Q38.79 130.67 37.75 130.58 L37.75 130.58 Q36.81 130.84 36.34 131.18 Q35.86 131.53 35.26 131.78 L35.26 131.78 Q34.66 132.13 32.42 132.60 Q30.19 133.07 27.52 133.38 Q24.85 133.68 22.88 133.59 Z M67.77 126.28 L67.77 126.28 Q65.19 127.74 62.31 127.96 Q59.43 128.17 56.93 127.18 Q54.44 126.19 52.89 124.22 L52.89 124.22 Q52.03 123.10 51.26 120.65 Q50.48 118.20 51.00 113.98 L51.00 113.98 Q51.51 110.03 53.45 105.98 Q55.38 101.94 58.22 98.85 Q61.06 95.75 64.41 94.63 L64.41 94.63 Q65.62 94.20 66.86 93.99 Q68.11 93.77 70.18 93.94 L70.18 93.94 Q72.15 94.20 73.70 94.93 Q75.25 95.66 75.94 96.52 L75.94 96.52 Q77.31 97.90 77.74 99.19 Q78.17 100.48 78.09 101.68 L78.09 101.68 Q77.66 104.44 75.64 107.62 Q73.62 110.80 70.00 112.35 L70.00 112.35 Q68.54 112.95 66.56 113.12 Q64.59 113.29 61.15 112.61 L61.15 112.61 Q59.08 112.18 58.44 113.04 Q57.79 113.90 57.88 116.39 L57.88 116.39 Q58.05 117.94 58.61 119.10 Q59.17 120.26 60.72 120.69 L60.72 120.69 Q62.69 121.03 63.55 120.73 Q64.41 120.43 65.70 119.83 L65.70 119.83 Q66.39 119.40 67.08 118.88 L67.08 118.88 L68.37 117.85 Q68.97 117.34 69.40 117.08 L69.40 117.08 Q69.83 116.73 70.26 116.65 Q70.69 116.56 71.12 116.56 L71.12 116.56 Q72.07 116.65 72.93 117.59 Q73.79 118.54 74.05 119.40 L74.05 119.40 Q74.05 120.09 73.19 121.33 Q72.33 122.58 70.91 123.92 Q69.49 125.25 67.77 126.28 Z M66.65 107.10 L66.65 107.10 Q67.25 106.84 68.41 105.90 Q69.57 104.95 70.52 103.88 Q71.47 102.80 71.47 102.20 L71.47 102.20 Q71.47 101.25 70.22 100.57 Q68.97 99.88 66.99 100.31 L66.99 100.31 Q66.31 100.48 65.36 101.25 Q64.41 102.03 63.47 103.02 Q62.52 104.01 61.83 104.91 Q61.15 105.81 60.89 106.33 L60.89 106.33 Q61.23 106.76 62.26 107.02 Q63.30 107.27 64.54 107.27 Q65.79 107.27 66.65 107.10 Z M96.49 126.28 L96.49 126.28 Q93.91 127.74 91.03 127.96 Q88.15 128.17 85.66 127.18 Q83.16 126.19 81.61 124.22 L81.61 124.22 Q80.75 123.10 79.98 120.65 Q79.21 118.20 79.72 113.98 L79.72 113.98 Q80.24 110.03 82.17 105.98 Q84.11 101.94 86.95 98.85 Q89.78 95.75 93.14 94.63 L93.14 94.63 Q94.34 94.20 95.59 93.99 Q96.84 93.77 98.90 93.94 L98.90 93.94 Q100.88 94.20 102.43 94.93 Q103.97 95.66 104.66 96.52 L104.66 96.52 Q106.04 97.90 106.47 99.19 Q106.90 100.48 106.81 101.68 L106.81 101.68 Q106.38 104.44 104.36 107.62 Q102.34 110.80 98.73 112.35 L98.73 112.35 Q97.27 112.95 95.29 113.12 Q93.31 113.29 89.87 112.61 L89.87 112.61 Q87.81 112.18 87.16 113.04 Q86.52 113.90 86.60 116.39 L86.60 116.39 Q86.77 117.94 87.33 119.10 Q87.89 120.26 89.44 120.69 L89.44 120.69 Q91.42 121.03 92.28 120.73 Q93.14 120.43 94.43 119.83 L94.43 119.83 Q95.12 119.40 95.80 118.88 L95.80 118.88 L97.09 117.85 Q97.70 117.34 98.13 117.08 L98.13 117.08 Q98.56 116.73 98.99 116.65 Q99.42 116.56 99.85 116.56 L99.85 116.56 Q100.79 116.65 101.65 117.59 Q102.51 118.54 102.77 119.40 L102.77 119.40 Q102.77 120.09 101.91 121.33 Q101.05 122.58 99.63 123.92 Q98.21 125.25 96.49 126.28 Z M95.37 107.10 L95.37 107.10 Q95.98 106.84 97.14 105.90 Q98.30 104.95 99.24 103.88 Q100.19 102.80 100.19 102.20 L100.19 102.20 Q100.19 101.25 98.94 100.57 Q97.70 99.88 95.72 100.31 L95.72 100.31 Q95.03 100.48 94.08 101.25 Q93.14 102.03 92.19 103.02 Q91.25 104.01 90.56 104.91 Q89.87 105.81 89.61 106.33 L89.61 106.33 Q89.96 106.76 90.99 107.02 Q92.02 107.27 93.27 107.27 Q94.51 107.27 95.37 107.10 Z M118.42 145.20 L118.42 145.20 Q116.01 146.15 113.39 144.90 Q110.77 143.65 108.88 140.99 L108.88 140.99 Q108.53 140.47 107.84 139.14 Q107.16 137.80 106.51 136.26 Q105.87 134.71 105.56 133.59 Q105.26 132.47 105.52 132.30 L105.52 132.30 Q105.87 131.35 107.07 131.18 Q108.27 131.01 109.48 131.31 Q110.68 131.61 110.85 132.13 L110.85 132.13 Q111.11 132.73 111.37 133.38 Q111.63 134.02 112.01 134.58 Q112.40 135.14 112.75 135.57 L112.75 135.57 Q113.69 137.03 114.81 137.59 Q115.93 138.15 116.53 137.72 L116.53 137.72 Q117.99 136.60 118.72 135.09 Q119.45 133.59 120.66 129.81 L120.66 129.81 Q121.60 126.62 122.29 124.30 Q122.98 121.98 123.75 120.00 L123.75 120.00 Q124.01 118.97 124.44 118.20 L124.44 118.20 Q124.53 118.02 124.61 117.85 L124.61 117.85 Q123.41 118.71 122.46 119.57 L122.46 119.57 Q121.17 120.78 118.94 121.72 L118.94 121.72 Q118.42 122.32 116.40 122.45 Q114.38 122.58 112.49 121.98 L112.49 121.98 Q111.28 121.29 110.55 120.56 Q109.82 119.83 109.35 118.88 Q108.88 117.94 108.36 116.65 L108.36 116.65 Q107.76 115.36 108.19 112.43 Q108.62 109.51 109.74 106.59 L109.74 106.59 Q110.77 104.44 112.75 101.94 Q114.72 99.45 116.96 97.43 Q119.20 95.41 121.00 94.89 L121.00 94.89 Q121.69 94.55 123.41 94.07 Q125.13 93.60 126.68 94.03 L126.68 94.03 Q128.14 94.20 128.91 94.67 Q129.69 95.15 131.41 96.61 L131.41 96.61 Q132.53 97.73 134.16 99.49 Q135.79 101.25 136.22 102.46 L136.22 102.46 Q136.83 103.75 136.48 105.25 Q136.14 106.76 135.28 107.88 L135.28 107.88 Q134.50 108.99 133.64 110.11 Q132.78 111.23 132.35 113.21 L132.35 113.21 Q131.92 115.79 130.72 119.01 Q129.52 122.24 128.83 124.99 L128.83 124.99 L127.45 130.32 Q125.30 137.63 122.72 140.94 Q120.14 144.25 118.42 145.20 Z M116.62 115.62 L116.62 115.62 Q118.34 115.53 119.58 115.23 Q120.83 114.93 121.95 113.85 Q123.07 112.78 124.53 110.54 L124.53 110.54 Q125.99 108.48 126.59 106.76 Q127.19 105.04 127.02 102.89 L127.02 102.89 Q126.94 101.51 126.25 101.08 Q125.56 100.65 124.44 100.82 L124.44 100.82 Q122.81 101.08 121.52 102.16 Q120.23 103.23 118.51 105.47 L118.51 105.47 Q117.22 107.19 116.36 109.60 L116.36 109.60 Q115.50 112.18 115.63 113.72 Q115.76 115.27 116.62 115.62 Z M143.88 138.41 L143.88 138.41 Q143.36 138.75 141.56 137.59 Q139.75 136.43 138.55 135.05 L138.55 135.05 Q137.94 134.36 137.77 133.59 Q137.60 132.82 137.86 130.67 L137.86 130.67 Q138.20 129.72 138.24 128.86 Q138.29 128.00 138.29 127.66 L138.29 127.66 Q138.29 127.14 138.59 125.25 Q138.89 123.36 139.23 121.25 Q139.58 119.14 139.84 118.02 L139.84 118.02 Q139.84 117.94 139.96 117.42 Q140.09 116.91 140.18 116.65 L140.18 116.65 Q140.35 115.87 140.61 114.76 Q140.87 113.64 141.13 111.75 L141.13 111.75 Q141.81 109.60 142.29 107.49 Q142.76 105.38 142.76 104.61 L142.76 104.61 Q142.76 103.06 143.96 102.37 L143.96 102.37 Q144.05 101.94 144.48 101.04 Q144.91 100.14 145.25 99.53 L145.25 99.53 Q146.97 94.63 148.09 91.71 Q149.21 88.78 150.41 86.63 L150.41 86.63 Q150.93 85.17 151.57 83.62 Q152.22 82.08 152.91 81.22 L152.91 81.22 Q153.51 80.01 155.01 78.25 Q156.52 76.49 158.24 74.85 Q159.96 73.22 160.99 72.44 L160.99 72.44 Q162.88 71.50 164.52 70.90 Q166.15 70.29 167.96 70.29 L167.96 70.29 Q169.59 70.29 170.84 71.03 Q172.09 71.76 174.58 73.99 L174.58 73.99 Q175.44 75.11 175.44 76.14 Q175.44 77.17 175.01 77.86 L175.01 77.86 Q174.41 79.24 173.20 81.26 Q172.00 83.28 170.88 84.87 Q169.76 86.46 169.25 86.55 L169.25 86.55 Q168.22 87.15 167.10 86.89 Q165.98 86.63 165.98 85.34 L165.98 85.34 Q165.98 84.74 166.07 84.23 L166.07 84.23 L166.07 83.71 Q166.32 82.59 166.71 81.73 Q167.10 80.87 167.44 80.27 L167.44 80.27 Q168.13 79.15 167.83 78.12 Q167.53 77.09 165.64 77.26 L165.64 77.26 Q165.38 77.43 164.65 78.08 Q163.92 78.72 163.10 79.54 Q162.28 80.36 161.68 81.09 Q161.08 81.82 161.08 82.08 L161.08 82.08 L160.65 82.94 Q160.13 83.88 159.19 85.00 L159.19 85.00 Q158.58 85.86 158.15 86.63 Q157.72 87.41 157.72 87.84 L157.72 87.84 Q157.72 88.18 157.64 88.44 Q157.55 88.70 157.21 88.70 L157.21 88.70 L156.95 89.56 Q156.61 90.42 155.92 91.62 L155.92 91.62 Q155.57 92.48 155.19 93.21 Q154.80 93.94 154.46 94.29 L154.46 94.29 L154.37 94.46 L154.03 95.41 Q153.60 96.44 153.17 97.47 Q152.74 98.50 152.74 98.67 L152.74 98.67 Q152.74 99.02 153.77 99.02 Q154.80 99.02 156.26 98.72 Q157.72 98.42 159.10 98.07 L159.10 98.07 Q160.30 97.73 160.82 97.73 Q161.34 97.73 162.45 98.07 L162.45 98.07 Q163.14 98.50 163.57 99.58 Q164.00 100.65 164.22 101.73 Q164.43 102.80 164.26 103.32 L164.26 103.32 Q164.17 103.66 162.32 104.26 Q160.48 104.87 158.67 105.21 L158.67 105.21 Q157.12 105.55 155.19 105.94 Q153.25 106.33 151.79 106.72 Q150.33 107.10 150.24 107.45 L150.24 107.45 Q149.90 107.45 149.68 107.88 Q149.47 108.31 149.47 108.65 L149.47 108.65 Q149.47 109.77 149.04 110.46 L149.04 110.46 Q148.87 110.97 148.48 112.56 Q148.09 114.15 147.70 116.00 Q147.32 117.85 147.02 119.44 Q146.72 121.03 146.72 121.55 L146.72 121.55 Q146.20 122.15 146.11 123.06 Q146.03 123.96 146.03 124.65 L146.03 124.65 Q145.68 125.33 145.60 125.89 Q145.51 126.45 145.51 126.80 L145.51 126.80 L145.51 127.14 Q145.51 127.40 145.43 127.66 L145.43 127.66 Q145.34 128.52 145.21 129.94 Q145.08 131.35 145.08 132.73 L145.08 132.73 L144.82 135.22 Q144.74 136.34 144.52 137.16 Q144.31 137.98 143.88 138.41 Z M186.02 127.83 L186.02 127.83 Q185.16 126.97 184.64 125.46 Q184.13 123.96 183.61 121.98 L183.61 121.98 Q183.44 121.29 183.48 120.43 Q183.52 119.57 183.44 119.06 L183.44 119.06 Q183.18 119.66 182.62 120.60 Q182.06 121.55 181.55 121.98 L181.55 121.98 Q181.20 122.32 180.00 123.31 Q178.79 124.30 177.59 124.90 L177.59 124.90 Q174.75 126.71 172.56 126.58 Q170.37 126.45 168.73 124.39 L168.73 124.39 Q167.36 123.27 166.50 121.55 Q165.64 119.83 166.15 117.42 L166.15 117.42 Q166.32 114.41 167.01 111.53 Q167.70 108.65 169.85 103.83 L169.85 103.83 Q171.66 100.31 172.60 98.33 Q173.55 96.35 173.81 96.01 L173.81 96.01 Q175.10 95.58 176.99 96.05 Q178.88 96.52 179.05 97.73 L179.05 97.73 Q179.57 98.59 179.05 100.95 Q178.54 103.32 176.99 106.33 L176.99 106.33 Q175.78 109.25 174.71 112.00 Q173.63 114.76 173.42 116.65 Q173.20 118.54 174.41 118.97 L174.41 118.97 Q175.18 119.40 176.69 118.88 Q178.19 118.37 180.26 115.79 Q182.32 113.21 184.64 107.62 L184.64 107.62 Q185.33 105.90 185.67 104.56 Q186.02 103.23 186.10 101.60 L186.10 101.60 Q185.93 100.57 186.66 99.45 Q187.39 98.33 188.43 97.73 L188.43 97.73 Q188.77 97.30 189.37 96.87 L189.37 96.87 Q189.80 96.61 189.97 96.78 L189.97 96.78 Q190.06 96.78 190.15 96.95 L190.15 96.95 L191.52 96.87 Q191.87 96.78 192.30 97.56 Q192.73 98.33 193.16 98.67 L193.16 98.67 Q194.10 99.45 194.02 102.03 Q193.93 104.61 191.95 109.25 L191.95 109.25 Q190.32 112.78 189.76 114.58 Q189.20 116.39 189.11 118.11 L189.11 118.11 Q189.11 119.66 189.37 120.73 Q189.63 121.81 190.92 122.93 L190.92 122.93 Q191.87 123.53 191.99 124.95 Q192.12 126.37 192.04 127.40 L192.04 127.40 Q191.87 128.17 190.70 128.47 Q189.54 128.77 188.21 128.60 Q186.88 128.43 186.02 127.83 Z M197.80 126.54 L197.80 126.54 Q197.11 125.85 196.81 124.47 Q196.51 123.10 196.60 121.77 Q196.68 120.43 197.03 119.74 L197.03 119.74 Q197.03 119.06 197.24 118.67 Q197.46 118.28 197.37 117.94 L197.37 117.94 Q197.28 117.59 197.54 116.73 Q197.80 115.87 198.06 115.10 L198.06 115.10 Q198.66 113.72 199.43 111.53 Q200.21 109.34 200.98 107.06 Q201.76 104.78 202.27 103.10 Q202.79 101.43 202.87 101.08 L202.87 101.08 Q202.87 100.05 204.25 99.96 L204.25 99.96 Q205.28 99.62 206.74 100.82 Q208.21 102.03 209.07 103.40 L209.07 103.40 Q209.75 104.09 209.58 105.21 Q209.41 106.33 208.46 108.39 L208.46 108.39 Q208.12 109.08 207.65 110.67 Q207.17 112.26 207.00 113.29 L207.00 113.29 Q206.66 113.98 206.18 115.23 Q205.71 116.48 205.37 117.59 L205.37 117.59 Q205.20 118.02 205.02 119.19 Q204.85 120.35 204.59 121.55 Q204.34 122.75 203.91 123.44 L203.91 123.44 Q203.13 126.97 201.20 127.57 Q199.26 128.17 197.80 126.54 Z " fill="#1d1c19"></path><g transform="translate(210.40,95.23) rotate(12) scale(0.940)"><path d="M0,3 C0,-3 -9,-6 -9,-13 C-9,-19 -2,-20 0,-14 C2,-20 9,-19 9,-13 C9,-6 0,-3 0,3 Z" fill="#d23b34"></path></g></g><g stroke="#2f6f9e" stroke-width="1.2" stroke-linejoin="round" stroke-linecap="round" paint-order="stroke"><path d="M43.79 116.57L41.28 116.57L41.28 105.55L37.40 105.55L37.40 103.27L47.66 103.27L47.66 105.55L43.79 105.55L43.79 116.57Z M67.04 116.57L58.37 116.57L58.37 103.27L66.92 103.27L66.92 105.55L60.88 105.55L60.88 108.73L66.39 108.73L66.39 111.01L60.88 111.01L60.88 114.29L67.04 114.29L67.04 116.57Z M82.50 116.84L82.50 116.84Q81.13 116.84 80.02 116.22Q78.91 115.61 78.25 114.42Q77.59 113.23 77.59 111.52L77.59 111.52L77.59 108.33Q77.59 105.76 79.04 104.39Q80.48 103.01 82.95 103.01L82.95 103.01Q85.40 103.01 86.74 104.31Q88.08 105.61 88.08 107.83L88.08 107.83L88.08 107.91L85.61 107.91L85.61 107.76Q85.61 107.05 85.32 106.48Q85.02 105.91 84.44 105.58Q83.85 105.25 82.95 105.25L82.95 105.25Q81.62 105.25 80.86 106.07Q80.10 106.88 80.10 108.29L80.10 108.29L80.10 111.56Q80.10 112.94 80.86 113.79Q81.62 114.64 82.99 114.64L82.99 114.64Q84.36 114.64 84.99 113.91Q85.61 113.19 85.61 112.09L85.61 112.09L85.61 111.90L82.46 111.90L82.46 109.77L88.08 109.77L88.08 116.57L85.77 116.57L85.77 115.30L85.42 115.30Q85.29 115.62 85.00 115.98Q84.70 116.35 84.11 116.59Q83.52 116.84 82.50 116.84Z M108.14 116.57L99.48 116.57L99.48 103.27L108.03 103.27L108.03 105.55L101.98 105.55L101.98 108.73L107.50 108.73L107.50 111.01L101.98 111.01L101.98 114.29L108.14 114.29L108.14 116.57Z M121.51 116.57L119.00 116.57L119.00 103.27L124.78 103.27Q126.03 103.27 126.96 103.71Q127.89 104.15 128.41 104.95Q128.92 105.74 128.92 106.83L128.92 106.83L128.92 107.05Q128.92 108.25 128.35 108.99Q127.78 109.73 126.94 110.08L126.94 110.08L126.94 110.42Q127.70 110.46 128.12 110.94Q128.54 111.42 128.54 112.22L128.54 112.22L128.54 116.57L126.03 116.57L126.03 112.58Q126.03 112.13 125.80 111.84Q125.56 111.56 125.01 111.56L125.01 111.56L121.51 111.56L121.51 116.57ZM121.51 105.55L121.51 109.28L124.51 109.28Q125.41 109.28 125.91 108.79Q126.41 108.31 126.41 107.51L126.41 107.51L126.41 107.32Q126.41 106.52 125.92 106.04Q125.42 105.55 124.51 105.55L124.51 105.55L121.51 105.55Z M142.48 116.57L140.01 116.57L140.01 103.27L144.78 103.27L147.42 114.86L147.76 114.86L147.76 103.27L150.23 103.27L150.23 116.57L145.46 116.57L142.82 104.98L142.48 104.98L142.48 116.57Z M166.36 116.84L166.36 116.84Q164.82 116.84 163.64 116.29Q162.46 115.74 161.80 114.71Q161.13 113.69 161.13 112.24L161.13 112.24L161.13 111.71L163.60 111.71L163.60 112.24Q163.60 113.44 164.34 114.04Q165.09 114.64 166.36 114.64L166.36 114.64Q167.65 114.64 168.29 114.12Q168.92 113.61 168.92 112.81L168.92 112.81Q168.92 112.26 168.61 111.92Q168.30 111.58 167.70 111.36Q167.10 111.14 166.24 110.95L166.24 110.95L165.81 110.86Q164.44 110.55 163.46 110.09Q162.48 109.62 161.96 108.86Q161.44 108.10 161.44 106.88L161.44 106.88Q161.44 105.67 162.02 104.80Q162.60 103.94 163.65 103.47Q164.70 103.01 166.13 103.01L166.13 103.01Q167.56 103.01 168.67 103.49Q169.78 103.98 170.41 104.94Q171.05 105.90 171.05 107.34L171.05 107.34L171.05 107.91L168.58 107.91L168.58 107.34Q168.58 106.58 168.29 106.11Q167.99 105.65 167.44 105.43Q166.89 105.21 166.13 105.21L166.13 105.21Q164.99 105.21 164.45 105.64Q163.91 106.07 163.91 106.81L163.91 106.81Q163.91 107.30 164.16 107.64Q164.42 107.99 164.93 108.21Q165.45 108.44 166.24 108.61L166.24 108.61L166.68 108.71Q168.11 109.01 169.16 109.49Q170.22 109.96 170.80 110.74Q171.39 111.52 171.39 112.74L171.39 112.74Q171.39 113.95 170.78 114.87Q170.16 115.80 169.03 116.32Q167.90 116.84 166.36 116.84Z M190.92 116.57L182.25 116.57L182.25 103.27L190.81 103.27L190.81 105.55L184.76 105.55L184.76 108.73L190.27 108.73L190.27 111.01L184.76 111.01L184.76 114.29L190.92 114.29L190.92 116.57Z M210.45 116.57L201.78 116.57L201.78 103.27L210.33 103.27L210.33 105.55L204.29 105.55L204.29 108.73L209.80 108.73L209.80 111.01L204.29 111.01L204.29 114.29L210.45 114.29L210.45 116.57Z" fill="#2f6f9e"></path></g><path d="M58.09 139.89L56.82 139.89L56.82 138.32L52.97 138.32L52.97 136.84L55.77 132.19L58.09 132.19L58.09 137.18L59.38 137.18L59.38 138.32L58.09 138.32L58.09 139.89ZM54.20 137.01L54.20 137.18L56.82 137.18L56.82 133L56.63 133L54.20 137.01Z M65.42 139.89L64.13 139.89L64.13 139.60Q64.13 139.18 64.19 138.89Q64.26 138.60 64.48 138.21L64.48 138.21L67.14 133.50L67.14 133.33L62.94 133.33L62.94 132.19L68.47 132.19L68.47 133.70L65.66 138.73Q65.51 138.98 65.47 139.18Q65.42 139.37 65.42 139.66L65.42 139.66L65.42 139.89Z M73.33 140.04L73.33 140.04Q72.91 140.04 72.63 139.76Q72.35 139.49 72.35 139.06L72.35 139.06Q72.35 138.64 72.63 138.37Q72.91 138.09 73.33 138.09L73.33 138.09Q73.75 138.09 74.03 138.37Q74.30 138.64 74.30 139.07L74.30 139.07Q74.30 139.50 74.03 139.77Q73.75 140.04 73.33 140.04Z M80.69 139.89L79.40 139.89L79.40 139.60Q79.40 139.18 79.47 138.89Q79.53 138.60 79.75 138.21L79.75 138.21L82.42 133.50L82.42 133.33L78.21 133.33L78.21 132.19L83.75 132.19L83.75 133.70L80.93 138.73Q80.79 138.98 80.74 139.18Q80.69 139.37 80.69 139.66L80.69 139.66L80.69 139.89Z M91.14 139.89L89.86 139.89L89.86 133.11L89.67 133.11L88.52 135.63L87.16 135.63L88.80 132.19L91.14 132.19L91.14 139.89Z M97.05 135.52L97.05 135.52Q96.56 135.52 96.15 135.29Q95.74 135.07 95.51 134.67Q95.27 134.28 95.27 133.77L95.27 133.77Q95.27 133.26 95.51 132.87Q95.74 132.47 96.15 132.25Q96.56 132.03 97.05 132.03L97.05 132.03Q97.56 132.03 97.96 132.25Q98.37 132.47 98.61 132.87Q98.84 133.26 98.84 133.77L98.84 133.77Q98.84 134.28 98.61 134.67Q98.37 135.07 97.96 135.29Q97.56 135.52 97.05 135.52ZM97.05 134.54L97.05 134.54Q97.39 134.54 97.61 134.33Q97.82 134.11 97.82 133.77L97.82 133.77Q97.82 133.43 97.61 133.22Q97.39 133.01 97.05 133.01L97.05 133.01Q96.72 133.01 96.50 133.21Q96.28 133.42 96.28 133.77L96.28 133.77Q96.28 134.11 96.50 134.33Q96.72 134.54 97.05 134.54Z  M110.08 139.89L108.77 139.89L108.77 132.19L111.30 132.19L113.12 139.00L113.29 139.00L113.29 132.19L114.60 132.19L114.60 139.89L112.08 139.89L110.27 133.08L110.08 133.08L110.08 139.89Z  M125.33 137.71L125.33 137.71Q124.91 137.71 124.63 137.43Q124.35 137.16 124.35 136.73L124.35 136.73Q124.35 136.31 124.63 136.04Q124.91 135.76 125.33 135.76L125.33 135.76Q125.75 135.76 126.02 136.04Q126.30 136.31 126.30 136.74L126.30 136.74Q126.30 137.17 126.02 137.44Q125.75 137.71 125.33 137.71Z  M139.39 139.89L138.12 139.89L138.12 133.11L137.93 133.11L136.78 135.63L135.42 135.63L137.06 132.19L139.39 132.19L139.39 139.89Z M147.28 139.89L146.00 139.89L146.00 133.11L145.81 133.11L144.66 135.63L143.31 135.63L144.95 132.19L147.28 132.19L147.28 139.89Z M152.63 140.04L152.63 140.04Q152.21 140.04 151.93 139.76Q151.65 139.49 151.65 139.06L151.65 139.06Q151.65 138.64 151.93 138.37Q152.21 138.09 152.63 138.09L152.63 138.09Q153.05 138.09 153.32 138.37Q153.60 138.64 153.60 139.07L153.60 139.07Q153.60 139.50 153.32 139.77Q153.05 140.04 152.63 140.04Z M159.99 139.89L158.70 139.89L158.70 139.60Q158.70 139.18 158.77 138.89Q158.83 138.60 159.05 138.21L159.05 138.21L161.71 133.50L161.71 133.33L157.51 133.33L157.51 132.19L163.05 132.19L163.05 133.70L160.23 138.73Q160.09 138.98 160.04 139.18Q159.99 139.37 159.99 139.66L159.99 139.66L159.99 139.89Z M169.74 140.04L169.74 140.04Q168.88 140.04 168.25 139.72Q167.61 139.39 167.25 138.81Q166.89 138.22 166.89 137.45L166.89 137.45L166.89 134.80Q166.89 133.89 167.27 133.28Q167.64 132.66 168.30 132.35Q168.95 132.03 169.81 132.03L169.81 132.03Q170.67 132.03 171.29 132.32Q171.91 132.62 172.24 133.15Q172.58 133.68 172.58 134.41L172.58 134.41L171.28 134.41Q171.28 133.90 170.94 133.54Q170.59 133.18 169.81 133.18L169.81 133.18Q169.03 133.18 168.60 133.59Q168.18 134.00 168.18 134.73L168.18 134.73L168.18 135.59L168.37 135.59Q168.55 135.33 168.96 135.12Q169.37 134.90 170.12 134.90L170.12 134.90Q170.80 134.90 171.36 135.19Q171.93 135.47 172.28 136.03Q172.63 136.57 172.63 137.34L172.63 137.34L172.63 137.48Q172.63 138.25 172.27 138.82Q171.91 139.40 171.26 139.72Q170.61 140.04 169.74 140.04ZM169.76 138.90L169.76 138.90Q170.49 138.90 170.92 138.51Q171.35 138.12 171.35 137.47L171.35 137.47L171.35 137.38Q171.35 136.93 171.16 136.61Q170.96 136.29 170.61 136.11Q170.25 135.93 169.76 135.93L169.76 135.93Q169.29 135.93 168.93 136.11Q168.56 136.29 168.37 136.61Q168.18 136.93 168.18 137.38L168.18 137.38L168.18 137.47Q168.18 138.12 168.61 138.51Q169.04 138.90 169.76 138.90Z M178.25 135.52L178.25 135.52Q177.76 135.52 177.35 135.29Q176.94 135.07 176.71 134.67Q176.47 134.28 176.47 133.77L176.47 133.77Q176.47 133.26 176.71 132.87Q176.94 132.47 177.35 132.25Q177.76 132.03 178.25 132.03L178.25 132.03Q178.76 132.03 179.17 132.25Q179.57 132.47 179.81 132.87Q180.05 133.26 180.05 133.77L180.05 133.77Q180.05 134.28 179.81 134.67Q179.57 135.07 179.17 135.29Q178.76 135.52 178.25 135.52ZM178.25 134.54L178.25 134.54Q178.59 134.54 178.81 134.33Q179.02 134.11 179.02 133.77L179.02 133.77Q179.02 133.43 178.81 133.22Q178.59 133.01 178.25 133.01L178.25 133.01Q177.92 133.01 177.70 133.21Q177.48 133.42 177.48 133.77L177.48 133.77Q177.48 134.11 177.70 134.33Q177.92 134.54 178.25 134.54Z  M194.93 139.89L189.97 139.89L189.97 132.19L194.88 132.19L194.88 133.38L191.30 133.38L191.30 135.41L194.57 135.41L194.57 136.61L191.30 136.61L191.30 138.69L194.93 138.69L194.93 139.89Z" fill="#1d1c19"></path></svg>