<svg xmlns="http://www.w3.org/2000/svg" width="1380" height="2040" viewBox="0 0 230 340"><path d="M25.2,-72.2 L22.6,-75 L20.5,-75 L14.9,-72.5 L6.9,-51.7 L5,-48.1 L2.9,-46.5 L1,-41.4 L-0.9,-40 L-4.5,-32.7 L-4,-29.4 L-7.3,-27.5 L-7,-25.3 L-8.8,-21.6 L-11.1,-11.2 L-14.8,-7 L-14.8,-3.5 L-17.7,-2.1 L-17.1,-0.7 L-17.6,1 L-20.3,3 L-20.4,4.7 L-22.3,6.7 L-22.8,8.6 L-22,10.8 L-24.2,12.6 L-25.2,16 L-24.7,18.8 L-22,21.4 L-20.1,21 L-17.8,18.6 L-16.3,19 L-16.8,22.5 L-14.6,25.9 L-14.1,31.2 L-9.1,36.6 L-7.3,41.9 L-7.8,45.3 L-11.2,47.9 L-11.9,51.8 L-12.7,52.3 L-13,61.3 L-14,63.5 L-12.8,67 L-0.2,75 L6.5,74 L8,74.9 L10.3,73.9 L10.6,72.7 L11.5,73.2 L13,69.8 L11.7,66.1 L12.5,65.6 L12,63.7 L13.4,62 L13.6,59.1 L11,34.9 L9.7,32.1 L10.5,27.3 L10.2,17.4 L11.2,11.5 L10.7,0.7 L9.1,-9.1 L10,-17.5 L15.3,-32.9 L15.9,-38 L20,-52.1 L25.1,-59.7 L24.5,-68.4 Z M-9.2,-8 L-9.73,-6.16 L-11,-5.4 L-12.27,-6.16 L-12.8,-8 L-12.27,-9.84 L-11,-10.6 L-9.73,-9.84 Z M-9.20,-4.00 a2.2,2.2 0 1 0 4.40,0 a2.2,2.2 0 1 0 -4.40,0 Z" fill="none" stroke="#a9842b" stroke-opacity="0.32" stroke-width="0.90" stroke-linejoin="round" stroke-linecap="round" transform="translate(115 180) rotate(-6) scale(2.00000) translate(-1.03 0.00)"></path><path d="M60.81 72.38L57.03 72.38L57.03 57.50L60.75 57.50L60.75 59.12L61.29 59.12Q61.68 58.37 62.58 57.81Q63.48 57.26 64.95 57.26L64.95 57.26Q66.54 57.26 67.50 57.88Q68.46 58.49 68.97 59.48L68.97 59.48L69.51 59.48Q70.02 58.52 70.95 57.89Q71.88 57.26 73.59 57.26L73.59 57.26Q74.97 57.26 76.09 57.84Q77.22 58.43 77.89 59.61Q78.57 60.80 78.57 62.60L78.57 62.60L78.57 72.38L74.79 72.38L74.79 62.87Q74.79 61.64 74.16 61.02Q73.53 60.41 72.39 60.41L72.39 60.41Q71.10 60.41 70.39 61.23Q69.69 62.06 69.69 63.59L69.69 63.59L69.69 72.38L65.91 72.38L65.91 62.87Q65.91 61.64 65.28 61.02Q64.65 60.41 63.51 60.41L63.51 60.41Q62.22 60.41 61.51 61.23Q60.81 62.06 60.81 63.59L60.81 63.59L60.81 72.38Z M89.43 72.80L89.43 72.80Q87.21 72.80 85.51 71.85Q83.82 70.91 82.87 69.19Q81.93 67.46 81.93 65.12L81.93 65.12L81.93 64.76Q81.93 62.42 82.86 60.69Q83.79 58.97 85.47 58.02Q87.15 57.08 89.37 57.08L89.37 57.08Q91.56 57.08 93.18 58.05Q94.80 59.03 95.70 60.75Q96.60 62.48 96.60 64.76L96.60 64.76L96.60 66.05L85.77 66.05Q85.83 67.58 86.91 68.54Q87.99 69.50 89.55 69.50L89.55 69.50Q91.14 69.50 91.89 68.81Q92.64 68.12 93.03 67.28L93.03 67.28L96.12 68.90Q95.70 69.68 94.90 70.59Q94.11 71.51 92.79 72.16Q91.47 72.80 89.43 72.80ZM85.80 63.23L85.80 63.23L92.76 63.23Q92.64 61.94 91.72 61.16Q90.81 60.38 89.34 60.38L89.34 60.38Q87.81 60.38 86.91 61.16Q86.01 61.94 85.80 63.23Z M103.74 72.38L99.96 72.38L99.96 57.50L103.74 57.50L103.74 72.38ZM101.85 55.76L101.85 55.76Q100.83 55.76 100.12 55.10Q99.42 54.44 99.42 53.36L99.42 53.36Q99.42 52.28 100.12 51.62Q100.83 50.96 101.85 50.96L101.85 50.96Q102.90 50.96 103.59 51.62Q104.28 52.28 104.28 53.36L104.28 53.36Q104.28 54.44 103.59 55.10Q102.90 55.76 101.85 55.76Z  M122.73 72.80L122.73 72.80Q120.30 72.80 118.44 71.93Q116.58 71.06 115.53 69.44Q114.48 67.82 114.48 65.54L114.48 65.54L114.48 64.70L118.38 64.70L118.38 65.54Q118.38 67.43 119.55 68.38Q120.72 69.32 122.73 69.32L122.73 69.32Q124.77 69.32 125.77 68.51Q126.78 67.70 126.78 66.44L126.78 66.44Q126.78 65.57 126.28 65.03Q125.79 64.49 124.84 64.14Q123.90 63.80 122.55 63.50L122.55 63.50L121.86 63.35Q119.70 62.87 118.15 62.13Q116.61 61.40 115.78 60.20Q114.96 59 114.96 57.08L114.96 57.08Q114.96 55.16 115.87 53.79Q116.79 52.43 118.45 51.69Q120.12 50.96 122.37 50.96L122.37 50.96Q124.62 50.96 126.37 51.72Q128.13 52.49 129.13 54.00Q130.14 55.52 130.14 57.80L130.14 57.80L130.14 58.70L126.24 58.70L126.24 57.80Q126.24 56.60 125.77 55.86Q125.31 55.13 124.44 54.78Q123.57 54.44 122.37 54.44L122.37 54.44Q120.57 54.44 119.71 55.11Q118.86 55.79 118.86 56.96L118.86 56.96Q118.86 57.74 119.26 58.28Q119.67 58.82 120.48 59.18Q121.29 59.54 122.55 59.81L122.55 59.81L123.24 59.96Q125.49 60.44 127.15 61.19Q128.82 61.94 129.75 63.17Q130.68 64.40 130.68 66.32L130.68 66.32Q130.68 68.24 129.70 69.69Q128.73 71.15 126.94 71.97Q125.16 72.80 122.73 72.80Z M140.52 72.80L140.52 72.80Q138.30 72.80 136.60 71.85Q134.91 70.91 133.96 69.19Q133.02 67.46 133.02 65.12L133.02 65.12L133.02 64.76Q133.02 62.42 133.95 60.69Q134.88 58.97 136.56 58.02Q138.24 57.08 140.46 57.08L140.46 57.08Q142.65 57.08 144.27 58.05Q145.89 59.03 146.79 60.75Q147.69 62.48 147.69 64.76L147.69 64.76L147.69 66.05L136.86 66.05Q136.92 67.58 138.00 68.54Q139.08 69.50 140.64 69.50L140.64 69.50Q142.23 69.50 142.98 68.81Q143.73 68.12 144.12 67.28L144.12 67.28L147.21 68.90Q146.79 69.68 145.99 70.59Q145.20 71.51 143.88 72.16Q142.56 72.80 140.52 72.80ZM136.89 63.23L136.89 63.23L143.85 63.23Q143.73 61.94 142.81 61.16Q141.90 60.38 140.43 60.38L140.43 60.38Q138.90 60.38 138.00 61.16Q137.10 61.94 136.89 63.23Z M157.83 72.80L157.83 72.80Q155.61 72.80 153.91 71.85Q152.22 70.91 151.27 69.19Q150.33 67.46 150.33 65.12L150.33 65.12L150.33 64.76Q150.33 62.42 151.26 60.69Q152.19 58.97 153.87 58.02Q155.55 57.08 157.77 57.08L157.77 57.08Q159.96 57.08 161.58 58.05Q163.20 59.03 164.10 60.75Q165.00 62.48 165.00 64.76L165.00 64.76L165.00 66.05L154.17 66.05Q154.23 67.58 155.31 68.54Q156.39 69.50 157.95 69.50L157.95 69.50Q159.54 69.50 160.29 68.81Q161.04 68.12 161.43 67.28L161.43 67.28L164.52 68.90Q164.10 69.68 163.30 70.59Q162.51 71.51 161.19 72.16Q159.87 72.80 157.83 72.80ZM154.20 63.23L154.20 63.23L161.16 63.23Q161.04 61.94 160.12 61.16Q159.21 60.38 157.74 60.38L157.74 60.38Q156.21 60.38 155.31 61.16Q154.41 61.94 154.20 63.23Z M170.10 76.79L168.63 76.79L168.63 74.75L169.80 74.75Q171.18 74.75 171.18 73.37L171.18 73.37L171.18 72.41L170.67 72.41Q169.47 72.41 168.67 71.69Q167.88 70.97 167.88 69.86L167.88 69.86Q167.88 68.66 168.67 67.91Q169.47 67.16 170.67 67.16L170.67 67.16Q171.90 67.16 172.68 67.92Q173.46 68.69 173.46 69.98L173.46 69.98L173.46 73.43Q173.46 76.79 170.10 76.79L170.10 76.79Z" fill="#1d1c19"></path><path d="M54.99 105.98L51.21 105.98L51.21 91.10L54.93 91.10L54.93 92.72L55.47 92.72Q55.86 91.97 56.76 91.41Q57.66 90.86 59.13 90.86L59.13 90.86Q60.72 90.86 61.68 91.47Q62.64 92.09 63.15 93.08L63.15 93.08L63.69 93.08Q64.20 92.12 65.13 91.49Q66.06 90.86 67.77 90.86L67.77 90.86Q69.15 90.86 70.27 91.44Q71.40 92.03 72.07 93.21Q72.75 94.40 72.75 96.20L72.75 96.20L72.75 105.98L68.97 105.98L68.97 96.47Q68.97 95.24 68.34 94.62Q67.70 94.01 66.56 94.01L66.56 94.01Q65.28 94.01 64.57 94.83Q63.87 95.66 63.87 97.19L63.87 97.19L63.87 105.98L60.09 105.98L60.09 96.47Q60.09 95.24 59.46 94.62Q58.83 94.01 57.69 94.01L57.69 94.01Q56.40 94.01 55.69 94.83Q54.99 95.66 54.99 97.19L54.99 97.19L54.99 105.98Z M83.60 106.40L83.60 106.40Q81.38 106.40 79.69 105.45Q77.99 104.51 77.05 102.78Q76.10 101.06 76.10 98.72L76.10 98.72L76.10 98.36Q76.10 96.02 77.03 94.29Q77.96 92.57 79.64 91.62Q81.32 90.68 83.54 90.68L83.54 90.68Q85.73 90.68 87.35 91.65Q88.97 92.63 89.88 94.35Q90.77 96.08 90.77 98.36L90.77 98.36L90.77 99.65L79.94 99.65Q80.00 101.18 81.08 102.14Q82.16 103.10 83.72 103.10L83.72 103.10Q85.31 103.10 86.06 102.41Q86.81 101.72 87.20 100.88L87.20 100.88L90.29 102.50Q89.88 103.28 89.08 104.19Q88.28 105.11 86.96 105.75Q85.64 106.40 83.60 106.40ZM79.97 96.83L79.97 96.83L86.93 96.83Q86.81 95.54 85.90 94.76Q84.98 93.98 83.51 93.98L83.51 93.98Q81.98 93.98 81.08 94.76Q80.18 95.54 79.97 96.83Z M97.91 105.98L94.13 105.98L94.13 91.10L97.91 91.10L97.91 105.98ZM96.02 89.36L96.02 89.36Q95.00 89.36 94.30 88.70Q93.59 88.04 93.59 86.96L93.59 86.96Q93.59 85.88 94.30 85.22Q95.00 84.56 96.02 84.56L96.02 84.56Q97.08 84.56 97.77 85.22Q98.45 85.88 98.45 86.96L98.45 86.96Q98.45 88.04 97.77 88.70Q97.08 89.36 96.02 89.36Z  M113.58 105.98L109.62 105.98L109.62 84.98L118.73 84.98Q120.72 84.98 122.19 85.67Q123.66 86.36 124.47 87.62Q125.28 88.88 125.28 90.59L125.28 90.59L125.28 90.95Q125.28 92.84 124.38 94.01Q123.48 95.18 122.16 95.72L122.16 95.72L122.16 96.26Q123.36 96.32 124.02 97.08Q124.68 97.85 124.68 99.11L124.68 99.11L124.68 105.98L120.72 105.98L120.72 99.68Q120.72 98.96 120.34 98.51Q119.97 98.06 119.09 98.06L119.09 98.06L113.58 98.06L113.58 105.98ZM113.58 88.58L113.58 94.46L118.31 94.46Q119.73 94.46 120.52 93.69Q121.31 92.93 121.31 91.67L121.31 91.67L121.31 91.37Q121.31 90.11 120.54 89.34Q119.76 88.58 118.31 88.58L118.31 88.58L113.58 88.58Z M134.37 106.22L134.37 106.22Q132.63 106.22 131.32 105.42Q130.01 104.63 129.29 103.22Q128.57 101.81 128.57 99.98L128.57 99.98L128.57 91.10L132.35 91.10L132.35 99.68Q132.35 101.36 133.18 102.20Q134.00 103.04 135.53 103.04L135.53 103.04Q137.28 103.04 138.23 101.88Q139.19 100.73 139.19 98.66L139.19 98.66L139.19 91.10L142.97 91.10L142.97 105.98L139.25 105.98L139.25 104.03L138.72 104.03Q138.35 104.78 137.37 105.50Q136.38 106.22 134.37 106.22Z M151.79 106.40L151.79 106.40Q150.20 106.40 148.94 105.84Q147.69 105.29 146.95 104.22Q146.21 103.16 146.21 101.63L146.21 101.63Q146.21 100.10 146.95 99.06Q147.69 98.03 148.99 97.50Q150.29 96.98 151.97 96.98L151.97 96.98L156.05 96.98L156.05 96.14Q156.05 95.09 155.39 94.41Q154.73 93.74 153.29 93.74L153.29 93.74Q151.88 93.74 151.19 94.38Q150.50 95.03 150.29 96.05L150.29 96.05L146.81 94.88Q147.17 93.74 147.97 92.79Q148.76 91.85 150.10 91.26Q151.44 90.68 153.35 90.68L153.35 90.68Q156.29 90.68 158.00 92.15Q159.71 93.62 159.71 96.41L159.71 96.41L159.71 101.96Q159.71 102.86 160.55 102.86L160.55 102.86L161.75 102.86L161.75 105.98L159.23 105.98Q158.13 105.98 157.41 105.44Q156.69 104.90 156.69 104.00L156.69 104.00L156.69 103.97L156.11 103.97Q155.99 104.33 155.57 104.91Q155.16 105.50 154.25 105.95Q153.35 106.40 151.79 106.40ZM152.45 103.34L152.45 103.34Q154.04 103.34 155.05 102.45Q156.05 101.57 156.05 100.10L156.05 100.10L156.05 99.80L152.24 99.80Q151.19 99.80 150.59 100.25Q149.99 100.70 149.99 101.51L149.99 101.51Q149.99 102.32 150.63 102.83Q151.25 103.34 152.45 103.34Z M168.29 105.98L164.51 105.98L164.51 84.98L168.29 84.98L168.29 92.93L168.83 92.93Q169.07 92.45 169.58 91.97Q170.09 91.49 170.95 91.17Q171.80 90.86 173.13 90.86L173.13 90.86Q174.86 90.86 176.17 91.65Q177.47 92.45 178.19 93.84Q178.91 95.24 178.91 97.10L178.91 97.10L178.91 105.98L175.13 105.98L175.13 97.40Q175.13 95.72 174.31 94.88Q173.48 94.04 171.95 94.04L171.95 94.04Q170.22 94.04 169.25 95.19Q168.29 96.35 168.29 98.42L168.29 98.42L168.29 105.98Z" fill="#1d1c19"></path><svg x="25.43" y="161.00" width="175.14" height="90.00" viewBox="0 0 360 185" overflow="visible"><g fill="#1d1c19"><g transform="translate(64.98,0)"><path d="M22.88 133.59 L22.88 133.59 Q21.33 133.16 20.38 132.82 L20.38 132.82 L19.44 132.56 Q19.61 132.13 19.31 131.78 Q19.01 131.44 18.06 131.35 L18.06 131.35 Q16.77 130.49 15.39 128.95 Q14.02 127.40 12.99 125.76 Q11.95 124.13 11.61 123.36 L11.61 123.36 Q11.18 122.32 11.44 121.98 L11.44 121.98 Q11.52 121.81 11.70 121.72 L11.70 121.72 Q12.38 121.46 13.33 121.03 L13.33 121.03 Q14.28 120.35 15.35 120.00 Q16.43 119.66 17.11 121.12 L17.11 121.12 Q18.23 123.10 20.60 124.47 Q22.96 125.85 26.02 126.11 Q29.07 126.37 32.16 125.08 L32.16 125.08 Q34.23 124.13 34.40 122.45 Q34.57 120.78 33.11 118.54 L33.11 118.54 Q32.85 117.85 32.38 117.42 Q31.91 116.99 31.00 116.30 Q30.10 115.62 28.47 114.07 L28.47 114.07 Q27.18 113.47 26.10 112.95 Q25.03 112.43 23.82 111.83 L23.82 111.83 Q22.45 111.14 20.73 109.90 Q19.01 108.65 17.54 107.14 Q16.08 105.64 15.31 104.26 L15.31 104.26 Q13.93 102.97 13.59 100.69 Q13.24 98.42 13.72 95.84 Q14.19 93.26 15.31 91.19 L15.31 91.19 Q15.82 89.99 17.20 88.05 Q18.58 86.12 20.30 84.05 Q22.02 81.99 23.61 80.31 Q25.20 78.64 26.14 78.03 L26.14 78.03 Q26.83 77.35 27.61 76.57 L27.61 76.57 L28.38 75.88 Q28.47 75.45 28.72 75.45 L28.72 75.45 L28.90 75.45 Q29.33 75.20 30.79 74.59 Q32.25 73.99 33.97 72.36 L33.97 72.36 Q39.73 69.61 43.77 68.62 Q47.82 67.63 50.14 67.63 L50.14 67.63 Q52.29 67.71 54.35 68.79 Q56.42 69.86 57.92 71.50 Q59.43 73.13 59.68 75.20 L59.68 75.20 Q60.29 77.26 59.13 80.14 Q57.96 83.02 55.94 85.56 Q53.92 88.10 51.77 89.30 L51.77 89.30 Q49.36 90.33 47.69 89.56 Q46.01 88.78 46.10 87.15 L46.10 87.15 Q46.10 86.46 46.57 85.52 Q47.04 84.57 49.19 82.16 L49.19 82.16 Q51.94 78.12 52.12 76.40 Q52.29 74.68 50.57 74.42 L50.57 74.42 Q50.05 74.25 48.59 74.51 Q47.13 74.77 45.45 75.15 Q43.77 75.54 42.53 75.97 Q41.28 76.40 41.28 76.57 L41.28 76.57 L41.28 76.83 Q41.28 76.92 41.19 77.00 L41.19 77.00 Q41.19 77.09 40.94 77.00 L40.94 77.00 Q40.76 77.00 39.78 77.56 Q38.79 78.12 37.41 78.98 Q36.03 79.84 34.70 80.74 Q33.37 81.65 32.42 82.33 Q31.48 83.02 31.39 83.19 L31.39 83.19 Q31.22 84.14 29.41 84.91 L29.41 84.91 Q27.69 85.95 26.40 87.84 Q25.11 89.73 23.39 92.65 L23.39 92.65 Q21.93 94.63 21.33 96.91 Q20.73 99.19 21.33 100.57 L21.33 100.57 Q21.76 101.94 23.69 103.28 Q25.63 104.61 28.98 106.59 L28.98 106.59 Q31.91 108.22 34.49 110.03 Q37.07 111.83 38.87 113.51 Q40.68 115.19 41.19 116.30 L41.19 116.30 Q42.23 117.77 42.44 119.66 Q42.66 121.55 42.44 123.31 Q42.23 125.08 41.88 126.19 L41.88 126.19 Q41.28 127.57 40.03 129.12 Q38.79 130.67 37.75 130.58 L37.75 130.58 Q36.81 130.84 36.34 131.18 Q35.86 131.53 35.26 131.78 L35.26 131.78 Q34.66 132.13 32.42 132.60 Q30.19 133.07 27.52 133.38 Q24.85 133.68 22.88 133.59 Z M67.77 126.28 L67.77 126.28 Q65.19 127.74 62.31 127.96 Q59.43 128.17 56.93 127.18 Q54.44 126.19 52.89 124.22 L52.89 124.22 Q52.03 123.10 51.26 120.65 Q50.48 118.20 51.00 113.98 L51.00 113.98 Q51.51 110.03 53.45 105.98 Q55.38 101.94 58.22 98.85 Q61.06 95.75 64.41 94.63 L64.41 94.63 Q65.62 94.20 66.86 93.99 Q68.11 93.77 70.18 93.94 L70.18 93.94 Q72.15 94.20 73.70 94.93 Q75.25 95.66 75.94 96.52 L75.94 96.52 Q77.31 97.90 77.74 99.19 Q78.17 100.48 78.09 101.68 L78.09 101.68 Q77.66 104.44 75.64 107.62 Q73.62 110.80 70.00 112.35 L70.00 112.35 Q68.54 112.95 66.56 113.12 Q64.59 113.29 61.15 112.61 L61.15 112.61 Q59.08 112.18 58.44 113.04 Q57.79 113.90 57.88 116.39 L57.88 116.39 Q58.05 117.94 58.61 119.10 Q59.17 120.26 60.72 120.69 L60.72 120.69 Q62.69 121.03 63.55 120.73 Q64.41 120.43 65.70 119.83 L65.70 119.83 Q66.39 119.40 67.08 118.88 L67.08 118.88 L68.37 117.85 Q68.97 117.34 69.40 117.08 L69.40 117.08 Q69.83 116.73 70.26 116.65 Q70.69 116.56 71.12 116.56 L71.12 116.56 Q72.07 116.65 72.93 117.59 Q73.79 118.54 74.05 119.40 L74.05 119.40 Q74.05 120.09 73.19 121.33 Q72.33 122.58 70.91 123.92 Q69.49 125.25 67.77 126.28 Z M66.65 107.10 L66.65 107.10 Q67.25 106.84 68.41 105.90 Q69.57 104.95 70.52 103.88 Q71.47 102.80 71.47 102.20 L71.47 102.20 Q71.47 101.25 70.22 100.57 Q68.97 99.88 66.99 100.31 L66.99 100.31 Q66.31 100.48 65.36 101.25 Q64.41 102.03 63.47 103.02 Q62.52 104.01 61.83 104.91 Q61.15 105.81 60.89 106.33 L60.89 106.33 Q61.23 106.76 62.26 107.02 Q63.30 107.27 64.54 107.27 Q65.79 107.27 66.65 107.10 Z M96.49 126.28 L96.49 126.28 Q93.91 127.74 91.03 127.96 Q88.15 128.17 85.66 127.18 Q83.16 126.19 81.61 124.22 L81.61 124.22 Q80.75 123.10 79.98 120.65 Q79.21 118.20 79.72 113.98 L79.72 113.98 Q80.24 110.03 82.17 105.98 Q84.11 101.94 86.95 98.85 Q89.78 95.75 93.14 94.63 L93.14 94.63 Q94.34 94.20 95.59 93.99 Q96.84 93.77 98.90 93.94 L98.90 93.94 Q100.88 94.20 102.43 94.93 Q103.97 95.66 104.66 96.52 L104.66 96.52 Q106.04 97.90 106.47 99.19 Q106.90 100.48 106.81 101.68 L106.81 101.68 Q106.38 104.44 104.36 107.62 Q102.34 110.80 98.73 112.35 L98.73 112.35 Q97.27 112.95 95.29 113.12 Q93.31 113.29 89.87 112.61 L89.87 112.61 Q87.81 112.18 87.16 113.04 Q86.52 113.90 86.60 116.39 L86.60 116.39 Q86.77 117.94 87.33 119.10 Q87.89 120.26 89.44 120.69 L89.44 120.69 Q91.42 121.03 92.28 120.73 Q93.14 120.43 94.43 119.83 L94.43 119.83 Q95.12 119.40 95.80 118.88 L95.80 118.88 L97.09 117.85 Q97.70 117.34 98.13 117.08 L98.13 117.08 Q98.56 116.73 98.99 116.65 Q99.42 116.56 99.85 116.56 L99.85 116.56 Q100.79 116.65 101.65 117.59 Q102.51 118.54 102.77 119.40 L102.77 119.40 Q102.77 120.09 101.91 121.33 Q101.05 122.58 99.63 123.92 Q98.21 125.25 96.49 126.28 Z M95.37 107.10 L95.37 107.10 Q95.98 106.84 97.14 105.90 Q98.30 104.95 99.24 103.88 Q100.19 102.80 100.19 102.20 L100.19 102.20 Q100.19 101.25 98.94 100.57 Q97.70 99.88 95.72 100.31 L95.72 100.31 Q95.03 100.48 94.08 101.25 Q93.14 102.03 92.19 103.02 Q91.25 104.01 90.56 104.91 Q89.87 105.81 89.61 106.33 L89.61 106.33 Q89.96 106.76 90.99 107.02 Q92.02 107.27 93.27 107.27 Q94.51 107.27 95.37 107.10 Z M118.42 145.20 L118.42 145.20 Q116.01 146.15 113.39 144.90 Q110.77 143.65 108.88 140.99 L108.88 140.99 Q108.53 140.47 107.84 139.14 Q107.16 137.80 106.51 136.26 Q105.87 134.71 105.56 133.59 Q105.26 132.47 105.52 132.30 L105.52 132.30 Q105.87 131.35 107.07 131.18 Q108.27 131.01 109.48 131.31 Q110.68 131.61 110.85 132.13 L110.85 132.13 Q111.11 132.73 111.37 133.38 Q111.63 134.02 112.01 134.58 Q112.40 135.14 112.75 135.57 L112.75 135.57 Q113.69 137.03 114.81 137.59 Q115.93 138.15 116.53 137.72 L116.53 137.72 Q117.99 136.60 118.72 135.09 Q119.45 133.59 120.66 129.81 L120.66 129.81 Q121.60 126.62 122.29 124.30 Q122.98 121.98 123.75 120.00 L123.75 120.00 Q124.01 118.97 124.44 118.20 L124.44 118.20 Q124.53 118.02 124.61 117.85 L124.61 117.85 Q123.41 118.71 122.46 119.57 L122.46 119.57 Q121.17 120.78 118.94 121.72 L118.94 121.72 Q118.42 122.32 116.40 122.45 Q114.38 122.58 112.49 121.98 L112.49 121.98 Q111.28 121.29 110.55 120.56 Q109.82 119.83 109.35 118.88 Q108.88 117.94 108.36 116.65 L108.36 116.65 Q107.76 115.36 108.19 112.43 Q108.62 109.51 109.74 106.59 L109.74 106.59 Q110.77 104.44 112.75 101.94 Q114.72 99.45 116.96 97.43 Q119.20 95.41 121.00 94.89 L121.00 94.89 Q121.69 94.55 123.41 94.07 Q125.13 93.60 126.68 94.03 L126.68 94.03 Q128.14 94.20 128.91 94.67 Q129.69 95.15 131.41 96.61 L131.41 96.61 Q132.53 97.73 134.16 99.49 Q135.79 101.25 136.22 102.46 L136.22 102.46 Q136.83 103.75 136.48 105.25 Q136.14 106.76 135.28 107.88 L135.28 107.88 Q134.50 108.99 133.64 110.11 Q132.78 111.23 132.35 113.21 L132.35 113.21 Q131.92 115.79 130.72 119.01 Q129.52 122.24 128.83 124.99 L128.83 124.99 L127.45 130.32 Q125.30 137.63 122.72 140.94 Q120.14 144.25 118.42 145.20 Z M116.62 115.62 L116.62 115.62 Q118.34 115.53 119.58 115.23 Q120.83 114.93 121.95 113.85 Q123.07 112.78 124.53 110.54 L124.53 110.54 Q125.99 108.48 126.59 106.76 Q127.19 105.04 127.02 102.89 L127.02 102.89 Q126.94 101.51 126.25 101.08 Q125.56 100.65 124.44 100.82 L124.44 100.82 Q122.81 101.08 121.52 102.16 Q120.23 103.23 118.51 105.47 L118.51 105.47 Q117.22 107.19 116.36 109.60 L116.36 109.60 Q115.50 112.18 115.63 113.72 Q115.76 115.27 116.62 115.62 Z M143.88 138.41 L143.88 138.41 Q143.36 138.75 141.56 137.59 Q139.75 136.43 138.55 135.05 L138.55 135.05 Q137.94 134.36 137.77 133.59 Q137.60 132.82 137.86 130.67 L137.86 130.67 Q138.20 129.72 138.24 128.86 Q138.29 128.00 138.29 127.66 L138.29 127.66 Q138.29 127.14 138.59 125.25 Q138.89 123.36 139.23 121.25 Q139.58 119.14 139.84 118.02 L139.84 118.02 Q139.84 117.94 139.96 117.42 Q140.09 116.91 140.18 116.65 L140.18 116.65 Q140.35 115.87 140.61 114.76 Q140.87 113.64 141.13 111.75 L141.13 111.75 Q141.81 109.60 142.29 107.49 Q142.76 105.38 142.76 104.61 L142.76 104.61 Q142.76 103.06 143.96 102.37 L143.96 102.37 Q144.05 101.94 144.48 101.04 Q144.91 100.14 145.25 99.53 L145.25 99.53 Q146.97 94.63 148.09 91.71 Q149.21 88.78 150.41 86.63 L150.41 86.63 Q150.93 85.17 151.57 83.62 Q152.22 82.08 152.91 81.22 L152.91 81.22 Q153.51 80.01 155.01 78.25 Q156.52 76.49 158.24 74.85 Q159.96 73.22 160.99 72.44 L160.99 72.44 Q162.88 71.50 164.52 70.90 Q166.15 70.29 167.96 70.29 L167.96 70.29 Q169.59 70.29 170.84 71.03 Q172.09 71.76 174.58 73.99 L174.58 73.99 Q175.44 75.11 175.44 76.14 Q175.44 77.17 175.01 77.86 L175.01 77.86 Q174.41 79.24 173.20 81.26 Q172.00 83.28 170.88 84.87 Q169.76 86.46 169.25 86.55 L169.25 86.55 Q168.22 87.15 167.10 86.89 Q165.98 86.63 165.98 85.34 L165.98 85.34 Q165.98 84.74 166.07 84.23 L166.07 84.23 L166.07 83.71 Q166.32 82.59 166.71 81.73 Q167.10 80.87 167.44 80.27 L167.44 80.27 Q168.13 79.15 167.83 78.12 Q167.53 77.09 165.64 77.26 L165.64 77.26 Q165.38 77.43 164.65 78.08 Q163.92 78.72 163.10 79.54 Q162.28 80.36 161.68 81.09 Q161.08 81.82 161.08 82.08 L161.08 82.08 L160.65 82.94 Q160.13 83.88 159.19 85.00 L159.19 85.00 Q158.58 85.86 158.15 86.63 Q157.72 87.41 157.72 87.84 L157.72 87.84 Q157.72 88.18 157.64 88.44 Q157.55 88.70 157.21 88.70 L157.21 88.70 L156.95 89.56 Q156.61 90.42 155.92 91.62 L155.92 91.62 Q155.57 92.48 155.19 93.21 Q154.80 93.94 154.46 94.29 L154.46 94.29 L154.37 94.46 L154.03 95.41 Q153.60 96.44 153.17 97.47 Q152.74 98.50 152.74 98.67 L152.74 98.67 Q152.74 99.02 153.77 99.02 Q154.80 99.02 156.26 98.72 Q157.72 98.42 159.10 98.07 L159.10 98.07 Q160.30 97.73 160.82 97.73 Q161.34 97.73 162.45 98.07 L162.45 98.07 Q163.14 98.50 163.57 99.58 Q164.00 100.65 164.22 101.73 Q164.43 102.80 164.26 103.32 L164.26 103.32 Q164.17 103.66 162.32 104.26 Q160.48 104.87 158.67 105.21 L158.67 105.21 Q157.12 105.55 155.19 105.94 Q153.25 106.33 151.79 106.72 Q150.33 107.10 150.24 107.45 L150.24 107.45 Q149.90 107.45 149.68 107.88 Q149.47 108.31 149.47 108.65 L149.47 108.65 Q149.47 109.77 149.04 110.46 L149.04 110.46 Q148.87 110.97 148.48 112.56 Q148.09 114.15 147.70 116.00 Q147.32 117.85 147.02 119.44 Q146.72 121.03 146.72 121.55 L146.72 121.55 Q146.20 122.15 146.11 123.06 Q146.03 123.96 146.03 124.65 L146.03 124.65 Q145.68 125.33 145.60 125.89 Q145.51 126.45 145.51 126.80 L145.51 126.80 L145.51 127.14 Q145.51 127.40 145.43 127.66 L145.43 127.66 Q145.34 128.52 145.21 129.94 Q145.08 131.35 145.08 132.73 L145.08 132.73 L144.82 135.22 Q144.74 136.34 144.52 137.16 Q144.31 137.98 143.88 138.41 Z M186.02 127.83 L186.02 127.83 Q185.16 126.97 184.64 125.46 Q184.13 123.96 183.61 121.98 L183.61 121.98 Q183.44 121.29 183.48 120.43 Q183.52 119.57 183.44 119.06 L183.44 119.06 Q183.18 119.66 182.62 120.60 Q182.06 121.55 181.55 121.98 L181.55 121.98 Q181.20 122.32 180.00 123.31 Q178.79 124.30 177.59 124.90 L177.59 124.90 Q174.75 126.71 172.56 126.58 Q170.37 126.45 168.73 124.39 L168.73 124.39 Q167.36 123.27 166.50 121.55 Q165.64 119.83 166.15 117.42 L166.15 117.42 Q166.32 114.41 167.01 111.53 Q167.70 108.65 169.85 103.83 L169.85 103.83 Q171.66 100.31 172.60 98.33 Q173.55 96.35 173.81 96.01 L173.81 96.01 Q175.10 95.58 176.99 96.05 Q178.88 96.52 179.05 97.73 L179.05 97.73 Q179.57 98.59 179.05 100.95 Q178.54 103.32 176.99 106.33 L176.99 106.33 Q175.78 109.25 174.71 112.00 Q173.63 114.76 173.42 116.65 Q173.20 118.54 174.41 118.97 L174.41 118.97 Q175.18 119.40 176.69 118.88 Q178.19 118.37 180.26 115.79 Q182.32 113.21 184.64 107.62 L184.64 107.62 Q185.33 105.90 185.67 104.56 Q186.02 103.23 186.10 101.60 L186.10 101.60 Q185.93 100.57 186.66 99.45 Q187.39 98.33 188.43 97.73 L188.43 97.73 Q188.77 97.30 189.37 96.87 L189.37 96.87 Q189.80 96.61 189.97 96.78 L189.97 96.78 Q190.06 96.78 190.15 96.95 L190.15 96.95 L191.52 96.87 Q191.87 96.78 192.30 97.56 Q192.73 98.33 193.16 98.67 L193.16 98.67 Q194.10 99.45 194.02 102.03 Q193.93 104.61 191.95 109.25 L191.95 109.25 Q190.32 112.78 189.76 114.58 Q189.20 116.39 189.11 118.11 L189.11 118.11 Q189.11 119.66 189.37 120.73 Q189.63 121.81 190.92 122.93 L190.92 122.93 Q191.87 123.53 191.99 124.95 Q192.12 126.37 192.04 127.40 L192.04 127.40 Q191.87 128.17 190.70 128.47 Q189.54 128.77 188.21 128.60 Q186.88 128.43 186.02 127.83 Z M197.80 126.54 L197.80 126.54 Q197.11 125.85 196.81 124.47 Q196.51 123.10 196.60 121.77 Q196.68 120.43 197.03 119.74 L197.03 119.74 Q197.03 119.06 197.24 118.67 Q197.46 118.28 197.37 117.94 L197.37 117.94 Q197.28 117.59 197.54 116.73 Q197.80 115.87 198.06 115.10 L198.06 115.10 Q198.66 113.72 199.43 111.53 Q200.21 109.34 200.98 107.06 Q201.76 104.78 202.27 103.10 Q202.79 101.43 202.87 101.08 L202.87 101.08 Q202.87 100.05 204.25 99.96 L204.25 99.96 Q205.28 99.62 206.74 100.82 Q208.21 102.03 209.07 103.40 L209.07 103.40 Q209.75 104.09 209.58 105.21 Q209.41 106.33 208.46 108.39 L208.46 108.39 Q208.12 109.08 207.65 110.67 Q207.17 112.26 207.00 113.29 L207.00 113.29 Q206.66 113.98 206.18 115.23 Q205.71 116.48 205.37 117.59 L205.37 117.59 Q205.20 118.02 205.02 119.19 Q204.85 120.35 204.59 121.55 Q204.34 122.75 203.91 123.44 L203.91 123.44 Q203.13 126.97 201.20 127.57 Q199.26 128.17 197.80 126.54 Z " fill="#1d1c19"></path><defs><mask id="hm2" maskUnits="userSpaceOnUse"><path d="M0,3 C0,-3 -9,-6 -9,-13 C-9,-19 -2,-20 0,-14 C2,-20 9,-19 9,-13 C9,-6 0,-3 0,3 Z" fill="#fff"></path><path d="M-7.5,-8 q2.5,-3.4 5,0 t5,0 t5,0" fill="none" stroke="#000" stroke-width="2.1" stroke-linecap="round"></path></mask></defs><g transform="translate(210.40,95.23) rotate(12) scale(0.940)"><path d="M0,3 C0,-3 -9,-6 -9,-13 C-9,-19 -2,-20 0,-14 C2,-20 9,-19 9,-13 C9,-6 0,-3 0,3 Z" fill="#d23b34" mask="url(#hm2)"></path></g></g></g></svg><path d="M16.90 304.32L16.90 304.32Q15.94 304.32 15.20 303.98Q14.46 303.64 14.04 302.99Q13.62 302.34 13.62 301.40L13.62 301.40L13.62 301.09L15.05 301.09L15.05 301.40Q15.05 302.23 15.55 302.64Q16.06 303.05 16.90 303.05L16.90 303.05Q17.75 303.05 18.18 302.70Q18.61 302.35 18.61 301.80L18.61 301.80Q18.61 301.43 18.41 301.19Q18.20 300.96 17.81 300.82Q17.42 300.67 16.87 300.54L16.87 300.54L16.51 300.47Q15.68 300.28 15.08 299.98Q14.47 299.69 14.15 299.22Q13.82 298.75 13.82 298.00L13.82 298.00Q13.82 297.24 14.18 296.70Q14.54 296.16 15.20 295.87Q15.86 295.58 16.75 295.58L16.75 295.58Q17.64 295.58 18.34 295.88Q19.03 296.18 19.43 296.78Q19.84 297.38 19.84 298.28L19.84 298.28L19.84 298.68L18.41 298.68L18.41 298.28Q18.41 297.77 18.20 297.46Q18.00 297.14 17.63 297Q17.26 296.86 16.75 296.86L16.75 296.86Q16.01 296.86 15.62 297.14Q15.24 297.43 15.24 297.96L15.24 297.96Q15.24 298.30 15.41 298.53Q15.59 298.76 15.93 298.91Q16.27 299.06 16.79 299.17L16.79 299.17L17.15 299.26Q18.01 299.45 18.66 299.74Q19.31 300.04 19.67 300.52Q20.04 301.00 20.04 301.76L20.04 301.76Q20.04 302.52 19.65 303.10Q19.26 303.67 18.56 304.00Q17.86 304.32 16.90 304.32Z M31.72 304.15L30.28 304.15L30.28 297.06L27.77 297.06L27.77 295.75L34.23 295.75L34.23 297.06L31.72 297.06L31.72 304.15Z M43.26 304.15L41.77 304.15L44.07 295.75L46.58 295.75L48.88 304.15L47.40 304.15L46.89 302.23L43.76 302.23L43.26 304.15ZM45.22 296.65L44.10 300.91L46.56 300.91L45.43 296.65L45.22 296.65Z M58.40 304.15L56.95 304.15L56.95 295.75L60.54 295.75Q61.33 295.75 61.92 296.03Q62.51 296.30 62.84 296.80Q63.17 297.30 63.17 298.00L63.17 298.00L63.17 298.13Q63.17 298.91 62.80 299.38Q62.42 299.84 61.90 300.06L61.90 300.06L61.90 300.25Q62.36 300.28 62.63 300.58Q62.90 300.88 62.90 301.38L62.90 301.38L62.90 304.15L61.46 304.15L61.46 301.58Q61.46 301.28 61.30 301.10Q61.14 300.91 60.78 300.91L60.78 300.91L58.40 300.91L58.40 304.15ZM58.40 297.06L58.40 299.60L60.40 299.60Q61.02 299.60 61.37 299.27Q61.73 298.94 61.73 298.39L61.73 298.39L61.73 298.28Q61.73 297.72 61.38 297.39Q61.03 297.06 60.40 297.06L60.40 297.06L58.40 297.06Z M72.96 304.15L71.54 304.15L71.54 295.75L74.30 295.75L76.28 303.18L76.47 303.18L76.47 295.75L77.90 295.75L77.90 304.15L75.15 304.15L73.17 296.72L72.96 296.72L72.96 304.15Z M90.61 304.15L86.28 304.15L86.28 302.88L87.40 302.88L87.40 297.02L86.28 297.02L86.28 295.75L90.57 295.75Q91.33 295.75 91.90 296.01Q92.47 296.27 92.79 296.74Q93.10 297.22 93.10 297.88L93.10 297.88L93.10 297.98Q93.10 298.56 92.89 298.93Q92.67 299.30 92.37 299.51Q92.07 299.71 91.80 299.80L91.80 299.80L91.80 300Q92.07 300.07 92.39 300.27Q92.71 300.47 92.93 300.85Q93.15 301.22 93.15 301.82L93.15 301.82L93.15 301.94Q93.15 302.63 92.82 303.13Q92.49 303.62 91.92 303.89Q91.35 304.15 90.61 304.15L90.61 304.15ZM88.84 300.58L88.84 302.84L90.44 302.84Q91.02 302.84 91.36 302.56Q91.70 302.28 91.70 301.76L91.70 301.76L91.70 301.66Q91.70 301.14 91.36 300.86Q91.03 300.58 90.44 300.58L90.44 300.58L88.84 300.58ZM88.84 297.06L88.84 299.27L90.43 299.27Q90.98 299.27 91.32 298.99Q91.66 298.72 91.66 298.22L91.66 298.22L91.66 298.10Q91.66 297.61 91.32 297.34Q90.98 297.06 90.43 297.06L90.43 297.06L88.84 297.06Z M106.92 304.15L101.51 304.15L101.51 295.75L106.86 295.75L106.86 297.06L102.96 297.06L102.96 299.27L106.52 299.27L106.52 300.58L102.96 300.58L102.96 302.84L106.92 302.84L106.92 304.15Z M116.63 304.15L115.18 304.15L115.18 295.75L118.77 295.75Q119.56 295.75 120.15 296.03Q120.74 296.30 121.07 296.80Q121.40 297.30 121.40 298.00L121.40 298.00L121.40 298.13Q121.40 298.91 121.02 299.38Q120.65 299.84 120.12 300.06L120.12 300.06L120.12 300.25Q120.59 300.28 120.86 300.58Q121.13 300.88 121.13 301.38L121.13 301.38L121.13 304.15L119.69 304.15L119.69 301.58Q119.69 301.28 119.53 301.10Q119.37 300.91 119.01 300.91L119.01 300.91L116.63 300.91L116.63 304.15ZM116.63 297.06L116.63 299.60L118.62 299.60Q119.25 299.60 119.60 299.27Q119.96 298.94 119.96 298.39L119.96 298.39L119.96 298.28Q119.96 297.72 119.61 297.39Q119.26 297.06 118.62 297.06L118.62 297.06L116.63 297.06Z M132.68 304.32L132.68 304.32Q131.79 304.32 131.09 303.93Q130.39 303.54 129.97 302.79Q129.56 302.04 129.56 300.95L129.56 300.95L129.56 298.96Q129.56 297.32 130.47 296.45Q131.38 295.58 132.92 295.58L132.92 295.58Q134.46 295.58 135.28 296.41Q136.11 297.23 136.11 298.62L136.11 298.62L136.11 298.67L134.70 298.67L134.70 298.57Q134.70 298.09 134.50 297.71Q134.31 297.32 133.92 297.10Q133.52 296.88 132.92 296.88L132.92 296.88Q132.03 296.88 131.52 297.43Q131.01 297.97 131.01 298.93L131.01 298.93L131.01 300.97Q131.01 301.92 131.52 302.48Q132.03 303.05 132.94 303.05L132.94 303.05Q133.86 303.05 134.28 302.56Q134.70 302.06 134.70 301.30L134.70 301.30L134.70 301.15L132.57 301.15L132.57 299.93L136.11 299.93L136.11 304.15L134.79 304.15L134.79 303.32L134.59 303.32Q134.49 303.54 134.29 303.77Q134.08 304.01 133.71 304.16Q133.33 304.32 132.68 304.32Z M150.11 304.15L144.70 304.15L144.70 295.75L150.05 295.75L150.05 297.06L146.15 297.06L146.15 299.27L149.71 299.27L149.71 300.58L146.15 300.58L146.15 302.84L150.11 302.84L150.11 304.15Z M159.82 304.15L158.37 304.15L158.37 295.75L161.96 295.75Q162.75 295.75 163.34 296.03Q163.92 296.30 164.25 296.80Q164.58 297.30 164.58 298.00L164.58 298.00L164.58 298.13Q164.58 298.91 164.21 299.38Q163.84 299.84 163.31 300.06L163.31 300.06L163.31 300.25Q163.78 300.28 164.05 300.58Q164.32 300.88 164.32 301.38L164.32 301.38L164.32 304.15L162.88 304.15L162.88 301.58Q162.88 301.28 162.72 301.10Q162.56 300.91 162.20 300.91L162.20 300.91L159.82 300.91L159.82 304.15ZM159.82 297.06L159.82 299.60L161.81 299.60Q162.44 299.60 162.79 299.27Q163.14 298.94 163.14 298.39L163.14 298.39L163.14 298.28Q163.14 297.72 162.80 297.39Q162.45 297.06 161.81 297.06L161.81 297.06L159.82 297.06Z  M185.90 304.32L185.90 304.32Q184.94 304.32 184.21 303.98Q183.47 303.64 183.05 302.99Q182.63 302.34 182.63 301.40L182.63 301.40L182.63 301.09L184.06 301.09L184.06 301.40Q184.06 302.23 184.56 302.64Q185.06 303.05 185.90 303.05L185.90 303.05Q186.76 303.05 187.19 302.70Q187.62 302.35 187.62 301.80L187.62 301.80Q187.62 301.43 187.42 301.19Q187.21 300.96 186.82 300.82Q186.43 300.67 185.88 300.54L185.88 300.54L185.52 300.47Q184.69 300.28 184.09 299.98Q183.48 299.69 183.16 299.22Q182.83 298.75 182.83 298.00L182.83 298.00Q182.83 297.24 183.19 296.70Q183.55 296.16 184.21 295.87Q184.87 295.58 185.76 295.58L185.76 295.58Q186.65 295.58 187.34 295.88Q188.04 296.18 188.44 296.78Q188.84 297.38 188.84 298.28L188.84 298.28L188.84 298.68L187.42 298.68L187.42 298.28Q187.42 297.77 187.21 297.46Q187.01 297.14 186.64 297Q186.26 296.86 185.76 296.86L185.76 296.86Q185.02 296.86 184.63 297.14Q184.25 297.43 184.25 297.96L184.25 297.96Q184.25 298.30 184.42 298.53Q184.60 298.76 184.94 298.91Q185.28 299.06 185.80 299.17L185.80 299.17L186.16 299.26Q187.02 299.45 187.67 299.74Q188.32 300.04 188.68 300.52Q189.05 301.00 189.05 301.76L189.05 301.76Q189.05 302.52 188.66 303.10Q188.27 303.67 187.57 304.00Q186.86 304.32 185.90 304.32Z M202.72 304.15L197.31 304.15L197.31 295.75L202.66 295.75L202.66 297.06L198.76 297.06L198.76 299.27L202.32 299.27L202.32 300.58L198.76 300.58L198.76 302.84L202.72 302.84L202.72 304.15Z M216.39 304.15L210.98 304.15L210.98 295.75L216.33 295.75L216.33 297.06L212.43 297.06L212.43 299.27L216.00 299.27L216.00 300.58L212.43 300.58L212.43 302.84L216.39 302.84L216.39 304.15Z" fill="#a9842b"></path></svg>