<svg xmlns="http://www.w3.org/2000/svg" width="1380" height="2040" viewBox="0 0 230 340"><path d="M25.2,-72.2 L22.6,-75 L20.5,-75 L14.9,-72.5 L6.9,-51.7 L5,-48.1 L2.9,-46.5 L1,-41.4 L-0.9,-40 L-4.5,-32.7 L-4,-29.4 L-7.3,-27.5 L-7,-25.3 L-8.8,-21.6 L-11.1,-11.2 L-14.8,-7 L-14.8,-3.5 L-17.7,-2.1 L-17.1,-0.7 L-17.6,1 L-20.3,3 L-20.4,4.7 L-22.3,6.7 L-22.8,8.6 L-22,10.8 L-24.2,12.6 L-25.2,16 L-24.7,18.8 L-22,21.4 L-20.1,21 L-17.8,18.6 L-16.3,19 L-16.8,22.5 L-14.6,25.9 L-14.1,31.2 L-9.1,36.6 L-7.3,41.9 L-7.8,45.3 L-11.2,47.9 L-11.9,51.8 L-12.7,52.3 L-13,61.3 L-14,63.5 L-12.8,67 L-0.2,75 L6.5,74 L8,74.9 L10.3,73.9 L10.6,72.7 L11.5,73.2 L13,69.8 L11.7,66.1 L12.5,65.6 L12,63.7 L13.4,62 L13.6,59.1 L11,34.9 L9.7,32.1 L10.5,27.3 L10.2,17.4 L11.2,11.5 L10.7,0.7 L9.1,-9.1 L10,-17.5 L15.3,-32.9 L15.9,-38 L20,-52.1 L25.1,-59.7 L24.5,-68.4 Z M-9.2,-8 L-9.73,-6.16 L-11,-5.4 L-12.27,-6.16 L-12.8,-8 L-12.27,-9.84 L-11,-10.6 L-9.73,-9.84 Z M-9.20,-4.00 a2.2,2.2 0 1 0 4.40,0 a2.2,2.2 0 1 0 -4.40,0 Z" fill="none" stroke="#2f7d8a" stroke-opacity="0.32" stroke-width="0.90" stroke-linejoin="round" stroke-linecap="round" transform="translate(115 180) rotate(-6) scale(2.00000) translate(-1.03 0.00)"></path><path d="M75.50 72.80L75.50 72.80Q72.59 72.80 70.73 71.54Q68.88 70.28 68.48 67.94L68.48 67.94L71.96 67.04Q72.17 68.09 72.67 68.69Q73.16 69.29 73.90 69.55Q74.63 69.80 75.50 69.80L75.50 69.80Q76.82 69.80 77.45 69.33Q78.08 68.87 78.08 68.18L78.08 68.18Q78.08 67.49 77.48 67.11Q76.88 66.74 75.56 66.50L75.56 66.50L74.72 66.35Q73.16 66.05 71.88 65.52Q70.58 65 69.80 64.07Q69.02 63.14 69.02 61.67L69.02 61.67Q69.02 59.45 70.64 58.26Q72.27 57.08 74.91 57.08L74.91 57.08Q77.39 57.08 79.04 58.19Q80.69 59.30 81.20 61.10L81.20 61.10L77.69 62.18Q77.45 61.04 76.72 60.56Q75.98 60.08 74.91 60.08L74.91 60.08Q73.82 60.08 73.25 60.45Q72.68 60.83 72.68 61.49L72.68 61.49Q72.68 62.21 73.28 62.55Q73.88 62.90 74.91 63.08L74.91 63.08L75.74 63.23Q77.42 63.53 78.79 64.02Q80.16 64.52 80.95 65.44Q81.74 66.35 81.74 67.91L81.74 67.91Q81.74 70.25 80.05 71.52Q78.35 72.80 75.50 72.80Z M91.82 72.80L91.82 72.80Q89.60 72.80 87.91 71.85Q86.21 70.91 85.27 69.19Q84.32 67.46 84.32 65.12L84.32 65.12L84.32 64.76Q84.32 62.42 85.25 60.69Q86.18 58.97 87.86 58.02Q89.54 57.08 91.76 57.08L91.76 57.08Q93.95 57.08 95.57 58.05Q97.19 59.03 98.09 60.75Q98.99 62.48 98.99 64.76L98.99 64.76L98.99 66.05L88.16 66.05Q88.22 67.58 89.30 68.54Q90.38 69.50 91.94 69.50L91.94 69.50Q93.53 69.50 94.28 68.81Q95.03 68.12 95.42 67.28L95.42 67.28L98.51 68.90Q98.09 69.68 97.30 70.59Q96.50 71.51 95.18 72.16Q93.86 72.80 91.82 72.80ZM88.19 63.23L88.19 63.23L95.15 63.23Q95.03 61.94 94.12 61.16Q93.20 60.38 91.73 60.38L91.73 60.38Q90.20 60.38 89.30 61.16Q88.40 61.94 88.19 63.23Z M106.13 72.38L102.35 72.38L102.35 57.50L106.07 57.50L106.07 59.18L106.61 59.18Q106.94 58.28 107.71 57.86Q108.47 57.44 109.49 57.44L109.49 57.44L111.29 57.44L111.29 60.80L109.44 60.80Q107.99 60.80 107.06 61.56Q106.13 62.33 106.13 63.92L106.13 63.92L106.13 72.38Z M123.35 72.38L117.35 72.38L112.61 57.50L116.63 57.50L120.08 69.62L120.62 69.62L124.07 57.50L128.09 57.50L123.35 72.38Z M136.34 72.62L136.34 72.62Q134.60 72.62 133.30 71.82Q131.99 71.03 131.27 69.62Q130.55 68.21 130.55 66.38L130.55 66.38L130.55 57.50L134.33 57.50L134.33 66.08Q134.33 67.76 135.16 68.60Q135.98 69.44 137.51 69.44L137.51 69.44Q139.25 69.44 140.21 68.28Q141.17 67.13 141.17 65.06L141.17 65.06L141.17 57.50L144.95 57.50L144.95 72.38L141.23 72.38L141.23 70.43L140.69 70.43Q140.33 71.18 139.34 71.90Q138.35 72.62 136.34 72.62Z M155.33 72.80L155.33 72.80Q152.42 72.80 150.56 71.54Q148.70 70.28 148.31 67.94L148.31 67.94L151.79 67.04Q152.00 68.09 152.50 68.69Q152.99 69.29 153.73 69.55Q154.46 69.80 155.33 69.80L155.33 69.80Q156.65 69.80 157.28 69.33Q157.91 68.87 157.91 68.18L157.91 68.18Q157.91 67.49 157.31 67.11Q156.71 66.74 155.39 66.50L155.39 66.50L154.55 66.35Q152.99 66.05 151.70 65.52Q150.41 65 149.63 64.07Q148.85 63.14 148.85 61.67L148.85 61.67Q148.85 59.45 150.47 58.26Q152.09 57.08 154.73 57.08L154.73 57.08Q157.22 57.08 158.87 58.19Q160.52 59.30 161.03 61.10L161.03 61.10L157.52 62.18Q157.28 61.04 156.55 60.56Q155.81 60.08 154.73 60.08L154.73 60.08Q153.65 60.08 153.08 60.45Q152.51 60.83 152.51 61.49L152.51 61.49Q152.51 62.21 153.11 62.55Q153.71 62.90 154.73 63.08L154.73 63.08L155.57 63.23Q157.25 63.53 158.62 64.02Q159.98 64.52 160.78 65.44Q161.57 66.35 161.57 67.91L161.57 67.91Q161.57 70.25 159.88 71.52Q158.18 72.80 155.33 72.80Z" fill="#1d1c19"></path><path d="M65.80 105.98L59.80 105.98L55.06 91.10L59.08 91.10L62.53 103.22L63.07 103.22L66.52 91.10L70.54 91.10L65.80 105.98Z M80.20 106.40L80.20 106.40Q77.98 106.40 76.21 105.50Q74.44 104.60 73.42 102.89Q72.40 101.18 72.40 98.78L72.40 98.78L72.40 98.30Q72.40 95.90 73.42 94.19Q74.44 92.48 76.21 91.58Q77.98 90.68 80.20 90.68L80.20 90.68Q82.42 90.68 84.19 91.58Q85.96 92.48 86.98 94.19Q88 95.90 88 98.30L88 98.30L88 98.78Q88 101.18 86.98 102.89Q85.96 104.60 84.19 105.50Q82.42 106.40 80.20 106.40ZM80.20 103.04L80.20 103.04Q81.94 103.04 83.08 101.91Q84.22 100.79 84.22 98.69L84.22 98.69L84.22 98.39Q84.22 96.29 83.09 95.16Q81.97 94.04 80.20 94.04L80.20 94.04Q78.46 94.04 77.32 95.16Q76.18 96.29 76.18 98.39L76.18 98.39L76.18 98.69Q76.18 100.79 77.32 101.91Q78.46 103.04 80.20 103.04Z M95.26 105.98L91.48 105.98L91.48 91.10L95.20 91.10L95.20 92.72L95.74 92.72Q96.13 91.97 97.03 91.41Q97.93 90.86 99.40 90.86L99.40 90.86Q100.99 90.86 101.95 91.47Q102.91 92.09 103.42 93.08L103.42 93.08L103.96 93.08Q104.47 92.12 105.40 91.49Q106.33 90.86 108.04 90.86L108.04 90.86Q109.42 90.86 110.54 91.44Q111.67 92.03 112.34 93.21Q113.02 94.40 113.02 96.20L113.02 96.20L113.02 105.98L109.24 105.98L109.24 96.47Q109.24 95.24 108.61 94.62Q107.98 94.01 106.84 94.01L106.84 94.01Q105.55 94.01 104.84 94.83Q104.14 95.66 104.14 97.19L104.14 97.19L104.14 105.98L100.36 105.98L100.36 96.47Q100.36 95.24 99.73 94.62Q99.10 94.01 97.96 94.01L97.96 94.01Q96.67 94.01 95.96 94.83Q95.26 95.66 95.26 97.19L95.26 97.19L95.26 105.98Z  M131.89 106.40L131.89 106.40Q129.46 106.40 127.60 105.53Q125.74 104.66 124.69 103.04Q123.64 101.42 123.64 99.14L123.64 99.14L123.64 98.30L127.54 98.30L127.54 99.14Q127.54 101.03 128.71 101.97Q129.88 102.92 131.89 102.92L131.89 102.92Q133.93 102.92 134.94 102.11Q135.94 101.30 135.94 100.04L135.94 100.04Q135.94 99.17 135.44 98.63Q134.95 98.09 134.00 97.74Q133.06 97.40 131.71 97.10L131.71 97.10L131.02 96.95Q128.86 96.47 127.31 95.73Q125.77 95.00 124.95 93.80Q124.12 92.60 124.12 90.68L124.12 90.68Q124.12 88.76 125.04 87.39Q125.95 86.03 127.62 85.29Q129.28 84.56 131.53 84.56L131.53 84.56Q133.78 84.56 135.53 85.32Q137.29 86.09 138.30 87.60Q139.30 89.12 139.30 91.40L139.30 91.40L139.30 92.30L135.40 92.30L135.40 91.40Q135.40 90.20 134.94 89.46Q134.47 88.73 133.60 88.38Q132.73 88.04 131.53 88.04L131.53 88.04Q129.73 88.04 128.88 88.71Q128.02 89.39 128.02 90.56L128.02 90.56Q128.02 91.34 128.43 91.88Q128.83 92.42 129.64 92.78Q130.45 93.14 131.71 93.41L131.71 93.41L132.40 93.56Q134.65 94.04 136.31 94.79Q137.98 95.54 138.91 96.77Q139.84 98.00 139.84 99.92L139.84 99.92Q139.84 101.84 138.87 103.29Q137.89 104.75 136.11 105.57Q134.32 106.40 131.89 106.40Z M149.68 106.40L149.68 106.40Q147.46 106.40 145.77 105.45Q144.07 104.51 143.13 102.78Q142.18 101.06 142.18 98.72L142.18 98.72L142.18 98.36Q142.18 96.02 143.11 94.29Q144.04 92.57 145.72 91.62Q147.40 90.68 149.62 90.68L149.62 90.68Q151.81 90.68 153.43 91.65Q155.05 92.63 155.95 94.35Q156.85 96.08 156.85 98.36L156.85 98.36L156.85 99.65L146.02 99.65Q146.08 101.18 147.16 102.14Q148.24 103.10 149.80 103.10L149.80 103.10Q151.39 103.10 152.14 102.41Q152.89 101.72 153.28 100.88L153.28 100.88L156.37 102.50Q155.95 103.28 155.16 104.19Q154.36 105.11 153.04 105.75Q151.72 106.40 149.68 106.40ZM146.05 96.83L146.05 96.83L153.01 96.83Q152.89 95.54 151.98 94.76Q151.06 93.98 149.59 93.98L149.59 93.98Q148.06 93.98 147.16 94.76Q146.26 95.54 146.05 96.83Z M166.99 106.40L166.99 106.40Q164.77 106.40 163.08 105.45Q161.38 104.51 160.44 102.78Q159.49 101.06 159.49 98.72L159.49 98.72L159.49 98.36Q159.49 96.02 160.42 94.29Q161.35 92.57 163.03 91.62Q164.71 90.68 166.93 90.68L166.93 90.68Q169.12 90.68 170.74 91.65Q172.36 92.63 173.26 94.35Q174.16 96.08 174.16 98.36L174.16 98.36L174.16 99.65L163.33 99.65Q163.39 101.18 164.47 102.14Q165.55 103.10 167.11 103.10L167.11 103.10Q168.70 103.10 169.45 102.41Q170.20 101.72 170.59 100.88L170.59 100.88L173.68 102.50Q173.26 103.28 172.47 104.19Q171.67 105.11 170.35 105.75Q169.03 106.40 166.99 106.40ZM163.36 96.83L163.36 96.83L170.32 96.83Q170.20 95.54 169.29 94.76Q168.37 93.98 166.90 93.98L166.90 93.98Q165.37 93.98 164.47 94.76Q163.57 95.54 163.36 96.83Z" fill="#1d1c19"></path><svg x="25.43" y="161.00" width="175.14" height="90.00" viewBox="0 0 360 185" overflow="visible"><g fill="#1d1c19"><g transform="translate(64.98,0)"><path d="M22.88 133.59 L22.88 133.59 Q21.33 133.16 20.38 132.82 L20.38 132.82 L19.44 132.56 Q19.61 132.13 19.31 131.78 Q19.01 131.44 18.06 131.35 L18.06 131.35 Q16.77 130.49 15.39 128.95 Q14.02 127.40 12.99 125.76 Q11.95 124.13 11.61 123.36 L11.61 123.36 Q11.18 122.32 11.44 121.98 L11.44 121.98 Q11.52 121.81 11.70 121.72 L11.70 121.72 Q12.38 121.46 13.33 121.03 L13.33 121.03 Q14.28 120.35 15.35 120.00 Q16.43 119.66 17.11 121.12 L17.11 121.12 Q18.23 123.10 20.60 124.47 Q22.96 125.85 26.02 126.11 Q29.07 126.37 32.16 125.08 L32.16 125.08 Q34.23 124.13 34.40 122.45 Q34.57 120.78 33.11 118.54 L33.11 118.54 Q32.85 117.85 32.38 117.42 Q31.91 116.99 31.00 116.30 Q30.10 115.62 28.47 114.07 L28.47 114.07 Q27.18 113.47 26.10 112.95 Q25.03 112.43 23.82 111.83 L23.82 111.83 Q22.45 111.14 20.73 109.90 Q19.01 108.65 17.54 107.14 Q16.08 105.64 15.31 104.26 L15.31 104.26 Q13.93 102.97 13.59 100.69 Q13.24 98.42 13.72 95.84 Q14.19 93.26 15.31 91.19 L15.31 91.19 Q15.82 89.99 17.20 88.05 Q18.58 86.12 20.30 84.05 Q22.02 81.99 23.61 80.31 Q25.20 78.64 26.14 78.03 L26.14 78.03 Q26.83 77.35 27.61 76.57 L27.61 76.57 L28.38 75.88 Q28.47 75.45 28.72 75.45 L28.72 75.45 L28.90 75.45 Q29.33 75.20 30.79 74.59 Q32.25 73.99 33.97 72.36 L33.97 72.36 Q39.73 69.61 43.77 68.62 Q47.82 67.63 50.14 67.63 L50.14 67.63 Q52.29 67.71 54.35 68.79 Q56.42 69.86 57.92 71.50 Q59.43 73.13 59.68 75.20 L59.68 75.20 Q60.29 77.26 59.13 80.14 Q57.96 83.02 55.94 85.56 Q53.92 88.10 51.77 89.30 L51.77 89.30 Q49.36 90.33 47.69 89.56 Q46.01 88.78 46.10 87.15 L46.10 87.15 Q46.10 86.46 46.57 85.52 Q47.04 84.57 49.19 82.16 L49.19 82.16 Q51.94 78.12 52.12 76.40 Q52.29 74.68 50.57 74.42 L50.57 74.42 Q50.05 74.25 48.59 74.51 Q47.13 74.77 45.45 75.15 Q43.77 75.54 42.53 75.97 Q41.28 76.40 41.28 76.57 L41.28 76.57 L41.28 76.83 Q41.28 76.92 41.19 77.00 L41.19 77.00 Q41.19 77.09 40.94 77.00 L40.94 77.00 Q40.76 77.00 39.78 77.56 Q38.79 78.12 37.41 78.98 Q36.03 79.84 34.70 80.74 Q33.37 81.65 32.42 82.33 Q31.48 83.02 31.39 83.19 L31.39 83.19 Q31.22 84.14 29.41 84.91 L29.41 84.91 Q27.69 85.95 26.40 87.84 Q25.11 89.73 23.39 92.65 L23.39 92.65 Q21.93 94.63 21.33 96.91 Q20.73 99.19 21.33 100.57 L21.33 100.57 Q21.76 101.94 23.69 103.28 Q25.63 104.61 28.98 106.59 L28.98 106.59 Q31.91 108.22 34.49 110.03 Q37.07 111.83 38.87 113.51 Q40.68 115.19 41.19 116.30 L41.19 116.30 Q42.23 117.77 42.44 119.66 Q42.66 121.55 42.44 123.31 Q42.23 125.08 41.88 126.19 L41.88 126.19 Q41.28 127.57 40.03 129.12 Q38.79 130.67 37.75 130.58 L37.75 130.58 Q36.81 130.84 36.34 131.18 Q35.86 131.53 35.26 131.78 L35.26 131.78 Q34.66 132.13 32.42 132.60 Q30.19 133.07 27.52 133.38 Q24.85 133.68 22.88 133.59 Z M67.77 126.28 L67.77 126.28 Q65.19 127.74 62.31 127.96 Q59.43 128.17 56.93 127.18 Q54.44 126.19 52.89 124.22 L52.89 124.22 Q52.03 123.10 51.26 120.65 Q50.48 118.20 51.00 113.98 L51.00 113.98 Q51.51 110.03 53.45 105.98 Q55.38 101.94 58.22 98.85 Q61.06 95.75 64.41 94.63 L64.41 94.63 Q65.62 94.20 66.86 93.99 Q68.11 93.77 70.18 93.94 L70.18 93.94 Q72.15 94.20 73.70 94.93 Q75.25 95.66 75.94 96.52 L75.94 96.52 Q77.31 97.90 77.74 99.19 Q78.17 100.48 78.09 101.68 L78.09 101.68 Q77.66 104.44 75.64 107.62 Q73.62 110.80 70.00 112.35 L70.00 112.35 Q68.54 112.95 66.56 113.12 Q64.59 113.29 61.15 112.61 L61.15 112.61 Q59.08 112.18 58.44 113.04 Q57.79 113.90 57.88 116.39 L57.88 116.39 Q58.05 117.94 58.61 119.10 Q59.17 120.26 60.72 120.69 L60.72 120.69 Q62.69 121.03 63.55 120.73 Q64.41 120.43 65.70 119.83 L65.70 119.83 Q66.39 119.40 67.08 118.88 L67.08 118.88 L68.37 117.85 Q68.97 117.34 69.40 117.08 L69.40 117.08 Q69.83 116.73 70.26 116.65 Q70.69 116.56 71.12 116.56 L71.12 116.56 Q72.07 116.65 72.93 117.59 Q73.79 118.54 74.05 119.40 L74.05 119.40 Q74.05 120.09 73.19 121.33 Q72.33 122.58 70.91 123.92 Q69.49 125.25 67.77 126.28 Z M66.65 107.10 L66.65 107.10 Q67.25 106.84 68.41 105.90 Q69.57 104.95 70.52 103.88 Q71.47 102.80 71.47 102.20 L71.47 102.20 Q71.47 101.25 70.22 100.57 Q68.97 99.88 66.99 100.31 L66.99 100.31 Q66.31 100.48 65.36 101.25 Q64.41 102.03 63.47 103.02 Q62.52 104.01 61.83 104.91 Q61.15 105.81 60.89 106.33 L60.89 106.33 Q61.23 106.76 62.26 107.02 Q63.30 107.27 64.54 107.27 Q65.79 107.27 66.65 107.10 Z M96.49 126.28 L96.49 126.28 Q93.91 127.74 91.03 127.96 Q88.15 128.17 85.66 127.18 Q83.16 126.19 81.61 124.22 L81.61 124.22 Q80.75 123.10 79.98 120.65 Q79.21 118.20 79.72 113.98 L79.72 113.98 Q80.24 110.03 82.17 105.98 Q84.11 101.94 86.95 98.85 Q89.78 95.75 93.14 94.63 L93.14 94.63 Q94.34 94.20 95.59 93.99 Q96.84 93.77 98.90 93.94 L98.90 93.94 Q100.88 94.20 102.43 94.93 Q103.97 95.66 104.66 96.52 L104.66 96.52 Q106.04 97.90 106.47 99.19 Q106.90 100.48 106.81 101.68 L106.81 101.68 Q106.38 104.44 104.36 107.62 Q102.34 110.80 98.73 112.35 L98.73 112.35 Q97.27 112.95 95.29 113.12 Q93.31 113.29 89.87 112.61 L89.87 112.61 Q87.81 112.18 87.16 113.04 Q86.52 113.90 86.60 116.39 L86.60 116.39 Q86.77 117.94 87.33 119.10 Q87.89 120.26 89.44 120.69 L89.44 120.69 Q91.42 121.03 92.28 120.73 Q93.14 120.43 94.43 119.83 L94.43 119.83 Q95.12 119.40 95.80 118.88 L95.80 118.88 L97.09 117.85 Q97.70 117.34 98.13 117.08 L98.13 117.08 Q98.56 116.73 98.99 116.65 Q99.42 116.56 99.85 116.56 L99.85 116.56 Q100.79 116.65 101.65 117.59 Q102.51 118.54 102.77 119.40 L102.77 119.40 Q102.77 120.09 101.91 121.33 Q101.05 122.58 99.63 123.92 Q98.21 125.25 96.49 126.28 Z M95.37 107.10 L95.37 107.10 Q95.98 106.84 97.14 105.90 Q98.30 104.95 99.24 103.88 Q100.19 102.80 100.19 102.20 L100.19 102.20 Q100.19 101.25 98.94 100.57 Q97.70 99.88 95.72 100.31 L95.72 100.31 Q95.03 100.48 94.08 101.25 Q93.14 102.03 92.19 103.02 Q91.25 104.01 90.56 104.91 Q89.87 105.81 89.61 106.33 L89.61 106.33 Q89.96 106.76 90.99 107.02 Q92.02 107.27 93.27 107.27 Q94.51 107.27 95.37 107.10 Z M118.42 145.20 L118.42 145.20 Q116.01 146.15 113.39 144.90 Q110.77 143.65 108.88 140.99 L108.88 140.99 Q108.53 140.47 107.84 139.14 Q107.16 137.80 106.51 136.26 Q105.87 134.71 105.56 133.59 Q105.26 132.47 105.52 132.30 L105.52 132.30 Q105.87 131.35 107.07 131.18 Q108.27 131.01 109.48 131.31 Q110.68 131.61 110.85 132.13 L110.85 132.13 Q111.11 132.73 111.37 133.38 Q111.63 134.02 112.01 134.58 Q112.40 135.14 112.75 135.57 L112.75 135.57 Q113.69 137.03 114.81 137.59 Q115.93 138.15 116.53 137.72 L116.53 137.72 Q117.99 136.60 118.72 135.09 Q119.45 133.59 120.66 129.81 L120.66 129.81 Q121.60 126.62 122.29 124.30 Q122.98 121.98 123.75 120.00 L123.75 120.00 Q124.01 118.97 124.44 118.20 L124.44 118.20 Q124.53 118.02 124.61 117.85 L124.61 117.85 Q123.41 118.71 122.46 119.57 L122.46 119.57 Q121.17 120.78 118.94 121.72 L118.94 121.72 Q118.42 122.32 116.40 122.45 Q114.38 122.58 112.49 121.98 L112.49 121.98 Q111.28 121.29 110.55 120.56 Q109.82 119.83 109.35 118.88 Q108.88 117.94 108.36 116.65 L108.36 116.65 Q107.76 115.36 108.19 112.43 Q108.62 109.51 109.74 106.59 L109.74 106.59 Q110.77 104.44 112.75 101.94 Q114.72 99.45 116.96 97.43 Q119.20 95.41 121.00 94.89 L121.00 94.89 Q121.69 94.55 123.41 94.07 Q125.13 93.60 126.68 94.03 L126.68 94.03 Q128.14 94.20 128.91 94.67 Q129.69 95.15 131.41 96.61 L131.41 96.61 Q132.53 97.73 134.16 99.49 Q135.79 101.25 136.22 102.46 L136.22 102.46 Q136.83 103.75 136.48 105.25 Q136.14 106.76 135.28 107.88 L135.28 107.88 Q134.50 108.99 133.64 110.11 Q132.78 111.23 132.35 113.21 L132.35 113.21 Q131.92 115.79 130.72 119.01 Q129.52 122.24 128.83 124.99 L128.83 124.99 L127.45 130.32 Q125.30 137.63 122.72 140.94 Q120.14 144.25 118.42 145.20 Z M116.62 115.62 L116.62 115.62 Q118.34 115.53 119.58 115.23 Q120.83 114.93 121.95 113.85 Q123.07 112.78 124.53 110.54 L124.53 110.54 Q125.99 108.48 126.59 106.76 Q127.19 105.04 127.02 102.89 L127.02 102.89 Q126.94 101.51 126.25 101.08 Q125.56 100.65 124.44 100.82 L124.44 100.82 Q122.81 101.08 121.52 102.16 Q120.23 103.23 118.51 105.47 L118.51 105.47 Q117.22 107.19 116.36 109.60 L116.36 109.60 Q115.50 112.18 115.63 113.72 Q115.76 115.27 116.62 115.62 Z M143.88 138.41 L143.88 138.41 Q143.36 138.75 141.56 137.59 Q139.75 136.43 138.55 135.05 L138.55 135.05 Q137.94 134.36 137.77 133.59 Q137.60 132.82 137.86 130.67 L137.86 130.67 Q138.20 129.72 138.24 128.86 Q138.29 128.00 138.29 127.66 L138.29 127.66 Q138.29 127.14 138.59 125.25 Q138.89 123.36 139.23 121.25 Q139.58 119.14 139.84 118.02 L139.84 118.02 Q139.84 117.94 139.96 117.42 Q140.09 116.91 140.18 116.65 L140.18 116.65 Q140.35 115.87 140.61 114.76 Q140.87 113.64 141.13 111.75 L141.13 111.75 Q141.81 109.60 142.29 107.49 Q142.76 105.38 142.76 104.61 L142.76 104.61 Q142.76 103.06 143.96 102.37 L143.96 102.37 Q144.05 101.94 144.48 101.04 Q144.91 100.14 145.25 99.53 L145.25 99.53 Q146.97 94.63 148.09 91.71 Q149.21 88.78 150.41 86.63 L150.41 86.63 Q150.93 85.17 151.57 83.62 Q152.22 82.08 152.91 81.22 L152.91 81.22 Q153.51 80.01 155.01 78.25 Q156.52 76.49 158.24 74.85 Q159.96 73.22 160.99 72.44 L160.99 72.44 Q162.88 71.50 164.52 70.90 Q166.15 70.29 167.96 70.29 L167.96 70.29 Q169.59 70.29 170.84 71.03 Q172.09 71.76 174.58 73.99 L174.58 73.99 Q175.44 75.11 175.44 76.14 Q175.44 77.17 175.01 77.86 L175.01 77.86 Q174.41 79.24 173.20 81.26 Q172.00 83.28 170.88 84.87 Q169.76 86.46 169.25 86.55 L169.25 86.55 Q168.22 87.15 167.10 86.89 Q165.98 86.63 165.98 85.34 L165.98 85.34 Q165.98 84.74 166.07 84.23 L166.07 84.23 L166.07 83.71 Q166.32 82.59 166.71 81.73 Q167.10 80.87 167.44 80.27 L167.44 80.27 Q168.13 79.15 167.83 78.12 Q167.53 77.09 165.64 77.26 L165.64 77.26 Q165.38 77.43 164.65 78.08 Q163.92 78.72 163.10 79.54 Q162.28 80.36 161.68 81.09 Q161.08 81.82 161.08 82.08 L161.08 82.08 L160.65 82.94 Q160.13 83.88 159.19 85.00 L159.19 85.00 Q158.58 85.86 158.15 86.63 Q157.72 87.41 157.72 87.84 L157.72 87.84 Q157.72 88.18 157.64 88.44 Q157.55 88.70 157.21 88.70 L157.21 88.70 L156.95 89.56 Q156.61 90.42 155.92 91.62 L155.92 91.62 Q155.57 92.48 155.19 93.21 Q154.80 93.94 154.46 94.29 L154.46 94.29 L154.37 94.46 L154.03 95.41 Q153.60 96.44 153.17 97.47 Q152.74 98.50 152.74 98.67 L152.74 98.67 Q152.74 99.02 153.77 99.02 Q154.80 99.02 156.26 98.72 Q157.72 98.42 159.10 98.07 L159.10 98.07 Q160.30 97.73 160.82 97.73 Q161.34 97.73 162.45 98.07 L162.45 98.07 Q163.14 98.50 163.57 99.58 Q164.00 100.65 164.22 101.73 Q164.43 102.80 164.26 103.32 L164.26 103.32 Q164.17 103.66 162.32 104.26 Q160.48 104.87 158.67 105.21 L158.67 105.21 Q157.12 105.55 155.19 105.94 Q153.25 106.33 151.79 106.72 Q150.33 107.10 150.24 107.45 L150.24 107.45 Q149.90 107.45 149.68 107.88 Q149.47 108.31 149.47 108.65 L149.47 108.65 Q149.47 109.77 149.04 110.46 L149.04 110.46 Q148.87 110.97 148.48 112.56 Q148.09 114.15 147.70 116.00 Q147.32 117.85 147.02 119.44 Q146.72 121.03 146.72 121.55 L146.72 121.55 Q146.20 122.15 146.11 123.06 Q146.03 123.96 146.03 124.65 L146.03 124.65 Q145.68 125.33 145.60 125.89 Q145.51 126.45 145.51 126.80 L145.51 126.80 L145.51 127.14 Q145.51 127.40 145.43 127.66 L145.43 127.66 Q145.34 128.52 145.21 129.94 Q145.08 131.35 145.08 132.73 L145.08 132.73 L144.82 135.22 Q144.74 136.34 144.52 137.16 Q144.31 137.98 143.88 138.41 Z M186.02 127.83 L186.02 127.83 Q185.16 126.97 184.64 125.46 Q184.13 123.96 183.61 121.98 L183.61 121.98 Q183.44 121.29 183.48 120.43 Q183.52 119.57 183.44 119.06 L183.44 119.06 Q183.18 119.66 182.62 120.60 Q182.06 121.55 181.55 121.98 L181.55 121.98 Q181.20 122.32 180.00 123.31 Q178.79 124.30 177.59 124.90 L177.59 124.90 Q174.75 126.71 172.56 126.58 Q170.37 126.45 168.73 124.39 L168.73 124.39 Q167.36 123.27 166.50 121.55 Q165.64 119.83 166.15 117.42 L166.15 117.42 Q166.32 114.41 167.01 111.53 Q167.70 108.65 169.85 103.83 L169.85 103.83 Q171.66 100.31 172.60 98.33 Q173.55 96.35 173.81 96.01 L173.81 96.01 Q175.10 95.58 176.99 96.05 Q178.88 96.52 179.05 97.73 L179.05 97.73 Q179.57 98.59 179.05 100.95 Q178.54 103.32 176.99 106.33 L176.99 106.33 Q175.78 109.25 174.71 112.00 Q173.63 114.76 173.42 116.65 Q173.20 118.54 174.41 118.97 L174.41 118.97 Q175.18 119.40 176.69 118.88 Q178.19 118.37 180.26 115.79 Q182.32 113.21 184.64 107.62 L184.64 107.62 Q185.33 105.90 185.67 104.56 Q186.02 103.23 186.10 101.60 L186.10 101.60 Q185.93 100.57 186.66 99.45 Q187.39 98.33 188.43 97.73 L188.43 97.73 Q188.77 97.30 189.37 96.87 L189.37 96.87 Q189.80 96.61 189.97 96.78 L189.97 96.78 Q190.06 96.78 190.15 96.95 L190.15 96.95 L191.52 96.87 Q191.87 96.78 192.30 97.56 Q192.73 98.33 193.16 98.67 L193.16 98.67 Q194.10 99.45 194.02 102.03 Q193.93 104.61 191.95 109.25 L191.95 109.25 Q190.32 112.78 189.76 114.58 Q189.20 116.39 189.11 118.11 L189.11 118.11 Q189.11 119.66 189.37 120.73 Q189.63 121.81 190.92 122.93 L190.92 122.93 Q191.87 123.53 191.99 124.95 Q192.12 126.37 192.04 127.40 L192.04 127.40 Q191.87 128.17 190.70 128.47 Q189.54 128.77 188.21 128.60 Q186.88 128.43 186.02 127.83 Z M197.80 126.54 L197.80 126.54 Q197.11 125.85 196.81 124.47 Q196.51 123.10 196.60 121.77 Q196.68 120.43 197.03 119.74 L197.03 119.74 Q197.03 119.06 197.24 118.67 Q197.46 118.28 197.37 117.94 L197.37 117.94 Q197.28 117.59 197.54 116.73 Q197.80 115.87 198.06 115.10 L198.06 115.10 Q198.66 113.72 199.43 111.53 Q200.21 109.34 200.98 107.06 Q201.76 104.78 202.27 103.10 Q202.79 101.43 202.87 101.08 L202.87 101.08 Q202.87 100.05 204.25 99.96 L204.25 99.96 Q205.28 99.62 206.74 100.82 Q208.21 102.03 209.07 103.40 L209.07 103.40 Q209.75 104.09 209.58 105.21 Q209.41 106.33 208.46 108.39 L208.46 108.39 Q208.12 109.08 207.65 110.67 Q207.17 112.26 207.00 113.29 L207.00 113.29 Q206.66 113.98 206.18 115.23 Q205.71 116.48 205.37 117.59 L205.37 117.59 Q205.20 118.02 205.02 119.19 Q204.85 120.35 204.59 121.55 Q204.34 122.75 203.91 123.44 L203.91 123.44 Q203.13 126.97 201.20 127.57 Q199.26 128.17 197.80 126.54 Z " fill="#1d1c19"></path><defs><mask id="hm2" maskUnits="userSpaceOnUse"><path d="M0,3 C0,-3 -9,-6 -9,-13 C-9,-19 -2,-20 0,-14 C2,-20 9,-19 9,-13 C9,-6 0,-3 0,3 Z" fill="#fff"></path><path d="M-7.5,-8 q2.5,-3.4 5,0 t5,0 t5,0" fill="none" stroke="#000" stroke-width="2.1" stroke-linecap="round"></path></mask></defs><g transform="translate(210.40,95.23) rotate(12) scale(0.940)"><path d="M0,3 C0,-3 -9,-6 -9,-13 C-9,-19 -2,-20 0,-14 C2,-20 9,-19 9,-13 C9,-6 0,-3 0,3 Z" fill="#d23b34" mask="url(#hm2)"></path></g></g></g></svg><path d="M16.90 304.32L16.90 304.32Q15.94 304.32 15.20 303.98Q14.46 303.64 14.04 302.99Q13.62 302.34 13.62 301.40L13.62 301.40L13.62 301.09L15.05 301.09L15.05 301.40Q15.05 302.23 15.55 302.64Q16.06 303.05 16.90 303.05L16.90 303.05Q17.75 303.05 18.18 302.70Q18.61 302.35 18.61 301.80L18.61 301.80Q18.61 301.43 18.41 301.19Q18.20 300.96 17.81 300.82Q17.42 300.67 16.87 300.54L16.87 300.54L16.51 300.47Q15.68 300.28 15.08 299.98Q14.47 299.69 14.15 299.22Q13.82 298.75 13.82 298.00L13.82 298.00Q13.82 297.24 14.18 296.70Q14.54 296.16 15.20 295.87Q15.86 295.58 16.75 295.58L16.75 295.58Q17.64 295.58 18.34 295.88Q19.03 296.18 19.43 296.78Q19.84 297.38 19.84 298.28L19.84 298.28L19.84 298.68L18.41 298.68L18.41 298.28Q18.41 297.77 18.20 297.46Q18.00 297.14 17.63 297Q17.26 296.86 16.75 296.86L16.75 296.86Q16.01 296.86 15.62 297.14Q15.24 297.43 15.24 297.96L15.24 297.96Q15.24 298.30 15.41 298.53Q15.59 298.76 15.93 298.91Q16.27 299.06 16.79 299.17L16.79 299.17L17.15 299.26Q18.01 299.45 18.66 299.74Q19.31 300.04 19.67 300.52Q20.04 301.00 20.04 301.76L20.04 301.76Q20.04 302.52 19.65 303.10Q19.26 303.67 18.56 304.00Q17.86 304.32 16.90 304.32Z M31.72 304.15L30.28 304.15L30.28 297.06L27.77 297.06L27.77 295.75L34.23 295.75L34.23 297.06L31.72 297.06L31.72 304.15Z M43.26 304.15L41.77 304.15L44.07 295.75L46.58 295.75L48.88 304.15L47.40 304.15L46.89 302.23L43.76 302.23L43.26 304.15ZM45.22 296.65L44.10 300.91L46.56 300.91L45.43 296.65L45.22 296.65Z M58.40 304.15L56.95 304.15L56.95 295.75L60.54 295.75Q61.33 295.75 61.92 296.03Q62.51 296.30 62.84 296.80Q63.17 297.30 63.17 298.00L63.17 298.00L63.17 298.13Q63.17 298.91 62.80 299.38Q62.42 299.84 61.90 300.06L61.90 300.06L61.90 300.25Q62.36 300.28 62.63 300.58Q62.90 300.88 62.90 301.38L62.90 301.38L62.90 304.15L61.46 304.15L61.46 301.58Q61.46 301.28 61.30 301.10Q61.14 300.91 60.78 300.91L60.78 300.91L58.40 300.91L58.40 304.15ZM58.40 297.06L58.40 299.60L60.40 299.60Q61.02 299.60 61.37 299.27Q61.73 298.94 61.73 298.39L61.73 298.39L61.73 298.28Q61.73 297.72 61.38 297.39Q61.03 297.06 60.40 297.06L60.40 297.06L58.40 297.06Z M72.96 304.15L71.54 304.15L71.54 295.75L74.30 295.75L76.28 303.18L76.47 303.18L76.47 295.75L77.90 295.75L77.90 304.15L75.15 304.15L73.17 296.72L72.96 296.72L72.96 304.15Z M90.61 304.15L86.28 304.15L86.28 302.88L87.40 302.88L87.40 297.02L86.28 297.02L86.28 295.75L90.57 295.75Q91.33 295.75 91.90 296.01Q92.47 296.27 92.79 296.74Q93.10 297.22 93.10 297.88L93.10 297.88L93.10 297.98Q93.10 298.56 92.89 298.93Q92.67 299.30 92.37 299.51Q92.07 299.71 91.80 299.80L91.80 299.80L91.80 300Q92.07 300.07 92.39 300.27Q92.71 300.47 92.93 300.85Q93.15 301.22 93.15 301.82L93.15 301.82L93.15 301.94Q93.15 302.63 92.82 303.13Q92.49 303.62 91.92 303.89Q91.35 304.15 90.61 304.15L90.61 304.15ZM88.84 300.58L88.84 302.84L90.44 302.84Q91.02 302.84 91.36 302.56Q91.70 302.28 91.70 301.76L91.70 301.76L91.70 301.66Q91.70 301.14 91.36 300.86Q91.03 300.58 90.44 300.58L90.44 300.58L88.84 300.58ZM88.84 297.06L88.84 299.27L90.43 299.27Q90.98 299.27 91.32 298.99Q91.66 298.72 91.66 298.22L91.66 298.22L91.66 298.10Q91.66 297.61 91.32 297.34Q90.98 297.06 90.43 297.06L90.43 297.06L88.84 297.06Z M106.92 304.15L101.51 304.15L101.51 295.75L106.86 295.75L106.86 297.06L102.96 297.06L102.96 299.27L106.52 299.27L106.52 300.58L102.96 300.58L102.96 302.84L106.92 302.84L106.92 304.15Z M116.63 304.15L115.18 304.15L115.18 295.75L118.77 295.75Q119.56 295.75 120.15 296.03Q120.74 296.30 121.07 296.80Q121.40 297.30 121.40 298.00L121.40 298.00L121.40 298.13Q121.40 298.91 121.02 299.38Q120.65 299.84 120.12 300.06L120.12 300.06L120.12 300.25Q120.59 300.28 120.86 300.58Q121.13 300.88 121.13 301.38L121.13 301.38L121.13 304.15L119.69 304.15L119.69 301.58Q119.69 301.28 119.53 301.10Q119.37 300.91 119.01 300.91L119.01 300.91L116.63 300.91L116.63 304.15ZM116.63 297.06L116.63 299.60L118.62 299.60Q119.25 299.60 119.60 299.27Q119.96 298.94 119.96 298.39L119.96 298.39L119.96 298.28Q119.96 297.72 119.61 297.39Q119.26 297.06 118.62 297.06L118.62 297.06L116.63 297.06Z M132.68 304.32L132.68 304.32Q131.79 304.32 131.09 303.93Q130.39 303.54 129.97 302.79Q129.56 302.04 129.56 300.95L129.56 300.95L129.56 298.96Q129.56 297.32 130.47 296.45Q131.38 295.58 132.92 295.58L132.92 295.58Q134.46 295.58 135.28 296.41Q136.11 297.23 136.11 298.62L136.11 298.62L136.11 298.67L134.70 298.67L134.70 298.57Q134.70 298.09 134.50 297.71Q134.31 297.32 133.92 297.10Q133.52 296.88 132.92 296.88L132.92 296.88Q132.03 296.88 131.52 297.43Q131.01 297.97 131.01 298.93L131.01 298.93L131.01 300.97Q131.01 301.92 131.52 302.48Q132.03 303.05 132.94 303.05L132.94 303.05Q133.86 303.05 134.28 302.56Q134.70 302.06 134.70 301.30L134.70 301.30L134.70 301.15L132.57 301.15L132.57 299.93L136.11 299.93L136.11 304.15L134.79 304.15L134.79 303.32L134.59 303.32Q134.49 303.54 134.29 303.77Q134.08 304.01 133.71 304.16Q133.33 304.32 132.68 304.32Z M150.11 304.15L144.70 304.15L144.70 295.75L150.05 295.75L150.05 297.06L146.15 297.06L146.15 299.27L149.71 299.27L149.71 300.58L146.15 300.58L146.15 302.84L150.11 302.84L150.11 304.15Z M159.82 304.15L158.37 304.15L158.37 295.75L161.96 295.75Q162.75 295.75 163.34 296.03Q163.92 296.30 164.25 296.80Q164.58 297.30 164.58 298.00L164.58 298.00L164.58 298.13Q164.58 298.91 164.21 299.38Q163.84 299.84 163.31 300.06L163.31 300.06L163.31 300.25Q163.78 300.28 164.05 300.58Q164.32 300.88 164.32 301.38L164.32 301.38L164.32 304.15L162.88 304.15L162.88 301.58Q162.88 301.28 162.72 301.10Q162.56 300.91 162.20 300.91L162.20 300.91L159.82 300.91L159.82 304.15ZM159.82 297.06L159.82 299.60L161.81 299.60Q162.44 299.60 162.79 299.27Q163.14 298.94 163.14 298.39L163.14 298.39L163.14 298.28Q163.14 297.72 162.80 297.39Q162.45 297.06 161.81 297.06L161.81 297.06L159.82 297.06Z  M185.90 304.32L185.90 304.32Q184.94 304.32 184.21 303.98Q183.47 303.64 183.05 302.99Q182.63 302.34 182.63 301.40L182.63 301.40L182.63 301.09L184.06 301.09L184.06 301.40Q184.06 302.23 184.56 302.64Q185.06 303.05 185.90 303.05L185.90 303.05Q186.76 303.05 187.19 302.70Q187.62 302.35 187.62 301.80L187.62 301.80Q187.62 301.43 187.42 301.19Q187.21 300.96 186.82 300.82Q186.43 300.67 185.88 300.54L185.88 300.54L185.52 300.47Q184.69 300.28 184.09 299.98Q183.48 299.69 183.16 299.22Q182.83 298.75 182.83 298.00L182.83 298.00Q182.83 297.24 183.19 296.70Q183.55 296.16 184.21 295.87Q184.87 295.58 185.76 295.58L185.76 295.58Q186.65 295.58 187.34 295.88Q188.04 296.18 188.44 296.78Q188.84 297.38 188.84 298.28L188.84 298.28L188.84 298.68L187.42 298.68L187.42 298.28Q187.42 297.77 187.21 297.46Q187.01 297.14 186.64 297Q186.26 296.86 185.76 296.86L185.76 296.86Q185.02 296.86 184.63 297.14Q184.25 297.43 184.25 297.96L184.25 297.96Q184.25 298.30 184.42 298.53Q184.60 298.76 184.94 298.91Q185.28 299.06 185.80 299.17L185.80 299.17L186.16 299.26Q187.02 299.45 187.67 299.74Q188.32 300.04 188.68 300.52Q189.05 301.00 189.05 301.76L189.05 301.76Q189.05 302.52 188.66 303.10Q188.27 303.67 187.57 304.00Q186.86 304.32 185.90 304.32Z M202.72 304.15L197.31 304.15L197.31 295.75L202.66 295.75L202.66 297.06L198.76 297.06L198.76 299.27L202.32 299.27L202.32 300.58L198.76 300.58L198.76 302.84L202.72 302.84L202.72 304.15Z M216.39 304.15L210.98 304.15L210.98 295.75L216.33 295.75L216.33 297.06L212.43 297.06L212.43 299.27L216.00 299.27L216.00 300.58L212.43 300.58L212.43 302.84L216.39 302.84L216.39 304.15Z" fill="#2f7d8a"></path></svg>