<svg xmlns="http://www.w3.org/2000/svg" width="360" height="330" viewBox="0 0 360 330"><g transform="translate(180,165) scale(1.92)"><path d="M26.6,15.6 L23.3,9.6 L24.9,5.6 L23.4,3 L19.7,2.1 L14.4,7 L13.1,5.4 L11.2,5.8 L9.4,2 L6.3,1.2 L1.8,-9.1 L-2.9,-41.5 L3.9,-62.7 L2.4,-72.7 L0.6,-75 L-4.9,-74.9 L-12.4,-67.5 L-16.6,-67.1 L-22,-57.2 L-21.6,-53 L-24.3,-47.3 L-23.7,-41.3 L-25.6,-36.4 L-24.6,-30.6 L-25.8,-26.6 L-23.8,-21.8 L-26.6,-12.8 L-26,-9.3 L-22.8,-5.3 L-25.1,0.3 L-23.1,20.5 L-24.3,26.8 L-20.4,36.9 L-20.7,40.6 L-16.7,48.4 L-18.3,54.5 L-17.2,59.2 L-12,60.7 L-10.4,65.3 L-7.5,69.5 L-3,73.5 L2,75 L7,73 L10.5,69.5 L12.3,66.1 L11.7,33.9 L16.2,25.7 L26.6,16.1 Z" fill="none" stroke="#cf9cbc" stroke-width="1.667" stroke-linejoin="round" stroke-linecap="round" opacity="0.3"></path></g><g transform="translate(72.170,171)"><path d="M21.812 5.330L21.812 5.330Q20.336 4.920 19.434 4.592L19.434 4.592L18.532 4.346Q18.696 3.936 18.409 3.608Q18.122 3.280 17.220 3.198L17.220 3.198Q15.990 2.378 14.678 0.902Q13.366-0.574 12.382-2.132Q11.398-3.690 11.070-4.428L11.070-4.428Q10.660-5.412 10.906-5.740L10.906-5.740Q10.988-5.904 11.152-5.986L11.152-5.986Q11.808-6.232 12.710-6.642L12.710-6.642Q13.612-7.298 14.637-7.626Q15.662-7.954 16.318-6.560L16.318-6.560Q17.384-4.674 19.639-3.362Q21.894-2.050 24.805-1.804Q27.716-1.558 30.668-2.788L30.668-2.788Q32.636-3.690 32.800-5.289Q32.964-6.888 31.570-9.020L31.570-9.020Q31.324-9.676 30.873-10.086Q30.422-10.496 29.561-11.152Q28.700-11.808 27.142-13.284L27.142-13.284Q25.912-13.858 24.887-14.350Q23.862-14.842 22.714-15.416L22.714-15.416Q21.402-16.072 19.762-17.261Q18.122-18.450 16.728-19.885Q15.334-21.320 14.596-22.632L14.596-22.632Q13.284-23.862 12.956-26.035Q12.628-28.208 13.079-30.668Q13.530-33.128 14.596-35.096L14.596-35.096Q15.088-36.244 16.400-38.089Q17.712-39.934 19.352-41.902Q20.992-43.870 22.509-45.469Q24.026-47.068 24.928-47.642L24.928-47.642Q25.584-48.298 26.322-49.036L26.322-49.036L27.060-49.692Q27.142-50.102 27.388-50.102L27.388-50.102L27.552-50.102Q27.962-50.348 29.356-50.922Q30.750-51.496 32.390-53.054L32.390-53.054Q37.884-55.678 41.738-56.621Q45.592-57.564 47.806-57.564L47.806-57.564Q49.856-57.482 51.824-56.457Q53.792-55.432 55.227-53.874Q56.662-52.316 56.908-50.348L56.908-50.348Q57.482-48.380 56.375-45.633Q55.268-42.886 53.341-40.467Q51.414-38.048 49.364-36.900L49.364-36.900Q47.068-35.916 45.469-36.654Q43.870-37.392 43.952-38.950L43.952-38.950Q43.952-39.606 44.403-40.508Q44.854-41.410 46.904-43.706L46.904-43.706Q49.528-47.560 49.692-49.200Q49.856-50.840 48.216-51.086L48.216-51.086Q47.724-51.250 46.330-51.004Q44.936-50.758 43.337-50.389Q41.738-50.020 40.549-49.610Q39.360-49.200 39.360-49.036L39.360-49.036L39.360-48.790Q39.360-48.708 39.278-48.626L39.278-48.626Q39.278-48.544 39.032-48.626L39.032-48.626Q38.868-48.626 37.925-48.093Q36.982-47.560 35.670-46.740Q34.358-45.920 33.087-45.059Q31.816-44.198 30.914-43.542Q30.012-42.886 29.930-42.722L29.930-42.722Q29.766-41.820 28.044-41.082L28.044-41.082Q26.404-40.098 25.174-38.294Q23.944-36.490 22.304-33.702L22.304-33.702Q20.910-31.816 20.336-29.643Q19.762-27.470 20.336-26.158L20.336-26.158Q20.746-24.846 22.591-23.575Q24.436-22.304 27.634-20.418L27.634-20.418Q30.422-18.860 32.882-17.138Q35.342-15.416 37.064-13.817Q38.786-12.218 39.278-11.152L39.278-11.152Q40.262-9.758 40.467-7.954Q40.672-6.150 40.467-4.469Q40.262-2.788 39.934-1.722L39.934-1.722Q39.360-0.410 38.171 1.066Q36.982 2.542 35.998 2.460L35.998 2.460Q35.096 2.706 34.645 3.034Q34.194 3.362 33.620 3.608L33.620 3.608Q33.046 3.936 30.914 4.387Q28.782 4.838 26.240 5.125Q23.698 5.412 21.812 5.330Z M64.616-1.640L64.616-1.640Q62.156-0.246 59.409-0.041Q56.662 0.164 54.284-0.779Q51.906-1.722 50.430-3.608L50.430-3.608Q49.610-4.674 48.872-7.011Q48.134-9.348 48.626-13.366L48.626-13.366Q49.118-17.138 50.963-20.992Q52.808-24.846 55.514-27.798Q58.220-30.750 61.418-31.816L61.418-31.816Q62.566-32.226 63.755-32.431Q64.944-32.636 66.912-32.472L66.912-32.472Q68.798-32.226 70.274-31.529Q71.750-30.832 72.406-30.012L72.406-30.012Q73.718-28.700 74.128-27.470Q74.538-26.240 74.456-25.092L74.456-25.092Q74.046-22.468 72.119-19.434Q70.192-16.400 66.748-14.924L66.748-14.924Q65.354-14.350 63.468-14.186Q61.582-14.022 58.302-14.678L58.302-14.678Q56.334-15.088 55.719-14.268Q55.104-13.448 55.186-11.070L55.186-11.070Q55.350-9.594 55.883-8.487Q56.416-7.380 57.892-6.970L57.892-6.970Q59.778-6.642 60.598-6.929Q61.418-7.216 62.648-7.790L62.648-7.790Q63.304-8.200 63.960-8.692L63.960-8.692L65.190-9.676Q65.764-10.168 66.174-10.414L66.174-10.414Q66.584-10.742 66.994-10.824Q67.404-10.906 67.814-10.906L67.814-10.906Q68.716-10.824 69.536-9.922Q70.356-9.020 70.602-8.200L70.602-8.200Q70.602-7.544 69.782-6.355Q68.962-5.166 67.609-3.895Q66.256-2.624 64.616-1.640ZM63.550-19.926L63.550-19.926Q64.124-20.172 65.231-21.074Q66.338-21.976 67.240-23.001Q68.142-24.026 68.142-24.600L68.142-24.600Q68.142-25.502 66.953-26.158Q65.764-26.814 63.878-26.404L63.878-26.404Q63.222-26.240 62.320-25.502Q61.418-24.764 60.516-23.821Q59.614-22.878 58.958-22.017Q58.302-21.156 58.056-20.664L58.056-20.664Q58.384-20.254 59.368-20.008Q60.352-19.762 61.541-19.762Q62.730-19.762 63.550-19.926Z M92.004-1.640L92.004-1.640Q89.544-0.246 86.797-0.041Q84.050 0.164 81.672-0.779Q79.294-1.722 77.818-3.608L77.818-3.608Q76.998-4.674 76.260-7.011Q75.522-9.348 76.014-13.366L76.014-13.366Q76.506-17.138 78.351-20.992Q80.196-24.846 82.902-27.798Q85.608-30.750 88.806-31.816L88.806-31.816Q89.954-32.226 91.143-32.431Q92.332-32.636 94.300-32.472L94.300-32.472Q96.186-32.226 97.662-31.529Q99.138-30.832 99.794-30.012L99.794-30.012Q101.106-28.700 101.516-27.470Q101.926-26.240 101.844-25.092L101.844-25.092Q101.434-22.468 99.507-19.434Q97.580-16.400 94.136-14.924L94.136-14.924Q92.742-14.350 90.856-14.186Q88.970-14.022 85.690-14.678L85.690-14.678Q83.722-15.088 83.107-14.268Q82.492-13.448 82.574-11.070L82.574-11.070Q82.738-9.594 83.271-8.487Q83.804-7.380 85.280-6.970L85.280-6.970Q87.166-6.642 87.986-6.929Q88.806-7.216 90.036-7.790L90.036-7.790Q90.692-8.200 91.348-8.692L91.348-8.692L92.578-9.676Q93.152-10.168 93.562-10.414L93.562-10.414Q93.972-10.742 94.382-10.824Q94.792-10.906 95.202-10.906L95.202-10.906Q96.104-10.824 96.924-9.922Q97.744-9.020 97.990-8.200L97.990-8.200Q97.990-7.544 97.170-6.355Q96.350-5.166 94.997-3.895Q93.644-2.624 92.004-1.640ZM90.938-19.926L90.938-19.926Q91.512-20.172 92.619-21.074Q93.726-21.976 94.628-23.001Q95.530-24.026 95.530-24.600L95.530-24.600Q95.530-25.502 94.341-26.158Q93.152-26.814 91.266-26.404L91.266-26.404Q90.610-26.240 89.708-25.502Q88.806-24.764 87.904-23.821Q87.002-22.878 86.346-22.017Q85.690-21.156 85.444-20.664L85.444-20.664Q85.772-20.254 86.756-20.008Q87.740-19.762 88.929-19.762Q90.118-19.762 90.938-19.926Z M112.914 16.400L112.914 16.400Q110.618 17.302 108.117 16.113Q105.616 14.924 103.812 12.382L103.812 12.382Q103.484 11.890 102.828 10.619Q102.172 9.348 101.557 7.872Q100.942 6.396 100.655 5.330Q100.368 4.264 100.614 4.100L100.614 4.100Q100.942 3.198 102.090 3.034Q103.238 2.870 104.386 3.157Q105.534 3.444 105.698 3.936L105.698 3.936Q105.944 4.510 106.190 5.125Q106.436 5.740 106.805 6.273Q107.174 6.806 107.502 7.216L107.502 7.216Q108.404 8.610 109.470 9.143Q110.536 9.676 111.110 9.266L111.110 9.266Q112.504 8.200 113.201 6.765Q113.898 5.330 115.046 1.722L115.046 1.722Q115.948-1.312 116.604-3.526Q117.260-5.740 117.998-7.626L117.998-7.626Q118.244-8.610 118.654-9.348L118.654-9.348Q118.736-9.512 118.818-9.676L118.818-9.676Q117.670-8.856 116.768-8.036L116.768-8.036Q115.538-6.888 113.406-5.986L113.406-5.986Q112.914-5.412 110.987-5.289Q109.060-5.166 107.256-5.740L107.256-5.740Q106.108-6.396 105.411-7.093Q104.714-7.790 104.263-8.692Q103.812-9.594 103.320-10.824L103.320-10.824Q102.746-12.054 103.156-14.842Q103.566-17.630 104.632-20.418L104.632-20.418Q105.616-22.468 107.502-24.846Q109.388-27.224 111.520-29.151Q113.652-31.078 115.374-31.570L115.374-31.570Q116.030-31.898 117.670-32.349Q119.310-32.800 120.786-32.390L120.786-32.390Q122.180-32.226 122.918-31.775Q123.656-31.324 125.296-29.930L125.296-29.930Q126.362-28.864 127.920-27.183Q129.478-25.502 129.888-24.354L129.888-24.354Q130.462-23.124 130.134-21.689Q129.806-20.254 128.986-19.188L128.986-19.188Q128.248-18.122 127.428-17.056Q126.608-15.990 126.198-14.104L126.198-14.104Q125.788-11.644 124.640-8.569Q123.492-5.494 122.836-2.870L122.836-2.870L121.524 2.214Q119.474 9.184 117.014 12.341Q114.554 15.498 112.914 16.400ZM111.192-11.808L111.192-11.808Q112.832-11.890 114.021-12.177Q115.210-12.464 116.276-13.489Q117.342-14.514 118.736-16.646L118.736-16.646Q120.130-18.614 120.704-20.254Q121.278-21.894 121.114-23.944L121.114-23.944Q121.032-25.256 120.376-25.666Q119.720-26.076 118.654-25.912L118.654-25.912Q117.096-25.666 115.866-24.641Q114.636-23.616 112.996-21.484L112.996-21.484Q111.766-19.844 110.946-17.548L110.946-17.548Q110.126-15.088 110.249-13.612Q110.372-12.136 111.192-11.808Z M137.186 9.922L137.186 9.922Q136.694 10.250 134.972 9.143Q133.250 8.036 132.102 6.724L132.102 6.724Q131.528 6.068 131.364 5.330Q131.200 4.592 131.446 2.542L131.446 2.542Q131.774 1.640 131.815 0.820Q131.856 0 131.856-0.328L131.856-0.328Q131.856-0.820 132.143-2.624Q132.430-4.428 132.758-6.437Q133.086-8.446 133.332-9.512L133.332-9.512Q133.332-9.594 133.455-10.086Q133.578-10.578 133.660-10.824L133.660-10.824Q133.824-11.562 134.070-12.628Q134.316-13.694 134.562-15.498L134.562-15.498Q135.218-17.548 135.669-19.557Q136.120-21.566 136.120-22.304L136.120-22.304Q136.120-23.780 137.268-24.436L137.268-24.436Q137.350-24.846 137.760-25.707Q138.170-26.568 138.498-27.142L138.498-27.142Q140.138-31.816 141.204-34.604Q142.270-37.392 143.418-39.442L143.418-39.442Q143.910-40.836 144.525-42.312Q145.140-43.788 145.796-44.608L145.796-44.608Q146.370-45.756 147.805-47.437Q149.240-49.118 150.880-50.676Q152.520-52.234 153.504-52.972L153.504-52.972Q155.308-53.874 156.866-54.448Q158.424-55.022 160.146-55.022L160.146-55.022Q161.704-55.022 162.893-54.325Q164.082-53.628 166.460-51.496L166.460-51.496Q167.280-50.430 167.280-49.446Q167.280-48.462 166.870-47.806L166.870-47.806Q166.296-46.494 165.148-44.567Q164-42.640 162.934-41.123Q161.868-39.606 161.376-39.524L161.376-39.524Q160.392-38.950 159.326-39.196Q158.260-39.442 158.260-40.672L158.260-40.672Q158.260-41.246 158.342-41.738L158.342-41.738L158.342-42.230Q158.588-43.296 158.957-44.116Q159.326-44.936 159.654-45.510L159.654-45.510Q160.310-46.576 160.023-47.560Q159.736-48.544 157.932-48.380L157.932-48.380Q157.686-48.216 156.989-47.601Q156.292-46.986 155.513-46.207Q154.734-45.428 154.160-44.731Q153.586-44.034 153.586-43.788L153.586-43.788L153.176-42.968Q152.684-42.066 151.782-41L151.782-41Q151.208-40.180 150.798-39.442Q150.388-38.704 150.388-38.294L150.388-38.294Q150.388-37.966 150.306-37.720Q150.224-37.474 149.896-37.474L149.896-37.474L149.650-36.654Q149.322-35.834 148.666-34.686L148.666-34.686Q148.338-33.866 147.969-33.169Q147.600-32.472 147.272-32.144L147.272-32.144L147.190-31.980L146.862-31.078Q146.452-30.094 146.042-29.110Q145.632-28.126 145.632-27.962L145.632-27.962Q145.632-27.634 146.616-27.634Q147.600-27.634 148.994-27.921Q150.388-28.208 151.700-28.536L151.700-28.536Q152.848-28.864 153.340-28.864Q153.832-28.864 154.898-28.536L154.898-28.536Q155.554-28.126 155.964-27.101Q156.374-26.076 156.579-25.051Q156.784-24.026 156.620-23.534L156.620-23.534Q156.538-23.206 154.775-22.632Q153.012-22.058 151.290-21.730L151.290-21.730Q149.814-21.402 147.969-21.033Q146.124-20.664 144.730-20.295Q143.336-19.926 143.254-19.598L143.254-19.598Q142.926-19.598 142.721-19.188Q142.516-18.778 142.516-18.450L142.516-18.450Q142.516-17.384 142.106-16.728L142.106-16.728Q141.942-16.236 141.573-14.719Q141.204-13.202 140.835-11.439Q140.466-9.676 140.179-8.159Q139.892-6.642 139.892-6.150L139.892-6.150Q139.400-5.576 139.318-4.715Q139.236-3.854 139.236-3.198L139.236-3.198Q138.908-2.542 138.826-2.009Q138.744-1.476 138.744-1.148L138.744-1.148L138.744-0.820Q138.744-0.574 138.662-0.328L138.662-0.328Q138.580 0.492 138.457 1.845Q138.334 3.198 138.334 4.510L138.334 4.510L138.088 6.888Q138.006 7.954 137.801 8.733Q137.596 9.512 137.186 9.922Z M177.366-0.164L177.366-0.164Q176.546-0.984 176.054-2.419Q175.562-3.854 175.070-5.740L175.070-5.740Q174.906-6.396 174.947-7.216Q174.988-8.036 174.906-8.528L174.906-8.528Q174.660-7.954 174.127-7.052Q173.594-6.150 173.102-5.740L173.102-5.740Q172.774-5.412 171.626-4.469Q170.478-3.526 169.330-2.952L169.330-2.952Q166.624-1.230 164.533-1.353Q162.442-1.476 160.884-3.444L160.884-3.444Q159.572-4.510 158.752-6.150Q157.932-7.790 158.424-10.086L158.424-10.086Q158.588-12.956 159.244-15.703Q159.900-18.450 161.950-23.042L161.950-23.042Q163.672-26.404 164.574-28.290Q165.476-30.176 165.722-30.504L165.722-30.504Q166.952-30.914 168.756-30.463Q170.560-30.012 170.724-28.864L170.724-28.864Q171.216-28.044 170.724-25.789Q170.232-23.534 168.756-20.664L168.756-20.664Q167.608-17.876 166.583-15.252Q165.558-12.628 165.353-10.824Q165.148-9.020 166.296-8.610L166.296-8.610Q167.034-8.200 168.469-8.692Q169.904-9.184 171.872-11.644Q173.840-14.104 176.054-19.434L176.054-19.434Q176.710-21.074 177.038-22.345Q177.366-23.616 177.448-25.174L177.448-25.174Q177.284-26.158 177.981-27.224Q178.678-28.290 179.662-28.864L179.662-28.864Q179.990-29.274 180.564-29.684L180.564-29.684Q180.974-29.930 181.138-29.766L181.138-29.766Q181.220-29.766 181.302-29.602L181.302-29.602L182.614-29.684Q182.942-29.766 183.352-29.028Q183.762-28.290 184.172-27.962L184.172-27.962Q185.074-27.224 184.992-24.764Q184.910-22.304 183.024-17.876L183.024-17.876Q181.466-14.514 180.933-12.792Q180.400-11.070 180.318-9.430L180.318-9.430Q180.318-7.954 180.564-6.929Q180.810-5.904 182.040-4.838L182.040-4.838Q182.942-4.264 183.065-2.911Q183.188-1.558 183.106-0.574L183.106-0.574Q182.942 0.164 181.835 0.451Q180.728 0.738 179.457 0.574Q178.186 0.410 177.366-0.164Z M188.600-1.394L188.600-1.394Q187.944-2.050 187.657-3.362Q187.370-4.674 187.452-5.945Q187.534-7.216 187.862-7.872L187.862-7.872Q187.862-8.528 188.067-8.897Q188.272-9.266 188.190-9.594L188.190-9.594Q188.108-9.922 188.354-10.742Q188.600-11.562 188.846-12.300L188.846-12.300Q189.420-13.612 190.158-15.703Q190.896-17.794 191.634-19.967Q192.372-22.140 192.864-23.739Q193.356-25.338 193.438-25.666L193.438-25.666Q193.438-26.650 194.750-26.732L194.750-26.732Q195.734-27.060 197.128-25.912Q198.522-24.764 199.342-23.452L199.342-23.452Q199.998-22.796 199.834-21.730Q199.670-20.664 198.768-18.696L198.768-18.696Q198.440-18.040 197.989-16.523Q197.538-15.006 197.374-14.022L197.374-14.022Q197.046-13.366 196.595-12.177Q196.144-10.988 195.816-9.922L195.816-9.922Q195.652-9.512 195.488-8.405Q195.324-7.298 195.078-6.150Q194.832-5.002 194.422-4.346L194.422-4.346Q193.684-0.984 191.839-0.410Q189.994 0.164 188.600-1.394ZM197.456-34.276L197.456-34.276Q196.554-34.932 196.103-35.875Q195.652-36.818 195.611-37.556Q195.570-38.294 195.734-38.458L195.734-38.458Q196.554-39.360 197.169-40.836Q197.784-42.312 198.522-43.542L198.522-43.542Q198.686-43.788 198.973-44.239Q199.260-44.690 199.588-44.772L199.588-44.772Q200.572-45.428 202.335-44.690Q204.098-43.952 204.918-42.640L204.918-42.640Q205.656-41.082 205.369-39.442Q205.082-37.802 203.606-35.998L203.606-35.998Q202.376-34.358 200.490-33.907Q198.604-33.456 197.456-34.276Z" fill="#f1ece2"></path></g><g transform="translate(112.265,203)"><path d="M1.995 0L0.315 0L3.315-10.500L6.165-10.500L9.150 0L7.485 0L6.795-2.475L2.685-2.475L1.995 0ZM4.620-9.495L3.090-3.975L6.390-3.975L4.860-9.495L4.620-9.495Z M20.150 0L18.575 0L18.575-10.500L21.620-10.500L23.915-1.080L24.155-1.080L26.450-10.500L29.495-10.500L29.495 0L27.920 0L27.920-9.360L27.680-9.360L25.400 0L22.670 0L20.390-9.360L20.150-9.360L20.150 0Z M41.260 0L39.685 0L39.685-10.500L42.730-10.500L45.025-1.080L45.265-1.080L47.560-10.500L50.605-10.500L50.605 0L49.030 0L49.030-9.360L48.790-9.360L46.510 0L43.780 0L41.500-9.360L41.260-9.360L41.260 0Z M67.485 0L60.795 0L60.795-10.500L67.410-10.500L67.410-9.030L62.415-9.030L62.415-6.015L66.990-6.015L66.990-4.545L62.415-4.545L62.415-1.470L67.485-1.470L67.485 0Z M78.800 0L77.180 0L77.180-10.500L81.590-10.500Q82.565-10.500 83.308-10.162Q84.050-9.825 84.463-9.195Q84.875-8.565 84.875-7.695L84.875-7.695L84.875-7.530Q84.875-6.540 84.403-5.947Q83.930-5.355 83.255-5.115L83.255-5.115L83.255-4.875Q83.825-4.845 84.170-4.492Q84.515-4.140 84.515-3.480L84.515-3.480L84.515 0L82.880 0L82.880-3.255Q82.880-3.660 82.670-3.900Q82.460-4.140 81.995-4.140L81.995-4.140L78.800-4.140L78.800 0ZM78.800-9.030L78.800-5.610L81.410-5.610Q82.280-5.610 82.760-6.053Q83.240-6.495 83.240-7.260L83.240-7.260L83.240-7.380Q83.240-8.145 82.768-8.588Q82.295-9.030 81.410-9.030L81.410-9.030L78.800-9.030Z M98.230 0.210L98.230 0.210Q97.045 0.210 96.130-0.210Q95.215-0.630 94.698-1.448Q94.180-2.265 94.180-3.435L94.180-3.435L94.180-3.810L95.785-3.810L95.785-3.435Q95.785-2.325 96.453-1.770Q97.120-1.215 98.230-1.215L98.230-1.215Q99.355-1.215 99.925-1.688Q100.495-2.160 100.495-2.910L100.495-2.910Q100.495-3.405 100.225-3.720Q99.955-4.035 99.460-4.223Q98.965-4.410 98.275-4.575L98.275-4.575L97.720-4.710Q96.715-4.950 95.973-5.303Q95.230-5.655 94.825-6.240Q94.420-6.825 94.420-7.740L94.420-7.740Q94.420-8.670 94.878-9.330Q95.335-9.990 96.145-10.350Q96.955-10.710 98.050-10.710L98.050-10.710Q99.145-10.710 100.008-10.335Q100.870-9.960 101.365-9.225Q101.860-8.490 101.860-7.380L101.860-7.380L101.860-6.840L100.255-6.840L100.255-7.380Q100.255-8.055 99.978-8.475Q99.700-8.895 99.205-9.090Q98.710-9.285 98.050-9.285L98.050-9.285Q97.090-9.285 96.558-8.887Q96.025-8.490 96.025-7.785L96.025-7.785Q96.025-7.305 96.258-6.997Q96.490-6.690 96.940-6.495Q97.390-6.300 98.065-6.150L98.065-6.150L98.620-6.015Q99.640-5.790 100.420-5.438Q101.200-5.085 101.650-4.485Q102.100-3.885 102.100-2.940L102.100-2.940Q102.100-1.995 101.628-1.290Q101.155-0.585 100.285-0.188Q99.415 0.210 98.230 0.210Z M118.485 0L111.795 0L111.795-10.500L118.410-10.500L118.410-9.030L113.415-9.030L113.415-6.015L117.990-6.015L117.990-4.545L113.415-4.545L113.415-1.470L118.485-1.470L118.485 0Z M134.870 0L128.180 0L128.180-10.500L134.795-10.500L134.795-9.030L129.800-9.030L129.800-6.015L134.375-6.015L134.375-4.545L129.800-4.545L129.800-1.470L134.870-1.470L134.870 0Z" fill="#cf9cbc"></path></g></svg>