<svg xmlns="http://www.w3.org/2000/svg" width="1488" height="1344" viewBox="0 0 248 224"><path d="M26.6,15.6 L23.3,9.6 L24.9,5.6 L23.4,3 L19.7,2.1 L14.4,7 L13.1,5.4 L11.2,5.8 L9.4,2 L6.3,1.2 L1.8,-9.1 L-2.9,-41.5 L3.9,-62.7 L2.4,-72.7 L0.6,-75 L-4.9,-74.9 L-12.4,-67.5 L-16.6,-67.1 L-22,-57.2 L-21.6,-53 L-24.3,-47.3 L-23.7,-41.3 L-25.6,-36.4 L-24.6,-30.6 L-25.8,-26.6 L-23.8,-21.8 L-26.6,-12.8 L-26,-9.3 L-22.8,-5.3 L-25.1,0.3 L-23.1,20.5 L-24.3,26.8 L-20.4,36.9 L-20.7,40.6 L-16.7,48.4 L-18.3,54.5 L-17.2,59.2 L-12,60.7 L-10.4,65.3 L-7.5,69.5 L-3,73.5 L2,75 L7,73 L10.5,69.5 L12.3,66.1 L11.7,33.9 L16.2,25.7 L26.6,16.1 Z" fill="#cf9cbc" fill-opacity="0.09" fill-rule="evenodd" transform="translate(124 101) rotate(0) scale(1.26667) translate(5.71 0.00)"></path><path d="M26.6,15.6 L23.3,9.6 L24.9,5.6 L23.4,3 L19.7,2.1 L14.4,7 L13.1,5.4 L11.2,5.8 L9.4,2 L6.3,1.2 L1.8,-9.1 L-2.9,-41.5 L3.9,-62.7 L2.4,-72.7 L0.6,-75 L-4.9,-74.9 L-12.4,-67.5 L-16.6,-67.1 L-22,-57.2 L-21.6,-53 L-24.3,-47.3 L-23.7,-41.3 L-25.6,-36.4 L-24.6,-30.6 L-25.8,-26.6 L-23.8,-21.8 L-26.6,-12.8 L-26,-9.3 L-22.8,-5.3 L-25.1,0.3 L-23.1,20.5 L-24.3,26.8 L-20.4,36.9 L-20.7,40.6 L-16.7,48.4 L-18.3,54.5 L-17.2,59.2 L-12,60.7 L-10.4,65.3 L-7.5,69.5 L-3,73.5 L2,75 L7,73 L10.5,69.5 L12.3,66.1 L11.7,33.9 L16.2,25.7 L26.6,16.1 Z" fill="none" stroke="#cf9cbc" stroke-opacity="0.45" stroke-width="1.89" stroke-linejoin="round" stroke-linecap="round" transform="translate(124 101) rotate(0) scale(1.26667) translate(5.71 0.00)"></path><svg x="26.65" y="49.00" width="190.70" height="98.00" viewBox="0 0 360 185" overflow="visible"><g fill="#f1ece2"><g transform="translate(64.98,0)"><path d="M22.88 133.59 L22.88 133.59 Q21.33 133.16 20.38 132.82 L20.38 132.82 L19.44 132.56 Q19.61 132.13 19.31 131.78 Q19.01 131.44 18.06 131.35 L18.06 131.35 Q16.77 130.49 15.39 128.95 Q14.02 127.40 12.99 125.76 Q11.95 124.13 11.61 123.36 L11.61 123.36 Q11.18 122.32 11.44 121.98 L11.44 121.98 Q11.52 121.81 11.70 121.72 L11.70 121.72 Q12.38 121.46 13.33 121.03 L13.33 121.03 Q14.28 120.35 15.35 120.00 Q16.43 119.66 17.11 121.12 L17.11 121.12 Q18.23 123.10 20.60 124.47 Q22.96 125.85 26.02 126.11 Q29.07 126.37 32.16 125.08 L32.16 125.08 Q34.23 124.13 34.40 122.45 Q34.57 120.78 33.11 118.54 L33.11 118.54 Q32.85 117.85 32.38 117.42 Q31.91 116.99 31.00 116.30 Q30.10 115.62 28.47 114.07 L28.47 114.07 Q27.18 113.47 26.10 112.95 Q25.03 112.43 23.82 111.83 L23.82 111.83 Q22.45 111.14 20.73 109.90 Q19.01 108.65 17.54 107.14 Q16.08 105.64 15.31 104.26 L15.31 104.26 Q13.93 102.97 13.59 100.69 Q13.24 98.42 13.72 95.84 Q14.19 93.26 15.31 91.19 L15.31 91.19 Q15.82 89.99 17.20 88.05 Q18.58 86.12 20.30 84.05 Q22.02 81.99 23.61 80.31 Q25.20 78.64 26.14 78.03 L26.14 78.03 Q26.83 77.35 27.61 76.57 L27.61 76.57 L28.38 75.88 Q28.47 75.45 28.72 75.45 L28.72 75.45 L28.90 75.45 Q29.33 75.20 30.79 74.59 Q32.25 73.99 33.97 72.36 L33.97 72.36 Q39.73 69.61 43.77 68.62 Q47.82 67.63 50.14 67.63 L50.14 67.63 Q52.29 67.71 54.35 68.79 Q56.42 69.86 57.92 71.50 Q59.43 73.13 59.68 75.20 L59.68 75.20 Q60.29 77.26 59.13 80.14 Q57.96 83.02 55.94 85.56 Q53.92 88.10 51.77 89.30 L51.77 89.30 Q49.36 90.33 47.69 89.56 Q46.01 88.78 46.10 87.15 L46.10 87.15 Q46.10 86.46 46.57 85.52 Q47.04 84.57 49.19 82.16 L49.19 82.16 Q51.94 78.12 52.12 76.40 Q52.29 74.68 50.57 74.42 L50.57 74.42 Q50.05 74.25 48.59 74.51 Q47.13 74.77 45.45 75.15 Q43.77 75.54 42.53 75.97 Q41.28 76.40 41.28 76.57 L41.28 76.57 L41.28 76.83 Q41.28 76.92 41.19 77.00 L41.19 77.00 Q41.19 77.09 40.94 77.00 L40.94 77.00 Q40.76 77.00 39.78 77.56 Q38.79 78.12 37.41 78.98 Q36.03 79.84 34.70 80.74 Q33.37 81.65 32.42 82.33 Q31.48 83.02 31.39 83.19 L31.39 83.19 Q31.22 84.14 29.41 84.91 L29.41 84.91 Q27.69 85.95 26.40 87.84 Q25.11 89.73 23.39 92.65 L23.39 92.65 Q21.93 94.63 21.33 96.91 Q20.73 99.19 21.33 100.57 L21.33 100.57 Q21.76 101.94 23.69 103.28 Q25.63 104.61 28.98 106.59 L28.98 106.59 Q31.91 108.22 34.49 110.03 Q37.07 111.83 38.87 113.51 Q40.68 115.19 41.19 116.30 L41.19 116.30 Q42.23 117.77 42.44 119.66 Q42.66 121.55 42.44 123.31 Q42.23 125.08 41.88 126.19 L41.88 126.19 Q41.28 127.57 40.03 129.12 Q38.79 130.67 37.75 130.58 L37.75 130.58 Q36.81 130.84 36.34 131.18 Q35.86 131.53 35.26 131.78 L35.26 131.78 Q34.66 132.13 32.42 132.60 Q30.19 133.07 27.52 133.38 Q24.85 133.68 22.88 133.59 Z M67.77 126.28 L67.77 126.28 Q65.19 127.74 62.31 127.96 Q59.43 128.17 56.93 127.18 Q54.44 126.19 52.89 124.22 L52.89 124.22 Q52.03 123.10 51.26 120.65 Q50.48 118.20 51.00 113.98 L51.00 113.98 Q51.51 110.03 53.45 105.98 Q55.38 101.94 58.22 98.85 Q61.06 95.75 64.41 94.63 L64.41 94.63 Q65.62 94.20 66.86 93.99 Q68.11 93.77 70.18 93.94 L70.18 93.94 Q72.15 94.20 73.70 94.93 Q75.25 95.66 75.94 96.52 L75.94 96.52 Q77.31 97.90 77.74 99.19 Q78.17 100.48 78.09 101.68 L78.09 101.68 Q77.66 104.44 75.64 107.62 Q73.62 110.80 70.00 112.35 L70.00 112.35 Q68.54 112.95 66.56 113.12 Q64.59 113.29 61.15 112.61 L61.15 112.61 Q59.08 112.18 58.44 113.04 Q57.79 113.90 57.88 116.39 L57.88 116.39 Q58.05 117.94 58.61 119.10 Q59.17 120.26 60.72 120.69 L60.72 120.69 Q62.69 121.03 63.55 120.73 Q64.41 120.43 65.70 119.83 L65.70 119.83 Q66.39 119.40 67.08 118.88 L67.08 118.88 L68.37 117.85 Q68.97 117.34 69.40 117.08 L69.40 117.08 Q69.83 116.73 70.26 116.65 Q70.69 116.56 71.12 116.56 L71.12 116.56 Q72.07 116.65 72.93 117.59 Q73.79 118.54 74.05 119.40 L74.05 119.40 Q74.05 120.09 73.19 121.33 Q72.33 122.58 70.91 123.92 Q69.49 125.25 67.77 126.28 Z M66.65 107.10 L66.65 107.10 Q67.25 106.84 68.41 105.90 Q69.57 104.95 70.52 103.88 Q71.47 102.80 71.47 102.20 L71.47 102.20 Q71.47 101.25 70.22 100.57 Q68.97 99.88 66.99 100.31 L66.99 100.31 Q66.31 100.48 65.36 101.25 Q64.41 102.03 63.47 103.02 Q62.52 104.01 61.83 104.91 Q61.15 105.81 60.89 106.33 L60.89 106.33 Q61.23 106.76 62.26 107.02 Q63.30 107.27 64.54 107.27 Q65.79 107.27 66.65 107.10 Z M96.49 126.28 L96.49 126.28 Q93.91 127.74 91.03 127.96 Q88.15 128.17 85.66 127.18 Q83.16 126.19 81.61 124.22 L81.61 124.22 Q80.75 123.10 79.98 120.65 Q79.21 118.20 79.72 113.98 L79.72 113.98 Q80.24 110.03 82.17 105.98 Q84.11 101.94 86.95 98.85 Q89.78 95.75 93.14 94.63 L93.14 94.63 Q94.34 94.20 95.59 93.99 Q96.84 93.77 98.90 93.94 L98.90 93.94 Q100.88 94.20 102.43 94.93 Q103.97 95.66 104.66 96.52 L104.66 96.52 Q106.04 97.90 106.47 99.19 Q106.90 100.48 106.81 101.68 L106.81 101.68 Q106.38 104.44 104.36 107.62 Q102.34 110.80 98.73 112.35 L98.73 112.35 Q97.27 112.95 95.29 113.12 Q93.31 113.29 89.87 112.61 L89.87 112.61 Q87.81 112.18 87.16 113.04 Q86.52 113.90 86.60 116.39 L86.60 116.39 Q86.77 117.94 87.33 119.10 Q87.89 120.26 89.44 120.69 L89.44 120.69 Q91.42 121.03 92.28 120.73 Q93.14 120.43 94.43 119.83 L94.43 119.83 Q95.12 119.40 95.80 118.88 L95.80 118.88 L97.09 117.85 Q97.70 117.34 98.13 117.08 L98.13 117.08 Q98.56 116.73 98.99 116.65 Q99.42 116.56 99.85 116.56 L99.85 116.56 Q100.79 116.65 101.65 117.59 Q102.51 118.54 102.77 119.40 L102.77 119.40 Q102.77 120.09 101.91 121.33 Q101.05 122.58 99.63 123.92 Q98.21 125.25 96.49 126.28 Z M95.37 107.10 L95.37 107.10 Q95.98 106.84 97.14 105.90 Q98.30 104.95 99.24 103.88 Q100.19 102.80 100.19 102.20 L100.19 102.20 Q100.19 101.25 98.94 100.57 Q97.70 99.88 95.72 100.31 L95.72 100.31 Q95.03 100.48 94.08 101.25 Q93.14 102.03 92.19 103.02 Q91.25 104.01 90.56 104.91 Q89.87 105.81 89.61 106.33 L89.61 106.33 Q89.96 106.76 90.99 107.02 Q92.02 107.27 93.27 107.27 Q94.51 107.27 95.37 107.10 Z M118.42 145.20 L118.42 145.20 Q116.01 146.15 113.39 144.90 Q110.77 143.65 108.88 140.99 L108.88 140.99 Q108.53 140.47 107.84 139.14 Q107.16 137.80 106.51 136.26 Q105.87 134.71 105.56 133.59 Q105.26 132.47 105.52 132.30 L105.52 132.30 Q105.87 131.35 107.07 131.18 Q108.27 131.01 109.48 131.31 Q110.68 131.61 110.85 132.13 L110.85 132.13 Q111.11 132.73 111.37 133.38 Q111.63 134.02 112.01 134.58 Q112.40 135.14 112.75 135.57 L112.75 135.57 Q113.69 137.03 114.81 137.59 Q115.93 138.15 116.53 137.72 L116.53 137.72 Q117.99 136.60 118.72 135.09 Q119.45 133.59 120.66 129.81 L120.66 129.81 Q121.60 126.62 122.29 124.30 Q122.98 121.98 123.75 120.00 L123.75 120.00 Q124.01 118.97 124.44 118.20 L124.44 118.20 Q124.53 118.02 124.61 117.85 L124.61 117.85 Q123.41 118.71 122.46 119.57 L122.46 119.57 Q121.17 120.78 118.94 121.72 L118.94 121.72 Q118.42 122.32 116.40 122.45 Q114.38 122.58 112.49 121.98 L112.49 121.98 Q111.28 121.29 110.55 120.56 Q109.82 119.83 109.35 118.88 Q108.88 117.94 108.36 116.65 L108.36 116.65 Q107.76 115.36 108.19 112.43 Q108.62 109.51 109.74 106.59 L109.74 106.59 Q110.77 104.44 112.75 101.94 Q114.72 99.45 116.96 97.43 Q119.20 95.41 121.00 94.89 L121.00 94.89 Q121.69 94.55 123.41 94.07 Q125.13 93.60 126.68 94.03 L126.68 94.03 Q128.14 94.20 128.91 94.67 Q129.69 95.15 131.41 96.61 L131.41 96.61 Q132.53 97.73 134.16 99.49 Q135.79 101.25 136.22 102.46 L136.22 102.46 Q136.83 103.75 136.48 105.25 Q136.14 106.76 135.28 107.88 L135.28 107.88 Q134.50 108.99 133.64 110.11 Q132.78 111.23 132.35 113.21 L132.35 113.21 Q131.92 115.79 130.72 119.01 Q129.52 122.24 128.83 124.99 L128.83 124.99 L127.45 130.32 Q125.30 137.63 122.72 140.94 Q120.14 144.25 118.42 145.20 Z M116.62 115.62 L116.62 115.62 Q118.34 115.53 119.58 115.23 Q120.83 114.93 121.95 113.85 Q123.07 112.78 124.53 110.54 L124.53 110.54 Q125.99 108.48 126.59 106.76 Q127.19 105.04 127.02 102.89 L127.02 102.89 Q126.94 101.51 126.25 101.08 Q125.56 100.65 124.44 100.82 L124.44 100.82 Q122.81 101.08 121.52 102.16 Q120.23 103.23 118.51 105.47 L118.51 105.47 Q117.22 107.19 116.36 109.60 L116.36 109.60 Q115.50 112.18 115.63 113.72 Q115.76 115.27 116.62 115.62 Z M143.88 138.41 L143.88 138.41 Q143.36 138.75 141.56 137.59 Q139.75 136.43 138.55 135.05 L138.55 135.05 Q137.94 134.36 137.77 133.59 Q137.60 132.82 137.86 130.67 L137.86 130.67 Q138.20 129.72 138.24 128.86 Q138.29 128.00 138.29 127.66 L138.29 127.66 Q138.29 127.14 138.59 125.25 Q138.89 123.36 139.23 121.25 Q139.58 119.14 139.84 118.02 L139.84 118.02 Q139.84 117.94 139.96 117.42 Q140.09 116.91 140.18 116.65 L140.18 116.65 Q140.35 115.87 140.61 114.76 Q140.87 113.64 141.13 111.75 L141.13 111.75 Q141.81 109.60 142.29 107.49 Q142.76 105.38 142.76 104.61 L142.76 104.61 Q142.76 103.06 143.96 102.37 L143.96 102.37 Q144.05 101.94 144.48 101.04 Q144.91 100.14 145.25 99.53 L145.25 99.53 Q146.97 94.63 148.09 91.71 Q149.21 88.78 150.41 86.63 L150.41 86.63 Q150.93 85.17 151.57 83.62 Q152.22 82.08 152.91 81.22 L152.91 81.22 Q153.51 80.01 155.01 78.25 Q156.52 76.49 158.24 74.85 Q159.96 73.22 160.99 72.44 L160.99 72.44 Q162.88 71.50 164.52 70.90 Q166.15 70.29 167.96 70.29 L167.96 70.29 Q169.59 70.29 170.84 71.03 Q172.09 71.76 174.58 73.99 L174.58 73.99 Q175.44 75.11 175.44 76.14 Q175.44 77.17 175.01 77.86 L175.01 77.86 Q174.41 79.24 173.20 81.26 Q172.00 83.28 170.88 84.87 Q169.76 86.46 169.25 86.55 L169.25 86.55 Q168.22 87.15 167.10 86.89 Q165.98 86.63 165.98 85.34 L165.98 85.34 Q165.98 84.74 166.07 84.23 L166.07 84.23 L166.07 83.71 Q166.32 82.59 166.71 81.73 Q167.10 80.87 167.44 80.27 L167.44 80.27 Q168.13 79.15 167.83 78.12 Q167.53 77.09 165.64 77.26 L165.64 77.26 Q165.38 77.43 164.65 78.08 Q163.92 78.72 163.10 79.54 Q162.28 80.36 161.68 81.09 Q161.08 81.82 161.08 82.08 L161.08 82.08 L160.65 82.94 Q160.13 83.88 159.19 85.00 L159.19 85.00 Q158.58 85.86 158.15 86.63 Q157.72 87.41 157.72 87.84 L157.72 87.84 Q157.72 88.18 157.64 88.44 Q157.55 88.70 157.21 88.70 L157.21 88.70 L156.95 89.56 Q156.61 90.42 155.92 91.62 L155.92 91.62 Q155.57 92.48 155.19 93.21 Q154.80 93.94 154.46 94.29 L154.46 94.29 L154.37 94.46 L154.03 95.41 Q153.60 96.44 153.17 97.47 Q152.74 98.50 152.74 98.67 L152.74 98.67 Q152.74 99.02 153.77 99.02 Q154.80 99.02 156.26 98.72 Q157.72 98.42 159.10 98.07 L159.10 98.07 Q160.30 97.73 160.82 97.73 Q161.34 97.73 162.45 98.07 L162.45 98.07 Q163.14 98.50 163.57 99.58 Q164.00 100.65 164.22 101.73 Q164.43 102.80 164.26 103.32 L164.26 103.32 Q164.17 103.66 162.32 104.26 Q160.48 104.87 158.67 105.21 L158.67 105.21 Q157.12 105.55 155.19 105.94 Q153.25 106.33 151.79 106.72 Q150.33 107.10 150.24 107.45 L150.24 107.45 Q149.90 107.45 149.68 107.88 Q149.47 108.31 149.47 108.65 L149.47 108.65 Q149.47 109.77 149.04 110.46 L149.04 110.46 Q148.87 110.97 148.48 112.56 Q148.09 114.15 147.70 116.00 Q147.32 117.85 147.02 119.44 Q146.72 121.03 146.72 121.55 L146.72 121.55 Q146.20 122.15 146.11 123.06 Q146.03 123.96 146.03 124.65 L146.03 124.65 Q145.68 125.33 145.60 125.89 Q145.51 126.45 145.51 126.80 L145.51 126.80 L145.51 127.14 Q145.51 127.40 145.43 127.66 L145.43 127.66 Q145.34 128.52 145.21 129.94 Q145.08 131.35 145.08 132.73 L145.08 132.73 L144.82 135.22 Q144.74 136.34 144.52 137.16 Q144.31 137.98 143.88 138.41 Z M186.02 127.83 L186.02 127.83 Q185.16 126.97 184.64 125.46 Q184.13 123.96 183.61 121.98 L183.61 121.98 Q183.44 121.29 183.48 120.43 Q183.52 119.57 183.44 119.06 L183.44 119.06 Q183.18 119.66 182.62 120.60 Q182.06 121.55 181.55 121.98 L181.55 121.98 Q181.20 122.32 180.00 123.31 Q178.79 124.30 177.59 124.90 L177.59 124.90 Q174.75 126.71 172.56 126.58 Q170.37 126.45 168.73 124.39 L168.73 124.39 Q167.36 123.27 166.50 121.55 Q165.64 119.83 166.15 117.42 L166.15 117.42 Q166.32 114.41 167.01 111.53 Q167.70 108.65 169.85 103.83 L169.85 103.83 Q171.66 100.31 172.60 98.33 Q173.55 96.35 173.81 96.01 L173.81 96.01 Q175.10 95.58 176.99 96.05 Q178.88 96.52 179.05 97.73 L179.05 97.73 Q179.57 98.59 179.05 100.95 Q178.54 103.32 176.99 106.33 L176.99 106.33 Q175.78 109.25 174.71 112.00 Q173.63 114.76 173.42 116.65 Q173.20 118.54 174.41 118.97 L174.41 118.97 Q175.18 119.40 176.69 118.88 Q178.19 118.37 180.26 115.79 Q182.32 113.21 184.64 107.62 L184.64 107.62 Q185.33 105.90 185.67 104.56 Q186.02 103.23 186.10 101.60 L186.10 101.60 Q185.93 100.57 186.66 99.45 Q187.39 98.33 188.43 97.73 L188.43 97.73 Q188.77 97.30 189.37 96.87 L189.37 96.87 Q189.80 96.61 189.97 96.78 L189.97 96.78 Q190.06 96.78 190.15 96.95 L190.15 96.95 L191.52 96.87 Q191.87 96.78 192.30 97.56 Q192.73 98.33 193.16 98.67 L193.16 98.67 Q194.10 99.45 194.02 102.03 Q193.93 104.61 191.95 109.25 L191.95 109.25 Q190.32 112.78 189.76 114.58 Q189.20 116.39 189.11 118.11 L189.11 118.11 Q189.11 119.66 189.37 120.73 Q189.63 121.81 190.92 122.93 L190.92 122.93 Q191.87 123.53 191.99 124.95 Q192.12 126.37 192.04 127.40 L192.04 127.40 Q191.87 128.17 190.70 128.47 Q189.54 128.77 188.21 128.60 Q186.88 128.43 186.02 127.83 Z M197.80 126.54 L197.80 126.54 Q197.11 125.85 196.81 124.47 Q196.51 123.10 196.60 121.77 Q196.68 120.43 197.03 119.74 L197.03 119.74 Q197.03 119.06 197.24 118.67 Q197.46 118.28 197.37 117.94 L197.37 117.94 Q197.28 117.59 197.54 116.73 Q197.80 115.87 198.06 115.10 L198.06 115.10 Q198.66 113.72 199.43 111.53 Q200.21 109.34 200.98 107.06 Q201.76 104.78 202.27 103.10 Q202.79 101.43 202.87 101.08 L202.87 101.08 Q202.87 100.05 204.25 99.96 L204.25 99.96 Q205.28 99.62 206.74 100.82 Q208.21 102.03 209.07 103.40 L209.07 103.40 Q209.75 104.09 209.58 105.21 Q209.41 106.33 208.46 108.39 L208.46 108.39 Q208.12 109.08 207.65 110.67 Q207.17 112.26 207.00 113.29 L207.00 113.29 Q206.66 113.98 206.18 115.23 Q205.71 116.48 205.37 117.59 L205.37 117.59 Q205.20 118.02 205.02 119.19 Q204.85 120.35 204.59 121.55 Q204.34 122.75 203.91 123.44 L203.91 123.44 Q203.13 126.97 201.20 127.57 Q199.26 128.17 197.80 126.54 Z " fill="#f1ece2"></path><defs><mask id="hm2" maskUnits="userSpaceOnUse"><path d="M0,3 C0,-3 -9,-6 -9,-13 C-9,-19 -2,-20 0,-14 C2,-20 9,-19 9,-13 C9,-6 0,-3 0,3 Z" fill="#fff"></path><path d="M-7.5,-8 q2.5,-3.4 5,0 t5,0 t5,0" fill="none" stroke="#000" stroke-width="2.1" stroke-linecap="round"></path></mask></defs><g transform="translate(210.40,95.23) rotate(12) scale(0.940)"><path d="M0,3 C0,-3 -9,-6 -9,-13 C-9,-19 -2,-20 0,-14 C2,-20 9,-19 9,-13 C9,-6 0,-3 0,3 Z" fill="#d23b34" mask="url(#hm2)"></path></g></g></g></svg><path d="M48.93 149.54L46.94 149.54L50.02 138.34L53.36 138.34L56.43 149.54L54.45 149.54L53.78 146.98L49.60 146.98L48.93 149.54ZM51.55 139.54L50.05 145.22L53.33 145.22L51.82 139.54L51.55 139.54Z M69.73 149.54L67.86 149.54L67.86 138.34L71.46 138.34L73.63 148.24L73.90 148.24L76.10 138.34L79.68 138.34L79.68 149.54L77.82 149.54L77.82 139.73L77.55 139.73L75.38 149.54L72.18 149.54L70 139.73L69.73 139.73L69.73 149.54Z M93.78 149.54L91.90 149.54L91.90 138.34L95.50 138.34L97.68 148.24L97.95 148.24L100.14 138.34L103.73 138.34L103.73 149.54L101.87 149.54L101.87 139.73L101.60 139.73L99.42 149.54L96.22 149.54L94.05 139.73L93.78 139.73L93.78 149.54Z M123.17 149.54L115.95 149.54L115.95 138.34L123.09 138.34L123.09 140.08L117.89 140.08L117.89 143.02L122.64 143.02L122.64 144.77L117.89 144.77L117.89 147.79L123.17 147.79L123.17 149.54Z M136.78 149.54L134.85 149.54L134.85 138.34L139.63 138.34Q140.69 138.34 141.47 138.70Q142.26 139.07 142.70 139.74Q143.14 140.40 143.14 141.33L143.14 141.33L143.14 141.50Q143.14 142.54 142.64 143.17Q142.14 143.79 141.44 144.08L141.44 144.08L141.44 144.34Q142.06 144.37 142.42 144.77Q142.78 145.17 142.78 145.84L142.78 145.84L142.78 149.54L140.86 149.54L140.86 146.11Q140.86 145.71 140.65 145.46Q140.43 145.22 139.95 145.22L139.95 145.22L136.78 145.22L136.78 149.54ZM136.78 140.08L136.78 143.47L139.44 143.47Q140.27 143.47 140.74 143.03Q141.22 142.59 141.22 141.86L141.22 141.86L141.22 141.71Q141.22 140.96 140.75 140.52Q140.29 140.08 139.44 140.08L139.44 140.08L136.78 140.08Z M158.82 149.76L158.82 149.76Q157.54 149.76 156.55 149.30Q155.57 148.85 155.01 147.98Q154.45 147.12 154.45 145.87L154.45 145.87L154.45 145.46L156.35 145.46L156.35 145.87Q156.35 146.98 157.02 147.52Q157.70 148.06 158.82 148.06L158.82 148.06Q159.95 148.06 160.53 147.60Q161.10 147.14 161.10 146.40L161.10 146.40Q161.10 145.90 160.83 145.59Q160.56 145.28 160.04 145.09Q159.52 144.90 158.78 144.72L158.78 144.72L158.30 144.62Q157.20 144.37 156.39 143.98Q155.58 143.58 155.15 142.96Q154.72 142.34 154.72 141.33L154.72 141.33Q154.72 140.32 155.20 139.60Q155.68 138.88 156.56 138.50Q157.44 138.11 158.62 138.11L158.62 138.11Q159.81 138.11 160.74 138.51Q161.66 138.91 162.20 139.71Q162.74 140.51 162.74 141.71L162.74 141.71L162.74 142.24L160.83 142.24L160.83 141.71Q160.83 141.02 160.56 140.61Q160.29 140.19 159.79 140Q159.30 139.81 158.62 139.81L158.62 139.81Q157.63 139.81 157.12 140.19Q156.61 140.58 156.61 141.28L156.61 141.28Q156.61 141.73 156.84 142.04Q157.07 142.35 157.53 142.55Q157.98 142.75 158.67 142.90L158.67 142.90L159.15 143.01Q160.30 143.26 161.17 143.66Q162.03 144.05 162.52 144.69Q163.01 145.33 163.01 146.35L163.01 146.35Q163.01 147.36 162.49 148.13Q161.97 148.90 161.03 149.33Q160.10 149.76 158.82 149.76Z M181.90 149.54L174.69 149.54L174.69 138.34L181.82 138.34L181.82 140.08L176.62 140.08L176.62 143.02L181.38 143.02L181.38 144.77L176.62 144.77L176.62 147.79L181.90 147.79L181.90 149.54Z M200.80 149.54L193.58 149.54L193.58 138.34L200.72 138.34L200.72 140.08L195.52 140.08L195.52 143.02L200.27 143.02L200.27 144.77L195.52 144.77L195.52 147.79L200.80 147.79L200.80 149.54Z" fill="#cf9cbc"></path><path d="M60.50 169.11L59.55 169.11L59.55 167.83L56.37 167.83L56.37 166.73L58.78 162.81L60.50 162.81L60.50 166.99L61.56 166.99L61.56 167.83L60.50 167.83L60.50 169.11ZM57.28 166.86L57.28 166.99L59.55 166.99L59.55 163.41L59.41 163.41L57.28 166.86Z M64.99 169.11L64.04 169.11L64.04 168.89Q64.04 168.55 64.10 168.32Q64.15 168.09 64.32 167.78L64.32 167.78L66.57 163.78L66.57 163.66L63.04 163.66L63.04 162.81L67.55 162.81L67.55 163.93L65.19 168.18Q65.08 168.38 65.03 168.53Q64.99 168.69 64.99 168.93L64.99 168.93L64.99 169.11Z M70.05 169.24L70.05 169.24Q69.73 169.24 69.52 169.03Q69.31 168.83 69.31 168.50L69.31 168.50Q69.31 168.18 69.52 167.98Q69.73 167.77 70.05 167.77L70.05 167.77Q70.36 167.77 70.57 167.98Q70.79 168.19 70.79 168.50L70.79 168.50Q70.79 168.83 70.57 169.03Q70.36 169.24 70.05 169.24Z M74.99 169.24L74.99 169.24Q74.29 169.24 73.78 169.00Q73.28 168.76 73.01 168.33Q72.74 167.89 72.74 167.31L72.74 167.31L73.70 167.31Q73.70 167.77 74.01 168.08Q74.32 168.39 74.99 168.39L74.99 168.39Q75.66 168.39 76.02 168.03Q76.38 167.67 76.38 167.05L76.38 167.05L76.38 166.30L76.24 166.30Q76.09 166.51 75.75 166.71Q75.40 166.91 74.76 166.91L74.76 166.91Q74.21 166.91 73.74 166.67Q73.27 166.42 72.99 165.97Q72.70 165.51 72.70 164.88L72.70 164.88L72.70 164.78Q72.70 164.15 73.00 163.68Q73.29 163.21 73.82 162.95Q74.34 162.69 75.03 162.69L75.03 162.69Q75.72 162.69 76.24 162.95Q76.75 163.22 77.04 163.69Q77.33 164.16 77.33 164.80L77.33 164.80L77.33 166.98Q77.33 167.72 77.04 168.22Q76.74 168.73 76.22 168.98Q75.69 169.24 74.99 169.24ZM75.02 166.14L75.02 166.14Q75.43 166.14 75.74 165.98Q76.04 165.82 76.21 165.54Q76.38 165.25 76.38 164.87L76.38 164.87L76.38 164.79Q76.38 164.21 76.01 163.87Q75.64 163.53 75.02 163.53L75.02 163.53Q74.40 163.53 74.02 163.87Q73.65 164.21 73.65 164.79L73.65 164.79L73.65 164.87Q73.65 165.25 73.82 165.54Q73.98 165.82 74.29 165.98Q74.60 166.14 75.02 166.14Z M81.58 169.24L81.58 169.24Q80.85 169.24 80.31 169.02Q79.76 168.81 79.46 168.40Q79.16 167.99 79.16 167.44L79.16 167.44L79.16 167.34Q79.16 166.89 79.33 166.60Q79.51 166.31 79.77 166.14Q80.02 165.97 80.25 165.92L80.25 165.92L80.25 165.78Q80.02 165.71 79.79 165.55Q79.55 165.38 79.41 165.10Q79.26 164.83 79.26 164.44L79.26 164.44L79.26 164.34Q79.26 163.84 79.55 163.47Q79.84 163.10 80.36 162.90Q80.89 162.69 81.58 162.69L81.58 162.69Q82.26 162.69 82.78 162.90Q83.31 163.10 83.60 163.47Q83.89 163.84 83.89 164.34L83.89 164.34L83.89 164.44Q83.89 164.83 83.74 165.10Q83.59 165.38 83.37 165.55Q83.14 165.71 82.91 165.78L82.91 165.78L82.91 165.92Q83.14 165.97 83.40 166.14Q83.65 166.31 83.82 166.60Q83.99 166.89 83.99 167.34L83.99 167.34L83.99 167.44Q83.99 167.99 83.69 168.40Q83.39 168.81 82.84 169.02Q82.30 169.24 81.58 169.24ZM81.58 168.39L81.58 168.39Q82.26 168.39 82.65 168.13Q83.05 167.86 83.05 167.39L83.05 167.39L83.05 167.31Q83.05 166.83 82.66 166.56Q82.28 166.30 81.58 166.30L81.58 166.30Q80.88 166.30 80.49 166.56Q80.10 166.83 80.10 167.31L80.10 167.31L80.10 167.39Q80.10 167.86 80.49 168.13Q80.89 168.39 81.58 168.39ZM81.58 165.45L81.58 165.45Q82.22 165.45 82.58 165.21Q82.95 164.97 82.95 164.52L82.95 164.52L82.95 164.45Q82.95 164.01 82.58 163.77Q82.21 163.53 81.58 163.53L81.58 163.53Q80.94 163.53 80.57 163.77Q80.20 164.01 80.20 164.45L80.20 164.45L80.20 164.52Q80.20 164.97 80.57 165.21Q80.93 165.45 81.58 165.45Z M87.07 165.50L87.07 165.50Q86.66 165.50 86.34 165.33Q86.02 165.15 85.82 164.83Q85.63 164.51 85.63 164.09L85.63 164.09Q85.63 163.69 85.82 163.37Q86.02 163.05 86.34 162.87Q86.66 162.69 87.07 162.69L87.07 162.69Q87.47 162.69 87.80 162.87Q88.12 163.05 88.32 163.37Q88.51 163.69 88.51 164.10L88.51 164.10Q88.51 164.51 88.32 164.83Q88.12 165.15 87.80 165.33Q87.47 165.50 87.07 165.50ZM87.07 164.78L87.07 164.78Q87.37 164.78 87.56 164.59Q87.74 164.40 87.74 164.09L87.74 164.09Q87.74 163.79 87.56 163.60Q87.37 163.42 87.07 163.42L87.07 163.42Q86.77 163.42 86.58 163.60Q86.39 163.79 86.39 164.10L86.39 164.10Q86.39 164.40 86.58 164.59Q86.77 164.78 87.07 164.78Z  M94.73 169.11L93.77 169.11L93.77 162.81L95.64 162.81L97.35 168.47L97.49 168.47L97.49 162.81L98.46 162.81L98.46 169.11L96.58 169.11L94.87 163.45L94.73 163.45L94.73 169.11Z" fill="#f1ece2" fill-opacity="0.6"></path><path d="M159.73 169.11L158.78 169.11L158.78 163.48L158.64 163.48L157.60 165.60L156.60 165.60L158.00 162.81L159.73 162.81L159.73 169.11Z M164.64 169.11L163.70 169.11L163.70 163.48L163.55 163.48L162.52 165.60L161.52 165.60L162.91 162.81L164.64 162.81L164.64 169.11Z M167.54 169.24L167.54 169.24Q167.22 169.24 167.01 169.03Q166.80 168.83 166.80 168.50L166.80 168.50Q166.80 168.18 167.01 167.98Q167.22 167.77 167.54 167.77L167.54 167.77Q167.85 167.77 168.07 167.98Q168.28 168.19 168.28 168.50L168.28 168.50Q168.28 168.83 168.07 169.03Q167.85 169.24 167.54 169.24Z M173.04 169.11L172.09 169.11L172.09 163.48L171.95 163.48L170.92 165.60L169.92 165.60L171.31 162.81L173.04 162.81L173.04 169.11Z M177.43 169.24L177.43 169.24Q176.74 169.24 176.20 168.99Q175.66 168.74 175.36 168.26Q175.06 167.78 175.06 167.13L175.06 167.13L175.06 166.96L176.00 166.96L176.00 167.11Q176.00 167.70 176.39 168.05Q176.78 168.39 177.43 168.39L177.43 168.39Q178.08 168.39 178.44 168.07Q178.80 167.75 178.80 167.25L178.80 167.25L178.80 167.17Q178.80 166.82 178.63 166.60Q178.46 166.39 178.17 166.28Q177.88 166.18 177.52 166.18L177.52 166.18L176.38 166.18L176.38 165.09L178.59 163.79L178.59 163.66L175.21 163.66L175.21 162.81L179.62 162.81L179.62 164.09L177.50 165.35L177.50 165.48L177.89 165.48Q178.37 165.48 178.79 165.66Q179.21 165.84 179.48 166.21Q179.75 166.58 179.75 167.14L179.75 167.14L179.75 167.25Q179.75 167.85 179.46 168.30Q179.17 168.75 178.65 168.99Q178.13 169.24 177.43 169.24Z M182.90 165.50L182.90 165.50Q182.49 165.50 182.17 165.33Q181.84 165.15 181.65 164.83Q181.46 164.51 181.46 164.09L181.46 164.09Q181.46 163.69 181.65 163.37Q181.84 163.05 182.17 162.87Q182.49 162.69 182.90 162.69L182.90 162.69Q183.30 162.69 183.63 162.87Q183.95 163.05 184.14 163.37Q184.34 163.69 184.34 164.10L184.34 164.10Q184.34 164.51 184.14 164.83Q183.95 165.15 183.63 165.33Q183.30 165.50 182.90 165.50ZM182.90 164.78L182.90 164.78Q183.19 164.78 183.38 164.59Q183.57 164.40 183.57 164.09L183.57 164.09Q183.57 163.79 183.38 163.60Q183.19 163.42 182.90 163.42L182.90 163.42Q182.60 163.42 182.41 163.60Q182.22 163.79 182.22 164.10L182.22 164.10Q182.22 164.40 182.41 164.59Q182.60 164.78 182.90 164.78Z  M193.61 169.11L189.59 169.11L189.59 162.81L193.56 162.81L193.56 163.70L190.57 163.70L190.57 165.50L193.31 165.50L193.31 166.39L190.57 166.39L190.57 168.23L193.61 168.23L193.61 169.11Z" fill="#f1ece2" fill-opacity="0.6"></path></svg>