<svg xmlns="http://www.w3.org/2000/svg" width="360" height="230" viewBox="0 0 360 230"><g transform="translate(53.760,118.4)"><path d="M25.536 6.240L25.536 6.240Q23.808 5.760 22.752 5.376L22.752 5.376L21.696 5.088Q21.888 4.608 21.552 4.224Q21.216 3.840 20.160 3.744L20.160 3.744Q18.720 2.784 17.184 1.056Q15.648-0.672 14.496-2.496Q13.344-4.320 12.960-5.184L12.960-5.184Q12.480-6.336 12.768-6.720L12.768-6.720Q12.864-6.912 13.056-7.008L13.056-7.008Q13.824-7.296 14.880-7.776L14.880-7.776Q15.936-8.544 17.136-8.928Q18.336-9.312 19.104-7.680L19.104-7.680Q20.352-5.472 22.992-3.936Q25.632-2.400 29.040-2.112Q32.448-1.824 35.904-3.264L35.904-3.264Q38.208-4.320 38.400-6.192Q38.592-8.064 36.960-10.560L36.960-10.560Q36.672-11.328 36.144-11.808Q35.616-12.288 34.608-13.056Q33.600-13.824 31.776-15.552L31.776-15.552Q30.336-16.224 29.136-16.800Q27.936-17.376 26.592-18.048L26.592-18.048Q25.056-18.816 23.136-20.208Q21.216-21.600 19.584-23.280Q17.952-24.960 17.088-26.496L17.088-26.496Q15.552-27.936 15.168-30.480Q14.784-33.024 15.312-35.904Q15.840-38.784 17.088-41.088L17.088-41.088Q17.664-42.432 19.200-44.592Q20.736-46.752 22.656-49.056Q24.576-51.360 26.352-53.232Q28.128-55.104 29.184-55.776L29.184-55.776Q29.952-56.544 30.816-57.408L30.816-57.408L31.680-58.176Q31.776-58.656 32.064-58.656L32.064-58.656L32.256-58.656Q32.736-58.944 34.368-59.616Q36-60.288 37.920-62.112L37.920-62.112Q44.352-65.184 48.864-66.288Q53.376-67.392 55.968-67.392L55.968-67.392Q58.368-67.296 60.672-66.096Q62.976-64.896 64.656-63.072Q66.336-61.248 66.624-58.944L66.624-58.944Q67.296-56.640 66-53.424Q64.704-50.208 62.448-47.376Q60.192-44.544 57.792-43.200L57.792-43.200Q55.104-42.048 53.232-42.912Q51.360-43.776 51.456-45.600L51.456-45.600Q51.456-46.368 51.984-47.424Q52.512-48.480 54.912-51.168L54.912-51.168Q57.984-55.680 58.176-57.600Q58.368-59.520 56.448-59.808L56.448-59.808Q55.872-60 54.240-59.712Q52.608-59.424 50.736-58.992Q48.864-58.560 47.472-58.080Q46.080-57.600 46.080-57.408L46.080-57.408L46.080-57.120Q46.080-57.024 45.984-56.928L45.984-56.928Q45.984-56.832 45.696-56.928L45.696-56.928Q45.504-56.928 44.400-56.304Q43.296-55.680 41.760-54.720Q40.224-53.760 38.736-52.752Q37.248-51.744 36.192-50.976Q35.136-50.208 35.040-50.016L35.040-50.016Q34.848-48.960 32.832-48.096L32.832-48.096Q30.912-46.944 29.472-44.832Q28.032-42.720 26.112-39.456L26.112-39.456Q24.480-37.248 23.808-34.704Q23.136-32.160 23.808-30.624L23.808-30.624Q24.288-29.088 26.448-27.600Q28.608-26.112 32.352-23.904L32.352-23.904Q35.616-22.080 38.496-20.064Q41.376-18.048 43.392-16.176Q45.408-14.304 45.984-13.056L45.984-13.056Q47.136-11.424 47.376-9.312Q47.616-7.200 47.376-5.232Q47.136-3.264 46.752-2.016L46.752-2.016Q46.080-0.480 44.688 1.248Q43.296 2.976 42.144 2.880L42.144 2.880Q41.088 3.168 40.560 3.552Q40.032 3.936 39.360 4.224L39.360 4.224Q38.688 4.608 36.192 5.136Q33.696 5.664 30.720 6Q27.744 6.336 25.536 6.240Z M75.648-1.920L75.648-1.920Q72.768-0.288 69.552-0.048Q66.336 0.192 63.552-0.912Q60.768-2.016 59.040-4.224L59.040-4.224Q58.080-5.472 57.216-8.208Q56.352-10.944 56.928-15.648L56.928-15.648Q57.504-20.064 59.664-24.576Q61.824-29.088 64.992-32.544Q68.160-36 71.904-37.248L71.904-37.248Q73.248-37.728 74.640-37.968Q76.032-38.208 78.336-38.016L78.336-38.016Q80.544-37.728 82.272-36.912Q84-36.096 84.768-35.136L84.768-35.136Q86.304-33.600 86.784-32.160Q87.264-30.720 87.168-29.376L87.168-29.376Q86.688-26.304 84.432-22.752Q82.176-19.200 78.144-17.472L78.144-17.472Q76.512-16.800 74.304-16.608Q72.096-16.416 68.256-17.184L68.256-17.184Q65.952-17.664 65.232-16.704Q64.512-15.744 64.608-12.960L64.608-12.960Q64.800-11.232 65.424-9.936Q66.048-8.640 67.776-8.160L67.776-8.160Q69.984-7.776 70.944-8.112Q71.904-8.448 73.344-9.120L73.344-9.120Q74.112-9.600 74.880-10.176L74.880-10.176L76.320-11.328Q76.992-11.904 77.472-12.192L77.472-12.192Q77.952-12.576 78.432-12.672Q78.912-12.768 79.392-12.768L79.392-12.768Q80.448-12.672 81.408-11.616Q82.368-10.560 82.656-9.600L82.656-9.600Q82.656-8.832 81.696-7.440Q80.736-6.048 79.152-4.560Q77.568-3.072 75.648-1.920ZM74.400-23.328L74.400-23.328Q75.072-23.616 76.368-24.672Q77.664-25.728 78.720-26.928Q79.776-28.128 79.776-28.800L79.776-28.800Q79.776-29.856 78.384-30.624Q76.992-31.392 74.784-30.912L74.784-30.912Q74.016-30.720 72.960-29.856Q71.904-28.992 70.848-27.888Q69.792-26.784 69.024-25.776Q68.256-24.768 67.968-24.192L67.968-24.192Q68.352-23.712 69.504-23.424Q70.656-23.136 72.048-23.136Q73.440-23.136 74.400-23.328Z M107.712-1.920L107.712-1.920Q104.832-0.288 101.616-0.048Q98.400 0.192 95.616-0.912Q92.832-2.016 91.104-4.224L91.104-4.224Q90.144-5.472 89.280-8.208Q88.416-10.944 88.992-15.648L88.992-15.648Q89.568-20.064 91.728-24.576Q93.888-29.088 97.056-32.544Q100.224-36 103.968-37.248L103.968-37.248Q105.312-37.728 106.704-37.968Q108.096-38.208 110.400-38.016L110.400-38.016Q112.608-37.728 114.336-36.912Q116.064-36.096 116.832-35.136L116.832-35.136Q118.368-33.600 118.848-32.160Q119.328-30.720 119.232-29.376L119.232-29.376Q118.752-26.304 116.496-22.752Q114.240-19.200 110.208-17.472L110.208-17.472Q108.576-16.800 106.368-16.608Q104.160-16.416 100.320-17.184L100.320-17.184Q98.016-17.664 97.296-16.704Q96.576-15.744 96.672-12.960L96.672-12.960Q96.864-11.232 97.488-9.936Q98.112-8.640 99.840-8.160L99.840-8.160Q102.048-7.776 103.008-8.112Q103.968-8.448 105.408-9.120L105.408-9.120Q106.176-9.600 106.944-10.176L106.944-10.176L108.384-11.328Q109.056-11.904 109.536-12.192L109.536-12.192Q110.016-12.576 110.496-12.672Q110.976-12.768 111.456-12.768L111.456-12.768Q112.512-12.672 113.472-11.616Q114.432-10.560 114.720-9.600L114.720-9.600Q114.720-8.832 113.760-7.440Q112.800-6.048 111.216-4.560Q109.632-3.072 107.712-1.920ZM106.464-23.328L106.464-23.328Q107.136-23.616 108.432-24.672Q109.728-25.728 110.784-26.928Q111.840-28.128 111.840-28.800L111.840-28.800Q111.840-29.856 110.448-30.624Q109.056-31.392 106.848-30.912L106.848-30.912Q106.080-30.720 105.024-29.856Q103.968-28.992 102.912-27.888Q101.856-26.784 101.088-25.776Q100.320-24.768 100.032-24.192L100.032-24.192Q100.416-23.712 101.568-23.424Q102.720-23.136 104.112-23.136Q105.504-23.136 106.464-23.328Z M132.192 19.200L132.192 19.200Q129.504 20.256 126.576 18.864Q123.648 17.472 121.536 14.496L121.536 14.496Q121.152 13.920 120.384 12.432Q119.616 10.944 118.896 9.216Q118.176 7.488 117.840 6.240Q117.504 4.992 117.792 4.800L117.792 4.800Q118.176 3.744 119.520 3.552Q120.864 3.360 122.208 3.696Q123.552 4.032 123.744 4.608L123.744 4.608Q124.032 5.280 124.320 6Q124.608 6.720 125.040 7.344Q125.472 7.968 125.856 8.448L125.856 8.448Q126.912 10.080 128.160 10.704Q129.408 11.328 130.080 10.848L130.080 10.848Q131.712 9.600 132.528 7.920Q133.344 6.240 134.688 2.016L134.688 2.016Q135.744-1.536 136.512-4.128Q137.280-6.720 138.144-8.928L138.144-8.928Q138.432-10.080 138.912-10.944L138.912-10.944Q139.008-11.136 139.104-11.328L139.104-11.328Q137.760-10.368 136.704-9.408L136.704-9.408Q135.264-8.064 132.768-7.008L132.768-7.008Q132.192-6.336 129.936-6.192Q127.680-6.048 125.568-6.720L125.568-6.720Q124.224-7.488 123.408-8.304Q122.592-9.120 122.064-10.176Q121.536-11.232 120.960-12.672L120.960-12.672Q120.288-14.112 120.768-17.376Q121.248-20.640 122.496-23.904L122.496-23.904Q123.648-26.304 125.856-29.088Q128.064-31.872 130.560-34.128Q133.056-36.384 135.072-36.960L135.072-36.960Q135.840-37.344 137.760-37.872Q139.680-38.400 141.408-37.920L141.408-37.920Q143.040-37.728 143.904-37.200Q144.768-36.672 146.688-35.040L146.688-35.040Q147.936-33.792 149.760-31.824Q151.584-29.856 152.064-28.512L152.064-28.512Q152.736-27.072 152.352-25.392Q151.968-23.712 151.008-22.464L151.008-22.464Q150.144-21.216 149.184-19.968Q148.224-18.720 147.744-16.512L147.744-16.512Q147.264-13.632 145.920-10.032Q144.576-6.432 143.808-3.360L143.808-3.360L142.272 2.592Q139.872 10.752 136.992 14.448Q134.112 18.144 132.192 19.200ZM130.176-13.824L130.176-13.824Q132.096-13.920 133.488-14.256Q134.880-14.592 136.128-15.792Q137.376-16.992 139.008-19.488L139.008-19.488Q140.640-21.792 141.312-23.712Q141.984-25.632 141.792-28.032L141.792-28.032Q141.696-29.568 140.928-30.048Q140.160-30.528 138.912-30.336L138.912-30.336Q137.088-30.048 135.648-28.848Q134.208-27.648 132.288-25.152L132.288-25.152Q130.848-23.232 129.888-20.544L129.888-20.544Q128.928-17.664 129.072-15.936Q129.216-14.208 130.176-13.824Z M160.608 11.616L160.608 11.616Q160.032 12 158.016 10.704Q156.000 9.408 154.656 7.872L154.656 7.872Q153.984 7.104 153.792 6.240Q153.600 5.376 153.888 2.976L153.888 2.976Q154.272 1.920 154.320 0.960Q154.368 0 154.368-0.384L154.368-0.384Q154.368-0.960 154.704-3.072Q155.040-5.184 155.424-7.536Q155.808-9.888 156.096-11.136L156.096-11.136Q156.096-11.232 156.240-11.808Q156.384-12.384 156.480-12.672L156.480-12.672Q156.672-13.536 156.960-14.784Q157.248-16.032 157.536-18.144L157.536-18.144Q158.304-20.544 158.832-22.896Q159.360-25.248 159.360-26.112L159.360-26.112Q159.360-27.840 160.704-28.608L160.704-28.608Q160.800-29.088 161.280-30.096Q161.760-31.104 162.144-31.776L162.144-31.776Q164.064-37.248 165.312-40.512Q166.560-43.776 167.904-46.176L167.904-46.176Q168.480-47.808 169.200-49.536Q169.920-51.264 170.688-52.224L170.688-52.224Q171.360-53.568 173.040-55.536Q174.720-57.504 176.640-59.328Q178.560-61.152 179.712-62.016L179.712-62.016Q181.824-63.072 183.648-63.744Q185.472-64.416 187.488-64.416L187.488-64.416Q189.312-64.416 190.704-63.600Q192.096-62.784 194.880-60.288L194.880-60.288Q195.840-59.040 195.840-57.888Q195.840-56.736 195.360-55.968L195.360-55.968Q194.688-54.432 193.344-52.176Q192-49.920 190.752-48.144Q189.504-46.368 188.928-46.272L188.928-46.272Q187.776-45.600 186.528-45.888Q185.280-46.176 185.280-47.616L185.280-47.616Q185.280-48.288 185.376-48.864L185.376-48.864L185.376-49.440Q185.664-50.688 186.096-51.648Q186.528-52.608 186.912-53.280L186.912-53.280Q187.680-54.528 187.344-55.680Q187.008-56.832 184.896-56.640L184.896-56.640Q184.608-56.448 183.792-55.728Q182.976-55.008 182.064-54.096Q181.152-53.184 180.480-52.368Q179.808-51.552 179.808-51.264L179.808-51.264L179.328-50.304Q178.752-49.248 177.696-48L177.696-48Q177.024-47.040 176.544-46.176Q176.064-45.312 176.064-44.832L176.064-44.832Q176.064-44.448 175.968-44.160Q175.872-43.872 175.488-43.872L175.488-43.872L175.200-42.912Q174.816-41.952 174.048-40.608L174.048-40.608Q173.664-39.648 173.232-38.832Q172.800-38.016 172.416-37.632L172.416-37.632L172.320-37.440L171.936-36.384Q171.456-35.232 170.976-34.080Q170.496-32.928 170.496-32.736L170.496-32.736Q170.496-32.352 171.648-32.352Q172.800-32.352 174.432-32.688Q176.064-33.024 177.600-33.408L177.600-33.408Q178.944-33.792 179.520-33.792Q180.096-33.792 181.344-33.408L181.344-33.408Q182.112-32.928 182.592-31.728Q183.072-30.528 183.312-29.328Q183.552-28.128 183.360-27.552L183.360-27.552Q183.264-27.168 181.200-26.496Q179.136-25.824 177.120-25.440L177.120-25.440Q175.392-25.056 173.232-24.624Q171.072-24.192 169.440-23.760Q167.808-23.328 167.712-22.944L167.712-22.944Q167.328-22.944 167.088-22.464Q166.848-21.984 166.848-21.600L166.848-21.600Q166.848-20.352 166.368-19.584L166.368-19.584Q166.176-19.008 165.744-17.232Q165.312-15.456 164.880-13.392Q164.448-11.328 164.112-9.552Q163.776-7.776 163.776-7.200L163.776-7.200Q163.200-6.528 163.104-5.520Q163.008-4.512 163.008-3.744L163.008-3.744Q162.624-2.976 162.528-2.352Q162.432-1.728 162.432-1.344L162.432-1.344L162.432-0.960Q162.432-0.672 162.336-0.384L162.336-0.384Q162.240 0.576 162.096 2.160Q161.952 3.744 161.952 5.280L161.952 5.280L161.664 8.064Q161.568 9.312 161.328 10.224Q161.088 11.136 160.608 11.616Z M207.648-0.192L207.648-0.192Q206.688-1.152 206.112-2.832Q205.536-4.512 204.960-6.720L204.960-6.720Q204.768-7.488 204.816-8.448Q204.864-9.408 204.768-9.984L204.768-9.984Q204.480-9.312 203.856-8.256Q203.232-7.200 202.656-6.720L202.656-6.720Q202.272-6.336 200.928-5.232Q199.584-4.128 198.240-3.456L198.240-3.456Q195.072-1.440 192.624-1.584Q190.176-1.728 188.352-4.032L188.352-4.032Q186.816-5.280 185.856-7.200Q184.896-9.120 185.472-11.808L185.472-11.808Q185.664-15.168 186.432-18.384Q187.200-21.600 189.600-26.976L189.600-26.976Q191.616-30.912 192.672-33.120Q193.728-35.328 194.016-35.712L194.016-35.712Q195.456-36.192 197.568-35.664Q199.680-35.136 199.872-33.792L199.872-33.792Q200.448-32.832 199.872-30.192Q199.296-27.552 197.568-24.192L197.568-24.192Q196.224-20.928 195.024-17.856Q193.824-14.784 193.584-12.672Q193.344-10.560 194.688-10.080L194.688-10.080Q195.552-9.600 197.232-10.176Q198.912-10.752 201.216-13.632Q203.520-16.512 206.112-22.752L206.112-22.752Q206.880-24.672 207.264-26.160Q207.648-27.648 207.744-29.472L207.744-29.472Q207.552-30.624 208.368-31.872Q209.184-33.120 210.336-33.792L210.336-33.792Q210.720-34.272 211.392-34.752L211.392-34.752Q211.872-35.040 212.064-34.848L212.064-34.848Q212.160-34.848 212.256-34.656L212.256-34.656L213.792-34.752Q214.176-34.848 214.656-33.984Q215.136-33.120 215.616-32.736L215.616-32.736Q216.672-31.872 216.576-28.992Q216.480-26.112 214.272-20.928L214.272-20.928Q212.448-16.992 211.824-14.976Q211.200-12.960 211.104-11.040L211.104-11.040Q211.104-9.312 211.392-8.112Q211.680-6.912 213.120-5.664L213.120-5.664Q214.176-4.992 214.320-3.408Q214.464-1.824 214.368-0.672L214.368-0.672Q214.176 0.192 212.880 0.528Q211.584 0.864 210.096 0.672Q208.608 0.480 207.648-0.192Z M220.800-1.632L220.800-1.632Q220.032-2.400 219.696-3.936Q219.360-5.472 219.456-6.960Q219.552-8.448 219.936-9.216L219.936-9.216Q219.936-9.984 220.176-10.416Q220.416-10.848 220.320-11.232L220.320-11.232Q220.224-11.616 220.512-12.576Q220.800-13.536 221.088-14.400L221.088-14.400Q221.760-15.936 222.624-18.384Q223.488-20.832 224.352-23.376Q225.216-25.920 225.792-27.792Q226.368-29.664 226.464-30.048L226.464-30.048Q226.464-31.200 228-31.296L228-31.296Q229.152-31.680 230.784-30.336Q232.416-28.992 233.376-27.456L233.376-27.456Q234.144-26.688 233.952-25.440Q233.760-24.192 232.704-21.888L232.704-21.888Q232.320-21.120 231.792-19.344Q231.264-17.568 231.072-16.416L231.072-16.416Q230.688-15.648 230.160-14.256Q229.632-12.864 229.248-11.616L229.248-11.616Q229.056-11.136 228.864-9.840Q228.672-8.544 228.384-7.200Q228.096-5.856 227.616-5.088L227.616-5.088Q226.752-1.152 224.592-0.480Q222.432 0.192 220.800-1.632ZM231.168-40.128L231.168-40.128Q230.112-40.896 229.584-42Q229.056-43.104 229.008-43.968Q228.960-44.832 229.152-45.024L229.152-45.024Q230.112-46.080 230.832-47.808Q231.552-49.536 232.416-50.976L232.416-50.976Q232.608-51.264 232.944-51.792Q233.280-52.320 233.664-52.416L233.664-52.416Q234.816-53.184 236.880-52.320Q238.944-51.456 239.904-49.920L239.904-49.920Q240.768-48.096 240.432-46.176Q240.096-44.256 238.368-42.144L238.368-42.144Q236.928-40.224 234.720-39.696Q232.512-39.168 231.168-40.128Z" fill="#f1ece2"></path></g><g transform="translate(106.116,159.6)"><path d="M2.128 0L0.336 0L3.536-11.200L6.576-11.200L9.760 0L7.984 0L7.248-2.640L2.864-2.640L2.128 0ZM4.928-10.128L3.296-4.240L6.816-4.240L5.184-10.128L4.928-10.128Z M21.960 0L20.280 0L20.280-11.200L23.528-11.200L25.976-1.152L26.232-1.152L28.680-11.200L31.928-11.200L31.928 0L30.248 0L30.248-9.984L29.992-9.984L27.560 0L24.648 0L22.216-9.984L21.960-9.984L21.960 0Z M44.944 0L43.264 0L43.264-11.200L46.512-11.200L48.960-1.152L49.216-1.152L51.664-11.200L54.912-11.200L54.912 0L53.232 0L53.232-9.984L52.976-9.984L50.544 0L47.632 0L45.200-9.984L44.944-9.984L44.944 0Z M73.384 0L66.248 0L66.248-11.200L73.304-11.200L73.304-9.632L67.976-9.632L67.976-6.416L72.856-6.416L72.856-4.848L67.976-4.848L67.976-1.568L73.384-1.568L73.384 0Z M85.920 0L84.192 0L84.192-11.200L88.896-11.200Q89.936-11.200 90.728-10.840Q91.520-10.480 91.960-9.808Q92.400-9.136 92.400-8.208L92.400-8.208L92.400-8.032Q92.400-6.976 91.896-6.344Q91.392-5.712 90.672-5.456L90.672-5.456L90.672-5.200Q91.280-5.168 91.648-4.792Q92.016-4.416 92.016-3.712L92.016-3.712L92.016 0L90.272 0L90.272-3.472Q90.272-3.904 90.048-4.160Q89.824-4.416 89.328-4.416L89.328-4.416L85.920-4.416L85.920 0ZM85.920-9.632L85.920-5.984L88.704-5.984Q89.632-5.984 90.144-6.456Q90.656-6.928 90.656-7.744L90.656-7.744L90.656-7.872Q90.656-8.688 90.152-9.160Q89.648-9.632 88.704-9.632L88.704-9.632L85.920-9.632Z M107.112 0.224L107.112 0.224Q105.848 0.224 104.872-0.224Q103.896-0.672 103.344-1.544Q102.792-2.416 102.792-3.664L102.792-3.664L102.792-4.064L104.504-4.064L104.504-3.664Q104.504-2.480 105.216-1.888Q105.928-1.296 107.112-1.296L107.112-1.296Q108.312-1.296 108.920-1.800Q109.528-2.304 109.528-3.104L109.528-3.104Q109.528-3.632 109.240-3.968Q108.952-4.304 108.424-4.504Q107.896-4.704 107.160-4.880L107.160-4.880L106.568-5.024Q105.496-5.280 104.704-5.656Q103.912-6.032 103.480-6.656Q103.048-7.280 103.048-8.256L103.048-8.256Q103.048-9.248 103.536-9.952Q104.024-10.656 104.888-11.040Q105.752-11.424 106.920-11.424L106.920-11.424Q108.088-11.424 109.008-11.024Q109.928-10.624 110.456-9.840Q110.984-9.056 110.984-7.872L110.984-7.872L110.984-7.296L109.272-7.296L109.272-7.872Q109.272-8.592 108.976-9.040Q108.680-9.488 108.152-9.696Q107.624-9.904 106.920-9.904L106.920-9.904Q105.896-9.904 105.328-9.480Q104.760-9.056 104.760-8.304L104.760-8.304Q104.760-7.792 105.008-7.464Q105.256-7.136 105.736-6.928Q106.216-6.720 106.936-6.560L106.936-6.560L107.528-6.416Q108.616-6.176 109.448-5.800Q110.280-5.424 110.760-4.784Q111.240-4.144 111.240-3.136L111.240-3.136Q111.240-2.128 110.736-1.376Q110.232-0.624 109.304-0.200Q108.376 0.224 107.112 0.224Z M129.184 0L122.048 0L122.048-11.200L129.104-11.200L129.104-9.632L123.776-9.632L123.776-6.416L128.656-6.416L128.656-4.848L123.776-4.848L123.776-1.568L129.184-1.568L129.184 0Z M147.128 0L139.992 0L139.992-11.200L147.048-11.200L147.048-9.632L141.720-9.632L141.720-6.416L146.600-6.416L146.600-4.848L141.720-4.848L141.720-1.568L147.128-1.568L147.128 0Z" fill="#d8b66a"></path></g></svg>