<svg xmlns="http://www.w3.org/2000/svg" width="1380" height="2040" viewBox="0 0 230 340"><path d="M25.2,-72.2 L22.6,-75 L20.5,-75 L14.9,-72.5 L6.9,-51.7 L5,-48.1 L2.9,-46.5 L1,-41.4 L-0.9,-40 L-4.5,-32.7 L-4,-29.4 L-7.3,-27.5 L-7,-25.3 L-8.8,-21.6 L-11.1,-11.2 L-14.8,-7 L-14.8,-3.5 L-17.7,-2.1 L-17.1,-0.7 L-17.6,1 L-20.3,3 L-20.4,4.7 L-22.3,6.7 L-22.8,8.6 L-22,10.8 L-24.2,12.6 L-25.2,16 L-24.7,18.8 L-22,21.4 L-20.1,21 L-17.8,18.6 L-16.3,19 L-16.8,22.5 L-14.6,25.9 L-14.1,31.2 L-9.1,36.6 L-7.3,41.9 L-7.8,45.3 L-11.2,47.9 L-11.9,51.8 L-12.7,52.3 L-13,61.3 L-14,63.5 L-12.8,67 L-0.2,75 L6.5,74 L8,74.9 L10.3,73.9 L10.6,72.7 L11.5,73.2 L13,69.8 L11.7,66.1 L12.5,65.6 L12,63.7 L13.4,62 L13.6,59.1 L11,34.9 L9.7,32.1 L10.5,27.3 L10.2,17.4 L11.2,11.5 L10.7,0.7 L9.1,-9.1 L10,-17.5 L15.3,-32.9 L15.9,-38 L20,-52.1 L25.1,-59.7 L24.5,-68.4 Z M-9.2,-8 L-9.73,-6.16 L-11,-5.4 L-12.27,-6.16 L-12.8,-8 L-12.27,-9.84 L-11,-10.6 L-9.73,-9.84 Z" fill="#a9842b" fill-opacity="0.11" fill-rule="evenodd" transform="translate(115 178) scale(2.00000) translate(0.00 0.00)"></path><path d="M25.2,-72.2 L22.6,-75 L20.5,-75 L14.9,-72.5 L6.9,-51.7 L5,-48.1 L2.9,-46.5 L1,-41.4 L-0.9,-40 L-4.5,-32.7 L-4,-29.4 L-7.3,-27.5 L-7,-25.3 L-8.8,-21.6 L-11.1,-11.2 L-14.8,-7 L-14.8,-3.5 L-17.7,-2.1 L-17.1,-0.7 L-17.6,1 L-20.3,3 L-20.4,4.7 L-22.3,6.7 L-22.8,8.6 L-22,10.8 L-24.2,12.6 L-25.2,16 L-24.7,18.8 L-22,21.4 L-20.1,21 L-17.8,18.6 L-16.3,19 L-16.8,22.5 L-14.6,25.9 L-14.1,31.2 L-9.1,36.6 L-7.3,41.9 L-7.8,45.3 L-11.2,47.9 L-11.9,51.8 L-12.7,52.3 L-13,61.3 L-14,63.5 L-12.8,67 L-0.2,75 L6.5,74 L8,74.9 L10.3,73.9 L10.6,72.7 L11.5,73.2 L13,69.8 L11.7,66.1 L12.5,65.6 L12,63.7 L13.4,62 L13.6,59.1 L11,34.9 L9.7,32.1 L10.5,27.3 L10.2,17.4 L11.2,11.5 L10.7,0.7 L9.1,-9.1 L10,-17.5 L15.3,-32.9 L15.9,-38 L20,-52.1 L25.1,-59.7 L24.5,-68.4 Z M-9.2,-8 L-9.73,-6.16 L-11,-5.4 L-12.27,-6.16 L-12.8,-8 L-12.27,-9.84 L-11,-10.6 L-9.73,-9.84 Z" fill="none" stroke="#a9842b" stroke-opacity="0.5" stroke-width="0.90" stroke-linejoin="round" stroke-linecap="round" transform="translate(115 178) scale(2.00000) translate(0.00 0.00)"></path><path d="M20.69 62.78L15.67 62.78L22.46 36.92L30.96 36.92L37.76 62.78L32.74 62.78L31.33 57.09L22.09 57.09L20.69 62.78ZM26.38 39.99L23.24 52.59L30.19 52.59L27.05 39.99L26.38 39.99Z M45.67 62.78L41.01 62.78L41.01 44.46L45.59 44.46L45.59 46.45L46.26 46.45Q46.74 45.53 47.85 44.85Q48.96 44.16 50.77 44.16L50.77 44.16Q52.72 44.16 53.91 44.92Q55.09 45.68 55.72 46.90L55.72 46.90L56.38 46.90Q57.01 45.71 58.16 44.94Q59.30 44.16 61.41 44.16L61.41 44.16Q63.11 44.16 64.49 44.88Q65.88 45.60 66.71 47.06Q67.54 48.52 67.54 50.74L67.54 50.74L67.54 62.78L62.88 62.78L62.88 51.07Q62.88 49.56 62.11 48.80Q61.33 48.04 59.93 48.04L59.93 48.04Q58.34 48.04 57.47 49.06Q56.60 50.07 56.60 51.96L56.60 51.96L56.60 62.78L51.95 62.78L51.95 51.07Q51.95 49.56 51.17 48.80Q50.40 48.04 48.99 48.04L48.99 48.04Q47.40 48.04 46.54 49.06Q45.67 50.07 45.67 51.96L45.67 51.96L45.67 62.78Z M77.22 62.78L72.57 62.78L72.57 44.46L77.15 44.46L77.15 46.45L77.81 46.45Q78.29 45.53 79.40 44.85Q80.51 44.16 82.32 44.16L82.32 44.16Q84.28 44.16 85.46 44.92Q86.64 45.68 87.27 46.90L87.27 46.90L87.94 46.90Q88.56 45.71 89.71 44.94Q90.85 44.16 92.96 44.16L92.96 44.16Q94.66 44.16 96.05 44.88Q97.43 45.60 98.26 47.06Q99.09 48.52 99.09 50.74L99.09 50.74L99.09 62.78L94.44 62.78L94.44 51.07Q94.44 49.56 93.66 48.80Q92.89 48.04 91.48 48.04L91.48 48.04Q89.89 48.04 89.03 49.06Q88.16 50.07 88.16 51.96L88.16 51.96L88.16 62.78L83.50 62.78L83.50 51.07Q83.50 49.56 82.73 48.80Q81.95 48.04 80.55 48.04L80.55 48.04Q78.96 48.04 78.09 49.06Q77.22 50.07 77.22 51.96L77.22 51.96L77.22 62.78Z M112.47 63.30L112.47 63.30Q109.73 63.30 107.65 62.14Q105.56 60.97 104.40 58.85Q103.23 56.72 103.23 53.84L103.23 53.84L103.23 53.40Q103.23 50.52 104.38 48.39Q105.52 46.27 107.59 45.10Q109.66 43.94 112.40 43.94L112.40 43.94Q115.09 43.94 117.09 45.14Q119.08 46.34 120.19 48.47Q121.30 50.59 121.30 53.40L121.30 53.40L121.30 54.99L107.96 54.99Q108.04 56.87 109.37 58.05Q110.70 59.24 112.62 59.24L112.62 59.24Q114.58 59.24 115.50 58.39Q116.42 57.54 116.90 56.50L116.90 56.50L120.71 58.50Q120.19 59.46 119.21 60.59Q118.23 61.71 116.61 62.51Q114.98 63.30 112.47 63.30ZM108.00 51.51L108.00 51.51L116.57 51.51Q116.42 49.93 115.30 48.97Q114.17 48.00 112.36 48.00L112.36 48.00Q110.47 48.00 109.37 48.97Q108.26 49.93 108.00 51.51Z M130.09 62.78L125.44 62.78L125.44 44.46L130.02 44.46L130.02 46.53L130.68 46.53Q131.09 45.42 132.03 44.90Q132.98 44.38 134.23 44.38L134.23 44.38L136.45 44.38L136.45 48.52L134.16 48.52Q132.38 48.52 131.24 49.46Q130.09 50.41 130.09 52.36L130.09 52.36L130.09 62.78Z M144.72 62.78L140.07 62.78L140.07 36.92L144.72 36.92L144.72 62.78Z M155.59 63.30L155.59 63.30Q153.63 63.30 152.08 62.62Q150.53 61.93 149.62 60.62Q148.72 59.31 148.72 57.43L148.72 57.43Q148.72 55.54 149.62 54.27Q150.53 52.99 152.13 52.35Q153.74 51.70 155.81 51.70L155.81 51.70L160.83 51.70L160.83 50.67Q160.83 49.37 160.02 48.54Q159.21 47.71 157.43 47.71L157.43 47.71Q155.70 47.71 154.85 48.50Q154.00 49.30 153.74 50.55L153.74 50.55L149.45 49.11Q149.90 47.71 150.88 46.55Q151.86 45.38 153.50 44.66Q155.14 43.94 157.51 43.94L157.51 43.94Q161.13 43.94 163.24 45.75Q165.34 47.56 165.34 51.00L165.34 51.00L165.34 57.83Q165.34 58.94 166.38 58.94L166.38 58.94L167.85 58.94L167.85 62.78L164.75 62.78Q163.38 62.78 162.50 62.12Q161.61 61.45 161.61 60.35L161.61 60.35L161.61 60.31L160.91 60.31Q160.76 60.75 160.24 61.47Q159.73 62.19 158.62 62.75Q157.51 63.30 155.59 63.30ZM156.40 59.53L156.40 59.53Q158.36 59.53 159.60 58.44Q160.83 57.35 160.83 55.54L160.83 55.54L160.83 55.17L156.14 55.17Q154.85 55.17 154.11 55.73Q153.37 56.28 153.37 57.28L153.37 57.28Q153.37 58.28 154.15 58.90Q154.92 59.53 156.40 59.53Z M175.91 62.78L171.25 62.78L171.25 44.46L175.84 44.46L175.84 46.86L176.50 46.86Q176.94 45.90 178.16 45.03Q179.38 44.16 181.86 44.16L181.86 44.16Q184.00 44.16 185.61 45.14Q187.22 46.12 188.10 47.84Q188.99 49.56 188.99 51.85L188.99 51.85L188.99 62.78L184.33 62.78L184.33 52.22Q184.33 50.15 183.32 49.11Q182.30 48.08 180.42 48.08L180.42 48.08Q178.27 48.08 177.09 49.50Q175.91 50.92 175.91 53.47L175.91 53.47L175.91 62.78Z M201.40 63.30L201.40 63.30Q199.22 63.30 197.32 62.21Q195.42 61.12 194.27 59.02Q193.13 56.91 193.13 53.92L193.13 53.92L193.13 53.33Q193.13 50.33 194.27 48.23Q195.42 46.12 197.30 45.03Q199.19 43.94 201.40 43.94L201.40 43.94Q203.07 43.94 204.19 44.33Q205.32 44.72 206.02 45.31Q206.72 45.90 207.09 46.56L207.09 46.56L207.76 46.56L207.76 36.92L212.41 36.92L212.41 62.78L207.83 62.78L207.83 60.57L207.17 60.57Q206.54 61.60 205.23 62.45Q203.92 63.30 201.40 63.30ZM202.81 59.24L202.81 59.24Q204.95 59.24 206.39 57.85Q207.83 56.47 207.83 53.81L207.83 53.81L207.83 53.44Q207.83 50.78 206.41 49.39Q204.99 48.00 202.81 48.00L202.81 48.00Q200.66 48.00 199.22 49.39Q197.78 50.78 197.78 53.44L197.78 53.44L197.78 53.81Q197.78 56.47 199.22 57.85Q200.66 59.24 202.81 59.24Z" fill="#1d1c19"></path><path d="M54.95 87.18L54.95 87.18Q54.04 87.18 53.26 86.73Q52.48 86.28 52.00 85.43Q51.53 84.58 51.53 83.38L51.53 83.38L51.53 83.16Q51.53 81.97 52.00 81.12Q52.46 80.26 53.24 79.81Q54.02 79.36 54.95 79.36L54.95 79.36Q55.67 79.36 56.16 79.54Q56.65 79.72 56.96 80.00Q57.28 80.28 57.44 80.58L57.44 80.58L57.68 80.58L57.68 76.47L59.23 76.47L59.23 86.97L57.71 86.97L57.71 85.92L57.47 85.92Q57.19 86.40 56.61 86.79Q56.03 87.18 54.95 87.18ZM55.39 85.83L55.39 85.83Q56.39 85.83 57.04 85.18Q57.70 84.54 57.70 83.34L57.70 83.34L57.70 83.20Q57.70 82.02 57.05 81.37Q56.41 80.73 55.39 80.73L55.39 80.73Q54.40 80.73 53.74 81.37Q53.09 82.02 53.09 83.20L53.09 83.20L53.09 83.34Q53.09 84.54 53.74 85.18Q54.40 85.83 55.39 85.83Z M64.80 87.18L64.80 87.18Q64.01 87.18 63.38 86.91Q62.76 86.64 62.39 86.11Q62.03 85.59 62.03 84.84L62.03 84.84Q62.03 84.07 62.39 83.57Q62.76 83.07 63.40 82.81Q64.04 82.56 64.85 82.56L64.85 82.56L67.10 82.56L67.10 82.08Q67.10 81.43 66.71 81.04Q66.32 80.65 65.51 80.65L65.51 80.65Q64.71 80.65 64.29 81.03Q63.87 81.40 63.74 82.00L63.74 82.00L62.30 81.54Q62.48 80.94 62.88 80.45Q63.27 79.96 63.93 79.66Q64.59 79.36 65.52 79.36L65.52 79.36Q66.96 79.36 67.79 80.10Q68.61 80.83 68.61 82.18L68.61 82.18L68.61 85.23Q68.61 85.68 69.03 85.68L69.03 85.68L69.66 85.68L69.66 86.97L68.51 86.97Q67.98 86.97 67.65 86.70Q67.32 86.43 67.32 85.96L67.32 85.96L67.32 85.92L67.10 85.92Q66.98 86.14 66.74 86.44Q66.50 86.74 66.03 86.96Q65.57 87.18 64.80 87.18ZM65.03 85.90L65.03 85.90Q65.96 85.90 66.53 85.37Q67.10 84.84 67.10 83.91L67.10 83.91L67.10 83.76L64.94 83.76Q64.32 83.76 63.95 84.02Q63.57 84.28 63.57 84.79L63.57 84.79Q63.57 85.30 63.96 85.60Q64.35 85.90 65.03 85.90Z  M81.26 87.18L81.26 87.18Q80.18 87.18 79.60 86.79Q79.03 86.40 78.74 85.92L78.74 85.92L78.50 85.92L78.50 86.97L76.99 86.97L76.99 76.47L78.53 76.47L78.53 80.58L78.77 80.58Q78.95 80.28 79.25 80.00Q79.55 79.72 80.05 79.54Q80.54 79.36 81.26 79.36L81.26 79.36Q82.19 79.36 82.97 79.81Q83.75 80.26 84.22 81.12Q84.68 81.97 84.68 83.16L84.68 83.16L84.68 83.38Q84.68 84.58 84.21 85.43Q83.74 86.28 82.97 86.73Q82.19 87.18 81.26 87.18ZM80.81 85.83L80.81 85.83Q81.82 85.83 82.47 85.18Q83.12 84.54 83.12 83.34L83.12 83.34L83.12 83.20Q83.12 82.02 82.48 81.37Q81.83 80.73 80.81 80.73L80.81 80.73Q79.82 80.73 79.17 81.37Q78.52 82.02 78.52 83.20L78.52 83.20L78.52 83.34Q78.52 84.54 79.17 85.18Q79.82 85.83 80.81 85.83Z M89.15 86.97L87.60 86.97L87.60 79.57L89.15 79.57L89.15 86.97ZM88.38 78.57L88.38 78.57Q87.93 78.57 87.62 78.27Q87.32 77.98 87.32 77.52L87.32 77.52Q87.32 77.05 87.62 76.76Q87.93 76.47 88.38 76.47L88.38 76.47Q88.85 76.47 89.15 76.76Q89.45 77.05 89.45 77.52L89.45 77.52Q89.45 77.98 89.15 78.27Q88.85 78.57 88.38 78.57Z M93.99 86.97L92.44 86.97L92.44 79.57L93.96 79.57L93.96 80.68L94.20 80.68Q94.41 80.23 94.95 79.84Q95.49 79.45 96.55 79.45L96.55 79.45Q97.39 79.45 98.04 79.83Q98.70 80.20 99.07 80.88Q99.45 81.57 99.45 82.53L99.45 82.53L99.45 86.97L97.90 86.97L97.90 82.65Q97.90 81.69 97.42 81.23Q96.94 80.77 96.10 80.77L96.10 80.77Q95.14 80.77 94.56 81.40Q93.99 82.03 93.99 83.23L93.99 83.23L93.99 86.97Z  M109.04 86.97L107.49 86.97L107.49 79.57L109.04 79.57L109.04 86.97ZM108.27 78.57L108.27 78.57Q107.82 78.57 107.51 78.27Q107.21 77.98 107.21 77.52L107.21 77.52Q107.21 77.05 107.51 76.76Q107.82 76.47 108.27 76.47L108.27 76.47Q108.74 76.47 109.04 76.76Q109.34 77.05 109.34 77.52L109.34 77.52Q109.34 77.98 109.04 78.27Q108.74 78.57 108.27 78.57Z  M120.22 87.18L120.22 87.18Q119.30 87.18 118.52 86.73Q117.74 86.28 117.27 85.43Q116.80 84.58 116.80 83.38L116.80 83.38L116.80 83.16Q116.80 81.97 117.26 81.12Q117.73 80.26 118.51 79.81Q119.29 79.36 120.22 79.36L120.22 79.36Q120.94 79.36 121.42 79.54Q121.91 79.72 122.23 80.00Q122.54 80.28 122.71 80.58L122.71 80.58L122.95 80.58L122.95 76.47L124.49 76.47L124.49 86.97L122.98 86.97L122.98 85.92L122.74 85.92Q122.45 86.40 121.88 86.79Q121.30 87.18 120.22 87.18ZM120.65 85.83L120.65 85.83Q121.66 85.83 122.31 85.18Q122.96 84.54 122.96 83.34L122.96 83.34L122.96 83.20Q122.96 82.02 122.32 81.37Q121.67 80.73 120.65 80.73L120.65 80.73Q119.66 80.73 119.01 81.37Q118.36 82.02 118.36 83.20L118.36 83.20L118.36 83.34Q118.36 84.54 119.01 85.18Q119.66 85.83 120.65 85.83Z M130.07 87.18L130.07 87.18Q129.27 87.18 128.65 86.91Q128.03 86.64 127.66 86.11Q127.29 85.59 127.29 84.84L127.29 84.84Q127.29 84.07 127.66 83.57Q128.03 83.07 128.66 82.81Q129.30 82.56 130.11 82.56L130.11 82.56L132.36 82.56L132.36 82.08Q132.36 81.43 131.97 81.04Q131.58 80.65 130.77 80.65L130.77 80.65Q129.98 80.65 129.56 81.03Q129.14 81.40 129.00 82.00L129.00 82.00L127.56 81.54Q127.74 80.94 128.14 80.45Q128.54 79.96 129.20 79.66Q129.86 79.36 130.79 79.36L130.79 79.36Q132.23 79.36 133.05 80.10Q133.88 80.83 133.88 82.18L133.88 82.18L133.88 85.23Q133.88 85.68 134.30 85.68L134.30 85.68L134.93 85.68L134.93 86.97L133.77 86.97Q133.25 86.97 132.92 86.70Q132.59 86.43 132.59 85.96L132.59 85.96L132.59 85.92L132.36 85.92Q132.24 86.14 132.00 86.44Q131.76 86.74 131.30 86.96Q130.83 87.18 130.07 87.18ZM130.29 85.90L130.29 85.90Q131.22 85.90 131.79 85.37Q132.36 84.84 132.36 83.91L132.36 83.91L132.36 83.76L130.20 83.76Q129.59 83.76 129.21 84.02Q128.84 84.28 128.84 84.79L128.84 84.79Q128.84 85.30 129.23 85.60Q129.62 85.90 130.29 85.90Z M138.97 86.97L137.43 86.97L137.43 76.47L138.97 76.47L138.97 80.62L139.21 80.62Q139.36 80.34 139.64 80.07Q139.92 79.80 140.38 79.62Q140.83 79.45 141.54 79.45L141.54 79.45Q142.38 79.45 143.03 79.83Q143.68 80.20 144.06 80.88Q144.43 81.57 144.43 82.53L144.43 82.53L144.43 86.97L142.89 86.97L142.89 82.65Q142.89 81.69 142.41 81.23Q141.93 80.77 141.09 80.77L141.09 80.77Q140.13 80.77 139.55 81.40Q138.97 82.03 138.97 83.23L138.97 83.23L138.97 86.97Z M151.12 87.18L151.12 87.18Q150.01 87.18 149.14 86.72Q148.28 86.26 147.79 85.41Q147.29 84.55 147.29 83.38L147.29 83.38L147.29 83.16Q147.29 81.99 147.79 81.14Q148.28 80.29 149.14 79.83Q150.01 79.36 151.12 79.36L151.12 79.36Q152.23 79.36 153.10 79.83Q153.97 80.29 154.46 81.14Q154.96 81.99 154.96 83.16L154.96 83.16L154.96 83.38Q154.96 84.55 154.46 85.41Q153.97 86.26 153.10 86.72Q152.23 87.18 151.12 87.18ZM151.12 85.80L151.12 85.80Q152.14 85.80 152.77 85.14Q153.41 84.49 153.41 83.34L153.41 83.34L153.41 83.20Q153.41 82.05 152.78 81.39Q152.15 80.74 151.12 80.74L151.12 80.74Q150.11 80.74 149.47 81.39Q148.84 82.05 148.84 83.20L148.84 83.20L148.84 83.34Q148.84 84.49 149.47 85.14Q150.11 85.80 151.12 85.80Z M160.17 87.18L160.17 87.18Q159.38 87.18 158.75 86.91Q158.13 86.64 157.76 86.11Q157.40 85.59 157.40 84.84L157.40 84.84Q157.40 84.07 157.76 83.57Q158.13 83.07 158.77 82.81Q159.41 82.56 160.22 82.56L160.22 82.56L162.47 82.56L162.47 82.08Q162.47 81.43 162.08 81.04Q161.69 80.65 160.88 80.65L160.88 80.65Q160.08 80.65 159.66 81.03Q159.24 81.40 159.11 82.00L159.11 82.00L157.67 81.54Q157.85 80.94 158.24 80.45Q158.64 79.96 159.30 79.66Q159.96 79.36 160.89 79.36L160.89 79.36Q162.33 79.36 163.16 80.10Q163.98 80.83 163.98 82.18L163.98 82.18L163.98 85.23Q163.98 85.68 164.40 85.68L164.40 85.68L165.03 85.68L165.03 86.97L163.88 86.97Q163.35 86.97 163.02 86.70Q162.69 86.43 162.69 85.96L162.69 85.96L162.69 85.92L162.47 85.92Q162.35 86.14 162.11 86.44Q161.87 86.74 161.40 86.96Q160.94 87.18 160.17 87.18ZM160.40 85.90L160.40 85.90Q161.33 85.90 161.90 85.37Q162.47 84.84 162.47 83.91L162.47 83.91L162.47 83.76L160.31 83.76Q159.69 83.76 159.32 84.02Q158.94 84.28 158.94 84.79L158.94 84.79Q158.94 85.30 159.33 85.60Q159.72 85.90 160.40 85.90Z M169.08 86.97L167.53 86.97L167.53 79.57L169.05 79.57L169.05 80.44L169.29 80.44Q169.50 80.05 169.96 79.75Q170.43 79.45 171.22 79.45L171.22 79.45Q172.05 79.45 172.55 79.79Q173.05 80.13 173.31 80.65L173.31 80.65L173.55 80.65Q173.80 80.14 174.29 79.80Q174.78 79.45 175.68 79.45L175.68 79.45Q176.40 79.45 176.95 79.74Q177.51 80.04 177.84 80.61Q178.17 81.19 178.17 82.05L178.17 82.05L178.17 86.97L176.62 86.97L176.62 82.17Q176.62 81.49 176.25 81.12Q175.89 80.76 175.21 80.76L175.21 80.76Q174.49 80.76 174.06 81.22Q173.62 81.69 173.62 82.56L173.62 82.56L173.62 86.97L172.08 86.97L172.08 82.17Q172.08 81.49 171.71 81.12Q171.34 80.76 170.67 80.76L170.67 80.76Q169.95 80.76 169.51 81.22Q169.08 81.69 169.08 82.56L169.08 82.56L169.08 86.97Z" fill="#1d1c19" fill-opacity="0.7"></path><svg x="-17.50" y="80.88" width="258.46" height="132.82" viewBox="0 0 360 185" overflow="visible"><g fill="#1d1c19"><g transform="translate(64.98,0)"><path d="M22.88 133.59 L22.88 133.59 Q21.33 133.16 20.38 132.82 L20.38 132.82 L19.44 132.56 Q19.61 132.13 19.31 131.78 Q19.01 131.44 18.06 131.35 L18.06 131.35 Q16.77 130.49 15.39 128.95 Q14.02 127.40 12.99 125.76 Q11.95 124.13 11.61 123.36 L11.61 123.36 Q11.18 122.32 11.44 121.98 L11.44 121.98 Q11.52 121.81 11.70 121.72 L11.70 121.72 Q12.38 121.46 13.33 121.03 L13.33 121.03 Q14.28 120.35 15.35 120.00 Q16.43 119.66 17.11 121.12 L17.11 121.12 Q18.23 123.10 20.60 124.47 Q22.96 125.85 26.02 126.11 Q29.07 126.37 32.16 125.08 L32.16 125.08 Q34.23 124.13 34.40 122.45 Q34.57 120.78 33.11 118.54 L33.11 118.54 Q32.85 117.85 32.38 117.42 Q31.91 116.99 31.00 116.30 Q30.10 115.62 28.47 114.07 L28.47 114.07 Q27.18 113.47 26.10 112.95 Q25.03 112.43 23.82 111.83 L23.82 111.83 Q22.45 111.14 20.73 109.90 Q19.01 108.65 17.54 107.14 Q16.08 105.64 15.31 104.26 L15.31 104.26 Q13.93 102.97 13.59 100.69 Q13.24 98.42 13.72 95.84 Q14.19 93.26 15.31 91.19 L15.31 91.19 Q15.82 89.99 17.20 88.05 Q18.58 86.12 20.30 84.05 Q22.02 81.99 23.61 80.31 Q25.20 78.64 26.14 78.03 L26.14 78.03 Q26.83 77.35 27.61 76.57 L27.61 76.57 L28.38 75.88 Q28.47 75.45 28.72 75.45 L28.72 75.45 L28.90 75.45 Q29.33 75.20 30.79 74.59 Q32.25 73.99 33.97 72.36 L33.97 72.36 Q39.73 69.61 43.77 68.62 Q47.82 67.63 50.14 67.63 L50.14 67.63 Q52.29 67.71 54.35 68.79 Q56.42 69.86 57.92 71.50 Q59.43 73.13 59.68 75.20 L59.68 75.20 Q60.29 77.26 59.13 80.14 Q57.96 83.02 55.94 85.56 Q53.92 88.10 51.77 89.30 L51.77 89.30 Q49.36 90.33 47.69 89.56 Q46.01 88.78 46.10 87.15 L46.10 87.15 Q46.10 86.46 46.57 85.52 Q47.04 84.57 49.19 82.16 L49.19 82.16 Q51.94 78.12 52.12 76.40 Q52.29 74.68 50.57 74.42 L50.57 74.42 Q50.05 74.25 48.59 74.51 Q47.13 74.77 45.45 75.15 Q43.77 75.54 42.53 75.97 Q41.28 76.40 41.28 76.57 L41.28 76.57 L41.28 76.83 Q41.28 76.92 41.19 77.00 L41.19 77.00 Q41.19 77.09 40.94 77.00 L40.94 77.00 Q40.76 77.00 39.78 77.56 Q38.79 78.12 37.41 78.98 Q36.03 79.84 34.70 80.74 Q33.37 81.65 32.42 82.33 Q31.48 83.02 31.39 83.19 L31.39 83.19 Q31.22 84.14 29.41 84.91 L29.41 84.91 Q27.69 85.95 26.40 87.84 Q25.11 89.73 23.39 92.65 L23.39 92.65 Q21.93 94.63 21.33 96.91 Q20.73 99.19 21.33 100.57 L21.33 100.57 Q21.76 101.94 23.69 103.28 Q25.63 104.61 28.98 106.59 L28.98 106.59 Q31.91 108.22 34.49 110.03 Q37.07 111.83 38.87 113.51 Q40.68 115.19 41.19 116.30 L41.19 116.30 Q42.23 117.77 42.44 119.66 Q42.66 121.55 42.44 123.31 Q42.23 125.08 41.88 126.19 L41.88 126.19 Q41.28 127.57 40.03 129.12 Q38.79 130.67 37.75 130.58 L37.75 130.58 Q36.81 130.84 36.34 131.18 Q35.86 131.53 35.26 131.78 L35.26 131.78 Q34.66 132.13 32.42 132.60 Q30.19 133.07 27.52 133.38 Q24.85 133.68 22.88 133.59 Z M67.77 126.28 L67.77 126.28 Q65.19 127.74 62.31 127.96 Q59.43 128.17 56.93 127.18 Q54.44 126.19 52.89 124.22 L52.89 124.22 Q52.03 123.10 51.26 120.65 Q50.48 118.20 51.00 113.98 L51.00 113.98 Q51.51 110.03 53.45 105.98 Q55.38 101.94 58.22 98.85 Q61.06 95.75 64.41 94.63 L64.41 94.63 Q65.62 94.20 66.86 93.99 Q68.11 93.77 70.18 93.94 L70.18 93.94 Q72.15 94.20 73.70 94.93 Q75.25 95.66 75.94 96.52 L75.94 96.52 Q77.31 97.90 77.74 99.19 Q78.17 100.48 78.09 101.68 L78.09 101.68 Q77.66 104.44 75.64 107.62 Q73.62 110.80 70.00 112.35 L70.00 112.35 Q68.54 112.95 66.56 113.12 Q64.59 113.29 61.15 112.61 L61.15 112.61 Q59.08 112.18 58.44 113.04 Q57.79 113.90 57.88 116.39 L57.88 116.39 Q58.05 117.94 58.61 119.10 Q59.17 120.26 60.72 120.69 L60.72 120.69 Q62.69 121.03 63.55 120.73 Q64.41 120.43 65.70 119.83 L65.70 119.83 Q66.39 119.40 67.08 118.88 L67.08 118.88 L68.37 117.85 Q68.97 117.34 69.40 117.08 L69.40 117.08 Q69.83 116.73 70.26 116.65 Q70.69 116.56 71.12 116.56 L71.12 116.56 Q72.07 116.65 72.93 117.59 Q73.79 118.54 74.05 119.40 L74.05 119.40 Q74.05 120.09 73.19 121.33 Q72.33 122.58 70.91 123.92 Q69.49 125.25 67.77 126.28 Z M66.65 107.10 L66.65 107.10 Q67.25 106.84 68.41 105.90 Q69.57 104.95 70.52 103.88 Q71.47 102.80 71.47 102.20 L71.47 102.20 Q71.47 101.25 70.22 100.57 Q68.97 99.88 66.99 100.31 L66.99 100.31 Q66.31 100.48 65.36 101.25 Q64.41 102.03 63.47 103.02 Q62.52 104.01 61.83 104.91 Q61.15 105.81 60.89 106.33 L60.89 106.33 Q61.23 106.76 62.26 107.02 Q63.30 107.27 64.54 107.27 Q65.79 107.27 66.65 107.10 Z M96.49 126.28 L96.49 126.28 Q93.91 127.74 91.03 127.96 Q88.15 128.17 85.66 127.18 Q83.16 126.19 81.61 124.22 L81.61 124.22 Q80.75 123.10 79.98 120.65 Q79.21 118.20 79.72 113.98 L79.72 113.98 Q80.24 110.03 82.17 105.98 Q84.11 101.94 86.95 98.85 Q89.78 95.75 93.14 94.63 L93.14 94.63 Q94.34 94.20 95.59 93.99 Q96.84 93.77 98.90 93.94 L98.90 93.94 Q100.88 94.20 102.43 94.93 Q103.97 95.66 104.66 96.52 L104.66 96.52 Q106.04 97.90 106.47 99.19 Q106.90 100.48 106.81 101.68 L106.81 101.68 Q106.38 104.44 104.36 107.62 Q102.34 110.80 98.73 112.35 L98.73 112.35 Q97.27 112.95 95.29 113.12 Q93.31 113.29 89.87 112.61 L89.87 112.61 Q87.81 112.18 87.16 113.04 Q86.52 113.90 86.60 116.39 L86.60 116.39 Q86.77 117.94 87.33 119.10 Q87.89 120.26 89.44 120.69 L89.44 120.69 Q91.42 121.03 92.28 120.73 Q93.14 120.43 94.43 119.83 L94.43 119.83 Q95.12 119.40 95.80 118.88 L95.80 118.88 L97.09 117.85 Q97.70 117.34 98.13 117.08 L98.13 117.08 Q98.56 116.73 98.99 116.65 Q99.42 116.56 99.85 116.56 L99.85 116.56 Q100.79 116.65 101.65 117.59 Q102.51 118.54 102.77 119.40 L102.77 119.40 Q102.77 120.09 101.91 121.33 Q101.05 122.58 99.63 123.92 Q98.21 125.25 96.49 126.28 Z M95.37 107.10 L95.37 107.10 Q95.98 106.84 97.14 105.90 Q98.30 104.95 99.24 103.88 Q100.19 102.80 100.19 102.20 L100.19 102.20 Q100.19 101.25 98.94 100.57 Q97.70 99.88 95.72 100.31 L95.72 100.31 Q95.03 100.48 94.08 101.25 Q93.14 102.03 92.19 103.02 Q91.25 104.01 90.56 104.91 Q89.87 105.81 89.61 106.33 L89.61 106.33 Q89.96 106.76 90.99 107.02 Q92.02 107.27 93.27 107.27 Q94.51 107.27 95.37 107.10 Z M118.42 145.20 L118.42 145.20 Q116.01 146.15 113.39 144.90 Q110.77 143.65 108.88 140.99 L108.88 140.99 Q108.53 140.47 107.84 139.14 Q107.16 137.80 106.51 136.26 Q105.87 134.71 105.56 133.59 Q105.26 132.47 105.52 132.30 L105.52 132.30 Q105.87 131.35 107.07 131.18 Q108.27 131.01 109.48 131.31 Q110.68 131.61 110.85 132.13 L110.85 132.13 Q111.11 132.73 111.37 133.38 Q111.63 134.02 112.01 134.58 Q112.40 135.14 112.75 135.57 L112.75 135.57 Q113.69 137.03 114.81 137.59 Q115.93 138.15 116.53 137.72 L116.53 137.72 Q117.99 136.60 118.72 135.09 Q119.45 133.59 120.66 129.81 L120.66 129.81 Q121.60 126.62 122.29 124.30 Q122.98 121.98 123.75 120.00 L123.75 120.00 Q124.01 118.97 124.44 118.20 L124.44 118.20 Q124.53 118.02 124.61 117.85 L124.61 117.85 Q123.41 118.71 122.46 119.57 L122.46 119.57 Q121.17 120.78 118.94 121.72 L118.94 121.72 Q118.42 122.32 116.40 122.45 Q114.38 122.58 112.49 121.98 L112.49 121.98 Q111.28 121.29 110.55 120.56 Q109.82 119.83 109.35 118.88 Q108.88 117.94 108.36 116.65 L108.36 116.65 Q107.76 115.36 108.19 112.43 Q108.62 109.51 109.74 106.59 L109.74 106.59 Q110.77 104.44 112.75 101.94 Q114.72 99.45 116.96 97.43 Q119.20 95.41 121.00 94.89 L121.00 94.89 Q121.69 94.55 123.41 94.07 Q125.13 93.60 126.68 94.03 L126.68 94.03 Q128.14 94.20 128.91 94.67 Q129.69 95.15 131.41 96.61 L131.41 96.61 Q132.53 97.73 134.16 99.49 Q135.79 101.25 136.22 102.46 L136.22 102.46 Q136.83 103.75 136.48 105.25 Q136.14 106.76 135.28 107.88 L135.28 107.88 Q134.50 108.99 133.64 110.11 Q132.78 111.23 132.35 113.21 L132.35 113.21 Q131.92 115.79 130.72 119.01 Q129.52 122.24 128.83 124.99 L128.83 124.99 L127.45 130.32 Q125.30 137.63 122.72 140.94 Q120.14 144.25 118.42 145.20 Z M116.62 115.62 L116.62 115.62 Q118.34 115.53 119.58 115.23 Q120.83 114.93 121.95 113.85 Q123.07 112.78 124.53 110.54 L124.53 110.54 Q125.99 108.48 126.59 106.76 Q127.19 105.04 127.02 102.89 L127.02 102.89 Q126.94 101.51 126.25 101.08 Q125.56 100.65 124.44 100.82 L124.44 100.82 Q122.81 101.08 121.52 102.16 Q120.23 103.23 118.51 105.47 L118.51 105.47 Q117.22 107.19 116.36 109.60 L116.36 109.60 Q115.50 112.18 115.63 113.72 Q115.76 115.27 116.62 115.62 Z M143.88 138.41 L143.88 138.41 Q143.36 138.75 141.56 137.59 Q139.75 136.43 138.55 135.05 L138.55 135.05 Q137.94 134.36 137.77 133.59 Q137.60 132.82 137.86 130.67 L137.86 130.67 Q138.20 129.72 138.24 128.86 Q138.29 128.00 138.29 127.66 L138.29 127.66 Q138.29 127.14 138.59 125.25 Q138.89 123.36 139.23 121.25 Q139.58 119.14 139.84 118.02 L139.84 118.02 Q139.84 117.94 139.96 117.42 Q140.09 116.91 140.18 116.65 L140.18 116.65 Q140.35 115.87 140.61 114.76 Q140.87 113.64 141.13 111.75 L141.13 111.75 Q141.81 109.60 142.29 107.49 Q142.76 105.38 142.76 104.61 L142.76 104.61 Q142.76 103.06 143.96 102.37 L143.96 102.37 Q144.05 101.94 144.48 101.04 Q144.91 100.14 145.25 99.53 L145.25 99.53 Q146.97 94.63 148.09 91.71 Q149.21 88.78 150.41 86.63 L150.41 86.63 Q150.93 85.17 151.57 83.62 Q152.22 82.08 152.91 81.22 L152.91 81.22 Q153.51 80.01 155.01 78.25 Q156.52 76.49 158.24 74.85 Q159.96 73.22 160.99 72.44 L160.99 72.44 Q162.88 71.50 164.52 70.90 Q166.15 70.29 167.96 70.29 L167.96 70.29 Q169.59 70.29 170.84 71.03 Q172.09 71.76 174.58 73.99 L174.58 73.99 Q175.44 75.11 175.44 76.14 Q175.44 77.17 175.01 77.86 L175.01 77.86 Q174.41 79.24 173.20 81.26 Q172.00 83.28 170.88 84.87 Q169.76 86.46 169.25 86.55 L169.25 86.55 Q168.22 87.15 167.10 86.89 Q165.98 86.63 165.98 85.34 L165.98 85.34 Q165.98 84.74 166.07 84.23 L166.07 84.23 L166.07 83.71 Q166.32 82.59 166.71 81.73 Q167.10 80.87 167.44 80.27 L167.44 80.27 Q168.13 79.15 167.83 78.12 Q167.53 77.09 165.64 77.26 L165.64 77.26 Q165.38 77.43 164.65 78.08 Q163.92 78.72 163.10 79.54 Q162.28 80.36 161.68 81.09 Q161.08 81.82 161.08 82.08 L161.08 82.08 L160.65 82.94 Q160.13 83.88 159.19 85.00 L159.19 85.00 Q158.58 85.86 158.15 86.63 Q157.72 87.41 157.72 87.84 L157.72 87.84 Q157.72 88.18 157.64 88.44 Q157.55 88.70 157.21 88.70 L157.21 88.70 L156.95 89.56 Q156.61 90.42 155.92 91.62 L155.92 91.62 Q155.57 92.48 155.19 93.21 Q154.80 93.94 154.46 94.29 L154.46 94.29 L154.37 94.46 L154.03 95.41 Q153.60 96.44 153.17 97.47 Q152.74 98.50 152.74 98.67 L152.74 98.67 Q152.74 99.02 153.77 99.02 Q154.80 99.02 156.26 98.72 Q157.72 98.42 159.10 98.07 L159.10 98.07 Q160.30 97.73 160.82 97.73 Q161.34 97.73 162.45 98.07 L162.45 98.07 Q163.14 98.50 163.57 99.58 Q164.00 100.65 164.22 101.73 Q164.43 102.80 164.26 103.32 L164.26 103.32 Q164.17 103.66 162.32 104.26 Q160.48 104.87 158.67 105.21 L158.67 105.21 Q157.12 105.55 155.19 105.94 Q153.25 106.33 151.79 106.72 Q150.33 107.10 150.24 107.45 L150.24 107.45 Q149.90 107.45 149.68 107.88 Q149.47 108.31 149.47 108.65 L149.47 108.65 Q149.47 109.77 149.04 110.46 L149.04 110.46 Q148.87 110.97 148.48 112.56 Q148.09 114.15 147.70 116.00 Q147.32 117.85 147.02 119.44 Q146.72 121.03 146.72 121.55 L146.72 121.55 Q146.20 122.15 146.11 123.06 Q146.03 123.96 146.03 124.65 L146.03 124.65 Q145.68 125.33 145.60 125.89 Q145.51 126.45 145.51 126.80 L145.51 126.80 L145.51 127.14 Q145.51 127.40 145.43 127.66 L145.43 127.66 Q145.34 128.52 145.21 129.94 Q145.08 131.35 145.08 132.73 L145.08 132.73 L144.82 135.22 Q144.74 136.34 144.52 137.16 Q144.31 137.98 143.88 138.41 Z M186.02 127.83 L186.02 127.83 Q185.16 126.97 184.64 125.46 Q184.13 123.96 183.61 121.98 L183.61 121.98 Q183.44 121.29 183.48 120.43 Q183.52 119.57 183.44 119.06 L183.44 119.06 Q183.18 119.66 182.62 120.60 Q182.06 121.55 181.55 121.98 L181.55 121.98 Q181.20 122.32 180.00 123.31 Q178.79 124.30 177.59 124.90 L177.59 124.90 Q174.75 126.71 172.56 126.58 Q170.37 126.45 168.73 124.39 L168.73 124.39 Q167.36 123.27 166.50 121.55 Q165.64 119.83 166.15 117.42 L166.15 117.42 Q166.32 114.41 167.01 111.53 Q167.70 108.65 169.85 103.83 L169.85 103.83 Q171.66 100.31 172.60 98.33 Q173.55 96.35 173.81 96.01 L173.81 96.01 Q175.10 95.58 176.99 96.05 Q178.88 96.52 179.05 97.73 L179.05 97.73 Q179.57 98.59 179.05 100.95 Q178.54 103.32 176.99 106.33 L176.99 106.33 Q175.78 109.25 174.71 112.00 Q173.63 114.76 173.42 116.65 Q173.20 118.54 174.41 118.97 L174.41 118.97 Q175.18 119.40 176.69 118.88 Q178.19 118.37 180.26 115.79 Q182.32 113.21 184.64 107.62 L184.64 107.62 Q185.33 105.90 185.67 104.56 Q186.02 103.23 186.10 101.60 L186.10 101.60 Q185.93 100.57 186.66 99.45 Q187.39 98.33 188.43 97.73 L188.43 97.73 Q188.77 97.30 189.37 96.87 L189.37 96.87 Q189.80 96.61 189.97 96.78 L189.97 96.78 Q190.06 96.78 190.15 96.95 L190.15 96.95 L191.52 96.87 Q191.87 96.78 192.30 97.56 Q192.73 98.33 193.16 98.67 L193.16 98.67 Q194.10 99.45 194.02 102.03 Q193.93 104.61 191.95 109.25 L191.95 109.25 Q190.32 112.78 189.76 114.58 Q189.20 116.39 189.11 118.11 L189.11 118.11 Q189.11 119.66 189.37 120.73 Q189.63 121.81 190.92 122.93 L190.92 122.93 Q191.87 123.53 191.99 124.95 Q192.12 126.37 192.04 127.40 L192.04 127.40 Q191.87 128.17 190.70 128.47 Q189.54 128.77 188.21 128.60 Q186.88 128.43 186.02 127.83 Z M197.80 126.54 L197.80 126.54 Q197.11 125.85 196.81 124.47 Q196.51 123.10 196.60 121.77 Q196.68 120.43 197.03 119.74 L197.03 119.74 Q197.03 119.06 197.24 118.67 Q197.46 118.28 197.37 117.94 L197.37 117.94 Q197.28 117.59 197.54 116.73 Q197.80 115.87 198.06 115.10 L198.06 115.10 Q198.66 113.72 199.43 111.53 Q200.21 109.34 200.98 107.06 Q201.76 104.78 202.27 103.10 Q202.79 101.43 202.87 101.08 L202.87 101.08 Q202.87 100.05 204.25 99.96 L204.25 99.96 Q205.28 99.62 206.74 100.82 Q208.21 102.03 209.07 103.40 L209.07 103.40 Q209.75 104.09 209.58 105.21 Q209.41 106.33 208.46 108.39 L208.46 108.39 Q208.12 109.08 207.65 110.67 Q207.17 112.26 207.00 113.29 L207.00 113.29 Q206.66 113.98 206.18 115.23 Q205.71 116.48 205.37 117.59 L205.37 117.59 Q205.20 118.02 205.02 119.19 Q204.85 120.35 204.59 121.55 Q204.34 122.75 203.91 123.44 L203.91 123.44 Q203.13 126.97 201.20 127.57 Q199.26 128.17 197.80 126.54 Z " fill="#1d1c19"></path><defs><mask id="hm2" maskUnits="userSpaceOnUse"><path d="M0,3 C0,-3 -9,-6 -9,-13 C-9,-19 -2,-20 0,-14 C2,-20 9,-19 9,-13 C9,-6 0,-3 0,3 Z" fill="#fff"></path><path d="M-7.5,-8 q2.5,-3.4 5,0 t5,0 t5,0" fill="none" stroke="#000" stroke-width="2.1" stroke-linecap="round"></path></mask></defs><g transform="translate(210.40,95.23) rotate(12) scale(0.940)"><path d="M0,3 C0,-3 -9,-6 -9,-13 C-9,-19 -2,-20 0,-14 C2,-20 9,-19 9,-13 C9,-6 0,-3 0,3 Z" fill="#d23b34" mask="url(#hm2)"></path></g></g></g></svg><path d="M20.33 304.80L20.33 304.80Q19.05 304.80 18.06 304.34Q17.08 303.89 16.52 303.02Q15.96 302.16 15.96 300.91L15.96 300.91L15.96 300.50L17.86 300.50L17.86 300.91Q17.86 302.02 18.54 302.56Q19.21 303.10 20.33 303.10L20.33 303.10Q21.46 303.10 22.04 302.64Q22.62 302.18 22.62 301.44L22.62 301.44Q22.62 300.94 22.34 300.63Q22.07 300.32 21.55 300.13Q21.03 299.94 20.30 299.76L20.30 299.76L19.82 299.66Q18.71 299.41 17.90 299.02Q17.10 298.62 16.66 298Q16.23 297.38 16.23 296.37L16.23 296.37Q16.23 295.36 16.71 294.64Q17.19 293.92 18.07 293.54Q18.95 293.15 20.14 293.15L20.14 293.15Q21.32 293.15 22.25 293.55Q23.18 293.95 23.71 294.75Q24.25 295.55 24.25 296.75L24.25 296.75L24.25 297.28L22.34 297.28L22.34 296.75Q22.34 296.06 22.07 295.65Q21.80 295.23 21.30 295.04Q20.81 294.85 20.14 294.85L20.14 294.85Q19.14 294.85 18.63 295.23Q18.12 295.62 18.12 296.32L18.12 296.32Q18.12 296.77 18.35 297.08Q18.58 297.39 19.04 297.59Q19.50 297.79 20.18 297.94L20.18 297.94L20.66 298.05Q21.82 298.30 22.68 298.70Q23.54 299.09 24.03 299.73Q24.52 300.37 24.52 301.39L24.52 301.39Q24.52 302.40 24.00 303.17Q23.48 303.94 22.54 304.37Q21.61 304.80 20.33 304.80Z M39.76 304.58L37.84 304.58L37.84 295.12L34.50 295.12L34.50 293.38L43.10 293.38L43.10 295.12L39.76 295.12L39.76 304.58Z M54.81 304.58L52.82 304.58L55.90 293.38L59.24 293.38L62.31 304.58L60.33 304.58L59.66 302.02L55.48 302.02L54.81 304.58ZM57.43 294.58L55.93 300.26L59.21 300.26L57.70 294.58L57.43 294.58Z M74.67 304.58L72.74 304.58L72.74 293.38L77.52 293.38Q78.58 293.38 79.36 293.74Q80.14 294.11 80.58 294.78Q81.02 295.44 81.02 296.37L81.02 296.37L81.02 296.54Q81.02 297.58 80.53 298.21Q80.03 298.83 79.33 299.12L79.33 299.12L79.33 299.38Q79.95 299.41 80.31 299.81Q80.67 300.21 80.67 300.88L80.67 300.88L80.67 304.58L78.75 304.58L78.75 301.15Q78.75 300.75 78.54 300.50Q78.32 300.26 77.84 300.26L77.84 300.26L74.67 300.26L74.67 304.58ZM74.67 295.12L74.67 298.51L77.33 298.51Q78.16 298.51 78.63 298.07Q79.10 297.63 79.10 296.90L79.10 296.90L79.10 296.75Q79.10 296 78.64 295.56Q78.18 295.12 77.33 295.12L77.33 295.12L74.67 295.12Z M93.75 304.58L91.85 304.58L91.85 293.38L95.53 293.38L98.17 303.28L98.42 303.28L98.42 293.38L100.33 293.38L100.33 304.58L96.66 304.58L94.02 294.67L93.75 294.67L93.75 304.58Z M116.94 304.58L111.17 304.58L111.17 302.88L112.67 302.88L112.67 295.07L111.17 295.07L111.17 293.38L116.90 293.38Q117.90 293.38 118.66 293.72Q119.42 294.06 119.85 294.70Q120.27 295.33 120.27 296.21L120.27 296.21L120.27 296.35Q120.27 297.12 119.98 297.62Q119.70 298.11 119.30 298.38Q118.90 298.66 118.53 298.77L118.53 298.77L118.53 299.04Q118.90 299.14 119.32 299.40Q119.74 299.66 120.04 300.17Q120.34 300.67 120.34 301.47L120.34 301.47L120.34 301.63Q120.34 302.54 119.90 303.21Q119.46 303.87 118.70 304.22Q117.94 304.58 116.94 304.58L116.94 304.58ZM114.59 299.81L114.59 302.83L116.72 302.83Q117.49 302.83 117.94 302.46Q118.40 302.08 118.40 301.39L118.40 301.39L118.40 301.25Q118.40 300.56 117.95 300.18Q117.50 299.81 116.72 299.81L116.72 299.81L114.59 299.81ZM114.59 295.12L114.59 298.06L116.70 298.06Q117.44 298.06 117.90 297.70Q118.35 297.33 118.35 296.67L118.35 296.67L118.35 296.51Q118.35 295.86 117.90 295.49Q117.44 295.12 116.70 295.12L116.70 295.12L114.59 295.12Z M138.36 304.58L131.14 304.58L131.14 293.38L138.28 293.38L138.28 295.12L133.08 295.12L133.08 298.06L137.83 298.06L137.83 299.81L133.08 299.81L133.08 302.83L138.36 302.83L138.36 304.58Z M150.98 304.58L149.04 304.58L149.04 293.38L153.82 293.38Q154.88 293.38 155.66 293.74Q156.45 294.11 156.89 294.78Q157.33 295.44 157.33 296.37L157.33 296.37L157.33 296.54Q157.33 297.58 156.83 298.21Q156.34 298.83 155.63 299.12L155.63 299.12L155.63 299.38Q156.26 299.41 156.62 299.81Q156.98 300.21 156.98 300.88L156.98 300.88L156.98 304.58L155.06 304.58L155.06 301.15Q155.06 300.75 154.84 300.50Q154.62 300.26 154.14 300.26L154.14 300.26L150.98 300.26L150.98 304.58ZM150.98 295.12L150.98 298.51L153.63 298.51Q154.46 298.51 154.94 298.07Q155.41 297.63 155.41 296.90L155.41 296.90L155.41 296.75Q155.41 296 154.94 295.56Q154.48 295.12 153.63 295.12L153.63 295.12L150.98 295.12Z M172.04 304.80L172.04 304.80Q170.86 304.80 169.92 304.28Q168.98 303.76 168.43 302.76Q167.88 301.76 167.88 300.30L167.88 300.30L167.88 297.65Q167.88 295.47 169.10 294.31Q170.31 293.15 172.36 293.15L172.36 293.15Q174.41 293.15 175.51 294.25Q176.62 295.34 176.62 297.20L176.62 297.20L176.62 297.26L174.73 297.26L174.73 297.14Q174.73 296.50 174.47 295.98Q174.22 295.47 173.69 295.18Q173.16 294.88 172.36 294.88L172.36 294.88Q171.18 294.88 170.50 295.61Q169.82 296.34 169.82 297.62L169.82 297.62L169.82 300.34Q169.82 301.60 170.50 302.35Q171.18 303.10 172.39 303.10L172.39 303.10Q173.61 303.10 174.17 302.45Q174.73 301.79 174.73 300.77L174.73 300.77L174.73 300.58L171.90 300.58L171.90 298.94L176.62 298.94L176.62 304.58L174.86 304.58L174.86 303.47L174.58 303.47Q174.46 303.76 174.18 304.07Q173.91 304.38 173.41 304.59Q172.90 304.80 172.04 304.80Z M194.94 304.58L187.73 304.58L187.73 293.38L194.86 293.38L194.86 295.12L189.66 295.12L189.66 298.06L194.42 298.06L194.42 299.81L189.66 299.81L189.66 302.83L194.94 302.83L194.94 304.58Z M207.56 304.58L205.62 304.58L205.62 293.38L210.41 293.38Q211.46 293.38 212.25 293.74Q213.03 294.11 213.47 294.78Q213.91 295.44 213.91 296.37L213.91 296.37L213.91 296.54Q213.91 297.58 213.42 298.21Q212.92 298.83 212.22 299.12L212.22 299.12L212.22 299.38Q212.84 299.41 213.20 299.81Q213.56 300.21 213.56 300.88L213.56 300.88L213.56 304.58L211.64 304.58L211.64 301.15Q211.64 300.75 211.42 300.50Q211.21 300.26 210.73 300.26L210.73 300.26L207.56 300.26L207.56 304.58ZM207.56 295.12L207.56 298.51L210.22 298.51Q211.05 298.51 211.52 298.07Q211.99 297.63 211.99 296.90L211.99 296.90L211.99 296.75Q211.99 296 211.53 295.56Q211.06 295.12 210.22 295.12L210.22 295.12L207.56 295.12Z" fill="#a9842b"></path><path d="M97.20 322.72L97.20 322.72Q95.92 322.72 94.94 322.26Q93.95 321.81 93.39 320.94Q92.83 320.08 92.83 318.83L92.83 318.83L92.83 318.42L94.74 318.42L94.74 318.83Q94.74 319.94 95.41 320.48Q96.08 321.02 97.20 321.02L97.20 321.02Q98.34 321.02 98.91 320.56Q99.49 320.10 99.49 319.36L99.49 319.36Q99.49 318.86 99.22 318.55Q98.94 318.24 98.42 318.05Q97.90 317.86 97.17 317.68L97.17 317.68L96.69 317.58Q95.58 317.33 94.78 316.94Q93.97 316.54 93.54 315.92Q93.10 315.30 93.10 314.29L93.10 314.29Q93.10 313.28 93.58 312.56Q94.06 311.84 94.94 311.46Q95.82 311.07 97.01 311.07L97.01 311.07Q98.19 311.07 99.12 311.47Q100.05 311.87 100.58 312.67Q101.12 313.47 101.12 314.67L101.12 314.67L101.12 315.20L99.22 315.20L99.22 314.67Q99.22 313.98 98.94 313.57Q98.67 313.15 98.18 312.96Q97.68 312.77 97.01 312.77L97.01 312.77Q96.02 312.77 95.50 313.15Q94.99 313.54 94.99 314.24L94.99 314.24Q94.99 314.69 95.22 315Q95.46 315.31 95.91 315.51Q96.37 315.71 97.06 315.86L97.06 315.86L97.54 315.97Q98.69 316.22 99.55 316.62Q100.42 317.01 100.90 317.65Q101.39 318.29 101.39 319.31L101.39 319.31Q101.39 320.32 100.87 321.09Q100.35 321.86 99.42 322.29Q98.48 322.72 97.20 322.72Z M119.29 322.50L112.07 322.50L112.07 311.30L119.21 311.30L119.21 313.04L114.01 313.04L114.01 315.98L118.76 315.98L118.76 317.73L114.01 317.73L114.01 320.75L119.29 320.75L119.29 322.50Z M137.18 322.50L129.97 322.50L129.97 311.30L137.10 311.30L137.10 313.04L131.90 313.04L131.90 315.98L136.66 315.98L136.66 317.73L131.90 317.73L131.90 320.75L137.18 320.75L137.18 322.50Z" fill="#a9842b"></path><circle cx="136.0" cy="232.6" r="10" fill="#fff"></circle><circle cx="136.0" cy="232.6" r="10" fill="none" stroke="#a9842b" stroke-width="2.4"></circle><circle cx="136.0" cy="232.6" r="4" fill="#a9842b"></circle></svg>