<svg xmlns="http://www.w3.org/2000/svg" width="1380" height="2040" viewBox="0 0 230 340"><path d="M25.2,-72.2 L22.6,-75 L20.5,-75 L14.9,-72.5 L6.9,-51.7 L5,-48.1 L2.9,-46.5 L1,-41.4 L-0.9,-40 L-4.5,-32.7 L-4,-29.4 L-7.3,-27.5 L-7,-25.3 L-8.8,-21.6 L-11.1,-11.2 L-14.8,-7 L-14.8,-3.5 L-17.7,-2.1 L-17.1,-0.7 L-17.6,1 L-20.3,3 L-20.4,4.7 L-22.3,6.7 L-22.8,8.6 L-22,10.8 L-24.2,12.6 L-25.2,16 L-24.7,18.8 L-22,21.4 L-20.1,21 L-17.8,18.6 L-16.3,19 L-16.8,22.5 L-14.6,25.9 L-14.1,31.2 L-9.1,36.6 L-7.3,41.9 L-7.8,45.3 L-11.2,47.9 L-11.9,51.8 L-12.7,52.3 L-13,61.3 L-14,63.5 L-12.8,67 L-0.2,75 L6.5,74 L8,74.9 L10.3,73.9 L10.6,72.7 L11.5,73.2 L13,69.8 L11.7,66.1 L12.5,65.6 L12,63.7 L13.4,62 L13.6,59.1 L11,34.9 L9.7,32.1 L10.5,27.3 L10.2,17.4 L11.2,11.5 L10.7,0.7 L9.1,-9.1 L10,-17.5 L15.3,-32.9 L15.9,-38 L20,-52.1 L25.1,-59.7 L24.5,-68.4 Z M-9.2,-8 L-9.73,-6.16 L-11,-5.4 L-12.27,-6.16 L-12.8,-8 L-12.27,-9.84 L-11,-10.6 L-9.73,-9.84 Z" fill="#2f8a7e" fill-opacity="0.11" fill-rule="evenodd" transform="translate(115 178) scale(2.00000) translate(0.00 0.00)"></path><path d="M25.2,-72.2 L22.6,-75 L20.5,-75 L14.9,-72.5 L6.9,-51.7 L5,-48.1 L2.9,-46.5 L1,-41.4 L-0.9,-40 L-4.5,-32.7 L-4,-29.4 L-7.3,-27.5 L-7,-25.3 L-8.8,-21.6 L-11.1,-11.2 L-14.8,-7 L-14.8,-3.5 L-17.7,-2.1 L-17.1,-0.7 L-17.6,1 L-20.3,3 L-20.4,4.7 L-22.3,6.7 L-22.8,8.6 L-22,10.8 L-24.2,12.6 L-25.2,16 L-24.7,18.8 L-22,21.4 L-20.1,21 L-17.8,18.6 L-16.3,19 L-16.8,22.5 L-14.6,25.9 L-14.1,31.2 L-9.1,36.6 L-7.3,41.9 L-7.8,45.3 L-11.2,47.9 L-11.9,51.8 L-12.7,52.3 L-13,61.3 L-14,63.5 L-12.8,67 L-0.2,75 L6.5,74 L8,74.9 L10.3,73.9 L10.6,72.7 L11.5,73.2 L13,69.8 L11.7,66.1 L12.5,65.6 L12,63.7 L13.4,62 L13.6,59.1 L11,34.9 L9.7,32.1 L10.5,27.3 L10.2,17.4 L11.2,11.5 L10.7,0.7 L9.1,-9.1 L10,-17.5 L15.3,-32.9 L15.9,-38 L20,-52.1 L25.1,-59.7 L24.5,-68.4 Z M-9.2,-8 L-9.73,-6.16 L-11,-5.4 L-12.27,-6.16 L-12.8,-8 L-12.27,-9.84 L-11,-10.6 L-9.73,-9.84 Z" fill="none" stroke="#2f8a7e" stroke-opacity="0.5" stroke-width="0.90" stroke-linejoin="round" stroke-linecap="round" transform="translate(115 178) scale(2.00000) translate(0.00 0.00)"></path><path d="M21.27 143.68L17.09 143.68L17.09 121.51L26.21 121.51Q28.30 121.51 29.90 122.35Q31.50 123.19 32.41 124.71Q33.31 126.23 33.31 128.32L33.31 128.32L33.31 128.76Q33.31 130.82 32.37 132.36Q31.44 133.89 29.84 134.73Q28.24 135.57 26.21 135.57L26.21 135.57L21.27 135.57L21.27 143.68ZM21.27 125.31L21.27 131.77L25.80 131.77Q27.29 131.77 28.21 130.95Q29.13 130.12 29.13 128.70L29.13 128.70L29.13 128.38Q29.13 126.96 28.21 126.13Q27.29 125.31 25.80 125.31L25.80 125.31L21.27 125.31Z M43.82 144.12L43.82 144.12Q41.48 144.12 39.61 143.17Q37.74 142.22 36.67 140.42Q35.59 138.61 35.59 136.08L35.59 136.08L35.59 135.57Q35.59 133.04 36.67 131.23Q37.74 129.43 39.61 128.48Q41.48 127.53 43.82 127.53L43.82 127.53Q46.17 127.53 48.04 128.48Q49.91 129.43 50.98 131.23Q52.06 133.04 52.06 135.57L52.06 135.57L52.06 136.08Q52.06 138.61 50.98 140.42Q49.91 142.22 48.04 143.17Q46.17 144.12 43.82 144.12ZM43.82 140.58L43.82 140.58Q45.66 140.58 46.87 139.39Q48.07 138.20 48.07 135.98L48.07 135.98L48.07 135.67Q48.07 133.45 46.88 132.26Q45.69 131.07 43.82 131.07L43.82 131.07Q41.99 131.07 40.78 132.26Q39.58 133.45 39.58 135.67L39.58 135.67L39.58 135.98Q39.58 138.20 40.78 139.39Q41.99 140.58 43.82 140.58Z M62.26 144.12L62.26 144.12Q59.19 144.12 57.22 142.79Q55.26 141.46 54.85 138.99L54.85 138.99L58.52 138.04Q58.74 139.15 59.27 139.78Q59.79 140.42 60.57 140.69Q61.34 140.96 62.26 140.96L62.26 140.96Q63.65 140.96 64.32 140.46Q64.98 139.97 64.98 139.25L64.98 139.25Q64.98 138.52 64.35 138.12Q63.72 137.72 62.32 137.47L62.32 137.47L61.44 137.31Q59.79 137.00 58.43 136.44Q57.07 135.89 56.24 134.91Q55.42 133.92 55.42 132.37L55.42 132.37Q55.42 130.03 57.13 128.78Q58.84 127.53 61.63 127.53L61.63 127.53Q64.26 127.53 66.00 128.70Q67.74 129.87 68.28 131.77L68.28 131.77L64.57 132.91Q64.32 131.71 63.54 131.20Q62.77 130.69 61.63 130.69L61.63 130.69Q60.49 130.69 59.88 131.09Q59.28 131.48 59.28 132.18L59.28 132.18Q59.28 132.94 59.92 133.31Q60.55 133.67 61.63 133.86L61.63 133.86L62.51 134.02Q64.29 134.34 65.73 134.86Q67.17 135.38 68.01 136.35Q68.85 137.31 68.85 138.96L68.85 138.96Q68.85 141.43 67.06 142.78Q65.27 144.12 62.26 144.12Z M78.86 144.12L78.86 144.12Q75.79 144.12 73.82 142.79Q71.86 141.46 71.45 138.99L71.45 138.99L75.12 138.04Q75.34 139.15 75.86 139.78Q76.39 140.42 77.16 140.69Q77.94 140.96 78.86 140.96L78.86 140.96Q80.25 140.96 80.92 140.46Q81.58 139.97 81.58 139.25L81.58 139.25Q81.58 138.52 80.95 138.12Q80.32 137.72 78.92 137.47L78.92 137.47L78.03 137.31Q76.39 137.00 75.03 136.44Q73.66 135.89 72.84 134.91Q72.02 133.92 72.02 132.37L72.02 132.37Q72.02 130.03 73.73 128.78Q75.44 127.53 78.22 127.53L78.22 127.53Q80.85 127.53 82.60 128.70Q84.34 129.87 84.88 131.77L84.88 131.77L81.17 132.91Q80.92 131.71 80.14 131.20Q79.36 130.69 78.22 130.69L78.22 130.69Q77.08 130.69 76.48 131.09Q75.88 131.48 75.88 132.18L75.88 132.18Q75.88 132.94 76.51 133.31Q77.15 133.67 78.22 133.86L78.22 133.86L79.11 134.02Q80.89 134.34 82.33 134.86Q83.77 135.38 84.61 136.35Q85.45 137.31 85.45 138.96L85.45 138.96Q85.45 141.43 83.66 142.78Q81.87 144.12 78.86 144.12Z M96.09 144.12L96.09 144.12Q93.75 144.12 91.96 143.13Q90.17 142.13 89.17 140.31Q88.17 138.48 88.17 136.01L88.17 136.01L88.17 135.63Q88.17 133.16 89.15 131.34Q90.13 129.52 91.91 128.52Q93.68 127.53 96.03 127.53L96.03 127.53Q98.34 127.53 100.05 128.55Q101.76 129.58 102.71 131.41Q103.66 133.23 103.66 135.63L103.66 135.63L103.66 137.00L92.23 137.00Q92.29 138.61 93.43 139.63Q94.57 140.64 96.22 140.64L96.22 140.64Q97.90 140.64 98.69 139.91Q99.48 139.18 99.89 138.29L99.89 138.29L103.15 140.01Q102.71 140.83 101.87 141.80Q101.03 142.76 99.64 143.44Q98.24 144.12 96.09 144.12ZM92.26 134.02L92.26 134.02L99.61 134.02Q99.48 132.66 98.51 131.83Q97.55 131.01 95.99 131.01L95.99 131.01Q94.38 131.01 93.43 131.83Q92.48 132.66 92.26 134.02Z M111.20 143.68L107.21 143.68L107.21 127.97L111.14 127.97L111.14 130.03L111.71 130.03Q112.09 129.20 113.13 128.46Q114.18 127.72 116.30 127.72L116.30 127.72Q118.14 127.72 119.51 128.55Q120.89 129.39 121.65 130.87Q122.41 132.34 122.41 134.30L122.41 134.30L122.41 143.68L118.42 143.68L118.42 134.62Q118.42 132.85 117.55 131.96Q116.68 131.07 115.06 131.07L115.06 131.07Q113.23 131.07 112.21 132.29Q111.20 133.51 111.20 135.70L111.20 135.70L111.20 143.68Z M130.71 143.68L126.72 143.68L126.72 121.51L130.71 121.51L130.71 129.90L131.28 129.90Q131.53 129.39 132.07 128.89Q132.61 128.38 133.51 128.05Q134.42 127.72 135.81 127.72L135.81 127.72Q137.65 127.72 139.03 128.55Q140.40 129.39 141.16 130.87Q141.92 132.34 141.92 134.30L141.92 134.30L141.92 143.68L137.93 143.68L137.93 134.62Q137.93 132.85 137.06 131.96Q136.19 131.07 134.58 131.07L134.58 131.07Q132.74 131.07 131.72 132.29Q130.71 133.51 130.71 135.70L130.71 135.70L130.71 143.68Z M153.71 144.12L153.71 144.12Q151.36 144.12 149.49 143.17Q147.63 142.22 146.55 140.42Q145.47 138.61 145.47 136.08L145.47 136.08L145.47 135.57Q145.47 133.04 146.55 131.23Q147.63 129.43 149.49 128.48Q151.36 127.53 153.71 127.53L153.71 127.53Q156.05 127.53 157.92 128.48Q159.79 129.43 160.87 131.23Q161.94 133.04 161.94 135.57L161.94 135.57L161.94 136.08Q161.94 138.61 160.87 140.42Q159.79 142.22 157.92 143.17Q156.05 144.12 153.71 144.12ZM153.71 140.58L153.71 140.58Q155.54 140.58 156.75 139.39Q157.95 138.20 157.95 135.98L157.95 135.98L157.95 135.67Q157.95 133.45 156.76 132.26Q155.58 131.07 153.71 131.07L153.71 131.07Q151.87 131.07 150.67 132.26Q149.46 133.45 149.46 135.67L149.46 135.67L149.46 135.98Q149.46 138.20 150.67 139.39Q151.87 140.58 153.71 140.58Z M172.21 143.68L168.22 143.68L168.22 131.26L164.22 131.26L164.22 127.97L168.22 127.97L168.22 125.05Q168.22 123.44 169.18 122.47Q170.15 121.51 171.70 121.51L171.70 121.51L175.82 121.51L175.82 124.80L173.09 124.80Q172.21 124.80 172.21 125.75L172.21 125.75L172.21 127.97L176.32 127.97L176.32 131.26L172.21 131.26L172.21 143.68Z M186.59 144.12L186.59 144.12Q184.24 144.12 182.45 143.13Q180.66 142.13 179.67 140.31Q178.67 138.48 178.67 136.01L178.67 136.01L178.67 135.63Q178.67 133.16 179.65 131.34Q180.63 129.52 182.41 128.52Q184.18 127.53 186.52 127.53L186.52 127.53Q188.84 127.53 190.55 128.55Q192.26 129.58 193.21 131.41Q194.16 133.23 194.16 135.63L194.16 135.63L194.16 137.00L182.72 137.00Q182.79 138.61 183.93 139.63Q185.07 140.64 186.71 140.64L186.71 140.64Q188.39 140.64 189.18 139.91Q189.98 139.18 190.39 138.29L190.39 138.29L193.65 140.01Q193.21 140.83 192.37 141.80Q191.53 142.76 190.13 143.44Q188.74 144.12 186.59 144.12ZM182.75 134.02L182.75 134.02L190.10 134.02Q189.98 132.66 189.01 131.83Q188.04 131.01 186.49 131.01L186.49 131.01Q184.88 131.01 183.93 131.83Q182.98 132.66 182.75 134.02Z M201.70 143.68L197.71 143.68L197.71 127.97L201.63 127.97L201.63 130.03L202.20 130.03Q202.58 129.20 203.63 128.46Q204.67 127.72 206.80 127.72L206.80 127.72Q208.63 127.72 210.01 128.55Q211.39 129.39 212.15 130.87Q212.91 132.34 212.91 134.30L212.91 134.30L212.91 143.68L208.92 143.68L208.92 134.62Q208.92 132.85 208.05 131.96Q207.18 131.07 205.56 131.07L205.56 131.07Q203.72 131.07 202.71 132.29Q201.70 133.51 201.70 135.70L201.70 135.70L201.70 143.68Z" fill="#1d1c19"></path><path d="M54.95 165.36L54.95 165.36Q54.04 165.36 53.26 164.91Q52.48 164.46 52.00 163.61Q51.53 162.77 51.53 161.57L51.53 161.57L51.53 161.34Q51.53 160.16 52.00 159.30Q52.46 158.45 53.24 158.00Q54.02 157.55 54.95 157.55L54.95 157.55Q55.67 157.55 56.16 157.73Q56.65 157.91 56.96 158.18Q57.28 158.46 57.44 158.76L57.44 158.76L57.68 158.76L57.68 154.65L59.23 154.65L59.23 165.15L57.71 165.15L57.71 164.10L57.47 164.10Q57.19 164.58 56.61 164.97Q56.03 165.36 54.95 165.36ZM55.39 164.01L55.39 164.01Q56.39 164.01 57.04 163.37Q57.70 162.72 57.70 161.52L57.70 161.52L57.70 161.39Q57.70 160.20 57.05 159.56Q56.41 158.91 55.39 158.91L55.39 158.91Q54.40 158.91 53.74 159.56Q53.09 160.20 53.09 161.39L53.09 161.39L53.09 161.52Q53.09 162.72 53.74 163.37Q54.40 164.01 55.39 164.01Z M64.80 165.36L64.80 165.36Q64.01 165.36 63.38 165.09Q62.76 164.82 62.39 164.30Q62.03 163.77 62.03 163.02L62.03 163.02Q62.03 162.26 62.39 161.75Q62.76 161.25 63.40 161.00Q64.04 160.74 64.85 160.74L64.85 160.74L67.10 160.74L67.10 160.26Q67.10 159.62 66.71 159.23Q66.32 158.84 65.51 158.84L65.51 158.84Q64.71 158.84 64.29 159.21Q63.87 159.59 63.74 160.19L63.74 160.19L62.30 159.72Q62.48 159.12 62.88 158.63Q63.27 158.15 63.93 157.85Q64.59 157.55 65.52 157.55L65.52 157.55Q66.96 157.55 67.79 158.28Q68.61 159.02 68.61 160.37L68.61 160.37L68.61 163.41Q68.61 163.86 69.03 163.86L69.03 163.86L69.66 163.86L69.66 165.15L68.51 165.15Q67.98 165.15 67.65 164.88Q67.32 164.61 67.32 164.15L67.32 164.15L67.32 164.10L67.10 164.10Q66.98 164.33 66.74 164.63Q66.50 164.93 66.03 165.14Q65.57 165.36 64.80 165.36ZM65.03 164.09L65.03 164.09Q65.96 164.09 66.53 163.55Q67.10 163.02 67.10 162.09L67.10 162.09L67.10 161.94L64.94 161.94Q64.32 161.94 63.95 162.20Q63.57 162.47 63.57 162.98L63.57 162.98Q63.57 163.49 63.96 163.79Q64.35 164.09 65.03 164.09Z  M81.26 165.36L81.26 165.36Q80.18 165.36 79.60 164.97Q79.03 164.58 78.74 164.10L78.74 164.10L78.50 164.10L78.50 165.15L76.99 165.15L76.99 154.65L78.53 154.65L78.53 158.76L78.77 158.76Q78.95 158.46 79.25 158.18Q79.55 157.91 80.05 157.73Q80.54 157.55 81.26 157.55L81.26 157.55Q82.19 157.55 82.97 158.00Q83.75 158.45 84.22 159.30Q84.68 160.16 84.68 161.34L84.68 161.34L84.68 161.57Q84.68 162.77 84.21 163.61Q83.74 164.46 82.97 164.91Q82.19 165.36 81.26 165.36ZM80.81 164.01L80.81 164.01Q81.82 164.01 82.47 163.37Q83.12 162.72 83.12 161.52L83.12 161.52L83.12 161.39Q83.12 160.20 82.48 159.56Q81.83 158.91 80.81 158.91L80.81 158.91Q79.82 158.91 79.17 159.56Q78.52 160.20 78.52 161.39L78.52 161.39L78.52 161.52Q78.52 162.72 79.17 163.37Q79.82 164.01 80.81 164.01Z M89.15 165.15L87.60 165.15L87.60 157.76L89.15 157.76L89.15 165.15ZM88.38 156.75L88.38 156.75Q87.93 156.75 87.62 156.46Q87.32 156.17 87.32 155.70L87.32 155.70Q87.32 155.24 87.62 154.94Q87.93 154.65 88.38 154.65L88.38 154.65Q88.85 154.65 89.15 154.94Q89.45 155.24 89.45 155.70L89.45 155.70Q89.45 156.17 89.15 156.46Q88.85 156.75 88.38 156.75Z M93.99 165.15L92.44 165.15L92.44 157.76L93.96 157.76L93.96 158.87L94.20 158.87Q94.41 158.42 94.95 158.03Q95.49 157.64 96.55 157.64L96.55 157.64Q97.39 157.64 98.04 158.01Q98.70 158.39 99.07 159.07Q99.45 159.75 99.45 160.71L99.45 160.71L99.45 165.15L97.90 165.15L97.90 160.83Q97.90 159.87 97.42 159.41Q96.94 158.96 96.10 158.96L96.10 158.96Q95.14 158.96 94.56 159.59Q93.99 160.22 93.99 161.42L93.99 161.42L93.99 165.15Z  M109.04 165.15L107.49 165.15L107.49 157.76L109.04 157.76L109.04 165.15ZM108.27 156.75L108.27 156.75Q107.82 156.75 107.51 156.46Q107.21 156.17 107.21 155.70L107.21 155.70Q107.21 155.24 107.51 154.94Q107.82 154.65 108.27 154.65L108.27 154.65Q108.74 154.65 109.04 154.94Q109.34 155.24 109.34 155.70L109.34 155.70Q109.34 156.17 109.04 156.46Q108.74 156.75 108.27 156.75Z  M120.22 165.36L120.22 165.36Q119.30 165.36 118.52 164.91Q117.74 164.46 117.27 163.61Q116.80 162.77 116.80 161.57L116.80 161.57L116.80 161.34Q116.80 160.16 117.26 159.30Q117.73 158.45 118.51 158.00Q119.29 157.55 120.22 157.55L120.22 157.55Q120.94 157.55 121.42 157.73Q121.91 157.91 122.23 158.18Q122.54 158.46 122.71 158.76L122.71 158.76L122.95 158.76L122.95 154.65L124.49 154.65L124.49 165.15L122.98 165.15L122.98 164.10L122.74 164.10Q122.45 164.58 121.88 164.97Q121.30 165.36 120.22 165.36ZM120.65 164.01L120.65 164.01Q121.66 164.01 122.31 163.37Q122.96 162.72 122.96 161.52L122.96 161.52L122.96 161.39Q122.96 160.20 122.32 159.56Q121.67 158.91 120.65 158.91L120.65 158.91Q119.66 158.91 119.01 159.56Q118.36 160.20 118.36 161.39L118.36 161.39L118.36 161.52Q118.36 162.72 119.01 163.37Q119.66 164.01 120.65 164.01Z M130.07 165.36L130.07 165.36Q129.27 165.36 128.65 165.09Q128.03 164.82 127.66 164.30Q127.29 163.77 127.29 163.02L127.29 163.02Q127.29 162.26 127.66 161.75Q128.03 161.25 128.66 161.00Q129.30 160.74 130.11 160.74L130.11 160.74L132.36 160.74L132.36 160.26Q132.36 159.62 131.97 159.23Q131.58 158.84 130.77 158.84L130.77 158.84Q129.98 158.84 129.56 159.21Q129.14 159.59 129.00 160.19L129.00 160.19L127.56 159.72Q127.74 159.12 128.14 158.63Q128.54 158.15 129.20 157.85Q129.86 157.55 130.79 157.55L130.79 157.55Q132.23 157.55 133.05 158.28Q133.88 159.02 133.88 160.37L133.88 160.37L133.88 163.41Q133.88 163.86 134.30 163.86L134.30 163.86L134.93 163.86L134.93 165.15L133.77 165.15Q133.25 165.15 132.92 164.88Q132.59 164.61 132.59 164.15L132.59 164.15L132.59 164.10L132.36 164.10Q132.24 164.33 132.00 164.63Q131.76 164.93 131.30 165.14Q130.83 165.36 130.07 165.36ZM130.29 164.09L130.29 164.09Q131.22 164.09 131.79 163.55Q132.36 163.02 132.36 162.09L132.36 162.09L132.36 161.94L130.20 161.94Q129.59 161.94 129.21 162.20Q128.84 162.47 128.84 162.98L128.84 162.98Q128.84 163.49 129.23 163.79Q129.62 164.09 130.29 164.09Z M138.97 165.15L137.43 165.15L137.43 154.65L138.97 154.65L138.97 158.81L139.21 158.81Q139.36 158.52 139.64 158.25Q139.92 157.98 140.38 157.81Q140.83 157.64 141.54 157.64L141.54 157.64Q142.38 157.64 143.03 158.01Q143.68 158.39 144.06 159.07Q144.43 159.75 144.43 160.71L144.43 160.71L144.43 165.15L142.89 165.15L142.89 160.83Q142.89 159.87 142.41 159.41Q141.93 158.96 141.09 158.96L141.09 158.96Q140.13 158.96 139.55 159.59Q138.97 160.22 138.97 161.42L138.97 161.42L138.97 165.15Z M151.12 165.36L151.12 165.36Q150.01 165.36 149.14 164.90Q148.28 164.45 147.79 163.59Q147.29 162.74 147.29 161.57L147.29 161.57L147.29 161.34Q147.29 160.17 147.79 159.32Q148.28 158.48 149.14 158.01Q150.01 157.55 151.12 157.55L151.12 157.55Q152.23 157.55 153.10 158.01Q153.97 158.48 154.46 159.32Q154.96 160.17 154.96 161.34L154.96 161.34L154.96 161.57Q154.96 162.74 154.46 163.59Q153.97 164.45 153.10 164.90Q152.23 165.36 151.12 165.36ZM151.12 163.98L151.12 163.98Q152.14 163.98 152.77 163.33Q153.41 162.68 153.41 161.52L153.41 161.52L153.41 161.39Q153.41 160.23 152.78 159.58Q152.15 158.93 151.12 158.93L151.12 158.93Q150.11 158.93 149.47 159.58Q148.84 160.23 148.84 161.39L148.84 161.39L148.84 161.52Q148.84 162.68 149.47 163.33Q150.11 163.98 151.12 163.98Z M160.17 165.36L160.17 165.36Q159.38 165.36 158.75 165.09Q158.13 164.82 157.76 164.30Q157.40 163.77 157.40 163.02L157.40 163.02Q157.40 162.26 157.76 161.75Q158.13 161.25 158.77 161.00Q159.41 160.74 160.22 160.74L160.22 160.74L162.47 160.74L162.47 160.26Q162.47 159.62 162.08 159.23Q161.69 158.84 160.88 158.84L160.88 158.84Q160.08 158.84 159.66 159.21Q159.24 159.59 159.11 160.19L159.11 160.19L157.67 159.72Q157.85 159.12 158.24 158.63Q158.64 158.15 159.30 157.85Q159.96 157.55 160.89 157.55L160.89 157.55Q162.33 157.55 163.16 158.28Q163.98 159.02 163.98 160.37L163.98 160.37L163.98 163.41Q163.98 163.86 164.40 163.86L164.40 163.86L165.03 163.86L165.03 165.15L163.88 165.15Q163.35 165.15 163.02 164.88Q162.69 164.61 162.69 164.15L162.69 164.15L162.69 164.10L162.47 164.10Q162.35 164.33 162.11 164.63Q161.87 164.93 161.40 165.14Q160.94 165.36 160.17 165.36ZM160.40 164.09L160.40 164.09Q161.33 164.09 161.90 163.55Q162.47 163.02 162.47 162.09L162.47 162.09L162.47 161.94L160.31 161.94Q159.69 161.94 159.32 162.20Q158.94 162.47 158.94 162.98L158.94 162.98Q158.94 163.49 159.33 163.79Q159.72 164.09 160.40 164.09Z M169.08 165.15L167.53 165.15L167.53 157.76L169.05 157.76L169.05 158.63L169.29 158.63Q169.50 158.24 169.96 157.94Q170.43 157.64 171.22 157.64L171.22 157.64Q172.05 157.64 172.55 157.97Q173.05 158.31 173.31 158.84L173.31 158.84L173.55 158.84Q173.80 158.33 174.29 157.98Q174.78 157.64 175.68 157.64L175.68 157.64Q176.40 157.64 176.95 157.93Q177.51 158.22 177.84 158.80Q178.17 159.38 178.17 160.23L178.17 160.23L178.17 165.15L176.62 165.15L176.62 160.35Q176.62 159.68 176.25 159.31Q175.89 158.94 175.21 158.94L175.21 158.94Q174.49 158.94 174.06 159.41Q173.62 159.87 173.62 160.74L173.62 160.74L173.62 165.15L172.08 165.15L172.08 160.35Q172.08 159.68 171.71 159.31Q171.34 158.94 170.67 158.94L170.67 158.94Q169.95 158.94 169.51 159.41Q169.08 159.87 169.08 160.74L169.08 160.74L169.08 165.15Z" fill="#1d1c19" fill-opacity="0.7"></path><svg x="-17.50" y="153.82" width="258.46" height="132.82" viewBox="0 0 360 185" overflow="visible"><g fill="#1d1c19"><g transform="translate(64.98,0)"><path d="M22.88 133.59 L22.88 133.59 Q21.33 133.16 20.38 132.82 L20.38 132.82 L19.44 132.56 Q19.61 132.13 19.31 131.78 Q19.01 131.44 18.06 131.35 L18.06 131.35 Q16.77 130.49 15.39 128.95 Q14.02 127.40 12.99 125.76 Q11.95 124.13 11.61 123.36 L11.61 123.36 Q11.18 122.32 11.44 121.98 L11.44 121.98 Q11.52 121.81 11.70 121.72 L11.70 121.72 Q12.38 121.46 13.33 121.03 L13.33 121.03 Q14.28 120.35 15.35 120.00 Q16.43 119.66 17.11 121.12 L17.11 121.12 Q18.23 123.10 20.60 124.47 Q22.96 125.85 26.02 126.11 Q29.07 126.37 32.16 125.08 L32.16 125.08 Q34.23 124.13 34.40 122.45 Q34.57 120.78 33.11 118.54 L33.11 118.54 Q32.85 117.85 32.38 117.42 Q31.91 116.99 31.00 116.30 Q30.10 115.62 28.47 114.07 L28.47 114.07 Q27.18 113.47 26.10 112.95 Q25.03 112.43 23.82 111.83 L23.82 111.83 Q22.45 111.14 20.73 109.90 Q19.01 108.65 17.54 107.14 Q16.08 105.64 15.31 104.26 L15.31 104.26 Q13.93 102.97 13.59 100.69 Q13.24 98.42 13.72 95.84 Q14.19 93.26 15.31 91.19 L15.31 91.19 Q15.82 89.99 17.20 88.05 Q18.58 86.12 20.30 84.05 Q22.02 81.99 23.61 80.31 Q25.20 78.64 26.14 78.03 L26.14 78.03 Q26.83 77.35 27.61 76.57 L27.61 76.57 L28.38 75.88 Q28.47 75.45 28.72 75.45 L28.72 75.45 L28.90 75.45 Q29.33 75.20 30.79 74.59 Q32.25 73.99 33.97 72.36 L33.97 72.36 Q39.73 69.61 43.77 68.62 Q47.82 67.63 50.14 67.63 L50.14 67.63 Q52.29 67.71 54.35 68.79 Q56.42 69.86 57.92 71.50 Q59.43 73.13 59.68 75.20 L59.68 75.20 Q60.29 77.26 59.13 80.14 Q57.96 83.02 55.94 85.56 Q53.92 88.10 51.77 89.30 L51.77 89.30 Q49.36 90.33 47.69 89.56 Q46.01 88.78 46.10 87.15 L46.10 87.15 Q46.10 86.46 46.57 85.52 Q47.04 84.57 49.19 82.16 L49.19 82.16 Q51.94 78.12 52.12 76.40 Q52.29 74.68 50.57 74.42 L50.57 74.42 Q50.05 74.25 48.59 74.51 Q47.13 74.77 45.45 75.15 Q43.77 75.54 42.53 75.97 Q41.28 76.40 41.28 76.57 L41.28 76.57 L41.28 76.83 Q41.28 76.92 41.19 77.00 L41.19 77.00 Q41.19 77.09 40.94 77.00 L40.94 77.00 Q40.76 77.00 39.78 77.56 Q38.79 78.12 37.41 78.98 Q36.03 79.84 34.70 80.74 Q33.37 81.65 32.42 82.33 Q31.48 83.02 31.39 83.19 L31.39 83.19 Q31.22 84.14 29.41 84.91 L29.41 84.91 Q27.69 85.95 26.40 87.84 Q25.11 89.73 23.39 92.65 L23.39 92.65 Q21.93 94.63 21.33 96.91 Q20.73 99.19 21.33 100.57 L21.33 100.57 Q21.76 101.94 23.69 103.28 Q25.63 104.61 28.98 106.59 L28.98 106.59 Q31.91 108.22 34.49 110.03 Q37.07 111.83 38.87 113.51 Q40.68 115.19 41.19 116.30 L41.19 116.30 Q42.23 117.77 42.44 119.66 Q42.66 121.55 42.44 123.31 Q42.23 125.08 41.88 126.19 L41.88 126.19 Q41.28 127.57 40.03 129.12 Q38.79 130.67 37.75 130.58 L37.75 130.58 Q36.81 130.84 36.34 131.18 Q35.86 131.53 35.26 131.78 L35.26 131.78 Q34.66 132.13 32.42 132.60 Q30.19 133.07 27.52 133.38 Q24.85 133.68 22.88 133.59 Z M67.77 126.28 L67.77 126.28 Q65.19 127.74 62.31 127.96 Q59.43 128.17 56.93 127.18 Q54.44 126.19 52.89 124.22 L52.89 124.22 Q52.03 123.10 51.26 120.65 Q50.48 118.20 51.00 113.98 L51.00 113.98 Q51.51 110.03 53.45 105.98 Q55.38 101.94 58.22 98.85 Q61.06 95.75 64.41 94.63 L64.41 94.63 Q65.62 94.20 66.86 93.99 Q68.11 93.77 70.18 93.94 L70.18 93.94 Q72.15 94.20 73.70 94.93 Q75.25 95.66 75.94 96.52 L75.94 96.52 Q77.31 97.90 77.74 99.19 Q78.17 100.48 78.09 101.68 L78.09 101.68 Q77.66 104.44 75.64 107.62 Q73.62 110.80 70.00 112.35 L70.00 112.35 Q68.54 112.95 66.56 113.12 Q64.59 113.29 61.15 112.61 L61.15 112.61 Q59.08 112.18 58.44 113.04 Q57.79 113.90 57.88 116.39 L57.88 116.39 Q58.05 117.94 58.61 119.10 Q59.17 120.26 60.72 120.69 L60.72 120.69 Q62.69 121.03 63.55 120.73 Q64.41 120.43 65.70 119.83 L65.70 119.83 Q66.39 119.40 67.08 118.88 L67.08 118.88 L68.37 117.85 Q68.97 117.34 69.40 117.08 L69.40 117.08 Q69.83 116.73 70.26 116.65 Q70.69 116.56 71.12 116.56 L71.12 116.56 Q72.07 116.65 72.93 117.59 Q73.79 118.54 74.05 119.40 L74.05 119.40 Q74.05 120.09 73.19 121.33 Q72.33 122.58 70.91 123.92 Q69.49 125.25 67.77 126.28 Z M66.65 107.10 L66.65 107.10 Q67.25 106.84 68.41 105.90 Q69.57 104.95 70.52 103.88 Q71.47 102.80 71.47 102.20 L71.47 102.20 Q71.47 101.25 70.22 100.57 Q68.97 99.88 66.99 100.31 L66.99 100.31 Q66.31 100.48 65.36 101.25 Q64.41 102.03 63.47 103.02 Q62.52 104.01 61.83 104.91 Q61.15 105.81 60.89 106.33 L60.89 106.33 Q61.23 106.76 62.26 107.02 Q63.30 107.27 64.54 107.27 Q65.79 107.27 66.65 107.10 Z M96.49 126.28 L96.49 126.28 Q93.91 127.74 91.03 127.96 Q88.15 128.17 85.66 127.18 Q83.16 126.19 81.61 124.22 L81.61 124.22 Q80.75 123.10 79.98 120.65 Q79.21 118.20 79.72 113.98 L79.72 113.98 Q80.24 110.03 82.17 105.98 Q84.11 101.94 86.95 98.85 Q89.78 95.75 93.14 94.63 L93.14 94.63 Q94.34 94.20 95.59 93.99 Q96.84 93.77 98.90 93.94 L98.90 93.94 Q100.88 94.20 102.43 94.93 Q103.97 95.66 104.66 96.52 L104.66 96.52 Q106.04 97.90 106.47 99.19 Q106.90 100.48 106.81 101.68 L106.81 101.68 Q106.38 104.44 104.36 107.62 Q102.34 110.80 98.73 112.35 L98.73 112.35 Q97.27 112.95 95.29 113.12 Q93.31 113.29 89.87 112.61 L89.87 112.61 Q87.81 112.18 87.16 113.04 Q86.52 113.90 86.60 116.39 L86.60 116.39 Q86.77 117.94 87.33 119.10 Q87.89 120.26 89.44 120.69 L89.44 120.69 Q91.42 121.03 92.28 120.73 Q93.14 120.43 94.43 119.83 L94.43 119.83 Q95.12 119.40 95.80 118.88 L95.80 118.88 L97.09 117.85 Q97.70 117.34 98.13 117.08 L98.13 117.08 Q98.56 116.73 98.99 116.65 Q99.42 116.56 99.85 116.56 L99.85 116.56 Q100.79 116.65 101.65 117.59 Q102.51 118.54 102.77 119.40 L102.77 119.40 Q102.77 120.09 101.91 121.33 Q101.05 122.58 99.63 123.92 Q98.21 125.25 96.49 126.28 Z M95.37 107.10 L95.37 107.10 Q95.98 106.84 97.14 105.90 Q98.30 104.95 99.24 103.88 Q100.19 102.80 100.19 102.20 L100.19 102.20 Q100.19 101.25 98.94 100.57 Q97.70 99.88 95.72 100.31 L95.72 100.31 Q95.03 100.48 94.08 101.25 Q93.14 102.03 92.19 103.02 Q91.25 104.01 90.56 104.91 Q89.87 105.81 89.61 106.33 L89.61 106.33 Q89.96 106.76 90.99 107.02 Q92.02 107.27 93.27 107.27 Q94.51 107.27 95.37 107.10 Z M118.42 145.20 L118.42 145.20 Q116.01 146.15 113.39 144.90 Q110.77 143.65 108.88 140.99 L108.88 140.99 Q108.53 140.47 107.84 139.14 Q107.16 137.80 106.51 136.26 Q105.87 134.71 105.56 133.59 Q105.26 132.47 105.52 132.30 L105.52 132.30 Q105.87 131.35 107.07 131.18 Q108.27 131.01 109.48 131.31 Q110.68 131.61 110.85 132.13 L110.85 132.13 Q111.11 132.73 111.37 133.38 Q111.63 134.02 112.01 134.58 Q112.40 135.14 112.75 135.57 L112.75 135.57 Q113.69 137.03 114.81 137.59 Q115.93 138.15 116.53 137.72 L116.53 137.72 Q117.99 136.60 118.72 135.09 Q119.45 133.59 120.66 129.81 L120.66 129.81 Q121.60 126.62 122.29 124.30 Q122.98 121.98 123.75 120.00 L123.75 120.00 Q124.01 118.97 124.44 118.20 L124.44 118.20 Q124.53 118.02 124.61 117.85 L124.61 117.85 Q123.41 118.71 122.46 119.57 L122.46 119.57 Q121.17 120.78 118.94 121.72 L118.94 121.72 Q118.42 122.32 116.40 122.45 Q114.38 122.58 112.49 121.98 L112.49 121.98 Q111.28 121.29 110.55 120.56 Q109.82 119.83 109.35 118.88 Q108.88 117.94 108.36 116.65 L108.36 116.65 Q107.76 115.36 108.19 112.43 Q108.62 109.51 109.74 106.59 L109.74 106.59 Q110.77 104.44 112.75 101.94 Q114.72 99.45 116.96 97.43 Q119.20 95.41 121.00 94.89 L121.00 94.89 Q121.69 94.55 123.41 94.07 Q125.13 93.60 126.68 94.03 L126.68 94.03 Q128.14 94.20 128.91 94.67 Q129.69 95.15 131.41 96.61 L131.41 96.61 Q132.53 97.73 134.16 99.49 Q135.79 101.25 136.22 102.46 L136.22 102.46 Q136.83 103.75 136.48 105.25 Q136.14 106.76 135.28 107.88 L135.28 107.88 Q134.50 108.99 133.64 110.11 Q132.78 111.23 132.35 113.21 L132.35 113.21 Q131.92 115.79 130.72 119.01 Q129.52 122.24 128.83 124.99 L128.83 124.99 L127.45 130.32 Q125.30 137.63 122.72 140.94 Q120.14 144.25 118.42 145.20 Z M116.62 115.62 L116.62 115.62 Q118.34 115.53 119.58 115.23 Q120.83 114.93 121.95 113.85 Q123.07 112.78 124.53 110.54 L124.53 110.54 Q125.99 108.48 126.59 106.76 Q127.19 105.04 127.02 102.89 L127.02 102.89 Q126.94 101.51 126.25 101.08 Q125.56 100.65 124.44 100.82 L124.44 100.82 Q122.81 101.08 121.52 102.16 Q120.23 103.23 118.51 105.47 L118.51 105.47 Q117.22 107.19 116.36 109.60 L116.36 109.60 Q115.50 112.18 115.63 113.72 Q115.76 115.27 116.62 115.62 Z M143.88 138.41 L143.88 138.41 Q143.36 138.75 141.56 137.59 Q139.75 136.43 138.55 135.05 L138.55 135.05 Q137.94 134.36 137.77 133.59 Q137.60 132.82 137.86 130.67 L137.86 130.67 Q138.20 129.72 138.24 128.86 Q138.29 128.00 138.29 127.66 L138.29 127.66 Q138.29 127.14 138.59 125.25 Q138.89 123.36 139.23 121.25 Q139.58 119.14 139.84 118.02 L139.84 118.02 Q139.84 117.94 139.96 117.42 Q140.09 116.91 140.18 116.65 L140.18 116.65 Q140.35 115.87 140.61 114.76 Q140.87 113.64 141.13 111.75 L141.13 111.75 Q141.81 109.60 142.29 107.49 Q142.76 105.38 142.76 104.61 L142.76 104.61 Q142.76 103.06 143.96 102.37 L143.96 102.37 Q144.05 101.94 144.48 101.04 Q144.91 100.14 145.25 99.53 L145.25 99.53 Q146.97 94.63 148.09 91.71 Q149.21 88.78 150.41 86.63 L150.41 86.63 Q150.93 85.17 151.57 83.62 Q152.22 82.08 152.91 81.22 L152.91 81.22 Q153.51 80.01 155.01 78.25 Q156.52 76.49 158.24 74.85 Q159.96 73.22 160.99 72.44 L160.99 72.44 Q162.88 71.50 164.52 70.90 Q166.15 70.29 167.96 70.29 L167.96 70.29 Q169.59 70.29 170.84 71.03 Q172.09 71.76 174.58 73.99 L174.58 73.99 Q175.44 75.11 175.44 76.14 Q175.44 77.17 175.01 77.86 L175.01 77.86 Q174.41 79.24 173.20 81.26 Q172.00 83.28 170.88 84.87 Q169.76 86.46 169.25 86.55 L169.25 86.55 Q168.22 87.15 167.10 86.89 Q165.98 86.63 165.98 85.34 L165.98 85.34 Q165.98 84.74 166.07 84.23 L166.07 84.23 L166.07 83.71 Q166.32 82.59 166.71 81.73 Q167.10 80.87 167.44 80.27 L167.44 80.27 Q168.13 79.15 167.83 78.12 Q167.53 77.09 165.64 77.26 L165.64 77.26 Q165.38 77.43 164.65 78.08 Q163.92 78.72 163.10 79.54 Q162.28 80.36 161.68 81.09 Q161.08 81.82 161.08 82.08 L161.08 82.08 L160.65 82.94 Q160.13 83.88 159.19 85.00 L159.19 85.00 Q158.58 85.86 158.15 86.63 Q157.72 87.41 157.72 87.84 L157.72 87.84 Q157.72 88.18 157.64 88.44 Q157.55 88.70 157.21 88.70 L157.21 88.70 L156.95 89.56 Q156.61 90.42 155.92 91.62 L155.92 91.62 Q155.57 92.48 155.19 93.21 Q154.80 93.94 154.46 94.29 L154.46 94.29 L154.37 94.46 L154.03 95.41 Q153.60 96.44 153.17 97.47 Q152.74 98.50 152.74 98.67 L152.74 98.67 Q152.74 99.02 153.77 99.02 Q154.80 99.02 156.26 98.72 Q157.72 98.42 159.10 98.07 L159.10 98.07 Q160.30 97.73 160.82 97.73 Q161.34 97.73 162.45 98.07 L162.45 98.07 Q163.14 98.50 163.57 99.58 Q164.00 100.65 164.22 101.73 Q164.43 102.80 164.26 103.32 L164.26 103.32 Q164.17 103.66 162.32 104.26 Q160.48 104.87 158.67 105.21 L158.67 105.21 Q157.12 105.55 155.19 105.94 Q153.25 106.33 151.79 106.72 Q150.33 107.10 150.24 107.45 L150.24 107.45 Q149.90 107.45 149.68 107.88 Q149.47 108.31 149.47 108.65 L149.47 108.65 Q149.47 109.77 149.04 110.46 L149.04 110.46 Q148.87 110.97 148.48 112.56 Q148.09 114.15 147.70 116.00 Q147.32 117.85 147.02 119.44 Q146.72 121.03 146.72 121.55 L146.72 121.55 Q146.20 122.15 146.11 123.06 Q146.03 123.96 146.03 124.65 L146.03 124.65 Q145.68 125.33 145.60 125.89 Q145.51 126.45 145.51 126.80 L145.51 126.80 L145.51 127.14 Q145.51 127.40 145.43 127.66 L145.43 127.66 Q145.34 128.52 145.21 129.94 Q145.08 131.35 145.08 132.73 L145.08 132.73 L144.82 135.22 Q144.74 136.34 144.52 137.16 Q144.31 137.98 143.88 138.41 Z M186.02 127.83 L186.02 127.83 Q185.16 126.97 184.64 125.46 Q184.13 123.96 183.61 121.98 L183.61 121.98 Q183.44 121.29 183.48 120.43 Q183.52 119.57 183.44 119.06 L183.44 119.06 Q183.18 119.66 182.62 120.60 Q182.06 121.55 181.55 121.98 L181.55 121.98 Q181.20 122.32 180.00 123.31 Q178.79 124.30 177.59 124.90 L177.59 124.90 Q174.75 126.71 172.56 126.58 Q170.37 126.45 168.73 124.39 L168.73 124.39 Q167.36 123.27 166.50 121.55 Q165.64 119.83 166.15 117.42 L166.15 117.42 Q166.32 114.41 167.01 111.53 Q167.70 108.65 169.85 103.83 L169.85 103.83 Q171.66 100.31 172.60 98.33 Q173.55 96.35 173.81 96.01 L173.81 96.01 Q175.10 95.58 176.99 96.05 Q178.88 96.52 179.05 97.73 L179.05 97.73 Q179.57 98.59 179.05 100.95 Q178.54 103.32 176.99 106.33 L176.99 106.33 Q175.78 109.25 174.71 112.00 Q173.63 114.76 173.42 116.65 Q173.20 118.54 174.41 118.97 L174.41 118.97 Q175.18 119.40 176.69 118.88 Q178.19 118.37 180.26 115.79 Q182.32 113.21 184.64 107.62 L184.64 107.62 Q185.33 105.90 185.67 104.56 Q186.02 103.23 186.10 101.60 L186.10 101.60 Q185.93 100.57 186.66 99.45 Q187.39 98.33 188.43 97.73 L188.43 97.73 Q188.77 97.30 189.37 96.87 L189.37 96.87 Q189.80 96.61 189.97 96.78 L189.97 96.78 Q190.06 96.78 190.15 96.95 L190.15 96.95 L191.52 96.87 Q191.87 96.78 192.30 97.56 Q192.73 98.33 193.16 98.67 L193.16 98.67 Q194.10 99.45 194.02 102.03 Q193.93 104.61 191.95 109.25 L191.95 109.25 Q190.32 112.78 189.76 114.58 Q189.20 116.39 189.11 118.11 L189.11 118.11 Q189.11 119.66 189.37 120.73 Q189.63 121.81 190.92 122.93 L190.92 122.93 Q191.87 123.53 191.99 124.95 Q192.12 126.37 192.04 127.40 L192.04 127.40 Q191.87 128.17 190.70 128.47 Q189.54 128.77 188.21 128.60 Q186.88 128.43 186.02 127.83 Z M197.80 126.54 L197.80 126.54 Q197.11 125.85 196.81 124.47 Q196.51 123.10 196.60 121.77 Q196.68 120.43 197.03 119.74 L197.03 119.74 Q197.03 119.06 197.24 118.67 Q197.46 118.28 197.37 117.94 L197.37 117.94 Q197.28 117.59 197.54 116.73 Q197.80 115.87 198.06 115.10 L198.06 115.10 Q198.66 113.72 199.43 111.53 Q200.21 109.34 200.98 107.06 Q201.76 104.78 202.27 103.10 Q202.79 101.43 202.87 101.08 L202.87 101.08 Q202.87 100.05 204.25 99.96 L204.25 99.96 Q205.28 99.62 206.74 100.82 Q208.21 102.03 209.07 103.40 L209.07 103.40 Q209.75 104.09 209.58 105.21 Q209.41 106.33 208.46 108.39 L208.46 108.39 Q208.12 109.08 207.65 110.67 Q207.17 112.26 207.00 113.29 L207.00 113.29 Q206.66 113.98 206.18 115.23 Q205.71 116.48 205.37 117.59 L205.37 117.59 Q205.20 118.02 205.02 119.19 Q204.85 120.35 204.59 121.55 Q204.34 122.75 203.91 123.44 L203.91 123.44 Q203.13 126.97 201.20 127.57 Q199.26 128.17 197.80 126.54 Z " fill="#1d1c19"></path><defs><mask id="hm2" maskUnits="userSpaceOnUse"><path d="M0,3 C0,-3 -9,-6 -9,-13 C-9,-19 -2,-20 0,-14 C2,-20 9,-19 9,-13 C9,-6 0,-3 0,3 Z" fill="#fff"></path><path d="M-7.5,-8 q2.5,-3.4 5,0 t5,0 t5,0" fill="none" stroke="#000" stroke-width="2.1" stroke-linecap="round"></path></mask></defs><g transform="translate(210.40,95.23) rotate(12) scale(0.940)"><path d="M0,3 C0,-3 -9,-6 -9,-13 C-9,-19 -2,-20 0,-14 C2,-20 9,-19 9,-13 C9,-6 0,-3 0,3 Z" fill="#d23b34" mask="url(#hm2)"></path></g></g></g></svg><path d="M20.33 304.80L20.33 304.80Q19.05 304.80 18.06 304.34Q17.08 303.89 16.52 303.02Q15.96 302.16 15.96 300.91L15.96 300.91L15.96 300.50L17.86 300.50L17.86 300.91Q17.86 302.02 18.54 302.56Q19.21 303.10 20.33 303.10L20.33 303.10Q21.46 303.10 22.04 302.64Q22.62 302.18 22.62 301.44L22.62 301.44Q22.62 300.94 22.34 300.63Q22.07 300.32 21.55 300.13Q21.03 299.94 20.30 299.76L20.30 299.76L19.82 299.66Q18.71 299.41 17.90 299.02Q17.10 298.62 16.66 298Q16.23 297.38 16.23 296.37L16.23 296.37Q16.23 295.36 16.71 294.64Q17.19 293.92 18.07 293.54Q18.95 293.15 20.14 293.15L20.14 293.15Q21.32 293.15 22.25 293.55Q23.18 293.95 23.71 294.75Q24.25 295.55 24.25 296.75L24.25 296.75L24.25 297.28L22.34 297.28L22.34 296.75Q22.34 296.06 22.07 295.65Q21.80 295.23 21.30 295.04Q20.81 294.85 20.14 294.85L20.14 294.85Q19.14 294.85 18.63 295.23Q18.12 295.62 18.12 296.32L18.12 296.32Q18.12 296.77 18.35 297.08Q18.58 297.39 19.04 297.59Q19.50 297.79 20.18 297.94L20.18 297.94L20.66 298.05Q21.82 298.30 22.68 298.70Q23.54 299.09 24.03 299.73Q24.52 300.37 24.52 301.39L24.52 301.39Q24.52 302.40 24.00 303.17Q23.48 303.94 22.54 304.37Q21.61 304.80 20.33 304.80Z M39.76 304.58L37.84 304.58L37.84 295.12L34.50 295.12L34.50 293.38L43.10 293.38L43.10 295.12L39.76 295.12L39.76 304.58Z M54.81 304.58L52.82 304.58L55.90 293.38L59.24 293.38L62.31 304.58L60.33 304.58L59.66 302.02L55.48 302.02L54.81 304.58ZM57.43 294.58L55.93 300.26L59.21 300.26L57.70 294.58L57.43 294.58Z M74.67 304.58L72.74 304.58L72.74 293.38L77.52 293.38Q78.58 293.38 79.36 293.74Q80.14 294.11 80.58 294.78Q81.02 295.44 81.02 296.37L81.02 296.37L81.02 296.54Q81.02 297.58 80.53 298.21Q80.03 298.83 79.33 299.12L79.33 299.12L79.33 299.38Q79.95 299.41 80.31 299.81Q80.67 300.21 80.67 300.88L80.67 300.88L80.67 304.58L78.75 304.58L78.75 301.15Q78.75 300.75 78.54 300.50Q78.32 300.26 77.84 300.26L77.84 300.26L74.67 300.26L74.67 304.58ZM74.67 295.12L74.67 298.51L77.33 298.51Q78.16 298.51 78.63 298.07Q79.10 297.63 79.10 296.90L79.10 296.90L79.10 296.75Q79.10 296 78.64 295.56Q78.18 295.12 77.33 295.12L77.33 295.12L74.67 295.12Z M93.75 304.58L91.85 304.58L91.85 293.38L95.53 293.38L98.17 303.28L98.42 303.28L98.42 293.38L100.33 293.38L100.33 304.58L96.66 304.58L94.02 294.67L93.75 294.67L93.75 304.58Z M116.94 304.58L111.17 304.58L111.17 302.88L112.67 302.88L112.67 295.07L111.17 295.07L111.17 293.38L116.90 293.38Q117.90 293.38 118.66 293.72Q119.42 294.06 119.85 294.70Q120.27 295.33 120.27 296.21L120.27 296.21L120.27 296.35Q120.27 297.12 119.98 297.62Q119.70 298.11 119.30 298.38Q118.90 298.66 118.53 298.77L118.53 298.77L118.53 299.04Q118.90 299.14 119.32 299.40Q119.74 299.66 120.04 300.17Q120.34 300.67 120.34 301.47L120.34 301.47L120.34 301.63Q120.34 302.54 119.90 303.21Q119.46 303.87 118.70 304.22Q117.94 304.58 116.94 304.58L116.94 304.58ZM114.59 299.81L114.59 302.83L116.72 302.83Q117.49 302.83 117.94 302.46Q118.40 302.08 118.40 301.39L118.40 301.39L118.40 301.25Q118.40 300.56 117.95 300.18Q117.50 299.81 116.72 299.81L116.72 299.81L114.59 299.81ZM114.59 295.12L114.59 298.06L116.70 298.06Q117.44 298.06 117.90 297.70Q118.35 297.33 118.35 296.67L118.35 296.67L118.35 296.51Q118.35 295.86 117.90 295.49Q117.44 295.12 116.70 295.12L116.70 295.12L114.59 295.12Z M138.36 304.58L131.14 304.58L131.14 293.38L138.28 293.38L138.28 295.12L133.08 295.12L133.08 298.06L137.83 298.06L137.83 299.81L133.08 299.81L133.08 302.83L138.36 302.83L138.36 304.58Z M150.98 304.58L149.04 304.58L149.04 293.38L153.82 293.38Q154.88 293.38 155.66 293.74Q156.45 294.11 156.89 294.78Q157.33 295.44 157.33 296.37L157.33 296.37L157.33 296.54Q157.33 297.58 156.83 298.21Q156.34 298.83 155.63 299.12L155.63 299.12L155.63 299.38Q156.26 299.41 156.62 299.81Q156.98 300.21 156.98 300.88L156.98 300.88L156.98 304.58L155.06 304.58L155.06 301.15Q155.06 300.75 154.84 300.50Q154.62 300.26 154.14 300.26L154.14 300.26L150.98 300.26L150.98 304.58ZM150.98 295.12L150.98 298.51L153.63 298.51Q154.46 298.51 154.94 298.07Q155.41 297.63 155.41 296.90L155.41 296.90L155.41 296.75Q155.41 296 154.94 295.56Q154.48 295.12 153.63 295.12L153.63 295.12L150.98 295.12Z M172.04 304.80L172.04 304.80Q170.86 304.80 169.92 304.28Q168.98 303.76 168.43 302.76Q167.88 301.76 167.88 300.30L167.88 300.30L167.88 297.65Q167.88 295.47 169.10 294.31Q170.31 293.15 172.36 293.15L172.36 293.15Q174.41 293.15 175.51 294.25Q176.62 295.34 176.62 297.20L176.62 297.20L176.62 297.26L174.73 297.26L174.73 297.14Q174.73 296.50 174.47 295.98Q174.22 295.47 173.69 295.18Q173.16 294.88 172.36 294.88L172.36 294.88Q171.18 294.88 170.50 295.61Q169.82 296.34 169.82 297.62L169.82 297.62L169.82 300.34Q169.82 301.60 170.50 302.35Q171.18 303.10 172.39 303.10L172.39 303.10Q173.61 303.10 174.17 302.45Q174.73 301.79 174.73 300.77L174.73 300.77L174.73 300.58L171.90 300.58L171.90 298.94L176.62 298.94L176.62 304.58L174.86 304.58L174.86 303.47L174.58 303.47Q174.46 303.76 174.18 304.07Q173.91 304.38 173.41 304.59Q172.90 304.80 172.04 304.80Z M194.94 304.58L187.73 304.58L187.73 293.38L194.86 293.38L194.86 295.12L189.66 295.12L189.66 298.06L194.42 298.06L194.42 299.81L189.66 299.81L189.66 302.83L194.94 302.83L194.94 304.58Z M207.56 304.58L205.62 304.58L205.62 293.38L210.41 293.38Q211.46 293.38 212.25 293.74Q213.03 294.11 213.47 294.78Q213.91 295.44 213.91 296.37L213.91 296.37L213.91 296.54Q213.91 297.58 213.42 298.21Q212.92 298.83 212.22 299.12L212.22 299.12L212.22 299.38Q212.84 299.41 213.20 299.81Q213.56 300.21 213.56 300.88L213.56 300.88L213.56 304.58L211.64 304.58L211.64 301.15Q211.64 300.75 211.42 300.50Q211.21 300.26 210.73 300.26L210.73 300.26L207.56 300.26L207.56 304.58ZM207.56 295.12L207.56 298.51L210.22 298.51Q211.05 298.51 211.52 298.07Q211.99 297.63 211.99 296.90L211.99 296.90L211.99 296.75Q211.99 296 211.53 295.56Q211.06 295.12 210.22 295.12L210.22 295.12L207.56 295.12Z" fill="#2f8a7e"></path><path d="M97.20 322.72L97.20 322.72Q95.92 322.72 94.94 322.26Q93.95 321.81 93.39 320.94Q92.83 320.08 92.83 318.83L92.83 318.83L92.83 318.42L94.74 318.42L94.74 318.83Q94.74 319.94 95.41 320.48Q96.08 321.02 97.20 321.02L97.20 321.02Q98.34 321.02 98.91 320.56Q99.49 320.10 99.49 319.36L99.49 319.36Q99.49 318.86 99.22 318.55Q98.94 318.24 98.42 318.05Q97.90 317.86 97.17 317.68L97.17 317.68L96.69 317.58Q95.58 317.33 94.78 316.94Q93.97 316.54 93.54 315.92Q93.10 315.30 93.10 314.29L93.10 314.29Q93.10 313.28 93.58 312.56Q94.06 311.84 94.94 311.46Q95.82 311.07 97.01 311.07L97.01 311.07Q98.19 311.07 99.12 311.47Q100.05 311.87 100.58 312.67Q101.12 313.47 101.12 314.67L101.12 314.67L101.12 315.20L99.22 315.20L99.22 314.67Q99.22 313.98 98.94 313.57Q98.67 313.15 98.18 312.96Q97.68 312.77 97.01 312.77L97.01 312.77Q96.02 312.77 95.50 313.15Q94.99 313.54 94.99 314.24L94.99 314.24Q94.99 314.69 95.22 315Q95.46 315.31 95.91 315.51Q96.37 315.71 97.06 315.86L97.06 315.86L97.54 315.97Q98.69 316.22 99.55 316.62Q100.42 317.01 100.90 317.65Q101.39 318.29 101.39 319.31L101.39 319.31Q101.39 320.32 100.87 321.09Q100.35 321.86 99.42 322.29Q98.48 322.72 97.20 322.72Z M119.29 322.50L112.07 322.50L112.07 311.30L119.21 311.30L119.21 313.04L114.01 313.04L114.01 315.98L118.76 315.98L118.76 317.73L114.01 317.73L114.01 320.75L119.29 320.75L119.29 322.50Z M137.18 322.50L129.97 322.50L129.97 311.30L137.10 311.30L137.10 313.04L131.90 313.04L131.90 315.98L136.66 315.98L136.66 317.73L131.90 317.73L131.90 320.75L137.18 320.75L137.18 322.50Z" fill="#2f8a7e"></path><circle cx="113.2" cy="98.0" r="10" fill="#fff"></circle><circle cx="113.2" cy="98.0" r="10" fill="none" stroke="#2f8a7e" stroke-width="2.4"></circle><circle cx="113.2" cy="98.0" r="4" fill="#2f8a7e"></circle></svg>