<svg xmlns="http://www.w3.org/2000/svg" width="1380" height="2040" viewBox="0 0 230 340"><path d="M25.2,-72.2 L22.6,-75 L20.5,-75 L14.9,-72.5 L6.9,-51.7 L5,-48.1 L2.9,-46.5 L1,-41.4 L-0.9,-40 L-4.5,-32.7 L-4,-29.4 L-7.3,-27.5 L-7,-25.3 L-8.8,-21.6 L-11.1,-11.2 L-14.8,-7 L-14.8,-3.5 L-17.7,-2.1 L-17.1,-0.7 L-17.6,1 L-20.3,3 L-20.4,4.7 L-22.3,6.7 L-22.8,8.6 L-22,10.8 L-24.2,12.6 L-25.2,16 L-24.7,18.8 L-22,21.4 L-20.1,21 L-17.8,18.6 L-16.3,19 L-16.8,22.5 L-14.6,25.9 L-14.1,31.2 L-9.1,36.6 L-7.3,41.9 L-7.8,45.3 L-11.2,47.9 L-11.9,51.8 L-12.7,52.3 L-13,61.3 L-14,63.5 L-12.8,67 L-0.2,75 L6.5,74 L8,74.9 L10.3,73.9 L10.6,72.7 L11.5,73.2 L13,69.8 L11.7,66.1 L12.5,65.6 L12,63.7 L13.4,62 L13.6,59.1 L11,34.9 L9.7,32.1 L10.5,27.3 L10.2,17.4 L11.2,11.5 L10.7,0.7 L9.1,-9.1 L10,-17.5 L15.3,-32.9 L15.9,-38 L20,-52.1 L25.1,-59.7 L24.5,-68.4 Z M-9.2,-8 L-9.73,-6.16 L-11,-5.4 L-12.27,-6.16 L-12.8,-8 L-12.27,-9.84 L-11,-10.6 L-9.73,-9.84 Z" fill="none" stroke="#2f7d8a" stroke-opacity="0.32" stroke-width="0.90" stroke-linejoin="round" stroke-linecap="round" transform="translate(115 178) scale(2.00000) translate(0.00 0.00)"></path><path d="M21.27 143.68L17.09 143.68L17.09 121.51L26.21 121.51Q28.30 121.51 29.90 122.35Q31.50 123.19 32.41 124.71Q33.31 126.23 33.31 128.32L33.31 128.32L33.31 128.76Q33.31 130.82 32.37 132.36Q31.44 133.89 29.84 134.73Q28.24 135.57 26.21 135.57L26.21 135.57L21.27 135.57L21.27 143.68ZM21.27 125.31L21.27 131.77L25.80 131.77Q27.29 131.77 28.21 130.95Q29.13 130.12 29.13 128.70L29.13 128.70L29.13 128.38Q29.13 126.96 28.21 126.13Q27.29 125.31 25.80 125.31L25.80 125.31L21.27 125.31Z M43.82 144.12L43.82 144.12Q41.48 144.12 39.61 143.17Q37.74 142.22 36.67 140.42Q35.59 138.61 35.59 136.08L35.59 136.08L35.59 135.57Q35.59 133.04 36.67 131.23Q37.74 129.43 39.61 128.48Q41.48 127.53 43.82 127.53L43.82 127.53Q46.17 127.53 48.04 128.48Q49.91 129.43 50.98 131.23Q52.06 133.04 52.06 135.57L52.06 135.57L52.06 136.08Q52.06 138.61 50.98 140.42Q49.91 142.22 48.04 143.17Q46.17 144.12 43.82 144.12ZM43.82 140.58L43.82 140.58Q45.66 140.58 46.87 139.39Q48.07 138.20 48.07 135.98L48.07 135.98L48.07 135.67Q48.07 133.45 46.88 132.26Q45.69 131.07 43.82 131.07L43.82 131.07Q41.99 131.07 40.78 132.26Q39.58 133.45 39.58 135.67L39.58 135.67L39.58 135.98Q39.58 138.20 40.78 139.39Q41.99 140.58 43.82 140.58Z M62.26 144.12L62.26 144.12Q59.19 144.12 57.22 142.79Q55.26 141.46 54.85 138.99L54.85 138.99L58.52 138.04Q58.74 139.15 59.27 139.78Q59.79 140.42 60.57 140.69Q61.34 140.96 62.26 140.96L62.26 140.96Q63.65 140.96 64.32 140.46Q64.98 139.97 64.98 139.25L64.98 139.25Q64.98 138.52 64.35 138.12Q63.72 137.72 62.32 137.47L62.32 137.47L61.44 137.31Q59.79 137.00 58.43 136.44Q57.07 135.89 56.24 134.91Q55.42 133.92 55.42 132.37L55.42 132.37Q55.42 130.03 57.13 128.78Q58.84 127.53 61.63 127.53L61.63 127.53Q64.26 127.53 66.00 128.70Q67.74 129.87 68.28 131.77L68.28 131.77L64.57 132.91Q64.32 131.71 63.54 131.20Q62.77 130.69 61.63 130.69L61.63 130.69Q60.49 130.69 59.88 131.09Q59.28 131.48 59.28 132.18L59.28 132.18Q59.28 132.94 59.92 133.31Q60.55 133.67 61.63 133.86L61.63 133.86L62.51 134.02Q64.29 134.34 65.73 134.86Q67.17 135.38 68.01 136.35Q68.85 137.31 68.85 138.96L68.85 138.96Q68.85 141.43 67.06 142.78Q65.27 144.12 62.26 144.12Z M78.86 144.12L78.86 144.12Q75.79 144.12 73.82 142.79Q71.86 141.46 71.45 138.99L71.45 138.99L75.12 138.04Q75.34 139.15 75.86 139.78Q76.39 140.42 77.16 140.69Q77.94 140.96 78.86 140.96L78.86 140.96Q80.25 140.96 80.92 140.46Q81.58 139.97 81.58 139.25L81.58 139.25Q81.58 138.52 80.95 138.12Q80.32 137.72 78.92 137.47L78.92 137.47L78.03 137.31Q76.39 137.00 75.03 136.44Q73.66 135.89 72.84 134.91Q72.02 133.92 72.02 132.37L72.02 132.37Q72.02 130.03 73.73 128.78Q75.44 127.53 78.22 127.53L78.22 127.53Q80.85 127.53 82.60 128.70Q84.34 129.87 84.88 131.77L84.88 131.77L81.17 132.91Q80.92 131.71 80.14 131.20Q79.36 130.69 78.22 130.69L78.22 130.69Q77.08 130.69 76.48 131.09Q75.88 131.48 75.88 132.18L75.88 132.18Q75.88 132.94 76.51 133.31Q77.15 133.67 78.22 133.86L78.22 133.86L79.11 134.02Q80.89 134.34 82.33 134.86Q83.77 135.38 84.61 136.35Q85.45 137.31 85.45 138.96L85.45 138.96Q85.45 141.43 83.66 142.78Q81.87 144.12 78.86 144.12Z M96.09 144.12L96.09 144.12Q93.75 144.12 91.96 143.13Q90.17 142.13 89.17 140.31Q88.17 138.48 88.17 136.01L88.17 136.01L88.17 135.63Q88.17 133.16 89.15 131.34Q90.13 129.52 91.91 128.52Q93.68 127.53 96.03 127.53L96.03 127.53Q98.34 127.53 100.05 128.55Q101.76 129.58 102.71 131.41Q103.66 133.23 103.66 135.63L103.66 135.63L103.66 137.00L92.23 137.00Q92.29 138.61 93.43 139.63Q94.57 140.64 96.22 140.64L96.22 140.64Q97.90 140.64 98.69 139.91Q99.48 139.18 99.89 138.29L99.89 138.29L103.15 140.01Q102.71 140.83 101.87 141.80Q101.03 142.76 99.64 143.44Q98.24 144.12 96.09 144.12ZM92.26 134.02L92.26 134.02L99.61 134.02Q99.48 132.66 98.51 131.83Q97.55 131.01 95.99 131.01L95.99 131.01Q94.38 131.01 93.43 131.83Q92.48 132.66 92.26 134.02Z M111.20 143.68L107.21 143.68L107.21 127.97L111.14 127.97L111.14 130.03L111.71 130.03Q112.09 129.20 113.13 128.46Q114.18 127.72 116.30 127.72L116.30 127.72Q118.14 127.72 119.51 128.55Q120.89 129.39 121.65 130.87Q122.41 132.34 122.41 134.30L122.41 134.30L122.41 143.68L118.42 143.68L118.42 134.62Q118.42 132.85 117.55 131.96Q116.68 131.07 115.06 131.07L115.06 131.07Q113.23 131.07 112.21 132.29Q111.20 133.51 111.20 135.70L111.20 135.70L111.20 143.68Z M130.71 143.68L126.72 143.68L126.72 121.51L130.71 121.51L130.71 129.90L131.28 129.90Q131.53 129.39 132.07 128.89Q132.61 128.38 133.51 128.05Q134.42 127.72 135.81 127.72L135.81 127.72Q137.65 127.72 139.03 128.55Q140.40 129.39 141.16 130.87Q141.92 132.34 141.92 134.30L141.92 134.30L141.92 143.68L137.93 143.68L137.93 134.62Q137.93 132.85 137.06 131.96Q136.19 131.07 134.58 131.07L134.58 131.07Q132.74 131.07 131.72 132.29Q130.71 133.51 130.71 135.70L130.71 135.70L130.71 143.68Z M153.71 144.12L153.71 144.12Q151.36 144.12 149.49 143.17Q147.63 142.22 146.55 140.42Q145.47 138.61 145.47 136.08L145.47 136.08L145.47 135.57Q145.47 133.04 146.55 131.23Q147.63 129.43 149.49 128.48Q151.36 127.53 153.71 127.53L153.71 127.53Q156.05 127.53 157.92 128.48Q159.79 129.43 160.87 131.23Q161.94 133.04 161.94 135.57L161.94 135.57L161.94 136.08Q161.94 138.61 160.87 140.42Q159.79 142.22 157.92 143.17Q156.05 144.12 153.71 144.12ZM153.71 140.58L153.71 140.58Q155.54 140.58 156.75 139.39Q157.95 138.20 157.95 135.98L157.95 135.98L157.95 135.67Q157.95 133.45 156.76 132.26Q155.58 131.07 153.71 131.07L153.71 131.07Q151.87 131.07 150.67 132.26Q149.46 133.45 149.46 135.67L149.46 135.67L149.46 135.98Q149.46 138.20 150.67 139.39Q151.87 140.58 153.71 140.58Z M172.21 143.68L168.22 143.68L168.22 131.26L164.22 131.26L164.22 127.97L168.22 127.97L168.22 125.05Q168.22 123.44 169.18 122.47Q170.15 121.51 171.70 121.51L171.70 121.51L175.82 121.51L175.82 124.80L173.09 124.80Q172.21 124.80 172.21 125.75L172.21 125.75L172.21 127.97L176.32 127.97L176.32 131.26L172.21 131.26L172.21 143.68Z M186.59 144.12L186.59 144.12Q184.24 144.12 182.45 143.13Q180.66 142.13 179.67 140.31Q178.67 138.48 178.67 136.01L178.67 136.01L178.67 135.63Q178.67 133.16 179.65 131.34Q180.63 129.52 182.41 128.52Q184.18 127.53 186.52 127.53L186.52 127.53Q188.84 127.53 190.55 128.55Q192.26 129.58 193.21 131.41Q194.16 133.23 194.16 135.63L194.16 135.63L194.16 137.00L182.72 137.00Q182.79 138.61 183.93 139.63Q185.07 140.64 186.71 140.64L186.71 140.64Q188.39 140.64 189.18 139.91Q189.98 139.18 190.39 138.29L190.39 138.29L193.65 140.01Q193.21 140.83 192.37 141.80Q191.53 142.76 190.13 143.44Q188.74 144.12 186.59 144.12ZM182.75 134.02L182.75 134.02L190.10 134.02Q189.98 132.66 189.01 131.83Q188.04 131.01 186.49 131.01L186.49 131.01Q184.88 131.01 183.93 131.83Q182.98 132.66 182.75 134.02Z M201.70 143.68L197.71 143.68L197.71 127.97L201.63 127.97L201.63 130.03L202.20 130.03Q202.58 129.20 203.63 128.46Q204.67 127.72 206.80 127.72L206.80 127.72Q208.63 127.72 210.01 128.55Q211.39 129.39 212.15 130.87Q212.91 132.34 212.91 134.30L212.91 134.30L212.91 143.68L208.92 143.68L208.92 134.62Q208.92 132.85 208.05 131.96Q207.18 131.07 205.56 131.07L205.56 131.07Q203.72 131.07 202.71 132.29Q201.70 133.51 201.70 135.70L201.70 135.70L201.70 143.68Z" fill="#1d1c19"></path><path d="M62.03 164.64L62.03 164.64Q61.23 164.64 60.56 164.25Q59.88 163.86 59.47 163.13Q59.06 162.39 59.06 161.35L59.06 161.35L59.06 161.16Q59.06 160.13 59.46 159.39Q59.87 158.65 60.54 158.26Q61.22 157.87 62.03 157.87L62.03 157.87Q62.65 157.87 63.07 158.02Q63.49 158.18 63.77 158.42Q64.04 158.66 64.18 158.92L64.18 158.92L64.39 158.92L64.39 155.36L65.73 155.36L65.73 164.46L64.42 164.46L64.42 163.55L64.21 163.55Q63.96 163.97 63.46 164.30Q62.96 164.64 62.03 164.64ZM62.40 163.47L62.40 163.47Q63.27 163.47 63.84 162.91Q64.40 162.35 64.40 161.31L64.40 161.31L64.40 161.20Q64.40 160.17 63.85 159.61Q63.29 159.05 62.40 159.05L62.40 159.05Q61.54 159.05 60.98 159.61Q60.41 160.17 60.41 161.20L60.41 161.20L60.41 161.31Q60.41 162.35 60.98 162.91Q61.54 163.47 62.40 163.47Z M70.70 164.64L70.70 164.64Q70.01 164.64 69.47 164.41Q68.93 164.17 68.61 163.72Q68.29 163.26 68.29 162.61L68.29 162.61Q68.29 161.95 68.61 161.51Q68.93 161.08 69.48 160.86Q70.03 160.64 70.73 160.64L70.73 160.64L72.68 160.64L72.68 160.22Q72.68 159.66 72.35 159.32Q72.01 158.99 71.31 158.99L71.31 158.99Q70.62 158.99 70.25 159.31Q69.89 159.64 69.77 160.16L69.77 160.16L68.52 159.75Q68.68 159.23 69.02 158.81Q69.37 158.39 69.94 158.13Q70.51 157.87 71.32 157.87L71.32 157.87Q72.57 157.87 73.28 158.51Q74.00 159.14 74.00 160.31L74.00 160.31L74.00 162.95Q74.00 163.34 74.36 163.34L74.36 163.34L74.91 163.34L74.91 164.46L73.91 164.46Q73.45 164.46 73.17 164.23Q72.88 163.99 72.88 163.59L72.88 163.59L72.88 163.55L72.68 163.55Q72.58 163.74 72.37 164.00Q72.16 164.26 71.76 164.45Q71.36 164.64 70.70 164.64ZM70.89 163.54L70.89 163.54Q71.70 163.54 72.19 163.07Q72.68 162.61 72.68 161.81L72.68 161.81L72.68 161.68L70.81 161.68Q70.28 161.68 69.95 161.90Q69.63 162.13 69.63 162.57L69.63 162.57Q69.63 163.02 69.97 163.28Q70.31 163.54 70.89 163.54Z  M85.23 164.64L85.23 164.64Q84.29 164.64 83.79 164.30Q83.29 163.97 83.04 163.55L83.04 163.55L82.84 163.55L82.84 164.46L81.52 164.46L81.52 155.36L82.86 155.36L82.86 158.92L83.07 158.92Q83.23 158.66 83.49 158.42Q83.75 158.18 84.17 158.02Q84.60 157.87 85.23 157.87L85.23 157.87Q86.03 157.87 86.71 158.26Q87.39 158.65 87.79 159.39Q88.19 160.13 88.19 161.16L88.19 161.16L88.19 161.35Q88.19 162.39 87.78 163.13Q87.37 163.86 86.70 164.25Q86.03 164.64 85.23 164.64ZM84.84 163.47L84.84 163.47Q85.71 163.47 86.27 162.91Q86.84 162.35 86.84 161.31L86.84 161.31L86.84 161.20Q86.84 160.17 86.28 159.61Q85.72 159.05 84.84 159.05L84.84 159.05Q83.98 159.05 83.41 159.61Q82.85 160.17 82.85 161.20L82.85 161.20L82.85 161.31Q82.85 162.35 83.41 162.91Q83.98 163.47 84.84 163.47Z M92.19 164.46L90.86 164.46L90.86 158.05L92.19 158.05L92.19 164.46ZM91.53 157.18L91.53 157.18Q91.14 157.18 90.87 156.93Q90.61 156.67 90.61 156.27L90.61 156.27Q90.61 155.87 90.87 155.61Q91.14 155.36 91.53 155.36L91.53 155.36Q91.93 155.36 92.19 155.61Q92.45 155.87 92.45 156.27L92.45 156.27Q92.45 156.67 92.19 156.93Q91.93 157.18 91.53 157.18Z M96.52 164.46L95.18 164.46L95.18 158.05L96.50 158.05L96.50 159.01L96.70 159.01Q96.89 158.62 97.35 158.28Q97.82 157.95 98.75 157.95L98.75 157.95Q99.47 157.95 100.04 158.27Q100.60 158.60 100.93 159.19Q101.25 159.78 101.25 160.61L101.25 160.61L101.25 164.46L99.92 164.46L99.92 160.72Q99.92 159.88 99.50 159.49Q99.08 159.09 98.36 159.09L98.36 159.09Q97.52 159.09 97.02 159.64Q96.52 160.18 96.52 161.22L96.52 161.22L96.52 164.46Z  M109.83 164.46L108.49 164.46L108.49 158.05L109.83 158.05L109.83 164.46ZM109.17 157.18L109.17 157.18Q108.78 157.18 108.51 156.93Q108.25 156.67 108.25 156.27L108.25 156.27Q108.25 155.87 108.51 155.61Q108.78 155.36 109.17 155.36L109.17 155.36Q109.57 155.36 109.83 155.61Q110.09 155.87 110.09 156.27L110.09 156.27Q110.09 156.67 109.83 156.93Q109.57 157.18 109.17 157.18Z  M119.79 164.64L119.79 164.64Q119.00 164.64 118.32 164.25Q117.64 163.86 117.23 163.13Q116.82 162.39 116.82 161.35L116.82 161.35L116.82 161.16Q116.82 160.13 117.23 159.39Q117.63 158.65 118.31 158.26Q118.98 157.87 119.79 157.87L119.79 157.87Q120.41 157.87 120.83 158.02Q121.26 158.18 121.53 158.42Q121.80 158.66 121.95 158.92L121.95 158.92L122.15 158.92L122.15 155.36L123.49 155.36L123.49 164.46L122.18 164.46L122.18 163.55L121.97 163.55Q121.73 163.97 121.22 164.30Q120.72 164.64 119.79 164.64ZM120.17 163.47L120.17 163.47Q121.04 163.47 121.60 162.91Q122.17 162.35 122.17 161.31L122.17 161.31L122.17 161.20Q122.17 160.17 121.61 159.61Q121.05 159.05 120.17 159.05L120.17 159.05Q119.31 159.05 118.74 159.61Q118.18 160.17 118.18 161.20L118.18 161.20L118.18 161.31Q118.18 162.35 118.74 162.91Q119.31 163.47 120.17 163.47Z M128.46 164.64L128.46 164.64Q127.77 164.64 127.23 164.41Q126.69 164.17 126.37 163.72Q126.05 163.26 126.05 162.61L126.05 162.61Q126.05 161.95 126.37 161.51Q126.69 161.08 127.24 160.86Q127.80 160.64 128.50 160.64L128.50 160.64L130.45 160.64L130.45 160.22Q130.45 159.66 130.11 159.32Q129.77 158.99 129.07 158.99L129.07 158.99Q128.38 158.99 128.02 159.31Q127.65 159.64 127.54 160.16L127.54 160.16L126.29 159.75Q126.44 159.23 126.79 158.81Q127.13 158.39 127.70 158.13Q128.28 157.87 129.08 157.87L129.08 157.87Q130.33 157.87 131.05 158.51Q131.76 159.14 131.76 160.31L131.76 160.31L131.76 162.95Q131.76 163.34 132.12 163.34L132.12 163.34L132.67 163.34L132.67 164.46L131.67 164.46Q131.21 164.46 130.93 164.23Q130.64 163.99 130.64 163.59L130.64 163.59L130.64 163.55L130.45 163.55Q130.34 163.74 130.14 164.00Q129.93 164.26 129.52 164.45Q129.12 164.64 128.46 164.64ZM128.65 163.54L128.65 163.54Q129.46 163.54 129.95 163.07Q130.45 162.61 130.45 161.81L130.45 161.81L130.45 161.68L128.58 161.68Q128.04 161.68 127.72 161.90Q127.39 162.13 127.39 162.57L127.39 162.57Q127.39 163.02 127.73 163.28Q128.07 163.54 128.65 163.54Z M136.31 164.46L134.97 164.46L134.97 155.36L136.31 155.36L136.31 158.96L136.52 158.96Q136.65 158.71 136.89 158.48Q137.13 158.25 137.52 158.10Q137.92 157.95 138.53 157.95L138.53 157.95Q139.26 157.95 139.83 158.27Q140.39 158.60 140.72 159.19Q141.04 159.78 141.04 160.61L141.04 160.61L141.04 164.46L139.70 164.46L139.70 160.72Q139.70 159.88 139.29 159.49Q138.87 159.09 138.14 159.09L138.14 159.09Q137.31 159.09 136.81 159.64Q136.31 160.18 136.31 161.22L136.31 161.22L136.31 164.46Z M146.97 164.64L146.97 164.64Q146.01 164.64 145.26 164.24Q144.51 163.85 144.08 163.11Q143.65 162.37 143.65 161.35L143.65 161.35L143.65 161.16Q143.65 160.14 144.08 159.41Q144.51 158.67 145.26 158.27Q146.01 157.87 146.97 157.87L146.97 157.87Q147.93 157.87 148.68 158.27Q149.44 158.67 149.87 159.41Q150.30 160.14 150.30 161.16L150.30 161.16L150.30 161.35Q150.30 162.37 149.87 163.11Q149.44 163.85 148.68 164.24Q147.93 164.64 146.97 164.64ZM146.97 163.45L146.97 163.45Q147.85 163.45 148.41 162.88Q148.96 162.31 148.96 161.31L148.96 161.31L148.96 161.20Q148.96 160.20 148.41 159.63Q147.87 159.06 146.97 159.06L146.97 159.06Q146.10 159.06 145.54 159.63Q144.99 160.20 144.99 161.20L144.99 161.20L144.99 161.31Q144.99 162.31 145.54 162.88Q146.10 163.45 146.97 163.45Z M154.95 164.64L154.95 164.64Q154.26 164.64 153.72 164.41Q153.18 164.17 152.86 163.72Q152.54 163.26 152.54 162.61L152.54 162.61Q152.54 161.95 152.86 161.51Q153.18 161.08 153.73 160.86Q154.29 160.64 154.99 160.64L154.99 160.64L156.94 160.64L156.94 160.22Q156.94 159.66 156.60 159.32Q156.26 158.99 155.56 158.99L155.56 158.99Q154.87 158.99 154.51 159.31Q154.14 159.64 154.03 160.16L154.03 160.16L152.78 159.75Q152.93 159.23 153.28 158.81Q153.62 158.39 154.20 158.13Q154.77 157.87 155.57 157.87L155.57 157.87Q156.82 157.87 157.54 158.51Q158.25 159.14 158.25 160.31L158.25 160.31L158.25 162.95Q158.25 163.34 158.62 163.34L158.62 163.34L159.16 163.34L159.16 164.46L158.16 164.46Q157.71 164.46 157.42 164.23Q157.13 163.99 157.13 163.59L157.13 163.59L157.13 163.55L156.94 163.55Q156.83 163.74 156.63 164.00Q156.42 164.26 156.02 164.45Q155.61 164.64 154.95 164.64ZM155.14 163.54L155.14 163.54Q155.95 163.54 156.44 163.07Q156.94 162.61 156.94 161.81L156.94 161.81L156.94 161.68L155.07 161.68Q154.53 161.68 154.21 161.90Q153.88 162.13 153.88 162.57L153.88 162.57Q153.88 163.02 154.22 163.28Q154.56 163.54 155.14 163.54Z M162.80 164.46L161.46 164.46L161.46 158.05L162.77 158.05L162.77 158.80L162.98 158.80Q163.16 158.47 163.57 158.21Q163.97 157.95 164.66 157.95L164.66 157.95Q165.37 157.95 165.81 158.24Q166.25 158.53 166.47 158.99L166.47 158.99L166.67 158.99Q166.90 158.54 167.32 158.25Q167.74 157.95 168.52 157.95L168.52 157.95Q169.14 157.95 169.63 158.20Q170.11 158.45 170.39 158.95Q170.68 159.45 170.68 160.20L170.68 160.20L170.68 164.46L169.34 164.46L169.34 160.30Q169.34 159.71 169.02 159.40Q168.70 159.08 168.12 159.08L168.12 159.08Q167.49 159.08 167.12 159.48Q166.74 159.88 166.74 160.64L166.74 160.64L166.74 164.46L165.40 164.46L165.40 160.30Q165.40 159.71 165.08 159.40Q164.76 159.08 164.18 159.08L164.18 159.08Q163.55 159.08 163.18 159.48Q162.80 159.88 162.80 160.64L162.80 160.64L162.80 164.46Z" fill="#1d1c19" fill-opacity="0.7"></path><svg x="-17.50" y="165.52" width="258.46" height="132.82" viewBox="0 0 360 185" overflow="visible"><g fill="#1d1c19"><g transform="translate(64.98,0)"><path d="M22.88 133.59 L22.88 133.59 Q21.33 133.16 20.38 132.82 L20.38 132.82 L19.44 132.56 Q19.61 132.13 19.31 131.78 Q19.01 131.44 18.06 131.35 L18.06 131.35 Q16.77 130.49 15.39 128.95 Q14.02 127.40 12.99 125.76 Q11.95 124.13 11.61 123.36 L11.61 123.36 Q11.18 122.32 11.44 121.98 L11.44 121.98 Q11.52 121.81 11.70 121.72 L11.70 121.72 Q12.38 121.46 13.33 121.03 L13.33 121.03 Q14.28 120.35 15.35 120.00 Q16.43 119.66 17.11 121.12 L17.11 121.12 Q18.23 123.10 20.60 124.47 Q22.96 125.85 26.02 126.11 Q29.07 126.37 32.16 125.08 L32.16 125.08 Q34.23 124.13 34.40 122.45 Q34.57 120.78 33.11 118.54 L33.11 118.54 Q32.85 117.85 32.38 117.42 Q31.91 116.99 31.00 116.30 Q30.10 115.62 28.47 114.07 L28.47 114.07 Q27.18 113.47 26.10 112.95 Q25.03 112.43 23.82 111.83 L23.82 111.83 Q22.45 111.14 20.73 109.90 Q19.01 108.65 17.54 107.14 Q16.08 105.64 15.31 104.26 L15.31 104.26 Q13.93 102.97 13.59 100.69 Q13.24 98.42 13.72 95.84 Q14.19 93.26 15.31 91.19 L15.31 91.19 Q15.82 89.99 17.20 88.05 Q18.58 86.12 20.30 84.05 Q22.02 81.99 23.61 80.31 Q25.20 78.64 26.14 78.03 L26.14 78.03 Q26.83 77.35 27.61 76.57 L27.61 76.57 L28.38 75.88 Q28.47 75.45 28.72 75.45 L28.72 75.45 L28.90 75.45 Q29.33 75.20 30.79 74.59 Q32.25 73.99 33.97 72.36 L33.97 72.36 Q39.73 69.61 43.77 68.62 Q47.82 67.63 50.14 67.63 L50.14 67.63 Q52.29 67.71 54.35 68.79 Q56.42 69.86 57.92 71.50 Q59.43 73.13 59.68 75.20 L59.68 75.20 Q60.29 77.26 59.13 80.14 Q57.96 83.02 55.94 85.56 Q53.92 88.10 51.77 89.30 L51.77 89.30 Q49.36 90.33 47.69 89.56 Q46.01 88.78 46.10 87.15 L46.10 87.15 Q46.10 86.46 46.57 85.52 Q47.04 84.57 49.19 82.16 L49.19 82.16 Q51.94 78.12 52.12 76.40 Q52.29 74.68 50.57 74.42 L50.57 74.42 Q50.05 74.25 48.59 74.51 Q47.13 74.77 45.45 75.15 Q43.77 75.54 42.53 75.97 Q41.28 76.40 41.28 76.57 L41.28 76.57 L41.28 76.83 Q41.28 76.92 41.19 77.00 L41.19 77.00 Q41.19 77.09 40.94 77.00 L40.94 77.00 Q40.76 77.00 39.78 77.56 Q38.79 78.12 37.41 78.98 Q36.03 79.84 34.70 80.74 Q33.37 81.65 32.42 82.33 Q31.48 83.02 31.39 83.19 L31.39 83.19 Q31.22 84.14 29.41 84.91 L29.41 84.91 Q27.69 85.95 26.40 87.84 Q25.11 89.73 23.39 92.65 L23.39 92.65 Q21.93 94.63 21.33 96.91 Q20.73 99.19 21.33 100.57 L21.33 100.57 Q21.76 101.94 23.69 103.28 Q25.63 104.61 28.98 106.59 L28.98 106.59 Q31.91 108.22 34.49 110.03 Q37.07 111.83 38.87 113.51 Q40.68 115.19 41.19 116.30 L41.19 116.30 Q42.23 117.77 42.44 119.66 Q42.66 121.55 42.44 123.31 Q42.23 125.08 41.88 126.19 L41.88 126.19 Q41.28 127.57 40.03 129.12 Q38.79 130.67 37.75 130.58 L37.75 130.58 Q36.81 130.84 36.34 131.18 Q35.86 131.53 35.26 131.78 L35.26 131.78 Q34.66 132.13 32.42 132.60 Q30.19 133.07 27.52 133.38 Q24.85 133.68 22.88 133.59 Z M67.77 126.28 L67.77 126.28 Q65.19 127.74 62.31 127.96 Q59.43 128.17 56.93 127.18 Q54.44 126.19 52.89 124.22 L52.89 124.22 Q52.03 123.10 51.26 120.65 Q50.48 118.20 51.00 113.98 L51.00 113.98 Q51.51 110.03 53.45 105.98 Q55.38 101.94 58.22 98.85 Q61.06 95.75 64.41 94.63 L64.41 94.63 Q65.62 94.20 66.86 93.99 Q68.11 93.77 70.18 93.94 L70.18 93.94 Q72.15 94.20 73.70 94.93 Q75.25 95.66 75.94 96.52 L75.94 96.52 Q77.31 97.90 77.74 99.19 Q78.17 100.48 78.09 101.68 L78.09 101.68 Q77.66 104.44 75.64 107.62 Q73.62 110.80 70.00 112.35 L70.00 112.35 Q68.54 112.95 66.56 113.12 Q64.59 113.29 61.15 112.61 L61.15 112.61 Q59.08 112.18 58.44 113.04 Q57.79 113.90 57.88 116.39 L57.88 116.39 Q58.05 117.94 58.61 119.10 Q59.17 120.26 60.72 120.69 L60.72 120.69 Q62.69 121.03 63.55 120.73 Q64.41 120.43 65.70 119.83 L65.70 119.83 Q66.39 119.40 67.08 118.88 L67.08 118.88 L68.37 117.85 Q68.97 117.34 69.40 117.08 L69.40 117.08 Q69.83 116.73 70.26 116.65 Q70.69 116.56 71.12 116.56 L71.12 116.56 Q72.07 116.65 72.93 117.59 Q73.79 118.54 74.05 119.40 L74.05 119.40 Q74.05 120.09 73.19 121.33 Q72.33 122.58 70.91 123.92 Q69.49 125.25 67.77 126.28 Z M66.65 107.10 L66.65 107.10 Q67.25 106.84 68.41 105.90 Q69.57 104.95 70.52 103.88 Q71.47 102.80 71.47 102.20 L71.47 102.20 Q71.47 101.25 70.22 100.57 Q68.97 99.88 66.99 100.31 L66.99 100.31 Q66.31 100.48 65.36 101.25 Q64.41 102.03 63.47 103.02 Q62.52 104.01 61.83 104.91 Q61.15 105.81 60.89 106.33 L60.89 106.33 Q61.23 106.76 62.26 107.02 Q63.30 107.27 64.54 107.27 Q65.79 107.27 66.65 107.10 Z M96.49 126.28 L96.49 126.28 Q93.91 127.74 91.03 127.96 Q88.15 128.17 85.66 127.18 Q83.16 126.19 81.61 124.22 L81.61 124.22 Q80.75 123.10 79.98 120.65 Q79.21 118.20 79.72 113.98 L79.72 113.98 Q80.24 110.03 82.17 105.98 Q84.11 101.94 86.95 98.85 Q89.78 95.75 93.14 94.63 L93.14 94.63 Q94.34 94.20 95.59 93.99 Q96.84 93.77 98.90 93.94 L98.90 93.94 Q100.88 94.20 102.43 94.93 Q103.97 95.66 104.66 96.52 L104.66 96.52 Q106.04 97.90 106.47 99.19 Q106.90 100.48 106.81 101.68 L106.81 101.68 Q106.38 104.44 104.36 107.62 Q102.34 110.80 98.73 112.35 L98.73 112.35 Q97.27 112.95 95.29 113.12 Q93.31 113.29 89.87 112.61 L89.87 112.61 Q87.81 112.18 87.16 113.04 Q86.52 113.90 86.60 116.39 L86.60 116.39 Q86.77 117.94 87.33 119.10 Q87.89 120.26 89.44 120.69 L89.44 120.69 Q91.42 121.03 92.28 120.73 Q93.14 120.43 94.43 119.83 L94.43 119.83 Q95.12 119.40 95.80 118.88 L95.80 118.88 L97.09 117.85 Q97.70 117.34 98.13 117.08 L98.13 117.08 Q98.56 116.73 98.99 116.65 Q99.42 116.56 99.85 116.56 L99.85 116.56 Q100.79 116.65 101.65 117.59 Q102.51 118.54 102.77 119.40 L102.77 119.40 Q102.77 120.09 101.91 121.33 Q101.05 122.58 99.63 123.92 Q98.21 125.25 96.49 126.28 Z M95.37 107.10 L95.37 107.10 Q95.98 106.84 97.14 105.90 Q98.30 104.95 99.24 103.88 Q100.19 102.80 100.19 102.20 L100.19 102.20 Q100.19 101.25 98.94 100.57 Q97.70 99.88 95.72 100.31 L95.72 100.31 Q95.03 100.48 94.08 101.25 Q93.14 102.03 92.19 103.02 Q91.25 104.01 90.56 104.91 Q89.87 105.81 89.61 106.33 L89.61 106.33 Q89.96 106.76 90.99 107.02 Q92.02 107.27 93.27 107.27 Q94.51 107.27 95.37 107.10 Z M118.42 145.20 L118.42 145.20 Q116.01 146.15 113.39 144.90 Q110.77 143.65 108.88 140.99 L108.88 140.99 Q108.53 140.47 107.84 139.14 Q107.16 137.80 106.51 136.26 Q105.87 134.71 105.56 133.59 Q105.26 132.47 105.52 132.30 L105.52 132.30 Q105.87 131.35 107.07 131.18 Q108.27 131.01 109.48 131.31 Q110.68 131.61 110.85 132.13 L110.85 132.13 Q111.11 132.73 111.37 133.38 Q111.63 134.02 112.01 134.58 Q112.40 135.14 112.75 135.57 L112.75 135.57 Q113.69 137.03 114.81 137.59 Q115.93 138.15 116.53 137.72 L116.53 137.72 Q117.99 136.60 118.72 135.09 Q119.45 133.59 120.66 129.81 L120.66 129.81 Q121.60 126.62 122.29 124.30 Q122.98 121.98 123.75 120.00 L123.75 120.00 Q124.01 118.97 124.44 118.20 L124.44 118.20 Q124.53 118.02 124.61 117.85 L124.61 117.85 Q123.41 118.71 122.46 119.57 L122.46 119.57 Q121.17 120.78 118.94 121.72 L118.94 121.72 Q118.42 122.32 116.40 122.45 Q114.38 122.58 112.49 121.98 L112.49 121.98 Q111.28 121.29 110.55 120.56 Q109.82 119.83 109.35 118.88 Q108.88 117.94 108.36 116.65 L108.36 116.65 Q107.76 115.36 108.19 112.43 Q108.62 109.51 109.74 106.59 L109.74 106.59 Q110.77 104.44 112.75 101.94 Q114.72 99.45 116.96 97.43 Q119.20 95.41 121.00 94.89 L121.00 94.89 Q121.69 94.55 123.41 94.07 Q125.13 93.60 126.68 94.03 L126.68 94.03 Q128.14 94.20 128.91 94.67 Q129.69 95.15 131.41 96.61 L131.41 96.61 Q132.53 97.73 134.16 99.49 Q135.79 101.25 136.22 102.46 L136.22 102.46 Q136.83 103.75 136.48 105.25 Q136.14 106.76 135.28 107.88 L135.28 107.88 Q134.50 108.99 133.64 110.11 Q132.78 111.23 132.35 113.21 L132.35 113.21 Q131.92 115.79 130.72 119.01 Q129.52 122.24 128.83 124.99 L128.83 124.99 L127.45 130.32 Q125.30 137.63 122.72 140.94 Q120.14 144.25 118.42 145.20 Z M116.62 115.62 L116.62 115.62 Q118.34 115.53 119.58 115.23 Q120.83 114.93 121.95 113.85 Q123.07 112.78 124.53 110.54 L124.53 110.54 Q125.99 108.48 126.59 106.76 Q127.19 105.04 127.02 102.89 L127.02 102.89 Q126.94 101.51 126.25 101.08 Q125.56 100.65 124.44 100.82 L124.44 100.82 Q122.81 101.08 121.52 102.16 Q120.23 103.23 118.51 105.47 L118.51 105.47 Q117.22 107.19 116.36 109.60 L116.36 109.60 Q115.50 112.18 115.63 113.72 Q115.76 115.27 116.62 115.62 Z M143.88 138.41 L143.88 138.41 Q143.36 138.75 141.56 137.59 Q139.75 136.43 138.55 135.05 L138.55 135.05 Q137.94 134.36 137.77 133.59 Q137.60 132.82 137.86 130.67 L137.86 130.67 Q138.20 129.72 138.24 128.86 Q138.29 128.00 138.29 127.66 L138.29 127.66 Q138.29 127.14 138.59 125.25 Q138.89 123.36 139.23 121.25 Q139.58 119.14 139.84 118.02 L139.84 118.02 Q139.84 117.94 139.96 117.42 Q140.09 116.91 140.18 116.65 L140.18 116.65 Q140.35 115.87 140.61 114.76 Q140.87 113.64 141.13 111.75 L141.13 111.75 Q141.81 109.60 142.29 107.49 Q142.76 105.38 142.76 104.61 L142.76 104.61 Q142.76 103.06 143.96 102.37 L143.96 102.37 Q144.05 101.94 144.48 101.04 Q144.91 100.14 145.25 99.53 L145.25 99.53 Q146.97 94.63 148.09 91.71 Q149.21 88.78 150.41 86.63 L150.41 86.63 Q150.93 85.17 151.57 83.62 Q152.22 82.08 152.91 81.22 L152.91 81.22 Q153.51 80.01 155.01 78.25 Q156.52 76.49 158.24 74.85 Q159.96 73.22 160.99 72.44 L160.99 72.44 Q162.88 71.50 164.52 70.90 Q166.15 70.29 167.96 70.29 L167.96 70.29 Q169.59 70.29 170.84 71.03 Q172.09 71.76 174.58 73.99 L174.58 73.99 Q175.44 75.11 175.44 76.14 Q175.44 77.17 175.01 77.86 L175.01 77.86 Q174.41 79.24 173.20 81.26 Q172.00 83.28 170.88 84.87 Q169.76 86.46 169.25 86.55 L169.25 86.55 Q168.22 87.15 167.10 86.89 Q165.98 86.63 165.98 85.34 L165.98 85.34 Q165.98 84.74 166.07 84.23 L166.07 84.23 L166.07 83.71 Q166.32 82.59 166.71 81.73 Q167.10 80.87 167.44 80.27 L167.44 80.27 Q168.13 79.15 167.83 78.12 Q167.53 77.09 165.64 77.26 L165.64 77.26 Q165.38 77.43 164.65 78.08 Q163.92 78.72 163.10 79.54 Q162.28 80.36 161.68 81.09 Q161.08 81.82 161.08 82.08 L161.08 82.08 L160.65 82.94 Q160.13 83.88 159.19 85.00 L159.19 85.00 Q158.58 85.86 158.15 86.63 Q157.72 87.41 157.72 87.84 L157.72 87.84 Q157.72 88.18 157.64 88.44 Q157.55 88.70 157.21 88.70 L157.21 88.70 L156.95 89.56 Q156.61 90.42 155.92 91.62 L155.92 91.62 Q155.57 92.48 155.19 93.21 Q154.80 93.94 154.46 94.29 L154.46 94.29 L154.37 94.46 L154.03 95.41 Q153.60 96.44 153.17 97.47 Q152.74 98.50 152.74 98.67 L152.74 98.67 Q152.74 99.02 153.77 99.02 Q154.80 99.02 156.26 98.72 Q157.72 98.42 159.10 98.07 L159.10 98.07 Q160.30 97.73 160.82 97.73 Q161.34 97.73 162.45 98.07 L162.45 98.07 Q163.14 98.50 163.57 99.58 Q164.00 100.65 164.22 101.73 Q164.43 102.80 164.26 103.32 L164.26 103.32 Q164.17 103.66 162.32 104.26 Q160.48 104.87 158.67 105.21 L158.67 105.21 Q157.12 105.55 155.19 105.94 Q153.25 106.33 151.79 106.72 Q150.33 107.10 150.24 107.45 L150.24 107.45 Q149.90 107.45 149.68 107.88 Q149.47 108.31 149.47 108.65 L149.47 108.65 Q149.47 109.77 149.04 110.46 L149.04 110.46 Q148.87 110.97 148.48 112.56 Q148.09 114.15 147.70 116.00 Q147.32 117.85 147.02 119.44 Q146.72 121.03 146.72 121.55 L146.72 121.55 Q146.20 122.15 146.11 123.06 Q146.03 123.96 146.03 124.65 L146.03 124.65 Q145.68 125.33 145.60 125.89 Q145.51 126.45 145.51 126.80 L145.51 126.80 L145.51 127.14 Q145.51 127.40 145.43 127.66 L145.43 127.66 Q145.34 128.52 145.21 129.94 Q145.08 131.35 145.08 132.73 L145.08 132.73 L144.82 135.22 Q144.74 136.34 144.52 137.16 Q144.31 137.98 143.88 138.41 Z M186.02 127.83 L186.02 127.83 Q185.16 126.97 184.64 125.46 Q184.13 123.96 183.61 121.98 L183.61 121.98 Q183.44 121.29 183.48 120.43 Q183.52 119.57 183.44 119.06 L183.44 119.06 Q183.18 119.66 182.62 120.60 Q182.06 121.55 181.55 121.98 L181.55 121.98 Q181.20 122.32 180.00 123.31 Q178.79 124.30 177.59 124.90 L177.59 124.90 Q174.75 126.71 172.56 126.58 Q170.37 126.45 168.73 124.39 L168.73 124.39 Q167.36 123.27 166.50 121.55 Q165.64 119.83 166.15 117.42 L166.15 117.42 Q166.32 114.41 167.01 111.53 Q167.70 108.65 169.85 103.83 L169.85 103.83 Q171.66 100.31 172.60 98.33 Q173.55 96.35 173.81 96.01 L173.81 96.01 Q175.10 95.58 176.99 96.05 Q178.88 96.52 179.05 97.73 L179.05 97.73 Q179.57 98.59 179.05 100.95 Q178.54 103.32 176.99 106.33 L176.99 106.33 Q175.78 109.25 174.71 112.00 Q173.63 114.76 173.42 116.65 Q173.20 118.54 174.41 118.97 L174.41 118.97 Q175.18 119.40 176.69 118.88 Q178.19 118.37 180.26 115.79 Q182.32 113.21 184.64 107.62 L184.64 107.62 Q185.33 105.90 185.67 104.56 Q186.02 103.23 186.10 101.60 L186.10 101.60 Q185.93 100.57 186.66 99.45 Q187.39 98.33 188.43 97.73 L188.43 97.73 Q188.77 97.30 189.37 96.87 L189.37 96.87 Q189.80 96.61 189.97 96.78 L189.97 96.78 Q190.06 96.78 190.15 96.95 L190.15 96.95 L191.52 96.87 Q191.87 96.78 192.30 97.56 Q192.73 98.33 193.16 98.67 L193.16 98.67 Q194.10 99.45 194.02 102.03 Q193.93 104.61 191.95 109.25 L191.95 109.25 Q190.32 112.78 189.76 114.58 Q189.20 116.39 189.11 118.11 L189.11 118.11 Q189.11 119.66 189.37 120.73 Q189.63 121.81 190.92 122.93 L190.92 122.93 Q191.87 123.53 191.99 124.95 Q192.12 126.37 192.04 127.40 L192.04 127.40 Q191.87 128.17 190.70 128.47 Q189.54 128.77 188.21 128.60 Q186.88 128.43 186.02 127.83 Z M197.80 126.54 L197.80 126.54 Q197.11 125.85 196.81 124.47 Q196.51 123.10 196.60 121.77 Q196.68 120.43 197.03 119.74 L197.03 119.74 Q197.03 119.06 197.24 118.67 Q197.46 118.28 197.37 117.94 L197.37 117.94 Q197.28 117.59 197.54 116.73 Q197.80 115.87 198.06 115.10 L198.06 115.10 Q198.66 113.72 199.43 111.53 Q200.21 109.34 200.98 107.06 Q201.76 104.78 202.27 103.10 Q202.79 101.43 202.87 101.08 L202.87 101.08 Q202.87 100.05 204.25 99.96 L204.25 99.96 Q205.28 99.62 206.74 100.82 Q208.21 102.03 209.07 103.40 L209.07 103.40 Q209.75 104.09 209.58 105.21 Q209.41 106.33 208.46 108.39 L208.46 108.39 Q208.12 109.08 207.65 110.67 Q207.17 112.26 207.00 113.29 L207.00 113.29 Q206.66 113.98 206.18 115.23 Q205.71 116.48 205.37 117.59 L205.37 117.59 Q205.20 118.02 205.02 119.19 Q204.85 120.35 204.59 121.55 Q204.34 122.75 203.91 123.44 L203.91 123.44 Q203.13 126.97 201.20 127.57 Q199.26 128.17 197.80 126.54 Z " fill="#1d1c19"></path><defs><mask id="hm2" maskUnits="userSpaceOnUse"><path d="M0,3 C0,-3 -9,-6 -9,-13 C-9,-19 -2,-20 0,-14 C2,-20 9,-19 9,-13 C9,-6 0,-3 0,3 Z" fill="#fff"></path><path d="M-7.5,-8 q2.5,-3.4 5,0 t5,0 t5,0" fill="none" stroke="#000" stroke-width="2.1" stroke-linecap="round"></path></mask></defs><g transform="translate(210.40,95.23) rotate(12) scale(0.940)"><path d="M0,3 C0,-3 -9,-6 -9,-13 C-9,-19 -2,-20 0,-14 C2,-20 9,-19 9,-13 C9,-6 0,-3 0,3 Z" fill="#d23b34" mask="url(#hm2)"></path></g></g></g></svg><path d="M16.90 326.32L16.90 326.32Q15.94 326.32 15.20 325.98Q14.46 325.64 14.04 324.99Q13.62 324.34 13.62 323.40L13.62 323.40L13.62 323.09L15.05 323.09L15.05 323.40Q15.05 324.23 15.55 324.64Q16.06 325.05 16.90 325.05L16.90 325.05Q17.75 325.05 18.18 324.70Q18.61 324.35 18.61 323.80L18.61 323.80Q18.61 323.43 18.41 323.19Q18.20 322.96 17.81 322.82Q17.42 322.67 16.87 322.54L16.87 322.54L16.51 322.47Q15.68 322.28 15.08 321.98Q14.47 321.69 14.15 321.22Q13.82 320.75 13.82 320.00L13.82 320.00Q13.82 319.24 14.18 318.70Q14.54 318.16 15.20 317.87Q15.86 317.58 16.75 317.58L16.75 317.58Q17.64 317.58 18.34 317.88Q19.03 318.18 19.43 318.78Q19.84 319.38 19.84 320.28L19.84 320.28L19.84 320.68L18.41 320.68L18.41 320.28Q18.41 319.77 18.20 319.46Q18.00 319.14 17.63 319Q17.26 318.86 16.75 318.86L16.75 318.86Q16.01 318.86 15.62 319.14Q15.24 319.43 15.24 319.96L15.24 319.96Q15.24 320.30 15.41 320.53Q15.59 320.76 15.93 320.91Q16.27 321.06 16.79 321.17L16.79 321.17L17.15 321.26Q18.01 321.45 18.66 321.74Q19.31 322.04 19.67 322.52Q20.04 323.00 20.04 323.76L20.04 323.76Q20.04 324.52 19.65 325.10Q19.26 325.67 18.56 326.00Q17.86 326.32 16.90 326.32Z M31.72 326.15L30.28 326.15L30.28 319.06L27.77 319.06L27.77 317.75L34.23 317.75L34.23 319.06L31.72 319.06L31.72 326.15Z M43.26 326.15L41.77 326.15L44.07 317.75L46.58 317.75L48.88 326.15L47.40 326.15L46.89 324.23L43.76 324.23L43.26 326.15ZM45.22 318.65L44.10 322.91L46.56 322.91L45.43 318.65L45.22 318.65Z M58.40 326.15L56.95 326.15L56.95 317.75L60.54 317.75Q61.33 317.75 61.92 318.03Q62.51 318.30 62.84 318.80Q63.17 319.30 63.17 320.00L63.17 320.00L63.17 320.13Q63.17 320.91 62.80 321.38Q62.42 321.84 61.90 322.06L61.90 322.06L61.90 322.25Q62.36 322.28 62.63 322.58Q62.90 322.88 62.90 323.38L62.90 323.38L62.90 326.15L61.46 326.15L61.46 323.58Q61.46 323.28 61.30 323.10Q61.14 322.91 60.78 322.91L60.78 322.91L58.40 322.91L58.40 326.15ZM58.40 319.06L58.40 321.60L60.40 321.60Q61.02 321.60 61.37 321.27Q61.73 320.94 61.73 320.39L61.73 320.39L61.73 320.28Q61.73 319.72 61.38 319.39Q61.03 319.06 60.40 319.06L60.40 319.06L58.40 319.06Z M72.96 326.15L71.54 326.15L71.54 317.75L74.30 317.75L76.28 325.18L76.47 325.18L76.47 317.75L77.90 317.75L77.90 326.15L75.15 326.15L73.17 318.72L72.96 318.72L72.96 326.15Z M90.61 326.15L86.28 326.15L86.28 324.88L87.40 324.88L87.40 319.02L86.28 319.02L86.28 317.75L90.57 317.75Q91.33 317.75 91.90 318.01Q92.47 318.27 92.79 318.74Q93.10 319.22 93.10 319.88L93.10 319.88L93.10 319.98Q93.10 320.56 92.89 320.93Q92.67 321.30 92.37 321.51Q92.07 321.71 91.80 321.80L91.80 321.80L91.80 322Q92.07 322.07 92.39 322.27Q92.71 322.47 92.93 322.85Q93.15 323.22 93.15 323.82L93.15 323.82L93.15 323.94Q93.15 324.63 92.82 325.13Q92.49 325.62 91.92 325.89Q91.35 326.15 90.61 326.15L90.61 326.15ZM88.84 322.58L88.84 324.84L90.44 324.84Q91.02 324.84 91.36 324.56Q91.70 324.28 91.70 323.76L91.70 323.76L91.70 323.66Q91.70 323.14 91.36 322.86Q91.03 322.58 90.44 322.58L90.44 322.58L88.84 322.58ZM88.84 319.06L88.84 321.27L90.43 321.27Q90.98 321.27 91.32 320.99Q91.66 320.72 91.66 320.22L91.66 320.22L91.66 320.10Q91.66 319.61 91.32 319.34Q90.98 319.06 90.43 319.06L90.43 319.06L88.84 319.06Z M106.92 326.15L101.51 326.15L101.51 317.75L106.86 317.75L106.86 319.06L102.96 319.06L102.96 321.27L106.52 321.27L106.52 322.58L102.96 322.58L102.96 324.84L106.92 324.84L106.92 326.15Z M116.63 326.15L115.18 326.15L115.18 317.75L118.77 317.75Q119.56 317.75 120.15 318.03Q120.74 318.30 121.07 318.80Q121.40 319.30 121.40 320.00L121.40 320.00L121.40 320.13Q121.40 320.91 121.02 321.38Q120.65 321.84 120.12 322.06L120.12 322.06L120.12 322.25Q120.59 322.28 120.86 322.58Q121.13 322.88 121.13 323.38L121.13 323.38L121.13 326.15L119.69 326.15L119.69 323.58Q119.69 323.28 119.53 323.10Q119.37 322.91 119.01 322.91L119.01 322.91L116.63 322.91L116.63 326.15ZM116.63 319.06L116.63 321.60L118.62 321.60Q119.25 321.60 119.60 321.27Q119.96 320.94 119.96 320.39L119.96 320.39L119.96 320.28Q119.96 319.72 119.61 319.39Q119.26 319.06 118.62 319.06L118.62 319.06L116.63 319.06Z M132.68 326.32L132.68 326.32Q131.79 326.32 131.09 325.93Q130.39 325.54 129.97 324.79Q129.56 324.04 129.56 322.95L129.56 322.95L129.56 320.96Q129.56 319.32 130.47 318.45Q131.38 317.58 132.92 317.58L132.92 317.58Q134.46 317.58 135.28 318.41Q136.11 319.23 136.11 320.62L136.11 320.62L136.11 320.67L134.70 320.67L134.70 320.57Q134.70 320.09 134.50 319.71Q134.31 319.32 133.92 319.10Q133.52 318.88 132.92 318.88L132.92 318.88Q132.03 318.88 131.52 319.43Q131.01 319.97 131.01 320.93L131.01 320.93L131.01 322.97Q131.01 323.92 131.52 324.48Q132.03 325.05 132.94 325.05L132.94 325.05Q133.86 325.05 134.28 324.56Q134.70 324.06 134.70 323.30L134.70 323.30L134.70 323.15L132.57 323.15L132.57 321.93L136.11 321.93L136.11 326.15L134.79 326.15L134.79 325.32L134.59 325.32Q134.49 325.54 134.29 325.77Q134.08 326.01 133.71 326.16Q133.33 326.32 132.68 326.32Z M150.11 326.15L144.70 326.15L144.70 317.75L150.05 317.75L150.05 319.06L146.15 319.06L146.15 321.27L149.71 321.27L149.71 322.58L146.15 322.58L146.15 324.84L150.11 324.84L150.11 326.15Z M159.82 326.15L158.37 326.15L158.37 317.75L161.96 317.75Q162.75 317.75 163.34 318.03Q163.92 318.30 164.25 318.80Q164.58 319.30 164.58 320.00L164.58 320.00L164.58 320.13Q164.58 320.91 164.21 321.38Q163.84 321.84 163.31 322.06L163.31 322.06L163.31 322.25Q163.78 322.28 164.05 322.58Q164.32 322.88 164.32 323.38L164.32 323.38L164.32 326.15L162.88 326.15L162.88 323.58Q162.88 323.28 162.72 323.10Q162.56 322.91 162.20 322.91L162.20 322.91L159.82 322.91L159.82 326.15ZM159.82 319.06L159.82 321.60L161.81 321.60Q162.44 321.60 162.79 321.27Q163.14 320.94 163.14 320.39L163.14 320.39L163.14 320.28Q163.14 319.72 162.80 319.39Q162.45 319.06 161.81 319.06L161.81 319.06L159.82 319.06Z  M185.90 326.32L185.90 326.32Q184.94 326.32 184.21 325.98Q183.47 325.64 183.05 324.99Q182.63 324.34 182.63 323.40L182.63 323.40L182.63 323.09L184.06 323.09L184.06 323.40Q184.06 324.23 184.56 324.64Q185.06 325.05 185.90 325.05L185.90 325.05Q186.76 325.05 187.19 324.70Q187.62 324.35 187.62 323.80L187.62 323.80Q187.62 323.43 187.42 323.19Q187.21 322.96 186.82 322.82Q186.43 322.67 185.88 322.54L185.88 322.54L185.52 322.47Q184.69 322.28 184.09 321.98Q183.48 321.69 183.16 321.22Q182.83 320.75 182.83 320.00L182.83 320.00Q182.83 319.24 183.19 318.70Q183.55 318.16 184.21 317.87Q184.87 317.58 185.76 317.58L185.76 317.58Q186.65 317.58 187.34 317.88Q188.04 318.18 188.44 318.78Q188.84 319.38 188.84 320.28L188.84 320.28L188.84 320.68L187.42 320.68L187.42 320.28Q187.42 319.77 187.21 319.46Q187.01 319.14 186.64 319Q186.26 318.86 185.76 318.86L185.76 318.86Q185.02 318.86 184.63 319.14Q184.25 319.43 184.25 319.96L184.25 319.96Q184.25 320.30 184.42 320.53Q184.60 320.76 184.94 320.91Q185.28 321.06 185.80 321.17L185.80 321.17L186.16 321.26Q187.02 321.45 187.67 321.74Q188.32 322.04 188.68 322.52Q189.05 323.00 189.05 323.76L189.05 323.76Q189.05 324.52 188.66 325.10Q188.27 325.67 187.57 326.00Q186.86 326.32 185.90 326.32Z M202.72 326.15L197.31 326.15L197.31 317.75L202.66 317.75L202.66 319.06L198.76 319.06L198.76 321.27L202.32 321.27L202.32 322.58L198.76 322.58L198.76 324.84L202.72 324.84L202.72 326.15Z M216.39 326.15L210.98 326.15L210.98 317.75L216.33 317.75L216.33 319.06L212.43 319.06L212.43 321.27L216.00 321.27L216.00 322.58L212.43 322.58L212.43 324.84L216.39 324.84L216.39 326.15Z" fill="#2f7d8a"></path><circle cx="113.2" cy="98.0" r="10" fill="#fff"></circle><circle cx="113.2" cy="98.0" r="10" fill="none" stroke="#2f7d8a" stroke-width="2.4"></circle><circle cx="113.2" cy="98.0" r="4" fill="#2f7d8a"></circle></svg>