<svg xmlns="http://www.w3.org/2000/svg" width="1380" height="2040" viewBox="0 0 230 340"><path d="M25.2,-72.2 L22.6,-75 L20.5,-75 L14.9,-72.5 L6.9,-51.7 L5,-48.1 L2.9,-46.5 L1,-41.4 L-0.9,-40 L-4.5,-32.7 L-4,-29.4 L-7.3,-27.5 L-7,-25.3 L-8.8,-21.6 L-11.1,-11.2 L-14.8,-7 L-14.8,-3.5 L-17.7,-2.1 L-17.1,-0.7 L-17.6,1 L-20.3,3 L-20.4,4.7 L-22.3,6.7 L-22.8,8.6 L-22,10.8 L-24.2,12.6 L-25.2,16 L-24.7,18.8 L-22,21.4 L-20.1,21 L-17.8,18.6 L-16.3,19 L-16.8,22.5 L-14.6,25.9 L-14.1,31.2 L-9.1,36.6 L-7.3,41.9 L-7.8,45.3 L-11.2,47.9 L-11.9,51.8 L-12.7,52.3 L-13,61.3 L-14,63.5 L-12.8,67 L-0.2,75 L6.5,74 L8,74.9 L10.3,73.9 L10.6,72.7 L11.5,73.2 L13,69.8 L11.7,66.1 L12.5,65.6 L12,63.7 L13.4,62 L13.6,59.1 L11,34.9 L9.7,32.1 L10.5,27.3 L10.2,17.4 L11.2,11.5 L10.7,0.7 L9.1,-9.1 L10,-17.5 L15.3,-32.9 L15.9,-38 L20,-52.1 L25.1,-59.7 L24.5,-68.4 Z M-9.2,-8 L-9.73,-6.16 L-11,-5.4 L-12.27,-6.16 L-12.8,-8 L-12.27,-9.84 L-11,-10.6 L-9.73,-9.84 Z" fill="#c2683f" fill-opacity="0.11" fill-rule="evenodd" transform="translate(115 178) scale(2.00000) translate(0.00 0.00)"></path><path d="M25.2,-72.2 L22.6,-75 L20.5,-75 L14.9,-72.5 L6.9,-51.7 L5,-48.1 L2.9,-46.5 L1,-41.4 L-0.9,-40 L-4.5,-32.7 L-4,-29.4 L-7.3,-27.5 L-7,-25.3 L-8.8,-21.6 L-11.1,-11.2 L-14.8,-7 L-14.8,-3.5 L-17.7,-2.1 L-17.1,-0.7 L-17.6,1 L-20.3,3 L-20.4,4.7 L-22.3,6.7 L-22.8,8.6 L-22,10.8 L-24.2,12.6 L-25.2,16 L-24.7,18.8 L-22,21.4 L-20.1,21 L-17.8,18.6 L-16.3,19 L-16.8,22.5 L-14.6,25.9 L-14.1,31.2 L-9.1,36.6 L-7.3,41.9 L-7.8,45.3 L-11.2,47.9 L-11.9,51.8 L-12.7,52.3 L-13,61.3 L-14,63.5 L-12.8,67 L-0.2,75 L6.5,74 L8,74.9 L10.3,73.9 L10.6,72.7 L11.5,73.2 L13,69.8 L11.7,66.1 L12.5,65.6 L12,63.7 L13.4,62 L13.6,59.1 L11,34.9 L9.7,32.1 L10.5,27.3 L10.2,17.4 L11.2,11.5 L10.7,0.7 L9.1,-9.1 L10,-17.5 L15.3,-32.9 L15.9,-38 L20,-52.1 L25.1,-59.7 L24.5,-68.4 Z M-9.2,-8 L-9.73,-6.16 L-11,-5.4 L-12.27,-6.16 L-12.8,-8 L-12.27,-9.84 L-11,-10.6 L-9.73,-9.84 Z" fill="none" stroke="#c2683f" stroke-opacity="0.5" stroke-width="0.90" stroke-linejoin="round" stroke-linecap="round" transform="translate(115 178) scale(2.00000) translate(0.00 0.00)"></path><path d="M35.76 83.01L35.76 83.01Q32.77 83.01 30.47 81.94Q28.18 80.86 26.88 78.87Q25.59 76.87 25.59 74.06L25.59 74.06L25.59 73.02L30.40 73.02L30.40 74.06Q30.40 76.39 31.84 77.55Q33.29 78.72 35.76 78.72L35.76 78.72Q38.28 78.72 39.52 77.72Q40.76 76.72 40.76 75.17L40.76 75.17Q40.76 74.09 40.15 73.43Q39.54 72.76 38.37 72.34Q37.21 71.91 35.54 71.54L35.54 71.54L34.69 71.35Q32.03 70.76 30.12 69.86Q28.22 68.95 27.20 67.47Q26.18 65.99 26.18 63.62L26.18 63.62Q26.18 61.25 27.31 59.57Q28.44 57.89 30.49 56.98Q32.55 56.07 35.32 56.07L35.32 56.07Q38.10 56.07 40.26 57.02Q42.42 57.96 43.66 59.83Q44.90 61.70 44.90 64.51L44.90 64.51L44.90 65.62L40.09 65.62L40.09 64.51Q40.09 63.03 39.52 62.12Q38.95 61.22 37.87 60.79Q36.80 60.37 35.32 60.37L35.32 60.37Q33.10 60.37 32.05 61.20Q30.99 62.03 30.99 63.47L30.99 63.47Q30.99 64.44 31.49 65.10Q31.99 65.77 32.99 66.21Q33.99 66.66 35.54 66.99L35.54 66.99L36.39 67.17Q39.17 67.77 41.22 68.69Q43.28 69.62 44.42 71.13Q45.57 72.65 45.57 75.02L45.57 75.02Q45.57 77.39 44.37 79.18Q43.16 80.97 40.96 81.99Q38.76 83.01 35.76 83.01Z M61.55 82.49L56.37 82.49Q54.56 82.49 53.43 81.36Q52.30 80.23 52.30 78.35L52.30 78.35L52.30 67.99L47.72 67.99L47.72 64.14L52.30 64.14L52.30 58.44L56.97 58.44L56.97 64.14L62.00 64.14L62.00 67.99L56.97 67.99L56.97 77.53Q56.97 78.64 58.00 78.64L58.00 78.64L61.55 78.64L61.55 82.49Z M71.91 83.01L71.91 83.01Q69.95 83.01 68.40 82.33Q66.84 81.64 65.94 80.33Q65.03 79.01 65.03 77.13L65.03 77.13Q65.03 75.24 65.94 73.96Q66.84 72.69 68.45 72.04Q70.06 71.39 72.14 71.39L72.14 71.39L77.17 71.39L77.17 70.36Q77.17 69.06 76.35 68.23Q75.54 67.40 73.76 67.40L73.76 67.40Q72.02 67.40 71.17 68.19Q70.32 68.99 70.06 70.24L70.06 70.24L65.77 68.80Q66.22 67.40 67.20 66.23Q68.18 65.06 69.82 64.34Q71.47 63.62 73.84 63.62L73.84 63.62Q77.46 63.62 79.57 65.43Q81.68 67.25 81.68 70.69L81.68 70.69L81.68 77.53Q81.68 78.64 82.72 78.64L82.72 78.64L84.20 78.64L84.20 82.49L81.09 82.49Q79.72 82.49 78.83 81.83Q77.94 81.16 77.94 80.05L77.94 80.05L77.94 80.01L77.24 80.01Q77.09 80.46 76.58 81.18Q76.06 81.90 74.95 82.45Q73.84 83.01 71.91 83.01ZM72.73 79.24L72.73 79.24Q74.69 79.24 75.93 78.14Q77.17 77.05 77.17 75.24L77.17 75.24L77.17 74.87L72.47 74.87Q71.17 74.87 70.43 75.42Q69.69 75.98 69.69 76.98L69.69 76.98Q69.69 77.98 70.47 78.61Q71.25 79.24 72.73 79.24Z M92.26 82.49L87.60 82.49L87.60 64.14L92.19 64.14L92.19 66.21L92.86 66.21Q93.26 65.10 94.21 64.58Q95.15 64.07 96.41 64.07L96.41 64.07L98.63 64.07L98.63 68.21L96.33 68.21Q94.56 68.21 93.41 69.15Q92.26 70.10 92.26 72.06L92.26 72.06L92.26 82.49Z M106.92 82.49L102.25 82.49L102.25 64.14L106.84 64.14L106.84 66.54L107.51 66.54Q107.95 65.58 109.17 64.71Q110.39 63.84 112.87 63.84L112.87 63.84Q115.02 63.84 116.63 64.82Q118.24 65.80 119.13 67.53Q120.01 69.25 120.01 71.54L120.01 71.54L120.01 82.49L115.35 82.49L115.35 71.91Q115.35 69.84 114.33 68.80Q113.32 67.77 111.43 67.77L111.43 67.77Q109.28 67.77 108.10 69.19Q106.92 70.61 106.92 73.17L106.92 73.17L106.92 82.49Z M136.07 83.01L136.07 83.01Q133.59 83.01 132.26 82.16Q130.93 81.31 130.30 80.27L130.30 80.27L129.63 80.27L129.63 82.49L125.05 82.49L125.05 56.59L129.71 56.59L129.71 66.25L130.37 66.25Q130.78 65.58 131.47 64.99Q132.15 64.40 133.28 64.01Q134.41 63.62 136.07 63.62L136.07 63.62Q138.29 63.62 140.18 64.71Q142.07 65.80 143.21 67.91Q144.36 70.02 144.36 73.02L144.36 73.02L144.36 73.61Q144.36 76.61 143.21 78.72Q142.07 80.83 140.18 81.92Q138.29 83.01 136.07 83.01ZM134.67 78.94L134.67 78.94Q136.81 78.94 138.25 77.55Q139.70 76.16 139.70 73.50L139.70 73.50L139.70 73.13Q139.70 70.47 138.27 69.08Q136.85 67.69 134.67 67.69L134.67 67.69Q132.52 67.69 131.08 69.08Q129.63 70.47 129.63 73.13L129.63 73.13L129.63 73.50Q129.63 76.16 131.08 77.55Q132.52 78.94 134.67 78.94Z M157.01 83.01L157.01 83.01Q154.28 83.01 152.19 81.84Q150.09 80.68 148.93 78.55Q147.76 76.42 147.76 73.54L147.76 73.54L147.76 73.09Q147.76 70.21 148.91 68.08Q150.06 65.95 152.13 64.79Q154.20 63.62 156.94 63.62L156.94 63.62Q159.64 63.62 161.64 64.82Q163.64 66.03 164.75 68.15Q165.86 70.28 165.86 73.09L165.86 73.09L165.86 74.68L152.50 74.68Q152.57 76.57 153.91 77.76Q155.24 78.94 157.16 78.94L157.16 78.94Q159.12 78.94 160.05 78.09Q160.97 77.24 161.45 76.20L161.45 76.20L165.26 78.20Q164.75 79.16 163.77 80.29Q162.79 81.42 161.16 82.21Q159.53 83.01 157.01 83.01ZM152.54 71.21L152.54 71.21L161.12 71.21Q160.97 69.62 159.84 68.65Q158.72 67.69 156.90 67.69L156.90 67.69Q155.02 67.69 153.91 68.65Q152.80 69.62 152.54 71.21Z M174.66 82.49L170.00 82.49L170.00 64.14L174.59 64.14L174.59 66.21L175.25 66.21Q175.66 65.10 176.61 64.58Q177.55 64.07 178.81 64.07L178.81 64.07L181.03 64.07L181.03 68.21L178.73 68.21Q176.96 68.21 175.81 69.15Q174.66 70.10 174.66 72.06L174.66 72.06L174.66 82.49Z M183.76 73.39L183.76 73.39L183.76 72.80Q183.76 69.91 184.91 67.86Q186.06 65.80 187.96 64.71Q189.87 63.62 192.13 63.62L192.13 63.62Q194.64 63.62 195.94 64.51Q197.23 65.40 197.82 66.36L197.82 66.36L198.49 66.36L198.49 64.14L203.08 64.14L203.08 85.75Q203.08 87.63 201.97 88.76Q200.86 89.89 199.01 89.89L199.01 89.89L186.72 89.89L186.72 85.82L197.38 85.82Q198.42 85.82 198.42 84.71L198.42 84.71L198.42 79.94L197.75 79.94Q197.38 80.53 196.71 81.14Q196.05 81.75 194.94 82.16Q193.83 82.57 192.13 82.57L192.13 82.57Q189.87 82.57 187.96 81.47Q186.06 80.38 184.91 78.33Q183.76 76.28 183.76 73.39ZM193.46 78.50L193.46 78.50Q195.60 78.50 197.05 77.13Q198.49 75.76 198.49 73.28L198.49 73.28L198.49 72.91Q198.49 70.39 197.07 69.04Q195.64 67.69 193.46 67.69L193.46 67.69Q191.31 67.69 189.87 69.04Q188.43 70.39 188.43 72.91L188.43 72.91L188.43 73.28Q188.43 75.76 189.87 77.13Q191.31 78.50 193.46 78.50Z" fill="#1d1c19"></path><path d="M54.95 106.91L54.95 106.91Q54.04 106.91 53.26 106.46Q52.48 106.01 52.00 105.16Q51.53 104.31 51.53 103.11L51.53 103.11L51.53 102.89Q51.53 101.70 52.00 100.85Q52.46 99.99 53.24 99.54Q54.02 99.09 54.95 99.09L54.95 99.09Q55.67 99.09 56.16 99.27Q56.65 99.45 56.96 99.73Q57.28 100.01 57.44 100.31L57.44 100.31L57.68 100.31L57.68 96.20L59.23 96.20L59.23 106.70L57.71 106.70L57.71 105.65L57.47 105.65Q57.19 106.13 56.61 106.52Q56.03 106.91 54.95 106.91ZM55.39 105.56L55.39 105.56Q56.39 105.56 57.04 104.91Q57.70 104.27 57.70 103.07L57.70 103.07L57.70 102.93Q57.70 101.75 57.05 101.10Q56.41 100.46 55.39 100.46L55.39 100.46Q54.40 100.46 53.74 101.10Q53.09 101.75 53.09 102.93L53.09 102.93L53.09 103.07Q53.09 104.27 53.74 104.91Q54.40 105.56 55.39 105.56Z M64.80 106.91L64.80 106.91Q64.01 106.91 63.38 106.64Q62.76 106.37 62.39 105.84Q62.03 105.32 62.03 104.57L62.03 104.57Q62.03 103.80 62.39 103.30Q62.76 102.80 63.40 102.54Q64.04 102.29 64.85 102.29L64.85 102.29L67.10 102.29L67.10 101.81Q67.10 101.16 66.71 100.77Q66.32 100.38 65.51 100.38L65.51 100.38Q64.71 100.38 64.29 100.76Q63.87 101.13 63.74 101.73L63.74 101.73L62.30 101.27Q62.48 100.67 62.88 100.18Q63.27 99.69 63.93 99.39Q64.59 99.09 65.52 99.09L65.52 99.09Q66.96 99.09 67.79 99.83Q68.61 100.56 68.61 101.91L68.61 101.91L68.61 104.96Q68.61 105.41 69.03 105.41L69.03 105.41L69.66 105.41L69.66 106.70L68.51 106.70Q67.98 106.70 67.65 106.43Q67.32 106.16 67.32 105.69L67.32 105.69L67.32 105.65L67.10 105.65Q66.98 105.87 66.74 106.17Q66.50 106.47 66.03 106.69Q65.57 106.91 64.80 106.91ZM65.03 105.63L65.03 105.63Q65.96 105.63 66.53 105.10Q67.10 104.57 67.10 103.64L67.10 103.64L67.10 103.49L64.94 103.49Q64.32 103.49 63.95 103.75Q63.57 104.01 63.57 104.52L63.57 104.52Q63.57 105.03 63.96 105.33Q64.35 105.63 65.03 105.63Z  M81.26 106.91L81.26 106.91Q80.18 106.91 79.60 106.52Q79.03 106.13 78.74 105.65L78.74 105.65L78.50 105.65L78.50 106.70L76.99 106.70L76.99 96.20L78.53 96.20L78.53 100.31L78.77 100.31Q78.95 100.01 79.25 99.73Q79.55 99.45 80.05 99.27Q80.54 99.09 81.26 99.09L81.26 99.09Q82.19 99.09 82.97 99.54Q83.75 99.99 84.22 100.85Q84.68 101.70 84.68 102.89L84.68 102.89L84.68 103.11Q84.68 104.31 84.21 105.16Q83.74 106.01 82.97 106.46Q82.19 106.91 81.26 106.91ZM80.81 105.56L80.81 105.56Q81.82 105.56 82.47 104.91Q83.12 104.27 83.12 103.07L83.12 103.07L83.12 102.93Q83.12 101.75 82.48 101.10Q81.83 100.46 80.81 100.46L80.81 100.46Q79.82 100.46 79.17 101.10Q78.52 101.75 78.52 102.93L78.52 102.93L78.52 103.07Q78.52 104.27 79.17 104.91Q79.82 105.56 80.81 105.56Z M89.15 106.70L87.60 106.70L87.60 99.30L89.15 99.30L89.15 106.70ZM88.38 98.30L88.38 98.30Q87.93 98.30 87.62 98.01Q87.32 97.71 87.32 97.25L87.32 97.25Q87.32 96.78 87.62 96.49Q87.93 96.20 88.38 96.20L88.38 96.20Q88.85 96.20 89.15 96.49Q89.45 96.78 89.45 97.25L89.45 97.25Q89.45 97.71 89.15 98.01Q88.85 98.30 88.38 98.30Z M93.99 106.70L92.44 106.70L92.44 99.30L93.96 99.30L93.96 100.41L94.20 100.41Q94.41 99.96 94.95 99.57Q95.49 99.18 96.55 99.18L96.55 99.18Q97.39 99.18 98.04 99.56Q98.70 99.93 99.07 100.62Q99.45 101.30 99.45 102.26L99.45 102.26L99.45 106.70L97.90 106.70L97.90 102.38Q97.90 101.42 97.42 100.96Q96.94 100.50 96.10 100.50L96.10 100.50Q95.14 100.50 94.56 101.13Q93.99 101.76 93.99 102.96L93.99 102.96L93.99 106.70Z  M109.04 106.70L107.49 106.70L107.49 99.30L109.04 99.30L109.04 106.70ZM108.27 98.30L108.27 98.30Q107.82 98.30 107.51 98.01Q107.21 97.71 107.21 97.25L107.21 97.25Q107.21 96.78 107.51 96.49Q107.82 96.20 108.27 96.20L108.27 96.20Q108.74 96.20 109.04 96.49Q109.34 96.78 109.34 97.25L109.34 97.25Q109.34 97.71 109.04 98.01Q108.74 98.30 108.27 98.30Z  M120.22 106.91L120.22 106.91Q119.30 106.91 118.52 106.46Q117.74 106.01 117.27 105.16Q116.80 104.31 116.80 103.11L116.80 103.11L116.80 102.89Q116.80 101.70 117.26 100.85Q117.73 99.99 118.51 99.54Q119.29 99.09 120.22 99.09L120.22 99.09Q120.94 99.09 121.42 99.27Q121.91 99.45 122.23 99.73Q122.54 100.01 122.71 100.31L122.71 100.31L122.95 100.31L122.95 96.20L124.49 96.20L124.49 106.70L122.98 106.70L122.98 105.65L122.74 105.65Q122.45 106.13 121.88 106.52Q121.30 106.91 120.22 106.91ZM120.65 105.56L120.65 105.56Q121.66 105.56 122.31 104.91Q122.96 104.27 122.96 103.07L122.96 103.07L122.96 102.93Q122.96 101.75 122.32 101.10Q121.67 100.46 120.65 100.46L120.65 100.46Q119.66 100.46 119.01 101.10Q118.36 101.75 118.36 102.93L118.36 102.93L118.36 103.07Q118.36 104.27 119.01 104.91Q119.66 105.56 120.65 105.56Z M130.07 106.91L130.07 106.91Q129.27 106.91 128.65 106.64Q128.03 106.37 127.66 105.84Q127.29 105.32 127.29 104.57L127.29 104.57Q127.29 103.80 127.66 103.30Q128.03 102.80 128.66 102.54Q129.30 102.29 130.11 102.29L130.11 102.29L132.36 102.29L132.36 101.81Q132.36 101.16 131.97 100.77Q131.58 100.38 130.77 100.38L130.77 100.38Q129.98 100.38 129.56 100.76Q129.14 101.13 129.00 101.73L129.00 101.73L127.56 101.27Q127.74 100.67 128.14 100.18Q128.54 99.69 129.20 99.39Q129.86 99.09 130.79 99.09L130.79 99.09Q132.23 99.09 133.05 99.83Q133.88 100.56 133.88 101.91L133.88 101.91L133.88 104.96Q133.88 105.41 134.30 105.41L134.30 105.41L134.93 105.41L134.93 106.70L133.77 106.70Q133.25 106.70 132.92 106.43Q132.59 106.16 132.59 105.69L132.59 105.69L132.59 105.65L132.36 105.65Q132.24 105.87 132.00 106.17Q131.76 106.47 131.30 106.69Q130.83 106.91 130.07 106.91ZM130.29 105.63L130.29 105.63Q131.22 105.63 131.79 105.10Q132.36 104.57 132.36 103.64L132.36 103.64L132.36 103.49L130.20 103.49Q129.59 103.49 129.21 103.75Q128.84 104.01 128.84 104.52L128.84 104.52Q128.84 105.03 129.23 105.33Q129.62 105.63 130.29 105.63Z M138.97 106.70L137.43 106.70L137.43 96.20L138.97 96.20L138.97 100.35L139.21 100.35Q139.36 100.07 139.64 99.80Q139.92 99.53 140.38 99.36Q140.83 99.18 141.54 99.18L141.54 99.18Q142.38 99.18 143.03 99.56Q143.68 99.93 144.06 100.62Q144.43 101.30 144.43 102.26L144.43 102.26L144.43 106.70L142.89 106.70L142.89 102.38Q142.89 101.42 142.41 100.96Q141.93 100.50 141.09 100.50L141.09 100.50Q140.13 100.50 139.55 101.13Q138.97 101.76 138.97 102.96L138.97 102.96L138.97 106.70Z M151.12 106.91L151.12 106.91Q150.01 106.91 149.14 106.45Q148.28 105.99 147.79 105.14Q147.29 104.28 147.29 103.11L147.29 103.11L147.29 102.89Q147.29 101.72 147.79 100.87Q148.28 100.02 149.14 99.56Q150.01 99.09 151.12 99.09L151.12 99.09Q152.23 99.09 153.10 99.56Q153.97 100.02 154.46 100.87Q154.96 101.72 154.96 102.89L154.96 102.89L154.96 103.11Q154.96 104.28 154.46 105.14Q153.97 105.99 153.10 106.45Q152.23 106.91 151.12 106.91ZM151.12 105.53L151.12 105.53Q152.14 105.53 152.77 104.88Q153.41 104.22 153.41 103.07L153.41 103.07L153.41 102.93Q153.41 101.78 152.78 101.13Q152.15 100.47 151.12 100.47L151.12 100.47Q150.11 100.47 149.47 101.13Q148.84 101.78 148.84 102.93L148.84 102.93L148.84 103.07Q148.84 104.22 149.47 104.88Q150.11 105.53 151.12 105.53Z M160.17 106.91L160.17 106.91Q159.38 106.91 158.75 106.64Q158.13 106.37 157.76 105.84Q157.40 105.32 157.40 104.57L157.40 104.57Q157.40 103.80 157.76 103.30Q158.13 102.80 158.77 102.54Q159.41 102.29 160.22 102.29L160.22 102.29L162.47 102.29L162.47 101.81Q162.47 101.16 162.08 100.77Q161.69 100.38 160.88 100.38L160.88 100.38Q160.08 100.38 159.66 100.76Q159.24 101.13 159.11 101.73L159.11 101.73L157.67 101.27Q157.85 100.67 158.24 100.18Q158.64 99.69 159.30 99.39Q159.96 99.09 160.89 99.09L160.89 99.09Q162.33 99.09 163.16 99.83Q163.98 100.56 163.98 101.91L163.98 101.91L163.98 104.96Q163.98 105.41 164.40 105.41L164.40 105.41L165.03 105.41L165.03 106.70L163.88 106.70Q163.35 106.70 163.02 106.43Q162.69 106.16 162.69 105.69L162.69 105.69L162.69 105.65L162.47 105.65Q162.35 105.87 162.11 106.17Q161.87 106.47 161.40 106.69Q160.94 106.91 160.17 106.91ZM160.40 105.63L160.40 105.63Q161.33 105.63 161.90 105.10Q162.47 104.57 162.47 103.64L162.47 103.64L162.47 103.49L160.31 103.49Q159.69 103.49 159.32 103.75Q158.94 104.01 158.94 104.52L158.94 104.52Q158.94 105.03 159.33 105.33Q159.72 105.63 160.40 105.63Z M169.08 106.70L167.53 106.70L167.53 99.30L169.05 99.30L169.05 100.17L169.29 100.17Q169.50 99.78 169.96 99.48Q170.43 99.18 171.22 99.18L171.22 99.18Q172.05 99.18 172.55 99.52Q173.05 99.86 173.31 100.38L173.31 100.38L173.55 100.38Q173.80 99.87 174.29 99.53Q174.78 99.18 175.68 99.18L175.68 99.18Q176.40 99.18 176.95 99.48Q177.51 99.77 177.84 100.35Q178.17 100.92 178.17 101.78L178.17 101.78L178.17 106.70L176.62 106.70L176.62 101.90Q176.62 101.22 176.25 100.86Q175.89 100.49 175.21 100.49L175.21 100.49Q174.49 100.49 174.06 100.95Q173.62 101.42 173.62 102.29L173.62 102.29L173.62 106.70L172.08 106.70L172.08 101.90Q172.08 101.22 171.71 100.86Q171.34 100.49 170.67 100.49L170.67 100.49Q169.95 100.49 169.51 100.95Q169.08 101.42 169.08 102.29L169.08 102.29L169.08 106.70Z" fill="#1d1c19" fill-opacity="0.7"></path><svg x="-17.50" y="124.59" width="258.46" height="132.82" viewBox="0 0 360 185" overflow="visible"><g fill="#1d1c19"><g transform="translate(64.98,0)"><path d="M22.88 133.59 L22.88 133.59 Q21.33 133.16 20.38 132.82 L20.38 132.82 L19.44 132.56 Q19.61 132.13 19.31 131.78 Q19.01 131.44 18.06 131.35 L18.06 131.35 Q16.77 130.49 15.39 128.95 Q14.02 127.40 12.99 125.76 Q11.95 124.13 11.61 123.36 L11.61 123.36 Q11.18 122.32 11.44 121.98 L11.44 121.98 Q11.52 121.81 11.70 121.72 L11.70 121.72 Q12.38 121.46 13.33 121.03 L13.33 121.03 Q14.28 120.35 15.35 120.00 Q16.43 119.66 17.11 121.12 L17.11 121.12 Q18.23 123.10 20.60 124.47 Q22.96 125.85 26.02 126.11 Q29.07 126.37 32.16 125.08 L32.16 125.08 Q34.23 124.13 34.40 122.45 Q34.57 120.78 33.11 118.54 L33.11 118.54 Q32.85 117.85 32.38 117.42 Q31.91 116.99 31.00 116.30 Q30.10 115.62 28.47 114.07 L28.47 114.07 Q27.18 113.47 26.10 112.95 Q25.03 112.43 23.82 111.83 L23.82 111.83 Q22.45 111.14 20.73 109.90 Q19.01 108.65 17.54 107.14 Q16.08 105.64 15.31 104.26 L15.31 104.26 Q13.93 102.97 13.59 100.69 Q13.24 98.42 13.72 95.84 Q14.19 93.26 15.31 91.19 L15.31 91.19 Q15.82 89.99 17.20 88.05 Q18.58 86.12 20.30 84.05 Q22.02 81.99 23.61 80.31 Q25.20 78.64 26.14 78.03 L26.14 78.03 Q26.83 77.35 27.61 76.57 L27.61 76.57 L28.38 75.88 Q28.47 75.45 28.72 75.45 L28.72 75.45 L28.90 75.45 Q29.33 75.20 30.79 74.59 Q32.25 73.99 33.97 72.36 L33.97 72.36 Q39.73 69.61 43.77 68.62 Q47.82 67.63 50.14 67.63 L50.14 67.63 Q52.29 67.71 54.35 68.79 Q56.42 69.86 57.92 71.50 Q59.43 73.13 59.68 75.20 L59.68 75.20 Q60.29 77.26 59.13 80.14 Q57.96 83.02 55.94 85.56 Q53.92 88.10 51.77 89.30 L51.77 89.30 Q49.36 90.33 47.69 89.56 Q46.01 88.78 46.10 87.15 L46.10 87.15 Q46.10 86.46 46.57 85.52 Q47.04 84.57 49.19 82.16 L49.19 82.16 Q51.94 78.12 52.12 76.40 Q52.29 74.68 50.57 74.42 L50.57 74.42 Q50.05 74.25 48.59 74.51 Q47.13 74.77 45.45 75.15 Q43.77 75.54 42.53 75.97 Q41.28 76.40 41.28 76.57 L41.28 76.57 L41.28 76.83 Q41.28 76.92 41.19 77.00 L41.19 77.00 Q41.19 77.09 40.94 77.00 L40.94 77.00 Q40.76 77.00 39.78 77.56 Q38.79 78.12 37.41 78.98 Q36.03 79.84 34.70 80.74 Q33.37 81.65 32.42 82.33 Q31.48 83.02 31.39 83.19 L31.39 83.19 Q31.22 84.14 29.41 84.91 L29.41 84.91 Q27.69 85.95 26.40 87.84 Q25.11 89.73 23.39 92.65 L23.39 92.65 Q21.93 94.63 21.33 96.91 Q20.73 99.19 21.33 100.57 L21.33 100.57 Q21.76 101.94 23.69 103.28 Q25.63 104.61 28.98 106.59 L28.98 106.59 Q31.91 108.22 34.49 110.03 Q37.07 111.83 38.87 113.51 Q40.68 115.19 41.19 116.30 L41.19 116.30 Q42.23 117.77 42.44 119.66 Q42.66 121.55 42.44 123.31 Q42.23 125.08 41.88 126.19 L41.88 126.19 Q41.28 127.57 40.03 129.12 Q38.79 130.67 37.75 130.58 L37.75 130.58 Q36.81 130.84 36.34 131.18 Q35.86 131.53 35.26 131.78 L35.26 131.78 Q34.66 132.13 32.42 132.60 Q30.19 133.07 27.52 133.38 Q24.85 133.68 22.88 133.59 Z M67.77 126.28 L67.77 126.28 Q65.19 127.74 62.31 127.96 Q59.43 128.17 56.93 127.18 Q54.44 126.19 52.89 124.22 L52.89 124.22 Q52.03 123.10 51.26 120.65 Q50.48 118.20 51.00 113.98 L51.00 113.98 Q51.51 110.03 53.45 105.98 Q55.38 101.94 58.22 98.85 Q61.06 95.75 64.41 94.63 L64.41 94.63 Q65.62 94.20 66.86 93.99 Q68.11 93.77 70.18 93.94 L70.18 93.94 Q72.15 94.20 73.70 94.93 Q75.25 95.66 75.94 96.52 L75.94 96.52 Q77.31 97.90 77.74 99.19 Q78.17 100.48 78.09 101.68 L78.09 101.68 Q77.66 104.44 75.64 107.62 Q73.62 110.80 70.00 112.35 L70.00 112.35 Q68.54 112.95 66.56 113.12 Q64.59 113.29 61.15 112.61 L61.15 112.61 Q59.08 112.18 58.44 113.04 Q57.79 113.90 57.88 116.39 L57.88 116.39 Q58.05 117.94 58.61 119.10 Q59.17 120.26 60.72 120.69 L60.72 120.69 Q62.69 121.03 63.55 120.73 Q64.41 120.43 65.70 119.83 L65.70 119.83 Q66.39 119.40 67.08 118.88 L67.08 118.88 L68.37 117.85 Q68.97 117.34 69.40 117.08 L69.40 117.08 Q69.83 116.73 70.26 116.65 Q70.69 116.56 71.12 116.56 L71.12 116.56 Q72.07 116.65 72.93 117.59 Q73.79 118.54 74.05 119.40 L74.05 119.40 Q74.05 120.09 73.19 121.33 Q72.33 122.58 70.91 123.92 Q69.49 125.25 67.77 126.28 Z M66.65 107.10 L66.65 107.10 Q67.25 106.84 68.41 105.90 Q69.57 104.95 70.52 103.88 Q71.47 102.80 71.47 102.20 L71.47 102.20 Q71.47 101.25 70.22 100.57 Q68.97 99.88 66.99 100.31 L66.99 100.31 Q66.31 100.48 65.36 101.25 Q64.41 102.03 63.47 103.02 Q62.52 104.01 61.83 104.91 Q61.15 105.81 60.89 106.33 L60.89 106.33 Q61.23 106.76 62.26 107.02 Q63.30 107.27 64.54 107.27 Q65.79 107.27 66.65 107.10 Z M96.49 126.28 L96.49 126.28 Q93.91 127.74 91.03 127.96 Q88.15 128.17 85.66 127.18 Q83.16 126.19 81.61 124.22 L81.61 124.22 Q80.75 123.10 79.98 120.65 Q79.21 118.20 79.72 113.98 L79.72 113.98 Q80.24 110.03 82.17 105.98 Q84.11 101.94 86.95 98.85 Q89.78 95.75 93.14 94.63 L93.14 94.63 Q94.34 94.20 95.59 93.99 Q96.84 93.77 98.90 93.94 L98.90 93.94 Q100.88 94.20 102.43 94.93 Q103.97 95.66 104.66 96.52 L104.66 96.52 Q106.04 97.90 106.47 99.19 Q106.90 100.48 106.81 101.68 L106.81 101.68 Q106.38 104.44 104.36 107.62 Q102.34 110.80 98.73 112.35 L98.73 112.35 Q97.27 112.95 95.29 113.12 Q93.31 113.29 89.87 112.61 L89.87 112.61 Q87.81 112.18 87.16 113.04 Q86.52 113.90 86.60 116.39 L86.60 116.39 Q86.77 117.94 87.33 119.10 Q87.89 120.26 89.44 120.69 L89.44 120.69 Q91.42 121.03 92.28 120.73 Q93.14 120.43 94.43 119.83 L94.43 119.83 Q95.12 119.40 95.80 118.88 L95.80 118.88 L97.09 117.85 Q97.70 117.34 98.13 117.08 L98.13 117.08 Q98.56 116.73 98.99 116.65 Q99.42 116.56 99.85 116.56 L99.85 116.56 Q100.79 116.65 101.65 117.59 Q102.51 118.54 102.77 119.40 L102.77 119.40 Q102.77 120.09 101.91 121.33 Q101.05 122.58 99.63 123.92 Q98.21 125.25 96.49 126.28 Z M95.37 107.10 L95.37 107.10 Q95.98 106.84 97.14 105.90 Q98.30 104.95 99.24 103.88 Q100.19 102.80 100.19 102.20 L100.19 102.20 Q100.19 101.25 98.94 100.57 Q97.70 99.88 95.72 100.31 L95.72 100.31 Q95.03 100.48 94.08 101.25 Q93.14 102.03 92.19 103.02 Q91.25 104.01 90.56 104.91 Q89.87 105.81 89.61 106.33 L89.61 106.33 Q89.96 106.76 90.99 107.02 Q92.02 107.27 93.27 107.27 Q94.51 107.27 95.37 107.10 Z M118.42 145.20 L118.42 145.20 Q116.01 146.15 113.39 144.90 Q110.77 143.65 108.88 140.99 L108.88 140.99 Q108.53 140.47 107.84 139.14 Q107.16 137.80 106.51 136.26 Q105.87 134.71 105.56 133.59 Q105.26 132.47 105.52 132.30 L105.52 132.30 Q105.87 131.35 107.07 131.18 Q108.27 131.01 109.48 131.31 Q110.68 131.61 110.85 132.13 L110.85 132.13 Q111.11 132.73 111.37 133.38 Q111.63 134.02 112.01 134.58 Q112.40 135.14 112.75 135.57 L112.75 135.57 Q113.69 137.03 114.81 137.59 Q115.93 138.15 116.53 137.72 L116.53 137.72 Q117.99 136.60 118.72 135.09 Q119.45 133.59 120.66 129.81 L120.66 129.81 Q121.60 126.62 122.29 124.30 Q122.98 121.98 123.75 120.00 L123.75 120.00 Q124.01 118.97 124.44 118.20 L124.44 118.20 Q124.53 118.02 124.61 117.85 L124.61 117.85 Q123.41 118.71 122.46 119.57 L122.46 119.57 Q121.17 120.78 118.94 121.72 L118.94 121.72 Q118.42 122.32 116.40 122.45 Q114.38 122.58 112.49 121.98 L112.49 121.98 Q111.28 121.29 110.55 120.56 Q109.82 119.83 109.35 118.88 Q108.88 117.94 108.36 116.65 L108.36 116.65 Q107.76 115.36 108.19 112.43 Q108.62 109.51 109.74 106.59 L109.74 106.59 Q110.77 104.44 112.75 101.94 Q114.72 99.45 116.96 97.43 Q119.20 95.41 121.00 94.89 L121.00 94.89 Q121.69 94.55 123.41 94.07 Q125.13 93.60 126.68 94.03 L126.68 94.03 Q128.14 94.20 128.91 94.67 Q129.69 95.15 131.41 96.61 L131.41 96.61 Q132.53 97.73 134.16 99.49 Q135.79 101.25 136.22 102.46 L136.22 102.46 Q136.83 103.75 136.48 105.25 Q136.14 106.76 135.28 107.88 L135.28 107.88 Q134.50 108.99 133.64 110.11 Q132.78 111.23 132.35 113.21 L132.35 113.21 Q131.92 115.79 130.72 119.01 Q129.52 122.24 128.83 124.99 L128.83 124.99 L127.45 130.32 Q125.30 137.63 122.72 140.94 Q120.14 144.25 118.42 145.20 Z M116.62 115.62 L116.62 115.62 Q118.34 115.53 119.58 115.23 Q120.83 114.93 121.95 113.85 Q123.07 112.78 124.53 110.54 L124.53 110.54 Q125.99 108.48 126.59 106.76 Q127.19 105.04 127.02 102.89 L127.02 102.89 Q126.94 101.51 126.25 101.08 Q125.56 100.65 124.44 100.82 L124.44 100.82 Q122.81 101.08 121.52 102.16 Q120.23 103.23 118.51 105.47 L118.51 105.47 Q117.22 107.19 116.36 109.60 L116.36 109.60 Q115.50 112.18 115.63 113.72 Q115.76 115.27 116.62 115.62 Z M143.88 138.41 L143.88 138.41 Q143.36 138.75 141.56 137.59 Q139.75 136.43 138.55 135.05 L138.55 135.05 Q137.94 134.36 137.77 133.59 Q137.60 132.82 137.86 130.67 L137.86 130.67 Q138.20 129.72 138.24 128.86 Q138.29 128.00 138.29 127.66 L138.29 127.66 Q138.29 127.14 138.59 125.25 Q138.89 123.36 139.23 121.25 Q139.58 119.14 139.84 118.02 L139.84 118.02 Q139.84 117.94 139.96 117.42 Q140.09 116.91 140.18 116.65 L140.18 116.65 Q140.35 115.87 140.61 114.76 Q140.87 113.64 141.13 111.75 L141.13 111.75 Q141.81 109.60 142.29 107.49 Q142.76 105.38 142.76 104.61 L142.76 104.61 Q142.76 103.06 143.96 102.37 L143.96 102.37 Q144.05 101.94 144.48 101.04 Q144.91 100.14 145.25 99.53 L145.25 99.53 Q146.97 94.63 148.09 91.71 Q149.21 88.78 150.41 86.63 L150.41 86.63 Q150.93 85.17 151.57 83.62 Q152.22 82.08 152.91 81.22 L152.91 81.22 Q153.51 80.01 155.01 78.25 Q156.52 76.49 158.24 74.85 Q159.96 73.22 160.99 72.44 L160.99 72.44 Q162.88 71.50 164.52 70.90 Q166.15 70.29 167.96 70.29 L167.96 70.29 Q169.59 70.29 170.84 71.03 Q172.09 71.76 174.58 73.99 L174.58 73.99 Q175.44 75.11 175.44 76.14 Q175.44 77.17 175.01 77.86 L175.01 77.86 Q174.41 79.24 173.20 81.26 Q172.00 83.28 170.88 84.87 Q169.76 86.46 169.25 86.55 L169.25 86.55 Q168.22 87.15 167.10 86.89 Q165.98 86.63 165.98 85.34 L165.98 85.34 Q165.98 84.74 166.07 84.23 L166.07 84.23 L166.07 83.71 Q166.32 82.59 166.71 81.73 Q167.10 80.87 167.44 80.27 L167.44 80.27 Q168.13 79.15 167.83 78.12 Q167.53 77.09 165.64 77.26 L165.64 77.26 Q165.38 77.43 164.65 78.08 Q163.92 78.72 163.10 79.54 Q162.28 80.36 161.68 81.09 Q161.08 81.82 161.08 82.08 L161.08 82.08 L160.65 82.94 Q160.13 83.88 159.19 85.00 L159.19 85.00 Q158.58 85.86 158.15 86.63 Q157.72 87.41 157.72 87.84 L157.72 87.84 Q157.72 88.18 157.64 88.44 Q157.55 88.70 157.21 88.70 L157.21 88.70 L156.95 89.56 Q156.61 90.42 155.92 91.62 L155.92 91.62 Q155.57 92.48 155.19 93.21 Q154.80 93.94 154.46 94.29 L154.46 94.29 L154.37 94.46 L154.03 95.41 Q153.60 96.44 153.17 97.47 Q152.74 98.50 152.74 98.67 L152.74 98.67 Q152.74 99.02 153.77 99.02 Q154.80 99.02 156.26 98.72 Q157.72 98.42 159.10 98.07 L159.10 98.07 Q160.30 97.73 160.82 97.73 Q161.34 97.73 162.45 98.07 L162.45 98.07 Q163.14 98.50 163.57 99.58 Q164.00 100.65 164.22 101.73 Q164.43 102.80 164.26 103.32 L164.26 103.32 Q164.17 103.66 162.32 104.26 Q160.48 104.87 158.67 105.21 L158.67 105.21 Q157.12 105.55 155.19 105.94 Q153.25 106.33 151.79 106.72 Q150.33 107.10 150.24 107.45 L150.24 107.45 Q149.90 107.45 149.68 107.88 Q149.47 108.31 149.47 108.65 L149.47 108.65 Q149.47 109.77 149.04 110.46 L149.04 110.46 Q148.87 110.97 148.48 112.56 Q148.09 114.15 147.70 116.00 Q147.32 117.85 147.02 119.44 Q146.72 121.03 146.72 121.55 L146.72 121.55 Q146.20 122.15 146.11 123.06 Q146.03 123.96 146.03 124.65 L146.03 124.65 Q145.68 125.33 145.60 125.89 Q145.51 126.45 145.51 126.80 L145.51 126.80 L145.51 127.14 Q145.51 127.40 145.43 127.66 L145.43 127.66 Q145.34 128.52 145.21 129.94 Q145.08 131.35 145.08 132.73 L145.08 132.73 L144.82 135.22 Q144.74 136.34 144.52 137.16 Q144.31 137.98 143.88 138.41 Z M186.02 127.83 L186.02 127.83 Q185.16 126.97 184.64 125.46 Q184.13 123.96 183.61 121.98 L183.61 121.98 Q183.44 121.29 183.48 120.43 Q183.52 119.57 183.44 119.06 L183.44 119.06 Q183.18 119.66 182.62 120.60 Q182.06 121.55 181.55 121.98 L181.55 121.98 Q181.20 122.32 180.00 123.31 Q178.79 124.30 177.59 124.90 L177.59 124.90 Q174.75 126.71 172.56 126.58 Q170.37 126.45 168.73 124.39 L168.73 124.39 Q167.36 123.27 166.50 121.55 Q165.64 119.83 166.15 117.42 L166.15 117.42 Q166.32 114.41 167.01 111.53 Q167.70 108.65 169.85 103.83 L169.85 103.83 Q171.66 100.31 172.60 98.33 Q173.55 96.35 173.81 96.01 L173.81 96.01 Q175.10 95.58 176.99 96.05 Q178.88 96.52 179.05 97.73 L179.05 97.73 Q179.57 98.59 179.05 100.95 Q178.54 103.32 176.99 106.33 L176.99 106.33 Q175.78 109.25 174.71 112.00 Q173.63 114.76 173.42 116.65 Q173.20 118.54 174.41 118.97 L174.41 118.97 Q175.18 119.40 176.69 118.88 Q178.19 118.37 180.26 115.79 Q182.32 113.21 184.64 107.62 L184.64 107.62 Q185.33 105.90 185.67 104.56 Q186.02 103.23 186.10 101.60 L186.10 101.60 Q185.93 100.57 186.66 99.45 Q187.39 98.33 188.43 97.73 L188.43 97.73 Q188.77 97.30 189.37 96.87 L189.37 96.87 Q189.80 96.61 189.97 96.78 L189.97 96.78 Q190.06 96.78 190.15 96.95 L190.15 96.95 L191.52 96.87 Q191.87 96.78 192.30 97.56 Q192.73 98.33 193.16 98.67 L193.16 98.67 Q194.10 99.45 194.02 102.03 Q193.93 104.61 191.95 109.25 L191.95 109.25 Q190.32 112.78 189.76 114.58 Q189.20 116.39 189.11 118.11 L189.11 118.11 Q189.11 119.66 189.37 120.73 Q189.63 121.81 190.92 122.93 L190.92 122.93 Q191.87 123.53 191.99 124.95 Q192.12 126.37 192.04 127.40 L192.04 127.40 Q191.87 128.17 190.70 128.47 Q189.54 128.77 188.21 128.60 Q186.88 128.43 186.02 127.83 Z M197.80 126.54 L197.80 126.54 Q197.11 125.85 196.81 124.47 Q196.51 123.10 196.60 121.77 Q196.68 120.43 197.03 119.74 L197.03 119.74 Q197.03 119.06 197.24 118.67 Q197.46 118.28 197.37 117.94 L197.37 117.94 Q197.28 117.59 197.54 116.73 Q197.80 115.87 198.06 115.10 L198.06 115.10 Q198.66 113.72 199.43 111.53 Q200.21 109.34 200.98 107.06 Q201.76 104.78 202.27 103.10 Q202.79 101.43 202.87 101.08 L202.87 101.08 Q202.87 100.05 204.25 99.96 L204.25 99.96 Q205.28 99.62 206.74 100.82 Q208.21 102.03 209.07 103.40 L209.07 103.40 Q209.75 104.09 209.58 105.21 Q209.41 106.33 208.46 108.39 L208.46 108.39 Q208.12 109.08 207.65 110.67 Q207.17 112.26 207.00 113.29 L207.00 113.29 Q206.66 113.98 206.18 115.23 Q205.71 116.48 205.37 117.59 L205.37 117.59 Q205.20 118.02 205.02 119.19 Q204.85 120.35 204.59 121.55 Q204.34 122.75 203.91 123.44 L203.91 123.44 Q203.13 126.97 201.20 127.57 Q199.26 128.17 197.80 126.54 Z " fill="#1d1c19"></path><defs><mask id="hm2" maskUnits="userSpaceOnUse"><path d="M0,3 C0,-3 -9,-6 -9,-13 C-9,-19 -2,-20 0,-14 C2,-20 9,-19 9,-13 C9,-6 0,-3 0,3 Z" fill="#fff"></path><path d="M-7.5,-8 q2.5,-3.4 5,0 t5,0 t5,0" fill="none" stroke="#000" stroke-width="2.1" stroke-linecap="round"></path></mask></defs><g transform="translate(210.40,95.23) rotate(12) scale(0.940)"><path d="M0,3 C0,-3 -9,-6 -9,-13 C-9,-19 -2,-20 0,-14 C2,-20 9,-19 9,-13 C9,-6 0,-3 0,3 Z" fill="#d23b34" mask="url(#hm2)"></path></g></g></g></svg><path d="M20.33 304.80L20.33 304.80Q19.05 304.80 18.06 304.34Q17.08 303.89 16.52 303.02Q15.96 302.16 15.96 300.91L15.96 300.91L15.96 300.50L17.86 300.50L17.86 300.91Q17.86 302.02 18.54 302.56Q19.21 303.10 20.33 303.10L20.33 303.10Q21.46 303.10 22.04 302.64Q22.62 302.18 22.62 301.44L22.62 301.44Q22.62 300.94 22.34 300.63Q22.07 300.32 21.55 300.13Q21.03 299.94 20.30 299.76L20.30 299.76L19.82 299.66Q18.71 299.41 17.90 299.02Q17.10 298.62 16.66 298Q16.23 297.38 16.23 296.37L16.23 296.37Q16.23 295.36 16.71 294.64Q17.19 293.92 18.07 293.54Q18.95 293.15 20.14 293.15L20.14 293.15Q21.32 293.15 22.25 293.55Q23.18 293.95 23.71 294.75Q24.25 295.55 24.25 296.75L24.25 296.75L24.25 297.28L22.34 297.28L22.34 296.75Q22.34 296.06 22.07 295.65Q21.80 295.23 21.30 295.04Q20.81 294.85 20.14 294.85L20.14 294.85Q19.14 294.85 18.63 295.23Q18.12 295.62 18.12 296.32L18.12 296.32Q18.12 296.77 18.35 297.08Q18.58 297.39 19.04 297.59Q19.50 297.79 20.18 297.94L20.18 297.94L20.66 298.05Q21.82 298.30 22.68 298.70Q23.54 299.09 24.03 299.73Q24.52 300.37 24.52 301.39L24.52 301.39Q24.52 302.40 24.00 303.17Q23.48 303.94 22.54 304.37Q21.61 304.80 20.33 304.80Z M39.76 304.58L37.84 304.58L37.84 295.12L34.50 295.12L34.50 293.38L43.10 293.38L43.10 295.12L39.76 295.12L39.76 304.58Z M54.81 304.58L52.82 304.58L55.90 293.38L59.24 293.38L62.31 304.58L60.33 304.58L59.66 302.02L55.48 302.02L54.81 304.58ZM57.43 294.58L55.93 300.26L59.21 300.26L57.70 294.58L57.43 294.58Z M74.67 304.58L72.74 304.58L72.74 293.38L77.52 293.38Q78.58 293.38 79.36 293.74Q80.14 294.11 80.58 294.78Q81.02 295.44 81.02 296.37L81.02 296.37L81.02 296.54Q81.02 297.58 80.53 298.21Q80.03 298.83 79.33 299.12L79.33 299.12L79.33 299.38Q79.95 299.41 80.31 299.81Q80.67 300.21 80.67 300.88L80.67 300.88L80.67 304.58L78.75 304.58L78.75 301.15Q78.75 300.75 78.54 300.50Q78.32 300.26 77.84 300.26L77.84 300.26L74.67 300.26L74.67 304.58ZM74.67 295.12L74.67 298.51L77.33 298.51Q78.16 298.51 78.63 298.07Q79.10 297.63 79.10 296.90L79.10 296.90L79.10 296.75Q79.10 296 78.64 295.56Q78.18 295.12 77.33 295.12L77.33 295.12L74.67 295.12Z M93.75 304.58L91.85 304.58L91.85 293.38L95.53 293.38L98.17 303.28L98.42 303.28L98.42 293.38L100.33 293.38L100.33 304.58L96.66 304.58L94.02 294.67L93.75 294.67L93.75 304.58Z M116.94 304.58L111.17 304.58L111.17 302.88L112.67 302.88L112.67 295.07L111.17 295.07L111.17 293.38L116.90 293.38Q117.90 293.38 118.66 293.72Q119.42 294.06 119.85 294.70Q120.27 295.33 120.27 296.21L120.27 296.21L120.27 296.35Q120.27 297.12 119.98 297.62Q119.70 298.11 119.30 298.38Q118.90 298.66 118.53 298.77L118.53 298.77L118.53 299.04Q118.90 299.14 119.32 299.40Q119.74 299.66 120.04 300.17Q120.34 300.67 120.34 301.47L120.34 301.47L120.34 301.63Q120.34 302.54 119.90 303.21Q119.46 303.87 118.70 304.22Q117.94 304.58 116.94 304.58L116.94 304.58ZM114.59 299.81L114.59 302.83L116.72 302.83Q117.49 302.83 117.94 302.46Q118.40 302.08 118.40 301.39L118.40 301.39L118.40 301.25Q118.40 300.56 117.95 300.18Q117.50 299.81 116.72 299.81L116.72 299.81L114.59 299.81ZM114.59 295.12L114.59 298.06L116.70 298.06Q117.44 298.06 117.90 297.70Q118.35 297.33 118.35 296.67L118.35 296.67L118.35 296.51Q118.35 295.86 117.90 295.49Q117.44 295.12 116.70 295.12L116.70 295.12L114.59 295.12Z M138.36 304.58L131.14 304.58L131.14 293.38L138.28 293.38L138.28 295.12L133.08 295.12L133.08 298.06L137.83 298.06L137.83 299.81L133.08 299.81L133.08 302.83L138.36 302.83L138.36 304.58Z M150.98 304.58L149.04 304.58L149.04 293.38L153.82 293.38Q154.88 293.38 155.66 293.74Q156.45 294.11 156.89 294.78Q157.33 295.44 157.33 296.37L157.33 296.37L157.33 296.54Q157.33 297.58 156.83 298.21Q156.34 298.83 155.63 299.12L155.63 299.12L155.63 299.38Q156.26 299.41 156.62 299.81Q156.98 300.21 156.98 300.88L156.98 300.88L156.98 304.58L155.06 304.58L155.06 301.15Q155.06 300.75 154.84 300.50Q154.62 300.26 154.14 300.26L154.14 300.26L150.98 300.26L150.98 304.58ZM150.98 295.12L150.98 298.51L153.63 298.51Q154.46 298.51 154.94 298.07Q155.41 297.63 155.41 296.90L155.41 296.90L155.41 296.75Q155.41 296 154.94 295.56Q154.48 295.12 153.63 295.12L153.63 295.12L150.98 295.12Z M172.04 304.80L172.04 304.80Q170.86 304.80 169.92 304.28Q168.98 303.76 168.43 302.76Q167.88 301.76 167.88 300.30L167.88 300.30L167.88 297.65Q167.88 295.47 169.10 294.31Q170.31 293.15 172.36 293.15L172.36 293.15Q174.41 293.15 175.51 294.25Q176.62 295.34 176.62 297.20L176.62 297.20L176.62 297.26L174.73 297.26L174.73 297.14Q174.73 296.50 174.47 295.98Q174.22 295.47 173.69 295.18Q173.16 294.88 172.36 294.88L172.36 294.88Q171.18 294.88 170.50 295.61Q169.82 296.34 169.82 297.62L169.82 297.62L169.82 300.34Q169.82 301.60 170.50 302.35Q171.18 303.10 172.39 303.10L172.39 303.10Q173.61 303.10 174.17 302.45Q174.73 301.79 174.73 300.77L174.73 300.77L174.73 300.58L171.90 300.58L171.90 298.94L176.62 298.94L176.62 304.58L174.86 304.58L174.86 303.47L174.58 303.47Q174.46 303.76 174.18 304.07Q173.91 304.38 173.41 304.59Q172.90 304.80 172.04 304.80Z M194.94 304.58L187.73 304.58L187.73 293.38L194.86 293.38L194.86 295.12L189.66 295.12L189.66 298.06L194.42 298.06L194.42 299.81L189.66 299.81L189.66 302.83L194.94 302.83L194.94 304.58Z M207.56 304.58L205.62 304.58L205.62 293.38L210.41 293.38Q211.46 293.38 212.25 293.74Q213.03 294.11 213.47 294.78Q213.91 295.44 213.91 296.37L213.91 296.37L213.91 296.54Q213.91 297.58 213.42 298.21Q212.92 298.83 212.22 299.12L212.22 299.12L212.22 299.38Q212.84 299.41 213.20 299.81Q213.56 300.21 213.56 300.88L213.56 300.88L213.56 304.58L211.64 304.58L211.64 301.15Q211.64 300.75 211.42 300.50Q211.21 300.26 210.73 300.26L210.73 300.26L207.56 300.26L207.56 304.58ZM207.56 295.12L207.56 298.51L210.22 298.51Q211.05 298.51 211.52 298.07Q211.99 297.63 211.99 296.90L211.99 296.90L211.99 296.75Q211.99 296 211.53 295.56Q211.06 295.12 210.22 295.12L210.22 295.12L207.56 295.12Z" fill="#c2683f"></path><path d="M97.20 322.72L97.20 322.72Q95.92 322.72 94.94 322.26Q93.95 321.81 93.39 320.94Q92.83 320.08 92.83 318.83L92.83 318.83L92.83 318.42L94.74 318.42L94.74 318.83Q94.74 319.94 95.41 320.48Q96.08 321.02 97.20 321.02L97.20 321.02Q98.34 321.02 98.91 320.56Q99.49 320.10 99.49 319.36L99.49 319.36Q99.49 318.86 99.22 318.55Q98.94 318.24 98.42 318.05Q97.90 317.86 97.17 317.68L97.17 317.68L96.69 317.58Q95.58 317.33 94.78 316.94Q93.97 316.54 93.54 315.92Q93.10 315.30 93.10 314.29L93.10 314.29Q93.10 313.28 93.58 312.56Q94.06 311.84 94.94 311.46Q95.82 311.07 97.01 311.07L97.01 311.07Q98.19 311.07 99.12 311.47Q100.05 311.87 100.58 312.67Q101.12 313.47 101.12 314.67L101.12 314.67L101.12 315.20L99.22 315.20L99.22 314.67Q99.22 313.98 98.94 313.57Q98.67 313.15 98.18 312.96Q97.68 312.77 97.01 312.77L97.01 312.77Q96.02 312.77 95.50 313.15Q94.99 313.54 94.99 314.24L94.99 314.24Q94.99 314.69 95.22 315Q95.46 315.31 95.91 315.51Q96.37 315.71 97.06 315.86L97.06 315.86L97.54 315.97Q98.69 316.22 99.55 316.62Q100.42 317.01 100.90 317.65Q101.39 318.29 101.39 319.31L101.39 319.31Q101.39 320.32 100.87 321.09Q100.35 321.86 99.42 322.29Q98.48 322.72 97.20 322.72Z M119.29 322.50L112.07 322.50L112.07 311.30L119.21 311.30L119.21 313.04L114.01 313.04L114.01 315.98L118.76 315.98L118.76 317.73L114.01 317.73L114.01 320.75L119.29 320.75L119.29 322.50Z M137.18 322.50L129.97 322.50L129.97 311.30L137.10 311.30L137.10 313.04L131.90 313.04L131.90 315.98L136.66 315.98L136.66 317.73L131.90 317.73L131.90 320.75L137.18 320.75L137.18 322.50Z" fill="#c2683f"></path><circle cx="144.8" cy="33.0" r="10" fill="#fff"></circle><circle cx="144.8" cy="33.0" r="10" fill="none" stroke="#c2683f" stroke-width="2.4"></circle><circle cx="144.8" cy="33.0" r="4" fill="#c2683f"></circle></svg>