<svg xmlns="http://www.w3.org/2000/svg" width="707" height="1536" viewBox="0 0 117.952 256"><path d="M25.2,-72.2 L22.6,-75 L20.5,-75 L14.9,-72.5 L6.9,-51.7 L5,-48.1 L2.9,-46.5 L1,-41.4 L-0.9,-40 L-4.5,-32.7 L-4,-29.4 L-7.3,-27.5 L-7,-25.3 L-8.8,-21.6 L-11.1,-11.2 L-14.8,-7 L-14.8,-3.5 L-17.7,-2.1 L-17.1,-0.7 L-17.6,1 L-20.3,3 L-20.4,4.7 L-22.3,6.7 L-22.8,8.6 L-22,10.8 L-24.2,12.6 L-25.2,16 L-24.7,18.8 L-22,21.4 L-20.1,21 L-17.8,18.6 L-16.3,19 L-16.8,22.5 L-14.6,25.9 L-14.1,31.2 L-9.1,36.6 L-7.3,41.9 L-7.8,45.3 L-11.2,47.9 L-11.9,51.8 L-12.7,52.3 L-13,61.3 L-14,63.5 L-12.8,67 L-0.2,75 L6.5,74 L8,74.9 L10.3,73.9 L10.6,72.7 L11.5,73.2 L13,69.8 L11.7,66.1 L12.5,65.6 L12,63.7 L13.4,62 L13.6,59.1 L11,34.9 L9.7,32.1 L10.5,27.3 L10.2,17.4 L11.2,11.5 L10.7,0.7 L9.1,-9.1 L10,-17.5 L15.3,-32.9 L15.9,-38 L20,-52.1 L25.1,-59.7 L24.5,-68.4 Z M-9.2,-8 L-9.73,-6.16 L-11,-5.4 L-12.27,-6.16 L-12.8,-8 L-12.27,-9.84 L-11,-10.6 L-9.73,-9.84 Z M-9.20,-4.00 a2.2,2.2 0 1 0 4.40,0 a2.2,2.2 0 1 0 -4.40,0 Z" fill="none" stroke="#a9842b" stroke-width="1.94" stroke-linejoin="round" stroke-linecap="round" transform="translate(58.976 128) rotate(-6) scale(1.54667) translate(-1.03 0.00)"></path></svg>