<svg xmlns="http://www.w3.org/2000/svg" width="220" height="300" viewBox="0 0 220 300"><g transform="translate(110,150) scale(1.68)"><path d="M26.6,15.6 L23.3,9.6 L24.9,5.6 L23.4,3 L19.7,2.1 L14.4,7 L13.1,5.4 L11.2,5.8 L9.4,2 L6.3,1.2 L1.8,-9.1 L-2.9,-41.5 L3.9,-62.7 L2.4,-72.7 L0.6,-75 L-4.9,-74.9 L-12.4,-67.5 L-16.6,-67.1 L-22,-57.2 L-21.6,-53 L-24.3,-47.3 L-23.7,-41.3 L-25.6,-36.4 L-24.6,-30.6 L-25.8,-26.6 L-23.8,-21.8 L-26.6,-12.8 L-26,-9.3 L-22.8,-5.3 L-25.1,0.3 L-23.1,20.5 L-24.3,26.8 L-20.4,36.9 L-20.7,40.6 L-16.7,48.4 L-18.3,54.5 L-17.2,59.2 L-12,60.7 L-10.4,65.3 L-7.5,69.5 L-3,73.5 L2,75 L7,73 L10.5,69.5 L12.3,66.1 L11.7,33.9 L16.2,25.7 L26.6,16.1 Z" fill="none" stroke="#aac072" stroke-width="2.381" stroke-linejoin="round" stroke-linecap="round"></path></g></svg>