<svg xmlns="http://www.w3.org/2000/svg" width="1800" height="1200" viewBox="0 0 300 200"><g transform="translate(64 100) scale(0.85333) translate(5.71 0.00)"><path d="M26.6,15.6 L23.3,9.6 L24.9,5.6 L23.4,3 L19.7,2.1 L14.4,7 L13.1,5.4 L11.2,5.8 L9.4,2 L6.3,1.2 L1.8,-9.1 L-2.9,-41.5 L3.9,-62.7 L2.4,-72.7 L0.6,-75 L-4.9,-74.9 L-12.4,-67.5 L-16.6,-67.1 L-22,-57.2 L-21.6,-53 L-24.3,-47.3 L-23.7,-41.3 L-25.6,-36.4 L-24.6,-30.6 L-25.8,-26.6 L-23.8,-21.8 L-26.6,-12.8 L-26,-9.3 L-22.8,-5.3 L-25.1,0.3 L-23.1,20.5 L-24.3,26.8 L-20.4,36.9 L-20.7,40.6 L-16.7,48.4 L-18.3,54.5 L-17.2,59.2 L-12,60.7 L-10.4,65.3 L-7.5,69.5 L-3,73.5 L2,75 L7,73 L10.5,69.5 L12.3,66.1 L11.7,33.9 L16.2,25.7 L26.6,16.1 Z" fill="none" stroke="#2f7d8a" stroke-width="3.05" stroke-linejoin="round" stroke-linecap="round"></path></g><g transform="translate(109.66337001785695 1.0440652063168727) scale(0.7386653082017319)"><path d="M22.88 133.59 L22.88 133.59 Q21.33 133.16 20.38 132.82 L20.38 132.82 L19.44 132.56 Q19.61 132.13 19.31 131.78 Q19.01 131.44 18.06 131.35 L18.06 131.35 Q16.77 130.49 15.39 128.95 Q14.02 127.40 12.99 125.76 Q11.95 124.13 11.61 123.36 L11.61 123.36 Q11.18 122.32 11.44 121.98 L11.44 121.98 Q11.52 121.81 11.70 121.72 L11.70 121.72 Q12.38 121.46 13.33 121.03 L13.33 121.03 Q14.28 120.35 15.35 120.00 Q16.43 119.66 17.11 121.12 L17.11 121.12 Q18.23 123.10 20.60 124.47 Q22.96 125.85 26.02 126.11 Q29.07 126.37 32.16 125.08 L32.16 125.08 Q34.23 124.13 34.40 122.45 Q34.57 120.78 33.11 118.54 L33.11 118.54 Q32.85 117.85 32.38 117.42 Q31.91 116.99 31.00 116.30 Q30.10 115.62 28.47 114.07 L28.47 114.07 Q27.18 113.47 26.10 112.95 Q25.03 112.43 23.82 111.83 L23.82 111.83 Q22.45 111.14 20.73 109.90 Q19.01 108.65 17.54 107.14 Q16.08 105.64 15.31 104.26 L15.31 104.26 Q13.93 102.97 13.59 100.69 Q13.24 98.42 13.72 95.84 Q14.19 93.26 15.31 91.19 L15.31 91.19 Q15.82 89.99 17.20 88.05 Q18.58 86.12 20.30 84.05 Q22.02 81.99 23.61 80.31 Q25.20 78.64 26.14 78.03 L26.14 78.03 Q26.83 77.35 27.61 76.57 L27.61 76.57 L28.38 75.88 Q28.47 75.45 28.72 75.45 L28.72 75.45 L28.90 75.45 Q29.33 75.20 30.79 74.59 Q32.25 73.99 33.97 72.36 L33.97 72.36 Q39.73 69.61 43.77 68.62 Q47.82 67.63 50.14 67.63 L50.14 67.63 Q52.29 67.71 54.35 68.79 Q56.42 69.86 57.92 71.50 Q59.43 73.13 59.68 75.20 L59.68 75.20 Q60.29 77.26 59.13 80.14 Q57.96 83.02 55.94 85.56 Q53.92 88.10 51.77 89.30 L51.77 89.30 Q49.36 90.33 47.69 89.56 Q46.01 88.78 46.10 87.15 L46.10 87.15 Q46.10 86.46 46.57 85.52 Q47.04 84.57 49.19 82.16 L49.19 82.16 Q51.94 78.12 52.12 76.40 Q52.29 74.68 50.57 74.42 L50.57 74.42 Q50.05 74.25 48.59 74.51 Q47.13 74.77 45.45 75.15 Q43.77 75.54 42.53 75.97 Q41.28 76.40 41.28 76.57 L41.28 76.57 L41.28 76.83 Q41.28 76.92 41.19 77.00 L41.19 77.00 Q41.19 77.09 40.94 77.00 L40.94 77.00 Q40.76 77.00 39.78 77.56 Q38.79 78.12 37.41 78.98 Q36.03 79.84 34.70 80.74 Q33.37 81.65 32.42 82.33 Q31.48 83.02 31.39 83.19 L31.39 83.19 Q31.22 84.14 29.41 84.91 L29.41 84.91 Q27.69 85.95 26.40 87.84 Q25.11 89.73 23.39 92.65 L23.39 92.65 Q21.93 94.63 21.33 96.91 Q20.73 99.19 21.33 100.57 L21.33 100.57 Q21.76 101.94 23.69 103.28 Q25.63 104.61 28.98 106.59 L28.98 106.59 Q31.91 108.22 34.49 110.03 Q37.07 111.83 38.87 113.51 Q40.68 115.19 41.19 116.30 L41.19 116.30 Q42.23 117.77 42.44 119.66 Q42.66 121.55 42.44 123.31 Q42.23 125.08 41.88 126.19 L41.88 126.19 Q41.28 127.57 40.03 129.12 Q38.79 130.67 37.75 130.58 L37.75 130.58 Q36.81 130.84 36.34 131.18 Q35.86 131.53 35.26 131.78 L35.26 131.78 Q34.66 132.13 32.42 132.60 Q30.19 133.07 27.52 133.38 Q24.85 133.68 22.88 133.59 Z M67.77 126.28 L67.77 126.28 Q65.19 127.74 62.31 127.96 Q59.43 128.17 56.93 127.18 Q54.44 126.19 52.89 124.22 L52.89 124.22 Q52.03 123.10 51.26 120.65 Q50.48 118.20 51.00 113.98 L51.00 113.98 Q51.51 110.03 53.45 105.98 Q55.38 101.94 58.22 98.85 Q61.06 95.75 64.41 94.63 L64.41 94.63 Q65.62 94.20 66.86 93.99 Q68.11 93.77 70.18 93.94 L70.18 93.94 Q72.15 94.20 73.70 94.93 Q75.25 95.66 75.94 96.52 L75.94 96.52 Q77.31 97.90 77.74 99.19 Q78.17 100.48 78.09 101.68 L78.09 101.68 Q77.66 104.44 75.64 107.62 Q73.62 110.80 70.00 112.35 L70.00 112.35 Q68.54 112.95 66.56 113.12 Q64.59 113.29 61.15 112.61 L61.15 112.61 Q59.08 112.18 58.44 113.04 Q57.79 113.90 57.88 116.39 L57.88 116.39 Q58.05 117.94 58.61 119.10 Q59.17 120.26 60.72 120.69 L60.72 120.69 Q62.69 121.03 63.55 120.73 Q64.41 120.43 65.70 119.83 L65.70 119.83 Q66.39 119.40 67.08 118.88 L67.08 118.88 L68.37 117.85 Q68.97 117.34 69.40 117.08 L69.40 117.08 Q69.83 116.73 70.26 116.65 Q70.69 116.56 71.12 116.56 L71.12 116.56 Q72.07 116.65 72.93 117.59 Q73.79 118.54 74.05 119.40 L74.05 119.40 Q74.05 120.09 73.19 121.33 Q72.33 122.58 70.91 123.92 Q69.49 125.25 67.77 126.28 Z M66.65 107.10 L66.65 107.10 Q67.25 106.84 68.41 105.90 Q69.57 104.95 70.52 103.88 Q71.47 102.80 71.47 102.20 L71.47 102.20 Q71.47 101.25 70.22 100.57 Q68.97 99.88 66.99 100.31 L66.99 100.31 Q66.31 100.48 65.36 101.25 Q64.41 102.03 63.47 103.02 Q62.52 104.01 61.83 104.91 Q61.15 105.81 60.89 106.33 L60.89 106.33 Q61.23 106.76 62.26 107.02 Q63.30 107.27 64.54 107.27 Q65.79 107.27 66.65 107.10 Z M96.49 126.28 L96.49 126.28 Q93.91 127.74 91.03 127.96 Q88.15 128.17 85.66 127.18 Q83.16 126.19 81.61 124.22 L81.61 124.22 Q80.75 123.10 79.98 120.65 Q79.21 118.20 79.72 113.98 L79.72 113.98 Q80.24 110.03 82.17 105.98 Q84.11 101.94 86.95 98.85 Q89.78 95.75 93.14 94.63 L93.14 94.63 Q94.34 94.20 95.59 93.99 Q96.84 93.77 98.90 93.94 L98.90 93.94 Q100.88 94.20 102.43 94.93 Q103.97 95.66 104.66 96.52 L104.66 96.52 Q106.04 97.90 106.47 99.19 Q106.90 100.48 106.81 101.68 L106.81 101.68 Q106.38 104.44 104.36 107.62 Q102.34 110.80 98.73 112.35 L98.73 112.35 Q97.27 112.95 95.29 113.12 Q93.31 113.29 89.87 112.61 L89.87 112.61 Q87.81 112.18 87.16 113.04 Q86.52 113.90 86.60 116.39 L86.60 116.39 Q86.77 117.94 87.33 119.10 Q87.89 120.26 89.44 120.69 L89.44 120.69 Q91.42 121.03 92.28 120.73 Q93.14 120.43 94.43 119.83 L94.43 119.83 Q95.12 119.40 95.80 118.88 L95.80 118.88 L97.09 117.85 Q97.70 117.34 98.13 117.08 L98.13 117.08 Q98.56 116.73 98.99 116.65 Q99.42 116.56 99.85 116.56 L99.85 116.56 Q100.79 116.65 101.65 117.59 Q102.51 118.54 102.77 119.40 L102.77 119.40 Q102.77 120.09 101.91 121.33 Q101.05 122.58 99.63 123.92 Q98.21 125.25 96.49 126.28 Z M95.37 107.10 L95.37 107.10 Q95.98 106.84 97.14 105.90 Q98.30 104.95 99.24 103.88 Q100.19 102.80 100.19 102.20 L100.19 102.20 Q100.19 101.25 98.94 100.57 Q97.70 99.88 95.72 100.31 L95.72 100.31 Q95.03 100.48 94.08 101.25 Q93.14 102.03 92.19 103.02 Q91.25 104.01 90.56 104.91 Q89.87 105.81 89.61 106.33 L89.61 106.33 Q89.96 106.76 90.99 107.02 Q92.02 107.27 93.27 107.27 Q94.51 107.27 95.37 107.10 Z M118.42 145.20 L118.42 145.20 Q116.01 146.15 113.39 144.90 Q110.77 143.65 108.88 140.99 L108.88 140.99 Q108.53 140.47 107.84 139.14 Q107.16 137.80 106.51 136.26 Q105.87 134.71 105.56 133.59 Q105.26 132.47 105.52 132.30 L105.52 132.30 Q105.87 131.35 107.07 131.18 Q108.27 131.01 109.48 131.31 Q110.68 131.61 110.85 132.13 L110.85 132.13 Q111.11 132.73 111.37 133.38 Q111.63 134.02 112.01 134.58 Q112.40 135.14 112.75 135.57 L112.75 135.57 Q113.69 137.03 114.81 137.59 Q115.93 138.15 116.53 137.72 L116.53 137.72 Q117.99 136.60 118.72 135.09 Q119.45 133.59 120.66 129.81 L120.66 129.81 Q121.60 126.62 122.29 124.30 Q122.98 121.98 123.75 120.00 L123.75 120.00 Q124.01 118.97 124.44 118.20 L124.44 118.20 Q124.53 118.02 124.61 117.85 L124.61 117.85 Q123.41 118.71 122.46 119.57 L122.46 119.57 Q121.17 120.78 118.94 121.72 L118.94 121.72 Q118.42 122.32 116.40 122.45 Q114.38 122.58 112.49 121.98 L112.49 121.98 Q111.28 121.29 110.55 120.56 Q109.82 119.83 109.35 118.88 Q108.88 117.94 108.36 116.65 L108.36 116.65 Q107.76 115.36 108.19 112.43 Q108.62 109.51 109.74 106.59 L109.74 106.59 Q110.77 104.44 112.75 101.94 Q114.72 99.45 116.96 97.43 Q119.20 95.41 121.00 94.89 L121.00 94.89 Q121.69 94.55 123.41 94.07 Q125.13 93.60 126.68 94.03 L126.68 94.03 Q128.14 94.20 128.91 94.67 Q129.69 95.15 131.41 96.61 L131.41 96.61 Q132.53 97.73 134.16 99.49 Q135.79 101.25 136.22 102.46 L136.22 102.46 Q136.83 103.75 136.48 105.25 Q136.14 106.76 135.28 107.88 L135.28 107.88 Q134.50 108.99 133.64 110.11 Q132.78 111.23 132.35 113.21 L132.35 113.21 Q131.92 115.79 130.72 119.01 Q129.52 122.24 128.83 124.99 L128.83 124.99 L127.45 130.32 Q125.30 137.63 122.72 140.94 Q120.14 144.25 118.42 145.20 Z M116.62 115.62 L116.62 115.62 Q118.34 115.53 119.58 115.23 Q120.83 114.93 121.95 113.85 Q123.07 112.78 124.53 110.54 L124.53 110.54 Q125.99 108.48 126.59 106.76 Q127.19 105.04 127.02 102.89 L127.02 102.89 Q126.94 101.51 126.25 101.08 Q125.56 100.65 124.44 100.82 L124.44 100.82 Q122.81 101.08 121.52 102.16 Q120.23 103.23 118.51 105.47 L118.51 105.47 Q117.22 107.19 116.36 109.60 L116.36 109.60 Q115.50 112.18 115.63 113.72 Q115.76 115.27 116.62 115.62 Z M143.88 138.41 L143.88 138.41 Q143.36 138.75 141.56 137.59 Q139.75 136.43 138.55 135.05 L138.55 135.05 Q137.94 134.36 137.77 133.59 Q137.60 132.82 137.86 130.67 L137.86 130.67 Q138.20 129.72 138.24 128.86 Q138.29 128.00 138.29 127.66 L138.29 127.66 Q138.29 127.14 138.59 125.25 Q138.89 123.36 139.23 121.25 Q139.58 119.14 139.84 118.02 L139.84 118.02 Q139.84 117.94 139.96 117.42 Q140.09 116.91 140.18 116.65 L140.18 116.65 Q140.35 115.87 140.61 114.76 Q140.87 113.64 141.13 111.75 L141.13 111.75 Q141.81 109.60 142.29 107.49 Q142.76 105.38 142.76 104.61 L142.76 104.61 Q142.76 103.06 143.96 102.37 L143.96 102.37 Q144.05 101.94 144.48 101.04 Q144.91 100.14 145.25 99.53 L145.25 99.53 Q146.97 94.63 148.09 91.71 Q149.21 88.78 150.41 86.63 L150.41 86.63 Q150.93 85.17 151.57 83.62 Q152.22 82.08 152.91 81.22 L152.91 81.22 Q153.51 80.01 155.01 78.25 Q156.52 76.49 158.24 74.85 Q159.96 73.22 160.99 72.44 L160.99 72.44 Q162.88 71.50 164.52 70.90 Q166.15 70.29 167.96 70.29 L167.96 70.29 Q169.59 70.29 170.84 71.03 Q172.09 71.76 174.58 73.99 L174.58 73.99 Q175.44 75.11 175.44 76.14 Q175.44 77.17 175.01 77.86 L175.01 77.86 Q174.41 79.24 173.20 81.26 Q172.00 83.28 170.88 84.87 Q169.76 86.46 169.25 86.55 L169.25 86.55 Q168.22 87.15 167.10 86.89 Q165.98 86.63 165.98 85.34 L165.98 85.34 Q165.98 84.74 166.07 84.23 L166.07 84.23 L166.07 83.71 Q166.32 82.59 166.71 81.73 Q167.10 80.87 167.44 80.27 L167.44 80.27 Q168.13 79.15 167.83 78.12 Q167.53 77.09 165.64 77.26 L165.64 77.26 Q165.38 77.43 164.65 78.08 Q163.92 78.72 163.10 79.54 Q162.28 80.36 161.68 81.09 Q161.08 81.82 161.08 82.08 L161.08 82.08 L160.65 82.94 Q160.13 83.88 159.19 85.00 L159.19 85.00 Q158.58 85.86 158.15 86.63 Q157.72 87.41 157.72 87.84 L157.72 87.84 Q157.72 88.18 157.64 88.44 Q157.55 88.70 157.21 88.70 L157.21 88.70 L156.95 89.56 Q156.61 90.42 155.92 91.62 L155.92 91.62 Q155.57 92.48 155.19 93.21 Q154.80 93.94 154.46 94.29 L154.46 94.29 L154.37 94.46 L154.03 95.41 Q153.60 96.44 153.17 97.47 Q152.74 98.50 152.74 98.67 L152.74 98.67 Q152.74 99.02 153.77 99.02 Q154.80 99.02 156.26 98.72 Q157.72 98.42 159.10 98.07 L159.10 98.07 Q160.30 97.73 160.82 97.73 Q161.34 97.73 162.45 98.07 L162.45 98.07 Q163.14 98.50 163.57 99.58 Q164.00 100.65 164.22 101.73 Q164.43 102.80 164.26 103.32 L164.26 103.32 Q164.17 103.66 162.32 104.26 Q160.48 104.87 158.67 105.21 L158.67 105.21 Q157.12 105.55 155.19 105.94 Q153.25 106.33 151.79 106.72 Q150.33 107.10 150.24 107.45 L150.24 107.45 Q149.90 107.45 149.68 107.88 Q149.47 108.31 149.47 108.65 L149.47 108.65 Q149.47 109.77 149.04 110.46 L149.04 110.46 Q148.87 110.97 148.48 112.56 Q148.09 114.15 147.70 116.00 Q147.32 117.85 147.02 119.44 Q146.72 121.03 146.72 121.55 L146.72 121.55 Q146.20 122.15 146.11 123.06 Q146.03 123.96 146.03 124.65 L146.03 124.65 Q145.68 125.33 145.60 125.89 Q145.51 126.45 145.51 126.80 L145.51 126.80 L145.51 127.14 Q145.51 127.40 145.43 127.66 L145.43 127.66 Q145.34 128.52 145.21 129.94 Q145.08 131.35 145.08 132.73 L145.08 132.73 L144.82 135.22 Q144.74 136.34 144.52 137.16 Q144.31 137.98 143.88 138.41 Z M186.02 127.83 L186.02 127.83 Q185.16 126.97 184.64 125.46 Q184.13 123.96 183.61 121.98 L183.61 121.98 Q183.44 121.29 183.48 120.43 Q183.52 119.57 183.44 119.06 L183.44 119.06 Q183.18 119.66 182.62 120.60 Q182.06 121.55 181.55 121.98 L181.55 121.98 Q181.20 122.32 180.00 123.31 Q178.79 124.30 177.59 124.90 L177.59 124.90 Q174.75 126.71 172.56 126.58 Q170.37 126.45 168.73 124.39 L168.73 124.39 Q167.36 123.27 166.50 121.55 Q165.64 119.83 166.15 117.42 L166.15 117.42 Q166.32 114.41 167.01 111.53 Q167.70 108.65 169.85 103.83 L169.85 103.83 Q171.66 100.31 172.60 98.33 Q173.55 96.35 173.81 96.01 L173.81 96.01 Q175.10 95.58 176.99 96.05 Q178.88 96.52 179.05 97.73 L179.05 97.73 Q179.57 98.59 179.05 100.95 Q178.54 103.32 176.99 106.33 L176.99 106.33 Q175.78 109.25 174.71 112.00 Q173.63 114.76 173.42 116.65 Q173.20 118.54 174.41 118.97 L174.41 118.97 Q175.18 119.40 176.69 118.88 Q178.19 118.37 180.26 115.79 Q182.32 113.21 184.64 107.62 L184.64 107.62 Q185.33 105.90 185.67 104.56 Q186.02 103.23 186.10 101.60 L186.10 101.60 Q185.93 100.57 186.66 99.45 Q187.39 98.33 188.43 97.73 L188.43 97.73 Q188.77 97.30 189.37 96.87 L189.37 96.87 Q189.80 96.61 189.97 96.78 L189.97 96.78 Q190.06 96.78 190.15 96.95 L190.15 96.95 L191.52 96.87 Q191.87 96.78 192.30 97.56 Q192.73 98.33 193.16 98.67 L193.16 98.67 Q194.10 99.45 194.02 102.03 Q193.93 104.61 191.95 109.25 L191.95 109.25 Q190.32 112.78 189.76 114.58 Q189.20 116.39 189.11 118.11 L189.11 118.11 Q189.11 119.66 189.37 120.73 Q189.63 121.81 190.92 122.93 L190.92 122.93 Q191.87 123.53 191.99 124.95 Q192.12 126.37 192.04 127.40 L192.04 127.40 Q191.87 128.17 190.70 128.47 Q189.54 128.77 188.21 128.60 Q186.88 128.43 186.02 127.83 Z M197.80 126.54 L197.80 126.54 Q197.11 125.85 196.81 124.47 Q196.51 123.10 196.60 121.77 Q196.68 120.43 197.03 119.74 L197.03 119.74 Q197.03 119.06 197.24 118.67 Q197.46 118.28 197.37 117.94 L197.37 117.94 Q197.28 117.59 197.54 116.73 Q197.80 115.87 198.06 115.10 L198.06 115.10 Q198.66 113.72 199.43 111.53 Q200.21 109.34 200.98 107.06 Q201.76 104.78 202.27 103.10 Q202.79 101.43 202.87 101.08 L202.87 101.08 Q202.87 100.05 204.25 99.96 L204.25 99.96 Q205.28 99.62 206.74 100.82 Q208.21 102.03 209.07 103.40 L209.07 103.40 Q209.75 104.09 209.58 105.21 Q209.41 106.33 208.46 108.39 L208.46 108.39 Q208.12 109.08 207.65 110.67 Q207.17 112.26 207.00 113.29 L207.00 113.29 Q206.66 113.98 206.18 115.23 Q205.71 116.48 205.37 117.59 L205.37 117.59 Q205.20 118.02 205.02 119.19 Q204.85 120.35 204.59 121.55 Q204.34 122.75 203.91 123.44 L203.91 123.44 Q203.13 126.97 201.20 127.57 Q199.26 128.17 197.80 126.54 Z " fill="#1d1c19"></path><g transform="translate(210.40,95.23) rotate(12) scale(0.940)"><path d="M0,3 C0,-3 -9,-6 -9,-13 C-9,-19 -2,-20 0,-14 C2,-20 9,-19 9,-13 C9,-6 0,-3 0,3 Z" fill="#d23b34"></path></g></g><g stroke="#2f7d8a" stroke-width="1.2" stroke-linejoin="round" stroke-linecap="round" paint-order="stroke"><path d="M146.98 133.54L144.80 133.54L147.75 122.34L151.43 122.34L154.37 133.54L152.20 133.54L151.59 131.07L147.59 131.07L146.98 133.54ZM149.44 123.66L148.08 129.12L151.09 129.12L149.73 123.66L149.44 123.66Z M160.36 133.54L158.32 133.54L158.32 122.34L162.24 122.34L164.17 132.10L164.46 132.10L166.40 122.34L170.32 122.34L170.32 133.54L168.27 133.54L168.27 123.89L167.98 123.89L166.06 133.54L162.57 133.54L160.65 123.89L160.36 123.89L160.36 133.54Z M177.08 133.54L175.03 133.54L175.03 122.34L178.95 122.34L180.88 132.10L181.17 132.10L183.11 122.34L187.03 122.34L187.03 133.54L184.98 133.54L184.98 123.89L184.69 123.89L182.77 133.54L179.28 133.54L177.36 123.89L177.08 123.89L177.08 133.54Z M199.04 133.54L191.74 133.54L191.74 122.34L198.94 122.34L198.94 124.26L193.85 124.26L193.85 126.93L198.49 126.93L198.49 128.85L193.85 128.85L193.85 131.62L199.04 131.62L199.04 133.54Z M205.32 133.54L203.20 133.54L203.20 122.34L208.07 122.34Q209.12 122.34 209.91 122.70Q210.69 123.07 211.12 123.74Q211.56 124.42 211.56 125.33L211.56 125.33L211.56 125.52Q211.56 126.53 211.08 127.15Q210.60 127.78 209.89 128.06L209.89 128.06L209.89 128.35Q210.53 128.38 210.88 128.79Q211.24 129.20 211.24 129.87L211.24 129.87L211.24 133.54L209.12 133.54L209.12 130.18Q209.12 129.79 208.92 129.55Q208.72 129.31 208.26 129.31L208.26 129.31L205.32 129.31L205.32 133.54ZM205.32 124.26L205.32 127.39L207.84 127.39Q208.60 127.39 209.02 126.98Q209.44 126.58 209.44 125.90L209.44 125.90L209.44 125.74Q209.44 125.07 209.03 124.66Q208.61 124.26 207.84 124.26L207.84 124.26L205.32 124.26Z M219.80 133.76L219.80 133.76Q218.51 133.76 217.52 133.30Q216.52 132.83 215.96 131.97Q215.40 131.10 215.40 129.89L215.40 129.89L215.40 129.44L217.48 129.44L217.48 129.89Q217.48 130.90 218.11 131.40Q218.73 131.90 219.80 131.90L219.80 131.90Q220.89 131.90 221.43 131.47Q221.96 131.04 221.96 130.37L221.96 130.37Q221.96 129.90 221.70 129.62Q221.44 129.33 220.93 129.14Q220.43 128.96 219.71 128.80L219.71 128.80L219.34 128.72Q218.19 128.46 217.36 128.07Q216.54 127.68 216.10 127.04Q215.66 126.40 215.66 125.38L215.66 125.38Q215.66 124.35 216.15 123.62Q216.64 122.90 217.52 122.50Q218.41 122.11 219.61 122.11L219.61 122.11Q220.81 122.11 221.75 122.52Q222.68 122.93 223.22 123.74Q223.76 124.54 223.76 125.76L223.76 125.76L223.76 126.24L221.68 126.24L221.68 125.76Q221.68 125.12 221.43 124.73Q221.18 124.34 220.72 124.15Q220.25 123.97 219.61 123.97L219.61 123.97Q218.65 123.97 218.20 124.33Q217.74 124.69 217.74 125.31L217.74 125.31Q217.74 125.73 217.96 126.02Q218.17 126.30 218.60 126.50Q219.04 126.69 219.71 126.83L219.71 126.83L220.08 126.91Q221.28 127.17 222.16 127.57Q223.05 127.97 223.55 128.62Q224.04 129.28 224.04 130.30L224.04 130.30Q224.04 131.33 223.52 132.10Q223.00 132.88 222.05 133.32Q221.10 133.76 219.80 133.76Z M235.51 133.54L228.21 133.54L228.21 122.34L235.41 122.34L235.41 124.26L230.32 124.26L230.32 126.93L234.96 126.93L234.96 128.85L230.32 128.85L230.32 131.62L235.51 131.62L235.51 133.54Z M246.97 133.54L239.68 133.54L239.68 122.34L246.88 122.34L246.88 124.26L241.79 124.26L241.79 126.93L246.43 126.93L246.43 128.85L241.79 128.85L241.79 131.62L246.97 131.62L246.97 133.54Z" fill="#2f7d8a"></path></g><path d="M151.12 153.29L150.02 153.29L150.02 151.94L146.69 151.94L146.69 150.66L149.11 146.64L151.12 146.64L151.12 150.95L152.23 150.95L152.23 151.94L151.12 151.94L151.12 153.29ZM147.76 150.81L147.76 150.95L150.02 150.95L150.02 147.34L149.86 147.34L147.76 150.81Z M156.05 153.29L154.94 153.29L154.94 153.04Q154.94 152.68 155.00 152.43Q155.05 152.18 155.24 151.84L155.24 151.84L157.54 147.77L157.54 147.63L153.91 147.63L153.91 146.64L158.69 146.64L158.69 147.95L156.26 152.29Q156.14 152.51 156.09 152.67Q156.05 152.84 156.05 153.09L156.05 153.09L156.05 153.29Z M161.50 153.42L161.50 153.42Q161.14 153.42 160.90 153.18Q160.65 152.94 160.65 152.57L160.65 152.57Q160.65 152.21 160.90 151.98Q161.14 151.74 161.50 151.74L161.50 151.74Q161.86 151.74 162.10 151.98Q162.33 152.21 162.33 152.58L162.33 152.58Q162.33 152.95 162.10 153.19Q161.86 153.42 161.50 153.42Z M166.91 153.42L166.91 153.42Q166.17 153.42 165.63 153.17Q165.09 152.92 164.80 152.46Q164.50 152.00 164.50 151.37L164.50 151.37L165.62 151.37Q165.62 151.81 165.93 152.12Q166.24 152.43 166.91 152.43L166.91 152.43Q167.58 152.43 167.95 152.08Q168.31 151.72 168.31 151.09L168.31 151.09L168.31 150.35L168.15 150.35Q167.98 150.57 167.64 150.76Q167.30 150.94 166.63 150.94L166.63 150.94Q166.05 150.94 165.56 150.69Q165.06 150.45 164.77 149.97Q164.47 149.50 164.47 148.83L164.47 148.83L164.47 148.72Q164.47 148.04 164.78 147.55Q165.09 147.06 165.65 146.78Q166.21 146.50 166.95 146.50L166.95 146.50Q167.70 146.50 168.25 146.78Q168.81 147.06 169.11 147.57Q169.42 148.07 169.42 148.74L169.42 148.74L169.42 151.03Q169.42 151.81 169.10 152.35Q168.78 152.88 168.21 153.15Q167.65 153.42 166.91 153.42ZM166.94 150.06L166.94 150.06Q167.36 150.06 167.67 149.90Q167.97 149.74 168.14 149.46Q168.31 149.18 168.31 148.80L168.31 148.80L168.31 148.73Q168.31 148.16 167.94 147.82Q167.57 147.49 166.94 147.49L166.94 147.49Q166.31 147.49 165.94 147.82Q165.57 148.16 165.57 148.73L165.57 148.73L165.57 148.80Q165.57 149.18 165.74 149.46Q165.91 149.74 166.22 149.90Q166.53 150.06 166.94 150.06Z M174.00 153.42L174.00 153.42Q173.23 153.42 172.65 153.19Q172.07 152.96 171.75 152.53Q171.43 152.10 171.43 151.52L171.43 151.52L171.43 151.41Q171.43 150.94 171.60 150.64Q171.77 150.33 172.03 150.16Q172.29 149.99 172.52 149.92L172.52 149.92L172.52 149.76Q172.29 149.69 172.05 149.52Q171.82 149.34 171.67 149.06Q171.53 148.77 171.53 148.37L171.53 148.37L171.53 148.25Q171.53 147.73 171.84 147.34Q172.14 146.94 172.70 146.72Q173.26 146.50 174.00 146.50L174.00 146.50Q174.73 146.50 175.28 146.72Q175.84 146.94 176.15 147.34Q176.46 147.73 176.46 148.25L176.46 148.25L176.46 148.37Q176.46 148.77 176.31 149.06Q176.16 149.34 175.94 149.52Q175.72 149.69 175.48 149.76L175.48 149.76L175.48 149.92Q175.72 149.99 175.97 150.16Q176.22 150.33 176.39 150.64Q176.56 150.94 176.56 151.41L176.56 151.41L176.56 151.52Q176.56 152.10 176.24 152.53Q175.92 152.96 175.34 153.19Q174.76 153.42 174.00 153.42ZM174.00 152.43L174.00 152.43Q174.69 152.43 175.08 152.17Q175.46 151.90 175.46 151.43L175.46 151.43L175.46 151.36Q175.46 150.90 175.08 150.63Q174.70 150.36 174.00 150.36L174.00 150.36Q173.29 150.36 172.91 150.63Q172.53 150.90 172.53 151.36L172.53 151.36L172.53 151.43Q172.53 151.90 172.92 152.17Q173.30 152.43 174.00 152.43ZM174.00 149.38L174.00 149.38Q174.64 149.38 175.00 149.15Q175.36 148.91 175.36 148.47L175.36 148.47L175.36 148.39Q175.36 147.97 174.99 147.73Q174.62 147.49 174.00 147.49L174.00 147.49Q173.37 147.49 173.00 147.73Q172.64 147.97 172.64 148.39L172.64 148.39L172.64 148.47Q172.64 148.91 173.00 149.15Q173.35 149.38 174.00 149.38Z M179.93 149.52L179.93 149.52Q179.50 149.52 179.15 149.32Q178.80 149.13 178.59 148.78Q178.39 148.44 178.39 148.00L178.39 148.00Q178.39 147.57 178.59 147.23Q178.80 146.88 179.15 146.69Q179.50 146.50 179.93 146.50L179.93 146.50Q180.37 146.50 180.72 146.69Q181.07 146.88 181.27 147.23Q181.48 147.57 181.48 148.00L181.48 148.00Q181.48 148.44 181.27 148.78Q181.07 149.13 180.72 149.32Q180.37 149.52 179.93 149.52ZM179.93 148.67L179.93 148.67Q180.22 148.67 180.41 148.48Q180.59 148.30 180.59 148.00L180.59 148.00Q180.59 147.71 180.41 147.53Q180.22 147.35 179.93 147.35L179.93 147.35Q179.64 147.35 179.45 147.53Q179.26 147.70 179.26 148.00L179.26 148.00Q179.26 148.30 179.45 148.48Q179.64 148.67 179.93 148.67Z  M188.40 153.29L187.27 153.29L187.27 146.64L189.45 146.64L191.02 152.52L191.17 152.52L191.17 146.64L192.30 146.64L192.30 153.29L190.13 153.29L188.56 147.41L188.40 147.41L188.40 153.29Z  M198.79 151.41L198.79 151.41Q198.43 151.41 198.19 151.17Q197.94 150.93 197.94 150.56L197.94 150.56Q197.94 150.20 198.19 149.96Q198.43 149.72 198.79 149.72L198.79 149.72Q199.15 149.72 199.39 149.96Q199.62 150.20 199.62 150.57L199.62 150.57Q199.62 150.94 199.39 151.17Q199.15 151.41 198.79 151.41Z  M208.15 153.29L207.05 153.29L207.05 147.44L206.89 147.44L205.89 149.61L204.72 149.61L206.14 146.64L208.15 146.64L208.15 153.29Z M213.57 153.29L212.47 153.29L212.47 147.44L212.31 147.44L211.31 149.61L210.14 149.61L211.56 146.64L213.57 146.64L213.57 153.29Z M216.80 153.42L216.80 153.42Q216.44 153.42 216.20 153.18Q215.96 152.94 215.96 152.57L215.96 152.57Q215.96 152.21 216.20 151.98Q216.44 151.74 216.80 151.74L216.80 151.74Q217.16 151.74 217.40 151.98Q217.64 152.21 217.64 152.58L217.64 152.58Q217.64 152.95 217.40 153.19Q217.16 153.42 216.80 153.42Z M222.91 153.29L221.81 153.29L221.81 147.44L221.65 147.44L220.65 149.61L219.48 149.61L220.90 146.64L222.91 146.64L222.91 153.29Z M227.67 153.42L227.67 153.42Q226.93 153.42 226.35 153.15Q225.78 152.89 225.45 152.39Q225.13 151.89 225.13 151.20L225.13 151.20L225.13 151.03L226.23 151.03L226.23 151.17Q226.23 151.75 226.63 152.09Q227.02 152.43 227.67 152.43L227.67 152.43Q228.31 152.43 228.67 152.11Q229.04 151.80 229.04 151.31L229.04 151.31L229.04 151.23Q229.04 150.88 228.87 150.67Q228.70 150.47 228.42 150.37Q228.14 150.27 227.79 150.27L227.79 150.27L226.52 150.27L226.52 149.03L228.77 147.77L228.77 147.63L225.29 147.63L225.29 146.64L229.99 146.64L229.99 148.12L227.86 149.32L227.86 149.46L228.25 149.46Q228.72 149.46 229.15 149.64Q229.59 149.83 229.86 150.21Q230.14 150.59 230.14 151.20L230.14 151.20L230.14 151.30Q230.14 151.95 229.83 152.42Q229.52 152.90 228.96 153.16Q228.41 153.42 227.67 153.42Z M233.60 149.52L233.60 149.52Q233.17 149.52 232.82 149.32Q232.47 149.13 232.26 148.78Q232.06 148.44 232.06 148.00L232.06 148.00Q232.06 147.57 232.26 147.23Q232.47 146.88 232.82 146.69Q233.17 146.50 233.60 146.50L233.60 146.50Q234.04 146.50 234.39 146.69Q234.74 146.88 234.94 147.23Q235.15 147.57 235.15 148.00L235.15 148.00Q235.15 148.44 234.94 148.78Q234.74 149.13 234.39 149.32Q234.04 149.52 233.60 149.52ZM233.60 148.67L233.60 148.67Q233.89 148.67 234.08 148.48Q234.26 148.30 234.26 148.00L234.26 148.00Q234.26 147.71 234.08 147.53Q233.89 147.35 233.60 147.35L233.60 147.35Q233.31 147.35 233.12 147.53Q232.93 147.70 232.93 148.00L232.93 148.00Q232.93 148.30 233.12 148.48Q233.31 148.67 233.60 148.67Z  M245.22 153.29L240.94 153.29L240.94 146.64L245.18 146.64L245.18 147.67L242.09 147.67L242.09 149.42L244.91 149.42L244.91 150.46L242.09 150.46L242.09 152.25L245.22 152.25L245.22 153.29Z" fill="#1d1c19"></path></svg>