<svg xmlns="http://www.w3.org/2000/svg" width="1440" height="2172" viewBox="0 0 240 362"><defs><mask id="ko" maskUnits="userSpaceOnUse" x="-20" y="-20" width="280" height="402"><rect x="-20" y="-20" width="280" height="402" fill="#fff"></rect><path d="M59.84 96.56L59.84 96.56Q56.88 96.56 54.62 95.30Q52.36 94.04 51.10 91.74Q49.84 89.44 49.84 86.32L49.84 86.32L49.84 85.84Q49.84 82.72 51.08 80.42Q52.32 78.12 54.56 76.86Q56.80 75.60 59.76 75.60L59.76 75.60Q62.68 75.60 64.84 76.90Q67 78.20 68.20 80.50Q69.40 82.80 69.40 85.84L69.40 85.84L69.40 87.56L54.96 87.56Q55.04 89.60 56.48 90.88Q57.92 92.16 60 92.16L60 92.16Q62.12 92.16 63.12 91.24Q64.12 90.32 64.64 89.20L64.64 89.20L68.76 91.36Q68.20 92.40 67.14 93.62Q66.08 94.84 64.32 95.70Q62.56 96.56 59.84 96.56ZM55 83.80L55 83.80L64.28 83.80Q64.12 82.08 62.90 81.04Q61.68 80 59.72 80L59.72 80Q57.68 80 56.48 81.04Q55.28 82.08 55 83.80Z M78.42 96L73.38 96L73.38 76.16L78.42 76.16L78.42 96ZM75.90 73.84L75.90 73.84Q74.54 73.84 73.60 72.96Q72.66 72.08 72.66 70.64L72.66 70.64Q72.66 69.20 73.60 68.32Q74.54 67.44 75.90 67.44L75.90 67.44Q77.30 67.44 78.22 68.32Q79.14 69.20 79.14 70.64L79.14 70.64Q79.14 72.08 78.22 72.96Q77.30 73.84 75.90 73.84Z M88.56 96L83.52 96L83.52 76.16L88.48 76.16L88.48 78.76L89.20 78.76Q89.68 77.72 91 76.78Q92.32 75.84 95 75.84L95 75.84Q97.32 75.84 99.06 76.90Q100.80 77.96 101.76 79.82Q102.72 81.68 102.72 84.16L102.72 84.16L102.72 96L97.68 96L97.68 84.56Q97.68 82.32 96.58 81.20Q95.48 80.08 93.44 80.08L93.44 80.08Q91.12 80.08 89.84 81.62Q88.56 83.16 88.56 85.92L88.56 85.92L88.56 96Z M115.98 96L110.94 96L110.94 80.32L105.90 80.32L105.90 76.16L110.94 76.16L110.94 72.48Q110.94 70.44 112.16 69.22Q113.38 68 115.34 68L115.34 68L120.54 68L120.54 72.16L117.10 72.16Q115.98 72.16 115.98 73.36L115.98 73.36L115.98 76.16L121.18 76.16L121.18 80.32L115.98 80.32L115.98 96Z M130.76 96.56L130.76 96.56Q128.64 96.56 126.96 95.82Q125.28 95.08 124.30 93.66Q123.32 92.24 123.32 90.20L123.32 90.20Q123.32 88.16 124.30 86.78Q125.28 85.40 127.02 84.70Q128.76 84 131 84L131 84L136.44 84L136.44 82.88Q136.44 81.48 135.56 80.58Q134.68 79.68 132.76 79.68L132.76 79.68Q130.88 79.68 129.96 80.54Q129.04 81.40 128.76 82.76L128.76 82.76L124.12 81.20Q124.60 79.68 125.66 78.42Q126.72 77.16 128.50 76.38Q130.28 75.60 132.84 75.60L132.84 75.60Q136.76 75.60 139.04 77.56Q141.32 79.52 141.32 83.24L141.32 83.24L141.32 90.64Q141.32 91.84 142.44 91.84L142.44 91.84L144.04 91.84L144.04 96L140.68 96Q139.20 96 138.24 95.28Q137.28 94.56 137.28 93.36L137.28 93.36L137.28 93.32L136.52 93.32Q136.36 93.80 135.80 94.58Q135.24 95.36 134.04 95.96Q132.84 96.56 130.76 96.56ZM131.64 92.48L131.64 92.48Q133.76 92.48 135.10 91.30Q136.44 90.12 136.44 88.16L136.44 88.16L136.44 87.76L131.36 87.76Q129.96 87.76 129.16 88.36Q128.36 88.96 128.36 90.04L128.36 90.04Q128.36 91.12 129.20 91.80Q130.04 92.48 131.64 92.48Z M156.54 96.56L156.54 96.56Q153.66 96.56 151.32 95.36Q148.98 94.16 147.62 91.88Q146.26 89.60 146.26 86.36L146.26 86.36L146.26 85.80Q146.26 82.56 147.62 80.28Q148.98 78 151.32 76.80Q153.66 75.60 156.54 75.60L156.54 75.60Q159.38 75.60 161.42 76.60Q163.46 77.60 164.72 79.34Q165.98 81.08 166.38 83.28L166.38 83.28L161.50 84.32Q161.34 83.12 160.78 82.16Q160.22 81.20 159.20 80.64Q158.18 80.08 156.66 80.08L156.66 80.08Q155.14 80.08 153.92 80.74Q152.70 81.40 152 82.70Q151.30 84 151.30 85.88L151.30 85.88L151.30 86.28Q151.30 88.16 152 89.46Q152.70 90.76 153.92 91.42Q155.14 92.08 156.66 92.08L156.66 92.08Q158.94 92.08 160.12 90.90Q161.30 89.72 161.62 87.80L161.62 87.80L166.50 88.96Q165.98 91.08 164.72 92.82Q163.46 94.56 161.42 95.56Q159.38 96.56 156.54 96.56Z M175.20 96L170.16 96L170.16 68L175.20 68L175.20 78.60L175.92 78.60Q176.24 77.96 176.92 77.32Q177.60 76.68 178.74 76.26Q179.88 75.84 181.64 75.84L181.64 75.84Q183.96 75.84 185.70 76.90Q187.44 77.96 188.40 79.82Q189.36 81.68 189.36 84.16L189.36 84.16L189.36 96L184.32 96L184.32 84.56Q184.32 82.32 183.22 81.20Q182.12 80.08 180.08 80.08L180.08 80.08Q177.76 80.08 176.48 81.62Q175.20 83.16 175.20 85.92L175.20 85.92L175.20 96Z" fill="#000" stroke="#000" stroke-width="0.8" stroke-linejoin="round" stroke-linecap="round"></path><path d="M97.66 141.36L97.66 141.36Q94.42 141.36 91.94 140.20Q89.46 139.04 88.06 136.88Q86.66 134.72 86.66 131.68L86.66 131.68L86.66 130.56L91.86 130.56L91.86 131.68Q91.86 134.20 93.42 135.46Q94.98 136.72 97.66 136.72L97.66 136.72Q100.38 136.72 101.72 135.64Q103.06 134.56 103.06 132.88L103.06 132.88Q103.06 131.72 102.40 131Q101.74 130.28 100.48 129.82Q99.22 129.36 97.42 128.96L97.42 128.96L96.50 128.76Q93.62 128.12 91.56 127.14Q89.50 126.16 88.40 124.56Q87.30 122.96 87.30 120.40L87.30 120.40Q87.30 117.84 88.52 116.02Q89.74 114.20 91.96 113.22Q94.18 112.24 97.18 112.24L97.18 112.24Q100.18 112.24 102.52 113.26Q104.86 114.28 106.20 116.30Q107.54 118.32 107.54 121.36L107.54 121.36L107.54 122.56L102.34 122.56L102.34 121.36Q102.34 119.76 101.72 118.78Q101.10 117.80 99.94 117.34Q98.78 116.88 97.18 116.88L97.18 116.88Q94.78 116.88 93.64 117.78Q92.50 118.68 92.50 120.24L92.50 120.24Q92.50 121.28 93.04 122.00Q93.58 122.72 94.66 123.20Q95.74 123.68 97.42 124.04L97.42 124.04L98.34 124.24Q101.34 124.88 103.56 125.88Q105.78 126.88 107.02 128.52Q108.26 130.16 108.26 132.72L108.26 132.72Q108.26 135.28 106.96 137.22Q105.66 139.16 103.28 140.26Q100.90 141.36 97.66 141.36Z M120.88 141.36L120.88 141.36Q117.92 141.36 115.66 140.10Q113.40 138.84 112.14 136.54Q110.88 134.24 110.88 131.12L110.88 131.12L110.88 130.64Q110.88 127.52 112.12 125.22Q113.36 122.92 115.60 121.66Q117.84 120.40 120.80 120.40L120.80 120.40Q123.72 120.40 125.88 121.70Q128.04 123.00 129.24 125.30Q130.44 127.60 130.44 130.64L130.44 130.64L130.44 132.36L116.00 132.36Q116.08 134.40 117.52 135.68Q118.96 136.96 121.04 136.96L121.04 136.96Q123.16 136.96 124.16 136.04Q125.16 135.12 125.68 134L125.68 134L129.80 136.16Q129.24 137.20 128.18 138.42Q127.12 139.64 125.36 140.50Q123.60 141.36 120.88 141.36ZM116.04 128.60L116.04 128.60L125.32 128.60Q125.16 126.88 123.94 125.84Q122.72 124.80 120.76 124.80L120.76 124.80Q118.72 124.80 117.52 125.84Q116.32 126.88 116.04 128.60Z M143.46 141.36L143.46 141.36Q140.50 141.36 138.24 140.10Q135.98 138.84 134.72 136.54Q133.46 134.24 133.46 131.12L133.46 131.12L133.46 130.64Q133.46 127.52 134.70 125.22Q135.94 122.92 138.18 121.66Q140.42 120.40 143.38 120.40L143.38 120.40Q146.30 120.40 148.46 121.70Q150.62 123.00 151.82 125.30Q153.02 127.60 153.02 130.64L153.02 130.64L153.02 132.36L138.58 132.36Q138.66 134.40 140.10 135.68Q141.54 136.96 143.62 136.96L143.62 136.96Q145.74 136.96 146.74 136.04Q147.74 135.12 148.26 134L148.26 134L152.38 136.16Q151.82 137.20 150.76 138.42Q149.70 139.64 147.94 140.50Q146.18 141.36 143.46 141.36ZM138.62 128.60L138.62 128.60L147.90 128.60Q147.74 126.88 146.52 125.84Q145.30 124.80 143.34 124.80L143.34 124.80Q141.30 124.80 140.10 125.84Q138.90 126.88 138.62 128.60Z" fill="#000" stroke="#000" stroke-width="0.8" stroke-linejoin="round" stroke-linecap="round"></path><g transform="translate(0 10)"><path d="M54.70 280L52.57 280L56.37 266.70L59.98 266.70L63.76 280L61.65 280L60.78 276.87L55.57 276.87L54.70 280ZM58.02 267.97L56.08 274.96L60.26 274.96L58.33 267.97L58.02 267.97Z M72.56 280L70.56 280L70.56 266.70L74.42 266.70L77.33 278.63L77.63 278.63L80.54 266.70L84.40 266.70L84.40 280L82.40 280L82.40 268.14L82.10 268.14L79.21 280L75.75 280L72.86 268.14L72.56 268.14L72.56 280Z M94.17 280L92.17 280L92.17 266.70L96.03 266.70L98.93 278.63L99.24 278.63L102.14 266.70L106.00 266.70L106.00 280L104.01 280L104.01 268.14L103.70 268.14L100.81 280L97.36 280L94.47 268.14L94.17 268.14L94.17 280Z M122.25 280L113.78 280L113.78 266.70L122.16 266.70L122.16 268.56L115.83 268.56L115.83 272.38L121.62 272.38L121.62 274.24L115.83 274.24L115.83 278.14L122.25 278.14L122.25 280Z M131.45 280L129.40 280L129.40 266.70L134.98 266.70Q136.22 266.70 137.16 267.13Q138.10 267.56 138.62 268.35Q139.14 269.15 139.14 270.25L139.14 270.25L139.14 270.46Q139.14 271.72 138.55 272.47Q137.95 273.22 137.09 273.52L137.09 273.52L137.09 273.82Q137.81 273.86 138.25 274.31Q138.69 274.76 138.69 275.59L138.69 275.59L138.69 280L136.62 280L136.62 275.88Q136.62 275.36 136.35 275.06Q136.08 274.76 135.50 274.76L135.50 274.76L131.45 274.76L131.45 280ZM131.45 268.56L131.45 272.89L134.75 272.89Q135.86 272.89 136.47 272.33Q137.07 271.77 137.07 270.80L137.07 270.80L137.07 270.65Q137.07 269.68 136.47 269.12Q135.88 268.56 134.75 268.56L134.75 268.56L131.45 268.56Z M150.93 280.27L150.93 280.27Q149.43 280.27 148.27 279.73Q147.11 279.20 146.45 278.17Q145.80 277.13 145.80 275.65L145.80 275.65L145.80 275.17L147.83 275.17L147.83 275.65Q147.83 277.06 148.68 277.76Q149.52 278.46 150.93 278.46L150.93 278.46Q152.35 278.46 153.07 277.86Q153.80 277.26 153.80 276.31L153.80 276.31Q153.80 275.69 153.45 275.29Q153.11 274.89 152.49 274.65Q151.86 274.41 150.98 274.20L150.98 274.20L150.28 274.03Q149.01 273.73 148.07 273.28Q147.13 272.84 146.61 272.10Q146.10 271.36 146.10 270.20L146.10 270.20Q146.10 269.02 146.68 268.18Q147.26 267.35 148.29 266.89Q149.31 266.43 150.70 266.43L150.70 266.43Q152.09 266.43 153.18 266.91Q154.27 267.38 154.90 268.31Q155.53 269.25 155.53 270.65L155.53 270.65L155.53 271.34L153.49 271.34L153.49 270.65Q153.49 269.80 153.14 269.26Q152.79 268.73 152.16 268.49Q151.53 268.24 150.70 268.24L150.70 268.24Q149.48 268.24 148.81 268.74Q148.13 269.25 148.13 270.14L148.13 270.14Q148.13 270.75 148.43 271.14Q148.72 271.53 149.29 271.77Q149.86 272.02 150.72 272.21L150.72 272.21L151.42 272.38Q152.71 272.67 153.70 273.11Q154.69 273.56 155.26 274.32Q155.83 275.08 155.83 276.28L155.83 276.28Q155.83 277.47 155.23 278.37Q154.63 279.26 153.53 279.76Q152.43 280.27 150.93 280.27Z M171.45 280L162.98 280L162.98 266.70L171.35 266.70L171.35 268.56L165.03 268.56L165.03 272.38L170.82 272.38L170.82 274.24L165.03 274.24L165.03 278.14L171.45 278.14L171.45 280Z M187.07 280L178.60 280L178.60 266.70L186.98 266.70L186.98 268.56L180.65 268.56L180.65 272.38L186.44 272.38L186.44 274.24L180.65 274.24L180.65 278.14L187.07 278.14L187.07 280Z" fill="#000" stroke="#000" stroke-width="0.8" stroke-linejoin="round" stroke-linecap="round"></path></g><svg x="18.81" y="170.00" width="202.38" height="104.00" viewBox="0 0 360 185" overflow="visible"><g transform="translate(14.715 29.690)"><g fill="#000" stroke="#000" stroke-width="1.4" stroke-linejoin="round" stroke-linecap="round"><g transform="translate(64.98,0)"><path d="M22.88 133.59 L22.88 133.59 Q21.33 133.16 20.38 132.82 L20.38 132.82 L19.44 132.56 Q19.61 132.13 19.31 131.78 Q19.01 131.44 18.06 131.35 L18.06 131.35 Q16.77 130.49 15.39 128.95 Q14.02 127.40 12.99 125.76 Q11.95 124.13 11.61 123.36 L11.61 123.36 Q11.18 122.32 11.44 121.98 L11.44 121.98 Q11.52 121.81 11.70 121.72 L11.70 121.72 Q12.38 121.46 13.33 121.03 L13.33 121.03 Q14.28 120.35 15.35 120.00 Q16.43 119.66 17.11 121.12 L17.11 121.12 Q18.23 123.10 20.60 124.47 Q22.96 125.85 26.02 126.11 Q29.07 126.37 32.16 125.08 L32.16 125.08 Q34.23 124.13 34.40 122.45 Q34.57 120.78 33.11 118.54 L33.11 118.54 Q32.85 117.85 32.38 117.42 Q31.91 116.99 31.00 116.30 Q30.10 115.62 28.47 114.07 L28.47 114.07 Q27.18 113.47 26.10 112.95 Q25.03 112.43 23.82 111.83 L23.82 111.83 Q22.45 111.14 20.73 109.90 Q19.01 108.65 17.54 107.14 Q16.08 105.64 15.31 104.26 L15.31 104.26 Q13.93 102.97 13.59 100.69 Q13.24 98.42 13.72 95.84 Q14.19 93.26 15.31 91.19 L15.31 91.19 Q15.82 89.99 17.20 88.05 Q18.58 86.12 20.30 84.05 Q22.02 81.99 23.61 80.31 Q25.20 78.64 26.14 78.03 L26.14 78.03 Q26.83 77.35 27.61 76.57 L27.61 76.57 L28.38 75.88 Q28.47 75.45 28.72 75.45 L28.72 75.45 L28.90 75.45 Q29.33 75.20 30.79 74.59 Q32.25 73.99 33.97 72.36 L33.97 72.36 Q39.73 69.61 43.77 68.62 Q47.82 67.63 50.14 67.63 L50.14 67.63 Q52.29 67.71 54.35 68.79 Q56.42 69.86 57.92 71.50 Q59.43 73.13 59.68 75.20 L59.68 75.20 Q60.29 77.26 59.13 80.14 Q57.96 83.02 55.94 85.56 Q53.92 88.10 51.77 89.30 L51.77 89.30 Q49.36 90.33 47.69 89.56 Q46.01 88.78 46.10 87.15 L46.10 87.15 Q46.10 86.46 46.57 85.52 Q47.04 84.57 49.19 82.16 L49.19 82.16 Q51.94 78.12 52.12 76.40 Q52.29 74.68 50.57 74.42 L50.57 74.42 Q50.05 74.25 48.59 74.51 Q47.13 74.77 45.45 75.15 Q43.77 75.54 42.53 75.97 Q41.28 76.40 41.28 76.57 L41.28 76.57 L41.28 76.83 Q41.28 76.92 41.19 77.00 L41.19 77.00 Q41.19 77.09 40.94 77.00 L40.94 77.00 Q40.76 77.00 39.78 77.56 Q38.79 78.12 37.41 78.98 Q36.03 79.84 34.70 80.74 Q33.37 81.65 32.42 82.33 Q31.48 83.02 31.39 83.19 L31.39 83.19 Q31.22 84.14 29.41 84.91 L29.41 84.91 Q27.69 85.95 26.40 87.84 Q25.11 89.73 23.39 92.65 L23.39 92.65 Q21.93 94.63 21.33 96.91 Q20.73 99.19 21.33 100.57 L21.33 100.57 Q21.76 101.94 23.69 103.28 Q25.63 104.61 28.98 106.59 L28.98 106.59 Q31.91 108.22 34.49 110.03 Q37.07 111.83 38.87 113.51 Q40.68 115.19 41.19 116.30 L41.19 116.30 Q42.23 117.77 42.44 119.66 Q42.66 121.55 42.44 123.31 Q42.23 125.08 41.88 126.19 L41.88 126.19 Q41.28 127.57 40.03 129.12 Q38.79 130.67 37.75 130.58 L37.75 130.58 Q36.81 130.84 36.34 131.18 Q35.86 131.53 35.26 131.78 L35.26 131.78 Q34.66 132.13 32.42 132.60 Q30.19 133.07 27.52 133.38 Q24.85 133.68 22.88 133.59 Z M67.77 126.28 L67.77 126.28 Q65.19 127.74 62.31 127.96 Q59.43 128.17 56.93 127.18 Q54.44 126.19 52.89 124.22 L52.89 124.22 Q52.03 123.10 51.26 120.65 Q50.48 118.20 51.00 113.98 L51.00 113.98 Q51.51 110.03 53.45 105.98 Q55.38 101.94 58.22 98.85 Q61.06 95.75 64.41 94.63 L64.41 94.63 Q65.62 94.20 66.86 93.99 Q68.11 93.77 70.18 93.94 L70.18 93.94 Q72.15 94.20 73.70 94.93 Q75.25 95.66 75.94 96.52 L75.94 96.52 Q77.31 97.90 77.74 99.19 Q78.17 100.48 78.09 101.68 L78.09 101.68 Q77.66 104.44 75.64 107.62 Q73.62 110.80 70.00 112.35 L70.00 112.35 Q68.54 112.95 66.56 113.12 Q64.59 113.29 61.15 112.61 L61.15 112.61 Q59.08 112.18 58.44 113.04 Q57.79 113.90 57.88 116.39 L57.88 116.39 Q58.05 117.94 58.61 119.10 Q59.17 120.26 60.72 120.69 L60.72 120.69 Q62.69 121.03 63.55 120.73 Q64.41 120.43 65.70 119.83 L65.70 119.83 Q66.39 119.40 67.08 118.88 L67.08 118.88 L68.37 117.85 Q68.97 117.34 69.40 117.08 L69.40 117.08 Q69.83 116.73 70.26 116.65 Q70.69 116.56 71.12 116.56 L71.12 116.56 Q72.07 116.65 72.93 117.59 Q73.79 118.54 74.05 119.40 L74.05 119.40 Q74.05 120.09 73.19 121.33 Q72.33 122.58 70.91 123.92 Q69.49 125.25 67.77 126.28 Z M66.65 107.10 L66.65 107.10 Q67.25 106.84 68.41 105.90 Q69.57 104.95 70.52 103.88 Q71.47 102.80 71.47 102.20 L71.47 102.20 Q71.47 101.25 70.22 100.57 Q68.97 99.88 66.99 100.31 L66.99 100.31 Q66.31 100.48 65.36 101.25 Q64.41 102.03 63.47 103.02 Q62.52 104.01 61.83 104.91 Q61.15 105.81 60.89 106.33 L60.89 106.33 Q61.23 106.76 62.26 107.02 Q63.30 107.27 64.54 107.27 Q65.79 107.27 66.65 107.10 Z M96.49 126.28 L96.49 126.28 Q93.91 127.74 91.03 127.96 Q88.15 128.17 85.66 127.18 Q83.16 126.19 81.61 124.22 L81.61 124.22 Q80.75 123.10 79.98 120.65 Q79.21 118.20 79.72 113.98 L79.72 113.98 Q80.24 110.03 82.17 105.98 Q84.11 101.94 86.95 98.85 Q89.78 95.75 93.14 94.63 L93.14 94.63 Q94.34 94.20 95.59 93.99 Q96.84 93.77 98.90 93.94 L98.90 93.94 Q100.88 94.20 102.43 94.93 Q103.97 95.66 104.66 96.52 L104.66 96.52 Q106.04 97.90 106.47 99.19 Q106.90 100.48 106.81 101.68 L106.81 101.68 Q106.38 104.44 104.36 107.62 Q102.34 110.80 98.73 112.35 L98.73 112.35 Q97.27 112.95 95.29 113.12 Q93.31 113.29 89.87 112.61 L89.87 112.61 Q87.81 112.18 87.16 113.04 Q86.52 113.90 86.60 116.39 L86.60 116.39 Q86.77 117.94 87.33 119.10 Q87.89 120.26 89.44 120.69 L89.44 120.69 Q91.42 121.03 92.28 120.73 Q93.14 120.43 94.43 119.83 L94.43 119.83 Q95.12 119.40 95.80 118.88 L95.80 118.88 L97.09 117.85 Q97.70 117.34 98.13 117.08 L98.13 117.08 Q98.56 116.73 98.99 116.65 Q99.42 116.56 99.85 116.56 L99.85 116.56 Q100.79 116.65 101.65 117.59 Q102.51 118.54 102.77 119.40 L102.77 119.40 Q102.77 120.09 101.91 121.33 Q101.05 122.58 99.63 123.92 Q98.21 125.25 96.49 126.28 Z M95.37 107.10 L95.37 107.10 Q95.98 106.84 97.14 105.90 Q98.30 104.95 99.24 103.88 Q100.19 102.80 100.19 102.20 L100.19 102.20 Q100.19 101.25 98.94 100.57 Q97.70 99.88 95.72 100.31 L95.72 100.31 Q95.03 100.48 94.08 101.25 Q93.14 102.03 92.19 103.02 Q91.25 104.01 90.56 104.91 Q89.87 105.81 89.61 106.33 L89.61 106.33 Q89.96 106.76 90.99 107.02 Q92.02 107.27 93.27 107.27 Q94.51 107.27 95.37 107.10 Z M118.42 145.20 L118.42 145.20 Q116.01 146.15 113.39 144.90 Q110.77 143.65 108.88 140.99 L108.88 140.99 Q108.53 140.47 107.84 139.14 Q107.16 137.80 106.51 136.26 Q105.87 134.71 105.56 133.59 Q105.26 132.47 105.52 132.30 L105.52 132.30 Q105.87 131.35 107.07 131.18 Q108.27 131.01 109.48 131.31 Q110.68 131.61 110.85 132.13 L110.85 132.13 Q111.11 132.73 111.37 133.38 Q111.63 134.02 112.01 134.58 Q112.40 135.14 112.75 135.57 L112.75 135.57 Q113.69 137.03 114.81 137.59 Q115.93 138.15 116.53 137.72 L116.53 137.72 Q117.99 136.60 118.72 135.09 Q119.45 133.59 120.66 129.81 L120.66 129.81 Q121.60 126.62 122.29 124.30 Q122.98 121.98 123.75 120.00 L123.75 120.00 Q124.01 118.97 124.44 118.20 L124.44 118.20 Q124.53 118.02 124.61 117.85 L124.61 117.85 Q123.41 118.71 122.46 119.57 L122.46 119.57 Q121.17 120.78 118.94 121.72 L118.94 121.72 Q118.42 122.32 116.40 122.45 Q114.38 122.58 112.49 121.98 L112.49 121.98 Q111.28 121.29 110.55 120.56 Q109.82 119.83 109.35 118.88 Q108.88 117.94 108.36 116.65 L108.36 116.65 Q107.76 115.36 108.19 112.43 Q108.62 109.51 109.74 106.59 L109.74 106.59 Q110.77 104.44 112.75 101.94 Q114.72 99.45 116.96 97.43 Q119.20 95.41 121.00 94.89 L121.00 94.89 Q121.69 94.55 123.41 94.07 Q125.13 93.60 126.68 94.03 L126.68 94.03 Q128.14 94.20 128.91 94.67 Q129.69 95.15 131.41 96.61 L131.41 96.61 Q132.53 97.73 134.16 99.49 Q135.79 101.25 136.22 102.46 L136.22 102.46 Q136.83 103.75 136.48 105.25 Q136.14 106.76 135.28 107.88 L135.28 107.88 Q134.50 108.99 133.64 110.11 Q132.78 111.23 132.35 113.21 L132.35 113.21 Q131.92 115.79 130.72 119.01 Q129.52 122.24 128.83 124.99 L128.83 124.99 L127.45 130.32 Q125.30 137.63 122.72 140.94 Q120.14 144.25 118.42 145.20 Z M116.62 115.62 L116.62 115.62 Q118.34 115.53 119.58 115.23 Q120.83 114.93 121.95 113.85 Q123.07 112.78 124.53 110.54 L124.53 110.54 Q125.99 108.48 126.59 106.76 Q127.19 105.04 127.02 102.89 L127.02 102.89 Q126.94 101.51 126.25 101.08 Q125.56 100.65 124.44 100.82 L124.44 100.82 Q122.81 101.08 121.52 102.16 Q120.23 103.23 118.51 105.47 L118.51 105.47 Q117.22 107.19 116.36 109.60 L116.36 109.60 Q115.50 112.18 115.63 113.72 Q115.76 115.27 116.62 115.62 Z M143.88 138.41 L143.88 138.41 Q143.36 138.75 141.56 137.59 Q139.75 136.43 138.55 135.05 L138.55 135.05 Q137.94 134.36 137.77 133.59 Q137.60 132.82 137.86 130.67 L137.86 130.67 Q138.20 129.72 138.24 128.86 Q138.29 128.00 138.29 127.66 L138.29 127.66 Q138.29 127.14 138.59 125.25 Q138.89 123.36 139.23 121.25 Q139.58 119.14 139.84 118.02 L139.84 118.02 Q139.84 117.94 139.96 117.42 Q140.09 116.91 140.18 116.65 L140.18 116.65 Q140.35 115.87 140.61 114.76 Q140.87 113.64 141.13 111.75 L141.13 111.75 Q141.81 109.60 142.29 107.49 Q142.76 105.38 142.76 104.61 L142.76 104.61 Q142.76 103.06 143.96 102.37 L143.96 102.37 Q144.05 101.94 144.48 101.04 Q144.91 100.14 145.25 99.53 L145.25 99.53 Q146.97 94.63 148.09 91.71 Q149.21 88.78 150.41 86.63 L150.41 86.63 Q150.93 85.17 151.57 83.62 Q152.22 82.08 152.91 81.22 L152.91 81.22 Q153.51 80.01 155.01 78.25 Q156.52 76.49 158.24 74.85 Q159.96 73.22 160.99 72.44 L160.99 72.44 Q162.88 71.50 164.52 70.90 Q166.15 70.29 167.96 70.29 L167.96 70.29 Q169.59 70.29 170.84 71.03 Q172.09 71.76 174.58 73.99 L174.58 73.99 Q175.44 75.11 175.44 76.14 Q175.44 77.17 175.01 77.86 L175.01 77.86 Q174.41 79.24 173.20 81.26 Q172.00 83.28 170.88 84.87 Q169.76 86.46 169.25 86.55 L169.25 86.55 Q168.22 87.15 167.10 86.89 Q165.98 86.63 165.98 85.34 L165.98 85.34 Q165.98 84.74 166.07 84.23 L166.07 84.23 L166.07 83.71 Q166.32 82.59 166.71 81.73 Q167.10 80.87 167.44 80.27 L167.44 80.27 Q168.13 79.15 167.83 78.12 Q167.53 77.09 165.64 77.26 L165.64 77.26 Q165.38 77.43 164.65 78.08 Q163.92 78.72 163.10 79.54 Q162.28 80.36 161.68 81.09 Q161.08 81.82 161.08 82.08 L161.08 82.08 L160.65 82.94 Q160.13 83.88 159.19 85.00 L159.19 85.00 Q158.58 85.86 158.15 86.63 Q157.72 87.41 157.72 87.84 L157.72 87.84 Q157.72 88.18 157.64 88.44 Q157.55 88.70 157.21 88.70 L157.21 88.70 L156.95 89.56 Q156.61 90.42 155.92 91.62 L155.92 91.62 Q155.57 92.48 155.19 93.21 Q154.80 93.94 154.46 94.29 L154.46 94.29 L154.37 94.46 L154.03 95.41 Q153.60 96.44 153.17 97.47 Q152.74 98.50 152.74 98.67 L152.74 98.67 Q152.74 99.02 153.77 99.02 Q154.80 99.02 156.26 98.72 Q157.72 98.42 159.10 98.07 L159.10 98.07 Q160.30 97.73 160.82 97.73 Q161.34 97.73 162.45 98.07 L162.45 98.07 Q163.14 98.50 163.57 99.58 Q164.00 100.65 164.22 101.73 Q164.43 102.80 164.26 103.32 L164.26 103.32 Q164.17 103.66 162.32 104.26 Q160.48 104.87 158.67 105.21 L158.67 105.21 Q157.12 105.55 155.19 105.94 Q153.25 106.33 151.79 106.72 Q150.33 107.10 150.24 107.45 L150.24 107.45 Q149.90 107.45 149.68 107.88 Q149.47 108.31 149.47 108.65 L149.47 108.65 Q149.47 109.77 149.04 110.46 L149.04 110.46 Q148.87 110.97 148.48 112.56 Q148.09 114.15 147.70 116.00 Q147.32 117.85 147.02 119.44 Q146.72 121.03 146.72 121.55 L146.72 121.55 Q146.20 122.15 146.11 123.06 Q146.03 123.96 146.03 124.65 L146.03 124.65 Q145.68 125.33 145.60 125.89 Q145.51 126.45 145.51 126.80 L145.51 126.80 L145.51 127.14 Q145.51 127.40 145.43 127.66 L145.43 127.66 Q145.34 128.52 145.21 129.94 Q145.08 131.35 145.08 132.73 L145.08 132.73 L144.82 135.22 Q144.74 136.34 144.52 137.16 Q144.31 137.98 143.88 138.41 Z M186.02 127.83 L186.02 127.83 Q185.16 126.97 184.64 125.46 Q184.13 123.96 183.61 121.98 L183.61 121.98 Q183.44 121.29 183.48 120.43 Q183.52 119.57 183.44 119.06 L183.44 119.06 Q183.18 119.66 182.62 120.60 Q182.06 121.55 181.55 121.98 L181.55 121.98 Q181.20 122.32 180.00 123.31 Q178.79 124.30 177.59 124.90 L177.59 124.90 Q174.75 126.71 172.56 126.58 Q170.37 126.45 168.73 124.39 L168.73 124.39 Q167.36 123.27 166.50 121.55 Q165.64 119.83 166.15 117.42 L166.15 117.42 Q166.32 114.41 167.01 111.53 Q167.70 108.65 169.85 103.83 L169.85 103.83 Q171.66 100.31 172.60 98.33 Q173.55 96.35 173.81 96.01 L173.81 96.01 Q175.10 95.58 176.99 96.05 Q178.88 96.52 179.05 97.73 L179.05 97.73 Q179.57 98.59 179.05 100.95 Q178.54 103.32 176.99 106.33 L176.99 106.33 Q175.78 109.25 174.71 112.00 Q173.63 114.76 173.42 116.65 Q173.20 118.54 174.41 118.97 L174.41 118.97 Q175.18 119.40 176.69 118.88 Q178.19 118.37 180.26 115.79 Q182.32 113.21 184.64 107.62 L184.64 107.62 Q185.33 105.90 185.67 104.56 Q186.02 103.23 186.10 101.60 L186.10 101.60 Q185.93 100.57 186.66 99.45 Q187.39 98.33 188.43 97.73 L188.43 97.73 Q188.77 97.30 189.37 96.87 L189.37 96.87 Q189.80 96.61 189.97 96.78 L189.97 96.78 Q190.06 96.78 190.15 96.95 L190.15 96.95 L191.52 96.87 Q191.87 96.78 192.30 97.56 Q192.73 98.33 193.16 98.67 L193.16 98.67 Q194.10 99.45 194.02 102.03 Q193.93 104.61 191.95 109.25 L191.95 109.25 Q190.32 112.78 189.76 114.58 Q189.20 116.39 189.11 118.11 L189.11 118.11 Q189.11 119.66 189.37 120.73 Q189.63 121.81 190.92 122.93 L190.92 122.93 Q191.87 123.53 191.99 124.95 Q192.12 126.37 192.04 127.40 L192.04 127.40 Q191.87 128.17 190.70 128.47 Q189.54 128.77 188.21 128.60 Q186.88 128.43 186.02 127.83 Z M197.80 126.54 L197.80 126.54 Q197.11 125.85 196.81 124.47 Q196.51 123.10 196.60 121.77 Q196.68 120.43 197.03 119.74 L197.03 119.74 Q197.03 119.06 197.24 118.67 Q197.46 118.28 197.37 117.94 L197.37 117.94 Q197.28 117.59 197.54 116.73 Q197.80 115.87 198.06 115.10 L198.06 115.10 Q198.66 113.72 199.43 111.53 Q200.21 109.34 200.98 107.06 Q201.76 104.78 202.27 103.10 Q202.79 101.43 202.87 101.08 L202.87 101.08 Q202.87 100.05 204.25 99.96 L204.25 99.96 Q205.28 99.62 206.74 100.82 Q208.21 102.03 209.07 103.40 L209.07 103.40 Q209.75 104.09 209.58 105.21 Q209.41 106.33 208.46 108.39 L208.46 108.39 Q208.12 109.08 207.65 110.67 Q207.17 112.26 207.00 113.29 L207.00 113.29 Q206.66 113.98 206.18 115.23 Q205.71 116.48 205.37 117.59 L205.37 117.59 Q205.20 118.02 205.02 119.19 Q204.85 120.35 204.59 121.55 Q204.34 122.75 203.91 123.44 L203.91 123.44 Q203.13 126.97 201.20 127.57 Q199.26 128.17 197.80 126.54 Z " fill="#000"></path><defs><mask id="hm2k" maskUnits="userSpaceOnUse"><path d="M0,3 C0,-3 -9,-6 -9,-13 C-9,-19 -2,-20 0,-14 C2,-20 9,-19 9,-13 C9,-6 0,-3 0,3 Z" fill="#fff"></path><path d="M-7.5,-8 q2.5,-3.4 5,0 t5,0 t5,0" fill="none" stroke="#000" stroke-width="2.1" stroke-linecap="round"></path></mask></defs><g transform="translate(210.40,95.23) rotate(12) scale(0.940)"><path d="M0,3 C0,-3 -9,-6 -9,-13 C-9,-19 -2,-20 0,-14 C2,-20 9,-19 9,-13 C9,-6 0,-3 0,3 Z" fill="#000" mask="url(#hm2k)"></path></g></g></g></g></svg></mask></defs><g mask="url(#ko)"><path d="M26.6,15.6 L23.3,9.6 L24.9,5.6 L23.4,3 L19.7,2.1 L14.4,7 L13.1,5.4 L11.2,5.8 L9.4,2 L6.3,1.2 L1.8,-9.1 L-2.9,-41.5 L3.9,-62.7 L2.4,-72.7 L0.6,-75 L-4.9,-74.9 L-12.4,-67.5 L-16.6,-67.1 L-22,-57.2 L-21.6,-53 L-24.3,-47.3 L-23.7,-41.3 L-25.6,-36.4 L-24.6,-30.6 L-25.8,-26.6 L-23.8,-21.8 L-26.6,-12.8 L-26,-9.3 L-22.8,-5.3 L-25.1,0.3 L-23.1,20.5 L-24.3,26.8 L-20.4,36.9 L-20.7,40.6 L-16.7,48.4 L-18.3,54.5 L-17.2,59.2 L-12,60.7 L-10.4,65.3 L-7.5,69.5 L-3,73.5 L2,75 L7,73 L10.5,69.5 L12.3,66.1 L11.7,33.9 L16.2,25.7 L26.6,16.1 Z" fill="#9aa6d6" fill-opacity="0.13" fill-rule="evenodd" transform="translate(120 178) scale(2.00000) translate(0.000 0.000)"></path><path d="M26.6,15.6 L23.3,9.6 L24.9,5.6 L23.4,3 L19.7,2.1 L14.4,7 L13.1,5.4 L11.2,5.8 L9.4,2 L6.3,1.2 L1.8,-9.1 L-2.9,-41.5 L3.9,-62.7 L2.4,-72.7 L0.6,-75 L-4.9,-74.9 L-12.4,-67.5 L-16.6,-67.1 L-22,-57.2 L-21.6,-53 L-24.3,-47.3 L-23.7,-41.3 L-25.6,-36.4 L-24.6,-30.6 L-25.8,-26.6 L-23.8,-21.8 L-26.6,-12.8 L-26,-9.3 L-22.8,-5.3 L-25.1,0.3 L-23.1,20.5 L-24.3,26.8 L-20.4,36.9 L-20.7,40.6 L-16.7,48.4 L-18.3,54.5 L-17.2,59.2 L-12,60.7 L-10.4,65.3 L-7.5,69.5 L-3,73.5 L2,75 L7,73 L10.5,69.5 L12.3,66.1 L11.7,33.9 L16.2,25.7 L26.6,16.1 Z" fill="none" stroke="#9aa6d6" stroke-opacity="0.42" stroke-width="0.85" stroke-linejoin="round" stroke-linecap="round" transform="translate(120 178) scale(2.00000) translate(0.000 0.000)"></path></g><path d="M59.84 96.56L59.84 96.56Q56.88 96.56 54.62 95.30Q52.36 94.04 51.10 91.74Q49.84 89.44 49.84 86.32L49.84 86.32L49.84 85.84Q49.84 82.72 51.08 80.42Q52.32 78.12 54.56 76.86Q56.80 75.60 59.76 75.60L59.76 75.60Q62.68 75.60 64.84 76.90Q67 78.20 68.20 80.50Q69.40 82.80 69.40 85.84L69.40 85.84L69.40 87.56L54.96 87.56Q55.04 89.60 56.48 90.88Q57.92 92.16 60 92.16L60 92.16Q62.12 92.16 63.12 91.24Q64.12 90.32 64.64 89.20L64.64 89.20L68.76 91.36Q68.20 92.40 67.14 93.62Q66.08 94.84 64.32 95.70Q62.56 96.56 59.84 96.56ZM55 83.80L55 83.80L64.28 83.80Q64.12 82.08 62.90 81.04Q61.68 80 59.72 80L59.72 80Q57.68 80 56.48 81.04Q55.28 82.08 55 83.80Z M78.42 96L73.38 96L73.38 76.16L78.42 76.16L78.42 96ZM75.90 73.84L75.90 73.84Q74.54 73.84 73.60 72.96Q72.66 72.08 72.66 70.64L72.66 70.64Q72.66 69.20 73.60 68.32Q74.54 67.44 75.90 67.44L75.90 67.44Q77.30 67.44 78.22 68.32Q79.14 69.20 79.14 70.64L79.14 70.64Q79.14 72.08 78.22 72.96Q77.30 73.84 75.90 73.84Z M88.56 96L83.52 96L83.52 76.16L88.48 76.16L88.48 78.76L89.20 78.76Q89.68 77.72 91 76.78Q92.32 75.84 95 75.84L95 75.84Q97.32 75.84 99.06 76.90Q100.80 77.96 101.76 79.82Q102.72 81.68 102.72 84.16L102.72 84.16L102.72 96L97.68 96L97.68 84.56Q97.68 82.32 96.58 81.20Q95.48 80.08 93.44 80.08L93.44 80.08Q91.12 80.08 89.84 81.62Q88.56 83.16 88.56 85.92L88.56 85.92L88.56 96Z M115.98 96L110.94 96L110.94 80.32L105.90 80.32L105.90 76.16L110.94 76.16L110.94 72.48Q110.94 70.44 112.16 69.22Q113.38 68 115.34 68L115.34 68L120.54 68L120.54 72.16L117.10 72.16Q115.98 72.16 115.98 73.36L115.98 73.36L115.98 76.16L121.18 76.16L121.18 80.32L115.98 80.32L115.98 96Z M130.76 96.56L130.76 96.56Q128.64 96.56 126.96 95.82Q125.28 95.08 124.30 93.66Q123.32 92.24 123.32 90.20L123.32 90.20Q123.32 88.16 124.30 86.78Q125.28 85.40 127.02 84.70Q128.76 84 131 84L131 84L136.44 84L136.44 82.88Q136.44 81.48 135.56 80.58Q134.68 79.68 132.76 79.68L132.76 79.68Q130.88 79.68 129.96 80.54Q129.04 81.40 128.76 82.76L128.76 82.76L124.12 81.20Q124.60 79.68 125.66 78.42Q126.72 77.16 128.50 76.38Q130.28 75.60 132.84 75.60L132.84 75.60Q136.76 75.60 139.04 77.56Q141.32 79.52 141.32 83.24L141.32 83.24L141.32 90.64Q141.32 91.84 142.44 91.84L142.44 91.84L144.04 91.84L144.04 96L140.68 96Q139.20 96 138.24 95.28Q137.28 94.56 137.28 93.36L137.28 93.36L137.28 93.32L136.52 93.32Q136.36 93.80 135.80 94.58Q135.24 95.36 134.04 95.96Q132.84 96.56 130.76 96.56ZM131.64 92.48L131.64 92.48Q133.76 92.48 135.10 91.30Q136.44 90.12 136.44 88.16L136.44 88.16L136.44 87.76L131.36 87.76Q129.96 87.76 129.16 88.36Q128.36 88.96 128.36 90.04L128.36 90.04Q128.36 91.12 129.20 91.80Q130.04 92.48 131.64 92.48Z M156.54 96.56L156.54 96.56Q153.66 96.56 151.32 95.36Q148.98 94.16 147.62 91.88Q146.26 89.60 146.26 86.36L146.26 86.36L146.26 85.80Q146.26 82.56 147.62 80.28Q148.98 78 151.32 76.80Q153.66 75.60 156.54 75.60L156.54 75.60Q159.38 75.60 161.42 76.60Q163.46 77.60 164.72 79.34Q165.98 81.08 166.38 83.28L166.38 83.28L161.50 84.32Q161.34 83.12 160.78 82.16Q160.22 81.20 159.20 80.64Q158.18 80.08 156.66 80.08L156.66 80.08Q155.14 80.08 153.92 80.74Q152.70 81.40 152 82.70Q151.30 84 151.30 85.88L151.30 85.88L151.30 86.28Q151.30 88.16 152 89.46Q152.70 90.76 153.92 91.42Q155.14 92.08 156.66 92.08L156.66 92.08Q158.94 92.08 160.12 90.90Q161.30 89.72 161.62 87.80L161.62 87.80L166.50 88.96Q165.98 91.08 164.72 92.82Q163.46 94.56 161.42 95.56Q159.38 96.56 156.54 96.56Z M175.20 96L170.16 96L170.16 68L175.20 68L175.20 78.60L175.92 78.60Q176.24 77.96 176.92 77.32Q177.60 76.68 178.74 76.26Q179.88 75.84 181.64 75.84L181.64 75.84Q183.96 75.84 185.70 76.90Q187.44 77.96 188.40 79.82Q189.36 81.68 189.36 84.16L189.36 84.16L189.36 96L184.32 96L184.32 84.56Q184.32 82.32 183.22 81.20Q182.12 80.08 180.08 80.08L180.08 80.08Q177.76 80.08 176.48 81.62Q175.20 83.16 175.20 85.92L175.20 85.92L175.20 96Z" fill="#f1ece2"></path><path d="M97.66 141.36L97.66 141.36Q94.42 141.36 91.94 140.20Q89.46 139.04 88.06 136.88Q86.66 134.72 86.66 131.68L86.66 131.68L86.66 130.56L91.86 130.56L91.86 131.68Q91.86 134.20 93.42 135.46Q94.98 136.72 97.66 136.72L97.66 136.72Q100.38 136.72 101.72 135.64Q103.06 134.56 103.06 132.88L103.06 132.88Q103.06 131.72 102.40 131Q101.74 130.28 100.48 129.82Q99.22 129.36 97.42 128.96L97.42 128.96L96.50 128.76Q93.62 128.12 91.56 127.14Q89.50 126.16 88.40 124.56Q87.30 122.96 87.30 120.40L87.30 120.40Q87.30 117.84 88.52 116.02Q89.74 114.20 91.96 113.22Q94.18 112.24 97.18 112.24L97.18 112.24Q100.18 112.24 102.52 113.26Q104.86 114.28 106.20 116.30Q107.54 118.32 107.54 121.36L107.54 121.36L107.54 122.56L102.34 122.56L102.34 121.36Q102.34 119.76 101.72 118.78Q101.10 117.80 99.94 117.34Q98.78 116.88 97.18 116.88L97.18 116.88Q94.78 116.88 93.64 117.78Q92.50 118.68 92.50 120.24L92.50 120.24Q92.50 121.28 93.04 122.00Q93.58 122.72 94.66 123.20Q95.74 123.68 97.42 124.04L97.42 124.04L98.34 124.24Q101.34 124.88 103.56 125.88Q105.78 126.88 107.02 128.52Q108.26 130.16 108.26 132.72L108.26 132.72Q108.26 135.28 106.96 137.22Q105.66 139.16 103.28 140.26Q100.90 141.36 97.66 141.36Z M120.88 141.36L120.88 141.36Q117.92 141.36 115.66 140.10Q113.40 138.84 112.14 136.54Q110.88 134.24 110.88 131.12L110.88 131.12L110.88 130.64Q110.88 127.52 112.12 125.22Q113.36 122.92 115.60 121.66Q117.84 120.40 120.80 120.40L120.80 120.40Q123.72 120.40 125.88 121.70Q128.04 123.00 129.24 125.30Q130.44 127.60 130.44 130.64L130.44 130.64L130.44 132.36L116.00 132.36Q116.08 134.40 117.52 135.68Q118.96 136.96 121.04 136.96L121.04 136.96Q123.16 136.96 124.16 136.04Q125.16 135.12 125.68 134L125.68 134L129.80 136.16Q129.24 137.20 128.18 138.42Q127.12 139.64 125.36 140.50Q123.60 141.36 120.88 141.36ZM116.04 128.60L116.04 128.60L125.32 128.60Q125.16 126.88 123.94 125.84Q122.72 124.80 120.76 124.80L120.76 124.80Q118.72 124.80 117.52 125.84Q116.32 126.88 116.04 128.60Z M143.46 141.36L143.46 141.36Q140.50 141.36 138.24 140.10Q135.98 138.84 134.72 136.54Q133.46 134.24 133.46 131.12L133.46 131.12L133.46 130.64Q133.46 127.52 134.70 125.22Q135.94 122.92 138.18 121.66Q140.42 120.40 143.38 120.40L143.38 120.40Q146.30 120.40 148.46 121.70Q150.62 123.00 151.82 125.30Q153.02 127.60 153.02 130.64L153.02 130.64L153.02 132.36L138.58 132.36Q138.66 134.40 140.10 135.68Q141.54 136.96 143.62 136.96L143.62 136.96Q145.74 136.96 146.74 136.04Q147.74 135.12 148.26 134L148.26 134L152.38 136.16Q151.82 137.20 150.76 138.42Q149.70 139.64 147.94 140.50Q146.18 141.36 143.46 141.36ZM138.62 128.60L138.62 128.60L147.90 128.60Q147.74 126.88 146.52 125.84Q145.30 124.80 143.34 124.80L143.34 124.80Q141.30 124.80 140.10 125.84Q138.90 126.88 138.62 128.60Z" fill="#f1ece2"></path><svg x="18.81" y="170.00" width="202.38" height="104.00" viewBox="0 0 360 185" overflow="visible"><g transform="translate(14.715 29.690)"><g transform="translate(64.98,0)"><path d="M22.88 133.59 L22.88 133.59 Q21.33 133.16 20.38 132.82 L20.38 132.82 L19.44 132.56 Q19.61 132.13 19.31 131.78 Q19.01 131.44 18.06 131.35 L18.06 131.35 Q16.77 130.49 15.39 128.95 Q14.02 127.40 12.99 125.76 Q11.95 124.13 11.61 123.36 L11.61 123.36 Q11.18 122.32 11.44 121.98 L11.44 121.98 Q11.52 121.81 11.70 121.72 L11.70 121.72 Q12.38 121.46 13.33 121.03 L13.33 121.03 Q14.28 120.35 15.35 120.00 Q16.43 119.66 17.11 121.12 L17.11 121.12 Q18.23 123.10 20.60 124.47 Q22.96 125.85 26.02 126.11 Q29.07 126.37 32.16 125.08 L32.16 125.08 Q34.23 124.13 34.40 122.45 Q34.57 120.78 33.11 118.54 L33.11 118.54 Q32.85 117.85 32.38 117.42 Q31.91 116.99 31.00 116.30 Q30.10 115.62 28.47 114.07 L28.47 114.07 Q27.18 113.47 26.10 112.95 Q25.03 112.43 23.82 111.83 L23.82 111.83 Q22.45 111.14 20.73 109.90 Q19.01 108.65 17.54 107.14 Q16.08 105.64 15.31 104.26 L15.31 104.26 Q13.93 102.97 13.59 100.69 Q13.24 98.42 13.72 95.84 Q14.19 93.26 15.31 91.19 L15.31 91.19 Q15.82 89.99 17.20 88.05 Q18.58 86.12 20.30 84.05 Q22.02 81.99 23.61 80.31 Q25.20 78.64 26.14 78.03 L26.14 78.03 Q26.83 77.35 27.61 76.57 L27.61 76.57 L28.38 75.88 Q28.47 75.45 28.72 75.45 L28.72 75.45 L28.90 75.45 Q29.33 75.20 30.79 74.59 Q32.25 73.99 33.97 72.36 L33.97 72.36 Q39.73 69.61 43.77 68.62 Q47.82 67.63 50.14 67.63 L50.14 67.63 Q52.29 67.71 54.35 68.79 Q56.42 69.86 57.92 71.50 Q59.43 73.13 59.68 75.20 L59.68 75.20 Q60.29 77.26 59.13 80.14 Q57.96 83.02 55.94 85.56 Q53.92 88.10 51.77 89.30 L51.77 89.30 Q49.36 90.33 47.69 89.56 Q46.01 88.78 46.10 87.15 L46.10 87.15 Q46.10 86.46 46.57 85.52 Q47.04 84.57 49.19 82.16 L49.19 82.16 Q51.94 78.12 52.12 76.40 Q52.29 74.68 50.57 74.42 L50.57 74.42 Q50.05 74.25 48.59 74.51 Q47.13 74.77 45.45 75.15 Q43.77 75.54 42.53 75.97 Q41.28 76.40 41.28 76.57 L41.28 76.57 L41.28 76.83 Q41.28 76.92 41.19 77.00 L41.19 77.00 Q41.19 77.09 40.94 77.00 L40.94 77.00 Q40.76 77.00 39.78 77.56 Q38.79 78.12 37.41 78.98 Q36.03 79.84 34.70 80.74 Q33.37 81.65 32.42 82.33 Q31.48 83.02 31.39 83.19 L31.39 83.19 Q31.22 84.14 29.41 84.91 L29.41 84.91 Q27.69 85.95 26.40 87.84 Q25.11 89.73 23.39 92.65 L23.39 92.65 Q21.93 94.63 21.33 96.91 Q20.73 99.19 21.33 100.57 L21.33 100.57 Q21.76 101.94 23.69 103.28 Q25.63 104.61 28.98 106.59 L28.98 106.59 Q31.91 108.22 34.49 110.03 Q37.07 111.83 38.87 113.51 Q40.68 115.19 41.19 116.30 L41.19 116.30 Q42.23 117.77 42.44 119.66 Q42.66 121.55 42.44 123.31 Q42.23 125.08 41.88 126.19 L41.88 126.19 Q41.28 127.57 40.03 129.12 Q38.79 130.67 37.75 130.58 L37.75 130.58 Q36.81 130.84 36.34 131.18 Q35.86 131.53 35.26 131.78 L35.26 131.78 Q34.66 132.13 32.42 132.60 Q30.19 133.07 27.52 133.38 Q24.85 133.68 22.88 133.59 Z M67.77 126.28 L67.77 126.28 Q65.19 127.74 62.31 127.96 Q59.43 128.17 56.93 127.18 Q54.44 126.19 52.89 124.22 L52.89 124.22 Q52.03 123.10 51.26 120.65 Q50.48 118.20 51.00 113.98 L51.00 113.98 Q51.51 110.03 53.45 105.98 Q55.38 101.94 58.22 98.85 Q61.06 95.75 64.41 94.63 L64.41 94.63 Q65.62 94.20 66.86 93.99 Q68.11 93.77 70.18 93.94 L70.18 93.94 Q72.15 94.20 73.70 94.93 Q75.25 95.66 75.94 96.52 L75.94 96.52 Q77.31 97.90 77.74 99.19 Q78.17 100.48 78.09 101.68 L78.09 101.68 Q77.66 104.44 75.64 107.62 Q73.62 110.80 70.00 112.35 L70.00 112.35 Q68.54 112.95 66.56 113.12 Q64.59 113.29 61.15 112.61 L61.15 112.61 Q59.08 112.18 58.44 113.04 Q57.79 113.90 57.88 116.39 L57.88 116.39 Q58.05 117.94 58.61 119.10 Q59.17 120.26 60.72 120.69 L60.72 120.69 Q62.69 121.03 63.55 120.73 Q64.41 120.43 65.70 119.83 L65.70 119.83 Q66.39 119.40 67.08 118.88 L67.08 118.88 L68.37 117.85 Q68.97 117.34 69.40 117.08 L69.40 117.08 Q69.83 116.73 70.26 116.65 Q70.69 116.56 71.12 116.56 L71.12 116.56 Q72.07 116.65 72.93 117.59 Q73.79 118.54 74.05 119.40 L74.05 119.40 Q74.05 120.09 73.19 121.33 Q72.33 122.58 70.91 123.92 Q69.49 125.25 67.77 126.28 Z M66.65 107.10 L66.65 107.10 Q67.25 106.84 68.41 105.90 Q69.57 104.95 70.52 103.88 Q71.47 102.80 71.47 102.20 L71.47 102.20 Q71.47 101.25 70.22 100.57 Q68.97 99.88 66.99 100.31 L66.99 100.31 Q66.31 100.48 65.36 101.25 Q64.41 102.03 63.47 103.02 Q62.52 104.01 61.83 104.91 Q61.15 105.81 60.89 106.33 L60.89 106.33 Q61.23 106.76 62.26 107.02 Q63.30 107.27 64.54 107.27 Q65.79 107.27 66.65 107.10 Z M96.49 126.28 L96.49 126.28 Q93.91 127.74 91.03 127.96 Q88.15 128.17 85.66 127.18 Q83.16 126.19 81.61 124.22 L81.61 124.22 Q80.75 123.10 79.98 120.65 Q79.21 118.20 79.72 113.98 L79.72 113.98 Q80.24 110.03 82.17 105.98 Q84.11 101.94 86.95 98.85 Q89.78 95.75 93.14 94.63 L93.14 94.63 Q94.34 94.20 95.59 93.99 Q96.84 93.77 98.90 93.94 L98.90 93.94 Q100.88 94.20 102.43 94.93 Q103.97 95.66 104.66 96.52 L104.66 96.52 Q106.04 97.90 106.47 99.19 Q106.90 100.48 106.81 101.68 L106.81 101.68 Q106.38 104.44 104.36 107.62 Q102.34 110.80 98.73 112.35 L98.73 112.35 Q97.27 112.95 95.29 113.12 Q93.31 113.29 89.87 112.61 L89.87 112.61 Q87.81 112.18 87.16 113.04 Q86.52 113.90 86.60 116.39 L86.60 116.39 Q86.77 117.94 87.33 119.10 Q87.89 120.26 89.44 120.69 L89.44 120.69 Q91.42 121.03 92.28 120.73 Q93.14 120.43 94.43 119.83 L94.43 119.83 Q95.12 119.40 95.80 118.88 L95.80 118.88 L97.09 117.85 Q97.70 117.34 98.13 117.08 L98.13 117.08 Q98.56 116.73 98.99 116.65 Q99.42 116.56 99.85 116.56 L99.85 116.56 Q100.79 116.65 101.65 117.59 Q102.51 118.54 102.77 119.40 L102.77 119.40 Q102.77 120.09 101.91 121.33 Q101.05 122.58 99.63 123.92 Q98.21 125.25 96.49 126.28 Z M95.37 107.10 L95.37 107.10 Q95.98 106.84 97.14 105.90 Q98.30 104.95 99.24 103.88 Q100.19 102.80 100.19 102.20 L100.19 102.20 Q100.19 101.25 98.94 100.57 Q97.70 99.88 95.72 100.31 L95.72 100.31 Q95.03 100.48 94.08 101.25 Q93.14 102.03 92.19 103.02 Q91.25 104.01 90.56 104.91 Q89.87 105.81 89.61 106.33 L89.61 106.33 Q89.96 106.76 90.99 107.02 Q92.02 107.27 93.27 107.27 Q94.51 107.27 95.37 107.10 Z M118.42 145.20 L118.42 145.20 Q116.01 146.15 113.39 144.90 Q110.77 143.65 108.88 140.99 L108.88 140.99 Q108.53 140.47 107.84 139.14 Q107.16 137.80 106.51 136.26 Q105.87 134.71 105.56 133.59 Q105.26 132.47 105.52 132.30 L105.52 132.30 Q105.87 131.35 107.07 131.18 Q108.27 131.01 109.48 131.31 Q110.68 131.61 110.85 132.13 L110.85 132.13 Q111.11 132.73 111.37 133.38 Q111.63 134.02 112.01 134.58 Q112.40 135.14 112.75 135.57 L112.75 135.57 Q113.69 137.03 114.81 137.59 Q115.93 138.15 116.53 137.72 L116.53 137.72 Q117.99 136.60 118.72 135.09 Q119.45 133.59 120.66 129.81 L120.66 129.81 Q121.60 126.62 122.29 124.30 Q122.98 121.98 123.75 120.00 L123.75 120.00 Q124.01 118.97 124.44 118.20 L124.44 118.20 Q124.53 118.02 124.61 117.85 L124.61 117.85 Q123.41 118.71 122.46 119.57 L122.46 119.57 Q121.17 120.78 118.94 121.72 L118.94 121.72 Q118.42 122.32 116.40 122.45 Q114.38 122.58 112.49 121.98 L112.49 121.98 Q111.28 121.29 110.55 120.56 Q109.82 119.83 109.35 118.88 Q108.88 117.94 108.36 116.65 L108.36 116.65 Q107.76 115.36 108.19 112.43 Q108.62 109.51 109.74 106.59 L109.74 106.59 Q110.77 104.44 112.75 101.94 Q114.72 99.45 116.96 97.43 Q119.20 95.41 121.00 94.89 L121.00 94.89 Q121.69 94.55 123.41 94.07 Q125.13 93.60 126.68 94.03 L126.68 94.03 Q128.14 94.20 128.91 94.67 Q129.69 95.15 131.41 96.61 L131.41 96.61 Q132.53 97.73 134.16 99.49 Q135.79 101.25 136.22 102.46 L136.22 102.46 Q136.83 103.75 136.48 105.25 Q136.14 106.76 135.28 107.88 L135.28 107.88 Q134.50 108.99 133.64 110.11 Q132.78 111.23 132.35 113.21 L132.35 113.21 Q131.92 115.79 130.72 119.01 Q129.52 122.24 128.83 124.99 L128.83 124.99 L127.45 130.32 Q125.30 137.63 122.72 140.94 Q120.14 144.25 118.42 145.20 Z M116.62 115.62 L116.62 115.62 Q118.34 115.53 119.58 115.23 Q120.83 114.93 121.95 113.85 Q123.07 112.78 124.53 110.54 L124.53 110.54 Q125.99 108.48 126.59 106.76 Q127.19 105.04 127.02 102.89 L127.02 102.89 Q126.94 101.51 126.25 101.08 Q125.56 100.65 124.44 100.82 L124.44 100.82 Q122.81 101.08 121.52 102.16 Q120.23 103.23 118.51 105.47 L118.51 105.47 Q117.22 107.19 116.36 109.60 L116.36 109.60 Q115.50 112.18 115.63 113.72 Q115.76 115.27 116.62 115.62 Z M143.88 138.41 L143.88 138.41 Q143.36 138.75 141.56 137.59 Q139.75 136.43 138.55 135.05 L138.55 135.05 Q137.94 134.36 137.77 133.59 Q137.60 132.82 137.86 130.67 L137.86 130.67 Q138.20 129.72 138.24 128.86 Q138.29 128.00 138.29 127.66 L138.29 127.66 Q138.29 127.14 138.59 125.25 Q138.89 123.36 139.23 121.25 Q139.58 119.14 139.84 118.02 L139.84 118.02 Q139.84 117.94 139.96 117.42 Q140.09 116.91 140.18 116.65 L140.18 116.65 Q140.35 115.87 140.61 114.76 Q140.87 113.64 141.13 111.75 L141.13 111.75 Q141.81 109.60 142.29 107.49 Q142.76 105.38 142.76 104.61 L142.76 104.61 Q142.76 103.06 143.96 102.37 L143.96 102.37 Q144.05 101.94 144.48 101.04 Q144.91 100.14 145.25 99.53 L145.25 99.53 Q146.97 94.63 148.09 91.71 Q149.21 88.78 150.41 86.63 L150.41 86.63 Q150.93 85.17 151.57 83.62 Q152.22 82.08 152.91 81.22 L152.91 81.22 Q153.51 80.01 155.01 78.25 Q156.52 76.49 158.24 74.85 Q159.96 73.22 160.99 72.44 L160.99 72.44 Q162.88 71.50 164.52 70.90 Q166.15 70.29 167.96 70.29 L167.96 70.29 Q169.59 70.29 170.84 71.03 Q172.09 71.76 174.58 73.99 L174.58 73.99 Q175.44 75.11 175.44 76.14 Q175.44 77.17 175.01 77.86 L175.01 77.86 Q174.41 79.24 173.20 81.26 Q172.00 83.28 170.88 84.87 Q169.76 86.46 169.25 86.55 L169.25 86.55 Q168.22 87.15 167.10 86.89 Q165.98 86.63 165.98 85.34 L165.98 85.34 Q165.98 84.74 166.07 84.23 L166.07 84.23 L166.07 83.71 Q166.32 82.59 166.71 81.73 Q167.10 80.87 167.44 80.27 L167.44 80.27 Q168.13 79.15 167.83 78.12 Q167.53 77.09 165.64 77.26 L165.64 77.26 Q165.38 77.43 164.65 78.08 Q163.92 78.72 163.10 79.54 Q162.28 80.36 161.68 81.09 Q161.08 81.82 161.08 82.08 L161.08 82.08 L160.65 82.94 Q160.13 83.88 159.19 85.00 L159.19 85.00 Q158.58 85.86 158.15 86.63 Q157.72 87.41 157.72 87.84 L157.72 87.84 Q157.72 88.18 157.64 88.44 Q157.55 88.70 157.21 88.70 L157.21 88.70 L156.95 89.56 Q156.61 90.42 155.92 91.62 L155.92 91.62 Q155.57 92.48 155.19 93.21 Q154.80 93.94 154.46 94.29 L154.46 94.29 L154.37 94.46 L154.03 95.41 Q153.60 96.44 153.17 97.47 Q152.74 98.50 152.74 98.67 L152.74 98.67 Q152.74 99.02 153.77 99.02 Q154.80 99.02 156.26 98.72 Q157.72 98.42 159.10 98.07 L159.10 98.07 Q160.30 97.73 160.82 97.73 Q161.34 97.73 162.45 98.07 L162.45 98.07 Q163.14 98.50 163.57 99.58 Q164.00 100.65 164.22 101.73 Q164.43 102.80 164.26 103.32 L164.26 103.32 Q164.17 103.66 162.32 104.26 Q160.48 104.87 158.67 105.21 L158.67 105.21 Q157.12 105.55 155.19 105.94 Q153.25 106.33 151.79 106.72 Q150.33 107.10 150.24 107.45 L150.24 107.45 Q149.90 107.45 149.68 107.88 Q149.47 108.31 149.47 108.65 L149.47 108.65 Q149.47 109.77 149.04 110.46 L149.04 110.46 Q148.87 110.97 148.48 112.56 Q148.09 114.15 147.70 116.00 Q147.32 117.85 147.02 119.44 Q146.72 121.03 146.72 121.55 L146.72 121.55 Q146.20 122.15 146.11 123.06 Q146.03 123.96 146.03 124.65 L146.03 124.65 Q145.68 125.33 145.60 125.89 Q145.51 126.45 145.51 126.80 L145.51 126.80 L145.51 127.14 Q145.51 127.40 145.43 127.66 L145.43 127.66 Q145.34 128.52 145.21 129.94 Q145.08 131.35 145.08 132.73 L145.08 132.73 L144.82 135.22 Q144.74 136.34 144.52 137.16 Q144.31 137.98 143.88 138.41 Z M186.02 127.83 L186.02 127.83 Q185.16 126.97 184.64 125.46 Q184.13 123.96 183.61 121.98 L183.61 121.98 Q183.44 121.29 183.48 120.43 Q183.52 119.57 183.44 119.06 L183.44 119.06 Q183.18 119.66 182.62 120.60 Q182.06 121.55 181.55 121.98 L181.55 121.98 Q181.20 122.32 180.00 123.31 Q178.79 124.30 177.59 124.90 L177.59 124.90 Q174.75 126.71 172.56 126.58 Q170.37 126.45 168.73 124.39 L168.73 124.39 Q167.36 123.27 166.50 121.55 Q165.64 119.83 166.15 117.42 L166.15 117.42 Q166.32 114.41 167.01 111.53 Q167.70 108.65 169.85 103.83 L169.85 103.83 Q171.66 100.31 172.60 98.33 Q173.55 96.35 173.81 96.01 L173.81 96.01 Q175.10 95.58 176.99 96.05 Q178.88 96.52 179.05 97.73 L179.05 97.73 Q179.57 98.59 179.05 100.95 Q178.54 103.32 176.99 106.33 L176.99 106.33 Q175.78 109.25 174.71 112.00 Q173.63 114.76 173.42 116.65 Q173.20 118.54 174.41 118.97 L174.41 118.97 Q175.18 119.40 176.69 118.88 Q178.19 118.37 180.26 115.79 Q182.32 113.21 184.64 107.62 L184.64 107.62 Q185.33 105.90 185.67 104.56 Q186.02 103.23 186.10 101.60 L186.10 101.60 Q185.93 100.57 186.66 99.45 Q187.39 98.33 188.43 97.73 L188.43 97.73 Q188.77 97.30 189.37 96.87 L189.37 96.87 Q189.80 96.61 189.97 96.78 L189.97 96.78 Q190.06 96.78 190.15 96.95 L190.15 96.95 L191.52 96.87 Q191.87 96.78 192.30 97.56 Q192.73 98.33 193.16 98.67 L193.16 98.67 Q194.10 99.45 194.02 102.03 Q193.93 104.61 191.95 109.25 L191.95 109.25 Q190.32 112.78 189.76 114.58 Q189.20 116.39 189.11 118.11 L189.11 118.11 Q189.11 119.66 189.37 120.73 Q189.63 121.81 190.92 122.93 L190.92 122.93 Q191.87 123.53 191.99 124.95 Q192.12 126.37 192.04 127.40 L192.04 127.40 Q191.87 128.17 190.70 128.47 Q189.54 128.77 188.21 128.60 Q186.88 128.43 186.02 127.83 Z M197.80 126.54 L197.80 126.54 Q197.11 125.85 196.81 124.47 Q196.51 123.10 196.60 121.77 Q196.68 120.43 197.03 119.74 L197.03 119.74 Q197.03 119.06 197.24 118.67 Q197.46 118.28 197.37 117.94 L197.37 117.94 Q197.28 117.59 197.54 116.73 Q197.80 115.87 198.06 115.10 L198.06 115.10 Q198.66 113.72 199.43 111.53 Q200.21 109.34 200.98 107.06 Q201.76 104.78 202.27 103.10 Q202.79 101.43 202.87 101.08 L202.87 101.08 Q202.87 100.05 204.25 99.96 L204.25 99.96 Q205.28 99.62 206.74 100.82 Q208.21 102.03 209.07 103.40 L209.07 103.40 Q209.75 104.09 209.58 105.21 Q209.41 106.33 208.46 108.39 L208.46 108.39 Q208.12 109.08 207.65 110.67 Q207.17 112.26 207.00 113.29 L207.00 113.29 Q206.66 113.98 206.18 115.23 Q205.71 116.48 205.37 117.59 L205.37 117.59 Q205.20 118.02 205.02 119.19 Q204.85 120.35 204.59 121.55 Q204.34 122.75 203.91 123.44 L203.91 123.44 Q203.13 126.97 201.20 127.57 Q199.26 128.17 197.80 126.54 Z " fill="#f1ece2"></path><defs><mask id="hm2" maskUnits="userSpaceOnUse"><path d="M0,3 C0,-3 -9,-6 -9,-13 C-9,-19 -2,-20 0,-14 C2,-20 9,-19 9,-13 C9,-6 0,-3 0,3 Z" fill="#fff"></path><path d="M-7.5,-8 q2.5,-3.4 5,0 t5,0 t5,0" fill="none" stroke="#000" stroke-width="2.1" stroke-linecap="round"></path></mask></defs><g transform="translate(210.40,95.23) rotate(12) scale(0.940)"><path d="M0,3 C0,-3 -9,-6 -9,-13 C-9,-19 -2,-20 0,-14 C2,-20 9,-19 9,-13 C9,-6 0,-3 0,3 Z" fill="#d23b34" mask="url(#hm2)"></path></g></g></g></svg><g transform="translate(0 10)"><path d="M54.70 280L52.57 280L56.37 266.70L59.98 266.70L63.76 280L61.65 280L60.78 276.87L55.57 276.87L54.70 280ZM58.02 267.97L56.08 274.96L60.26 274.96L58.33 267.97L58.02 267.97Z M72.56 280L70.56 280L70.56 266.70L74.42 266.70L77.33 278.63L77.63 278.63L80.54 266.70L84.40 266.70L84.40 280L82.40 280L82.40 268.14L82.10 268.14L79.21 280L75.75 280L72.86 268.14L72.56 268.14L72.56 280Z M94.17 280L92.17 280L92.17 266.70L96.03 266.70L98.93 278.63L99.24 278.63L102.14 266.70L106.00 266.70L106.00 280L104.01 280L104.01 268.14L103.70 268.14L100.81 280L97.36 280L94.47 268.14L94.17 268.14L94.17 280Z M122.25 280L113.78 280L113.78 266.70L122.16 266.70L122.16 268.56L115.83 268.56L115.83 272.38L121.62 272.38L121.62 274.24L115.83 274.24L115.83 278.14L122.25 278.14L122.25 280Z M131.45 280L129.40 280L129.40 266.70L134.98 266.70Q136.22 266.70 137.16 267.13Q138.10 267.56 138.62 268.35Q139.14 269.15 139.14 270.25L139.14 270.25L139.14 270.46Q139.14 271.72 138.55 272.47Q137.95 273.22 137.09 273.52L137.09 273.52L137.09 273.82Q137.81 273.86 138.25 274.31Q138.69 274.76 138.69 275.59L138.69 275.59L138.69 280L136.62 280L136.62 275.88Q136.62 275.36 136.35 275.06Q136.08 274.76 135.50 274.76L135.50 274.76L131.45 274.76L131.45 280ZM131.45 268.56L131.45 272.89L134.75 272.89Q135.86 272.89 136.47 272.33Q137.07 271.77 137.07 270.80L137.07 270.80L137.07 270.65Q137.07 269.68 136.47 269.12Q135.88 268.56 134.75 268.56L134.75 268.56L131.45 268.56Z M150.93 280.27L150.93 280.27Q149.43 280.27 148.27 279.73Q147.11 279.20 146.45 278.17Q145.80 277.13 145.80 275.65L145.80 275.65L145.80 275.17L147.83 275.17L147.83 275.65Q147.83 277.06 148.68 277.76Q149.52 278.46 150.93 278.46L150.93 278.46Q152.35 278.46 153.07 277.86Q153.80 277.26 153.80 276.31L153.80 276.31Q153.80 275.69 153.45 275.29Q153.11 274.89 152.49 274.65Q151.86 274.41 150.98 274.20L150.98 274.20L150.28 274.03Q149.01 273.73 148.07 273.28Q147.13 272.84 146.61 272.10Q146.10 271.36 146.10 270.20L146.10 270.20Q146.10 269.02 146.68 268.18Q147.26 267.35 148.29 266.89Q149.31 266.43 150.70 266.43L150.70 266.43Q152.09 266.43 153.18 266.91Q154.27 267.38 154.90 268.31Q155.53 269.25 155.53 270.65L155.53 270.65L155.53 271.34L153.49 271.34L153.49 270.65Q153.49 269.80 153.14 269.26Q152.79 268.73 152.16 268.49Q151.53 268.24 150.70 268.24L150.70 268.24Q149.48 268.24 148.81 268.74Q148.13 269.25 148.13 270.14L148.13 270.14Q148.13 270.75 148.43 271.14Q148.72 271.53 149.29 271.77Q149.86 272.02 150.72 272.21L150.72 272.21L151.42 272.38Q152.71 272.67 153.70 273.11Q154.69 273.56 155.26 274.32Q155.83 275.08 155.83 276.28L155.83 276.28Q155.83 277.47 155.23 278.37Q154.63 279.26 153.53 279.76Q152.43 280.27 150.93 280.27Z M171.45 280L162.98 280L162.98 266.70L171.35 266.70L171.35 268.56L165.03 268.56L165.03 272.38L170.82 272.38L170.82 274.24L165.03 274.24L165.03 278.14L171.45 278.14L171.45 280Z M187.07 280L178.60 280L178.60 266.70L186.98 266.70L186.98 268.56L180.65 268.56L180.65 272.38L186.44 272.38L186.44 274.24L180.65 274.24L180.65 278.14L187.07 278.14L187.07 280Z" fill="#9aa6d6"></path></g></svg>