<svg xmlns="http://www.w3.org/2000/svg" width="360" height="470" viewBox="0 0 360 470"><g transform="translate(180,235) scale(2.8666666666666667)"><path d="M26.6,15.6 L23.3,9.6 L24.9,5.6 L23.4,3 L19.7,2.1 L14.4,7 L13.1,5.4 L11.2,5.8 L9.4,2 L6.3,1.2 L1.8,-9.1 L-2.9,-41.5 L3.9,-62.7 L2.4,-72.7 L0.6,-75 L-4.9,-74.9 L-12.4,-67.5 L-16.6,-67.1 L-22,-57.2 L-21.6,-53 L-24.3,-47.3 L-23.7,-41.3 L-25.6,-36.4 L-24.6,-30.6 L-25.8,-26.6 L-23.8,-21.8 L-26.6,-12.8 L-26,-9.3 L-22.8,-5.3 L-25.1,0.3 L-23.1,20.5 L-24.3,26.8 L-20.4,36.9 L-20.7,40.6 L-16.7,48.4 L-18.3,54.5 L-17.2,59.2 L-12,60.7 L-10.4,65.3 L-7.5,69.5 L-3,73.5 L2,75 L7,73 L10.5,69.5 L12.3,66.1 L11.7,33.9 L16.2,25.7 L26.6,16.1 Z" fill="none" stroke="#aac072" stroke-width="1.116" stroke-linejoin="round" stroke-linecap="round" opacity="0.3"></path></g><g transform="translate(117.550,179)"><path d="M11.040 0.560L11.040 0.560Q7.160 0.560 4.680-1.120Q2.200-2.800 1.680-5.920L1.680-5.920L6.320-7.120Q6.600-5.720 7.260-4.920Q7.920-4.120 8.900-3.780Q9.880-3.440 11.040-3.440L11.040-3.440Q12.800-3.440 13.640-4.060Q14.480-4.680 14.480-5.600L14.480-5.600Q14.480-6.520 13.680-7.020Q12.880-7.520 11.120-7.840L11.120-7.840L10-8.040Q7.920-8.440 6.200-9.140Q4.480-9.840 3.440-11.080Q2.400-12.320 2.400-14.280L2.400-14.280Q2.400-17.240 4.560-18.820Q6.720-20.400 10.240-20.400L10.240-20.400Q13.560-20.400 15.760-18.920Q17.960-17.440 18.640-15.040L18.640-15.040L13.960-13.600Q13.640-15.120 12.660-15.760Q11.680-16.400 10.240-16.400L10.240-16.400Q8.800-16.400 8.040-15.900Q7.280-15.400 7.280-14.520L7.280-14.520Q7.280-13.560 8.080-13.100Q8.880-12.640 10.240-12.400L10.240-12.400L11.360-12.200Q13.600-11.800 15.420-11.140Q17.240-10.480 18.300-9.260Q19.360-8.040 19.360-5.960L19.360-5.960Q19.360-2.840 17.100-1.140Q14.840 0.560 11.040 0.560Z M32.300 0.560L32.300 0.560Q29.340 0.560 27.080-0.700Q24.820-1.960 23.560-4.260Q22.300-6.560 22.300-9.680L22.300-9.680L22.300-10.160Q22.300-13.280 23.540-15.580Q24.780-17.880 27.020-19.140Q29.260-20.400 32.220-20.400L32.220-20.400Q35.140-20.400 37.300-19.100Q39.460-17.800 40.660-15.500Q41.860-13.200 41.860-10.160L41.860-10.160L41.860-8.440L27.420-8.440Q27.500-6.400 28.940-5.120Q30.380-3.840 32.460-3.840L32.460-3.840Q34.580-3.840 35.580-4.760Q36.580-5.680 37.100-6.800L37.100-6.800L41.220-4.640Q40.660-3.600 39.600-2.380Q38.540-1.160 36.780-0.300Q35.020 0.560 32.300 0.560ZM27.460-12.200L27.460-12.200L36.740-12.200Q36.580-13.920 35.360-14.960Q34.140-16 32.180-16L32.180-16Q30.140-16 28.940-14.960Q27.740-13.920 27.460-12.200Z M50.880 0L45.840 0L45.840-19.840L50.800-19.840L50.800-17.600L51.520-17.600Q51.960-18.800 52.980-19.360Q54.000-19.920 55.360-19.920L55.360-19.920L57.760-19.920L57.760-15.440L55.280-15.440Q53.360-15.440 52.120-14.420Q50.880-13.400 50.880-11.280L50.880-11.280L50.880 0Z M73.340 0L65.340 0L59.020-19.840L64.380-19.840L68.980-3.680L69.700-3.680L74.300-19.840L79.660-19.840L73.340 0Z M90.160 0.320L90.160 0.320Q87.840 0.320 86.100-0.740Q84.360-1.800 83.400-3.680Q82.440-5.560 82.440-8L82.440-8L82.440-19.840L87.480-19.840L87.480-8.400Q87.480-6.160 88.580-5.040Q89.680-3.920 91.720-3.920L91.720-3.920Q94.040-3.920 95.320-5.460Q96.600-7 96.600-9.760L96.600-9.760L96.600-19.840L101.640-19.840L101.640 0L96.680 0L96.680-2.600L95.960-2.600Q95.480-1.600 94.160-0.640Q92.840 0.320 90.160 0.320Z M114.980 0.560L114.980 0.560Q111.100 0.560 108.620-1.120Q106.140-2.800 105.620-5.920L105.620-5.920L110.260-7.120Q110.540-5.720 111.200-4.920Q111.860-4.120 112.840-3.780Q113.820-3.440 114.980-3.440L114.980-3.440Q116.740-3.440 117.580-4.060Q118.420-4.680 118.420-5.600L118.420-5.600Q118.420-6.520 117.620-7.020Q116.820-7.520 115.060-7.840L115.060-7.840L113.940-8.040Q111.860-8.440 110.140-9.140Q108.420-9.840 107.380-11.080Q106.340-12.320 106.340-14.280L106.340-14.280Q106.340-17.240 108.500-18.820Q110.660-20.400 114.180-20.400L114.180-20.400Q117.500-20.400 119.700-18.920Q121.900-17.440 122.580-15.040L122.580-15.040L117.900-13.600Q117.580-15.120 116.600-15.760Q115.620-16.400 114.180-16.400L114.180-16.400Q112.740-16.400 111.980-15.900Q111.220-15.400 111.220-14.520L111.220-14.520Q111.220-13.560 112.020-13.100Q112.820-12.640 114.180-12.400L114.180-12.400L115.300-12.200Q117.540-11.800 119.360-11.140Q121.180-10.480 122.240-9.260Q123.300-8.040 123.300-5.960L123.300-5.960Q123.300-2.840 121.040-1.140Q118.780 0.560 114.980 0.560Z" fill="#f1ece2"></path></g><g transform="translate(100.940,221)"><path d="M14.960 0L6.960 0L0.640-19.840L6-19.840L10.600-3.680L11.320-3.680L15.920-19.840L21.280-19.840L14.960 0Z M33.660 0.560L33.660 0.560Q30.700 0.560 28.340-0.640Q25.980-1.840 24.620-4.120Q23.260-6.400 23.260-9.600L23.260-9.600L23.260-10.240Q23.260-13.440 24.620-15.720Q25.980-18 28.340-19.200Q30.700-20.400 33.660-20.400L33.660-20.400Q36.620-20.400 38.980-19.200Q41.340-18 42.700-15.720Q44.060-13.440 44.060-10.240L44.060-10.240L44.060-9.600Q44.060-6.400 42.700-4.120Q41.340-1.840 38.980-0.640Q36.620 0.560 33.660 0.560ZM33.660-3.920L33.660-3.920Q35.980-3.920 37.500-5.420Q39.020-6.920 39.020-9.720L39.020-9.720L39.020-10.120Q39.020-12.920 37.520-14.420Q36.020-15.920 33.660-15.920L33.660-15.920Q31.340-15.920 29.820-14.420Q28.300-12.920 28.300-10.120L28.300-10.120L28.300-9.720Q28.300-6.920 29.820-5.420Q31.340-3.920 33.660-3.920Z M53.240 0L48.200 0L48.200-19.840L53.160-19.840L53.160-17.680L53.880-17.680Q54.400-18.680 55.600-19.420Q56.800-20.160 58.760-20.160L58.760-20.160Q60.880-20.160 62.160-19.340Q63.440-18.520 64.120-17.200L64.120-17.200L64.840-17.200Q65.520-18.480 66.760-19.320Q68-20.160 70.280-20.160L70.280-20.160Q72.120-20.160 73.620-19.380Q75.120-18.600 76.020-17.020Q76.920-15.440 76.920-13.040L76.920-13.040L76.920 0L71.880 0L71.880-12.680Q71.880-14.320 71.040-15.140Q70.200-15.960 68.680-15.960L68.680-15.960Q66.960-15.960 66.020-14.860Q65.080-13.760 65.080-11.720L65.080-11.720L65.080 0L60.040 0L60.040-12.680Q60.040-14.320 59.200-15.140Q58.360-15.960 56.840-15.960L56.840-15.960Q55.120-15.960 54.180-14.860Q53.240-13.760 53.240-11.720L53.240-11.720L53.240 0Z  M101.080 0.560L101.080 0.560Q97.840 0.560 95.360-0.600Q92.880-1.760 91.480-3.920Q90.080-6.080 90.080-9.120L90.080-9.120L90.080-10.240L95.280-10.240L95.280-9.120Q95.280-6.600 96.840-5.340Q98.400-4.080 101.080-4.080L101.080-4.080Q103.800-4.080 105.140-5.160Q106.480-6.240 106.480-7.920L106.480-7.920Q106.480-9.080 105.820-9.800Q105.160-10.520 103.900-10.980Q102.640-11.440 100.840-11.840L100.840-11.840L99.920-12.040Q97.040-12.680 94.980-13.660Q92.920-14.640 91.820-16.240Q90.720-17.840 90.720-20.400L90.720-20.400Q90.720-22.960 91.940-24.780Q93.160-26.600 95.380-27.580Q97.600-28.560 100.600-28.560L100.600-28.560Q103.600-28.560 105.940-27.540Q108.280-26.520 109.620-24.500Q110.960-22.480 110.960-19.440L110.960-19.440L110.960-18.240L105.760-18.240L105.760-19.440Q105.760-21.040 105.140-22.020Q104.520-23 103.360-23.460Q102.200-23.920 100.600-23.920L100.600-23.920Q98.200-23.920 97.060-23.020Q95.920-22.120 95.920-20.560L95.920-20.560Q95.920-19.520 96.460-18.800Q97-18.080 98.080-17.600Q99.160-17.120 100.840-16.760L100.840-16.760L101.760-16.560Q104.760-15.920 106.980-14.920Q109.200-13.920 110.440-12.280Q111.680-10.640 111.680-8.080L111.680-8.080Q111.680-5.520 110.380-3.580Q109.080-1.640 106.700-0.540Q104.320 0.560 101.080 0.560Z M124.300 0.560L124.300 0.560Q121.340 0.560 119.080-0.700Q116.820-1.960 115.560-4.260Q114.300-6.560 114.300-9.680L114.300-9.680L114.300-10.160Q114.300-13.280 115.540-15.580Q116.780-17.880 119.020-19.140Q121.260-20.400 124.220-20.400L124.220-20.400Q127.140-20.400 129.300-19.100Q131.460-17.800 132.660-15.500Q133.860-13.200 133.860-10.160L133.860-10.160L133.860-8.440L119.420-8.440Q119.500-6.400 120.940-5.120Q122.380-3.840 124.460-3.840L124.460-3.840Q126.580-3.840 127.580-4.760Q128.580-5.680 129.100-6.800L129.100-6.800L133.220-4.640Q132.660-3.600 131.600-2.380Q130.540-1.160 128.780-0.300Q127.020 0.560 124.300 0.560ZM119.460-12.200L119.460-12.200L128.740-12.200Q128.580-13.920 127.360-14.960Q126.140-16 124.180-16L124.180-16Q122.140-16 120.940-14.960Q119.740-13.920 119.460-12.200Z M146.880 0.560L146.880 0.560Q143.920 0.560 141.660-0.700Q139.400-1.960 138.140-4.260Q136.880-6.560 136.880-9.680L136.880-9.680L136.880-10.160Q136.880-13.280 138.120-15.580Q139.360-17.880 141.600-19.140Q143.840-20.400 146.800-20.400L146.800-20.400Q149.720-20.400 151.880-19.100Q154.040-17.800 155.240-15.500Q156.440-13.200 156.440-10.160L156.440-10.160L156.440-8.440L142.000-8.440Q142.080-6.400 143.520-5.120Q144.960-3.840 147.040-3.840L147.040-3.840Q149.160-3.840 150.160-4.760Q151.160-5.680 151.680-6.800L151.680-6.800L155.800-4.640Q155.240-3.600 154.180-2.380Q153.120-1.160 151.360-0.300Q149.600 0.560 146.880 0.560ZM142.040-12.200L142.040-12.200L151.320-12.200Q151.160-13.920 149.940-14.960Q148.720-16 146.760-16L146.760-16Q144.720-16 143.520-14.960Q142.320-13.920 142.040-12.200Z" fill="#f1ece2"></path></g><g transform="translate(93.210,338)"><path d="M17.556 4.290L17.556 4.290Q16.368 3.960 15.642 3.696L15.642 3.696L14.916 3.498Q15.048 3.168 14.817 2.904Q14.586 2.640 13.860 2.574L13.860 2.574Q12.870 1.914 11.814 0.726Q10.758-0.462 9.966-1.716Q9.174-2.970 8.910-3.564L8.910-3.564Q8.580-4.356 8.778-4.620L8.778-4.620Q8.844-4.752 8.976-4.818L8.976-4.818Q9.504-5.016 10.230-5.346L10.230-5.346Q10.956-5.874 11.781-6.138Q12.606-6.402 13.134-5.280L13.134-5.280Q13.992-3.762 15.807-2.706Q17.622-1.650 19.965-1.452Q22.308-1.254 24.684-2.244L24.684-2.244Q26.268-2.970 26.400-4.257Q26.532-5.544 25.410-7.260L25.410-7.260Q25.212-7.788 24.849-8.118Q24.486-8.448 23.793-8.976Q23.100-9.504 21.846-10.692L21.846-10.692Q20.856-11.154 20.031-11.550Q19.206-11.946 18.282-12.408L18.282-12.408Q17.226-12.936 15.906-13.893Q14.586-14.850 13.464-16.005Q12.342-17.160 11.748-18.216L11.748-18.216Q10.692-19.206 10.428-20.955Q10.164-22.704 10.527-24.684Q10.890-26.664 11.748-28.248L11.748-28.248Q12.144-29.172 13.200-30.657Q14.256-32.142 15.576-33.726Q16.896-35.310 18.117-36.597Q19.338-37.884 20.064-38.346L20.064-38.346Q20.592-38.874 21.186-39.468L21.186-39.468L21.780-39.996Q21.846-40.326 22.044-40.326L22.044-40.326L22.176-40.326Q22.506-40.524 23.628-40.986Q24.750-41.448 26.070-42.702L26.070-42.702Q30.492-44.814 33.594-45.573Q36.696-46.332 38.478-46.332L38.478-46.332Q40.128-46.266 41.712-45.441Q43.296-44.616 44.451-43.362Q45.606-42.108 45.804-40.524L45.804-40.524Q46.266-38.940 45.375-36.729Q44.484-34.518 42.933-32.571Q41.382-30.624 39.732-29.700L39.732-29.700Q37.884-28.908 36.597-29.502Q35.310-30.096 35.376-31.350L35.376-31.350Q35.376-31.878 35.739-32.604Q36.102-33.330 37.752-35.178L37.752-35.178Q39.864-38.280 39.996-39.600Q40.128-40.920 38.808-41.118L38.808-41.118Q38.412-41.250 37.290-41.052Q36.168-40.854 34.881-40.557Q33.594-40.260 32.637-39.930Q31.680-39.600 31.680-39.468L31.680-39.468L31.680-39.270Q31.680-39.204 31.614-39.138L31.614-39.138Q31.614-39.072 31.416-39.138L31.416-39.138Q31.284-39.138 30.525-38.709Q29.766-38.280 28.710-37.620Q27.654-36.960 26.631-36.267Q25.608-35.574 24.882-35.046Q24.156-34.518 24.090-34.386L24.090-34.386Q23.958-33.660 22.572-33.066L22.572-33.066Q21.252-32.274 20.262-30.822Q19.272-29.370 17.952-27.126L17.952-27.126Q16.830-25.608 16.368-23.859Q15.906-22.110 16.368-21.054L16.368-21.054Q16.698-19.998 18.183-18.975Q19.668-17.952 22.242-16.434L22.242-16.434Q24.486-15.180 26.466-13.794Q28.446-12.408 29.832-11.121Q31.218-9.834 31.614-8.976L31.614-8.976Q32.406-7.854 32.571-6.402Q32.736-4.950 32.571-3.597Q32.406-2.244 32.142-1.386L32.142-1.386Q31.680-0.330 30.723 0.858Q29.766 2.046 28.974 1.980L28.974 1.980Q28.248 2.178 27.885 2.442Q27.522 2.706 27.060 2.904L27.060 2.904Q26.598 3.168 24.882 3.531Q23.166 3.894 21.120 4.125Q19.074 4.356 17.556 4.290Z M52.008-1.320L52.008-1.320Q50.028-0.198 47.817-0.033Q45.606 0.132 43.692-0.627Q41.778-1.386 40.590-2.904L40.590-2.904Q39.930-3.762 39.336-5.643Q38.742-7.524 39.138-10.758L39.138-10.758Q39.534-13.794 41.019-16.896Q42.504-19.998 44.682-22.374Q46.860-24.750 49.434-25.608L49.434-25.608Q50.358-25.938 51.315-26.103Q52.272-26.268 53.856-26.136L53.856-26.136Q55.374-25.938 56.562-25.377Q57.750-24.816 58.278-24.156L58.278-24.156Q59.334-23.100 59.664-22.110Q59.994-21.120 59.928-20.196L59.928-20.196Q59.598-18.084 58.047-15.642Q56.496-13.200 53.724-12.012L53.724-12.012Q52.602-11.550 51.084-11.418Q49.566-11.286 46.926-11.814L46.926-11.814Q45.342-12.144 44.847-11.484Q44.352-10.824 44.418-8.910L44.418-8.910Q44.550-7.722 44.979-6.831Q45.408-5.940 46.596-5.610L46.596-5.610Q48.114-5.346 48.774-5.577Q49.434-5.808 50.424-6.270L50.424-6.270Q50.952-6.600 51.480-6.996L51.480-6.996L52.470-7.788Q52.932-8.184 53.262-8.382L53.262-8.382Q53.592-8.646 53.922-8.712Q54.252-8.778 54.582-8.778L54.582-8.778Q55.308-8.712 55.968-7.986Q56.628-7.260 56.826-6.600L56.826-6.600Q56.826-6.072 56.166-5.115Q55.506-4.158 54.417-3.135Q53.328-2.112 52.008-1.320ZM51.150-16.038L51.150-16.038Q51.612-16.236 52.503-16.962Q53.394-17.688 54.120-18.513Q54.846-19.338 54.846-19.800L54.846-19.800Q54.846-20.526 53.889-21.054Q52.932-21.582 51.414-21.252L51.414-21.252Q50.886-21.120 50.160-20.526Q49.434-19.932 48.708-19.173Q47.982-18.414 47.454-17.721Q46.926-17.028 46.728-16.632L46.728-16.632Q46.992-16.302 47.784-16.104Q48.576-15.906 49.533-15.906Q50.490-15.906 51.150-16.038Z M74.052-1.320L74.052-1.320Q72.072-0.198 69.861-0.033Q67.650 0.132 65.736-0.627Q63.822-1.386 62.634-2.904L62.634-2.904Q61.974-3.762 61.380-5.643Q60.786-7.524 61.182-10.758L61.182-10.758Q61.578-13.794 63.063-16.896Q64.548-19.998 66.726-22.374Q68.904-24.750 71.478-25.608L71.478-25.608Q72.402-25.938 73.359-26.103Q74.316-26.268 75.900-26.136L75.900-26.136Q77.418-25.938 78.606-25.377Q79.794-24.816 80.322-24.156L80.322-24.156Q81.378-23.100 81.708-22.110Q82.038-21.120 81.972-20.196L81.972-20.196Q81.642-18.084 80.091-15.642Q78.540-13.200 75.768-12.012L75.768-12.012Q74.646-11.550 73.128-11.418Q71.610-11.286 68.970-11.814L68.970-11.814Q67.386-12.144 66.891-11.484Q66.396-10.824 66.462-8.910L66.462-8.910Q66.594-7.722 67.023-6.831Q67.452-5.940 68.640-5.610L68.640-5.610Q70.158-5.346 70.818-5.577Q71.478-5.808 72.468-6.270L72.468-6.270Q72.996-6.600 73.524-6.996L73.524-6.996L74.514-7.788Q74.976-8.184 75.306-8.382L75.306-8.382Q75.636-8.646 75.966-8.712Q76.296-8.778 76.626-8.778L76.626-8.778Q77.352-8.712 78.012-7.986Q78.672-7.260 78.870-6.600L78.870-6.600Q78.870-6.072 78.210-5.115Q77.550-4.158 76.461-3.135Q75.372-2.112 74.052-1.320ZM73.194-16.038L73.194-16.038Q73.656-16.236 74.547-16.962Q75.438-17.688 76.164-18.513Q76.890-19.338 76.890-19.800L76.890-19.800Q76.890-20.526 75.933-21.054Q74.976-21.582 73.458-21.252L73.458-21.252Q72.930-21.120 72.204-20.526Q71.478-19.932 70.752-19.173Q70.026-18.414 69.498-17.721Q68.970-17.028 68.772-16.632L68.772-16.632Q69.036-16.302 69.828-16.104Q70.620-15.906 71.577-15.906Q72.534-15.906 73.194-16.038Z M90.882 13.200L90.882 13.200Q89.034 13.926 87.021 12.969Q85.008 12.012 83.556 9.966L83.556 9.966Q83.292 9.570 82.764 8.547Q82.236 7.524 81.741 6.336Q81.246 5.148 81.015 4.290Q80.784 3.432 80.982 3.300L80.982 3.300Q81.246 2.574 82.170 2.442Q83.094 2.310 84.018 2.541Q84.942 2.772 85.074 3.168L85.074 3.168Q85.272 3.630 85.470 4.125Q85.668 4.620 85.965 5.049Q86.262 5.478 86.526 5.808L86.526 5.808Q87.252 6.930 88.110 7.359Q88.968 7.788 89.430 7.458L89.430 7.458Q90.552 6.600 91.113 5.445Q91.674 4.290 92.598 1.386L92.598 1.386Q93.324-1.056 93.852-2.838Q94.380-4.620 94.974-6.138L94.974-6.138Q95.172-6.930 95.502-7.524L95.502-7.524Q95.568-7.656 95.634-7.788L95.634-7.788Q94.710-7.128 93.984-6.468L93.984-6.468Q92.994-5.544 91.278-4.818L91.278-4.818Q90.882-4.356 89.331-4.257Q87.780-4.158 86.328-4.620L86.328-4.620Q85.404-5.148 84.843-5.709Q84.282-6.270 83.919-6.996Q83.556-7.722 83.160-8.712L83.160-8.712Q82.698-9.702 83.028-11.946Q83.358-14.190 84.216-16.434L84.216-16.434Q85.008-18.084 86.526-19.998Q88.044-21.912 89.760-23.463Q91.476-25.014 92.862-25.410L92.862-25.410Q93.390-25.674 94.710-26.037Q96.030-26.400 97.218-26.070L97.218-26.070Q98.340-25.938 98.934-25.575Q99.528-25.212 100.848-24.090L100.848-24.090Q101.706-23.232 102.960-21.879Q104.214-20.526 104.544-19.602L104.544-19.602Q105.006-18.612 104.742-17.457Q104.478-16.302 103.818-15.444L103.818-15.444Q103.224-14.586 102.564-13.728Q101.904-12.870 101.574-11.352L101.574-11.352Q101.244-9.372 100.320-6.897Q99.396-4.422 98.868-2.310L98.868-2.310L97.812 1.782Q96.162 7.392 94.182 9.933Q92.202 12.474 90.882 13.200ZM89.496-9.504L89.496-9.504Q90.816-9.570 91.773-9.801Q92.730-10.032 93.588-10.857Q94.446-11.682 95.568-13.398L95.568-13.398Q96.690-14.982 97.152-16.302Q97.614-17.622 97.482-19.272L97.482-19.272Q97.416-20.328 96.888-20.658Q96.360-20.988 95.502-20.856L95.502-20.856Q94.248-20.658 93.258-19.833Q92.268-19.008 90.948-17.292L90.948-17.292Q89.958-15.972 89.298-14.124L89.298-14.124Q88.638-12.144 88.737-10.956Q88.836-9.768 89.496-9.504Z M110.418 7.986L110.418 7.986Q110.022 8.250 108.636 7.359Q107.250 6.468 106.326 5.412L106.326 5.412Q105.864 4.884 105.732 4.290Q105.600 3.696 105.798 2.046L105.798 2.046Q106.062 1.320 106.095 0.660Q106.128 0 106.128-0.264L106.128-0.264Q106.128-0.660 106.359-2.112Q106.590-3.564 106.854-5.181Q107.118-6.798 107.316-7.656L107.316-7.656Q107.316-7.722 107.415-8.118Q107.514-8.514 107.580-8.712L107.580-8.712Q107.712-9.306 107.910-10.164Q108.108-11.022 108.306-12.474L108.306-12.474Q108.834-14.124 109.197-15.741Q109.560-17.358 109.560-17.952L109.560-17.952Q109.560-19.140 110.484-19.668L110.484-19.668Q110.550-19.998 110.880-20.691Q111.210-21.384 111.474-21.846L111.474-21.846Q112.794-25.608 113.652-27.852Q114.510-30.096 115.434-31.746L115.434-31.746Q115.830-32.868 116.325-34.056Q116.820-35.244 117.348-35.904L117.348-35.904Q117.810-36.828 118.965-38.181Q120.120-39.534 121.440-40.788Q122.760-42.042 123.552-42.636L123.552-42.636Q125.004-43.362 126.258-43.824Q127.512-44.286 128.898-44.286L128.898-44.286Q130.152-44.286 131.109-43.725Q132.066-43.164 133.980-41.448L133.980-41.448Q134.640-40.590 134.640-39.798Q134.640-39.006 134.310-38.478L134.310-38.478Q133.848-37.422 132.924-35.871Q132-34.320 131.142-33.099Q130.284-31.878 129.888-31.812L129.888-31.812Q129.096-31.350 128.238-31.548Q127.380-31.746 127.380-32.736L127.380-32.736Q127.380-33.198 127.446-33.594L127.446-33.594L127.446-33.990Q127.644-34.848 127.941-35.508Q128.238-36.168 128.502-36.630L128.502-36.630Q129.030-37.488 128.799-38.280Q128.568-39.072 127.116-38.940L127.116-38.940Q126.918-38.808 126.357-38.313Q125.796-37.818 125.169-37.191Q124.542-36.564 124.080-36.003Q123.618-35.442 123.618-35.244L123.618-35.244L123.288-34.584Q122.892-33.858 122.166-33L122.166-33Q121.704-32.340 121.374-31.746Q121.044-31.152 121.044-30.822L121.044-30.822Q121.044-30.558 120.978-30.360Q120.912-30.162 120.648-30.162L120.648-30.162L120.450-29.502Q120.186-28.842 119.658-27.918L119.658-27.918Q119.394-27.258 119.097-26.697Q118.800-26.136 118.536-25.872L118.536-25.872L118.470-25.740L118.206-25.014Q117.876-24.222 117.546-23.430Q117.216-22.638 117.216-22.506L117.216-22.506Q117.216-22.242 118.008-22.242Q118.800-22.242 119.922-22.473Q121.044-22.704 122.100-22.968L122.100-22.968Q123.024-23.232 123.420-23.232Q123.816-23.232 124.674-22.968L124.674-22.968Q125.202-22.638 125.532-21.813Q125.862-20.988 126.027-20.163Q126.192-19.338 126.060-18.942L126.060-18.942Q125.994-18.678 124.575-18.216Q123.156-17.754 121.770-17.490L121.770-17.490Q120.582-17.226 119.097-16.929Q117.612-16.632 116.490-16.335Q115.368-16.038 115.302-15.774L115.302-15.774Q115.038-15.774 114.873-15.444Q114.708-15.114 114.708-14.850L114.708-14.850Q114.708-13.992 114.378-13.464L114.378-13.464Q114.246-13.068 113.949-11.847Q113.652-10.626 113.355-9.207Q113.058-7.788 112.827-6.567Q112.596-5.346 112.596-4.950L112.596-4.950Q112.200-4.488 112.134-3.795Q112.068-3.102 112.068-2.574L112.068-2.574Q111.804-2.046 111.738-1.617Q111.672-1.188 111.672-0.924L111.672-0.924L111.672-0.660Q111.672-0.462 111.606-0.264L111.606-0.264Q111.540 0.396 111.441 1.485Q111.342 2.574 111.342 3.630L111.342 3.630L111.144 5.544Q111.078 6.402 110.913 7.029Q110.748 7.656 110.418 7.986Z M142.758-0.132L142.758-0.132Q142.098-0.792 141.702-1.947Q141.306-3.102 140.910-4.620L140.910-4.620Q140.778-5.148 140.811-5.808Q140.844-6.468 140.778-6.864L140.778-6.864Q140.580-6.402 140.151-5.676Q139.722-4.950 139.326-4.620L139.326-4.620Q139.062-4.356 138.138-3.597Q137.214-2.838 136.290-2.376L136.290-2.376Q134.112-0.990 132.429-1.089Q130.746-1.188 129.492-2.772L129.492-2.772Q128.436-3.630 127.776-4.950Q127.116-6.270 127.512-8.118L127.512-8.118Q127.644-10.428 128.172-12.639Q128.700-14.850 130.350-18.546L130.350-18.546Q131.736-21.252 132.462-22.770Q133.188-24.288 133.386-24.552L133.386-24.552Q134.376-24.882 135.828-24.519Q137.280-24.156 137.412-23.232L137.412-23.232Q137.808-22.572 137.412-20.757Q137.016-18.942 135.828-16.632L135.828-16.632Q134.904-14.388 134.079-12.276Q133.254-10.164 133.089-8.712Q132.924-7.260 133.848-6.930L133.848-6.930Q134.442-6.600 135.597-6.996Q136.752-7.392 138.336-9.372Q139.920-11.352 141.702-15.642L141.702-15.642Q142.230-16.962 142.494-17.985Q142.758-19.008 142.824-20.262L142.824-20.262Q142.692-21.054 143.253-21.912Q143.814-22.770 144.606-23.232L144.606-23.232Q144.870-23.562 145.332-23.892L145.332-23.892Q145.662-24.090 145.794-23.958L145.794-23.958Q145.860-23.958 145.926-23.826L145.926-23.826L146.982-23.892Q147.246-23.958 147.576-23.364Q147.906-22.770 148.236-22.506L148.236-22.506Q148.962-21.912 148.896-19.932Q148.830-17.952 147.312-14.388L147.312-14.388Q146.058-11.682 145.629-10.296Q145.200-8.910 145.134-7.590L145.134-7.590Q145.134-6.402 145.332-5.577Q145.530-4.752 146.520-3.894L146.520-3.894Q147.246-3.432 147.345-2.343Q147.444-1.254 147.378-0.462L147.378-0.462Q147.246 0.132 146.355 0.363Q145.464 0.594 144.441 0.462Q143.418 0.330 142.758-0.132Z M151.800-1.122L151.800-1.122Q151.272-1.650 151.041-2.706Q150.810-3.762 150.876-4.785Q150.942-5.808 151.206-6.336L151.206-6.336Q151.206-6.864 151.371-7.161Q151.536-7.458 151.470-7.722L151.470-7.722Q151.404-7.986 151.602-8.646Q151.800-9.306 151.998-9.900L151.998-9.900Q152.460-10.956 153.054-12.639Q153.648-14.322 154.242-16.071Q154.836-17.820 155.232-19.107Q155.628-20.394 155.694-20.658L155.694-20.658Q155.694-21.450 156.750-21.516L156.750-21.516Q157.542-21.780 158.664-20.856Q159.786-19.932 160.446-18.876L160.446-18.876Q160.974-18.348 160.842-17.490Q160.710-16.632 159.984-15.048L159.984-15.048Q159.720-14.520 159.357-13.299Q158.994-12.078 158.862-11.286L158.862-11.286Q158.598-10.758 158.235-9.801Q157.872-8.844 157.608-7.986L157.608-7.986Q157.476-7.656 157.344-6.765Q157.212-5.874 157.014-4.950Q156.816-4.026 156.486-3.498L156.486-3.498Q155.892-0.792 154.407-0.330Q152.922 0.132 151.800-1.122ZM158.928-27.588L158.928-27.588Q158.202-28.116 157.839-28.875Q157.476-29.634 157.443-30.228Q157.410-30.822 157.542-30.954L157.542-30.954Q158.202-31.680 158.697-32.868Q159.192-34.056 159.786-35.046L159.786-35.046Q159.918-35.244 160.149-35.607Q160.380-35.970 160.644-36.036L160.644-36.036Q161.436-36.564 162.855-35.970Q164.274-35.376 164.934-34.320L164.934-34.320Q165.528-33.066 165.297-31.746Q165.066-30.426 163.878-28.974L163.878-28.974Q162.888-27.654 161.370-27.291Q159.852-26.928 158.928-27.588Z" fill="#f1ece2"></path></g><g transform="translate(112.265,370)"><path d="M1.995 0L0.315 0L3.315-10.500L6.165-10.500L9.150 0L7.485 0L6.795-2.475L2.685-2.475L1.995 0ZM4.620-9.495L3.090-3.975L6.390-3.975L4.860-9.495L4.620-9.495Z M20.150 0L18.575 0L18.575-10.500L21.620-10.500L23.915-1.080L24.155-1.080L26.450-10.500L29.495-10.500L29.495 0L27.920 0L27.920-9.360L27.680-9.360L25.400 0L22.670 0L20.390-9.360L20.150-9.360L20.150 0Z M41.260 0L39.685 0L39.685-10.500L42.730-10.500L45.025-1.080L45.265-1.080L47.560-10.500L50.605-10.500L50.605 0L49.030 0L49.030-9.360L48.790-9.360L46.510 0L43.780 0L41.500-9.360L41.260-9.360L41.260 0Z M67.485 0L60.795 0L60.795-10.500L67.410-10.500L67.410-9.030L62.415-9.030L62.415-6.015L66.990-6.015L66.990-4.545L62.415-4.545L62.415-1.470L67.485-1.470L67.485 0Z M78.800 0L77.180 0L77.180-10.500L81.590-10.500Q82.565-10.500 83.308-10.162Q84.050-9.825 84.463-9.195Q84.875-8.565 84.875-7.695L84.875-7.695L84.875-7.530Q84.875-6.540 84.403-5.947Q83.930-5.355 83.255-5.115L83.255-5.115L83.255-4.875Q83.825-4.845 84.170-4.492Q84.515-4.140 84.515-3.480L84.515-3.480L84.515 0L82.880 0L82.880-3.255Q82.880-3.660 82.670-3.900Q82.460-4.140 81.995-4.140L81.995-4.140L78.800-4.140L78.800 0ZM78.800-9.030L78.800-5.610L81.410-5.610Q82.280-5.610 82.760-6.053Q83.240-6.495 83.240-7.260L83.240-7.260L83.240-7.380Q83.240-8.145 82.768-8.588Q82.295-9.030 81.410-9.030L81.410-9.030L78.800-9.030Z M98.230 0.210L98.230 0.210Q97.045 0.210 96.130-0.210Q95.215-0.630 94.698-1.448Q94.180-2.265 94.180-3.435L94.180-3.435L94.180-3.810L95.785-3.810L95.785-3.435Q95.785-2.325 96.453-1.770Q97.120-1.215 98.230-1.215L98.230-1.215Q99.355-1.215 99.925-1.688Q100.495-2.160 100.495-2.910L100.495-2.910Q100.495-3.405 100.225-3.720Q99.955-4.035 99.460-4.223Q98.965-4.410 98.275-4.575L98.275-4.575L97.720-4.710Q96.715-4.950 95.973-5.303Q95.230-5.655 94.825-6.240Q94.420-6.825 94.420-7.740L94.420-7.740Q94.420-8.670 94.878-9.330Q95.335-9.990 96.145-10.350Q96.955-10.710 98.050-10.710L98.050-10.710Q99.145-10.710 100.008-10.335Q100.870-9.960 101.365-9.225Q101.860-8.490 101.860-7.380L101.860-7.380L101.860-6.840L100.255-6.840L100.255-7.380Q100.255-8.055 99.978-8.475Q99.700-8.895 99.205-9.090Q98.710-9.285 98.050-9.285L98.050-9.285Q97.090-9.285 96.558-8.887Q96.025-8.490 96.025-7.785L96.025-7.785Q96.025-7.305 96.258-6.997Q96.490-6.690 96.940-6.495Q97.390-6.300 98.065-6.150L98.065-6.150L98.620-6.015Q99.640-5.790 100.420-5.438Q101.200-5.085 101.650-4.485Q102.100-3.885 102.100-2.940L102.100-2.940Q102.100-1.995 101.628-1.290Q101.155-0.585 100.285-0.188Q99.415 0.210 98.230 0.210Z M118.485 0L111.795 0L111.795-10.500L118.410-10.500L118.410-9.030L113.415-9.030L113.415-6.015L117.990-6.015L117.990-4.545L113.415-4.545L113.415-1.470L118.485-1.470L118.485 0Z M134.870 0L128.180 0L128.180-10.500L134.795-10.500L134.795-9.030L129.800-9.030L129.800-6.015L134.375-6.015L134.375-4.545L129.800-4.545L129.800-1.470L134.870-1.470L134.870 0Z" fill="#aac072"></path></g></svg>