<svg xmlns="http://www.w3.org/2000/svg" width="1440" height="2172" viewBox="0 0 240 362"><defs><mask id="ko" maskUnits="userSpaceOnUse" x="-20" y="-20" width="280" height="402"><rect x="-20" y="-20" width="280" height="402" fill="#fff"></rect><path d="M104.53 96L85.09 96L85.09 89.28L98.93 73.36L98.93 72.72L85.49 72.72L85.49 68L104.45 68L104.45 74.72L90.61 90.64L90.61 91.28L104.53 91.28L104.53 96Z M117.63 96.56L117.63 96.56Q114.67 96.56 112.41 95.30Q110.15 94.04 108.89 91.74Q107.63 89.44 107.63 86.32L107.63 86.32L107.63 85.84Q107.63 82.72 108.87 80.42Q110.11 78.12 112.35 76.86Q114.59 75.60 117.55 75.60L117.55 75.60Q120.47 75.60 122.63 76.90Q124.79 78.20 125.99 80.50Q127.19 82.80 127.19 85.84L127.19 85.84L127.19 87.56L112.75 87.56Q112.83 89.60 114.27 90.88Q115.71 92.16 117.79 92.16L117.79 92.16Q119.91 92.16 120.91 91.24Q121.91 90.32 122.43 89.20L122.43 89.20L126.55 91.36Q125.99 92.40 124.93 93.62Q123.87 94.84 122.11 95.70Q120.35 96.56 117.63 96.56ZM112.79 83.80L112.79 83.80L122.07 83.80Q121.91 82.08 120.69 81.04Q119.47 80 117.51 80L117.51 80Q115.47 80 114.27 81.04Q113.07 82.08 112.79 83.80Z M136.21 96L131.17 96L131.17 76.16L136.21 76.16L136.21 96ZM133.69 73.84L133.69 73.84Q132.33 73.84 131.39 72.96Q130.45 72.08 130.45 70.64L130.45 70.64Q130.45 69.20 131.39 68.32Q132.33 67.44 133.69 67.44L133.69 67.44Q135.09 67.44 136.01 68.32Q136.93 69.20 136.93 70.64L136.93 70.64Q136.93 72.08 136.01 72.96Q135.09 73.84 133.69 73.84Z M154.51 96L148.91 96Q146.95 96 145.73 94.78Q144.51 93.56 144.51 91.52L144.51 91.52L144.51 80.32L139.55 80.32L139.55 76.16L144.51 76.16L144.51 70L149.55 70L149.55 76.16L154.99 76.16L154.99 80.32L149.55 80.32L149.55 90.64Q149.55 91.84 150.67 91.84L150.67 91.84L154.51 91.84L154.51 96Z" fill="#000" stroke="#000" stroke-width="0.8" stroke-linejoin="round" stroke-linecap="round"></path><path d="M61.29 141.36L61.29 141.36Q59.17 141.36 57.49 140.62Q55.81 139.88 54.83 138.46Q53.85 137.04 53.85 135L53.85 135Q53.85 132.96 54.83 131.58Q55.81 130.20 57.55 129.50Q59.29 128.80 61.53 128.80L61.53 128.80L66.97 128.80L66.97 127.68Q66.97 126.28 66.09 125.38Q65.21 124.48 63.29 124.48L63.29 124.48Q61.41 124.48 60.49 125.34Q59.57 126.20 59.29 127.56L59.29 127.56L54.65 126.00Q55.13 124.48 56.19 123.22Q57.25 121.96 59.03 121.18Q60.81 120.40 63.37 120.40L63.37 120.40Q67.29 120.40 69.57 122.36Q71.85 124.32 71.85 128.04L71.85 128.04L71.85 135.44Q71.85 136.64 72.97 136.64L72.97 136.64L74.57 136.64L74.57 140.80L71.21 140.80Q69.73 140.80 68.77 140.08Q67.81 139.36 67.81 138.16L67.81 138.16L67.81 138.12L67.05 138.12Q66.89 138.60 66.33 139.38Q65.77 140.16 64.57 140.76Q63.37 141.36 61.29 141.36ZM62.17 137.28L62.17 137.28Q64.29 137.28 65.63 136.10Q66.97 134.92 66.97 132.96L66.97 132.96L66.97 132.56L61.89 132.56Q60.49 132.56 59.69 133.16Q58.89 133.76 58.89 134.84L58.89 134.84Q58.89 135.92 59.73 136.60Q60.57 137.28 62.17 137.28Z M82.79 140.80L77.75 140.80L77.75 120.96L82.71 120.96L82.71 123.12L83.43 123.12Q83.95 122.12 85.15 121.38Q86.35 120.64 88.31 120.64L88.31 120.64Q90.43 120.64 91.71 121.46Q92.99 122.28 93.67 123.60L93.67 123.60L94.39 123.60Q95.07 122.32 96.31 121.48Q97.55 120.64 99.83 120.64L99.83 120.64Q101.67 120.64 103.17 121.42Q104.67 122.20 105.57 123.78Q106.47 125.36 106.47 127.76L106.47 127.76L106.47 140.80L101.43 140.80L101.43 128.12Q101.43 126.48 100.59 125.66Q99.75 124.84 98.23 124.84L98.23 124.84Q96.51 124.84 95.57 125.94Q94.63 127.04 94.63 129.08L94.63 129.08L94.63 140.80L89.59 140.80L89.59 128.12Q89.59 126.48 88.75 125.66Q87.91 124.84 86.39 124.84L86.39 124.84Q84.67 124.84 83.73 125.94Q82.79 127.04 82.79 129.08L82.79 129.08L82.79 140.80Z  M130.63 141.36L130.63 141.36Q127.39 141.36 124.91 140.20Q122.43 139.04 121.03 136.88Q119.63 134.72 119.63 131.68L119.63 131.68L119.63 130.56L124.83 130.56L124.83 131.68Q124.83 134.20 126.39 135.46Q127.95 136.72 130.63 136.72L130.63 136.72Q133.35 136.72 134.69 135.64Q136.03 134.56 136.03 132.88L136.03 132.88Q136.03 131.72 135.37 131Q134.71 130.28 133.45 129.82Q132.19 129.36 130.39 128.96L130.39 128.96L129.47 128.76Q126.59 128.12 124.53 127.14Q122.47 126.16 121.37 124.56Q120.27 122.96 120.27 120.40L120.27 120.40Q120.27 117.84 121.49 116.02Q122.71 114.20 124.93 113.22Q127.15 112.24 130.15 112.24L130.15 112.24Q133.15 112.24 135.49 113.26Q137.83 114.28 139.17 116.30Q140.51 118.32 140.51 121.36L140.51 121.36L140.51 122.56L135.31 122.56L135.31 121.36Q135.31 119.76 134.69 118.78Q134.07 117.80 132.91 117.34Q131.75 116.88 130.15 116.88L130.15 116.88Q127.75 116.88 126.61 117.78Q125.47 118.68 125.47 120.24L125.47 120.24Q125.47 121.28 126.01 122.00Q126.55 122.72 127.63 123.20Q128.71 123.68 130.39 124.04L130.39 124.04L131.31 124.24Q134.31 124.88 136.53 125.88Q138.75 126.88 139.99 128.52Q141.23 130.16 141.23 132.72L141.23 132.72Q141.23 135.28 139.93 137.22Q138.63 139.16 136.25 140.26Q133.87 141.36 130.63 141.36Z M153.85 141.36L153.85 141.36Q150.89 141.36 148.63 140.10Q146.37 138.84 145.11 136.54Q143.85 134.24 143.85 131.12L143.85 131.12L143.85 130.64Q143.85 127.52 145.09 125.22Q146.33 122.92 148.57 121.66Q150.81 120.40 153.77 120.40L153.77 120.40Q156.69 120.40 158.85 121.70Q161.01 123.00 162.21 125.30Q163.41 127.60 163.41 130.64L163.41 130.64L163.41 132.36L148.97 132.36Q149.05 134.40 150.49 135.68Q151.93 136.96 154.01 136.96L154.01 136.96Q156.13 136.96 157.13 136.04Q158.13 135.12 158.65 134L158.65 134L162.77 136.16Q162.21 137.20 161.15 138.42Q160.09 139.64 158.33 140.50Q156.57 141.36 153.85 141.36ZM149.01 128.60L149.01 128.60L158.29 128.60Q158.13 126.88 156.91 125.84Q155.69 124.80 153.73 124.80L153.73 124.80Q151.69 124.80 150.49 125.84Q149.29 126.88 149.01 128.60Z M176.43 141.36L176.43 141.36Q173.47 141.36 171.21 140.10Q168.95 138.84 167.69 136.54Q166.43 134.24 166.43 131.12L166.43 131.12L166.43 130.64Q166.43 127.52 167.67 125.22Q168.91 122.92 171.15 121.66Q173.39 120.40 176.35 120.40L176.35 120.40Q179.27 120.40 181.43 121.70Q183.59 123.00 184.79 125.30Q185.99 127.60 185.99 130.64L185.99 130.64L185.99 132.36L171.55 132.36Q171.63 134.40 173.07 135.68Q174.51 136.96 176.59 136.96L176.59 136.96Q178.71 136.96 179.71 136.04Q180.71 135.12 181.23 134L181.23 134L185.35 136.16Q184.79 137.20 183.73 138.42Q182.67 139.64 180.91 140.50Q179.15 141.36 176.43 141.36ZM171.59 128.60L171.59 128.60L180.87 128.60Q180.71 126.88 179.49 125.84Q178.27 124.80 176.31 124.80L176.31 124.80Q174.27 124.80 173.07 125.84Q171.87 126.88 171.59 128.60Z" fill="#000" stroke="#000" stroke-width="0.8" stroke-linejoin="round" stroke-linecap="round"></path><g transform="translate(0 10)"><path d="M54.70 280L52.57 280L56.37 266.70L59.98 266.70L63.76 280L61.65 280L60.78 276.87L55.57 276.87L54.70 280ZM58.02 267.97L56.08 274.96L60.26 274.96L58.33 267.97L58.02 267.97Z M72.56 280L70.56 280L70.56 266.70L74.42 266.70L77.33 278.63L77.63 278.63L80.54 266.70L84.40 266.70L84.40 280L82.40 280L82.40 268.14L82.10 268.14L79.21 280L75.75 280L72.86 268.14L72.56 268.14L72.56 280Z M94.17 280L92.17 280L92.17 266.70L96.03 266.70L98.93 278.63L99.24 278.63L102.14 266.70L106.00 266.70L106.00 280L104.01 280L104.01 268.14L103.70 268.14L100.81 280L97.36 280L94.47 268.14L94.17 268.14L94.17 280Z M122.25 280L113.78 280L113.78 266.70L122.16 266.70L122.16 268.56L115.83 268.56L115.83 272.38L121.62 272.38L121.62 274.24L115.83 274.24L115.83 278.14L122.25 278.14L122.25 280Z M131.45 280L129.40 280L129.40 266.70L134.98 266.70Q136.22 266.70 137.16 267.13Q138.10 267.56 138.62 268.35Q139.14 269.15 139.14 270.25L139.14 270.25L139.14 270.46Q139.14 271.72 138.55 272.47Q137.95 273.22 137.09 273.52L137.09 273.52L137.09 273.82Q137.81 273.86 138.25 274.31Q138.69 274.76 138.69 275.59L138.69 275.59L138.69 280L136.62 280L136.62 275.88Q136.62 275.36 136.35 275.06Q136.08 274.76 135.50 274.76L135.50 274.76L131.45 274.76L131.45 280ZM131.45 268.56L131.45 272.89L134.75 272.89Q135.86 272.89 136.47 272.33Q137.07 271.77 137.07 270.80L137.07 270.80L137.07 270.65Q137.07 269.68 136.47 269.12Q135.88 268.56 134.75 268.56L134.75 268.56L131.45 268.56Z M150.93 280.27L150.93 280.27Q149.43 280.27 148.27 279.73Q147.11 279.20 146.45 278.17Q145.80 277.13 145.80 275.65L145.80 275.65L145.80 275.17L147.83 275.17L147.83 275.65Q147.83 277.06 148.68 277.76Q149.52 278.46 150.93 278.46L150.93 278.46Q152.35 278.46 153.07 277.86Q153.80 277.26 153.80 276.31L153.80 276.31Q153.80 275.69 153.45 275.29Q153.11 274.89 152.49 274.65Q151.86 274.41 150.98 274.20L150.98 274.20L150.28 274.03Q149.01 273.73 148.07 273.28Q147.13 272.84 146.61 272.10Q146.10 271.36 146.10 270.20L146.10 270.20Q146.10 269.02 146.68 268.18Q147.26 267.35 148.29 266.89Q149.31 266.43 150.70 266.43L150.70 266.43Q152.09 266.43 153.18 266.91Q154.27 267.38 154.90 268.31Q155.53 269.25 155.53 270.65L155.53 270.65L155.53 271.34L153.49 271.34L153.49 270.65Q153.49 269.80 153.14 269.26Q152.79 268.73 152.16 268.49Q151.53 268.24 150.70 268.24L150.70 268.24Q149.48 268.24 148.81 268.74Q148.13 269.25 148.13 270.14L148.13 270.14Q148.13 270.75 148.43 271.14Q148.72 271.53 149.29 271.77Q149.86 272.02 150.72 272.21L150.72 272.21L151.42 272.38Q152.71 272.67 153.70 273.11Q154.69 273.56 155.26 274.32Q155.83 275.08 155.83 276.28L155.83 276.28Q155.83 277.47 155.23 278.37Q154.63 279.26 153.53 279.76Q152.43 280.27 150.93 280.27Z M171.45 280L162.98 280L162.98 266.70L171.35 266.70L171.35 268.56L165.03 268.56L165.03 272.38L170.82 272.38L170.82 274.24L165.03 274.24L165.03 278.14L171.45 278.14L171.45 280Z M187.07 280L178.60 280L178.60 266.70L186.98 266.70L186.98 268.56L180.65 268.56L180.65 272.38L186.44 272.38L186.44 274.24L180.65 274.24L180.65 278.14L187.07 278.14L187.07 280Z" fill="#000" stroke="#000" stroke-width="0.8" stroke-linejoin="round" stroke-linecap="round"></path></g><svg x="18.81" y="170.00" width="202.38" height="104.00" viewBox="0 0 360 185" overflow="visible"><g transform="translate(14.715 29.690)"><g fill="#000" stroke="#000" stroke-width="1.4" stroke-linejoin="round" stroke-linecap="round"><g transform="translate(64.98,0)"><path d="M22.88 133.59 L22.88 133.59 Q21.33 133.16 20.38 132.82 L20.38 132.82 L19.44 132.56 Q19.61 132.13 19.31 131.78 Q19.01 131.44 18.06 131.35 L18.06 131.35 Q16.77 130.49 15.39 128.95 Q14.02 127.40 12.99 125.76 Q11.95 124.13 11.61 123.36 L11.61 123.36 Q11.18 122.32 11.44 121.98 L11.44 121.98 Q11.52 121.81 11.70 121.72 L11.70 121.72 Q12.38 121.46 13.33 121.03 L13.33 121.03 Q14.28 120.35 15.35 120.00 Q16.43 119.66 17.11 121.12 L17.11 121.12 Q18.23 123.10 20.60 124.47 Q22.96 125.85 26.02 126.11 Q29.07 126.37 32.16 125.08 L32.16 125.08 Q34.23 124.13 34.40 122.45 Q34.57 120.78 33.11 118.54 L33.11 118.54 Q32.85 117.85 32.38 117.42 Q31.91 116.99 31.00 116.30 Q30.10 115.62 28.47 114.07 L28.47 114.07 Q27.18 113.47 26.10 112.95 Q25.03 112.43 23.82 111.83 L23.82 111.83 Q22.45 111.14 20.73 109.90 Q19.01 108.65 17.54 107.14 Q16.08 105.64 15.31 104.26 L15.31 104.26 Q13.93 102.97 13.59 100.69 Q13.24 98.42 13.72 95.84 Q14.19 93.26 15.31 91.19 L15.31 91.19 Q15.82 89.99 17.20 88.05 Q18.58 86.12 20.30 84.05 Q22.02 81.99 23.61 80.31 Q25.20 78.64 26.14 78.03 L26.14 78.03 Q26.83 77.35 27.61 76.57 L27.61 76.57 L28.38 75.88 Q28.47 75.45 28.72 75.45 L28.72 75.45 L28.90 75.45 Q29.33 75.20 30.79 74.59 Q32.25 73.99 33.97 72.36 L33.97 72.36 Q39.73 69.61 43.77 68.62 Q47.82 67.63 50.14 67.63 L50.14 67.63 Q52.29 67.71 54.35 68.79 Q56.42 69.86 57.92 71.50 Q59.43 73.13 59.68 75.20 L59.68 75.20 Q60.29 77.26 59.13 80.14 Q57.96 83.02 55.94 85.56 Q53.92 88.10 51.77 89.30 L51.77 89.30 Q49.36 90.33 47.69 89.56 Q46.01 88.78 46.10 87.15 L46.10 87.15 Q46.10 86.46 46.57 85.52 Q47.04 84.57 49.19 82.16 L49.19 82.16 Q51.94 78.12 52.12 76.40 Q52.29 74.68 50.57 74.42 L50.57 74.42 Q50.05 74.25 48.59 74.51 Q47.13 74.77 45.45 75.15 Q43.77 75.54 42.53 75.97 Q41.28 76.40 41.28 76.57 L41.28 76.57 L41.28 76.83 Q41.28 76.92 41.19 77.00 L41.19 77.00 Q41.19 77.09 40.94 77.00 L40.94 77.00 Q40.76 77.00 39.78 77.56 Q38.79 78.12 37.41 78.98 Q36.03 79.84 34.70 80.74 Q33.37 81.65 32.42 82.33 Q31.48 83.02 31.39 83.19 L31.39 83.19 Q31.22 84.14 29.41 84.91 L29.41 84.91 Q27.69 85.95 26.40 87.84 Q25.11 89.73 23.39 92.65 L23.39 92.65 Q21.93 94.63 21.33 96.91 Q20.73 99.19 21.33 100.57 L21.33 100.57 Q21.76 101.94 23.69 103.28 Q25.63 104.61 28.98 106.59 L28.98 106.59 Q31.91 108.22 34.49 110.03 Q37.07 111.83 38.87 113.51 Q40.68 115.19 41.19 116.30 L41.19 116.30 Q42.23 117.77 42.44 119.66 Q42.66 121.55 42.44 123.31 Q42.23 125.08 41.88 126.19 L41.88 126.19 Q41.28 127.57 40.03 129.12 Q38.79 130.67 37.75 130.58 L37.75 130.58 Q36.81 130.84 36.34 131.18 Q35.86 131.53 35.26 131.78 L35.26 131.78 Q34.66 132.13 32.42 132.60 Q30.19 133.07 27.52 133.38 Q24.85 133.68 22.88 133.59 Z M67.77 126.28 L67.77 126.28 Q65.19 127.74 62.31 127.96 Q59.43 128.17 56.93 127.18 Q54.44 126.19 52.89 124.22 L52.89 124.22 Q52.03 123.10 51.26 120.65 Q50.48 118.20 51.00 113.98 L51.00 113.98 Q51.51 110.03 53.45 105.98 Q55.38 101.94 58.22 98.85 Q61.06 95.75 64.41 94.63 L64.41 94.63 Q65.62 94.20 66.86 93.99 Q68.11 93.77 70.18 93.94 L70.18 93.94 Q72.15 94.20 73.70 94.93 Q75.25 95.66 75.94 96.52 L75.94 96.52 Q77.31 97.90 77.74 99.19 Q78.17 100.48 78.09 101.68 L78.09 101.68 Q77.66 104.44 75.64 107.62 Q73.62 110.80 70.00 112.35 L70.00 112.35 Q68.54 112.95 66.56 113.12 Q64.59 113.29 61.15 112.61 L61.15 112.61 Q59.08 112.18 58.44 113.04 Q57.79 113.90 57.88 116.39 L57.88 116.39 Q58.05 117.94 58.61 119.10 Q59.17 120.26 60.72 120.69 L60.72 120.69 Q62.69 121.03 63.55 120.73 Q64.41 120.43 65.70 119.83 L65.70 119.83 Q66.39 119.40 67.08 118.88 L67.08 118.88 L68.37 117.85 Q68.97 117.34 69.40 117.08 L69.40 117.08 Q69.83 116.73 70.26 116.65 Q70.69 116.56 71.12 116.56 L71.12 116.56 Q72.07 116.65 72.93 117.59 Q73.79 118.54 74.05 119.40 L74.05 119.40 Q74.05 120.09 73.19 121.33 Q72.33 122.58 70.91 123.92 Q69.49 125.25 67.77 126.28 Z M66.65 107.10 L66.65 107.10 Q67.25 106.84 68.41 105.90 Q69.57 104.95 70.52 103.88 Q71.47 102.80 71.47 102.20 L71.47 102.20 Q71.47 101.25 70.22 100.57 Q68.97 99.88 66.99 100.31 L66.99 100.31 Q66.31 100.48 65.36 101.25 Q64.41 102.03 63.47 103.02 Q62.52 104.01 61.83 104.91 Q61.15 105.81 60.89 106.33 L60.89 106.33 Q61.23 106.76 62.26 107.02 Q63.30 107.27 64.54 107.27 Q65.79 107.27 66.65 107.10 Z M96.49 126.28 L96.49 126.28 Q93.91 127.74 91.03 127.96 Q88.15 128.17 85.66 127.18 Q83.16 126.19 81.61 124.22 L81.61 124.22 Q80.75 123.10 79.98 120.65 Q79.21 118.20 79.72 113.98 L79.72 113.98 Q80.24 110.03 82.17 105.98 Q84.11 101.94 86.95 98.85 Q89.78 95.75 93.14 94.63 L93.14 94.63 Q94.34 94.20 95.59 93.99 Q96.84 93.77 98.90 93.94 L98.90 93.94 Q100.88 94.20 102.43 94.93 Q103.97 95.66 104.66 96.52 L104.66 96.52 Q106.04 97.90 106.47 99.19 Q106.90 100.48 106.81 101.68 L106.81 101.68 Q106.38 104.44 104.36 107.62 Q102.34 110.80 98.73 112.35 L98.73 112.35 Q97.27 112.95 95.29 113.12 Q93.31 113.29 89.87 112.61 L89.87 112.61 Q87.81 112.18 87.16 113.04 Q86.52 113.90 86.60 116.39 L86.60 116.39 Q86.77 117.94 87.33 119.10 Q87.89 120.26 89.44 120.69 L89.44 120.69 Q91.42 121.03 92.28 120.73 Q93.14 120.43 94.43 119.83 L94.43 119.83 Q95.12 119.40 95.80 118.88 L95.80 118.88 L97.09 117.85 Q97.70 117.34 98.13 117.08 L98.13 117.08 Q98.56 116.73 98.99 116.65 Q99.42 116.56 99.85 116.56 L99.85 116.56 Q100.79 116.65 101.65 117.59 Q102.51 118.54 102.77 119.40 L102.77 119.40 Q102.77 120.09 101.91 121.33 Q101.05 122.58 99.63 123.92 Q98.21 125.25 96.49 126.28 Z M95.37 107.10 L95.37 107.10 Q95.98 106.84 97.14 105.90 Q98.30 104.95 99.24 103.88 Q100.19 102.80 100.19 102.20 L100.19 102.20 Q100.19 101.25 98.94 100.57 Q97.70 99.88 95.72 100.31 L95.72 100.31 Q95.03 100.48 94.08 101.25 Q93.14 102.03 92.19 103.02 Q91.25 104.01 90.56 104.91 Q89.87 105.81 89.61 106.33 L89.61 106.33 Q89.96 106.76 90.99 107.02 Q92.02 107.27 93.27 107.27 Q94.51 107.27 95.37 107.10 Z M118.42 145.20 L118.42 145.20 Q116.01 146.15 113.39 144.90 Q110.77 143.65 108.88 140.99 L108.88 140.99 Q108.53 140.47 107.84 139.14 Q107.16 137.80 106.51 136.26 Q105.87 134.71 105.56 133.59 Q105.26 132.47 105.52 132.30 L105.52 132.30 Q105.87 131.35 107.07 131.18 Q108.27 131.01 109.48 131.31 Q110.68 131.61 110.85 132.13 L110.85 132.13 Q111.11 132.73 111.37 133.38 Q111.63 134.02 112.01 134.58 Q112.40 135.14 112.75 135.57 L112.75 135.57 Q113.69 137.03 114.81 137.59 Q115.93 138.15 116.53 137.72 L116.53 137.72 Q117.99 136.60 118.72 135.09 Q119.45 133.59 120.66 129.81 L120.66 129.81 Q121.60 126.62 122.29 124.30 Q122.98 121.98 123.75 120.00 L123.75 120.00 Q124.01 118.97 124.44 118.20 L124.44 118.20 Q124.53 118.02 124.61 117.85 L124.61 117.85 Q123.41 118.71 122.46 119.57 L122.46 119.57 Q121.17 120.78 118.94 121.72 L118.94 121.72 Q118.42 122.32 116.40 122.45 Q114.38 122.58 112.49 121.98 L112.49 121.98 Q111.28 121.29 110.55 120.56 Q109.82 119.83 109.35 118.88 Q108.88 117.94 108.36 116.65 L108.36 116.65 Q107.76 115.36 108.19 112.43 Q108.62 109.51 109.74 106.59 L109.74 106.59 Q110.77 104.44 112.75 101.94 Q114.72 99.45 116.96 97.43 Q119.20 95.41 121.00 94.89 L121.00 94.89 Q121.69 94.55 123.41 94.07 Q125.13 93.60 126.68 94.03 L126.68 94.03 Q128.14 94.20 128.91 94.67 Q129.69 95.15 131.41 96.61 L131.41 96.61 Q132.53 97.73 134.16 99.49 Q135.79 101.25 136.22 102.46 L136.22 102.46 Q136.83 103.75 136.48 105.25 Q136.14 106.76 135.28 107.88 L135.28 107.88 Q134.50 108.99 133.64 110.11 Q132.78 111.23 132.35 113.21 L132.35 113.21 Q131.92 115.79 130.72 119.01 Q129.52 122.24 128.83 124.99 L128.83 124.99 L127.45 130.32 Q125.30 137.63 122.72 140.94 Q120.14 144.25 118.42 145.20 Z M116.62 115.62 L116.62 115.62 Q118.34 115.53 119.58 115.23 Q120.83 114.93 121.95 113.85 Q123.07 112.78 124.53 110.54 L124.53 110.54 Q125.99 108.48 126.59 106.76 Q127.19 105.04 127.02 102.89 L127.02 102.89 Q126.94 101.51 126.25 101.08 Q125.56 100.65 124.44 100.82 L124.44 100.82 Q122.81 101.08 121.52 102.16 Q120.23 103.23 118.51 105.47 L118.51 105.47 Q117.22 107.19 116.36 109.60 L116.36 109.60 Q115.50 112.18 115.63 113.72 Q115.76 115.27 116.62 115.62 Z M143.88 138.41 L143.88 138.41 Q143.36 138.75 141.56 137.59 Q139.75 136.43 138.55 135.05 L138.55 135.05 Q137.94 134.36 137.77 133.59 Q137.60 132.82 137.86 130.67 L137.86 130.67 Q138.20 129.72 138.24 128.86 Q138.29 128.00 138.29 127.66 L138.29 127.66 Q138.29 127.14 138.59 125.25 Q138.89 123.36 139.23 121.25 Q139.58 119.14 139.84 118.02 L139.84 118.02 Q139.84 117.94 139.96 117.42 Q140.09 116.91 140.18 116.65 L140.18 116.65 Q140.35 115.87 140.61 114.76 Q140.87 113.64 141.13 111.75 L141.13 111.75 Q141.81 109.60 142.29 107.49 Q142.76 105.38 142.76 104.61 L142.76 104.61 Q142.76 103.06 143.96 102.37 L143.96 102.37 Q144.05 101.94 144.48 101.04 Q144.91 100.14 145.25 99.53 L145.25 99.53 Q146.97 94.63 148.09 91.71 Q149.21 88.78 150.41 86.63 L150.41 86.63 Q150.93 85.17 151.57 83.62 Q152.22 82.08 152.91 81.22 L152.91 81.22 Q153.51 80.01 155.01 78.25 Q156.52 76.49 158.24 74.85 Q159.96 73.22 160.99 72.44 L160.99 72.44 Q162.88 71.50 164.52 70.90 Q166.15 70.29 167.96 70.29 L167.96 70.29 Q169.59 70.29 170.84 71.03 Q172.09 71.76 174.58 73.99 L174.58 73.99 Q175.44 75.11 175.44 76.14 Q175.44 77.17 175.01 77.86 L175.01 77.86 Q174.41 79.24 173.20 81.26 Q172.00 83.28 170.88 84.87 Q169.76 86.46 169.25 86.55 L169.25 86.55 Q168.22 87.15 167.10 86.89 Q165.98 86.63 165.98 85.34 L165.98 85.34 Q165.98 84.74 166.07 84.23 L166.07 84.23 L166.07 83.71 Q166.32 82.59 166.71 81.73 Q167.10 80.87 167.44 80.27 L167.44 80.27 Q168.13 79.15 167.83 78.12 Q167.53 77.09 165.64 77.26 L165.64 77.26 Q165.38 77.43 164.65 78.08 Q163.92 78.72 163.10 79.54 Q162.28 80.36 161.68 81.09 Q161.08 81.82 161.08 82.08 L161.08 82.08 L160.65 82.94 Q160.13 83.88 159.19 85.00 L159.19 85.00 Q158.58 85.86 158.15 86.63 Q157.72 87.41 157.72 87.84 L157.72 87.84 Q157.72 88.18 157.64 88.44 Q157.55 88.70 157.21 88.70 L157.21 88.70 L156.95 89.56 Q156.61 90.42 155.92 91.62 L155.92 91.62 Q155.57 92.48 155.19 93.21 Q154.80 93.94 154.46 94.29 L154.46 94.29 L154.37 94.46 L154.03 95.41 Q153.60 96.44 153.17 97.47 Q152.74 98.50 152.74 98.67 L152.74 98.67 Q152.74 99.02 153.77 99.02 Q154.80 99.02 156.26 98.72 Q157.72 98.42 159.10 98.07 L159.10 98.07 Q160.30 97.73 160.82 97.73 Q161.34 97.73 162.45 98.07 L162.45 98.07 Q163.14 98.50 163.57 99.58 Q164.00 100.65 164.22 101.73 Q164.43 102.80 164.26 103.32 L164.26 103.32 Q164.17 103.66 162.32 104.26 Q160.48 104.87 158.67 105.21 L158.67 105.21 Q157.12 105.55 155.19 105.94 Q153.25 106.33 151.79 106.72 Q150.33 107.10 150.24 107.45 L150.24 107.45 Q149.90 107.45 149.68 107.88 Q149.47 108.31 149.47 108.65 L149.47 108.65 Q149.47 109.77 149.04 110.46 L149.04 110.46 Q148.87 110.97 148.48 112.56 Q148.09 114.15 147.70 116.00 Q147.32 117.85 147.02 119.44 Q146.72 121.03 146.72 121.55 L146.72 121.55 Q146.20 122.15 146.11 123.06 Q146.03 123.96 146.03 124.65 L146.03 124.65 Q145.68 125.33 145.60 125.89 Q145.51 126.45 145.51 126.80 L145.51 126.80 L145.51 127.14 Q145.51 127.40 145.43 127.66 L145.43 127.66 Q145.34 128.52 145.21 129.94 Q145.08 131.35 145.08 132.73 L145.08 132.73 L144.82 135.22 Q144.74 136.34 144.52 137.16 Q144.31 137.98 143.88 138.41 Z M186.02 127.83 L186.02 127.83 Q185.16 126.97 184.64 125.46 Q184.13 123.96 183.61 121.98 L183.61 121.98 Q183.44 121.29 183.48 120.43 Q183.52 119.57 183.44 119.06 L183.44 119.06 Q183.18 119.66 182.62 120.60 Q182.06 121.55 181.55 121.98 L181.55 121.98 Q181.20 122.32 180.00 123.31 Q178.79 124.30 177.59 124.90 L177.59 124.90 Q174.75 126.71 172.56 126.58 Q170.37 126.45 168.73 124.39 L168.73 124.39 Q167.36 123.27 166.50 121.55 Q165.64 119.83 166.15 117.42 L166.15 117.42 Q166.32 114.41 167.01 111.53 Q167.70 108.65 169.85 103.83 L169.85 103.83 Q171.66 100.31 172.60 98.33 Q173.55 96.35 173.81 96.01 L173.81 96.01 Q175.10 95.58 176.99 96.05 Q178.88 96.52 179.05 97.73 L179.05 97.73 Q179.57 98.59 179.05 100.95 Q178.54 103.32 176.99 106.33 L176.99 106.33 Q175.78 109.25 174.71 112.00 Q173.63 114.76 173.42 116.65 Q173.20 118.54 174.41 118.97 L174.41 118.97 Q175.18 119.40 176.69 118.88 Q178.19 118.37 180.26 115.79 Q182.32 113.21 184.64 107.62 L184.64 107.62 Q185.33 105.90 185.67 104.56 Q186.02 103.23 186.10 101.60 L186.10 101.60 Q185.93 100.57 186.66 99.45 Q187.39 98.33 188.43 97.73 L188.43 97.73 Q188.77 97.30 189.37 96.87 L189.37 96.87 Q189.80 96.61 189.97 96.78 L189.97 96.78 Q190.06 96.78 190.15 96.95 L190.15 96.95 L191.52 96.87 Q191.87 96.78 192.30 97.56 Q192.73 98.33 193.16 98.67 L193.16 98.67 Q194.10 99.45 194.02 102.03 Q193.93 104.61 191.95 109.25 L191.95 109.25 Q190.32 112.78 189.76 114.58 Q189.20 116.39 189.11 118.11 L189.11 118.11 Q189.11 119.66 189.37 120.73 Q189.63 121.81 190.92 122.93 L190.92 122.93 Q191.87 123.53 191.99 124.95 Q192.12 126.37 192.04 127.40 L192.04 127.40 Q191.87 128.17 190.70 128.47 Q189.54 128.77 188.21 128.60 Q186.88 128.43 186.02 127.83 Z M197.80 126.54 L197.80 126.54 Q197.11 125.85 196.81 124.47 Q196.51 123.10 196.60 121.77 Q196.68 120.43 197.03 119.74 L197.03 119.74 Q197.03 119.06 197.24 118.67 Q197.46 118.28 197.37 117.94 L197.37 117.94 Q197.28 117.59 197.54 116.73 Q197.80 115.87 198.06 115.10 L198.06 115.10 Q198.66 113.72 199.43 111.53 Q200.21 109.34 200.98 107.06 Q201.76 104.78 202.27 103.10 Q202.79 101.43 202.87 101.08 L202.87 101.08 Q202.87 100.05 204.25 99.96 L204.25 99.96 Q205.28 99.62 206.74 100.82 Q208.21 102.03 209.07 103.40 L209.07 103.40 Q209.75 104.09 209.58 105.21 Q209.41 106.33 208.46 108.39 L208.46 108.39 Q208.12 109.08 207.65 110.67 Q207.17 112.26 207.00 113.29 L207.00 113.29 Q206.66 113.98 206.18 115.23 Q205.71 116.48 205.37 117.59 L205.37 117.59 Q205.20 118.02 205.02 119.19 Q204.85 120.35 204.59 121.55 Q204.34 122.75 203.91 123.44 L203.91 123.44 Q203.13 126.97 201.20 127.57 Q199.26 128.17 197.80 126.54 Z " fill="#000"></path><defs><mask id="hm2k" maskUnits="userSpaceOnUse"><path d="M0,3 C0,-3 -9,-6 -9,-13 C-9,-19 -2,-20 0,-14 C2,-20 9,-19 9,-13 C9,-6 0,-3 0,3 Z" fill="#fff"></path><path d="M-7.5,-8 q2.5,-3.4 5,0 t5,0 t5,0" fill="none" stroke="#000" stroke-width="2.1" stroke-linecap="round"></path></mask></defs><g transform="translate(210.40,95.23) rotate(12) scale(0.940)"><path d="M0,3 C0,-3 -9,-6 -9,-13 C-9,-19 -2,-20 0,-14 C2,-20 9,-19 9,-13 C9,-6 0,-3 0,3 Z" fill="#000" mask="url(#hm2k)"></path></g></g></g></g></svg></mask></defs><g mask="url(#ko)"><path d="M26.6,15.6 L23.3,9.6 L24.9,5.6 L23.4,3 L19.7,2.1 L14.4,7 L13.1,5.4 L11.2,5.8 L9.4,2 L6.3,1.2 L1.8,-9.1 L-2.9,-41.5 L3.9,-62.7 L2.4,-72.7 L0.6,-75 L-4.9,-74.9 L-12.4,-67.5 L-16.6,-67.1 L-22,-57.2 L-21.6,-53 L-24.3,-47.3 L-23.7,-41.3 L-25.6,-36.4 L-24.6,-30.6 L-25.8,-26.6 L-23.8,-21.8 L-26.6,-12.8 L-26,-9.3 L-22.8,-5.3 L-25.1,0.3 L-23.1,20.5 L-24.3,26.8 L-20.4,36.9 L-20.7,40.6 L-16.7,48.4 L-18.3,54.5 L-17.2,59.2 L-12,60.7 L-10.4,65.3 L-7.5,69.5 L-3,73.5 L2,75 L7,73 L10.5,69.5 L12.3,66.1 L11.7,33.9 L16.2,25.7 L26.6,16.1 Z" fill="#74c2b4" fill-opacity="0.13" fill-rule="evenodd" transform="translate(120 178) scale(2.00000) translate(0.000 0.000)"></path><path d="M26.6,15.6 L23.3,9.6 L24.9,5.6 L23.4,3 L19.7,2.1 L14.4,7 L13.1,5.4 L11.2,5.8 L9.4,2 L6.3,1.2 L1.8,-9.1 L-2.9,-41.5 L3.9,-62.7 L2.4,-72.7 L0.6,-75 L-4.9,-74.9 L-12.4,-67.5 L-16.6,-67.1 L-22,-57.2 L-21.6,-53 L-24.3,-47.3 L-23.7,-41.3 L-25.6,-36.4 L-24.6,-30.6 L-25.8,-26.6 L-23.8,-21.8 L-26.6,-12.8 L-26,-9.3 L-22.8,-5.3 L-25.1,0.3 L-23.1,20.5 L-24.3,26.8 L-20.4,36.9 L-20.7,40.6 L-16.7,48.4 L-18.3,54.5 L-17.2,59.2 L-12,60.7 L-10.4,65.3 L-7.5,69.5 L-3,73.5 L2,75 L7,73 L10.5,69.5 L12.3,66.1 L11.7,33.9 L16.2,25.7 L26.6,16.1 Z" fill="none" stroke="#74c2b4" stroke-opacity="0.42" stroke-width="0.85" stroke-linejoin="round" stroke-linecap="round" transform="translate(120 178) scale(2.00000) translate(0.000 0.000)"></path></g><path d="M104.53 96L85.09 96L85.09 89.28L98.93 73.36L98.93 72.72L85.49 72.72L85.49 68L104.45 68L104.45 74.72L90.61 90.64L90.61 91.28L104.53 91.28L104.53 96Z M117.63 96.56L117.63 96.56Q114.67 96.56 112.41 95.30Q110.15 94.04 108.89 91.74Q107.63 89.44 107.63 86.32L107.63 86.32L107.63 85.84Q107.63 82.72 108.87 80.42Q110.11 78.12 112.35 76.86Q114.59 75.60 117.55 75.60L117.55 75.60Q120.47 75.60 122.63 76.90Q124.79 78.20 125.99 80.50Q127.19 82.80 127.19 85.84L127.19 85.84L127.19 87.56L112.75 87.56Q112.83 89.60 114.27 90.88Q115.71 92.16 117.79 92.16L117.79 92.16Q119.91 92.16 120.91 91.24Q121.91 90.32 122.43 89.20L122.43 89.20L126.55 91.36Q125.99 92.40 124.93 93.62Q123.87 94.84 122.11 95.70Q120.35 96.56 117.63 96.56ZM112.79 83.80L112.79 83.80L122.07 83.80Q121.91 82.08 120.69 81.04Q119.47 80 117.51 80L117.51 80Q115.47 80 114.27 81.04Q113.07 82.08 112.79 83.80Z M136.21 96L131.17 96L131.17 76.16L136.21 76.16L136.21 96ZM133.69 73.84L133.69 73.84Q132.33 73.84 131.39 72.96Q130.45 72.08 130.45 70.64L130.45 70.64Q130.45 69.20 131.39 68.32Q132.33 67.44 133.69 67.44L133.69 67.44Q135.09 67.44 136.01 68.32Q136.93 69.20 136.93 70.64L136.93 70.64Q136.93 72.08 136.01 72.96Q135.09 73.84 133.69 73.84Z M154.51 96L148.91 96Q146.95 96 145.73 94.78Q144.51 93.56 144.51 91.52L144.51 91.52L144.51 80.32L139.55 80.32L139.55 76.16L144.51 76.16L144.51 70L149.55 70L149.55 76.16L154.99 76.16L154.99 80.32L149.55 80.32L149.55 90.64Q149.55 91.84 150.67 91.84L150.67 91.84L154.51 91.84L154.51 96Z" fill="#f1ece2"></path><path d="M61.29 141.36L61.29 141.36Q59.17 141.36 57.49 140.62Q55.81 139.88 54.83 138.46Q53.85 137.04 53.85 135L53.85 135Q53.85 132.96 54.83 131.58Q55.81 130.20 57.55 129.50Q59.29 128.80 61.53 128.80L61.53 128.80L66.97 128.80L66.97 127.68Q66.97 126.28 66.09 125.38Q65.21 124.48 63.29 124.48L63.29 124.48Q61.41 124.48 60.49 125.34Q59.57 126.20 59.29 127.56L59.29 127.56L54.65 126.00Q55.13 124.48 56.19 123.22Q57.25 121.96 59.03 121.18Q60.81 120.40 63.37 120.40L63.37 120.40Q67.29 120.40 69.57 122.36Q71.85 124.32 71.85 128.04L71.85 128.04L71.85 135.44Q71.85 136.64 72.97 136.64L72.97 136.64L74.57 136.64L74.57 140.80L71.21 140.80Q69.73 140.80 68.77 140.08Q67.81 139.36 67.81 138.16L67.81 138.16L67.81 138.12L67.05 138.12Q66.89 138.60 66.33 139.38Q65.77 140.16 64.57 140.76Q63.37 141.36 61.29 141.36ZM62.17 137.28L62.17 137.28Q64.29 137.28 65.63 136.10Q66.97 134.92 66.97 132.96L66.97 132.96L66.97 132.56L61.89 132.56Q60.49 132.56 59.69 133.16Q58.89 133.76 58.89 134.84L58.89 134.84Q58.89 135.92 59.73 136.60Q60.57 137.28 62.17 137.28Z M82.79 140.80L77.75 140.80L77.75 120.96L82.71 120.96L82.71 123.12L83.43 123.12Q83.95 122.12 85.15 121.38Q86.35 120.64 88.31 120.64L88.31 120.64Q90.43 120.64 91.71 121.46Q92.99 122.28 93.67 123.60L93.67 123.60L94.39 123.60Q95.07 122.32 96.31 121.48Q97.55 120.64 99.83 120.64L99.83 120.64Q101.67 120.64 103.17 121.42Q104.67 122.20 105.57 123.78Q106.47 125.36 106.47 127.76L106.47 127.76L106.47 140.80L101.43 140.80L101.43 128.12Q101.43 126.48 100.59 125.66Q99.75 124.84 98.23 124.84L98.23 124.84Q96.51 124.84 95.57 125.94Q94.63 127.04 94.63 129.08L94.63 129.08L94.63 140.80L89.59 140.80L89.59 128.12Q89.59 126.48 88.75 125.66Q87.91 124.84 86.39 124.84L86.39 124.84Q84.67 124.84 83.73 125.94Q82.79 127.04 82.79 129.08L82.79 129.08L82.79 140.80Z  M130.63 141.36L130.63 141.36Q127.39 141.36 124.91 140.20Q122.43 139.04 121.03 136.88Q119.63 134.72 119.63 131.68L119.63 131.68L119.63 130.56L124.83 130.56L124.83 131.68Q124.83 134.20 126.39 135.46Q127.95 136.72 130.63 136.72L130.63 136.72Q133.35 136.72 134.69 135.64Q136.03 134.56 136.03 132.88L136.03 132.88Q136.03 131.72 135.37 131Q134.71 130.28 133.45 129.82Q132.19 129.36 130.39 128.96L130.39 128.96L129.47 128.76Q126.59 128.12 124.53 127.14Q122.47 126.16 121.37 124.56Q120.27 122.96 120.27 120.40L120.27 120.40Q120.27 117.84 121.49 116.02Q122.71 114.20 124.93 113.22Q127.15 112.24 130.15 112.24L130.15 112.24Q133.15 112.24 135.49 113.26Q137.83 114.28 139.17 116.30Q140.51 118.32 140.51 121.36L140.51 121.36L140.51 122.56L135.31 122.56L135.31 121.36Q135.31 119.76 134.69 118.78Q134.07 117.80 132.91 117.34Q131.75 116.88 130.15 116.88L130.15 116.88Q127.75 116.88 126.61 117.78Q125.47 118.68 125.47 120.24L125.47 120.24Q125.47 121.28 126.01 122.00Q126.55 122.72 127.63 123.20Q128.71 123.68 130.39 124.04L130.39 124.04L131.31 124.24Q134.31 124.88 136.53 125.88Q138.75 126.88 139.99 128.52Q141.23 130.16 141.23 132.72L141.23 132.72Q141.23 135.28 139.93 137.22Q138.63 139.16 136.25 140.26Q133.87 141.36 130.63 141.36Z M153.85 141.36L153.85 141.36Q150.89 141.36 148.63 140.10Q146.37 138.84 145.11 136.54Q143.85 134.24 143.85 131.12L143.85 131.12L143.85 130.64Q143.85 127.52 145.09 125.22Q146.33 122.92 148.57 121.66Q150.81 120.40 153.77 120.40L153.77 120.40Q156.69 120.40 158.85 121.70Q161.01 123.00 162.21 125.30Q163.41 127.60 163.41 130.64L163.41 130.64L163.41 132.36L148.97 132.36Q149.05 134.40 150.49 135.68Q151.93 136.96 154.01 136.96L154.01 136.96Q156.13 136.96 157.13 136.04Q158.13 135.12 158.65 134L158.65 134L162.77 136.16Q162.21 137.20 161.15 138.42Q160.09 139.64 158.33 140.50Q156.57 141.36 153.85 141.36ZM149.01 128.60L149.01 128.60L158.29 128.60Q158.13 126.88 156.91 125.84Q155.69 124.80 153.73 124.80L153.73 124.80Q151.69 124.80 150.49 125.84Q149.29 126.88 149.01 128.60Z M176.43 141.36L176.43 141.36Q173.47 141.36 171.21 140.10Q168.95 138.84 167.69 136.54Q166.43 134.24 166.43 131.12L166.43 131.12L166.43 130.64Q166.43 127.52 167.67 125.22Q168.91 122.92 171.15 121.66Q173.39 120.40 176.35 120.40L176.35 120.40Q179.27 120.40 181.43 121.70Q183.59 123.00 184.79 125.30Q185.99 127.60 185.99 130.64L185.99 130.64L185.99 132.36L171.55 132.36Q171.63 134.40 173.07 135.68Q174.51 136.96 176.59 136.96L176.59 136.96Q178.71 136.96 179.71 136.04Q180.71 135.12 181.23 134L181.23 134L185.35 136.16Q184.79 137.20 183.73 138.42Q182.67 139.64 180.91 140.50Q179.15 141.36 176.43 141.36ZM171.59 128.60L171.59 128.60L180.87 128.60Q180.71 126.88 179.49 125.84Q178.27 124.80 176.31 124.80L176.31 124.80Q174.27 124.80 173.07 125.84Q171.87 126.88 171.59 128.60Z" fill="#f1ece2"></path><svg x="18.81" y="170.00" width="202.38" height="104.00" viewBox="0 0 360 185" overflow="visible"><g transform="translate(14.715 29.690)"><g transform="translate(64.98,0)"><path d="M22.88 133.59 L22.88 133.59 Q21.33 133.16 20.38 132.82 L20.38 132.82 L19.44 132.56 Q19.61 132.13 19.31 131.78 Q19.01 131.44 18.06 131.35 L18.06 131.35 Q16.77 130.49 15.39 128.95 Q14.02 127.40 12.99 125.76 Q11.95 124.13 11.61 123.36 L11.61 123.36 Q11.18 122.32 11.44 121.98 L11.44 121.98 Q11.52 121.81 11.70 121.72 L11.70 121.72 Q12.38 121.46 13.33 121.03 L13.33 121.03 Q14.28 120.35 15.35 120.00 Q16.43 119.66 17.11 121.12 L17.11 121.12 Q18.23 123.10 20.60 124.47 Q22.96 125.85 26.02 126.11 Q29.07 126.37 32.16 125.08 L32.16 125.08 Q34.23 124.13 34.40 122.45 Q34.57 120.78 33.11 118.54 L33.11 118.54 Q32.85 117.85 32.38 117.42 Q31.91 116.99 31.00 116.30 Q30.10 115.62 28.47 114.07 L28.47 114.07 Q27.18 113.47 26.10 112.95 Q25.03 112.43 23.82 111.83 L23.82 111.83 Q22.45 111.14 20.73 109.90 Q19.01 108.65 17.54 107.14 Q16.08 105.64 15.31 104.26 L15.31 104.26 Q13.93 102.97 13.59 100.69 Q13.24 98.42 13.72 95.84 Q14.19 93.26 15.31 91.19 L15.31 91.19 Q15.82 89.99 17.20 88.05 Q18.58 86.12 20.30 84.05 Q22.02 81.99 23.61 80.31 Q25.20 78.64 26.14 78.03 L26.14 78.03 Q26.83 77.35 27.61 76.57 L27.61 76.57 L28.38 75.88 Q28.47 75.45 28.72 75.45 L28.72 75.45 L28.90 75.45 Q29.33 75.20 30.79 74.59 Q32.25 73.99 33.97 72.36 L33.97 72.36 Q39.73 69.61 43.77 68.62 Q47.82 67.63 50.14 67.63 L50.14 67.63 Q52.29 67.71 54.35 68.79 Q56.42 69.86 57.92 71.50 Q59.43 73.13 59.68 75.20 L59.68 75.20 Q60.29 77.26 59.13 80.14 Q57.96 83.02 55.94 85.56 Q53.92 88.10 51.77 89.30 L51.77 89.30 Q49.36 90.33 47.69 89.56 Q46.01 88.78 46.10 87.15 L46.10 87.15 Q46.10 86.46 46.57 85.52 Q47.04 84.57 49.19 82.16 L49.19 82.16 Q51.94 78.12 52.12 76.40 Q52.29 74.68 50.57 74.42 L50.57 74.42 Q50.05 74.25 48.59 74.51 Q47.13 74.77 45.45 75.15 Q43.77 75.54 42.53 75.97 Q41.28 76.40 41.28 76.57 L41.28 76.57 L41.28 76.83 Q41.28 76.92 41.19 77.00 L41.19 77.00 Q41.19 77.09 40.94 77.00 L40.94 77.00 Q40.76 77.00 39.78 77.56 Q38.79 78.12 37.41 78.98 Q36.03 79.84 34.70 80.74 Q33.37 81.65 32.42 82.33 Q31.48 83.02 31.39 83.19 L31.39 83.19 Q31.22 84.14 29.41 84.91 L29.41 84.91 Q27.69 85.95 26.40 87.84 Q25.11 89.73 23.39 92.65 L23.39 92.65 Q21.93 94.63 21.33 96.91 Q20.73 99.19 21.33 100.57 L21.33 100.57 Q21.76 101.94 23.69 103.28 Q25.63 104.61 28.98 106.59 L28.98 106.59 Q31.91 108.22 34.49 110.03 Q37.07 111.83 38.87 113.51 Q40.68 115.19 41.19 116.30 L41.19 116.30 Q42.23 117.77 42.44 119.66 Q42.66 121.55 42.44 123.31 Q42.23 125.08 41.88 126.19 L41.88 126.19 Q41.28 127.57 40.03 129.12 Q38.79 130.67 37.75 130.58 L37.75 130.58 Q36.81 130.84 36.34 131.18 Q35.86 131.53 35.26 131.78 L35.26 131.78 Q34.66 132.13 32.42 132.60 Q30.19 133.07 27.52 133.38 Q24.85 133.68 22.88 133.59 Z M67.77 126.28 L67.77 126.28 Q65.19 127.74 62.31 127.96 Q59.43 128.17 56.93 127.18 Q54.44 126.19 52.89 124.22 L52.89 124.22 Q52.03 123.10 51.26 120.65 Q50.48 118.20 51.00 113.98 L51.00 113.98 Q51.51 110.03 53.45 105.98 Q55.38 101.94 58.22 98.85 Q61.06 95.75 64.41 94.63 L64.41 94.63 Q65.62 94.20 66.86 93.99 Q68.11 93.77 70.18 93.94 L70.18 93.94 Q72.15 94.20 73.70 94.93 Q75.25 95.66 75.94 96.52 L75.94 96.52 Q77.31 97.90 77.74 99.19 Q78.17 100.48 78.09 101.68 L78.09 101.68 Q77.66 104.44 75.64 107.62 Q73.62 110.80 70.00 112.35 L70.00 112.35 Q68.54 112.95 66.56 113.12 Q64.59 113.29 61.15 112.61 L61.15 112.61 Q59.08 112.18 58.44 113.04 Q57.79 113.90 57.88 116.39 L57.88 116.39 Q58.05 117.94 58.61 119.10 Q59.17 120.26 60.72 120.69 L60.72 120.69 Q62.69 121.03 63.55 120.73 Q64.41 120.43 65.70 119.83 L65.70 119.83 Q66.39 119.40 67.08 118.88 L67.08 118.88 L68.37 117.85 Q68.97 117.34 69.40 117.08 L69.40 117.08 Q69.83 116.73 70.26 116.65 Q70.69 116.56 71.12 116.56 L71.12 116.56 Q72.07 116.65 72.93 117.59 Q73.79 118.54 74.05 119.40 L74.05 119.40 Q74.05 120.09 73.19 121.33 Q72.33 122.58 70.91 123.92 Q69.49 125.25 67.77 126.28 Z M66.65 107.10 L66.65 107.10 Q67.25 106.84 68.41 105.90 Q69.57 104.95 70.52 103.88 Q71.47 102.80 71.47 102.20 L71.47 102.20 Q71.47 101.25 70.22 100.57 Q68.97 99.88 66.99 100.31 L66.99 100.31 Q66.31 100.48 65.36 101.25 Q64.41 102.03 63.47 103.02 Q62.52 104.01 61.83 104.91 Q61.15 105.81 60.89 106.33 L60.89 106.33 Q61.23 106.76 62.26 107.02 Q63.30 107.27 64.54 107.27 Q65.79 107.27 66.65 107.10 Z M96.49 126.28 L96.49 126.28 Q93.91 127.74 91.03 127.96 Q88.15 128.17 85.66 127.18 Q83.16 126.19 81.61 124.22 L81.61 124.22 Q80.75 123.10 79.98 120.65 Q79.21 118.20 79.72 113.98 L79.72 113.98 Q80.24 110.03 82.17 105.98 Q84.11 101.94 86.95 98.85 Q89.78 95.75 93.14 94.63 L93.14 94.63 Q94.34 94.20 95.59 93.99 Q96.84 93.77 98.90 93.94 L98.90 93.94 Q100.88 94.20 102.43 94.93 Q103.97 95.66 104.66 96.52 L104.66 96.52 Q106.04 97.90 106.47 99.19 Q106.90 100.48 106.81 101.68 L106.81 101.68 Q106.38 104.44 104.36 107.62 Q102.34 110.80 98.73 112.35 L98.73 112.35 Q97.27 112.95 95.29 113.12 Q93.31 113.29 89.87 112.61 L89.87 112.61 Q87.81 112.18 87.16 113.04 Q86.52 113.90 86.60 116.39 L86.60 116.39 Q86.77 117.94 87.33 119.10 Q87.89 120.26 89.44 120.69 L89.44 120.69 Q91.42 121.03 92.28 120.73 Q93.14 120.43 94.43 119.83 L94.43 119.83 Q95.12 119.40 95.80 118.88 L95.80 118.88 L97.09 117.85 Q97.70 117.34 98.13 117.08 L98.13 117.08 Q98.56 116.73 98.99 116.65 Q99.42 116.56 99.85 116.56 L99.85 116.56 Q100.79 116.65 101.65 117.59 Q102.51 118.54 102.77 119.40 L102.77 119.40 Q102.77 120.09 101.91 121.33 Q101.05 122.58 99.63 123.92 Q98.21 125.25 96.49 126.28 Z M95.37 107.10 L95.37 107.10 Q95.98 106.84 97.14 105.90 Q98.30 104.95 99.24 103.88 Q100.19 102.80 100.19 102.20 L100.19 102.20 Q100.19 101.25 98.94 100.57 Q97.70 99.88 95.72 100.31 L95.72 100.31 Q95.03 100.48 94.08 101.25 Q93.14 102.03 92.19 103.02 Q91.25 104.01 90.56 104.91 Q89.87 105.81 89.61 106.33 L89.61 106.33 Q89.96 106.76 90.99 107.02 Q92.02 107.27 93.27 107.27 Q94.51 107.27 95.37 107.10 Z M118.42 145.20 L118.42 145.20 Q116.01 146.15 113.39 144.90 Q110.77 143.65 108.88 140.99 L108.88 140.99 Q108.53 140.47 107.84 139.14 Q107.16 137.80 106.51 136.26 Q105.87 134.71 105.56 133.59 Q105.26 132.47 105.52 132.30 L105.52 132.30 Q105.87 131.35 107.07 131.18 Q108.27 131.01 109.48 131.31 Q110.68 131.61 110.85 132.13 L110.85 132.13 Q111.11 132.73 111.37 133.38 Q111.63 134.02 112.01 134.58 Q112.40 135.14 112.75 135.57 L112.75 135.57 Q113.69 137.03 114.81 137.59 Q115.93 138.15 116.53 137.72 L116.53 137.72 Q117.99 136.60 118.72 135.09 Q119.45 133.59 120.66 129.81 L120.66 129.81 Q121.60 126.62 122.29 124.30 Q122.98 121.98 123.75 120.00 L123.75 120.00 Q124.01 118.97 124.44 118.20 L124.44 118.20 Q124.53 118.02 124.61 117.85 L124.61 117.85 Q123.41 118.71 122.46 119.57 L122.46 119.57 Q121.17 120.78 118.94 121.72 L118.94 121.72 Q118.42 122.32 116.40 122.45 Q114.38 122.58 112.49 121.98 L112.49 121.98 Q111.28 121.29 110.55 120.56 Q109.82 119.83 109.35 118.88 Q108.88 117.94 108.36 116.65 L108.36 116.65 Q107.76 115.36 108.19 112.43 Q108.62 109.51 109.74 106.59 L109.74 106.59 Q110.77 104.44 112.75 101.94 Q114.72 99.45 116.96 97.43 Q119.20 95.41 121.00 94.89 L121.00 94.89 Q121.69 94.55 123.41 94.07 Q125.13 93.60 126.68 94.03 L126.68 94.03 Q128.14 94.20 128.91 94.67 Q129.69 95.15 131.41 96.61 L131.41 96.61 Q132.53 97.73 134.16 99.49 Q135.79 101.25 136.22 102.46 L136.22 102.46 Q136.83 103.75 136.48 105.25 Q136.14 106.76 135.28 107.88 L135.28 107.88 Q134.50 108.99 133.64 110.11 Q132.78 111.23 132.35 113.21 L132.35 113.21 Q131.92 115.79 130.72 119.01 Q129.52 122.24 128.83 124.99 L128.83 124.99 L127.45 130.32 Q125.30 137.63 122.72 140.94 Q120.14 144.25 118.42 145.20 Z M116.62 115.62 L116.62 115.62 Q118.34 115.53 119.58 115.23 Q120.83 114.93 121.95 113.85 Q123.07 112.78 124.53 110.54 L124.53 110.54 Q125.99 108.48 126.59 106.76 Q127.19 105.04 127.02 102.89 L127.02 102.89 Q126.94 101.51 126.25 101.08 Q125.56 100.65 124.44 100.82 L124.44 100.82 Q122.81 101.08 121.52 102.16 Q120.23 103.23 118.51 105.47 L118.51 105.47 Q117.22 107.19 116.36 109.60 L116.36 109.60 Q115.50 112.18 115.63 113.72 Q115.76 115.27 116.62 115.62 Z M143.88 138.41 L143.88 138.41 Q143.36 138.75 141.56 137.59 Q139.75 136.43 138.55 135.05 L138.55 135.05 Q137.94 134.36 137.77 133.59 Q137.60 132.82 137.86 130.67 L137.86 130.67 Q138.20 129.72 138.24 128.86 Q138.29 128.00 138.29 127.66 L138.29 127.66 Q138.29 127.14 138.59 125.25 Q138.89 123.36 139.23 121.25 Q139.58 119.14 139.84 118.02 L139.84 118.02 Q139.84 117.94 139.96 117.42 Q140.09 116.91 140.18 116.65 L140.18 116.65 Q140.35 115.87 140.61 114.76 Q140.87 113.64 141.13 111.75 L141.13 111.75 Q141.81 109.60 142.29 107.49 Q142.76 105.38 142.76 104.61 L142.76 104.61 Q142.76 103.06 143.96 102.37 L143.96 102.37 Q144.05 101.94 144.48 101.04 Q144.91 100.14 145.25 99.53 L145.25 99.53 Q146.97 94.63 148.09 91.71 Q149.21 88.78 150.41 86.63 L150.41 86.63 Q150.93 85.17 151.57 83.62 Q152.22 82.08 152.91 81.22 L152.91 81.22 Q153.51 80.01 155.01 78.25 Q156.52 76.49 158.24 74.85 Q159.96 73.22 160.99 72.44 L160.99 72.44 Q162.88 71.50 164.52 70.90 Q166.15 70.29 167.96 70.29 L167.96 70.29 Q169.59 70.29 170.84 71.03 Q172.09 71.76 174.58 73.99 L174.58 73.99 Q175.44 75.11 175.44 76.14 Q175.44 77.17 175.01 77.86 L175.01 77.86 Q174.41 79.24 173.20 81.26 Q172.00 83.28 170.88 84.87 Q169.76 86.46 169.25 86.55 L169.25 86.55 Q168.22 87.15 167.10 86.89 Q165.98 86.63 165.98 85.34 L165.98 85.34 Q165.98 84.74 166.07 84.23 L166.07 84.23 L166.07 83.71 Q166.32 82.59 166.71 81.73 Q167.10 80.87 167.44 80.27 L167.44 80.27 Q168.13 79.15 167.83 78.12 Q167.53 77.09 165.64 77.26 L165.64 77.26 Q165.38 77.43 164.65 78.08 Q163.92 78.72 163.10 79.54 Q162.28 80.36 161.68 81.09 Q161.08 81.82 161.08 82.08 L161.08 82.08 L160.65 82.94 Q160.13 83.88 159.19 85.00 L159.19 85.00 Q158.58 85.86 158.15 86.63 Q157.72 87.41 157.72 87.84 L157.72 87.84 Q157.72 88.18 157.64 88.44 Q157.55 88.70 157.21 88.70 L157.21 88.70 L156.95 89.56 Q156.61 90.42 155.92 91.62 L155.92 91.62 Q155.57 92.48 155.19 93.21 Q154.80 93.94 154.46 94.29 L154.46 94.29 L154.37 94.46 L154.03 95.41 Q153.60 96.44 153.17 97.47 Q152.74 98.50 152.74 98.67 L152.74 98.67 Q152.74 99.02 153.77 99.02 Q154.80 99.02 156.26 98.72 Q157.72 98.42 159.10 98.07 L159.10 98.07 Q160.30 97.73 160.82 97.73 Q161.34 97.73 162.45 98.07 L162.45 98.07 Q163.14 98.50 163.57 99.58 Q164.00 100.65 164.22 101.73 Q164.43 102.80 164.26 103.32 L164.26 103.32 Q164.17 103.66 162.32 104.26 Q160.48 104.87 158.67 105.21 L158.67 105.21 Q157.12 105.55 155.19 105.94 Q153.25 106.33 151.79 106.72 Q150.33 107.10 150.24 107.45 L150.24 107.45 Q149.90 107.45 149.68 107.88 Q149.47 108.31 149.47 108.65 L149.47 108.65 Q149.47 109.77 149.04 110.46 L149.04 110.46 Q148.87 110.97 148.48 112.56 Q148.09 114.15 147.70 116.00 Q147.32 117.85 147.02 119.44 Q146.72 121.03 146.72 121.55 L146.72 121.55 Q146.20 122.15 146.11 123.06 Q146.03 123.96 146.03 124.65 L146.03 124.65 Q145.68 125.33 145.60 125.89 Q145.51 126.45 145.51 126.80 L145.51 126.80 L145.51 127.14 Q145.51 127.40 145.43 127.66 L145.43 127.66 Q145.34 128.52 145.21 129.94 Q145.08 131.35 145.08 132.73 L145.08 132.73 L144.82 135.22 Q144.74 136.34 144.52 137.16 Q144.31 137.98 143.88 138.41 Z M186.02 127.83 L186.02 127.83 Q185.16 126.97 184.64 125.46 Q184.13 123.96 183.61 121.98 L183.61 121.98 Q183.44 121.29 183.48 120.43 Q183.52 119.57 183.44 119.06 L183.44 119.06 Q183.18 119.66 182.62 120.60 Q182.06 121.55 181.55 121.98 L181.55 121.98 Q181.20 122.32 180.00 123.31 Q178.79 124.30 177.59 124.90 L177.59 124.90 Q174.75 126.71 172.56 126.58 Q170.37 126.45 168.73 124.39 L168.73 124.39 Q167.36 123.27 166.50 121.55 Q165.64 119.83 166.15 117.42 L166.15 117.42 Q166.32 114.41 167.01 111.53 Q167.70 108.65 169.85 103.83 L169.85 103.83 Q171.66 100.31 172.60 98.33 Q173.55 96.35 173.81 96.01 L173.81 96.01 Q175.10 95.58 176.99 96.05 Q178.88 96.52 179.05 97.73 L179.05 97.73 Q179.57 98.59 179.05 100.95 Q178.54 103.32 176.99 106.33 L176.99 106.33 Q175.78 109.25 174.71 112.00 Q173.63 114.76 173.42 116.65 Q173.20 118.54 174.41 118.97 L174.41 118.97 Q175.18 119.40 176.69 118.88 Q178.19 118.37 180.26 115.79 Q182.32 113.21 184.64 107.62 L184.64 107.62 Q185.33 105.90 185.67 104.56 Q186.02 103.23 186.10 101.60 L186.10 101.60 Q185.93 100.57 186.66 99.45 Q187.39 98.33 188.43 97.73 L188.43 97.73 Q188.77 97.30 189.37 96.87 L189.37 96.87 Q189.80 96.61 189.97 96.78 L189.97 96.78 Q190.06 96.78 190.15 96.95 L190.15 96.95 L191.52 96.87 Q191.87 96.78 192.30 97.56 Q192.73 98.33 193.16 98.67 L193.16 98.67 Q194.10 99.45 194.02 102.03 Q193.93 104.61 191.95 109.25 L191.95 109.25 Q190.32 112.78 189.76 114.58 Q189.20 116.39 189.11 118.11 L189.11 118.11 Q189.11 119.66 189.37 120.73 Q189.63 121.81 190.92 122.93 L190.92 122.93 Q191.87 123.53 191.99 124.95 Q192.12 126.37 192.04 127.40 L192.04 127.40 Q191.87 128.17 190.70 128.47 Q189.54 128.77 188.21 128.60 Q186.88 128.43 186.02 127.83 Z M197.80 126.54 L197.80 126.54 Q197.11 125.85 196.81 124.47 Q196.51 123.10 196.60 121.77 Q196.68 120.43 197.03 119.74 L197.03 119.74 Q197.03 119.06 197.24 118.67 Q197.46 118.28 197.37 117.94 L197.37 117.94 Q197.28 117.59 197.54 116.73 Q197.80 115.87 198.06 115.10 L198.06 115.10 Q198.66 113.72 199.43 111.53 Q200.21 109.34 200.98 107.06 Q201.76 104.78 202.27 103.10 Q202.79 101.43 202.87 101.08 L202.87 101.08 Q202.87 100.05 204.25 99.96 L204.25 99.96 Q205.28 99.62 206.74 100.82 Q208.21 102.03 209.07 103.40 L209.07 103.40 Q209.75 104.09 209.58 105.21 Q209.41 106.33 208.46 108.39 L208.46 108.39 Q208.12 109.08 207.65 110.67 Q207.17 112.26 207.00 113.29 L207.00 113.29 Q206.66 113.98 206.18 115.23 Q205.71 116.48 205.37 117.59 L205.37 117.59 Q205.20 118.02 205.02 119.19 Q204.85 120.35 204.59 121.55 Q204.34 122.75 203.91 123.44 L203.91 123.44 Q203.13 126.97 201.20 127.57 Q199.26 128.17 197.80 126.54 Z " fill="#f1ece2"></path><defs><mask id="hm2" maskUnits="userSpaceOnUse"><path d="M0,3 C0,-3 -9,-6 -9,-13 C-9,-19 -2,-20 0,-14 C2,-20 9,-19 9,-13 C9,-6 0,-3 0,3 Z" fill="#fff"></path><path d="M-7.5,-8 q2.5,-3.4 5,0 t5,0 t5,0" fill="none" stroke="#000" stroke-width="2.1" stroke-linecap="round"></path></mask></defs><g transform="translate(210.40,95.23) rotate(12) scale(0.940)"><path d="M0,3 C0,-3 -9,-6 -9,-13 C-9,-19 -2,-20 0,-14 C2,-20 9,-19 9,-13 C9,-6 0,-3 0,3 Z" fill="#d23b34" mask="url(#hm2)"></path></g></g></g></svg><g transform="translate(0 10)"><path d="M54.70 280L52.57 280L56.37 266.70L59.98 266.70L63.76 280L61.65 280L60.78 276.87L55.57 276.87L54.70 280ZM58.02 267.97L56.08 274.96L60.26 274.96L58.33 267.97L58.02 267.97Z M72.56 280L70.56 280L70.56 266.70L74.42 266.70L77.33 278.63L77.63 278.63L80.54 266.70L84.40 266.70L84.40 280L82.40 280L82.40 268.14L82.10 268.14L79.21 280L75.75 280L72.86 268.14L72.56 268.14L72.56 280Z M94.17 280L92.17 280L92.17 266.70L96.03 266.70L98.93 278.63L99.24 278.63L102.14 266.70L106.00 266.70L106.00 280L104.01 280L104.01 268.14L103.70 268.14L100.81 280L97.36 280L94.47 268.14L94.17 268.14L94.17 280Z M122.25 280L113.78 280L113.78 266.70L122.16 266.70L122.16 268.56L115.83 268.56L115.83 272.38L121.62 272.38L121.62 274.24L115.83 274.24L115.83 278.14L122.25 278.14L122.25 280Z M131.45 280L129.40 280L129.40 266.70L134.98 266.70Q136.22 266.70 137.16 267.13Q138.10 267.56 138.62 268.35Q139.14 269.15 139.14 270.25L139.14 270.25L139.14 270.46Q139.14 271.72 138.55 272.47Q137.95 273.22 137.09 273.52L137.09 273.52L137.09 273.82Q137.81 273.86 138.25 274.31Q138.69 274.76 138.69 275.59L138.69 275.59L138.69 280L136.62 280L136.62 275.88Q136.62 275.36 136.35 275.06Q136.08 274.76 135.50 274.76L135.50 274.76L131.45 274.76L131.45 280ZM131.45 268.56L131.45 272.89L134.75 272.89Q135.86 272.89 136.47 272.33Q137.07 271.77 137.07 270.80L137.07 270.80L137.07 270.65Q137.07 269.68 136.47 269.12Q135.88 268.56 134.75 268.56L134.75 268.56L131.45 268.56Z M150.93 280.27L150.93 280.27Q149.43 280.27 148.27 279.73Q147.11 279.20 146.45 278.17Q145.80 277.13 145.80 275.65L145.80 275.65L145.80 275.17L147.83 275.17L147.83 275.65Q147.83 277.06 148.68 277.76Q149.52 278.46 150.93 278.46L150.93 278.46Q152.35 278.46 153.07 277.86Q153.80 277.26 153.80 276.31L153.80 276.31Q153.80 275.69 153.45 275.29Q153.11 274.89 152.49 274.65Q151.86 274.41 150.98 274.20L150.98 274.20L150.28 274.03Q149.01 273.73 148.07 273.28Q147.13 272.84 146.61 272.10Q146.10 271.36 146.10 270.20L146.10 270.20Q146.10 269.02 146.68 268.18Q147.26 267.35 148.29 266.89Q149.31 266.43 150.70 266.43L150.70 266.43Q152.09 266.43 153.18 266.91Q154.27 267.38 154.90 268.31Q155.53 269.25 155.53 270.65L155.53 270.65L155.53 271.34L153.49 271.34L153.49 270.65Q153.49 269.80 153.14 269.26Q152.79 268.73 152.16 268.49Q151.53 268.24 150.70 268.24L150.70 268.24Q149.48 268.24 148.81 268.74Q148.13 269.25 148.13 270.14L148.13 270.14Q148.13 270.75 148.43 271.14Q148.72 271.53 149.29 271.77Q149.86 272.02 150.72 272.21L150.72 272.21L151.42 272.38Q152.71 272.67 153.70 273.11Q154.69 273.56 155.26 274.32Q155.83 275.08 155.83 276.28L155.83 276.28Q155.83 277.47 155.23 278.37Q154.63 279.26 153.53 279.76Q152.43 280.27 150.93 280.27Z M171.45 280L162.98 280L162.98 266.70L171.35 266.70L171.35 268.56L165.03 268.56L165.03 272.38L170.82 272.38L170.82 274.24L165.03 274.24L165.03 278.14L171.45 278.14L171.45 280Z M187.07 280L178.60 280L178.60 266.70L186.98 266.70L186.98 268.56L180.65 268.56L180.65 272.38L186.44 272.38L186.44 274.24L180.65 274.24L180.65 278.14L187.07 278.14L187.07 280Z" fill="#74c2b4"></path></g></svg>